<svg width="196" height="80" viewBox="0 0 196 80" fill="none" xmlns="http://www.w3.org/2000/svg">
<path d="M172.664 27.0021L169.376 37.0216H151.808L155.096 27.0021H145.736L137.216 52.976H146.552L149.84 42.9565H167.408L164.12 52.976H173.48L182 27.0021H172.664Z" fill="#B4B7CF"/>
<path d="M135.561 38.9919C135.153 38.3672 134.577 37.8626 133.929 37.5262C133.209 37.1898 132.417 37.0216 131.625 37.0216H111.105L112.257 33.4175H139.185L141.321 27.0021H111.465C110.553 27.0021 109.665 27.1703 108.825 27.5067C107.865 27.8431 107.001 28.3476 106.233 28.9964C105.561 29.6451 104.745 30.3179 104.241 31.1348C103.641 31.9278 103.137 32.8168 102.777 33.7539L101.961 36.2047C101.745 37.0697 101.649 37.9587 101.625 38.8477C101.769 39.6647 101.961 40.4816 102.297 40.9862C102.705 41.6109 103.281 42.1155 103.929 42.4759C104.625 42.8603 105.417 43.0766 106.233 43.1246H126.753L125.601 46.5846H98.6488L96.5368 53H126.393C127.305 53 128.193 52.8318 129.033 52.4954C129.993 52.159 130.857 51.6545 131.625 51.0297C132.297 50.381 133.113 49.7082 133.617 48.8913C134.241 48.0984 134.721 47.2093 135.081 46.2723L135.897 43.8214C136.161 42.9564 136.281 42.0674 136.233 41.1784C136.065 40.3134 135.897 39.5205 135.561 38.9919Z" fill="#B4B7CF"/>
<path d="M98.8166 30.9666C98.6726 30.1496 98.4806 29.5009 98.0246 28.9723C97.6886 28.3476 97.1606 27.819 96.5366 27.5066C95.8166 27.1702 95.0246 26.978 94.2326 27.002H70.7846C69.8726 27.002 68.9846 27.1702 68.1446 27.5066C67.1846 27.843 66.2966 28.3476 65.5286 28.9963C64.8566 29.6451 64.0646 30.3178 63.5366 31.1348C62.9126 31.9277 62.4326 32.8167 62.0726 33.7538L55.8326 52.9759H65.1926L71.6006 33.4414H89.3126L87.3686 39.184H74.8886L72.9206 45.263H85.3766L82.9046 52.9999H92.1206L98.5046 33.5856C98.7686 32.7206 98.8646 31.8556 98.8166 30.9666Z" fill="#B4B7CF"/>
<path d="M57.9684 31.1349C57.9204 30.39 57.7044 29.6451 57.3204 28.9964C56.9844 28.3236 56.3844 27.795 55.6884 27.5307C54.9684 27.1703 54.1764 27.0021 53.3844 27.0261H23.5284L21.3924 33.4415H48.4404L44.1684 46.5606H17.1204L14.9844 52.976H44.9844C45.8781 52.9524 46.7619 52.7819 47.6004 52.4714C48.4404 51.9909 49.4004 51.5103 50.2164 50.8375C51.0084 50.2128 51.7284 49.492 52.3524 48.6991C52.8804 47.9062 53.3124 47.0892 53.6724 46.2242L57.6324 33.7539C57.9924 32.9369 58.1124 32.0239 57.9684 31.1349Z" fill="#B4B7CF"/>
<path d="M32.048 37.0214H16.136L14 42.9563H30.08L32.048 37.0214Z" fill="#B4B7CF"/>
</svg>
