<svg width="196" height="80" viewBox="0 0 196 80" fill="none" xmlns="http://www.w3.org/2000/svg">
<path fill-rule="evenodd" clip-rule="evenodd" d="M138.853 29.6204C139.059 30.172 139.128 30.6552 139.196 30.9999C139.266 31.3447 139.266 31.6894 139.335 31.9652C139.425 31.6253 139.565 31.3002 139.748 30.9999C139.886 30.6552 140.161 30.172 140.505 29.6204L149.251 17H156L142.089 35.4821L146.979 46.1024H140.299L138.646 41.0681C138.509 40.7227 138.44 40.3096 138.303 39.896C138.303 39.5506 138.233 39.1369 138.233 38.7232C138.027 39.1369 137.89 39.5506 137.683 39.896C137.476 40.3096 137.269 40.7233 137.063 41.0681L133.758 46.1024H127.147L135.548 35.4821L131.485 26.2408H137.89L138.853 29.6204Z" fill="#B4B7CF"/>
<path fill-rule="evenodd" clip-rule="evenodd" d="M129.143 26.2414L125.768 46.103H120.328L120.879 42.8613C119.915 44.2402 118.813 45.2757 117.78 45.8962C116.678 46.5167 115.508 46.8615 114.13 46.8615C111.926 46.8615 110.275 45.8962 109.31 43.9651C108.276 42.0339 108.07 39.4127 108.621 36.1716C109.172 32.9299 110.274 30.3788 111.996 28.4477C113.717 26.5855 115.783 25.6196 118.193 25.6196C119.433 25.6196 120.465 25.8954 121.291 26.5855C122.049 27.206 122.668 28.1719 123.151 29.4819L123.702 26.2408L129.143 26.2414ZM122.256 36.1722C122.532 34.5864 122.395 33.3448 121.843 32.4478C121.293 31.5515 120.398 31.1378 119.226 31.1378C117.987 31.1378 116.955 31.5515 116.128 32.4478C115.301 33.3448 114.751 34.5864 114.475 36.1722C114.199 37.6897 114.337 38.9307 114.888 39.827C115.439 40.6556 116.334 41.1376 117.504 41.1376C118.676 41.1376 119.709 40.6556 120.604 39.827C121.431 38.9307 121.982 37.689 122.256 36.1722ZM92.5779 46.103H98.4309L99.8772 37.8959C100.152 35.9647 100.841 34.5169 101.805 33.4131C102.769 32.3783 103.94 31.8956 105.385 31.8956C105.73 31.8956 106.006 31.8956 106.35 31.9646C106.694 32.0335 107.038 32.1714 107.383 32.3093L109.035 25.8954C108.761 25.8954 108.554 25.8265 108.278 25.8265H107.59C106.213 25.8265 104.905 26.2401 103.734 27.0681C102.632 27.9644 101.6 29.2061 100.773 30.9298L101.53 26.2401H95.9525L92.5779 46.103ZM79.1496 46.103H85.7604L89.5481 22.9307H139.541L142.778 17.2758H57.7341L56.5631 22.9307H82.8684L79.1496 46.103ZM52.9826 46.103L56.3566 26.2414H61.7971L61.1081 30.2409C62.1407 28.6551 63.2428 27.483 64.4138 26.724C65.5842 25.9656 66.8928 25.6202 68.3385 25.6202C69.4401 25.6202 70.3363 25.8271 71.0929 26.2414C71.9197 26.655 72.4704 27.2066 72.8835 28.0346C73.2277 28.6551 73.3654 29.4831 73.4342 30.4484C73.4342 31.4136 73.2966 32.8621 72.9523 34.7243L71.0241 46.1037H65.1022L66.8928 35.4834C67.1682 33.897 67.1682 32.7249 66.824 32.0348C66.5486 31.2764 65.8601 30.9316 64.8957 30.9316C63.6559 30.9316 62.6921 31.4832 61.9348 32.518C61.1775 33.6212 60.6268 35.3455 60.2137 37.7592L58.768 46.1043H52.9826V46.103ZM46.3029 22.9307L47.5427 17.0689H53.4645L52.2935 22.9307H46.3029ZM42.5152 46.103L45.8898 26.2414H51.8116L48.4376 46.103H42.5152ZM41.4831 61.6204L42.5846 61.5509C42.5846 61.8273 42.6535 61.9646 42.86 62.1025C42.9977 62.241 43.2731 62.3093 43.6173 62.3093C43.9615 62.3093 44.2369 62.241 44.4441 62.1708C44.6506 62.0335 44.7194 61.8956 44.7883 61.7571C44.7883 61.6888 44.7883 61.6198 44.7194 61.5503C44.6512 61.4819 44.5129 61.4118 44.3752 61.3434C44.2369 61.3434 43.9615 61.2751 43.5485 61.2049C42.9977 61.0676 42.5846 60.9297 42.3775 60.7912C42.1021 60.5844 42.0333 60.3092 42.1021 60.0328C42.171 59.826 42.3087 59.6191 42.5152 59.4812C42.6535 59.2744 42.9283 59.1371 43.2725 59.0676C43.5479 58.9303 43.9609 58.9303 44.3746 58.9303C44.9942 58.9303 45.4761 58.9986 45.8209 59.2054C46.0963 59.4806 46.1652 59.757 46.0963 60.1024H44.9948C44.9948 59.8955 44.9948 59.757 44.8571 59.6887C44.7194 59.6191 44.4441 59.5502 44.1687 59.5502C43.8245 59.5502 43.6179 59.6185 43.4108 59.6887C43.2879 59.7425 43.1898 59.8408 43.136 59.9639C43.136 60.0322 43.136 60.1024 43.2737 60.1707C43.4114 60.3092 43.6868 60.3775 44.1693 60.4459C44.72 60.5154 45.0643 60.654 45.2708 60.7223C45.5462 60.8608 45.6839 60.9291 45.8216 61.136C45.8904 61.2745 45.8904 61.4813 45.8904 61.7565C45.8216 61.9633 45.6839 62.1702 45.4773 62.377C45.202 62.5851 44.9266 62.7224 44.6512 62.7919C44.3064 62.9292 43.8933 62.9988 43.4108 62.9988C42.723 62.9988 42.2404 62.8603 41.8962 62.6534C41.6202 62.3776 41.4831 62.0341 41.4831 61.6204ZM47.4738 58.9992H48.5753L48.024 61.1372C47.9551 61.4124 47.8863 61.6888 47.8863 61.7577C47.8863 61.8962 47.9551 62.0341 48.1616 62.1714C48.2993 62.241 48.5065 62.3099 48.8501 62.3099C49.1255 62.3099 49.4008 62.2416 49.5385 62.1714C49.7451 62.0341 49.8834 61.9646 49.9522 61.8273C50.0211 61.6888 50.0899 61.4819 50.1587 61.1372L50.6407 58.9992H51.7428L51.2609 61.0683C51.1226 61.4819 51.0543 61.8267 50.916 62.0335C50.8472 62.2404 50.6407 62.3776 50.503 62.5155C50.297 62.654 50.0211 62.7919 49.7457 62.8609C49.4703 62.9298 49.1261 62.9994 48.713 62.9994C48.3183 63.0049 47.9246 62.9584 47.542 62.8609C47.3355 62.7224 47.129 62.654 46.9913 62.5155C46.853 62.377 46.853 62.2404 46.7848 62.0335C46.7848 61.8267 46.8536 61.4819 46.9231 61.0683L47.4738 58.9992ZM51.9493 61.6204L53.0514 61.5509C53.0514 61.8273 53.1203 61.9646 53.3268 62.1025C53.4645 62.241 53.7399 62.3093 54.0841 62.3093C54.4283 62.3093 54.7037 62.241 54.9102 62.1708C55.1168 62.0335 55.1856 61.8956 55.2544 61.7571C55.2544 61.6888 55.2544 61.6198 55.1856 61.5503C55.1168 61.4819 55.0479 61.4118 54.8408 61.3434C54.7031 61.3434 54.4277 61.2751 54.0146 61.2049C53.4639 61.0676 53.0508 60.9297 52.9131 60.7912C52.5683 60.5844 52.4994 60.3092 52.5683 60.0328C52.6371 59.826 52.7748 59.6191 52.9131 59.4812C53.1197 59.2744 53.3944 59.1371 53.7393 59.0676C54.0146 58.9303 54.3589 58.9303 54.8408 58.9303C55.461 58.9303 55.9429 58.9986 56.2871 59.2054C56.5625 59.4806 56.6313 59.757 56.5625 60.1024H55.461C55.461 59.8955 55.3921 59.757 55.3233 59.6887C55.1856 59.6191 54.9102 59.5502 54.6348 59.5502C54.2906 59.5502 54.0841 59.6185 53.8769 59.6887C53.7539 59.7425 53.6556 59.8407 53.6016 59.9639C53.6016 60.0322 53.6016 60.1024 53.7399 60.1707C53.8776 60.3092 54.1536 60.3775 54.6355 60.4459C55.1862 60.5154 55.5304 60.654 55.8064 60.7223C56.013 60.8608 56.1507 60.9291 56.2883 61.136C56.3572 61.2745 56.426 61.4813 56.3572 61.7565C56.2883 61.9633 56.1507 62.1702 55.9441 62.377C55.6687 62.5851 55.3934 62.7224 55.1174 62.7919C54.7732 62.9292 54.3601 62.9988 53.8776 62.9988C53.1891 62.9988 52.7072 62.8603 52.363 62.6534C52.0876 62.3776 51.9493 62.0341 51.9493 61.6204ZM56.9762 62.9298L57.94 58.9992H59.6617C60.3508 58.9992 60.7632 58.9992 60.9697 59.0676C61.2451 59.0676 61.4523 59.2061 61.6588 59.4129C61.7965 59.6197 61.8653 59.8961 61.7965 60.1713C61.7398 60.4055 61.6209 60.62 61.4523 60.7919C61.2457 60.9304 61.1074 61.0683 60.9015 61.2055C60.695 61.2751 60.4885 61.344 60.2819 61.344C60.0065 61.4124 59.5935 61.4124 59.1116 61.4124H58.4231L58.0783 62.9298H56.9762ZM58.8362 59.6197L58.5608 60.7919H59.1798C59.5935 60.7919 59.9377 60.7235 60.0754 60.7235C60.2131 60.6552 60.3508 60.585 60.4202 60.5167C60.5579 60.3782 60.6261 60.3098 60.6261 60.1713C60.695 60.0328 60.6261 59.9645 60.5573 59.826C60.4885 59.7576 60.3508 59.6887 60.1442 59.6887C60.0754 59.6191 59.7994 59.6191 59.3863 59.6191H58.8362V59.6197ZM62.003 62.9298L62.9675 58.9992H66.961L66.8234 59.6197H63.8624L63.6559 60.5167H66.4103L66.2038 61.1372H63.5182L63.2428 62.241H66.2726L66.0661 62.9298H62.003ZM67.0299 62.9298L67.9943 58.9992H69.0276L70.611 61.6204L71.2995 58.9992H72.2633L71.2995 62.9298H70.198L68.6834 60.3782L68.0632 62.9298H67.0299ZM72.4704 61.6204L73.5719 61.5509C73.5719 61.8273 73.6408 61.9646 73.8473 62.1025C73.985 62.241 74.2604 62.3093 74.6046 62.3093C74.8857 62.3094 75.1649 62.2626 75.4307 62.1708C75.6373 62.0335 75.7061 61.8956 75.7749 61.7571C75.7749 61.6888 75.7749 61.6198 75.7061 61.5503C75.6373 61.4819 75.5684 61.4118 75.3619 61.3434C75.2236 61.3434 74.9488 61.2751 74.5351 61.2049C73.9844 61.0676 73.5713 60.9297 73.4336 60.7912C73.0888 60.5844 73.0206 60.3092 73.0888 60.0328C73.1621 59.8259 73.2798 59.6376 73.4336 59.4812C73.6402 59.2744 73.9155 59.1371 74.2598 59.0676C74.5351 58.9303 74.9488 58.9303 75.3619 58.9303C75.9815 58.9303 76.4634 58.9986 76.8082 59.2054C77.0836 59.4806 77.1524 59.757 77.0836 60.1024H75.9815C76.0503 59.8955 75.9126 59.757 75.8438 59.6887C75.7061 59.6191 75.499 59.5502 75.1554 59.5502C74.8105 59.5502 74.6046 59.6185 74.3981 59.6887C74.2749 59.7423 74.1765 59.8406 74.1227 59.9639C74.1227 60.0322 74.1915 60.1024 74.2604 60.1707C74.3987 60.3092 74.6741 60.3775 75.2242 60.4459C75.7067 60.5154 76.0509 60.654 76.3263 60.7223C76.5328 60.8608 76.6705 60.9291 76.8082 61.136C76.8771 61.2745 76.9459 61.4813 76.8771 61.7565C76.8082 61.9633 76.6705 62.1702 76.464 62.377C76.1892 62.5851 75.9132 62.7224 75.6379 62.7919C75.2937 62.9292 74.8806 62.9988 74.3987 62.9988C73.7102 62.9988 73.2277 62.8603 72.8835 62.6534C72.6075 62.3776 72.4704 62.0341 72.4704 61.6204ZM77.4284 62.9298L78.3923 58.9992H79.4938L78.5299 62.9298H77.4284ZM79.838 60.9304C79.9068 60.585 80.1134 60.2403 80.3205 59.9651C80.527 59.7583 80.7336 59.5514 80.9401 59.4135C81.2155 59.275 81.4909 59.1383 81.7662 59.0682C82.1105 58.9998 82.5235 58.9309 82.9372 58.9309C83.7633 58.9309 84.3141 59.0682 84.7272 59.4819C85.1402 59.8272 85.2097 60.3105 85.072 60.931C84.9343 61.5515 84.5901 62.0347 84.0387 62.4484C83.4191 62.7938 82.7989 63 81.9734 63C81.1466 63 80.5959 62.7932 80.1828 62.4484C79.838 62.1025 79.7003 61.6204 79.838 60.9304ZM80.9401 60.9304C80.8713 61.4124 80.9401 61.6888 81.1466 61.9646C81.3532 62.1714 81.6974 62.3099 82.1105 62.3099C82.5924 62.3099 82.9372 62.1714 83.2808 61.9646C83.6257 61.6894 83.8316 61.413 83.9699 60.9304C84.0387 60.5167 84.0387 60.1719 83.8322 59.8962C83.5568 59.6893 83.2814 59.6197 82.7989 59.6197C82.3164 59.6197 81.9728 59.6893 81.6286 59.8962C81.2843 60.1713 81.0778 60.5167 80.9401 60.9304ZM85.4851 62.9298L86.4489 58.9992H87.4822L89.0662 61.6204L89.6858 58.9992H90.7185L89.754 62.9298H88.6525L87.0685 60.3782L86.4489 62.9298H85.4851ZM94.1613 62.9298L94.988 59.6197H93.404L93.5417 58.9992H97.8113L97.6736 59.6197H96.0895L95.2634 62.9298H94.1613ZM97.6041 62.9298L98.5685 58.9992H102.563L102.356 59.6197H99.4641L99.2564 60.5167H101.943L101.805 61.1372H99.1199L98.8439 62.241H101.874L101.667 62.9298H97.6041ZM106.419 61.4819L107.383 61.6888C107.177 62.1025 106.763 62.4472 106.35 62.654C105.936 62.8609 105.455 62.9994 104.834 62.9994C104.146 62.9994 103.595 62.7925 103.251 62.4478C102.837 62.1025 102.769 61.6204 102.906 60.9987C103.044 60.3098 103.388 59.8266 103.94 59.4812C104.49 59.0676 105.179 58.9303 105.936 58.9303C106.557 58.9303 107.106 59.0676 107.451 59.344C107.658 59.4812 107.727 59.7576 107.796 60.0328L106.694 60.2397C106.694 60.0328 106.557 59.8955 106.419 59.7576C106.213 59.6191 106.006 59.6191 105.73 59.6191C105.317 59.6191 104.973 59.6887 104.629 59.8955C104.353 60.1024 104.147 60.4465 104.008 60.9297C103.94 61.4118 103.94 61.7571 104.147 61.9639C104.353 62.1708 104.629 62.3093 105.042 62.3093C105.317 62.3093 105.593 62.241 105.8 62.1025C106.074 61.9646 106.281 61.7577 106.419 61.4819ZM108.071 62.9298L109.035 58.9992H110.137L109.724 60.5167H111.859L112.272 58.9992H113.306L112.341 62.9298H111.308L111.721 61.2055H109.586L109.173 62.9298H108.071ZM113.512 62.9298L114.476 58.9992H115.509L117.092 61.6204L117.712 58.9992H118.745L117.781 62.9298H116.679L115.164 60.3782L114.476 62.9298H113.512ZM119.158 60.9304C119.296 60.585 119.434 60.2403 119.709 59.9651C119.864 59.731 120.078 59.541 120.328 59.4135C120.56 59.2579 120.816 59.1413 121.086 59.0682C121.499 58.9998 121.843 58.9309 122.326 58.9309C123.083 58.9309 123.703 59.0682 124.048 59.4819C124.461 59.8272 124.598 60.3105 124.461 60.931C124.254 61.5515 123.91 62.0347 123.359 62.4484C122.808 62.7938 122.118 63 121.293 63C120.535 63 119.916 62.7932 119.503 62.4484C119.158 62.1025 119.02 61.6204 119.158 60.9304ZM120.329 60.9304C120.191 61.4124 120.261 61.6888 120.467 61.9646C120.742 62.1714 121.018 62.3099 121.5 62.3099C121.913 62.3099 122.327 62.1714 122.602 61.9646C122.947 61.6894 123.222 61.413 123.291 60.9304C123.428 60.5167 123.359 60.1719 123.153 59.8962C122.946 59.6893 122.602 59.6197 122.119 59.6197C121.706 59.6197 121.293 59.6893 120.948 59.8962C120.673 60.1713 120.398 60.5167 120.329 60.9304ZM124.804 62.9298L125.768 58.9992H126.87L126.044 62.241H128.799L128.661 62.9298H124.804ZM129.626 60.9304C129.763 60.585 129.901 60.2403 130.176 59.9651C130.332 59.7307 130.546 59.5406 130.797 59.4135C131.072 59.275 131.278 59.1383 131.554 59.0682C131.962 58.9809 132.377 58.935 132.793 58.9309C133.551 58.9309 134.17 59.0682 134.583 59.4819C134.928 59.8272 135.066 60.3105 134.928 60.931C134.722 61.5515 134.377 62.0347 133.826 62.4484C133.276 62.7938 132.587 63 131.761 63C131.004 63 130.383 62.7932 130.04 62.4484C129.626 62.1025 129.488 61.6204 129.626 60.9304ZM130.796 60.9304C130.658 61.4124 130.727 61.6888 130.933 61.9646C131.209 62.1714 131.484 62.3099 131.967 62.3099C132.38 62.3099 132.793 62.1714 133.068 61.9646C133.413 61.6894 133.689 61.413 133.757 60.9304C133.895 60.5167 133.825 60.1719 133.619 59.8962C133.412 59.6893 133.068 59.6197 132.655 59.6197C132.174 59.6197 131.761 59.6893 131.416 59.8962C131.14 60.1713 130.864 60.5167 130.796 60.9304ZM138.026 61.4819L138.233 60.7919H140.574L140.161 62.3776C139.886 62.5161 139.541 62.654 139.06 62.7925C138.637 62.928 138.196 62.9977 137.751 62.9994C137.201 62.9994 136.788 62.8609 136.374 62.723C136.03 62.5161 135.754 62.3093 135.617 61.9646C135.479 61.6204 135.479 61.2757 135.548 60.9304C135.686 60.5167 135.893 60.1719 136.169 59.8266C136.512 59.5514 136.926 59.275 137.339 59.1377C137.683 58.9992 138.165 58.9309 138.646 58.9309C139.335 58.9309 139.818 58.9992 140.162 59.2061C140.506 59.4129 140.644 59.6893 140.712 60.0334L139.542 60.2403C139.542 60.0334 139.404 59.8962 139.267 59.7583C139.061 59.6198 138.785 59.6197 138.51 59.6197C138.027 59.6197 137.614 59.6893 137.269 59.8962C136.995 60.103 136.788 60.4471 136.719 60.8614C136.582 61.3434 136.65 61.6888 136.857 61.9639C137.064 62.1708 137.34 62.3093 137.821 62.3093C138.027 62.3093 138.303 62.241 138.51 62.1708C138.785 62.1025 138.991 62.0335 139.198 61.9639L139.336 61.4819H138.026ZM142.503 62.9298L142.846 61.2751L141.469 58.9992H142.778L143.604 60.5167L145.257 58.9992H146.496L143.948 61.2751L143.536 62.9298H142.503ZM41 55.5513H147.047L148.149 50.6542H42.1021L41 55.5513Z" fill="#B4B7CF"/>
</svg>
