<svg width="196" height="69" viewBox="0 0 196 69" fill="none" xmlns="http://www.w3.org/2000/svg">
<g clip-path="url(#clip0_166_1259)">
<path fill-rule="evenodd" clip-rule="evenodd" d="M22.5351 68.5605L21.1601 44.3533C20.3861 43.2288 18.4426 40.4436 16.8603 38.2985C15.0436 35.8357 15.1132 33.227 15.1366 32.3489C15.1387 32.2709 15.1404 32.2066 15.1404 32.1573C15.1404 31.8619 15.427 29.528 15.7505 26.8936L15.7505 26.8933L15.7506 26.8931C16.0901 24.1283 16.4702 21.0327 16.6023 19.6153C16.8087 17.401 17.6056 16.7898 17.9782 16.761C19.3828 16.3861 22.5532 15.5154 23.9979 15.031C25.8038 14.4256 25.8038 12.9551 24.4279 11.1387C23.3271 9.68556 22.9946 6.95804 22.9659 5.77593C22.9659 3.13726 23.9814 1.49238 25.2836 0.560547L0.00422924 5.35512V43.2108C0.00422924 43.3145 0.00328351 43.4242 0.00228649 43.5398C-0.0176954 45.8574 -0.0582804 50.5646 7.08075 57.4801C11.394 61.6583 17.7423 65.7829 22.5351 68.5605Z" fill="#44B64B"/>
<path d="M30.73 16.9149L27.5225 16.4736L27.6116 17.5327L29.0371 19.4744C29.0074 23.2989 28.8946 31.2832 28.6807 32.6248C29.4648 34.1781 30.3142 35.5078 30.6409 35.9785L32.5119 32.1835C32.1258 28.7708 31.1398 21.4514 30.2845 19.4744C30.7569 18.2712 30.8938 18.0278 30.9071 18.0552L30.9082 18.0623C30.9082 18.0606 30.9081 18.0592 30.9079 18.0579C30.9077 18.0568 30.9074 18.0559 30.9071 18.0552L30.73 16.9149Z" fill="white"/>
<path d="M54.3968 5.35496V43.2106C54.3968 43.3144 54.3978 43.424 54.3988 43.5397C54.4188 45.8573 54.4593 50.5645 47.3203 57.48C43.2019 61.4694 37.228 65.41 32.5246 68.1759L35.435 48.0724C35.6644 46.8327 36.2778 44.1109 36.897 43.1421C37.5161 42.1734 38.2442 40.4896 38.5309 39.7688C38.6169 39.5093 38.7889 38.4541 38.7889 36.3089C38.7889 34.1638 37.9289 24.459 37.4989 19.8747C37.4989 19.3557 37.1721 18.162 35.865 17.5393C34.2311 16.7608 30.7913 15.0309 30.3613 13.7334C30.3613 13.2459 30.5286 13.0948 30.7734 12.8738C30.8326 12.8204 30.8963 12.7628 30.9633 12.6955C30.9827 12.6759 31.0093 12.6503 31.0422 12.6186L31.0423 12.6185C31.591 12.0894 33.8871 9.87544 33.8871 6.12175C33.8871 4.01931 33.2869 2.30329 32.2386 1.15234L54.3968 5.35496Z" fill="white"/>
</g>
<path d="M175.619 56.3866V51.0977H181.472C182.849 51.0977 184.043 50.8344 185.053 50.3078C186.086 49.7812 186.878 49.0028 187.429 47.9725C187.979 46.9193 188.255 45.6486 188.255 44.1604C188.255 42.695 187.968 41.4587 187.394 40.4513C186.843 39.421 186.063 38.6425 185.053 38.1159C184.043 37.5893 182.849 37.326 181.472 37.326H175.343V32.0371H181.506C183.389 32.0371 185.122 32.3348 186.706 32.93C188.289 33.5024 189.667 34.3267 190.837 35.4028C192.008 36.4789 192.915 37.761 193.557 39.2492C194.223 40.7375 194.556 42.3859 194.556 44.1947C194.556 46.0263 194.223 47.6863 193.557 49.1745C192.915 50.6627 192.008 51.9449 190.837 53.021C189.667 54.0971 188.289 54.9327 186.706 55.528C185.145 56.1004 183.435 56.3866 181.575 56.3866H175.619ZM171.452 56.3866V32.0371H177.616V56.3866H171.452Z" fill="#44B64B"/>
<path d="M153.982 46.5301V42.1341H158.63C159.64 42.1341 160.409 41.8937 160.937 41.4129C161.488 40.9092 161.763 40.2338 161.763 39.3866C161.763 38.5624 161.488 37.8984 160.937 37.3947C160.409 36.8681 159.64 36.6048 158.63 36.6048H153.982V32.0371H159.491C161.143 32.0371 162.589 32.3462 163.829 32.9644C165.091 33.5826 166.078 34.4297 166.79 35.5058C167.502 36.5819 167.857 37.8412 167.857 39.2836C167.857 40.726 167.49 41.9967 166.756 43.0957C166.044 44.1718 165.046 45.0189 163.76 45.6371C162.475 46.2324 160.971 46.5301 159.25 46.5301H153.982ZM149.092 56.3866V32.0371H155.256V56.3866H149.092ZM162.314 56.3866L155.221 45.9462L160.765 44.6068L169.441 56.3866H162.314Z" fill="#44B64B"/>
<path d="M122.017 56.3866L131.485 32.0371H137.442L146.807 56.3866H140.368L133.31 35.9179H135.548L128.317 56.3866H122.017ZM127.767 52.128V47.2513H141.229V52.128H127.767Z" fill="#44B64B"/>
<path d="M110.458 56.7644C108.393 56.7644 106.568 56.3408 104.984 55.4937C103.423 54.6237 102.206 53.4216 101.334 51.8876C100.462 50.3536 100.026 48.6136 100.026 46.6674V32.0371H106.155V47.1139C106.155 47.9839 106.338 48.7395 106.705 49.3806C107.096 49.9987 107.612 50.4795 108.255 50.823C108.921 51.1435 109.655 51.3038 110.458 51.3038C111.285 51.3038 112.008 51.1435 112.628 50.823C113.247 50.4795 113.741 49.9987 114.108 49.3806C114.475 48.7624 114.659 48.0183 114.659 47.1482V32.0371H120.857V46.7018C120.857 48.6479 120.421 50.388 119.548 51.922C118.676 53.4331 117.459 54.6237 115.899 55.4937C114.361 56.3408 112.547 56.7644 110.458 56.7644Z" fill="#44B64B"/>
<path d="M84.9789 56.7644C83.1196 56.7644 81.398 56.4553 79.8142 55.8371C78.2533 55.196 76.876 54.3031 75.6824 53.1583C74.5118 52.0136 73.5936 50.6856 72.9279 49.1745C72.2852 47.6405 71.9639 45.9806 71.9639 44.1947C71.9639 42.3859 72.2967 40.726 72.9624 39.2149C73.651 37.6809 74.6036 36.3529 75.8202 35.2311C77.0367 34.0863 78.4484 33.2048 80.0552 32.5866C81.6849 31.9455 83.418 31.625 85.2543 31.625C87.4349 31.625 89.409 32.0142 91.1765 32.7927C92.9439 33.5482 94.3786 34.6014 95.4804 35.9523L91.3486 40.0735C90.5223 39.089 89.6156 38.3563 88.6286 37.8755C87.6415 37.3718 86.4938 37.1199 85.1854 37.1199C83.8541 37.1199 82.6605 37.4176 81.6046 38.0129C80.5717 38.5853 79.7453 39.3981 79.1256 40.4513C78.5058 41.5045 78.1959 42.7408 78.1959 44.1604C78.1959 45.5799 78.4828 46.8277 79.0567 47.9038C79.6535 48.9799 80.4569 49.8156 81.4669 50.4109C82.4998 51.0061 83.6819 51.3038 85.0133 51.3038C86.3446 51.3038 87.4694 51.0519 88.3875 50.5482C89.3287 50.0445 90.0402 49.3119 90.5223 48.3503C91.0273 47.3886 91.2798 46.2439 91.2798 44.9159L95.4459 47.5947L84.3247 47.3199V42.3058H97.4774V43.2331C97.4774 46.1408 96.9494 48.6021 95.8935 50.6169C94.8377 52.6317 93.3686 54.1657 91.4863 55.2189C89.6271 56.2492 87.4579 56.7644 84.9789 56.7644Z" fill="#44B64B"/>
<path d="M186.106 21.9167V19.1033H189.081C189.727 19.1033 190.22 18.9494 190.557 18.6417C190.91 18.3193 191.086 17.8871 191.086 17.3449C191.086 16.8174 190.91 16.3924 190.557 16.0701C190.22 15.733 189.727 15.5645 189.081 15.5645H186.106V12.6412H189.632C190.69 12.6412 191.615 12.839 192.408 13.2347C193.216 13.6303 193.848 14.1725 194.304 14.8612C194.759 15.5499 194.987 16.3558 194.987 17.2789C194.987 18.2021 194.752 19.0153 194.282 19.7187C193.826 20.4074 193.187 20.9496 192.364 21.3452C191.542 21.7262 190.579 21.9167 189.478 21.9167H186.106ZM182.977 28.2249V12.6412H186.922V28.2249H182.977ZM191.439 28.2249L186.899 21.543L190.447 20.6858L196 28.2249H191.439Z" fill="white"/>
<path d="M169.162 28.2249V12.6412H173.106V28.2249H169.162ZM172.291 28.2249V24.9059H180.752V28.2249H172.291ZM172.291 21.8947V18.6637H179.959V21.8947H172.291ZM172.291 15.9602V12.6412H180.62V15.9602H172.291Z" fill="white"/>
<path d="M150.074 28.2249V12.6412H152.916L158.91 21.6749H157.566L163.538 12.6412H166.38V28.2249H162.48V19.1472L163.097 19.3231L159.505 24.7081H156.949L153.379 19.3231L153.996 19.1472V28.2249H150.074Z" fill="white"/>
<path d="M140.907 28.4667C139.585 28.4667 138.417 28.1956 137.403 27.6534C136.404 27.0966 135.625 26.3273 135.067 25.3455C134.509 24.3638 134.23 23.2501 134.23 22.0046V12.6412H138.152V22.2903C138.152 22.8472 138.27 23.3307 138.505 23.741C138.754 24.1366 139.085 24.4444 139.496 24.6642C139.922 24.8693 140.392 24.9719 140.907 24.9719C141.436 24.9719 141.898 24.8693 142.295 24.6642C142.692 24.4444 143.007 24.1366 143.242 23.741C143.478 23.3454 143.595 22.8691 143.595 22.3123V12.6412H147.562V22.0266C147.562 23.2721 147.282 24.3857 146.724 25.3675C146.166 26.3346 145.387 27.0966 144.388 27.6534C143.404 28.1956 142.244 28.4667 140.907 28.4667Z" fill="white"/>
<path d="M125.979 28.4667C124.672 28.4667 123.533 28.2688 122.563 27.8732C121.609 27.4776 120.734 26.8548 119.941 26.0049L122.431 23.4992C122.975 24.0707 123.555 24.5103 124.172 24.818C124.789 25.1111 125.487 25.2576 126.265 25.2576C126.927 25.2576 127.433 25.1477 127.786 24.9279C128.153 24.6935 128.337 24.3784 128.337 23.9828C128.337 23.6165 128.205 23.3161 127.94 23.0816C127.676 22.8325 127.323 22.62 126.882 22.4442C126.456 22.2537 125.979 22.0779 125.45 21.9167C124.936 21.7408 124.414 21.5357 123.886 21.3012C123.371 21.0521 122.894 20.7518 122.453 20.4001C122.027 20.0484 121.682 19.6088 121.418 19.0813C121.153 18.5538 121.021 17.9017 121.021 17.1251C121.021 16.1287 121.256 15.2788 121.726 14.5754C122.211 13.8721 122.879 13.3299 123.731 12.9489C124.583 12.5679 125.575 12.3774 126.706 12.3774C127.837 12.3774 128.88 12.5679 129.835 12.9489C130.79 13.3299 131.576 13.8574 132.193 14.5315L129.681 17.0152C129.211 16.5463 128.734 16.1946 128.249 15.9602C127.764 15.7257 127.235 15.6085 126.662 15.6085C126.119 15.6085 125.693 15.7037 125.384 15.8942C125.076 16.0847 124.921 16.3558 124.921 16.7075C124.921 17.0591 125.054 17.3449 125.318 17.5647C125.582 17.7845 125.928 17.9823 126.354 18.1581C126.794 18.3193 127.272 18.4878 127.786 18.6637C128.315 18.8395 128.836 19.0447 129.351 19.2791C129.865 19.5136 130.335 19.8139 130.761 20.1803C131.202 20.5466 131.554 21.0082 131.819 21.565C132.083 22.1218 132.215 22.7959 132.215 23.5871C132.215 25.1404 131.664 26.3419 130.562 27.1918C129.475 28.0417 127.948 28.4667 125.979 28.4667Z" fill="white"/>
<path d="M104.904 28.2249V12.6412H107.659L108.849 15.8283V28.2249H104.904ZM115.68 28.2249L106.557 16.6635L107.659 12.6412L116.804 24.2026L115.68 28.2249ZM115.68 28.2249L114.666 24.9499V12.6412H118.611V28.2249H115.68Z" fill="white"/>
<path d="M94.6241 28.5106C93.4195 28.5106 92.3103 28.3055 91.2967 27.8952C90.283 27.4849 89.3942 26.9134 88.6303 26.1808C87.8811 25.4481 87.2935 24.5909 86.8674 23.6091C86.4414 22.6127 86.2284 21.543 86.2284 20.4001C86.2284 19.2571 86.4341 18.2021 86.8454 17.235C87.2714 16.2532 87.8591 15.396 88.6083 14.6633C89.3575 13.9307 90.2389 13.3665 91.2526 12.9709C92.2662 12.5606 93.3754 12.3555 94.58 12.3555C95.7847 12.3555 96.8938 12.5606 97.9075 12.9709C98.9211 13.3665 99.8025 13.9307 100.552 14.6633C101.301 15.396 101.881 16.2532 102.293 17.235C102.719 18.2167 102.932 19.2791 102.932 20.4221C102.932 21.565 102.719 22.6274 102.293 23.6091C101.881 24.5909 101.301 25.4554 100.552 26.2027C99.8025 26.9354 98.9211 27.5069 97.9075 27.9172C96.9085 28.3128 95.814 28.5106 94.6241 28.5106ZM94.58 24.9939C95.4615 24.9939 96.2254 24.8034 96.8718 24.4224C97.5182 24.0414 98.0176 23.5066 98.3702 22.8179C98.7228 22.1292 98.8991 21.3232 98.8991 20.4001C98.8991 19.726 98.7962 19.1106 98.5906 18.5538C98.3996 17.9969 98.1131 17.5207 97.7312 17.1251C97.3492 16.7148 96.8938 16.3998 96.3649 16.18C95.8361 15.9602 95.2411 15.8503 94.58 15.8503C93.6986 15.8503 92.9347 16.0407 92.2883 16.4217C91.6419 16.7881 91.1424 17.3156 90.7898 18.0043C90.4373 18.693 90.261 19.4916 90.261 20.4001C90.261 21.1034 90.3565 21.7408 90.5474 22.3123C90.7531 22.8691 91.0469 23.3527 91.4289 23.763C91.8108 24.1586 92.2663 24.4663 92.7951 24.6861C93.324 24.8913 93.9189 24.9939 94.58 24.9939Z" fill="white"/>
<path d="M79.9688 28.4667C78.7789 28.4667 77.6771 28.2688 76.6634 27.8732C75.6498 27.4629 74.761 26.8988 73.9971 26.1808C73.2478 25.4481 72.6602 24.5909 72.2342 23.6091C71.8229 22.6274 71.6172 21.565 71.6172 20.4221C71.6172 19.2645 71.8229 18.2021 72.2342 17.235C72.6602 16.2532 73.2478 15.4033 73.9971 14.6853C74.761 13.9673 75.6424 13.4032 76.6414 12.9929C77.655 12.5826 78.7495 12.3774 79.9247 12.3774C81.1588 12.3774 82.2679 12.5753 83.2522 12.9709C84.2364 13.3519 85.1032 13.8867 85.8524 14.5754L83.2081 17.213C82.8408 16.8027 82.3854 16.4803 81.8419 16.2459C81.2983 16.0114 80.6593 15.8942 79.9247 15.8942C79.293 15.8942 78.7128 15.9968 78.1839 16.2019C77.6697 16.4071 77.2217 16.7148 76.8397 17.1251C76.4578 17.5207 76.1566 17.9969 75.9362 18.5538C75.7306 19.1106 75.6277 19.7334 75.6277 20.4221C75.6277 21.1108 75.7306 21.7335 75.9362 22.2903C76.1566 22.8472 76.4578 23.3307 76.8397 23.741C77.2217 24.1366 77.6697 24.4444 78.1839 24.6642C78.7128 24.8693 79.293 24.9719 79.9247 24.9719C80.6593 24.9719 81.3057 24.862 81.8639 24.6422C82.4222 24.4077 82.8996 24.078 83.2962 23.6531L85.9406 26.2907C85.1766 26.9794 84.3099 27.5142 83.3403 27.8952C82.3854 28.2762 81.2616 28.4667 79.9688 28.4667Z" fill="white"/>
<defs>
<clipPath id="clip0_166_1259">
<rect width="54.4013" height="68" fill="white" transform="translate(0 0.560547)"/>
</clipPath>
</defs>
</svg>
