<svg width="267" height="246" viewBox="0 0 267 246" fill="none" xmlns="http://www.w3.org/2000/svg">
<path d="M93.6918 8.26147L10.9189 115.799L234 60.5L109.535 4.2876C106.834 3.06161 103.797 2.78707 100.92 3.50876C98.0425 4.23044 95.4946 5.90577 93.6918 8.26147Z" fill="#30367A"/>
<path d="M11.3969 116.713C11.297 116.311 11.5419 115.905 11.9439 115.805L233.393 60.7554C233.795 60.6555 234.201 60.9003 234.301 61.3023L264.157 181.402C264.736 183.735 264.366 186.202 263.127 188.262C261.887 190.321 259.88 191.804 257.548 192.384L52.2338 243.422C49.9011 244.002 47.4337 243.631 45.3742 242.392C43.3148 241.153 41.832 239.146 41.2521 236.813L11.3969 116.713Z" fill="#262C73" stroke="#B5B8D0" stroke-width="0.5"/>
<path d="M220.551 66.9042L143.161 145.973L26.1883 119.643L12.8058 57.6C12.0652 54.3996 12.6119 51.0365 14.3279 48.2354C16.044 45.4344 18.7921 43.4199 21.9796 42.6262L191.195 0.5659C192.79 0.167932 194.448 0.0884969 196.074 0.332141C197.7 0.575786 199.262 1.13773 200.671 1.9858C202.08 2.83387 203.307 3.95142 204.283 5.27447C205.26 6.59753 205.965 8.10011 206.36 9.69622L220.551 66.9042Z" fill="#E7E9FC"/>
<path d="M132.535 139.755L40.6318 235.789C40.9563 237.095 41.535 238.324 42.3347 239.407C43.1345 240.489 44.1397 241.403 45.2928 242.097C46.446 242.79 47.7245 243.25 49.0553 243.449C50.3862 243.649 51.7433 243.584 53.0491 243.259L256.786 192.607C259.421 191.952 261.689 190.276 263.09 187.949C264.49 185.622 264.909 182.834 264.255 180.198L264.064 179.433L143.891 137.042C141.938 136.352 139.827 136.241 137.813 136.722C135.798 137.204 133.965 138.257 132.535 139.755Z" fill="#30367A"/>
<path opacity="0.3" d="M103.173 51.786L36.9741 68.2544L38.6556 75.0135L104.854 58.5451L103.173 51.786Z" fill="#B5B8D0"/>
<path opacity="0.3" d="M188.113 48.852L41.2356 85.3911L43.1354 93.0278L190.013 56.4887L188.113 48.852Z" fill="#B5B8D0"/>
<path opacity="0.3" d="M192.759 67.5092L45.8816 104.048L47.7814 111.685L194.659 75.1459L192.759 67.5092Z" fill="#B5B8D0"/>
<path opacity="0.3" d="M195.847 92.2345L191.247 96.8344L67.9442 129.069L51.8314 125.304L51.2227 123.556L197.63 87.1389L198.264 89.6693L195.847 92.2345Z" fill="#B5B8D0"/>
<path opacity="0.3" d="M164.308 124.364L108.761 138.173L91.7788 134.295L174.795 113.643L164.308 124.364Z" fill="#B5B8D0"/>
<path d="M129.178 143.251C129.178 143.251 129.117 143.347 128.97 143.512L128.309 144.234L125.752 146.973L116.283 156.999C108.265 165.442 97.1526 177.112 84.8484 189.903C72.5442 202.694 61.24 214.172 52.9966 222.398C48.8749 226.511 45.5184 229.833 43.188 232.102L40.5011 234.711L39.7881 235.381C39.7137 235.464 39.6289 235.537 39.5359 235.598C39.6001 235.507 39.6729 235.423 39.7533 235.346L40.4315 234.641L43.0402 231.972L52.7531 222.172C60.9356 213.885 72.179 202.381 84.5092 189.581C96.8395 176.781 107.987 165.234 116.031 156.773L125.596 146.851L128.204 144.173L128.9 143.486C129.091 143.321 129.178 143.251 129.178 143.251Z" fill="#B5B8D0"/>
<mask id="path-11-inside-1_517_5888" fill="white">
<path d="M264.064 179.416C264.02 179.538 238.394 170.642 206.83 159.546C175.265 148.451 149.709 139.355 149.752 139.234C149.795 139.112 175.421 147.999 206.986 159.094C238.551 170.19 264.107 179.285 264.064 179.416Z"/>
</mask>
<path d="M264.064 179.416C264.02 179.538 238.394 170.642 206.83 159.546C175.265 148.451 149.709 139.355 149.752 139.234C149.795 139.112 175.421 147.999 206.986 159.094C238.551 170.19 264.107 179.285 264.064 179.416Z" fill="#B5B8D0"/>
<path d="M264.064 179.416L265.005 179.752L265.009 179.742L265.012 179.732L264.064 179.416ZM263.122 179.079C263.314 178.542 263.817 178.446 263.855 178.438C263.976 178.413 264.073 178.417 264.1 178.418C264.171 178.421 264.223 178.431 264.229 178.432C264.254 178.437 264.264 178.44 264.244 178.435C264.212 178.427 264.152 178.409 264.056 178.379C263.868 178.321 263.582 178.229 263.2 178.103C262.438 177.851 261.314 177.471 259.864 176.976C256.965 175.987 252.773 174.541 247.595 172.743C237.239 169.148 222.943 164.151 207.161 158.603L206.498 160.49C222.281 166.038 236.58 171.036 246.939 174.632C252.118 176.43 256.314 177.878 259.218 178.869C260.67 179.365 261.802 179.747 262.573 180.002C262.957 180.129 263.258 180.226 263.465 180.29C263.567 180.321 263.656 180.348 263.726 180.367C263.757 180.375 263.806 180.388 263.857 180.398C263.876 180.401 263.938 180.413 264.016 180.416C264.047 180.417 264.146 180.421 264.269 180.395C264.309 180.387 264.813 180.291 265.005 179.752L263.122 179.079ZM207.161 158.603C191.38 153.056 177.101 148.008 166.773 144.333C161.609 142.495 157.434 141.001 154.553 139.958C153.113 139.437 151.998 139.03 151.247 138.749C150.87 138.609 150.59 138.502 150.406 138.43C150.313 138.393 150.255 138.369 150.225 138.356C150.206 138.347 150.216 138.351 150.239 138.363C150.244 138.366 150.291 138.391 150.348 138.433C150.371 138.449 150.449 138.507 150.528 138.604C150.553 138.635 150.887 139.029 150.694 139.57L148.81 138.897C148.617 139.44 148.951 139.834 148.977 139.867C149.057 139.965 149.138 140.025 149.163 140.044C149.226 140.09 149.282 140.119 149.298 140.128C149.345 140.153 149.391 140.174 149.42 140.187C149.486 140.216 149.573 140.251 149.672 140.29C149.874 140.37 150.169 140.482 150.548 140.623C151.309 140.907 152.431 141.317 153.873 141.839C156.758 142.883 160.937 144.379 166.102 146.217C176.433 149.894 190.715 154.942 206.498 160.49L207.161 158.603ZM150.694 139.57C150.502 140.108 149.999 140.203 149.961 140.211C149.84 140.237 149.743 140.233 149.716 140.232C149.645 140.229 149.593 140.218 149.587 140.217C149.562 140.212 149.552 140.209 149.572 140.214C149.603 140.223 149.664 140.24 149.76 140.27C149.948 140.328 150.234 140.421 150.616 140.547C151.377 140.798 152.502 141.177 153.952 141.672C156.851 142.66 161.043 144.106 166.221 145.902C176.577 149.495 190.873 154.49 206.654 160.038L207.318 158.151C191.534 152.603 177.235 147.607 166.876 144.013C161.697 142.216 157.501 140.769 154.597 139.779C153.145 139.284 152.014 138.902 151.243 138.647C150.858 138.52 150.558 138.423 150.35 138.359C150.249 138.328 150.159 138.301 150.089 138.282C150.058 138.274 150.009 138.262 149.958 138.252C149.939 138.248 149.877 138.237 149.8 138.233C149.769 138.232 149.669 138.228 149.547 138.254C149.507 138.263 149.003 138.359 148.81 138.897L150.694 139.57ZM206.654 160.038C222.436 165.585 236.715 170.632 247.043 174.309C252.207 176.147 256.381 177.643 259.262 178.686C260.702 179.208 261.817 179.616 262.568 179.897C262.945 180.038 263.225 180.145 263.407 180.217C263.501 180.254 263.558 180.278 263.587 180.291C263.605 180.299 263.594 180.295 263.569 180.282C263.563 180.278 263.514 180.252 263.455 180.207C263.431 180.189 263.352 180.129 263.274 180.029C263.238 179.982 262.945 179.61 263.115 179.1L265.012 179.732C265.183 179.221 264.889 178.847 264.852 178.799C264.772 178.697 264.692 178.635 264.665 178.615C264.601 178.566 264.542 178.534 264.525 178.525C264.477 178.499 264.429 178.477 264.4 178.464C264.333 178.434 264.245 178.398 264.146 178.359C263.944 178.278 263.648 178.166 263.269 178.024C262.507 177.739 261.385 177.328 259.943 176.806C257.057 175.76 252.878 174.264 247.713 172.425C237.382 168.747 223.101 163.699 207.318 158.151L206.654 160.038Z" fill="#B5B8D0" mask="url(#path-11-inside-1_517_5888)"/>
<mask id="path-13-inside-2_517_5888" fill="white">
<path d="M129.178 143.251C129.075 143.246 128.973 143.228 128.874 143.199L128.004 142.99L124.526 142.121C121.552 141.373 117.231 140.321 111.883 139.069C101.196 136.538 86.3702 133.277 69.9878 129.73C53.6054 126.182 38.7882 122.869 28.1187 120.252C22.7797 118.947 18.4667 117.852 15.5015 117.052L12.0841 116.121L11.2146 115.869C11.1119 115.847 11.0125 115.812 10.9189 115.765L11.2233 115.826L12.0928 116.026L15.5711 116.895C18.5536 117.643 22.8753 118.686 28.2231 119.947C38.9099 122.478 53.7271 125.738 70.1182 129.286C86.5093 132.834 101.318 136.147 111.987 138.764C117.326 140.069 121.639 141.156 124.604 141.964L128.013 142.895L128.883 143.147L129.178 143.251Z"/>
</mask>
<path d="M129.178 143.251C129.075 143.246 128.973 143.228 128.874 143.199L128.004 142.99L124.526 142.121C121.552 141.373 117.231 140.321 111.883 139.069C101.196 136.538 86.3702 133.277 69.9878 129.73C53.6054 126.182 38.7882 122.869 28.1187 120.252C22.7797 118.947 18.4667 117.852 15.5015 117.052L12.0841 116.121L11.2146 115.869C11.1119 115.847 11.0125 115.812 10.9189 115.765L11.2233 115.826L12.0928 116.026L15.5711 116.895C18.5536 117.643 22.8753 118.686 28.2231 119.947C38.9099 122.478 53.7271 125.738 70.1182 129.286C86.5093 132.834 101.318 136.147 111.987 138.764C117.326 140.069 121.639 141.156 124.604 141.964L128.013 142.895L128.883 143.147L129.178 143.251Z" fill="#B5B8D0"/>
<path d="M129.178 143.251L129.123 144.25L129.511 142.308L129.178 143.251ZM128.874 143.199L129.154 142.239L129.131 142.232L129.107 142.227L128.874 143.199ZM128.004 142.99L127.762 143.961L127.771 143.963L128.004 142.99ZM124.526 142.121L124.282 143.091L124.284 143.091L124.526 142.121ZM111.883 139.069L111.652 140.042L111.655 140.042L111.883 139.069ZM28.1187 120.252L28.357 119.28L28.3561 119.28L28.1187 120.252ZM15.5015 117.052L15.2388 118.016L15.241 118.017L15.5015 117.052ZM12.0841 116.121L11.8056 117.082L11.8135 117.084L11.8214 117.086L12.0841 116.121ZM11.2146 115.869L11.4931 114.909L11.4576 114.898L11.4214 114.891L11.2146 115.869ZM10.9189 115.765L11.115 114.784L10.4658 116.656L10.9189 115.765ZM11.2233 115.826L11.4474 114.851L11.4335 114.848L11.4194 114.845L11.2233 115.826ZM12.0928 116.026L12.3354 115.055L12.3262 115.053L12.317 115.051L12.0928 116.026ZM15.5711 116.895L15.8143 115.925L15.8136 115.925L15.5711 116.895ZM28.2231 119.947L28.4535 118.974L28.4526 118.974L28.2231 119.947ZM111.987 138.764L111.749 139.736L111.75 139.736L111.987 138.764ZM124.604 141.964L124.868 141L124.868 141L124.604 141.964ZM128.013 142.895L128.292 141.934L128.284 141.932L128.276 141.93L128.013 142.895ZM128.883 143.147L129.216 142.204L129.189 142.194L129.161 142.186L128.883 143.147ZM129.234 142.253C129.207 142.251 129.18 142.247 129.154 142.239L128.594 144.159C128.766 144.209 128.943 144.24 129.123 144.25L129.234 142.253ZM129.107 142.227L128.238 142.018L127.771 143.963L128.641 144.171L129.107 142.227ZM128.247 142.02L124.769 141.151L124.284 143.091L127.762 143.961L128.247 142.02ZM124.77 141.151C121.79 140.402 117.463 139.348 112.111 138.095L111.655 140.042C116.998 141.294 121.315 142.344 124.282 143.091L124.77 141.151ZM112.113 138.096C101.416 135.563 86.5812 132.3 70.1994 128.752L69.7761 130.707C86.1591 134.255 100.976 137.514 111.652 140.042L112.113 138.096ZM70.1994 128.752C53.8182 125.205 39.0123 121.894 28.357 119.28L27.8805 121.223C38.564 123.844 53.3925 127.159 69.7761 130.707L70.1994 128.752ZM28.3561 119.28C23.0202 117.977 18.716 116.883 15.762 116.086L15.241 118.017C18.2173 118.82 22.5391 119.918 27.8814 121.223L28.3561 119.28ZM15.7642 116.087L12.3468 115.156L11.8214 117.086L15.2388 118.016L15.7642 116.087ZM12.3627 115.161L11.4931 114.909L10.9361 116.829L11.8056 117.082L12.3627 115.161ZM11.4214 114.891C11.4042 114.887 11.3877 114.881 11.3721 114.873L10.4658 116.656C10.6373 116.743 10.8196 116.808 11.0078 116.847L11.4214 114.891ZM10.7228 116.745L11.0272 116.806L11.4194 114.845L11.115 114.784L10.7228 116.745ZM10.9991 116.8L11.8687 117L12.317 115.051L11.4474 114.851L10.9991 116.8ZM11.8503 116.996L15.3285 117.865L15.8136 115.925L12.3354 115.055L11.8503 116.996ZM15.3279 117.865C18.3171 118.615 22.6439 119.659 27.9936 120.921L28.4526 118.974C23.1067 117.713 18.7902 116.671 15.8143 115.925L15.3279 117.865ZM27.9927 120.92C38.69 123.453 53.5159 126.716 69.9067 130.264L70.3298 128.309C53.9383 124.761 39.1298 121.502 28.4535 118.974L27.9927 120.92ZM69.9067 130.264C86.2964 133.811 101.094 137.122 111.749 139.736L112.226 137.793C101.542 135.172 86.7223 131.857 70.3298 128.309L69.9067 130.264ZM111.75 139.736C117.088 141.04 121.39 142.124 124.341 142.929L124.868 141C121.889 140.187 117.565 139.098 112.225 137.793L111.75 139.736ZM124.341 142.929L127.75 143.859L128.276 141.93L124.868 141L124.341 142.929ZM127.735 143.855L128.604 144.107L129.161 142.186L128.292 141.934L127.735 143.855ZM128.55 144.09L128.845 144.194L129.511 142.308L129.216 142.204L128.55 144.09Z" fill="#B5B8D0" mask="url(#path-13-inside-2_517_5888)"/>
<path opacity="0.5" d="M220.551 66.9043C220.551 66.9043 220.464 66.6173 220.316 66.0347L219.681 63.5739C219.125 61.3913 218.316 58.2 217.273 54.087L208.516 19.2005C208.053 17.357 207.58 15.4701 207.099 13.5397C206.864 12.5832 206.621 11.6006 206.369 10.618C206.247 10.1223 206.125 9.6267 205.969 9.14845C205.832 8.66017 205.658 8.18335 205.447 7.72238C204.585 5.77159 203.229 4.07916 201.514 2.81201C199.798 1.54485 197.782 0.74674 195.664 0.496382C194.565 0.344315 193.45 0.344315 192.351 0.496382C191.256 0.687684 190.143 0.992029 189.021 1.26159L182.195 3.0007L167.926 6.5224L104.526 22.3483L41.0489 38.1046L26.7969 41.635L23.3187 42.5046C22.1897 42.7391 21.0839 43.0738 20.0144 43.5046C17.9515 44.3987 16.1716 45.8388 14.8666 47.6697C14.2351 48.5595 13.7207 49.5268 13.3362 50.5479C12.9776 51.5567 12.7412 52.6047 12.6319 53.6696C12.3797 55.8001 12.971 57.8522 13.3884 59.8783C14.2579 63.9362 15.0898 67.8231 15.884 71.539C19.0579 86.3997 21.623 98.4169 23.3969 106.739C24.2665 110.895 24.9534 114.112 25.423 116.304C25.6404 117.391 25.8143 118.225 25.936 118.799C26.0578 119.373 26.0926 119.669 26.0926 119.669C26.0926 119.669 26.0143 119.382 25.8839 118.799C25.7534 118.217 25.5708 117.399 25.3274 116.321C24.8404 114.121 24.1361 110.904 23.223 106.756C21.4057 98.443 18.7883 86.4258 15.5536 71.5912C14.7536 67.8782 13.9014 63.9913 13.0232 59.9304C12.6058 57.9305 11.9971 55.8088 12.258 53.6088C12.3579 52.5076 12.5975 51.4235 12.971 50.3827C13.3682 49.3291 13.8971 48.3299 14.5449 47.4088C15.2037 46.4714 15.9911 45.6313 16.884 44.9132C17.778 44.1678 18.7772 43.5583 19.8492 43.1046C20.9372 42.6605 22.0636 42.317 23.2143 42.0785L26.6926 41.2089L40.9706 37.6785L104.448 21.8874L167.926 6.1311L182.178 2.60071L189.004 0.913767C190.125 0.63551 191.221 0.339862 192.369 0.139864C194.045 -0.110494 195.754 -0.0241172 197.397 0.39394C199.039 0.811997 200.581 1.55334 201.934 2.57462C203.655 3.87726 205.014 5.59847 205.882 7.57455C206.1 8.04944 206.28 8.54082 206.421 9.0441C206.577 9.53975 206.699 10.0354 206.821 10.531C207.064 11.5136 207.299 12.4962 207.542 13.4614C208.021 15.3919 208.482 17.2788 208.942 19.1222L217.551 54.0696C218.551 58.1913 219.334 61.3913 219.864 63.5739C220.125 64.6608 220.325 65.4869 220.455 66.0521C220.586 66.6173 220.551 66.9043 220.551 66.9043Z" fill="#30367A"/>
<path d="M123.326 21.0093L114.726 27.5571L115.144 40.0613L107.274 33.8092L102.927 37.5309L86.405 17.1311L123.326 21.0093Z" fill="#44B64B"/>
<path d="M111.492 30.218C111.492 30.6006 115.144 40.0614 115.144 40.0614L107.274 33.8093L111.492 30.218Z" fill="#0A7D11"/>
<path d="M86.405 17.1311L111.492 30.2179L115.144 40.0613L114.726 27.5571L86.405 17.1311Z" fill="#31A438"/>
<path d="M133.726 38.4264C132.955 38.4376 132.187 38.317 131.457 38.0698C130.691 37.9758 129.948 37.743 129.265 37.3829C130.041 37.2811 130.829 37.3584 131.57 37.609C132.344 37.7038 133.084 37.9843 133.726 38.4264Z" fill="#0A7D11"/>
<path d="M142.143 42.0351C140.685 41.5564 139.305 40.8649 138.048 39.9829C138.824 40.0567 139.572 40.3129 140.23 40.7307C141.37 41.3046 142.213 41.922 142.143 42.0351Z" fill="#0A7D11"/>
<path d="M149.439 47.5654C149.343 47.661 148.57 47.0089 147.596 46.1915C146.622 45.3741 145.857 44.6785 145.97 44.5654C146.711 44.8274 147.381 45.2592 147.926 45.8263C148.874 46.6611 149.535 47.4784 149.439 47.5654Z" fill="#0A7D11"/>
<path d="M155.004 54.8263C154.882 54.8872 154.309 54.0437 153.613 53.0002C153.126 52.4022 152.744 51.726 152.482 51.0002C152.578 50.922 153.309 51.6698 154.013 52.7394C154.504 53.3468 154.843 54.0621 155.004 54.8263Z" fill="#0A7D11"/>
<path d="M158.161 63.4088C157.787 62.7344 157.529 62.0027 157.396 61.2436C157.105 60.5269 156.943 59.7645 156.917 58.9915C157.387 59.6174 157.705 60.3436 157.848 61.1132C158.14 61.8408 158.248 62.6295 158.161 63.4088Z" fill="#0A7D11"/>
<path d="M158.63 72.5391C158.475 71.784 158.443 71.0088 158.535 70.2435C158.469 69.4748 158.54 68.7006 158.743 67.9565C159.009 68.6908 159.101 69.4764 159.013 70.2522C159.068 71.034 158.937 71.8177 158.63 72.5391Z" fill="#0A7D11"/>
<path d="M156.256 81.3564C156.35 80.593 156.567 79.85 156.9 79.1565C157.077 78.4109 157.37 77.6978 157.769 77.0435C157.812 77.8269 157.653 78.6082 157.309 79.313C157.131 80.0704 156.77 80.7724 156.256 81.3564Z" fill="#0A7D11"/>
<path d="M150.943 88.7824C150.856 88.6781 151.535 87.9129 152.361 86.9737C153.187 86.0346 153.848 85.2346 153.961 85.3303C153.714 86.075 153.287 86.7472 152.717 87.2868C151.874 88.2607 151.03 88.8781 150.943 88.7824Z" fill="#0A7D11"/>
<path d="M143.274 93.7216C143.861 93.2247 144.525 92.8254 145.239 92.539C145.881 92.1131 146.589 91.7958 147.335 91.5999C146.83 92.2015 146.185 92.6703 145.457 92.9651C144.803 93.3934 144.053 93.6533 143.274 93.7216Z" fill="#0A7D11"/>
<path d="M134.352 95.643C135.08 95.3756 135.847 95.2315 136.622 95.2169C137.374 95.0442 138.149 94.9943 138.917 95.0691C138.235 95.4561 137.467 95.6682 136.683 95.6865C135.915 95.8704 135.113 95.8554 134.352 95.643Z" fill="#0A7D11"/>
<path d="M125.396 93.9475C126.883 94.2571 128.338 94.7025 129.744 95.2779C128.964 95.3751 128.173 95.2672 127.448 94.9649C126.686 94.8117 125.979 94.4608 125.396 93.9475Z" fill="#0A7D11"/>
<path d="M119.048 87.6521C119.179 87.6086 119.579 88.5217 120.292 89.5477C121.005 90.5738 121.692 91.2869 121.596 91.4173C121.5 91.5477 120.648 90.8956 119.9 89.826C119.374 89.2212 119.073 88.4533 119.048 87.6521Z" fill="#0A7D11"/>
<path d="M122.909 80.5303C122.909 80.6695 121.961 80.9738 120.97 81.6781C119.979 82.3825 119.448 83.2607 119.326 83.1912C119.205 83.1216 119.587 82.0782 120.692 81.2956C121.306 80.7675 122.099 80.4938 122.909 80.5303Z" fill="#0A7D11"/>
<path d="M130.77 83.7912C130.648 83.8608 130.092 83.0086 129.187 82.1738C128.283 81.3391 127.361 80.9217 127.448 80.7913C128.256 80.8549 129.009 81.2251 129.552 81.826C130.177 82.3173 130.608 83.0132 130.77 83.7912Z" fill="#0A7D11"/>
<path d="M131.065 92.6694C131.13 91.9118 131.273 91.1628 131.491 90.4346C131.556 89.6742 131.699 88.9225 131.917 88.1912C132.151 88.9504 132.151 89.7623 131.917 90.5216C131.858 91.3073 131.56 92.0564 131.065 92.6694Z" fill="#0A7D11"/>
<path d="M125.109 99.4955C125.031 99.3824 125.822 98.7303 126.77 97.9216C127.718 97.1129 128.509 96.4172 128.57 96.5042C128.631 96.5911 128.065 97.4433 127.083 98.2433C126.1 99.0433 125.178 99.6085 125.109 99.4955Z" fill="#0A7D11"/>
<path d="M116.979 103.721C117.554 103.201 118.228 102.802 118.961 102.547C119.63 102.153 120.373 101.901 121.144 101.808C119.904 102.729 118.485 103.381 116.979 103.721Z" fill="#0A7D11"/>
<path d="M108.796 107.878C108.726 107.765 109.552 107.147 110.648 106.486C111.287 106.041 112.018 105.743 112.787 105.617C112.857 105.747 111.97 106.278 110.883 106.904C110.262 107.369 109.551 107.701 108.796 107.878Z" fill="#0A7D11"/>
<path d="M101.84 113.86C101.744 113.773 102.344 112.921 103.257 112.026C103.761 111.429 104.394 110.956 105.109 110.643C105.196 110.747 104.492 111.513 103.596 112.382C102.7 113.252 101.979 113.947 101.84 113.86Z" fill="#0A7D11"/>
<path d="M96.6223 121.356C96.7681 120.589 97.0895 119.865 97.5614 119.243C98.231 118.156 98.9179 117.373 99.0223 117.452C98.7967 118.19 98.4403 118.882 97.9701 119.495C97.3093 120.565 96.7441 121.417 96.6223 121.356Z" fill="#0A7D11"/>
<path d="M93.283 129.878C93.2387 129.099 93.3818 128.32 93.7004 127.608C93.8641 126.843 94.2068 126.128 94.7004 125.521C94.4458 127.033 93.9682 128.498 93.283 129.869V129.878Z" fill="#0A7D11"/>
<path d="M92.0832 138.956C91.7678 137.431 91.8761 135.849 92.3963 134.382C92.5286 135.141 92.5286 135.918 92.3963 136.677C92.4264 137.449 92.3204 138.221 92.0832 138.956Z" fill="#0A7D11"/>
<path d="M93.2832 148.025C92.8929 147.353 92.6471 146.607 92.5615 145.834C92.3059 145.094 92.2401 144.302 92.3702 143.53C92.707 144.226 92.9301 144.971 93.031 145.738C93.272 146.475 93.3578 147.254 93.2832 148.025Z" fill="#0A7D11"/>
<path d="M96.8224 156.46C96.7093 156.529 96.0919 155.695 95.5267 154.547C95.1073 153.887 94.8538 153.135 94.7876 152.355C95.2886 152.943 95.6829 153.614 95.9528 154.338C96.365 154.989 96.6594 155.707 96.8224 156.46Z" fill="#0A7D11"/>
<path d="M102.318 163.79C102.231 163.877 101.448 163.216 100.579 162.242C100.019 161.697 99.5907 161.031 99.3267 160.295C99.4397 160.208 100.127 160.973 100.944 161.929C101.761 162.886 102.414 163.695 102.318 163.79Z" fill="#0A7D11"/>
<path d="M109.379 169.616C108.623 169.413 107.926 169.035 107.344 168.512C106.318 167.764 105.605 167.016 105.674 166.912C106.392 167.201 107.054 167.613 107.631 168.129C108.64 168.868 109.448 169.503 109.379 169.616Z" fill="#0A7D11"/>
<path d="M117.639 173.564C116.857 173.559 116.087 173.365 115.396 172.999C114.642 172.788 113.952 172.393 113.387 171.851C114.149 171.963 114.886 172.201 115.57 172.555C116.309 172.779 117.007 173.12 117.639 173.564Z" fill="#0A7D11"/>
<path d="M122.239 174.738C122.239 174.86 122.161 174.964 122.118 174.955C122.074 174.947 122.057 174.833 122.118 174.703C122.178 174.573 122.196 174.477 122.239 174.486C122.283 174.494 122.265 174.607 122.239 174.738Z" fill="#0A7D11"/>
<path d="M115.591 151.966L106.082 148.843L104.139 154.758L113.648 157.881L115.591 151.966Z" fill="#31A438"/>
<path d="M115.57 151.982C113.792 152.873 111.949 153.629 110.057 154.243L109.891 154.303L109.787 154.164L109.622 153.956C108.303 152.351 107.113 150.645 106.065 148.851C107.499 150.355 108.816 151.965 110.005 153.669L110.161 153.877L109.891 153.799C111.732 153.042 113.631 152.434 115.57 151.982Z" fill="#0A7D11"/>
<path d="M108.796 152.477C108.142 153.066 107.384 153.529 106.561 153.842C105.804 154.292 104.974 154.606 104.109 154.773C104.769 154.188 105.529 153.725 106.353 153.408C107.108 152.961 107.935 152.646 108.796 152.477Z" fill="#0A7D11"/>
<path d="M113.796 157.947C113.264 157.291 112.851 156.546 112.579 155.747C112.005 154.451 111.622 153.338 111.796 153.356C112.33 154.012 112.744 154.757 113.022 155.556C113.427 156.297 113.69 157.108 113.796 157.947Z" fill="#0A7D11"/>
<path d="M154.366 175.138L129.912 167.107L124.915 182.325L149.369 190.355L154.366 175.138Z" fill="#44B64B"/>
<path d="M154.343 175.155C153.995 175.355 153.628 175.521 153.248 175.651L150.204 176.842C147.595 177.825 144.039 179.164 140.03 180.633L139.865 180.694L139.761 180.555L139.352 180.016C136.691 176.538 134.291 173.294 132.578 170.955L130.535 168.181C130.274 167.849 130.044 167.494 129.848 167.121C130.167 167.409 130.458 167.726 130.717 168.068L132.848 170.755C134.63 173.034 137.065 176.207 139.735 179.729L140.143 180.26L139.874 180.181C143.874 178.72 147.482 177.434 150.091 176.529L153.187 175.477C153.561 175.334 153.949 175.226 154.343 175.155Z" fill="#0A7D11"/>
<path d="M136.952 176.451C135.051 177.639 133.069 178.694 131.022 179.607C129.043 180.657 126.995 181.569 124.892 182.338C126.786 181.14 128.765 180.082 130.813 179.173C132.79 178.116 134.842 177.207 136.952 176.451Z" fill="#0A7D11"/>
<path d="M149.787 190.512C148.717 188.646 147.784 186.704 146.995 184.703C146.066 182.76 145.282 180.752 144.648 178.694C145.719 180.563 146.652 182.507 147.439 184.512C148.369 186.451 149.153 188.456 149.787 190.512Z" fill="#0A7D11"/>
<path d="M131.112 170.707C130.535 171.13 129.846 171.373 129.132 171.404C128.417 171.436 127.709 171.255 127.097 170.884C126.486 170.513 125.998 169.97 125.695 169.321C125.392 168.673 125.288 167.95 125.397 167.243C125.505 166.536 125.82 165.877 126.303 165.349C126.786 164.821 127.414 164.448 128.109 164.278C128.803 164.107 129.533 164.146 130.206 164.39C130.878 164.634 131.463 165.071 131.887 165.648C132.168 166.031 132.372 166.465 132.485 166.927C132.599 167.389 132.62 167.868 132.548 168.338C132.476 168.808 132.312 169.259 132.066 169.665C131.82 170.072 131.495 170.426 131.112 170.707Z" fill="white" stroke="white" stroke-width="0.4"/>
<path d="M131.404 167C130.597 167.601 129.738 168.216 128.839 168.668L128.231 169.007L128.118 169.068L128.057 168.964C127.645 168.311 127.398 167.569 127.116 166.851C127.6 167.453 128.023 168.103 128.377 168.79L128.109 168.79L128.718 168.357C129.572 167.827 130.471 167.373 131.404 167Z" fill="#30367A"/>
<path d="M138.658 154.634L125.844 150.426L123.226 158.398L136.04 162.606L138.658 154.634Z" fill="#69C56F"/>
<path d="M138.63 154.642C138.452 154.749 138.262 154.837 138.065 154.903L136.465 155.529C135.117 156.042 133.239 156.747 131.135 157.512H131.048L130.996 157.434L130.787 157.155C129.387 155.312 128.178 153.634 127.231 152.408L126.187 150.99C126.052 150.815 125.933 150.629 125.831 150.434C125.992 150.584 126.137 150.75 126.265 150.929L127.387 152.338C128.317 153.529 129.596 155.19 130.987 157.034L131.204 157.321H131.065C133.161 156.556 135.048 155.877 136.422 155.408L138.039 154.86C138.227 154.765 138.426 154.692 138.63 154.642Z" fill="#31A438"/>
<path d="M129.526 155.321C128.53 155.94 127.493 156.492 126.422 156.973C125.383 157.524 124.308 158.003 123.205 158.408C124.197 157.779 125.235 157.224 126.309 156.747C127.346 156.195 128.421 155.718 129.526 155.321Z" fill="#31A438"/>
<path d="M136.248 162.686C135.687 161.709 135.199 160.691 134.787 159.642C134.304 158.623 133.891 157.571 133.552 156.495C134.607 158.487 135.508 160.556 136.248 162.686Z" fill="#31A438"/>
<path d="M35.7535 54.8437C34.8692 58.3239 32.9729 61.4638 30.3042 63.8663C27.6356 66.2688 24.3144 67.826 20.7608 68.3411C17.2071 68.8562 13.5805 68.306 10.3396 66.7601C7.09859 65.2142 4.38879 62.7419 2.5528 59.656C0.716808 56.5701 -0.162924 53.0091 0.0248476 49.4232C0.212619 45.8373 1.45946 42.3876 3.60771 39.5103C5.75596 36.633 8.70914 34.4573 12.0938 33.2584C15.4786 32.0594 19.1428 31.8909 22.6232 32.7744C27.29 33.9613 31.2946 36.9527 33.7567 41.091C36.2188 45.2294 36.9371 50.176 35.7535 54.8437Z" fill="#44B64B"/>
<path d="M24.8578 40.5309C25.1795 40.6614 23.1187 46.7396 20.2492 54.1134C19.8231 55.1829 19.3796 56.209 19.0231 57.2177L18.8057 57.7655L18.2579 57.5568C12.371 55.2873 8.0667 53.4177 8.17105 53.1482C8.27539 52.8786 12.7449 54.2873 18.6753 56.4351L17.9101 56.7829C18.2927 55.7742 18.6927 54.7395 19.1013 53.6699C21.9622 46.2874 24.5448 40.4353 24.8578 40.5309Z" fill="white"/>
</svg>
