<svg width="100" height="41" viewBox="0 0 100 41" fill="none" xmlns="http://www.w3.org/2000/svg">
<path d="M0 0.445312H100V30.4453C100 35.9682 95.5229 40.4453 90 40.4453H0V0.445312Z" fill="white"/>
<g clip-path="url(#clip0_127_10884)">
<path fill-rule="evenodd" clip-rule="evenodd" d="M17.6579 35.4453L17.0686 25.1216C16.7369 24.6421 15.904 23.4543 15.2258 22.5394C14.4473 21.4891 14.4771 20.3766 14.4871 20.0021C14.488 19.9689 14.4887 19.9414 14.4887 19.9204C14.4887 19.7944 14.6116 18.7991 14.7502 17.6756L14.7502 17.6755L14.7502 17.6754C14.8957 16.4963 15.0587 15.1761 15.1153 14.5716C15.2037 13.6273 15.5453 13.3666 15.705 13.3543C16.3069 13.1945 17.6656 12.8231 18.2848 12.6165C19.0588 12.3583 19.0588 11.7312 18.4691 10.9566C17.9973 10.3369 17.8548 9.17366 17.8425 8.66952C17.8425 7.54421 18.2777 6.84271 18.8358 6.44531L8.00181 8.49006V24.6344C8.00181 24.6786 8.00141 24.7254 8.00098 24.7747C7.99242 25.7631 7.97502 27.7706 11.0346 30.7198C12.8831 32.5017 15.6039 34.2607 17.6579 35.4453Z" fill="#44B64B"/>
<path d="M21.1696 13.4206L19.7949 13.2324L19.8331 13.6841L20.4441 14.5122C20.4313 16.1432 20.383 19.5483 20.2913 20.1204C20.6273 20.7829 20.9914 21.3499 21.1314 21.5507L21.9333 19.9322C21.7678 18.4768 21.3452 15.3553 20.9786 14.5122C21.1811 13.999 21.2398 13.8952 21.2455 13.9069L21.2459 13.9099C21.2459 13.9092 21.2459 13.9086 21.2458 13.9081C21.2457 13.9076 21.2456 13.9072 21.2455 13.9069L21.1696 13.4206Z" fill="#30367A"/>
<path d="M31.3136 8.48956V24.6339C31.3136 24.6781 31.314 24.7249 31.3145 24.7742V24.7742C31.323 25.7626 31.3404 27.7701 28.2808 30.7193C26.5158 32.4207 23.9556 34.1013 21.9398 35.2808L23.1871 26.7073C23.2854 26.1786 23.5483 25.0178 23.8137 24.6047C24.079 24.1915 24.3911 23.4734 24.5139 23.166C24.5508 23.0554 24.6245 22.6053 24.6245 21.6905C24.6245 20.7757 24.2559 16.6369 24.0717 14.6818C24.0717 14.4605 23.9316 13.9514 23.3714 13.6858C22.6712 13.3538 21.197 12.616 21.0127 12.0627C21.0127 11.8548 21.0844 11.7904 21.1893 11.6961C21.2147 11.6733 21.242 11.6488 21.2707 11.6201C21.279 11.6117 21.2904 11.6008 21.3045 11.5872C21.5397 11.3616 22.5238 10.4174 22.5238 8.81657C22.5238 7.91994 22.2665 7.18811 21.8172 6.69727L31.3136 8.48956Z" fill="#30367A"/>
</g>
<path d="M83.2653 30.2554V27.9999H85.7738C86.3641 27.9999 86.8756 27.8876 87.3085 27.663C87.7512 27.4384 88.0906 27.1064 88.3267 26.667C88.5628 26.2179 88.6808 25.676 88.6808 25.0413C88.6808 24.4164 88.5578 23.8891 88.3119 23.4595C88.0758 23.0201 87.7413 22.6881 87.3085 22.4635C86.8756 22.2389 86.3641 22.1266 85.7738 22.1266H83.1472V19.8711H85.7886C86.5953 19.8711 87.338 19.998 88.0168 20.2519C88.6956 20.496 89.2858 20.8475 89.7875 21.3064C90.2892 21.7653 90.6778 22.3121 90.9533 22.9468C91.2386 23.5815 91.3812 24.2845 91.3812 25.0559C91.3812 25.8371 91.2386 26.545 90.9533 27.1797C90.6778 27.8143 90.2892 28.3611 89.7875 28.8201C89.2858 29.279 88.6956 29.6354 88.0168 29.8893C87.3478 30.1334 86.6149 30.2554 85.8181 30.2554H83.2653ZM81.4798 30.2554V19.8711H84.1211V30.2554H81.4798Z" fill="#44B64B"/>
<path d="M73.9923 26.0519V24.1771H75.9844C76.4172 24.1771 76.7468 24.0746 76.973 23.8696C77.2091 23.6547 77.3272 23.3667 77.3272 23.0054C77.3272 22.6539 77.2091 22.3707 76.973 22.1559C76.7468 21.9313 76.4172 21.819 75.9844 21.819H73.9923V19.8711H76.3533C77.0616 19.8711 77.6813 20.0029 78.2125 20.2665C78.7536 20.5302 79.1766 20.8914 79.4816 21.3504C79.7865 21.8093 79.939 22.3463 79.939 22.9615C79.939 23.5766 79.7816 24.1185 79.4668 24.5872C79.1619 25.0462 78.7339 25.4074 78.183 25.6711C77.6321 25.9249 76.9878 26.0519 76.25 26.0519H73.9923ZM71.8969 30.2554V19.8711H74.5382V30.2554H71.8969ZM77.5633 30.2554L74.5235 25.8029L76.8992 25.2317L80.6178 30.2554H77.5633Z" fill="#44B64B"/>
<path d="M60.293 30.2554L64.3509 19.8711H66.9037L70.9174 30.2554H68.158L65.133 21.5261H66.0922L62.9933 30.2554H60.293ZM62.7572 28.4393V26.3595H68.5269V28.4393H62.7572Z" fill="#44B64B"/>
<path d="M55.3395 30.4165C54.4541 30.4165 53.672 30.2359 52.9932 29.8746C52.3243 29.5036 51.8029 28.9909 51.4291 28.3367C51.0553 27.6825 50.8683 26.9404 50.8683 26.1105V19.8711H53.495V26.3009C53.495 26.6719 53.5737 26.9941 53.7311 27.2675C53.8983 27.5312 54.1196 27.7362 54.3951 27.8827C54.6804 28.0194 54.9952 28.0877 55.3395 28.0877C55.6936 28.0877 56.0035 28.0194 56.2691 27.8827C56.5347 27.7362 56.7462 27.5312 56.9036 27.2675C57.061 27.0039 57.1397 26.6866 57.1397 26.3155V19.8711H59.7959V26.1251C59.7959 26.9551 59.6089 27.6972 59.2351 28.3514C58.8613 28.9958 58.3399 29.5036 57.671 29.8746C57.0119 30.2359 56.2347 30.4165 55.3395 30.4165Z" fill="#44B64B"/>
<path d="M44.4196 30.4165C43.6228 30.4165 42.885 30.2847 42.2062 30.0211C41.5373 29.7477 40.947 29.3669 40.4355 28.8786C39.9338 28.3904 39.5403 27.8241 39.255 27.1797C38.9795 26.5254 38.8418 25.8175 38.8418 25.0559C38.8418 24.2845 38.9844 23.5766 39.2697 22.9322C39.5649 22.278 39.9731 21.7116 40.4945 21.2332C41.0159 20.745 41.6209 20.369 42.3095 20.1054C43.008 19.832 43.7507 19.6953 44.5377 19.6953C45.4723 19.6953 46.3183 19.8613 47.0758 20.1933C47.8333 20.5155 48.4481 20.9647 48.9203 21.5408L47.1495 23.2983C46.7954 22.8785 46.4068 22.566 45.9838 22.361C45.5608 22.1462 45.0689 22.0387 44.5082 22.0387C43.9376 22.0387 43.4261 22.1657 42.9735 22.4196C42.5309 22.6637 42.1767 23.0103 41.9111 23.4595C41.6455 23.9086 41.5127 24.4359 41.5127 25.0413C41.5127 25.6467 41.6356 26.1788 41.8816 26.6377C42.1374 27.0967 42.4817 27.4531 42.9145 27.7069C43.3572 27.9608 43.8638 28.0877 44.4344 28.0877C45.005 28.0877 45.487 27.9803 45.8805 27.7655C46.2839 27.5507 46.5888 27.2382 46.7954 26.8281C47.0118 26.418 47.12 25.9298 47.12 25.3635L48.9055 26.5059L44.1393 26.3887V24.2504H49.7762V24.6458C49.7762 25.8859 49.5499 26.9355 49.0974 27.7948C48.6448 28.6541 48.0152 29.3083 47.2086 29.7574C46.4117 30.1968 45.4821 30.4165 44.4196 30.4165Z" fill="#44B64B"/>
<path d="M87.7601 15.5541V14.3543H89.035C89.312 14.3543 89.5229 14.2887 89.6678 14.1575C89.8189 14.02 89.8944 13.8356 89.8944 13.6044C89.8944 13.3794 89.8189 13.1982 89.6678 13.0607C89.5229 12.917 89.312 12.8451 89.035 12.8451H87.7601V11.5984H89.2711C89.7244 11.5984 90.1211 11.6828 90.4611 11.8515C90.8073 12.0202 91.0781 12.2515 91.2732 12.5452C91.4684 12.8389 91.566 13.1826 91.566 13.5763C91.566 13.97 91.4653 14.3168 91.2638 14.6168C91.0686 14.9105 90.7947 15.1417 90.4422 15.3104C90.0896 15.4729 89.6772 15.5541 89.205 15.5541H87.7601ZM86.419 18.2444V11.5984H88.1095V18.2444H86.419ZM90.0455 18.2444L88.1001 15.3948L89.6205 15.0292L92.0004 18.2444H90.0455Z" fill="#30367A"/>
<path d="M80.4981 18.2444V11.5984H82.1886V18.2444H80.4981ZM81.8391 18.2444V16.829H85.4656V18.2444H81.8391ZM81.8391 15.5448V14.1668H85.1256V15.5448H81.8391ZM81.8391 13.0139V11.5984H85.409V13.0139H81.8391Z" fill="#30367A"/>
<path d="M72.3176 18.2444V11.5984H73.5359L76.1047 15.451H75.5286L78.0879 11.5984H79.3062V18.2444H77.6346V14.373L77.899 14.448L76.3596 16.7446H75.2641L73.7342 14.448L73.9986 14.373V18.2444H72.3176Z" fill="#30367A"/>
<path d="M68.3888 18.3475C67.8222 18.3475 67.3217 18.2319 66.8873 18.0007C66.4591 17.7632 66.1254 17.4351 65.8862 17.0164C65.6469 16.5977 65.5273 16.1228 65.5273 15.5916V11.5984H67.2083V15.7135C67.2083 15.951 67.2587 16.1572 67.3595 16.3322C67.4665 16.5009 67.6081 16.6321 67.7844 16.7259C67.967 16.8133 68.1685 16.8571 68.3888 16.8571C68.6155 16.8571 68.8138 16.8133 68.9838 16.7259C69.1538 16.6321 69.2892 16.5009 69.3899 16.3322C69.4906 16.1634 69.541 15.9603 69.541 15.7229V11.5984H71.2409V15.601C71.2409 16.1322 71.1213 16.6071 70.8821 17.0258C70.6428 17.4383 70.3091 17.7632 69.881 18.0007C69.4592 18.2319 68.9618 18.3475 68.3888 18.3475Z" fill="#30367A"/>
<path d="M61.9913 18.3475C61.4309 18.3475 60.943 18.2631 60.5275 18.0944C60.1182 17.9257 59.7436 17.6601 59.4036 17.2977L60.4708 16.229C60.7038 16.4728 60.9524 16.6602 61.2169 16.7915C61.4813 16.9165 61.7804 16.9789 62.1141 16.9789C62.3974 16.9789 62.6146 16.9321 62.7657 16.8383C62.9231 16.7384 63.0018 16.604 63.0018 16.4353C63.0018 16.279 62.9451 16.1509 62.8318 16.0509C62.7185 15.9447 62.5674 15.8541 62.3785 15.7791C62.1959 15.6979 61.9913 15.6229 61.7646 15.5541C61.5443 15.4791 61.3208 15.3917 61.0941 15.2917C60.8737 15.1854 60.6691 15.0573 60.4802 14.9074C60.2977 14.7574 60.1497 14.5699 60.0364 14.3449C59.9231 14.12 59.8664 13.8419 59.8664 13.5107C59.8664 13.0857 59.9671 12.7233 60.1686 12.4233C60.3764 12.1234 60.6628 11.8921 61.028 11.7297C61.3932 11.5672 61.8181 11.4859 62.3029 11.4859C62.7877 11.4859 63.2347 11.5672 63.644 11.7297C64.0532 11.8921 64.3901 12.1171 64.6545 12.4046L63.5779 13.4638C63.3764 13.2638 63.1718 13.1138 62.964 13.0139C62.7562 12.9139 62.5296 12.8639 62.284 12.8639C62.0511 12.8639 61.8685 12.9045 61.7363 12.9857C61.6041 13.067 61.538 13.1826 61.538 13.3326C61.538 13.4825 61.5946 13.6044 61.708 13.6981C61.8213 13.7919 61.9693 13.8762 62.1518 13.9512C62.3407 14.02 62.5453 14.0918 62.7657 14.1668C62.9923 14.2418 63.2159 14.3293 63.4362 14.4293C63.6566 14.5293 63.858 14.6574 64.0406 14.8136C64.2295 14.9698 64.3806 15.1667 64.4939 15.4042C64.6073 15.6416 64.6639 15.9291 64.6639 16.2665C64.6639 16.929 64.4278 17.4414 63.9556 17.8038C63.4897 18.1663 62.8349 18.3475 61.9913 18.3475Z" fill="#30367A"/>
<path d="M52.9593 18.2444V11.5984H54.1398L54.6498 12.9576V18.2444H52.9593ZM57.5774 18.2444L53.6676 13.3138L54.1398 11.5984L58.0591 16.529L57.5774 18.2444ZM57.5774 18.2444L57.143 16.8477V11.5984H58.8335V18.2444H57.5774Z" fill="#30367A"/>
<path d="M48.5535 18.3663C48.0372 18.3663 47.5618 18.2788 47.1274 18.1038C46.693 17.9288 46.3121 17.6851 45.9847 17.3726C45.6636 17.0602 45.4118 16.6946 45.2292 16.2759C45.0466 15.851 44.9553 15.3948 44.9553 14.9074C44.9553 14.4199 45.0435 13.97 45.2197 13.5575C45.4023 13.1388 45.6542 12.7733 45.9753 12.4608C46.2964 12.1483 46.6741 11.9078 47.1085 11.739C47.543 11.5641 48.0183 11.4766 48.5346 11.4766C49.0508 11.4766 49.5262 11.5641 49.9606 11.739C50.395 11.9078 50.7728 12.1483 51.0939 12.4608C51.415 12.7733 51.6637 13.1388 51.84 13.5575C52.0226 13.9762 52.1138 14.4293 52.1138 14.9167C52.1138 15.4042 52.0226 15.8572 51.84 16.2759C51.6637 16.6946 51.415 17.0633 51.0939 17.382C50.7728 17.6945 50.395 17.9382 49.9606 18.1132C49.5325 18.2819 49.0634 18.3663 48.5535 18.3663ZM48.5346 16.8665C48.9123 16.8665 49.2397 16.7852 49.5167 16.6227C49.7938 16.4603 50.0078 16.2322 50.1589 15.9385C50.31 15.6448 50.3856 15.301 50.3856 14.9074C50.3856 14.6199 50.3415 14.3574 50.2534 14.12C50.1715 13.8825 50.0488 13.6794 49.8851 13.5107C49.7214 13.3357 49.5262 13.2013 49.2995 13.1076C49.0729 13.0139 48.8179 12.967 48.5346 12.967C48.1568 12.967 47.8294 13.0482 47.5524 13.2107C47.2754 13.3669 47.0613 13.5919 46.9102 13.8856C46.7591 14.1793 46.6836 14.5199 46.6836 14.9074C46.6836 15.2073 46.7245 15.4791 46.8063 15.7229C46.8945 15.9603 47.0204 16.1666 47.1841 16.3415C47.3478 16.5103 47.543 16.6415 47.7696 16.7352C47.9963 16.8227 48.2513 16.8665 48.5346 16.8665Z" fill="#30367A"/>
<path d="M42.2726 18.3475C41.7627 18.3475 41.2905 18.2631 40.856 18.0944C40.4216 17.9194 40.0407 17.6789 39.7133 17.3726C39.3922 17.0602 39.1404 16.6946 38.9578 16.2759C38.7815 15.8572 38.6934 15.4042 38.6934 14.9167C38.6934 14.423 38.7815 13.97 38.9578 13.5575C39.1404 13.1388 39.3922 12.7764 39.7133 12.4702C40.0407 12.164 40.4185 11.9234 40.8466 11.7484C41.281 11.5734 41.7501 11.4859 42.2537 11.4859C42.7826 11.4859 43.258 11.5703 43.6798 11.739C44.1016 11.9015 44.4731 12.1296 44.7942 12.4233L43.6609 13.5482C43.5035 13.3732 43.3083 13.2357 43.0754 13.1357C42.8424 13.0357 42.5685 12.9857 42.2537 12.9857C41.983 12.9857 41.7343 13.0295 41.5077 13.117C41.2873 13.2045 41.0953 13.3357 40.9316 13.5107C40.7679 13.6794 40.6388 13.8825 40.5444 14.12C40.4562 14.3574 40.4122 14.623 40.4122 14.9167C40.4122 15.2104 40.4562 15.476 40.5444 15.7135C40.6388 15.951 40.7679 16.1572 40.9316 16.3322C41.0953 16.5009 41.2873 16.6321 41.5077 16.7259C41.7343 16.8133 41.983 16.8571 42.2537 16.8571C42.5685 16.8571 42.8456 16.8102 43.0848 16.7165C43.3241 16.6165 43.5287 16.4759 43.6987 16.2947L44.8319 17.4195C44.5046 17.7132 44.1331 17.9413 43.7176 18.1038C43.3083 18.2663 42.8267 18.3475 42.2726 18.3475Z" fill="#30367A"/>
<defs>
<clipPath id="clip0_127_10884">
<rect width="23.3148" height="29" fill="white" transform="translate(8 6.44531)"/>
</clipPath>
</defs>
</svg>
