<svg width="60" height="60" viewBox="0 0 60 60" fill="none" xmlns="http://www.w3.org/2000/svg">
<g clip-path="url(#clip0_33_6269)">
<path d="M59.9985 14.6633C55.7418 11.849 48.4721 9.98389 39.9974 9.98389C31.5227 9.98389 24.2553 11.849 19.9985 14.6633V40.0929C19.9985 41.6522 20.537 43.1081 21.1211 44.5411C24.7082 52.203 33.1096 55.914 39.9997 59.9839C46.8898 55.914 55.2889 52.203 58.876 44.5411C59.4601 43.1081 59.9985 41.6522 59.9985 40.0929V14.6633Z" fill="#F8F8FF"/>
<path d="M17.4203 0.130216C8.32848 1.51693 1.43395 8.44076 0.144888 17.4837C-0.0211276 18.6654 -0.0504245 21.5462 0.0960599 22.7376C0.525747 26.1947 1.92223 29.6615 4.00231 32.4251L4.67614 33.3138L4.23668 33.8021C3.4945 34.6224 3.51403 34.4564 3.51403 41.4388C3.51403 46.6244 3.53356 47.679 3.66051 48.099C3.84606 48.7337 4.49059 49.4564 5.12536 49.7494L5.61364 49.9837H12.0687C19.1488 49.9837 18.9632 49.9935 19.725 49.3978C19.9496 49.222 20.2328 48.8509 20.3988 48.4994L20.7015 47.9037V40.5111H21.3656C22.2836 40.5111 24.0121 40.2474 24.2855 40.0716C24.7347 39.7689 24.6859 39.0072 24.1879 38.7728C23.973 38.6654 23.7582 38.6751 22.9086 38.8021C22.3519 38.8802 21.6293 38.9486 21.2972 38.9486H20.7015V37.5814H21.2484C22.1273 37.5814 23.8949 37.2884 25.1058 36.9466C27.9476 36.1263 30.3402 34.7005 32.5277 32.513C34.3148 30.7259 35.4964 28.9583 36.3851 26.7513C37.0297 25.14 37.5961 22.6595 37.5961 21.429V21.0775H38.9632V21.4388C38.9535 22.1126 38.6703 23.8314 38.3871 24.9251C37.4984 28.3236 35.7797 31.224 33.1332 33.7728C31.4242 35.4232 29.764 36.5462 27.6937 37.4447C26.473 37.9622 26.3656 38.0599 26.3656 38.5482C26.3656 39.0462 26.7367 39.3783 27.2054 39.3099C28.0648 39.1732 30.7699 37.7474 32.225 36.6732L32.9574 36.1263L33.8168 36.9857L34.6859 37.8451L34.4613 38.2747C34.2953 38.597 34.2367 38.8704 34.2367 39.3392C34.2367 40.14 34.4027 40.4622 35.2035 41.2923C35.7504 41.8587 35.8187 41.9759 35.8675 42.4056L35.9164 42.8841L38.641 45.6087L41.3656 48.3236H41.805C42.2152 48.3236 42.2836 48.3626 42.8695 48.9681C43.2211 49.3197 43.68 49.7005 43.8949 49.7982C44.3832 50.0228 45.3695 50.0423 45.8773 49.8372C46.3656 49.6322 49.5687 46.4583 49.8129 45.931C50.057 45.4037 50.057 44.4076 49.8129 43.8802C49.7152 43.6654 49.3343 43.2064 48.9828 42.8548C48.3773 42.2689 48.3382 42.2005 48.3382 41.7904V41.3509L45.6234 38.6263L42.8988 35.9017L42.4203 35.8529C41.9906 35.804 41.8734 35.7357 41.307 35.1888C40.4769 34.388 40.1547 34.222 39.3539 34.222C38.8851 34.222 38.6117 34.2806 38.2894 34.4466L37.8597 34.6712L36.141 32.9525L36.4047 32.6107C37.7914 30.8138 39.0902 28.265 39.725 26.1068C40.057 25.013 40.4183 23.0599 40.4867 22.0247L40.555 21.0775H42.4691C44.2757 21.0775 44.4125 21.058 44.8714 20.8431C45.1547 20.7162 45.5453 20.4134 45.7797 20.1497C46.5023 19.3197 46.4925 19.4857 46.4632 12.3275C46.4339 6.10678 46.4339 5.97983 46.2289 5.54037C45.975 4.9935 45.4379 4.46615 44.8422 4.17318C44.4125 3.96811 44.2562 3.94858 42.6058 3.93881C40.8871 3.93881 40.8187 3.94858 40.6039 4.15365C40.3304 4.42709 40.3207 4.97397 40.5746 5.25717C40.7406 5.43295 40.8675 5.45248 42.1761 5.45248C43.8168 5.45248 44.1879 5.53061 44.5882 5.95053L44.8714 6.2435L44.9007 12.3665C44.9203 16.8197 44.891 18.558 44.8129 18.763C44.7543 18.9095 44.5687 19.1439 44.4125 19.2708L44.1195 19.515H31.639L31.2679 19.183L30.9066 18.8509L30.8773 12.679C30.8578 7.11264 30.8675 6.48764 31.014 6.17514C31.3265 5.52084 31.4242 5.50131 34.8812 5.47201L37.9769 5.44272L38.182 5.18881C38.5336 4.73959 38.3871 4.19272 37.85 3.98764C37.6937 3.92904 36.5414 3.88998 34.9691 3.88998H32.3617L31.3851 3.24545C29.1586 1.77084 26.6195 0.764981 23.7289 0.218106C22.5765 -0.00650305 18.641 -0.0553312 17.4203 0.130216ZM22.889 1.70248C25.1058 2.01498 27.4496 2.79623 29.3148 3.85092C30.3304 4.42709 30.4476 4.52475 30.223 4.61264C30.1449 4.64193 29.9496 4.85678 29.8031 5.09115L29.5297 5.52084L28.807 5.10092C27.1859 4.15365 25.2035 3.47006 23.0648 3.09897C21.9808 2.92318 21.5707 2.90365 19.8226 2.94272C18.1625 2.98178 17.6254 3.03061 16.6879 3.23568C13.2211 3.9974 10.5062 5.48178 7.99645 7.98178C5.30114 10.6869 3.75817 13.6751 3.11364 17.4447C2.92809 18.5384 2.90856 18.929 2.95739 20.7357C2.99645 22.3177 3.05504 23.0013 3.22106 23.7533C3.92418 26.9955 5.47692 29.9349 7.70348 32.2298L8.33825 32.8939H6.48278L6.14098 32.5228C4.24645 30.5306 2.56676 27.1322 1.8734 23.9095C1.63903 22.7767 1.6195 22.513 1.60973 20.2962C1.60973 18.1771 1.63903 17.7767 1.83434 16.7806C2.99645 11.0287 6.5902 6.2435 11.7172 3.60678C15.2035 1.81967 19.0218 1.16537 22.889 1.70248ZM21.6488 4.51498C23.8461 4.64193 26.3363 5.47201 28.5336 6.79037L29.2855 7.24936L29.3148 13.2064C29.3441 19.1537 29.3441 19.1732 29.559 19.5736C29.8617 20.14 30.3304 20.5794 30.9066 20.8431C31.3754 21.0677 31.4925 21.0775 33.7191 21.0775H36.0336V21.4095C36.0336 22.015 35.6527 23.9681 35.35 24.9447C34.9398 26.2435 33.9339 28.2455 33.1332 29.3783C32.2738 30.5697 30.5648 32.2787 29.3929 33.1087C28.2406 33.929 26.2386 34.9251 24.9593 35.3353C23.8558 35.6771 22.0101 36.0189 21.2289 36.0189H20.7015V35.5013C20.7015 34.8177 20.2523 33.8997 19.725 33.4798C19.0023 32.9037 18.9047 32.8939 14.6664 32.8939H10.809L10.3011 32.5033C9.62731 31.9857 8.182 30.472 7.57653 29.6712C6.01403 27.5814 4.93981 24.9251 4.58825 22.2787C4.39293 20.8724 4.51012 18.1673 4.81286 16.8783C5.73083 13.0404 7.82067 9.83725 10.9261 7.51303C12.6058 6.26303 14.9203 5.22787 17.0785 4.76889C18.0062 4.56381 19.9593 4.37826 20.5062 4.43686C20.6429 4.45639 21.1507 4.48568 21.6488 4.51498ZM35.7992 36.7025L34.1781 35.1009L35.0961 34.1634L36.7172 35.765L35.7992 36.7025ZM18.4847 34.5443C18.6312 34.6224 18.8363 34.8275 18.9437 34.9935C19.1293 35.2962 19.139 35.5013 19.139 41.4388C19.139 47.4056 19.1293 47.5716 18.9437 47.8841C18.5726 48.4798 18.6996 48.4701 12.059 48.4701C5.3109 48.4701 5.69176 48.5091 5.27184 47.806C5.08629 47.5033 5.07653 47.2689 5.07653 41.4583C5.07653 35.0228 5.06676 35.1497 5.55504 34.7103C5.66247 34.6126 5.89684 34.4954 6.07262 34.4564C6.2484 34.4076 9.05114 34.3783 12.3031 34.388C17.1957 34.4076 18.2601 34.4271 18.4847 34.5443ZM40.1839 36.3216L40.6722 36.8001L36.8148 40.6576L36.3363 40.179C35.8089 39.6517 35.6722 39.349 35.848 39.0169C36.0043 38.724 38.3285 36.3607 38.8168 35.9994C39.3148 35.638 39.5492 35.6869 40.1839 36.3216ZM41.9418 46.6634L37.4984 42.2201L42.2347 37.4837L46.6781 41.9271L41.9418 46.6634ZM47.9183 44.0462C48.348 44.4662 48.4359 44.6126 48.4359 44.8958C48.4359 45.2083 48.2992 45.3841 46.8441 46.8294C45.3988 48.2845 45.223 48.4212 44.9105 48.4212C44.6273 48.4212 44.4808 48.3333 44.0414 47.8841L43.5043 47.347L45.4086 45.4427C46.4535 44.3978 47.3324 43.5384 47.3617 43.5384C47.3812 43.5384 47.6351 43.763 47.9183 44.0462Z" fill="#44B64B"/>
<path d="M19.041 10.1791C18.8554 10.2474 18.5917 10.3548 18.455 10.4037C18.0156 10.5892 17.2246 11.2728 16.9023 11.7611C16.3456 12.6107 16.2089 13.265 16.2089 15.1595C16.2089 16.7806 16.3066 17.5033 16.58 18.0209C16.6777 18.2064 16.6484 18.2259 16.0722 18.3822C14.539 18.8021 13.3476 19.9544 12.8788 21.4681C12.7031 22.0736 12.6835 22.347 12.7128 25.638L12.7421 29.1634L13.0351 29.5834C13.2011 29.808 13.5234 30.1009 13.7578 30.2279L14.1972 30.4525L20.3691 30.433L26.541 30.4037L26.9609 30.1107C27.2148 29.9349 27.4785 29.6224 27.6249 29.3294C27.8788 28.8509 27.8788 28.8216 27.9081 26.1166C27.9472 22.7474 27.8593 21.8001 27.3906 20.8334C26.8144 19.6322 25.7304 18.7337 24.4609 18.3919L23.8652 18.2259L24.0898 17.5814C24.2851 16.9955 24.3144 16.7318 24.3144 15.2084C24.3144 13.763 24.2851 13.3822 24.1191 12.8548C23.7675 11.7123 23.0644 10.9017 21.9902 10.3744C21.5117 10.14 21.2871 10.1009 20.4081 10.0716C19.705 10.0521 19.2753 10.0814 19.041 10.1791ZM21.58 11.9759C22.0488 12.2591 22.5078 12.8548 22.6152 13.2845L22.6738 13.558H17.8496L17.9081 13.2845C18.0156 12.8548 18.4746 12.2591 18.9531 11.9759C19.7734 11.4584 20.7499 11.4584 21.58 11.9759ZM22.7519 15.8919C22.7519 16.3216 22.6835 16.8392 22.6054 17.0736C22.1074 18.4896 20.5156 19.1439 19.1777 18.4896C18.2011 18.0111 17.7714 17.2103 17.7714 15.8822V15.1205H22.7519V15.8919ZM18.0644 19.8275C18.0644 19.8959 17.957 20.8138 17.8203 21.8587C17.4199 24.9447 17.4394 25.0814 18.4453 25.9701C20.0566 27.3861 20.4765 27.3861 22.0097 26.0287C23.0937 25.0716 23.1132 24.9837 22.7128 21.8978C22.5761 20.8236 22.4589 19.8763 22.4589 19.808C22.4589 19.7103 22.6054 19.7005 23.123 19.7494C24.2167 19.8568 24.6855 20.0619 25.3496 20.7259C26.2968 21.6732 26.3163 21.7709 26.3163 25.4916C26.3163 28.3334 26.3066 28.6068 26.1406 28.763C25.9746 28.9291 25.6132 28.9388 20.2519 28.9388C14.705 28.9388 14.5292 28.9291 14.3925 28.7533C14.1777 28.4505 14.1972 22.4642 14.4121 21.8197C14.6074 21.2435 15.3886 20.3744 15.9648 20.1009C16.6581 19.7689 18.0644 19.5834 18.0644 19.8275ZM21.1601 22.0541C21.4726 24.515 21.4824 24.3978 20.8574 24.9251C20.5742 25.1693 20.3007 25.3744 20.2617 25.3744C20.2226 25.3744 19.9492 25.1693 19.666 24.9251C19.246 24.5736 19.1386 24.4173 19.1386 24.183C19.1386 23.8509 19.5195 20.6087 19.5878 20.4134C19.6171 20.3255 19.8124 20.2962 20.2812 20.3158L20.9453 20.3451L21.1601 22.0541Z" fill="#44B64B"/>
<path d="M7.72314 38.0306C7.60596 38.1771 7.51807 38.3919 7.51807 38.5091C7.51807 38.6263 7.60596 38.8412 7.72314 38.9876L7.91846 39.2416H11.0435C14.0317 39.2416 14.1685 39.2318 14.354 39.0462C14.4712 38.9291 14.5493 38.724 14.5493 38.5091C14.5493 38.2943 14.4712 38.0892 14.354 37.972C14.1685 37.7865 14.0317 37.7767 11.0435 37.7767H7.91846L7.72314 38.0306Z" fill="#44B64B"/>
<path d="M7.72314 40.9603C7.60596 41.1068 7.51807 41.3216 7.51807 41.4388C7.51807 41.556 7.60596 41.7709 7.72314 41.9173L7.91846 42.1712H12.5864C17.1665 42.1712 17.2544 42.1712 17.4302 41.9759C17.5376 41.8587 17.6157 41.6244 17.6157 41.4388C17.6157 41.2533 17.5376 41.0189 17.4302 40.9017C17.2544 40.7064 17.1665 40.7064 12.5864 40.7064H7.91846L7.72314 40.9603Z" fill="#44B64B"/>
<path d="M7.72314 43.89C7.60596 44.0365 7.51807 44.2513 7.51807 44.3685C7.51807 44.4857 7.60596 44.7005 7.72314 44.847L7.91846 45.1009H15.4185L15.6138 44.847C15.731 44.7005 15.8188 44.4857 15.8188 44.3685C15.8188 44.2513 15.731 44.0365 15.6138 43.89L15.4185 43.6361H7.91846L7.72314 43.89Z" fill="#44B64B"/>
<path d="M39.061 11.4095C38.0356 12.5325 37.1763 13.4603 37.147 13.4603C37.1274 13.4603 36.6001 13.0599 35.9751 12.5716C34.6763 11.556 34.3442 11.429 33.9438 11.8294C33.7681 12.0052 33.6899 12.1907 33.6899 12.4251C33.6899 12.7083 33.7681 12.8255 34.2075 13.1868C35.4185 14.2122 36.8833 15.2962 37.0591 15.3157C37.5962 15.3743 37.6938 15.2962 39.4224 13.3821C42.1665 10.3646 42.0884 10.4622 42.0884 10.1302C42.0884 9.72002 41.7075 9.35869 41.2681 9.35869C40.9556 9.35869 40.8091 9.49541 39.061 11.4095Z" fill="#44B64B"/>
</g>
<defs>
<clipPath id="clip0_33_6269">
<rect width="60" height="60" fill="white"/>
</clipPath>
</defs>
</svg>
