<svg width="60" height="60" viewBox="0 0 60 60" fill="none" xmlns="http://www.w3.org/2000/svg">
<path d="M3.78405 4.72292C3.20787 4.93777 2.55358 5.42605 2.19225 5.9241C1.50866 6.85183 1.55748 5.84597 1.57702 20.5432L1.60631 33.8245L1.85045 34.3128C2.15319 34.9378 2.83678 35.6214 3.46178 35.9241L3.95006 36.1682H42.9149L43.4032 35.9241C44.0282 35.6214 44.7118 34.9378 45.0145 34.3128L45.2587 33.8245V6.96902L45.0145 6.48074C44.7118 5.85574 44.0282 5.17214 43.4032 4.86941L42.9149 4.62527L23.5301 4.60574C7.28014 4.59597 4.08678 4.6155 3.78405 4.72292ZM42.5731 6.32449C42.9344 6.5198 43.3544 6.92996 43.5106 7.24246C43.5887 7.38894 43.6864 7.88699 43.7157 8.34597L43.7743 9.16628H3.09069L3.14928 8.34597C3.17858 7.88699 3.27623 7.38894 3.35436 7.23269C3.53991 6.87136 4.12584 6.35378 4.41881 6.29519C4.536 6.26589 4.72155 6.22683 4.82897 6.19753C4.93639 6.178 13.4227 6.16824 23.6766 6.178C39.2821 6.18777 42.368 6.2073 42.5731 6.32449ZM43.745 12.6819H3.11998V10.7288H43.745V12.6819ZM43.7255 23.7366C43.6962 32.4671 43.6864 33.2678 43.5301 33.5413C43.3153 33.9319 42.7391 34.4397 42.3973 34.5276C42.0555 34.6253 4.80944 34.6253 4.46764 34.5276C4.12584 34.4397 3.54967 33.9319 3.33483 33.5413C3.17858 33.2678 3.16881 32.4671 3.13952 23.7366L3.11022 14.2444H43.7548L43.7255 23.7366Z" fill="#44B64B"/>
<path d="M33.8133 16.3928C33.4911 16.5198 33.3934 16.803 33.3934 17.5745V18.2776L32.9051 17.8186C32.3485 17.2913 31.9969 17.2327 31.577 17.6038C31.3719 17.7796 31.3036 17.9163 31.3036 18.1897C31.3036 18.512 31.4012 18.6487 32.3485 19.596L33.3934 20.6409V21.8909C33.3934 22.5745 33.3739 23.1311 33.3446 23.1311C33.3055 23.1311 31.3524 22.0276 31.1669 21.9007C31.1473 21.8909 30.9813 21.2952 30.786 20.5725C30.3954 19.0979 30.2294 18.8343 29.6825 18.8343C28.9598 18.8343 28.7059 19.2932 28.9403 20.1819L29.077 20.6995L28.5594 20.3968C27.7977 19.9671 27.2508 20.0061 26.9872 20.5139C26.743 20.9827 26.9481 21.4124 27.5926 21.7737C27.8856 21.9397 28.1005 22.1057 28.0712 22.1546C28.0516 22.1936 27.827 22.2815 27.5926 22.3401C26.8114 22.5354 26.4989 23.2776 26.9969 23.7659C27.3094 24.0882 27.534 24.0784 29.038 23.678L30.288 23.3362L31.3524 23.9417C31.9286 24.2737 32.4071 24.5667 32.4169 24.596C32.4169 24.6253 31.9383 24.928 31.3524 25.26L30.2977 25.8753L27.4462 25.1331L27.1727 25.3382C26.7723 25.6311 26.6747 25.9827 26.8798 26.3928C27.0165 26.6858 27.1239 26.7542 27.6317 26.9007L28.2274 27.0667L27.7489 27.3401C27.0946 27.721 26.909 27.9553 26.9188 28.3753C26.9383 29.1663 27.6805 29.3616 28.5985 28.805C28.9794 28.5803 29.1063 28.5413 29.0575 28.6585C28.8329 29.2346 28.7938 29.6643 28.9208 29.9378C29.077 30.26 29.5067 30.4944 29.8094 30.4163C30.2782 30.2991 30.3856 30.1136 30.7567 28.7366L31.118 27.3792L31.6942 27.0276C32.0067 26.8421 32.5243 26.5393 32.8368 26.3635L33.3934 26.051V28.5413L32.3778 29.5764C31.8114 30.1428 31.3329 30.719 31.2938 30.8557C31.1962 31.2366 31.4012 31.6175 31.7723 31.7737C32.202 31.9593 32.5243 31.8518 33.0321 31.3538L33.3934 31.0022V31.7444C33.3934 32.4378 33.413 32.5061 33.6473 32.6917C33.9891 32.9553 34.3895 32.9553 34.7118 32.6721C34.9364 32.4866 34.9852 32.3499 35.0243 31.7932L35.0829 31.1389L35.454 31.4807C35.659 31.6663 35.9422 31.8421 36.0692 31.8811C36.6063 32.0081 37.1922 31.4124 37.0555 30.8655C37.0262 30.719 36.5575 30.1624 36.0204 29.6253L35.0536 28.6389V27.3987C35.0536 26.7151 35.0829 26.1585 35.1122 26.1585C35.1512 26.1585 35.6493 26.4319 36.2157 26.7639L37.2606 27.3694L37.534 28.4436C37.6903 29.0393 37.8758 29.6839 37.954 29.8889C38.1981 30.4944 38.9012 30.6214 39.3602 30.1331C39.5262 29.9573 39.5555 29.8401 39.5067 29.4788C39.4774 29.2346 39.4286 28.9319 39.3895 28.8147C39.3212 28.5901 39.3309 28.5901 39.8876 28.8831C40.5223 29.2249 40.7762 29.2542 41.0887 29.0296C41.411 28.805 41.5282 28.4436 41.4012 28.0725C41.3329 27.8479 41.1473 27.6721 40.7176 27.4182L40.1317 27.0667L40.6688 26.9397C41.2938 26.7932 41.5965 26.4905 41.5965 26.0413C41.5965 25.6409 41.4598 25.426 41.1278 25.2893C40.8739 25.1819 40.659 25.2112 39.4676 25.5237L38.1005 25.885L37.2606 25.4358C36.2352 24.8694 35.9422 24.6448 36.079 24.5178C36.1376 24.4593 36.6063 24.1663 37.1239 23.8733L38.0712 23.3264L39.37 23.6682C40.0829 23.8538 40.7665 24.01 40.8934 24.01C41.2255 24.01 41.5965 23.5901 41.5965 23.2093C41.5965 22.721 41.3719 22.4768 40.7665 22.301C40.4735 22.2229 40.2294 22.135 40.2294 22.1057C40.2294 22.0862 40.454 21.9495 40.7274 21.803C41.2938 21.4905 41.538 21.1096 41.4501 20.68C41.3133 20.0745 40.6005 19.928 39.868 20.3577C39.6239 20.4944 39.4188 20.5921 39.3895 20.5725C39.37 20.5432 39.409 20.2893 39.4676 19.9866C39.5653 19.5081 39.5653 19.4104 39.409 19.1858C39.1063 18.7171 38.4813 18.6389 38.1297 19.0296C38.0419 19.1272 37.8075 19.8108 37.6024 20.5335L37.2411 21.8616L36.1766 22.4866L35.1024 23.1116L35.0438 20.553L36.0497 19.5471C36.9481 18.6487 37.0458 18.512 37.0458 18.1897C37.0458 17.9163 36.9774 17.7796 36.7723 17.6038C36.3719 17.2522 36.0106 17.301 35.493 17.7698L35.0536 18.18V17.6721C35.0536 16.6175 34.5458 16.0999 33.8133 16.3928Z" fill="#44B64B"/>
<path d="M5.26807 18.8343C5.08252 19.0198 5.07275 19.1565 5.07275 22.9358C5.07275 26.7151 5.08252 26.8518 5.26807 27.0374C5.45361 27.2229 5.59033 27.2327 9.36963 27.2327C13.1489 27.2327 13.2856 27.2229 13.4712 27.0374C13.6567 26.8518 13.6665 26.7151 13.6665 22.9358C13.6665 19.1565 13.6567 19.0198 13.4712 18.8343C13.2856 18.6487 13.1489 18.6389 9.36963 18.6389C5.59033 18.6389 5.45361 18.6487 5.26807 18.8343ZM12.104 25.6702H6.63525V20.2014H12.104V25.6702Z" fill="#44B64B"/>
<path d="M5.26807 31.3538C5.15088 31.4905 5.07275 31.6956 5.07275 31.9202C5.07275 32.1448 5.15088 32.3499 5.26807 32.4866L5.47314 32.7014H23.813L24.0181 32.4866C24.2817 32.2034 24.2817 31.637 24.0181 31.3538L23.813 31.1389H5.47314L5.26807 31.3538Z" fill="#44B64B"/>
</svg>
