<svg width="60" height="60" viewBox="0 0 60 60" fill="none" xmlns="http://www.w3.org/2000/svg">
<g clip-path="url(#clip0_33_6265)">
<path d="M59.8291 14.6789C55.5724 11.8646 48.3026 9.99951 39.828 9.99951C31.3533 9.99951 24.0859 11.8646 19.8291 14.6789V40.1086C19.8291 41.6679 20.3676 43.1237 20.9517 44.5567C24.5388 52.2186 32.9402 55.9296 39.8303 59.9995C46.7204 55.9296 55.1195 52.2186 58.7066 44.5567C59.2907 43.1237 59.8291 41.6679 59.8291 40.1086V14.6789Z" fill="#F8F8FF"/>
<path d="M21.9971 0.194597C19.8291 0.761004 17.9346 2.24538 16.9287 4.1985C16.167 5.67311 16.0303 6.42507 16.4795 6.80593C17.0362 7.28444 17.5635 6.96218 17.8858 5.94655C18.2764 4.74538 19.1065 3.58327 20.083 2.85085C21.2744 1.97194 22.4854 1.56178 23.9112 1.55202C25.8545 1.54225 27.4073 2.22585 28.7256 3.68093C30.6006 5.72194 30.9131 8.80788 29.4971 11.2102C29.0576 11.9524 27.9444 13.0559 27.1729 13.5051C26.1182 14.1204 25.3662 14.3059 23.9502 14.3059C22.9151 14.3059 22.6221 14.2669 22.0459 14.0716C20.7471 13.6223 19.6338 12.8508 18.9014 11.8743C18.3741 11.1614 18.1397 10.7122 17.8369 9.8235C17.583 9.09108 17.4073 8.89577 16.9873 8.886C16.2647 8.87624 16.0498 9.36452 16.3428 10.3313C17.2022 13.1341 19.5166 15.2141 22.4073 15.7805L23.2373 15.9368L23.0518 16.5911C22.8955 17.1575 22.583 18.8762 22.583 19.2083C22.583 19.2962 22.3584 19.3352 21.8116 19.3352H21.0401L20.9717 19.0227C20.9326 18.8469 20.6787 18.4954 20.3467 18.1536C19.585 17.3723 19.126 17.2454 17.2705 17.304C16.0889 17.3333 15.835 17.3723 15.4834 17.5579C14.8584 17.8899 14.4483 18.2903 14.1846 18.8372C14.0479 19.1301 13.8916 19.3352 13.8037 19.3352C13.7158 19.3352 13.5205 19.0911 13.3448 18.7688C12.2705 16.7571 9.35061 16.8548 8.38382 18.9348C8.19827 19.3352 8.17874 19.5598 8.17874 20.9466C8.17874 22.3919 8.19827 22.5481 8.41311 22.9778C8.69632 23.5637 9.22366 24.0911 9.76077 24.3352C10.083 24.4817 10.1807 24.5696 10.1807 24.7551C10.1807 24.9309 10.1026 25.0091 9.84866 25.0969C9.34085 25.263 8.75491 25.8294 8.45218 26.4446C8.1885 26.9817 8.17874 27.0501 8.17874 28.5637C8.17874 30.0676 8.1885 30.1458 8.44241 30.6243C8.74514 31.2005 9.33108 31.7669 9.82913 31.9426L10.1807 32.0696V33.6712L8.40335 33.7102C6.81155 33.7395 6.57718 33.7591 6.27444 33.9446C5.7178 34.2669 5.49319 34.6966 5.49319 35.4094V36.0344H3.35452C1.30374 36.0344 1.21585 36.0442 0.903348 36.2591C0.727567 36.3762 0.483427 36.6008 0.376005 36.7473C0.170927 37.0208 0.170927 37.1087 0.170927 41.8743C0.170927 47.2649 0.151395 47.0891 0.825223 47.5774C1.13772 47.7923 1.22561 47.802 3.31546 47.8313L5.49319 47.8606V48.3684C5.49319 48.9934 5.72757 49.4817 6.16702 49.7747L6.49905 49.9993H10.9033C15.1221 49.9993 15.3174 49.9895 15.6299 49.804C16.1084 49.511 16.333 49.0716 16.333 48.4173V47.8508L37.6709 47.802L38.1104 47.5676C38.6475 47.2942 48.8428 37.1673 49.1944 36.5716C49.4971 36.0442 49.5655 35.6438 49.4385 35.1653C49.1553 34.0911 47.6123 33.1731 45.9033 33.0364C44.9366 32.9583 44.1162 33.1243 43.1885 33.5637C42.5635 33.8665 42.251 34.1204 41.0596 35.2923C39.7901 36.552 39.6729 36.6985 39.6729 37.0208C39.6729 37.47 39.9951 37.7923 40.4541 37.7923C40.7471 37.7923 40.9326 37.636 42.1045 36.4934C43.7744 34.8528 44.1846 34.6282 45.4834 34.6184C46.2842 34.6184 46.4209 34.6477 47.0069 34.9309C48.2178 35.5266 48.6768 34.8919 42.6514 40.9173L37.3291 46.2395L16.333 46.2883V37.4993H17.1631C17.6612 37.4993 18.1299 37.4407 18.3252 37.3626C18.5108 37.2844 18.9698 36.9133 19.3408 36.5423C19.8389 36.0442 20.2491 35.7512 20.7959 35.4778L21.5576 35.1067L33.4522 35.0481L33.3838 35.468C33.2178 36.5325 32.4756 37.5091 31.4795 37.9778C30.9326 38.2317 30.9131 38.2317 28.042 38.2805L25.1514 38.3294L24.6826 38.6223C23.9795 39.052 23.628 39.7649 23.6768 40.6341C23.7158 41.4055 24.0186 41.9426 24.6533 42.3528L25.0635 42.6262L30.3369 42.6555C33.9795 42.6751 35.6983 42.6458 35.8741 42.5774C36.0108 42.5188 36.7334 41.8645 37.4659 41.1223C38.6182 39.9602 38.794 39.7356 38.794 39.4622C38.794 39.0423 38.4229 38.6712 38.003 38.6712C37.7295 38.6712 37.5147 38.8372 36.4502 39.8919L35.2198 41.1126H25.5225L25.376 40.8977C25.1612 40.595 25.1807 40.2727 25.4151 40.0383C25.6006 39.8528 25.7373 39.843 28.0908 39.843C29.4483 39.843 30.8057 39.7942 31.0889 39.7454C32.9248 39.3938 34.4873 37.8704 34.878 36.054C35.1221 34.8919 34.9366 34.1497 34.3018 33.7102L33.9698 33.4856L21.3623 33.5442L20.6592 33.7981C19.8096 34.1106 18.7549 34.804 18.1983 35.3997C17.7198 35.927 17.4756 36.0344 16.8116 36.0344H16.333V35.4094C16.333 34.6966 16.1084 34.2669 15.5518 33.9446C15.2491 33.7591 15.0147 33.7395 13.4815 33.7102L11.7432 33.6712V32.0598L12.1338 31.8841C12.7002 31.6301 13.2764 30.9954 13.501 30.3997C13.7549 29.7258 13.7842 27.5676 13.5498 26.7864C13.3643 26.1809 12.7686 25.4778 12.1826 25.1946C11.8213 25.0188 11.7432 24.9309 11.7432 24.7161C11.7432 24.511 11.8116 24.4329 12.0655 24.3352C12.5537 24.1594 13.042 23.7005 13.3545 23.1341C13.5987 22.6848 13.6475 22.47 13.6768 21.6985C13.7061 21.1223 13.7549 20.8001 13.833 20.8001C13.8916 20.8001 14.0772 21.054 14.2334 21.3567C14.5752 22.0208 15.1514 22.4895 15.8643 22.7044C16.5576 22.9094 18.5596 22.8997 19.2627 22.6946C19.8975 22.5091 20.8545 21.6204 20.9717 21.1126L21.0401 20.8001H22.5733L22.6221 21.1126C22.8076 22.4114 22.9346 23.0071 23.1787 23.7395C24.5459 27.9485 27.9834 31.0344 32.3682 32.0012C33.5791 32.2649 36.2744 32.2454 37.5049 31.9524C44.6241 30.302 48.7354 23.0071 46.4502 16.0637C45.4737 13.1048 43.1299 10.4192 40.3076 9.00319C37.9248 7.81178 35.3076 7.46999 32.3389 7.96803L31.9873 8.02663L31.9287 7.26491C31.8408 6.17116 31.6358 5.45827 31.0791 4.32546C30.0635 2.25514 28.1494 0.741472 25.8643 0.194597C24.7901 -0.0690745 23.0127 -0.0593089 21.9971 0.194597ZM37.3487 9.60866C40.835 10.4973 43.6475 13.0071 44.8584 16.3176C45.708 18.6419 45.7373 21.054 44.9463 23.3977C43.8037 26.7864 40.9815 29.3938 37.4561 30.3411C36.5967 30.5755 36.3233 30.6048 34.8389 30.6048C33.3448 30.6048 33.0811 30.5755 32.2022 30.3411C31.0401 30.0286 29.3311 29.1985 28.4326 28.5247C24.8194 25.7708 23.2959 21.0735 24.6533 16.8157C24.8096 16.3176 24.9951 15.888 25.0537 15.8782C25.1221 15.8587 25.5127 15.7708 25.9424 15.6731C27.4561 15.3411 29.1651 14.2473 30.21 12.9485C30.7764 12.2551 31.2256 11.4251 31.5674 10.4583L31.8213 9.72585L32.3389 9.58913C33.8623 9.20827 35.7959 9.21803 37.3487 9.60866ZM11.6162 19.0911C12.0069 19.3548 12.1338 19.804 12.1338 20.9466C12.1338 21.679 12.085 22.0794 11.9776 22.343L11.8213 22.7044L11.7041 22.3723C11.5576 21.9719 11.3037 21.7766 10.9131 21.7766C10.503 21.7766 10.2783 21.9622 10.1905 22.3626L10.1221 22.7044L9.92679 22.4114C9.79007 22.1966 9.73147 21.9133 9.71194 21.2102C9.69241 20.7122 9.70218 20.1458 9.73147 19.97C9.8096 19.5989 10.2002 19.0716 10.5127 18.9348C10.7862 18.8176 11.3135 18.8958 11.6162 19.0911ZM18.9405 19.0423C19.7901 19.5598 19.7901 20.5657 18.9405 21.1028C18.667 21.2688 18.4912 21.2883 17.4561 21.2688C16.4795 21.2395 16.2256 21.2102 15.9912 21.0442L15.6983 20.8587L16.0694 20.7903C16.4991 20.7219 16.7139 20.4778 16.7237 20.0579C16.7237 19.6673 16.4112 19.3352 16.0303 19.3352C15.669 19.3352 15.7373 19.179 16.1768 18.9837C16.3721 18.9055 16.8701 18.8567 17.5537 18.8469C18.4522 18.8469 18.6768 18.8762 18.9405 19.0423ZM11.5186 26.6594C12.0557 26.9817 12.1533 27.304 12.1143 28.6614C12.0948 29.511 12.0459 29.9016 11.9483 30.0188C11.8116 30.1751 11.792 30.1653 11.6553 29.8626C11.4698 29.4915 11.0694 29.2669 10.7276 29.3548C10.4151 29.4329 10.2686 29.6087 10.1905 30.0091L10.1221 30.3216L9.92679 30.0286C9.68264 29.6673 9.60452 27.8997 9.8096 27.2942C10.0537 26.5716 10.8741 26.2591 11.5186 26.6594ZM14.7705 48.5344H7.06546L7.03616 45.8489C7.00686 42.8704 7.01663 42.9192 6.35257 42.802C6.0596 42.763 5.95218 42.7923 5.7471 42.9973C5.49319 43.2512 5.49319 43.2708 5.49319 44.7747V46.2883H1.6846L1.70413 41.9133L1.73343 37.5481L3.61819 37.5188L5.49319 37.4993V38.9837C5.49319 40.3704 5.50296 40.4778 5.70804 40.6926C5.97171 40.9758 6.45999 40.9856 6.77249 40.7317L7.00686 40.5462L7.06546 35.2532H14.7705V48.5344Z" fill="#44B64B"/>
<path d="M34.3701 12.4212C34.1358 12.6067 34.0088 13.0266 34.0088 13.6614V14.2278L33.2569 14.2766C32.0557 14.345 31.2159 14.8821 30.7178 15.8977C30.4639 16.4055 30.4444 16.5423 30.4444 17.5286C30.4541 18.4466 30.4834 18.6712 30.669 19.052C30.9717 19.677 31.5088 20.1946 32.1534 20.4973C32.6612 20.7317 32.7979 20.7512 34.7608 20.8001C36.6553 20.8489 36.8506 20.8684 37.1045 21.054C37.5049 21.3469 37.7198 21.8352 37.7198 22.4602C37.7198 23.1145 37.4951 23.6028 37.0459 23.8958C36.7334 24.1106 36.626 24.1204 34.8487 24.1204C33.169 24.1204 32.9541 24.1008 32.6709 23.9251C32.2608 23.6809 32.0752 23.3782 31.9678 22.802C31.8506 22.1868 31.5674 21.9329 31.0889 22.011C30.5713 22.0891 30.4444 22.2844 30.4541 22.929C30.4639 23.7005 30.7862 24.4036 31.3819 24.9407C31.958 25.4583 32.5635 25.6829 33.3741 25.6829H33.9795L34.0284 26.4739C34.0869 27.4016 34.253 27.6555 34.8291 27.6555C35.4346 27.6555 35.5713 27.4505 35.5713 26.4934V25.6829H36.2354C36.6065 25.6829 37.1045 25.6145 37.3584 25.5266C37.9737 25.3216 38.628 24.7161 38.96 24.0423C39.2041 23.5344 39.2334 23.388 39.2334 22.4602C39.2237 21.22 39.0186 20.6341 38.335 20.0091C37.6026 19.3352 37.4463 19.2962 35.0635 19.2376C33.1201 19.1887 32.9248 19.1692 32.6807 18.9837C32.1241 18.5735 32.0069 18.3098 32.0069 17.4993C32.0069 16.8645 32.0459 16.6985 32.2412 16.4153C32.6221 15.888 32.9053 15.8196 34.8584 15.8196C36.3526 15.8196 36.6455 15.8489 36.9385 15.9954C37.3194 16.1907 37.7198 16.8645 37.7198 17.2942C37.7198 17.8508 38.5303 18.1633 38.9991 17.7825C39.2041 17.6165 39.2334 17.5091 39.2237 17.0012C39.1944 15.4485 37.8858 14.2571 36.2061 14.2571H35.5713V13.4758C35.5713 12.8216 35.542 12.6653 35.376 12.4993C35.1514 12.2747 34.6241 12.2356 34.3701 12.4212Z" fill="#44B64B"/>
<path d="M27.2119 18.1731C26.8799 18.3391 26.7823 18.6907 26.7823 19.7161C26.7823 20.5364 26.8116 20.7122 26.9873 20.9368C27.2412 21.2591 27.8467 21.2981 28.1494 20.9954C28.3252 20.8196 28.3448 20.6731 28.3448 19.6868C28.3448 18.7688 28.3155 18.5344 28.1787 18.3684C27.9737 18.1243 27.4951 18.0266 27.2119 18.1731Z" fill="#44B64B"/>
<path d="M41.753 18.1633C41.4112 18.3001 41.333 18.5833 41.333 19.7161C41.333 20.6731 41.3526 20.8196 41.5284 20.9954C41.8311 21.2981 42.4366 21.2591 42.6905 20.9368C42.8662 20.7122 42.8955 20.5364 42.8955 19.6575C42.8955 18.6614 42.8858 18.6321 42.6123 18.3489C42.3194 18.0559 42.1241 18.0169 41.753 18.1633Z" fill="#44B64B"/>
<path d="M25.298 4.20826C25.1711 4.33521 24.2433 5.87818 23.2375 7.62623C21.2941 11.0149 21.1867 11.2883 21.6066 11.6692C21.9093 11.9426 22.466 11.9133 22.7199 11.6106C23.13 11.1321 26.5871 5.00904 26.5871 4.7649C26.5871 4.40357 26.2941 4.10084 25.8839 4.04225C25.591 3.99342 25.4836 4.02271 25.298 4.20826Z" fill="#44B64B"/>
<path d="M20.8743 4.83327C20.386 5.31178 20.7278 6.15163 21.4114 6.15163C21.8118 6.15163 22.1927 5.77077 22.1927 5.37038C22.1927 4.96999 21.8118 4.58913 21.4114 4.58913C21.2259 4.58913 21.0208 4.67702 20.8743 4.83327Z" fill="#44B64B"/>
<path d="M26.0014 9.96019C25.7474 10.2141 25.7377 10.8391 25.9818 11.0637C26.5287 11.5618 27.3197 11.2102 27.3002 10.4875C27.2904 10.2239 27.2221 10.0578 27.0756 9.94066C26.7826 9.70629 26.2455 9.71605 26.0014 9.96019Z" fill="#44B64B"/>
</g>
<defs>
<clipPath id="clip0_33_6265">
<rect width="60" height="60" fill="white"/>
</clipPath>
</defs>
</svg>
