<svg width="60" height="60" viewBox="0 0 60 60" fill="none" xmlns="http://www.w3.org/2000/svg">
<path d="M13.5254 5.83008C9.04297 8.25195 5.20508 10.3613 5.00977 10.5176C4.79492 10.6836 4.52148 11.0547 4.33594 11.4258C4.08203 11.9434 4.02344 12.207 3.98438 12.9102C3.93555 13.6914 3.95508 13.7988 4.15039 14.0332L4.35547 14.3066H8.93555V24.9805L8.20312 25.7422C5.04883 29.043 3.08594 33.7793 3.07617 38.0957C3.07617 38.9258 3.10547 39.1016 3.25195 39.2383C3.41797 39.3848 3.96484 39.4043 9.16016 39.4043H14.8828L14.9414 39.7656C15.4004 42.5488 17.4121 44.7949 20.0977 45.5371C20.9277 45.7617 22.9199 45.7617 23.75 45.5371C26.4258 44.7949 28.4375 42.5488 28.9062 39.7656L28.9648 39.4043H34.707C40.1465 39.4043 40.459 39.3945 40.6055 39.2285C40.7422 39.082 40.7715 38.8477 40.7715 38.0762C40.7617 33.7891 38.7891 29.0332 35.6445 25.7422L34.9121 24.9805V14.3066H39.4922L39.6973 14.0332C39.8926 13.7988 39.9121 13.6914 39.8633 12.9102C39.8242 12.207 39.7656 11.9434 39.5117 11.4258C39.3262 11.0547 39.0527 10.6836 38.8379 10.5176C38.2617 10.0586 22.1875 1.41602 21.9238 1.41602C21.7871 1.41602 18.0078 3.39844 13.5254 5.83008ZM29.7852 7.19727C33.9746 9.46289 37.5488 11.416 37.7246 11.543C38.1152 11.8359 38.3105 12.1191 38.3887 12.5293L38.457 12.8418H21.9336C7.16797 12.8418 5.41992 12.8223 5.41992 12.6953C5.41992 12.4316 5.68359 11.9238 5.92773 11.6895C6.31836 11.3379 21.8555 2.96875 22.0215 3.03711C22.0996 3.06641 25.5957 4.94141 29.7852 7.19727ZM13.0371 22.0312L12.7344 22.1973C12.5684 22.2852 12.0312 22.627 11.543 22.9492C11.0449 23.2715 10.5859 23.5645 10.5273 23.6133C10.4297 23.6719 10.4004 22.7344 10.4004 18.9941V14.3066H13.0371V22.0312ZM19.1895 20.0293L18.4375 20.1562C17.5684 20.3027 16.1328 20.7031 15.166 21.0742L14.502 21.3281V14.3066H19.1895V20.0293ZM23.291 19.873H20.5566V14.3066H23.291V19.873ZM29.3457 21.3379L28.8379 21.123C28.0566 20.8105 26.2598 20.3027 25.4199 20.1562L24.6582 20.0293V14.3066H29.3457V21.3379ZM33.4473 18.9941C33.4473 22.7344 33.418 23.6719 33.3301 23.6133C33.2617 23.5645 32.8027 23.2715 32.3047 22.9492C31.8164 22.627 31.2793 22.2852 31.1133 22.1973L30.8105 22.0312V14.3066H33.4473V18.9941ZM23.4375 21.3379C29.6582 21.9336 35.0195 25.6836 37.6855 31.2988C38.5645 33.1641 39.1602 35.3613 39.2773 37.1875L39.3359 38.0371H37.7539L37.6953 37.4707C37.4414 35.0879 37.002 33.5156 36.0547 31.6406C32.5391 24.5996 24.3848 21.2305 16.8848 23.7305C13.8867 24.7266 11.1426 26.6992 9.31641 29.1797C8.98438 29.6191 8.71094 29.9902 8.69141 30.0098C8.65234 30.0586 7.37305 29.2285 7.37305 29.1504C7.37305 28.9648 8.7793 27.2461 9.60938 26.4062C11.5527 24.4727 13.7305 23.1055 16.3184 22.2168C18.6914 21.3965 21.0156 21.1133 23.4375 21.3379ZM24.9023 24.6484C27.7832 25.3125 29.9512 26.5234 32.041 28.6035C34.5117 31.0742 35.8691 33.9355 36.2305 37.373L36.2988 38.0371H28.9648L28.9062 37.666C28.877 37.4707 28.7402 36.9531 28.6035 36.5234C27.9492 34.4141 26.2402 32.7051 24.1016 32.0117C22.9883 31.6504 21.3867 31.5918 20.2637 31.875C19.1992 32.1387 18.418 32.5098 17.6074 33.1445L16.9434 33.6426L14.1309 32.7148C12.5879 32.207 11.1816 31.7871 11.0156 31.7871C10.4004 31.7871 10.1855 32.5684 10.6738 33.0371C10.8203 33.1836 11.875 34.1309 13.0176 35.1465C14.4434 36.416 15.0781 37.041 15.0488 37.1484C15.0293 37.2363 14.9805 37.4707 14.9414 37.666L14.8828 38.0371H7.54883L7.61719 37.373C7.97852 33.9258 9.33594 31.084 11.8066 28.6035C13.9062 26.5137 16.2305 25.2344 18.9453 24.668C20.3613 24.375 20.3418 24.375 22.2656 24.4141C23.6035 24.4434 24.2383 24.502 24.9023 24.6484ZM7.31445 30.918L7.94922 31.3184L7.65625 31.9043C6.875 33.4473 6.38672 35.2441 6.15234 37.4707L6.09375 38.0371H4.51172L4.57031 37.1094C4.64844 36.0156 5.01953 34.248 5.43945 33.0664C5.79102 32.0508 6.49414 30.5176 6.60156 30.5176C6.64062 30.5176 6.96289 30.6934 7.31445 30.918ZM23.3789 33.3203C25.3027 33.8477 26.8457 35.4199 27.3438 37.3242C27.5293 38.0371 27.5293 39.3945 27.3438 40.0879C26.8359 42.0117 25.2148 43.6328 23.291 44.1406C22.6074 44.3262 21.2402 44.3262 20.5566 44.1406C18.6328 43.6328 17.0117 42.0117 16.5039 40.0879C16.3184 39.3848 16.3184 38.0273 16.5039 37.3145C17.168 34.7754 19.7168 32.9199 22.2656 33.125C22.5879 33.1445 23.0957 33.2324 23.3789 33.3203ZM15.9473 34.8633C15.9668 34.8828 15.8984 35.0195 15.8008 35.1855L15.6152 35.4785L14.3555 34.3359L15.1367 34.5898C15.5664 34.7266 15.9277 34.8535 15.9473 34.8633Z" fill="#44B64B"/>
<path d="M20.8887 5.86914C20.3223 6.07422 19.7168 6.62109 19.4141 7.2168C19.1895 7.63672 19.1504 7.8418 19.1504 8.49609C19.1504 9.15039 19.1895 9.35547 19.4043 9.77539C19.6777 10.293 20.1465 10.7617 20.6836 11.0547C21.1328 11.2988 22.7148 11.2988 23.1641 11.0547C23.7012 10.7617 24.1699 10.293 24.4434 9.77539C24.6582 9.36523 24.6973 9.15039 24.6973 8.49609C24.707 7.8125 24.668 7.64648 24.4141 7.1875C24.0625 6.55273 23.5156 6.06445 22.9199 5.86914C22.373 5.67383 21.4258 5.68359 20.8887 5.86914ZM22.6465 7.36328C23.0566 7.58789 23.3105 8.11523 23.2617 8.61328C23.2031 9.16016 22.8906 9.57031 22.3633 9.77539C21.9434 9.93164 21.9043 9.93164 21.4844 9.77539C20.2637 9.30664 20.2637 7.65625 21.4844 7.22656C21.9141 7.08008 22.207 7.11914 22.6465 7.36328Z" fill="#44B64B"/>
<path d="M21.582 34.9316C21.3281 35.0781 21.2402 35.2051 21.2402 35.459C21.2402 35.625 21.1621 35.6836 20.9082 35.7324C20.1465 35.8789 19.3848 36.7578 19.3848 37.5C19.3848 37.9395 19.707 38.5645 20.0781 38.8477C20.5273 39.1895 20.8789 39.3066 21.6895 39.3945C22.8906 39.5312 23.3691 39.9414 22.666 40.2344C22.1973 40.4297 21.3965 40.4102 20.752 40.1855C20.0488 39.9414 19.8535 39.9414 19.5996 40.2148C19.3359 40.498 19.3164 40.9766 19.5703 41.2012C19.8047 41.416 20.6738 41.748 20.9961 41.748C21.1914 41.748 21.2402 41.7969 21.2402 41.9824C21.2402 42.2461 21.6504 42.627 21.9238 42.627C22.1875 42.627 22.6074 42.2461 22.6074 42.002C22.6074 41.8359 22.6953 41.7676 23.0371 41.6699C23.8574 41.416 24.4629 40.6934 24.4629 39.9512C24.4629 38.8867 23.5449 38.1348 22.0801 37.998C20.9668 37.8906 20.5273 37.5195 21.1426 37.207C21.5527 36.9922 22.4316 37.0215 23.2129 37.2754L23.877 37.4902L24.1406 37.2852C24.4824 37.041 24.5605 36.543 24.2969 36.2598C24.0918 36.0254 23.8184 35.9082 23.1445 35.7422C22.7344 35.6445 22.6562 35.5957 22.5879 35.3418C22.5391 35.166 22.4121 35 22.2656 34.9316C21.9531 34.7852 21.8359 34.7852 21.582 34.9316Z" fill="#44B64B"/>
</svg>
