<svg width="60" height="60" viewBox="0 0 60 60" fill="none" xmlns="http://www.w3.org/2000/svg">
<path d="M36.6727 10.9985C44.7354 10.9985 51.5779 12.7144 55.6738 15.2266V40.1076C55.6738 41.443 55.2155 42.7285 54.6349 44.1545C52.9436 47.7532 50.1068 50.4675 46.7771 52.8058C44.4567 54.4352 41.9694 55.8371 39.4952 57.2317C38.5499 57.7645 37.6065 58.2962 36.675 58.8392C35.7427 58.2957 34.7984 57.7635 33.8521 57.2302C31.3785 55.8362 28.8917 54.4347 26.5717 52.8057C23.2414 50.4674 20.4041 47.7531 18.7127 44.1545C18.1321 42.7285 17.6738 41.4431 17.6738 40.1076V15.2266C21.7696 12.7144 28.61 10.9985 36.6727 10.9985Z" stroke="#F0F1FE" stroke-width="2"/>
<path d="M11.7126 0.0865382C11.0192 0.301382 10.4724 0.789663 7.24971 4.02209C4.54463 6.73693 3.76338 7.57677 3.5876 7.95763L3.36299 8.44591L3.33369 28.2213C3.31416 46.3854 3.32393 48.0358 3.47041 48.4264C3.69502 49.0123 4.15401 49.5006 4.73018 49.7643L5.21846 49.9986H21.6149C33.7731 49.9986 38.1091 49.9693 38.3825 49.8815C38.9196 49.7252 39.5349 49.1686 39.7985 48.5924L40.0329 48.0943V1.90294L39.7985 1.4049C39.5349 0.828726 38.9196 0.272085 38.3825 0.115835C37.9528 -0.0208837 12.1325 -0.0404149 11.7126 0.0865382ZM38.07 2.01037L38.2751 2.27404V47.7233L38.07 47.9869L37.8747 48.2408H5.47237L5.27705 47.9869L5.07198 47.7233V9.17834H7.76729C9.57393 9.17834 10.5993 9.13927 10.8532 9.06115C11.3708 8.9049 12.1325 8.21154 12.3571 7.69396C12.5134 7.32287 12.5427 6.93224 12.572 4.51037L12.6013 1.75646H37.8747L38.07 2.01037ZM10.8142 5.48693C10.7849 6.84435 10.7751 6.93224 10.5505 7.16662L10.3161 7.42052H6.39033L10.7849 3.02599L10.8142 3.5338C10.8337 3.81701 10.8337 4.69591 10.8142 5.48693Z" fill="#44B64B"/>
<path d="M17.0828 4.22716C16.5652 4.49084 16.4773 5.18419 16.907 5.63341L17.1121 5.85802H26.2332L26.4675 5.60412C26.78 5.27209 26.7898 4.67638 26.4773 4.37365L26.2527 4.14904L21.7898 4.11974C18.3328 4.10998 17.2683 4.12951 17.0828 4.22716Z" fill="#44B64B"/>
<path d="M19.6613 7.51818C19.1144 7.74279 18.9582 8.52404 19.3781 8.93419C19.6125 9.17834 19.6125 9.17834 21.673 9.17834C23.7336 9.17834 23.7336 9.17834 23.9679 8.93419C24.2902 8.62169 24.2902 8.11388 23.9777 7.74279L23.7433 7.46935L21.8 7.44982C20.7355 7.44005 19.7687 7.46935 19.6613 7.51818Z" fill="#44B64B"/>
<path d="M19.8664 11.7271C14.4172 12.4693 10.0227 16.0435 8.20627 21.2096C7.74729 22.5377 7.43479 24.4029 7.49338 25.5064C7.50315 25.6627 7.6594 25.9459 7.86448 26.1607C8.36252 26.7174 8.77268 26.776 11.5949 26.7369C13.7239 26.7076 13.9387 26.6881 14.2512 26.5025C14.759 26.2096 14.9836 25.7896 15.1203 24.9303C15.3742 23.3482 16.0285 22.1275 17.2199 21.024C17.8645 20.4185 19.1535 19.608 19.261 19.7252C19.2903 19.7545 19.1828 20.2525 19.0266 20.8482C18.3821 23.3287 18.1379 26.024 18.4797 26.9322C19.0461 28.4264 20.3449 29.276 21.9074 29.1783C23.4895 29.0709 24.6906 27.9967 24.9836 26.4244C25.1692 25.399 24.8176 22.606 24.2219 20.4576C24.1145 20.0865 24.0559 19.7545 24.0754 19.7252C24.2024 19.608 25.4719 20.4185 26.1262 21.024C27.3176 22.1275 27.9719 23.3482 28.2258 24.9303C28.3625 25.7896 28.5871 26.2096 29.0949 26.5025C29.4074 26.6881 29.6223 26.7076 31.7512 26.7369C34.4758 26.776 34.9641 26.7076 35.4328 26.2291C35.843 25.8092 35.9309 25.399 35.8235 24.3736C35.5695 21.9127 34.6906 19.5885 33.216 17.4791C32.5227 16.5025 30.7356 14.774 29.6906 14.0807C27.2883 12.4791 24.9738 11.7467 22.0637 11.6685C21.2336 11.649 20.2473 11.6685 19.8664 11.7271ZM20.7942 14.774C20.7942 15.9459 20.7746 16.1021 20.5988 16.2584C20.5012 16.3463 20.3156 16.7076 20.2082 17.0494C20.052 17.5182 19.9543 17.6744 19.8176 17.6744C19.2903 17.6744 17.5715 18.4654 16.5754 19.1685C16.4192 19.2662 16.2238 19.11 14.9836 17.8697C13.343 16.2389 13.3723 16.4537 14.759 15.5162C15.6867 14.901 16.6731 14.4127 17.6692 14.0611C18.4797 13.7877 19.8469 13.4947 20.384 13.485L20.7942 13.4752V14.774ZM24.6906 13.7779C26.3117 14.1881 27.9914 14.9986 29.2512 15.9947L29.7981 16.4244L28.4016 17.8307C27.6301 18.6021 26.966 19.2369 26.9367 19.2369C26.9074 19.2369 26.5754 19.0416 26.2043 18.7975C25.5305 18.3482 24.2317 17.7916 23.6555 17.7037C23.3723 17.6549 23.3235 17.5963 23.1379 17.0396C23.0305 16.6978 22.8449 16.3463 22.7473 16.2584C22.5715 16.1021 22.552 15.9459 22.552 14.7642V13.4459L23.216 13.5045C23.5774 13.5435 24.2414 13.6607 24.6906 13.7779ZM14.9836 20.7506C14.1828 21.8541 13.5285 23.3775 13.4114 24.4322L13.343 24.9986H9.27073V24.6666C9.27073 24.1588 9.5344 22.899 9.8176 22.0201C10.2864 20.6041 11.136 19.0318 11.9953 18.0064L12.2492 17.6939L13.6848 19.1197C15.052 20.4674 15.1203 20.5553 14.9836 20.7506ZM32.0539 18.983C32.6203 19.8228 33.177 20.9654 33.5285 22.0201C33.7922 22.8014 34.0754 24.2076 34.0754 24.7154V24.9986H29.9738V24.7252C29.9738 23.8756 29.2121 21.9127 28.509 20.9654L28.216 20.565L29.6516 19.1197L31.0969 17.6744L31.341 17.9869C31.4778 18.1529 31.8 18.6021 32.0539 18.983ZM22.2004 19.8912C22.7473 21.7174 23.0988 23.4068 23.2258 24.774C23.3528 26.1705 23.2063 26.6783 22.5129 27.1861C22.093 27.4986 21.2238 27.4693 20.7746 27.1275C20.2375 26.7174 20.0715 26.2682 20.091 25.2721C20.1203 23.8267 20.511 22.0396 21.5461 18.524C21.5754 18.4361 21.634 18.358 21.6731 18.358C21.7121 18.358 21.9465 19.0514 22.2004 19.8912Z" fill="#44B64B"/>
<path d="M9.59346 30.8776C9.46651 30.9361 9.23213 31.1998 9.06612 31.4537C8.78291 31.9029 8.73409 31.9322 8.35323 31.9322C8.05049 31.9322 7.88448 31.9908 7.73799 32.1471C7.28877 32.6451 7.40596 33.2018 8.08955 33.8072C8.48994 34.1783 8.9001 34.276 9.32002 34.1197C9.50557 34.0416 10.7751 32.1861 10.863 31.8541C10.9509 31.5123 10.7458 31.0631 10.4333 30.9069C10.1208 30.7408 9.89619 30.7311 9.59346 30.8776Z" fill="#44B64B"/>
<path d="M13.5188 31.9517C13.3039 32.2056 13.2649 32.3326 13.3137 32.606C13.343 32.7916 13.4602 33.0357 13.5676 33.1431C13.7629 33.3482 13.8117 33.3482 24.4367 33.3775C32.4934 33.397 35.1692 33.3677 35.384 33.2799C35.9309 33.0552 36.0383 32.2056 35.5598 31.8345C35.3254 31.6392 35.1301 31.6392 24.5539 31.6392H13.7824L13.5188 31.9517Z" fill="#44B64B"/>
<path d="M9.4958 36.7662C9.38838 36.8444 9.16377 37.108 9.01729 37.3522C8.78291 37.7135 8.69502 37.7916 8.51924 37.7428C8.16768 37.6549 7.6501 37.9283 7.53291 38.2506C7.37666 38.7096 7.50362 39.0221 8.05049 39.5494C8.62666 40.0865 9.03682 40.1842 9.42744 39.8619C9.68135 39.6569 10.6091 38.2897 10.7946 37.8307C11.0485 37.2252 10.6384 36.6197 9.98409 36.6197C9.82784 36.6197 9.61299 36.6881 9.4958 36.7662Z" fill="#44B64B"/>
<path d="M13.5687 37.694C13.0902 38.1725 13.2855 38.9733 13.93 39.1588C14.1937 39.237 17.3675 39.2565 24.8187 39.237L35.346 39.2077L35.5999 38.9538C35.9319 38.612 35.9515 38.0749 35.6292 37.7331L35.4144 37.4987H24.5843C13.9398 37.4987 13.764 37.4987 13.5687 37.694Z" fill="#44B64B"/>
<path d="M9.49532 42.6257C9.3879 42.7038 9.16329 42.9674 9.01681 43.2018C8.77267 43.5924 8.71407 43.6315 8.43087 43.5827C8.03048 43.5143 7.71798 43.6901 7.56173 44.0807C7.37618 44.5202 7.46407 44.7936 7.98165 45.3307C8.509 45.8776 8.93868 46.0143 9.31954 45.7604C9.45626 45.6725 9.85665 45.1549 10.218 44.6178C10.7453 43.8268 10.8723 43.5632 10.8625 43.2799C10.843 42.6257 10.0422 42.2448 9.49532 42.6257Z" fill="#44B64B"/>
<path d="M13.8618 43.3287C13.2173 43.5631 13.1001 44.4713 13.6567 44.8912C13.7739 44.9889 16.2642 45.0084 24.5649 45.0182C35.1314 45.0182 35.3267 45.0182 35.561 44.8229C35.854 44.5983 35.9517 44.2174 35.8149 43.8268C35.6099 43.2311 36.1665 43.2604 24.5845 43.2701C18.7642 43.2701 13.9399 43.2994 13.8618 43.3287Z" fill="#44B64B"/>
</svg>
