<svg width="20" height="20" viewBox="0 0 20 20" fill="none" xmlns="http://www.w3.org/2000/svg">
<path d="M9.31013 3.1574C9.6964 2.78932 10.3036 2.78932 10.6899 3.1574L14.3206 6.61731C14.6904 6.9697 14.6904 7.55971 14.3206 7.9121C13.9752 8.24127 13.4322 8.24127 13.0868 7.9121L10.6899 5.62799C10.3036 5.2599 9.6964 5.25991 9.31013 5.62799L6.91323 7.9121C6.5678 8.24127 6.02479 8.24127 5.67937 7.9121C5.30958 7.55971 5.30958 6.9697 5.67937 6.61731L9.31013 3.1574Z" fill="#B5B8D0"/>
<path d="M10.6899 16.8426C10.3036 17.2107 9.6964 17.2107 9.31013 16.8426L5.67937 13.3827C5.30958 13.0303 5.30958 12.4403 5.67937 12.0879C6.02479 11.7587 6.5678 11.7587 6.91323 12.0879L9.31013 14.372C9.6964 14.7401 10.3036 14.7401 10.6899 14.372L13.0868 12.0879C13.4322 11.7587 13.9752 11.7587 14.3206 12.0879C14.6904 12.4403 14.6904 13.0303 14.3206 13.3827L10.6899 16.8426Z" fill="#B5B8D0"/>
</svg>
