<svg width="60" height="60" viewBox="0 0 60 60" fill="none" xmlns="http://www.w3.org/2000/svg">
<path d="M38.1482 9.87695C46.211 9.87695 53.0535 11.5928 57.1494 14.105V38.986C57.1494 40.3215 56.6911 41.6069 56.1105 43.0329C54.4191 46.6316 51.5824 49.3459 48.2527 51.6842C45.9323 53.3136 43.445 54.7155 40.9708 56.1101C40.0255 56.6429 39.082 57.1746 38.1506 57.7176C37.2183 57.1741 36.274 56.6419 35.3277 56.1087C32.8541 54.7146 30.3673 53.3131 28.0473 51.6841C24.717 49.3459 21.8797 46.6316 20.1883 43.0329C19.6077 41.6069 19.1494 40.3215 19.1494 38.986V14.105C23.2452 11.5928 30.0856 9.87695 38.1482 9.87695Z" stroke="#F0F1FE" stroke-width="2"/>
<path d="M4.19434 1.30932C3.25684 1.67065 2.52441 2.37377 2.09473 3.32104C1.93848 3.66284 1.90918 4.05346 1.87988 6.46557L1.85059 9.22924L2.33887 9.71753H7.81738V26.7976C7.81738 45.5378 7.77832 44.1999 8.40332 45.1277C8.80371 45.6941 9.47754 46.1824 10.21 46.4363C10.7959 46.6316 10.9326 46.6316 26.2354 46.6121L41.6553 46.5828L42.3096 46.2605C43.1201 45.8699 43.7549 45.2449 44.1162 44.5027C44.3799 43.9656 44.3896 43.8972 44.4189 42.0906L44.4482 40.2351L44.1943 39.991C43.9404 39.7468 43.9307 39.7468 41.7432 39.7175L39.5557 39.6882V22.4812C39.5557 3.94604 39.5752 4.75659 39.0674 3.76049C38.7354 3.10619 37.7686 2.15893 37.0361 1.77807C35.708 1.07494 36.8799 1.12377 19.9268 1.12377C5.39551 1.13354 4.62402 1.1433 4.19434 1.30932ZM6.81152 3.03784C7.06543 3.18432 7.3291 3.44799 7.49512 3.74096C7.76855 4.19018 7.76855 4.21948 7.79785 6.12377L7.83691 8.05737H3.52051V6.2019C3.52051 4.21948 3.5791 3.86791 4.03809 3.3894C4.69238 2.68627 5.92285 2.53002 6.81152 3.03784ZM34.8193 2.78393C36.0596 2.96948 37.0166 3.58471 37.5537 4.55151L37.8467 5.07885L37.8955 39.698H26.2256C13.5986 39.698 13.9404 39.6882 13.833 40.2058C13.8037 40.3328 13.7646 41.1335 13.7549 41.9929C13.7256 43.4968 13.7158 43.5749 13.4619 44.0144C12.6807 45.3328 10.4248 45.2937 9.64355 43.946C9.55566 43.7996 9.5166 38.7312 9.47754 23.8289L9.42871 3.90698L9.1748 3.29174L8.91113 2.68627H21.5283C29.4678 2.68627 34.3896 2.72534 34.8193 2.78393ZM42.7783 42.3835C42.7783 43.5652 42.6318 43.9753 42.0459 44.4539C41.333 45.0496 42.1338 45.0105 27.9053 45.0496L14.8389 45.0691L15.0635 44.6589C15.2588 44.2878 15.2881 44.0632 15.3174 42.7937L15.3564 41.3582H42.7783V42.3835Z" fill="#44B64B"/>
<path d="M22.1729 4.00463C21.8213 4.08276 21.1182 4.34643 20.6104 4.60034C19.1162 5.34252 17.915 6.69994 17.3291 8.29174C16.9678 9.28784 16.8994 10.2839 16.8994 14.3757V18.2136H16.167C15.5127 18.2136 15.3955 18.2429 15.1904 18.4578C14.9561 18.6921 14.9463 18.7312 14.9463 20.2156V21.7292H14.3799C13.9111 21.7292 13.7744 21.7683 13.5986 21.9539C13.3936 22.1687 13.3838 22.2566 13.3838 24.2878C13.3838 26.2214 13.4033 26.4167 13.5693 26.6218L13.7549 26.8562L23.4619 26.8855C28.7939 26.8953 33.2568 26.8855 33.374 26.8562C33.4912 26.8269 33.6865 26.7097 33.7939 26.5925C33.9795 26.3972 33.9893 26.2507 33.9893 24.2976C33.9893 22.2078 33.9893 22.2078 33.7451 21.9734C33.5498 21.7683 33.4131 21.7292 32.9736 21.7292H32.4365L32.4072 20.157C32.3779 18.6433 32.3682 18.5847 32.1436 18.3992C31.9678 18.2527 31.7627 18.2136 31.1475 18.2136H30.376V13.9363C30.376 10.0203 30.3564 9.59057 30.1904 8.91674C29.6045 6.62182 28.0029 4.93237 25.6885 4.15112C24.8584 3.86791 23.0908 3.79955 22.1729 4.00463ZM24.8486 5.66479C25.1611 5.74291 25.6592 5.92846 25.9619 6.07494C26.6943 6.42651 27.8174 7.53979 28.1689 8.26244C28.6963 9.3562 28.7158 9.52221 28.7158 14.0339V18.2136H18.5498L18.5791 13.9363L18.6182 9.66869L18.8623 9.02416C19.3213 7.83276 19.9268 7.04174 20.8838 6.37768C22.0068 5.60619 23.54 5.32299 24.8486 5.66479ZM30.7666 21.7292H16.6064V19.8738H30.7666V21.7292ZM32.3291 25.2449H15.0439V23.3894H32.3291V25.2449Z" fill="#44B64B"/>
<path d="M20.9329 8.15498C20.4642 8.34053 20.3665 9.08272 20.7571 9.47334L20.9915 9.71748H23.6575C26.597 9.71748 26.6849 9.69795 26.8118 9.12178C26.8997 8.74092 26.7142 8.31123 26.4114 8.16475C26.1185 8.03779 21.2649 8.02803 20.9329 8.15498Z" fill="#44B64B"/>
<path d="M21.0983 11.446C20.5222 11.6608 20.3464 12.3054 20.7175 12.7839L20.9128 13.0378H26.3815L26.6159 12.7937C26.9284 12.4909 26.9284 12.0612 26.6257 11.6999L26.3913 11.4265L23.8132 11.4069C22.4069 11.3972 21.1765 11.4167 21.0983 11.446Z" fill="#44B64B"/>
<path d="M20.7571 15.0397C20.4934 15.3034 20.4348 15.8112 20.6399 16.0749C20.9134 16.4265 21.1477 16.4558 23.7356 16.4558H26.2942L26.5872 16.1628C26.8411 15.8991 26.8802 15.8112 26.8313 15.4987C26.7141 14.8054 26.6848 14.7956 23.6673 14.7956H20.9915L20.7571 15.0397Z" fill="#44B64B"/>
<path d="M11.2842 29.2976C11.1182 29.4539 11.04 29.6394 11.04 29.8835C11.04 30.1277 11.1182 30.3132 11.2842 30.4695L11.5186 30.7136H35.8545L36.0889 30.4695C36.4209 30.1472 36.4209 29.6199 36.0889 29.2976L35.8545 29.0535H11.5186L11.2842 29.2976Z" fill="#44B64B"/>
<path d="M11.4799 34.8249C10.9818 35.1081 10.8744 35.7917 11.265 36.1628L11.4896 36.3776H35.8549L36.0892 36.1335C36.4213 35.8112 36.4213 35.3229 36.0795 35.0007L35.8256 34.7663L23.7553 34.7468C15.1127 34.7272 11.6166 34.7565 11.4799 34.8249Z" fill="#44B64B"/>
</svg>
