<svg width="60" height="60" viewBox="0 0 60 60" fill="none" xmlns="http://www.w3.org/2000/svg">
<g clip-path="url(#clip0_33_6225)">
<path d="M39.9988 11C48.0616 11 54.9041 12.7159 59 15.2281V40.109C59 41.4445 58.5417 42.7299 57.9611 44.1559C56.2697 47.7547 53.433 50.469 50.1032 52.8072C47.7829 54.4367 45.2956 55.8386 42.8214 57.2331C41.876 57.7659 40.9326 58.2977 40.0012 58.8406C39.0689 58.2972 38.1245 57.765 37.1783 57.2317C34.7047 55.8376 32.2179 54.4361 29.8979 52.8072C26.5675 50.4689 23.7303 47.7546 22.0389 44.156C21.4583 42.7299 21 41.4445 21 40.109V15.2281C25.0958 12.7158 31.9361 11 39.9988 11Z" stroke="#F0F1FE" stroke-width="2"/>
<path d="M1.26953 0.15625C0.830078 0.351562 0.419922 0.732422 0.185547 1.19141C0.00976562 1.5332 0 1.80664 0 5.16602V8.7793L0.253906 8.97461C0.595703 9.24805 0.908203 9.22852 1.24023 8.94531L1.51367 8.71094L1.54297 5.29297C1.57227 1.99219 1.58203 1.875 1.77734 1.69922C1.96289 1.52344 2.43164 1.51367 14.0723 1.48438L26.1719 1.46484V5.22461C26.1719 8.74023 26.1816 9.01367 26.3574 9.35547C26.582 9.78516 26.9629 10.1562 27.4414 10.4102C27.7539 10.5762 28.0957 10.5957 31.5234 10.625L35.2539 10.6543V15.0098L34.7363 14.834C34.4629 14.7363 33.7891 14.5605 33.252 14.4434C32.2852 14.2188 32.1973 14.2188 23.2422 14.1895L14.1992 14.1504L13.9355 14.3555C13.6035 14.6191 13.5645 15.2246 13.8672 15.5273C14.0527 15.7129 14.1895 15.7227 19.2578 15.7227H24.4531L23.5742 16.2988C23.0957 16.6113 22.4707 17.0801 22.1973 17.3242L21.6992 17.7734H17.8809C14.1895 17.7734 14.0527 17.7832 13.8672 17.9688C13.5645 18.2715 13.6035 18.877 13.9258 19.1309C14.1797 19.3262 14.2969 19.3359 17.2363 19.3359H20.293L19.8535 19.9902C19.082 21.1426 18.4375 22.627 18.0664 24.0918L17.959 24.5117H16.0352C13.7793 24.5117 13.6719 24.541 13.6719 25.2344C13.6719 25.9766 13.7891 26.0254 15.9082 26.0547L17.7246 26.084V28.0273H15.957C14.3164 28.0273 14.1699 28.0371 13.9258 28.2324C13.6035 28.4863 13.5645 29.0918 13.8672 29.3945C14.0527 29.5801 14.1895 29.5898 15.9961 29.5898H17.9395L18.0664 30.1465C18.3691 31.5234 19.0527 33.1055 19.8535 34.3066L20.293 34.9609H17.2363C14.2969 34.9609 14.1797 34.9707 13.9258 35.166C13.6035 35.4199 13.5645 36.0254 13.8672 36.3281C14.0527 36.5137 14.1895 36.5234 17.8711 36.5234H21.6895L22.3438 37.0801C22.6953 37.3828 23.3203 37.8418 23.7305 38.1055L24.4629 38.5742H19.2578C14.1895 38.5742 14.0527 38.584 13.8672 38.7695C13.5938 39.043 13.6035 39.6484 13.877 39.9023C14.0723 40.0781 14.3652 40.0879 23.0859 40.0879C32.9102 40.0879 32.666 40.0977 34.541 39.502L35.2637 39.2773L35.2051 48.0371L34.7559 48.4863H18.3691C2.38281 48.4863 1.97266 48.4863 1.76758 48.3008L1.5625 48.1152V29.7363C1.5625 16.5723 1.5332 11.2695 1.45508 11.0449C1.39648 10.8789 1.26953 10.6934 1.17188 10.6445C0.869141 10.4883 0.400391 10.5371 0.195312 10.7422C0 10.9375 0 11.0645 0 29.6582C0 47.6855 0.00976562 48.4082 0.185547 48.7793C0.410156 49.2578 0.810547 49.6484 1.28906 49.8438C1.61133 49.9805 3.48633 50 18.4082 50C33.6328 50 35.1953 49.9902 35.4785 49.8438C35.918 49.6191 36.3086 49.2383 36.5527 48.7793C36.7676 48.3984 36.7676 48.291 36.7969 43.4863L36.8262 38.584L37.2754 38.3301L37.7246 38.0664L38.5449 38.8867C39.3555 39.6973 39.3555 39.707 39.248 40.0195C39.1699 40.2637 39.1699 40.4102 39.2578 40.6152C39.3164 40.7715 40.498 42.0215 41.8848 43.3984C44.8926 46.377 44.9805 46.4355 46.5332 46.4355C47.3828 46.4355 47.5781 46.4062 48.0566 46.1816C48.7305 45.8594 49.3164 45.293 49.6777 44.6094C49.9316 44.1309 49.9512 44.0039 49.9512 43.0176C49.9512 41.4355 49.9707 41.4648 46.8848 38.3594C44.1992 35.6445 43.9551 35.459 43.4863 35.7324C43.3398 35.8105 43.1836 35.7031 42.4609 34.9902L41.6211 34.1504L42.0898 33.2617C42.8809 31.7773 43.3496 30.3027 43.5547 28.6328C43.6816 27.5098 43.4961 27.1484 42.7832 27.1484C42.5781 27.1484 42.0898 27.4414 42.0898 27.5684C42.0898 27.9102 41.8359 29.4434 41.6797 30.0293C40.8008 33.3887 38.2031 36.3574 35.0293 37.6562C32.6855 38.6035 30.293 38.7793 27.8906 38.1738C24.1113 37.2168 21.0059 34.3066 19.834 30.6152C19.1016 28.3203 19.1113 25.7617 19.8633 23.5547C20.9375 20.4004 23.3789 17.8125 26.416 16.5918C30.5762 14.9316 35.1953 15.8105 38.4375 18.877C40.1953 20.5469 41.1523 22.168 41.748 24.5117C42.0215 25.5957 42.2168 25.8301 42.7734 25.7422C43.2812 25.6641 43.4863 25.3516 43.418 24.7852C43.2422 23.4668 42.3633 21.2891 41.4648 19.9414C40.5371 18.5449 39.2676 17.2949 37.7441 16.2891L36.8652 15.7031L36.7676 9.47266L27.2949 0H14.4531C3.20312 0.00976562 1.57227 0.0292969 1.26953 0.15625ZM33.2812 9.0625C32.832 9.08203 31.4941 9.08203 30.3125 9.0625C28.3398 9.0332 28.125 9.01367 27.9395 8.84766C27.7441 8.66211 27.7344 8.58398 27.7344 5.67383V2.68555L34.082 9.0332L33.2812 9.0625ZM41.4062 36.2793L42.1387 37.0117L40.5273 38.623L39.0234 37.1191L39.7949 36.3379C40.2246 35.8984 40.5957 35.5469 40.625 35.5469C40.6543 35.5469 41.0059 35.8789 41.4062 36.2793ZM46.0156 39.7168C47.168 40.8887 48.1934 41.9824 48.2812 42.1582C48.4766 42.5391 48.4863 43.3496 48.3008 43.7793C48.1348 44.1602 47.6074 44.6777 47.2363 44.8145C46.8848 44.9512 46.1816 44.9512 45.8301 44.8242C45.6836 44.7656 44.5605 43.7207 43.3398 42.5L41.1133 40.2832L42.4512 38.9453C43.1934 38.2031 43.8184 37.5977 43.8477 37.5977C43.877 37.5977 44.8535 38.5547 46.0156 39.7168Z" fill="#44B64B"/>
<path d="M6.05469 13.5449C5.70312 13.6816 5.35156 14.0039 5.17578 14.3555C5 14.6973 4.98047 14.9414 4.98047 16.748C4.98047 19.0039 5.04883 19.2871 5.68359 19.7461C5.99609 19.9609 6.08398 19.9707 8.20312 20C10.3711 20.0293 10.4102 20.0293 10.7422 19.8047C10.9277 19.6777 11.1816 19.4238 11.2988 19.248C11.5137 18.9258 11.5234 18.8379 11.5234 16.748C11.5234 14.6582 11.5137 14.5703 11.3086 14.2578C10.8105 13.5352 10.7715 13.5254 8.36914 13.5059C7.17773 13.4961 6.13281 13.5156 6.05469 13.5449ZM9.96094 18.457H6.54297V15.0391H9.96094V18.457Z" fill="#44B64B"/>
<path d="M29.248 17.6465C25.1855 18.2129 21.7773 21.6016 21.1816 25.6934C20.9473 27.3047 21.2402 29.834 21.7285 30.3711C21.9727 30.6445 22.5879 30.6348 22.8613 30.3613C23.0859 30.1367 23.0859 29.9707 22.8125 28.6621C22.207 25.8496 23.3398 22.7734 25.6543 20.918C26.4844 20.2441 27.1484 19.8926 28.2227 19.5117C29.1113 19.209 29.2188 19.1992 30.6152 19.1895C32.2852 19.1895 32.8223 19.3066 34.1309 19.9316C38.7402 22.1387 40.127 28.0664 36.9824 32.0898C36.1328 33.1641 34.8926 34.1113 33.6621 34.5996C31.9824 35.2734 29.9023 35.3418 28.2227 34.7754C26.7676 34.2871 25.5664 33.4863 24.5996 32.3535C24.1016 31.7773 23.8086 31.6113 23.4277 31.6895C23.0762 31.7676 22.8516 32.0703 22.8516 32.4707C22.8516 33.1836 24.7461 34.9219 26.416 35.7422C27.959 36.5039 28.7305 36.6699 30.7129 36.6602C32.0996 36.6602 32.5 36.6211 33.1348 36.4453C36.4062 35.5371 38.8965 33.1055 39.9121 29.8145C40.1562 29.0137 40.1758 28.8379 40.1758 27.1484C40.1758 25.4492 40.1562 25.2832 39.9121 24.4727C38.8477 21.0254 36.0938 18.4668 32.6855 17.7637C31.8359 17.5879 30.0879 17.5293 29.248 17.6465Z" fill="#44B64B"/>
<path d="M33.1546 23.0371C32.598 23.1738 32.2659 23.4277 31.0648 24.6484L29.8538 25.8789L29.5023 25.5957C28.7503 25 28.1448 24.834 27.3538 25.0098C26.2894 25.2344 25.5765 26.123 25.5765 27.2266C25.5667 28.1445 25.7816 28.4961 27.2171 29.9023C28.6234 31.2891 29.0335 31.5332 29.8929 31.543C30.8206 31.543 31.1819 31.2695 33.5452 28.8281C35.8304 26.4844 36.0257 26.1914 36.0355 25.2832C36.0355 23.7793 34.6292 22.6855 33.1546 23.0371ZM34.014 24.6289C34.3265 24.7852 34.4632 25.0098 34.473 25.3223C34.473 25.5566 34.1409 25.9473 32.5003 27.6172C31.4163 28.7305 30.4398 29.7168 30.3323 29.8047C29.8831 30.1758 29.6585 30.0586 28.3597 28.7891C27.2855 27.7441 27.1487 27.5684 27.1487 27.2754C27.1487 26.7871 27.5101 26.4844 28.0179 26.5625C28.096 26.5723 28.4866 26.8652 28.8773 27.207C29.9612 28.1543 29.8929 28.1738 31.7874 26.2305C33.5257 24.4434 33.5843 24.3945 34.014 24.6289Z" fill="#44B64B"/>
<path d="M6.11328 23.8281C5.75195 23.9453 5.2832 24.375 5.11719 24.7754C4.92188 25.2246 4.92188 28.877 5.11719 29.3262C5.29297 29.7461 5.77148 30.1465 6.26953 30.2734C6.51367 30.3418 7.38281 30.3711 8.53516 30.3516C10.293 30.3223 10.4199 30.3125 10.7715 30.0879C10.9766 29.9707 11.2305 29.6875 11.3379 29.4727C11.5234 29.1211 11.5332 28.9355 11.5039 26.9238C11.4746 24.8145 11.4648 24.7461 11.2402 24.4238C10.8008 23.8184 10.4492 23.7305 8.30078 23.7402C7.25586 23.7402 6.26953 23.7891 6.11328 23.8281ZM9.94141 27.0215L9.91211 28.7598H6.5918L6.5625 27.1484C6.55273 26.2695 6.5625 25.4883 6.58203 25.4199C6.62109 25.3223 7.03125 25.293 8.30078 25.293H9.96094L9.94141 27.0215Z" fill="#44B64B"/>
<path d="M5.89844 34.4141C5.73242 34.4922 5.46875 34.7168 5.3125 34.9219L5.0293 35.2832L5 37.4414C4.98047 39.5312 4.98047 39.6094 5.20508 39.9902C5.32227 40.2051 5.5957 40.4785 5.81055 40.5957C6.19141 40.8203 6.26953 40.8203 8.36914 40.8008C10.7715 40.7715 10.8105 40.7617 11.2988 40.0391C11.5137 39.7266 11.5234 39.6387 11.5234 37.5488C11.5234 35.459 11.5137 35.3711 11.2988 35.0488C11.1816 34.873 10.9277 34.6191 10.752 34.502C10.4297 34.2871 10.3418 34.2773 8.31055 34.2773C6.75781 34.2871 6.12305 34.3164 5.89844 34.4141ZM9.96094 39.2578H6.54297V35.8398H9.96094V39.2578Z" fill="#44B64B"/>
</g>
<defs>
<clipPath id="clip0_33_6225">
<rect width="60" height="60" fill="white"/>
</clipPath>
</defs>
</svg>
