<svg width="76" height="75" viewBox="0 0 76 75" fill="none" xmlns="http://www.w3.org/2000/svg">
<path fill-rule="evenodd" clip-rule="evenodd" d="M23.274 15.337C20.7366 12.5778 21.9429 8.16854 25.5063 7.18409C27.1009 6.75426 29.0005 7.23956 30.1929 8.40426C32.1479 10.3038 32.1895 13.4097 30.2761 15.3786L29.666 16.0026V19.7324V23.4761H36.3214H42.9769V22.0757C42.9769 20.7168 42.9908 20.6752 43.379 20.2731C43.8643 19.7878 44.5714 19.7324 45.0706 20.1345C45.2508 20.2731 46.0273 21.0912 46.7899 21.937L48.1765 23.4761H59.2827C59.9587 23.4761 60.5966 23.4759 61.1986 23.4757H61.1987H61.1987H61.1988C69.8309 23.473 71.0997 23.4726 71.8847 24.0887C72.02 24.1948 72.1409 24.3193 72.2826 24.4652C72.3364 24.5206 72.3932 24.579 72.455 24.6408C72.5469 24.7337 72.6315 24.8103 72.7095 24.8809C72.7971 24.9602 72.8764 25.0319 72.948 25.1105C73.6261 25.8545 73.6256 27.2169 73.6207 41.4713C73.6202 42.795 73.6197 44.2298 73.6197 45.7857V64.8646L73.2869 65.5579C72.8848 66.4176 72.0945 67.1802 71.1932 67.5962C70.5277 67.9012 70.3474 67.9151 66.2848 67.9567C63.9693 67.9844 61.9172 67.9705 61.7369 67.9151C60.905 67.7071 60.6138 66.8197 61.1546 66.1264L61.4319 65.7659H65.5499C69.3075 65.7659 69.7235 65.7382 70.2504 65.4886C70.597 65.3361 70.9575 65.031 71.1239 64.7676C71.4012 64.31 71.4012 64.1159 71.4012 45.6748C71.4012 27.3584 71.4012 27.0395 71.1239 26.5958C71.0984 26.555 71.075 26.516 71.0527 26.4788L71.0526 26.4787L71.0525 26.4785C70.9886 26.3721 70.9332 26.2799 70.8636 26.2C70.4114 25.6813 69.3594 25.6855 61.4773 25.7169L60.1147 25.7223L50.284 25.7639L51.5458 27.1504C52.9323 28.6618 53.1403 29.1193 52.7659 29.8126C52.4332 30.4782 51.9756 30.5891 50.3395 30.4227L50.1348 30.4004C49.0023 30.2772 48.7368 30.2483 48.677 30.3457C48.6587 30.3755 48.6597 30.4172 48.661 30.4716L48.661 30.472C48.6612 30.4804 48.6614 30.4892 48.6616 30.4982C48.6617 30.5052 48.6618 30.5124 48.6618 30.5198C48.6618 30.6584 48.5786 31.0882 48.4815 31.4903L48.2874 32.2113L57.6882 32.2391L67.089 32.2807L67.505 32.6828C68.1012 33.2513 68.2121 33.792 68.2121 35.955C68.2121 38.1181 68.1012 38.6588 67.505 39.2273L67.089 39.6294L54.1664 39.7126C47.0534 39.7542 40.4811 39.8097 39.5521 39.8235L37.8466 39.8374V41.3626C37.8466 42.7075 37.8189 42.9155 37.5693 43.1651C37.1811 43.5533 36.3214 43.5395 35.9609 43.1512C35.7114 42.8739 35.6975 42.5689 35.6975 36.9256C35.6975 31.2824 35.7114 30.9773 35.9609 30.7C36.3214 30.3118 37.1811 30.2979 37.5693 30.6861C37.8189 30.9357 37.8466 31.1437 37.8466 32.5025V34.0555L38.4429 33.9584C40.0374 33.7088 41.2714 32.9601 42.0756 31.7538C42.7689 30.7139 42.9769 29.7156 42.9769 27.5387V25.6946H24.5774C6.89882 25.6946 6.15008 25.7084 5.77571 25.958L5.70484 26.0039C5.55826 26.0984 5.43884 26.1755 5.34115 26.2741C4.91175 26.7073 4.90201 27.5565 4.84947 32.1381L4.84672 32.3777L4.84624 32.4159C4.77739 37.841 4.77668 37.8969 4.47235 38.2013C4.08412 38.5895 3.30765 38.6034 2.90555 38.2429C2.62824 37.9933 2.62824 37.8546 2.62824 32.35C2.62824 27.3205 2.62824 26.1644 3.16025 25.3603C3.31904 25.1203 3.52522 24.9117 3.79294 24.6408C3.83884 24.5949 3.88236 24.5508 3.92417 24.5084L3.92423 24.5084L3.92427 24.5083L3.92434 24.5083C4.0998 24.3305 4.24512 24.1833 4.40924 24.0614C5.20028 23.4738 6.42799 23.4741 13.5718 23.4759L14.8576 23.4761H23.8425V19.7185V15.9471L23.274 15.337ZM29.2778 10.9832C29.0698 10.4564 28.4736 9.80468 27.9744 9.56896C27.4752 9.34711 26.7681 9.18073 26.5463 9.26392C26.4769 9.29165 26.2412 9.34711 26.0194 9.38871C25.4509 9.5135 24.5912 10.3732 24.3139 11.0664C23.579 13.0076 25.5618 15.1152 27.5168 14.4635C28.1269 14.2555 28.9034 13.6038 29.1946 13.0492C29.4303 12.5916 29.4719 11.5101 29.2778 10.9832ZM27.4475 23.4761V20.1483V16.8206H26.8236H26.1996V20.1483V23.4761H26.8236H27.4475ZM48.9252 27.6773C48.7311 27.4555 47.8714 26.5126 46.9979 25.5559C46.5301 25.0353 46.0911 24.5517 45.7769 24.2056L45.7768 24.2055L45.7768 24.2055C45.5135 23.9155 45.3379 23.722 45.3063 23.6841C45.2508 23.6147 45.1954 24.932 45.1954 26.6235C45.1954 30.1038 45.0983 30.7693 44.4328 32.1836C43.4345 34.2912 41.3824 35.7748 38.9836 36.1214L37.8466 36.2878V36.884V37.4802H38.5538C40.2454 37.4802 42.3391 36.5651 43.8088 35.1647C45.3479 33.7227 46.1937 32.0034 46.4571 29.7988C46.6097 28.6202 46.679 28.4122 46.984 28.1626C47.3029 27.913 47.4693 27.8992 48.3151 27.9685L49.2718 28.0656L48.9252 27.6773ZM65.855 37.4802V35.955V34.4298H56.5928H47.3168L46.9008 35.0815C46.6651 35.4559 46.0828 36.1353 45.5975 36.6067L44.7378 37.4802H55.2895H65.855ZM8.202 33.3761C8.31292 33.0433 8.5625 32.7244 8.85368 32.5303L9.3251 32.2113H19.3915C27.17 32.2113 29.541 32.2529 29.8045 32.3916C29.9847 32.4887 30.2898 32.7798 30.4561 33.0294L30.7751 33.5008V46.0353C30.7751 46.8607 30.7753 47.6351 30.7755 48.3617V48.3674V48.3675C30.7784 57.9768 30.7788 59.2221 30.2009 59.6136C30.1148 59.6718 30.016 59.7112 29.9024 59.7564L29.9023 59.7564L29.9021 59.7565L29.902 59.7565C29.8455 59.779 29.7853 59.803 29.7213 59.8315C29.1528 60.081 28.6814 60.081 19.2389 60.0533L17.9272 60.0484C10.0213 60.0196 9.03616 60.016 8.60723 59.5257C8.54618 59.4559 8.49639 59.3763 8.43952 59.2853L8.43951 59.2853C8.41328 59.2433 8.38555 59.199 8.35452 59.1521C8.1188 58.8054 8.10494 57.9458 8.06334 46.3403C8.03561 36.579 8.06334 33.8059 8.202 33.3761ZM28.5566 57.8626V46.1462V34.4298H19.4747H10.3927V46.1462V57.8626H11.0167H11.6406V54.5626C11.6406 52.7462 11.71 50.8882 11.7932 50.4306C11.9734 49.4185 12.7083 47.8655 13.36 47.1029L13.8453 46.5344L13.4848 45.647C12.9717 44.4269 12.9579 42.5412 13.4432 41.2933C14.7881 37.813 18.6289 36.2601 21.9705 37.8546C24.7713 39.1718 26.1856 42.666 25.0902 45.55L24.8406 46.2294L25.5339 47.1584C27.0036 49.0996 27.17 49.7928 27.17 54.2853V57.8626H27.8633H28.5566ZM22.8994 41.8895C22.5528 41.0991 21.6377 40.1702 20.8751 39.8374C18.5734 38.8113 15.8974 40.1979 15.3843 42.666C14.7465 45.7164 18.0326 48.3092 20.8612 46.992C22.7885 46.1046 23.7314 43.7475 22.8994 41.8895ZM24.8822 50.5693L24.4385 49.668C24.1889 49.1827 23.8562 48.642 23.6759 48.4756L23.357 48.1706L22.5944 48.6559C21.5822 49.2937 20.5284 49.5848 19.2667 49.5848C18.0188 49.5848 16.9511 49.2937 16.0083 48.6975L15.3289 48.2676L15.0654 48.5865C14.9129 48.7668 14.594 49.3214 14.3583 49.8206L13.9285 50.7218L13.8869 54.2853L13.8453 57.8626H19.4053H24.9654L24.9238 54.2159L24.8822 50.5693ZM2.90555 41.5012C2.62823 41.7785 2.62823 41.9588 2.62823 53.3147V64.8646L2.96101 65.5579C3.36311 66.4176 4.15344 67.1802 5.0547 67.5961L5.74798 67.9151L31.4685 67.9566C49.6878 67.9844 57.3 67.9428 57.5495 67.8319C58.229 67.5545 58.4092 66.7365 57.9378 66.1264L57.6605 65.7659H32.1202C7.35638 65.7659 6.56604 65.752 5.99756 65.5025C5.92162 65.4681 5.85105 65.4399 5.78544 65.4138C5.66101 65.3641 5.55443 65.3216 5.46298 65.2575C4.91711 64.8748 4.91027 63.7232 4.86263 55.6976C4.85791 54.9033 4.85279 54.0416 4.84672 53.1067L4.77739 41.7508L4.44462 41.4874C4.01479 41.1407 3.26605 41.1407 2.90555 41.5012ZM35.6837 47.0059C35.7253 46.7563 35.9055 46.4512 36.058 46.3126C36.3354 46.0907 37.2921 46.0769 51.9202 46.0769C66.9227 46.0769 67.505 46.0907 67.8101 46.3403C68.2815 46.7147 68.2538 47.5327 67.7407 47.9626L67.3664 48.2953H51.9063H36.4324L36.0164 47.8794C35.6698 47.5189 35.6143 47.3802 35.6837 47.0059ZM36.1689 50.9714C35.7945 51.2487 35.6004 51.7479 35.6974 52.1916C35.7084 52.2408 35.7155 52.2872 35.7221 52.3307C35.7335 52.4056 35.7437 52.4724 35.7703 52.5317C35.9855 53.0128 37.2763 53.0125 49.0222 53.01C49.9169 53.0099 50.8722 53.0097 51.8924 53.0097C61.7369 53.0097 67.4911 52.9542 67.6575 52.871C68.3091 52.5244 68.2537 51.2626 67.5743 50.9437C67.0612 50.708 36.4739 50.7357 36.1689 50.9714ZM35.6837 55.8105C35.6143 55.45 35.6698 55.3113 36.0164 54.9508L36.4324 54.5348H51.9063H67.3664L67.7407 54.8676C68.2122 55.2558 68.2676 56.0323 67.8655 56.476C67.616 56.7533 67.5605 56.7533 51.9202 56.7533C36.9316 56.7533 36.2106 56.7395 36.0026 56.5037C35.8778 56.3651 35.7253 56.06 35.6837 55.8105Z" fill="#44B64B"/>
</svg>
