<svg width="60" height="60" viewBox="0 0 60 60" fill="none" xmlns="http://www.w3.org/2000/svg">
<path d="M60 12.9031C55.7432 10.0888 48.4735 8.22363 39.9988 8.22363C31.5241 8.22363 24.2568 10.0888 20 12.9031V38.3327C20 39.892 20.5384 41.3478 21.1226 42.7809C24.7096 50.4427 33.1111 54.1537 40.0012 58.2236C46.8913 54.1537 55.2904 50.4427 58.8774 42.7809C59.4616 41.3478 60 39.892 60 38.3327V12.9031Z" fill="#F8F8FF"/>
<path d="M16.1133 1.88527C13.6035 2.57863 12.7539 5.68409 14.541 7.62745L14.9414 8.05714V13.3599H8.61328C1.35742 13.3599 1.67969 13.3208 0.820312 14.1802C0 15.0103 0 15.0103 0 19.6099C0 23.4868 0 23.5845 0.195312 23.7603C0.478516 24.0142 1.02539 24.0044 1.29883 23.731C1.51367 23.5161 1.51367 23.4771 1.5625 19.6294C1.61133 15.3814 1.60156 15.5083 2.2168 15.1079C2.48047 14.9321 3.00781 14.9224 15.459 14.9224H28.418V16.2212C28.418 17.7544 28.2715 18.4575 27.7832 19.19C27.2168 20.0396 26.3477 20.5669 25.2246 20.7427L24.8047 20.811V19.7173C24.8047 18.7603 24.7852 18.6138 24.6094 18.438C24.3359 18.1646 23.7305 18.1743 23.4766 18.4478C23.3008 18.6431 23.291 18.8579 23.291 22.8325C23.291 26.8071 23.3008 27.022 23.4766 27.2173C23.7305 27.4907 24.3359 27.5005 24.6094 27.2271C24.7852 27.0513 24.8047 26.9048 24.8047 25.9575V24.8833L26.0059 24.8735C26.6602 24.8638 31.2891 24.8247 36.2988 24.7954L45.4004 24.7368L45.6934 24.4536C46.1133 24.0532 46.1914 23.6724 46.1914 22.1489C46.1914 20.6255 46.1133 20.2446 45.6934 19.8443L45.4004 19.561L38.7793 19.5318L32.1582 19.5122L32.2949 19.0044C32.3633 18.7212 32.4219 18.4185 32.4219 18.3208C32.4219 18.1157 32.3437 18.1157 33.6035 18.2525C34.7559 18.3696 35.0781 18.2915 35.3125 17.8228C35.5762 17.3345 35.4297 17.0122 34.4531 15.9478L33.5644 14.9712L40.4883 14.9419C48.1836 14.9126 47.8223 14.8833 48.2422 15.5571C48.4375 15.8696 48.4375 16.0943 48.4375 28.9946C48.4375 41.9829 48.4375 42.1196 48.2422 42.4419C48.125 42.6275 47.8711 42.8423 47.6269 42.9497C47.2559 43.1255 46.9629 43.145 44.3164 43.145H41.416L41.2207 43.3989C40.8398 43.8872 41.0449 44.5122 41.6309 44.6587C41.7578 44.6978 43.2031 44.7075 44.834 44.688C47.6953 44.6587 47.8223 44.6489 48.291 44.4341C48.9258 44.1411 49.4824 43.604 49.7656 42.9985L50 42.5103V29.0728C50 13.8189 50.0684 15.0786 49.1797 14.1802C48.3105 13.311 48.8281 13.3599 39.9023 13.3599H32.0801L31.1035 12.2759C30.5664 11.6802 30.0195 11.104 29.8926 11.0064C29.541 10.7232 29.043 10.7622 28.7012 11.104C28.4277 11.3872 28.418 11.4165 28.418 12.3735V13.3599H19.043V8.0962L19.4727 7.65675C20.8203 6.27003 20.791 4.08253 19.4141 2.74464C18.5742 1.92433 17.2363 1.58253 16.1133 1.88527ZM17.8516 3.56495C18.2031 3.73097 18.623 4.18995 18.7695 4.56105C18.9062 4.93214 18.877 5.69386 18.7109 6.01613C18.5059 6.40675 17.959 6.86574 17.5293 7.01222C16.1523 7.4712 14.7559 5.98683 15.2734 4.61964C15.4687 4.13136 16.0742 3.52589 16.4746 3.438C16.6309 3.4087 16.7969 3.36964 16.8457 3.35011C17.002 3.29152 17.5 3.4087 17.8516 3.56495ZM17.4805 13.3599H16.6016V8.67238H17.4805V13.3599ZM31.25 14.8247C31.8652 15.4985 32.4707 16.1626 32.6074 16.3189L32.8516 16.5923L32.1777 16.5239C31.582 16.4751 31.4648 16.4849 31.2402 16.6607C31.0254 16.8364 30.9766 16.9829 30.8691 17.813C30.6836 19.3657 30.0879 20.5767 29.0039 21.5923C27.9687 22.5786 26.4941 23.2232 25.3027 23.2232H24.8047V22.3833L25.6055 22.2661C27.2949 22.022 28.7402 20.9771 29.4434 19.4927C29.9121 18.4966 29.9805 18.0278 29.9805 15.5767C29.9805 14.3853 30.0195 13.4575 30.0586 13.5064C30.1074 13.565 30.6445 14.1509 31.25 14.8247ZM44.5312 23.2232H29.6582L30.2637 22.6079C30.6055 22.2759 31.0156 21.7974 31.1816 21.5337L31.4746 21.0747H44.5312V23.2232Z" fill="#44B64B"/>
<path d="M4.38465 19.7368C4.17958 19.8735 4.0038 20.0982 3.92567 20.3325C3.82801 20.6353 3.80848 22.5884 3.82801 29.4634C3.85731 37.6372 3.86708 38.2427 4.03309 38.4868C4.45301 39.1216 4.01356 39.0923 11.6991 39.1216C18.3495 39.1411 18.6815 39.1411 19.0819 38.9653C19.8729 38.6138 19.8241 39.2388 19.8241 29.2485V20.4204L19.5995 20.0884C19.4823 19.9126 19.2675 19.7075 19.1405 19.6392C18.955 19.5415 17.285 19.5122 11.8065 19.5122H4.71669L4.38465 19.7368ZM18.2616 37.5786H17.285V35.0591C17.285 31.895 17.1679 31.4068 16.1327 30.0396L15.6444 29.3853L15.8202 28.9068C16.5917 26.8755 15.5956 24.4146 13.6229 23.4868C11.2694 22.3638 8.56434 23.4575 7.61708 25.9087C7.27528 26.7876 7.28505 28.1157 7.64637 28.9751L7.90028 29.6001L7.55848 30.0005C7.0995 30.5376 6.58192 31.6314 6.45497 32.3443C6.39637 32.6665 6.34755 33.9751 6.34755 35.2544V37.5786H5.46864V21.0747H18.2616V37.5786ZM12.8515 24.8833C13.3886 25.1177 14.0331 25.772 14.2772 26.3286C14.8632 27.6372 14.1991 29.2974 12.8417 29.9224C10.8495 30.8501 8.53505 29.0239 8.98426 26.8755C9.34559 25.1372 11.2304 24.1607 12.8515 24.8833ZM15.3612 31.8071L15.6737 32.4419L15.7323 37.5786H7.90028L7.95887 32.5493L8.26161 31.9146C8.42762 31.563 8.65223 31.1724 8.75965 31.0454L8.9452 30.8208L9.42372 31.1235C10.0878 31.5435 10.8397 31.7485 11.7186 31.7485C12.6073 31.7485 13.3495 31.5435 14.0624 31.0943L14.5995 30.7525L14.8241 30.9673C14.9511 31.0845 15.1854 31.4653 15.3612 31.8071Z" fill="#44B64B"/>
<path d="M0.195312 26.0552C0 26.2505 0 26.3775 0 34.3755V42.5103L0.234375 42.9985C0.517578 43.604 1.07422 44.1411 1.70898 44.4341L2.19727 44.6587L20.3125 44.688C33.1445 44.7075 38.5059 44.6782 38.6816 44.6001C39.1602 44.4048 39.2871 43.8286 38.9551 43.3989L38.7598 43.145H20.7715C3.33008 43.145 2.77344 43.1353 2.37305 42.9595C1.55273 42.5884 1.62109 43.2427 1.5625 34.229L1.51367 26.231L1.2793 26.0454C0.976562 25.8013 0.449219 25.8013 0.195312 26.0552Z" fill="#44B64B"/>
<path d="M23.5449 29.4439C23.4375 29.5415 23.3105 29.7564 23.2812 29.9321C23.2324 30.1958 23.2715 30.2935 23.5156 30.5474L23.8086 30.8403H45.5957L45.8594 30.606C46.2207 30.3032 46.2402 29.7271 45.9082 29.4634C45.6934 29.2876 45.2832 29.2778 34.7168 29.2778C24.4141 29.2778 23.7402 29.2876 23.5449 29.4439Z" fill="#44B64B"/>
<path d="M23.3495 32.3579C23.0858 32.5532 22.9491 32.9047 23.0175 33.2172C23.1542 33.8325 22.4315 33.7934 34.4237 33.7934C41.3573 33.7934 45.41 33.7543 45.5272 33.6958C45.9862 33.4516 45.9472 32.5629 45.4686 32.3383C45.1073 32.1723 23.5643 32.1918 23.3495 32.3579Z" fill="#44B64B"/>
<path d="M23.5156 35.5278C23.2715 35.7817 23.2324 35.8794 23.2812 36.1333C23.3105 36.3091 23.418 36.5239 23.5059 36.6216C23.6523 36.7876 24.1602 36.7974 34.7168 36.7974C45.7324 36.7974 45.7715 36.7974 45.9473 36.6021C46.2305 36.2896 46.1914 35.7427 45.8594 35.4692L45.5957 35.2349H23.8086L23.5156 35.5278Z" fill="#44B64B"/>
</svg>
