<svg width="60" height="60" viewBox="0 0 60 60" fill="none" xmlns="http://www.w3.org/2000/svg">
<path d="M37.9988 9.93933C46.0616 9.93933 52.9041 11.6552 57 14.1674V39.0484C57 40.3838 56.5417 41.6693 55.9611 43.0953C54.2697 46.694 51.433 49.4083 48.1032 51.7466C45.7829 53.376 43.2956 54.7779 40.8214 56.1725C39.876 56.7053 38.9326 57.237 38.0012 57.7799C37.0689 57.2365 36.1245 56.7043 35.1783 56.171C32.7047 54.777 30.2179 53.3755 27.8979 51.7465C24.5675 49.4082 21.7303 46.6939 20.0389 43.0953C19.4583 41.6693 19 40.3839 19 39.0484V14.1674C23.0958 11.6552 29.9361 9.93933 37.9988 9.93933Z" stroke="#F0F1FE" stroke-width="2"/>
<path d="M28.8066 1.1034C28.084 1.24989 27.3809 1.82606 27.1074 2.49989C26.8926 2.99793 26.9121 3.99403 27.1367 4.48231C27.3125 4.8827 27.8691 5.43934 28.2695 5.62489C28.4844 5.72254 28.4941 5.7909 28.5332 6.96278C28.5625 8.08582 28.5918 8.24207 28.8457 8.73036C29.4414 9.87293 30.0566 10.3807 31.5312 10.9276C33.7871 11.7675 35.4668 13.5839 36.0332 15.8202C36.2773 16.7675 36.2871 18.2714 36.0527 19.1796L35.8867 19.8143L30.7793 19.8632C25.8574 19.912 25.6621 19.9218 25.5254 20.0975C25.3496 20.3417 25.3496 20.9472 25.5254 21.1913C25.6621 21.3671 25.8867 21.3768 33.1719 21.4257C40.5254 21.4745 40.6816 21.4745 41.1113 21.6796C41.6387 21.9237 42.2148 22.5292 42.3906 23.0468C42.5957 23.6132 42.5957 44.2382 42.3906 44.8046C42.2051 45.3514 41.5703 45.996 41.0332 46.2011C40.5938 46.3671 39.7051 46.3768 23.0449 46.3768C6.38477 46.3768 5.49609 46.3671 5.05664 46.2011C4.51953 45.996 3.88477 45.3514 3.69922 44.8046C3.49414 44.2382 3.49414 23.6132 3.69922 23.0468C3.875 22.5292 4.45117 21.9237 4.97852 21.6796C5.4082 21.4843 5.58398 21.4745 12.1367 21.4257C18.6504 21.3768 18.8652 21.3671 19.002 21.1913C19.207 20.8983 19.1777 20.2929 18.9434 20.0585C18.748 19.8632 18.6602 19.8632 11.7363 19.8827L4.73438 19.912L4.14844 20.1952C3.39648 20.5663 2.6543 21.3085 2.2832 22.0604L2 22.6464V45.205L2.2832 45.7909C2.6543 46.5429 3.39648 47.285 4.14844 47.6561L4.73438 47.9393H41.3555L41.9414 47.6561C42.6934 47.285 43.4355 46.5429 43.8066 45.7909L44.0898 45.205V22.6464L43.8066 22.0604C43.4355 21.3085 42.6934 20.5663 41.9414 20.1952C41.3652 19.912 41.3262 19.912 39.4902 19.8827L37.6348 19.8534L37.7617 19.2479C37.9277 18.4276 37.918 16.6112 37.7422 15.7616C37.2051 13.1932 35.4766 10.9374 33.1523 9.78504C32.8887 9.64832 32.3418 9.41395 31.9414 9.26746C30.623 8.76942 30.1934 8.16395 30.1055 6.65028C30.0469 5.75184 30.0566 5.74207 30.291 5.63465C30.7109 5.43934 31.2676 4.89247 31.4531 4.48231C31.6777 3.99403 31.6973 2.99793 31.4824 2.49989C31.0723 1.50379 29.8809 0.888559 28.8066 1.1034ZM29.7832 2.96864C29.8906 3.07606 29.9785 3.2909 29.9785 3.45692C29.9785 3.62293 29.8906 3.83778 29.7832 3.9452C29.6758 4.05262 29.4609 4.14051 29.2949 4.14051C29.1289 4.14051 28.9141 4.05262 28.8066 3.9452C28.6992 3.83778 28.6113 3.62293 28.6113 3.45692C28.6113 3.2909 28.6992 3.07606 28.8066 2.96864C28.9141 2.86121 29.1289 2.77332 29.2949 2.77332C29.4609 2.77332 29.6758 2.86121 29.7832 2.96864Z" fill="#44B64B"/>
<path d="M20.8965 14.5897C20.7109 14.7753 20.7012 14.912 20.7012 16.7577C20.7012 19.1503 20.8477 19.8925 21.5801 21.3768C22.4395 23.1151 23.7578 24.4237 25.5352 25.2831C26.6777 25.8397 27.3516 26.0155 28.6211 26.0839C29.5879 26.1327 29.6758 26.1229 29.8711 25.9276C30.1445 25.6542 30.1543 25.0194 29.8809 24.746C29.7734 24.6386 29.6562 24.5507 29.6172 24.5507C29.5684 24.5507 29.1582 24.5116 28.6992 24.4628C25.2129 24.0917 22.5762 21.3671 22.332 17.871L22.2832 17.2069L22.791 17.6952C23.0645 17.9686 23.4062 18.2323 23.5527 18.2909C24.2266 18.5448 24.8613 17.8612 24.5684 17.1972C24.5 17.0311 23.8652 16.328 23.1719 15.6347C21.9609 14.4432 21.8926 14.3944 21.502 14.3944C21.2188 14.3944 21.0332 14.453 20.8965 14.5897Z" fill="#44B64B"/>
<path d="M6.83398 24.746C6.63867 24.9413 6.63867 25.0682 6.63867 31.5819C6.63867 38.0956 6.63867 38.2225 6.83398 38.4179C7.0293 38.6132 7.15625 38.6132 13.6699 38.6132C20.1836 38.6132 20.3105 38.6132 20.5059 38.4179C20.7012 38.2225 20.7012 38.0956 20.7012 31.5819C20.7012 25.0682 20.7012 24.9413 20.5059 24.746C20.3105 24.5507 20.1836 24.5507 13.6699 24.5507C7.15625 24.5507 7.0293 24.5507 6.83398 24.746ZM19.1387 37.0507H18.377L18.3379 36.0936C18.3086 35.3222 18.25 35.0487 18.0352 34.6093C17.7129 33.9257 17.2051 33.3397 16.6582 32.9882L16.2383 32.7245L16.4922 32.2264C16.8535 31.5331 16.9023 30.4003 16.5996 29.5995C15.8379 27.5585 12.9961 26.9921 11.4238 28.5546C10.7695 29.2186 10.5156 29.9022 10.5645 30.9472C10.584 31.5624 10.6523 31.8456 10.8477 32.2264L11.1016 32.7245L10.6816 32.9882C10.1348 33.3397 9.62695 33.9257 9.30469 34.6093C9.08984 35.0487 9.03125 35.3222 9.00195 36.0936L8.96289 37.0507H8.20117V26.1132H19.1387V37.0507ZM14.4316 29.5311C15.7012 30.3026 15.1543 32.2655 13.6699 32.2655C12.8398 32.2655 12.2051 31.6307 12.2051 30.8007C12.2051 29.6679 13.4648 28.9452 14.4316 29.5311ZM15.2812 34.16C16.1504 34.5214 16.6387 35.2733 16.7559 36.3964L16.8242 37.0507H10.5156L10.584 36.4061C10.6621 35.6054 10.8477 35.1464 11.2578 34.7264C11.873 34.0819 12.459 33.9159 13.9141 33.9647C14.5391 33.9843 15.0273 34.0624 15.2812 34.16Z" fill="#44B64B"/>
<path d="M24.0215 27.871C23.8945 27.9979 23.8262 28.1932 23.8262 28.4569C23.8262 28.7206 23.8945 28.9159 24.0215 29.0429C24.2168 29.2382 24.3438 29.2382 31.6387 29.2382C38.9336 29.2382 39.0605 29.2382 39.2559 29.0429C39.3828 28.9159 39.4512 28.7206 39.4512 28.4569C39.4512 28.1932 39.3828 27.9979 39.2559 27.871C39.0605 27.6757 38.9336 27.6757 31.6387 27.6757C24.3438 27.6757 24.2168 27.6757 24.0215 27.871Z" fill="#44B64B"/>
<path d="M24.0215 32.5585C23.8945 32.6854 23.8262 32.8807 23.8262 33.1444C23.8262 33.4081 23.8945 33.6034 24.0215 33.7304C24.207 33.9159 24.3438 33.9257 26.9512 33.9257C29.5586 33.9257 29.6953 33.9159 29.8809 33.7304C30.0078 33.6034 30.0762 33.4081 30.0762 33.1444C30.0762 32.8807 30.0078 32.6854 29.8809 32.5585C29.6953 32.3729 29.5586 32.3632 26.9512 32.3632C24.3438 32.3632 24.207 32.3729 24.0215 32.5585Z" fill="#44B64B"/>
<path d="M31.834 32.5585C31.707 32.6854 31.6387 32.8807 31.6387 33.1444C31.6387 33.4081 31.707 33.6034 31.834 33.7304C32.0195 33.9159 32.1562 33.9257 35.5449 33.9257C38.9336 33.9257 39.0703 33.9159 39.2559 33.7304C39.3828 33.6034 39.4512 33.4081 39.4512 33.1444C39.4512 32.8807 39.3828 32.6854 39.2559 32.5585C39.0703 32.3729 38.9336 32.3632 35.5449 32.3632C32.1562 32.3632 32.0195 32.3729 31.834 32.5585Z" fill="#44B64B"/>
<path d="M24.0215 37.246C23.8945 37.3729 23.8262 37.5682 23.8262 37.8319C23.8262 38.0956 23.8945 38.2909 24.0215 38.4179C24.2168 38.6132 24.3438 38.6132 31.6387 38.6132C38.9336 38.6132 39.0605 38.6132 39.2559 38.4179C39.3828 38.2909 39.4512 38.0956 39.4512 37.8319C39.4512 37.5682 39.3828 37.3729 39.2559 37.246C39.0605 37.0507 38.9336 37.0507 31.6387 37.0507C24.3438 37.0507 24.2168 37.0507 24.0215 37.246Z" fill="#44B64B"/>
<path d="M6.83398 41.9335C6.70703 42.0604 6.63867 42.2557 6.63867 42.5194C6.63867 42.7831 6.70703 42.9784 6.83398 43.1054C7.0293 43.3007 7.15625 43.3007 19.1387 43.3007C31.1211 43.3007 31.248 43.3007 31.4434 43.1054C31.707 42.8417 31.707 42.1972 31.4434 41.9335C31.248 41.7382 31.1211 41.7382 19.1387 41.7382C7.15625 41.7382 7.0293 41.7382 6.83398 41.9335Z" fill="#44B64B"/>
<path d="M33.3965 41.9335C33.2695 42.0604 33.2012 42.2557 33.2012 42.5194C33.2012 42.7831 33.2695 42.9784 33.3965 43.1054C33.582 43.2909 33.7188 43.3007 36.3262 43.3007C38.9336 43.3007 39.0703 43.2909 39.2559 43.1054C39.3828 42.9784 39.4512 42.7831 39.4512 42.5194C39.4512 42.2557 39.3828 42.0604 39.2559 41.9335C39.0703 41.7479 38.9336 41.7382 36.3262 41.7382C33.7188 41.7382 33.582 41.7479 33.3965 41.9335Z" fill="#44B64B"/>
</svg>
