<svg width="60" height="60" viewBox="0 0 60 60" fill="none" xmlns="http://www.w3.org/2000/svg">
<path d="M59.9873 11.2019C55.7306 8.38758 48.4608 6.52246 39.9861 6.52246C31.5114 6.52246 24.2441 8.38758 19.9873 11.2019V36.6315C19.9873 38.1908 20.5257 39.6467 21.1099 41.0797C24.6969 48.7416 33.0984 52.4525 39.9885 56.5225C46.8786 52.4525 55.2777 48.7416 58.8647 41.0797C59.4489 39.6467 59.9873 38.1908 59.9873 36.6315V11.2019Z" fill="#F8F8FF"/>
<path d="M10.3818 3.768C10.2158 3.95472 10.1536 4.88833 10.1951 6.50658L10.2573 8.97546H11.5021L11.7096 5.57297L17.2075 8.83024L22.7054 12.1082L22.7677 24.4111L22.8092 36.7141L22.3527 36.4236C22.083 36.2576 20.6515 35.3863 19.1577 34.5149C16.3154 32.8344 15.6722 32.6892 15.7967 33.7265C15.859 34.1829 16.4399 34.6186 19.5934 36.5066C21.6473 37.7307 23.4938 38.7472 23.7013 38.7472C23.888 38.7472 26.7511 37.1497 30.0291 35.1788C33.3071 33.2286 36.1287 31.5896 36.3154 31.5481C36.5229 31.4858 39.3652 33.0626 42.7884 35.0958C46.1494 37.1082 49.054 38.7472 49.2407 38.7472C49.4067 38.7472 49.6556 38.5605 49.7801 38.3531C50.0291 37.8759 50.0706 11.8178 49.8216 11.4443C49.6349 11.1539 36.7511 3.47754 36.4814 3.47754C36.3569 3.47754 33.4523 5.15804 29.9876 7.21198L23.7013 10.9672L17.415 7.21198C13.9503 5.15804 11.0042 3.47754 10.859 3.47754C10.7345 3.47754 10.5063 3.60202 10.3818 3.768ZM35.6722 17.8344L35.6515 30.1373L30.2366 33.3531C27.249 35.1165 24.6764 36.5896 24.5312 36.6311C24.3029 36.6933 24.2615 34.4734 24.3029 24.4941L24.3652 12.295L29.9669 8.95472C33.0581 7.10824 35.5893 5.57297 35.6307 5.57297C35.6515 5.55223 35.6722 11.0916 35.6722 17.8344ZM42.9337 8.93397L48.2241 12.1082L48.2864 24.3904L48.3278 36.6726L46.8341 35.7804C46.0042 35.2825 43.4731 33.7887 41.2324 32.4402L37.1245 29.9921V17.8759C37.1245 8.31156 37.1868 5.7597 37.3942 5.7597C37.5187 5.7597 40.0291 7.19123 42.9337 8.93397Z" fill="#44B64B"/>
<path d="M7.0407 11.6311C3.7212 12.5854 0.941118 15.4278 0.214977 18.6435C-0.0547321 19.8261 -0.0547321 22.0045 0.214977 23.1871C0.505434 24.4942 1.19008 25.7597 2.64236 27.7307C4.84153 30.6767 6.77099 35.0751 7.14444 37.9589C7.28967 39.1415 7.82908 39.5771 8.38925 39.017C9.46809 37.9589 6.83323 30.8427 3.90792 26.9215C1.91622 24.2245 1.54278 23.2701 1.54278 20.9049C1.54278 19.1207 1.60502 18.8095 2.20668 17.544C3.03655 15.7805 4.40585 14.4112 6.16933 13.5813C7.43489 12.9796 7.7461 12.9174 9.53033 12.9174C11.3146 12.9174 11.6258 12.9796 12.8913 13.5813C14.6548 14.4112 16.0241 15.7805 16.854 17.544C17.4556 18.8095 17.5179 19.1207 17.5179 20.9049C17.5179 22.6269 17.4349 23.0419 16.937 24.1C16.6258 24.7846 16.0449 25.7182 15.6714 26.1747C13.0158 29.4112 10.8166 34.183 10.4432 37.5025C10.3187 38.6228 10.3602 38.851 10.6714 39.0792C11.3353 39.5564 11.7502 39.1 11.8955 37.7099C12.2274 34.8676 13.9079 31.1124 16.3353 27.8344C18.2648 25.2203 18.8872 23.7888 19.0117 21.6518C19.2814 17.5025 17.2482 14.017 13.5552 12.2535C12.1444 11.5896 11.771 11.5066 9.98676 11.4236C8.74195 11.3821 7.62162 11.4651 7.0407 11.6311Z" fill="#44B64B"/>
<path d="M8.09922 18.0419C6.8959 18.851 6.52246 19.5357 6.52246 20.905C6.52246 22.2743 6.89591 22.9589 8.07848 23.7473C8.90835 24.3282 10.2776 24.3697 11.315 23.8925C13.4104 22.8967 13.6594 19.5357 11.7507 18.1664C10.7756 17.461 9.01209 17.3987 8.09922 18.0419ZM10.9623 19.5772C11.481 19.9921 11.6054 20.2826 11.6054 20.905C11.6054 21.5274 11.481 21.8178 10.9623 22.2328C10.1117 22.9589 9.2403 22.9382 8.47267 22.1705C8.05773 21.7556 7.87101 21.3614 7.87101 20.905C7.87101 20.4485 8.05773 20.0543 8.47267 19.6394C9.2403 18.8718 10.1117 18.851 10.9623 19.5772Z" fill="#44B64B"/>
</svg>
