<svg width="60" height="60" viewBox="0 0 60 60" fill="none" xmlns="http://www.w3.org/2000/svg">
<path d="M37.6522 10.2188C45.7149 10.2188 52.5574 11.9346 56.6533 14.4468V39.3278C56.6533 40.6633 56.195 41.9487 55.6144 43.3747C53.923 46.9734 51.0863 49.6877 47.7566 52.026C45.4362 53.6554 42.9489 55.0573 40.4747 56.4519C39.5294 56.9847 38.586 57.5164 37.6545 58.0594C36.7222 57.5159 35.7779 56.9837 34.8316 56.4505C32.358 55.0564 29.8712 53.6549 27.5512 52.0259C24.2209 49.6877 21.3836 46.9734 19.6922 43.3747C19.1116 41.9487 18.6533 40.6633 18.6533 39.3278V14.4468C22.7491 11.9346 29.5895 10.2188 37.6522 10.2188Z" stroke="#F0F1FE" stroke-width="2"/>
<path d="M5.00684 0.917968C4.03027 1.23047 3.15137 2.02148 2.65332 3.02734L2.38965 3.56445V33.9355L2.67285 34.5215C3.04395 35.2734 3.78613 36.0156 4.53809 36.3867L5.12402 36.6699L9.3916 36.6992C13.5811 36.7285 13.6689 36.7188 13.8643 36.5234C14.0986 36.2891 14.1279 35.6836 13.9229 35.3906C13.7861 35.2148 13.6006 35.2051 9.79199 35.1562C6.0127 35.1074 5.78809 35.0977 5.36816 34.9023C4.84082 34.6582 4.26465 34.0527 4.08887 33.5352C3.88379 32.9688 3.88379 4.53125 4.08887 3.96484C4.26465 3.44726 4.84082 2.8418 5.36816 2.59766C5.79785 2.39258 5.93457 2.39258 13.7178 2.36328C18.0732 2.34375 21.8623 2.36328 22.1455 2.39258L22.6533 2.45117V4.64844C22.6533 7.07031 22.6924 7.29492 23.2686 7.90039C23.8838 8.54492 24.0986 8.59375 26.5889 8.59375H28.8057V8.83789C28.8057 9.55078 29.3037 10.0391 29.8994 9.91211C30.3584 9.80469 30.4951 9.48242 30.4463 8.66211C30.3584 7.35351 30.2021 7.13867 27.1553 4.0918C24.8994 1.83594 24.3623 1.34766 23.874 1.11328L23.2881 0.830077L14.3525 0.810546C7.12598 0.791014 5.33887 0.820311 5.00684 0.917968ZM26.4424 7.01172C24.3232 7.06055 24.2158 6.96289 24.2158 4.86328V3.56445L27.6338 6.98242L26.4424 7.01172Z" fill="#44B64B"/>
<path d="M35.7197 2.12891C34.4014 3.44727 34.3721 3.48633 34.3721 3.90625C34.3721 4.31641 34.4014 4.35547 35.6611 5.63477C36.501 6.48438 37.0576 6.96289 37.2529 7.02148C37.6924 7.13867 38.083 6.96289 38.2393 6.58203C38.4248 6.14258 38.2979 5.84961 37.6631 5.19531L37.1553 4.66797L38.7178 4.70703C40.4756 4.75586 40.8955 4.87305 41.4717 5.47852C42.0771 6.12305 42.1162 6.34766 42.1846 9.01367C42.2334 11.2695 42.2432 11.4551 42.4189 11.582C42.7119 11.7871 43.3174 11.7578 43.5615 11.5137C43.7568 11.3184 43.7568 11.2305 43.7275 8.61328L43.6982 5.9082L43.415 5.32227C43.0439 4.57031 42.3018 3.82812 41.5498 3.45703C40.9736 3.17383 40.9346 3.17383 39.0791 3.14453L37.1846 3.10547L37.7314 2.53906C38.21 2.04102 38.2783 1.92383 38.2783 1.57227C38.2783 1.03516 38.0244 0.78125 37.4775 0.78125C37.0771 0.78125 37.0186 0.820312 35.7197 2.12891Z" fill="#44B64B"/>
<path d="M7.22363 6.44532C7.09668 6.57227 7.02832 6.76758 7.02832 7.03125C7.02832 7.29493 7.09668 7.49024 7.22363 7.61719C7.41895 7.8125 7.5459 7.8125 13.6689 7.8125C19.792 7.8125 19.9189 7.8125 20.1143 7.61719C20.2412 7.49024 20.3096 7.29493 20.3096 7.03125C20.3096 6.76758 20.2412 6.57227 20.1143 6.44532C19.9189 6.25 19.792 6.25 13.6689 6.25C7.5459 6.25 7.41895 6.25 7.22363 6.44532Z" fill="#44B64B"/>
<path d="M7.22363 11.1328C7.09668 11.2598 7.02832 11.4551 7.02832 11.7188C7.02832 11.9824 7.09668 12.1777 7.22363 12.3047C7.40918 12.4902 7.5459 12.5 10.9346 12.5C14.3232 12.5 14.46 12.4902 14.6455 12.3047C14.7725 12.1777 14.8408 11.9824 14.8408 11.7188C14.8408 11.4551 14.7725 11.2598 14.6455 11.1328C14.46 10.9473 14.3232 10.9375 10.9346 10.9375C7.5459 10.9375 7.40918 10.9473 7.22363 11.1328Z" fill="#44B64B"/>
<path d="M18.1904 11.9043C17.1748 12.2754 16.4326 12.9492 15.9346 13.9648L15.6709 14.502V44.8731L15.9541 45.459C16.3252 46.2109 17.0674 46.9531 17.8193 47.3242L18.4053 47.6074H40.9639L41.5498 47.3242C42.3018 46.9531 43.0439 46.2109 43.415 45.459L43.6982 44.8731V18.8965L43.415 18.3106C43.1807 17.8223 42.6924 17.2852 40.4365 15.0293C38.1807 12.7734 37.6436 12.2852 37.1553 12.0508L36.5693 11.7676L27.6338 11.7481C19.1182 11.7285 18.6787 11.7285 18.1904 11.9043ZM35.5732 13.3398L35.9346 13.4082V15.5957C35.9346 18.0078 35.9736 18.2324 36.5498 18.8379C37.165 19.4824 37.3896 19.5313 39.8604 19.5313H42.0674L42.1357 20.1367C42.165 20.4785 42.1846 26.0254 42.165 32.4707C42.1357 44.1211 42.1357 44.1895 41.9307 44.6289C41.6865 45.1563 41.0811 45.7324 40.5635 45.9082C40.251 46.0254 38.3271 46.0449 29.6846 46.0449C19.8018 46.0449 19.1572 46.0352 18.7275 45.8691C18.1904 45.6641 17.5557 45.0195 17.3701 44.4727C17.2529 44.1602 17.2334 41.6992 17.2334 29.6875C17.2334 13.8379 17.1943 14.8633 17.8486 14.1406C18.249 13.6914 18.6006 13.4961 19.167 13.3789C19.6455 13.291 35.0166 13.252 35.5732 13.3398ZM39.7236 17.9492C37.6045 17.9981 37.4971 17.9004 37.4971 15.8008V14.502L40.915 17.9199L39.7236 17.9492Z" fill="#44B64B"/>
<path d="M24.4115 19.7266C24.1576 19.9805 24.1479 20.6348 24.4018 20.8887C24.4994 20.9863 24.9975 21.2109 25.4955 21.377C26.0033 21.543 26.4721 21.7188 26.5404 21.7676C26.6088 21.8066 26.7748 22.1289 26.9018 22.4707L27.1264 23.1055L26.7065 23.5156C25.9838 24.2188 25.8373 24.6484 25.7983 26.1231L25.769 27.3926L25.3881 27.6172C25.1733 27.7344 24.8705 28.0078 24.6947 28.2129L24.392 28.6035L23.7865 28.3887C23.2006 28.1738 23.1811 28.1641 22.4291 27.0508C21.5893 25.8106 21.3354 25.6055 20.7983 25.8008C20.4076 25.9277 20.1635 26.4258 20.31 26.7969C20.3588 26.9336 20.7494 27.5684 21.1791 28.1934C22.0483 29.4922 22.3119 29.707 23.474 30.0781L24.2162 30.3125V32.0313H23.0443C22.0287 32.0313 21.8041 32.0606 21.4526 32.2363C20.9154 32.5098 19.7338 33.6523 19.5678 34.0527C19.2846 34.7266 19.9096 35.4004 20.5834 35.1465C20.7299 35.0977 21.1693 34.7363 21.5502 34.3457L22.2631 33.6523L24.2162 33.5742V35.3125L23.474 35.5469C22.3119 35.918 22.0483 36.1328 21.1791 37.4316C20.7494 38.0566 20.3588 38.6914 20.31 38.8281C20.1635 39.1992 20.4076 39.6973 20.7983 39.8242C21.3354 40.0195 21.5893 39.8145 22.4291 38.5742L23.1908 37.4512L23.9233 37.1875C24.3236 37.041 24.685 36.9238 24.724 36.9238C24.7533 36.9141 24.8998 37.1094 25.0463 37.3535C25.6322 38.3594 26.9213 39.3066 28.2104 39.6875C29.0697 39.9414 30.5151 39.9023 31.4135 39.5996C32.6342 39.1895 33.767 38.3203 34.3334 37.3438C34.4701 37.1094 34.6166 36.9141 34.6459 36.9238C34.685 36.9238 35.0463 37.041 35.4467 37.1875L36.1791 37.4512L36.9311 38.5645C37.351 39.1797 37.7416 39.7168 37.81 39.7656C38.0541 39.9121 38.6596 39.8535 38.8647 39.6484C39.2553 39.2578 39.1381 38.8477 38.269 37.5293C37.3608 36.1621 37.0678 35.918 35.9057 35.5566L35.1537 35.3125V33.5742L37.0971 33.6523L37.8686 34.4043C38.5815 35.0977 38.6791 35.1563 39.0502 35.1563C39.5873 35.1563 39.8412 34.9023 39.8412 34.3652C39.8412 34.0039 39.7729 33.8965 39.1869 33.2813C38.8158 32.9004 38.308 32.4707 38.0346 32.3145C37.5658 32.0508 37.4877 32.0313 36.3549 32.0313H35.1537V30.3125L35.9057 30.0684C37.0678 29.707 37.3608 29.4629 38.269 28.0957C39.1381 26.7773 39.2553 26.3672 38.8647 25.9766C38.6596 25.7715 38.0541 25.7129 37.81 25.8594C37.7416 25.9082 37.351 26.4453 36.9311 27.0606C36.1889 28.1641 36.1693 28.1738 35.5834 28.3887L34.9779 28.6035L34.6752 28.2129C34.4994 28.0078 34.1967 27.7344 33.9818 27.6172L33.601 27.3926L33.5717 26.1231C33.5326 24.6484 33.3861 24.2188 32.6635 23.5156L32.2436 23.1055L32.4682 22.4707C32.5951 22.1289 32.7611 21.8066 32.8295 21.7676C32.8979 21.7188 33.3666 21.543 33.8744 21.377C34.9584 21.0156 35.1537 20.8496 35.1537 20.3125C35.1537 19.7949 34.8901 19.5313 34.392 19.5313C33.9526 19.5313 32.4584 20.0195 31.9604 20.3223C31.4818 20.6152 31.0912 21.2012 30.8373 21.9824L30.6225 22.6563H28.7475L28.5326 21.9824C28.2787 21.2012 27.8881 20.6152 27.4096 20.3223C26.9115 20.0195 25.4174 19.5313 24.9779 19.5313C24.7338 19.5313 24.5385 19.5996 24.4115 19.7266ZM30.7006 24.3164C31.6186 24.5215 31.9408 25.0488 32.0092 26.377L32.058 27.3438H27.3119L27.3608 26.377C27.4291 25.0684 27.7611 24.5215 28.6205 24.3164C29.0795 24.209 30.2416 24.209 30.7006 24.3164ZM28.9037 31.8359C28.9037 34.6387 28.9135 34.7754 29.099 34.9609C29.226 35.0879 29.4213 35.1563 29.685 35.1563C29.9486 35.1563 30.144 35.0879 30.2709 34.9609C30.4565 34.7754 30.4662 34.6387 30.4662 31.8359V28.9063H31.5893C32.9369 28.9063 33.3178 29.0234 33.4838 29.4922C33.6205 29.8926 33.6303 33.8574 33.4936 34.8145C33.435 35.1856 33.2885 35.7227 33.1518 36.0059C32.8393 36.6895 31.9799 37.5391 31.2768 37.8711C30.769 38.1055 30.5932 38.1348 29.685 38.1348C28.7768 38.1348 28.601 38.1055 28.0932 37.8711C27.3901 37.5391 26.5307 36.6895 26.2182 36.0059C26.0815 35.7227 25.935 35.1856 25.8764 34.8145C25.7397 33.8574 25.7494 29.8926 25.8861 29.4922C26.0522 29.0234 26.4037 28.916 27.7611 28.9063H28.9037V31.8359Z" fill="#44B64B"/>
<path d="M7.22363 15.8203C7.09668 15.9473 7.02832 16.1426 7.02832 16.4063C7.02832 16.6699 7.09668 16.8652 7.22363 16.9922C7.40918 17.1777 7.5459 17.1875 9.7627 17.1875C11.9795 17.1875 12.1162 17.1777 12.3018 16.9922C12.4287 16.8652 12.4971 16.6699 12.4971 16.4063C12.4971 16.1426 12.4287 15.9473 12.3018 15.8203C12.1162 15.6348 11.9795 15.625 9.7627 15.625C7.5459 15.625 7.40918 15.6348 7.22363 15.8203Z" fill="#44B64B"/>
<path d="M7.22363 20.5078C7.09668 20.6348 7.02832 20.8301 7.02832 21.0938C7.02832 21.3574 7.09668 21.5527 7.22363 21.6797C7.40918 21.8652 7.5459 21.875 9.7627 21.875C11.9795 21.875 12.1162 21.8652 12.3018 21.6797C12.4287 21.5527 12.4971 21.3574 12.4971 21.0938C12.4971 20.8301 12.4287 20.6348 12.3018 20.5078C12.1162 20.3223 11.9795 20.3125 9.7627 20.3125C7.5459 20.3125 7.40918 20.3223 7.22363 20.5078Z" fill="#44B64B"/>
<path d="M7.22363 25.1953C7.09668 25.3223 7.02832 25.5176 7.02832 25.7813C7.02832 26.0449 7.09668 26.2402 7.22363 26.3672C7.40918 26.5527 7.5459 26.5625 9.7627 26.5625C11.9795 26.5625 12.1162 26.5527 12.3018 26.3672C12.4287 26.2402 12.4971 26.0449 12.4971 25.7813C12.4971 25.5176 12.4287 25.3223 12.3018 25.1953C12.1162 25.0098 11.9795 25 9.7627 25C7.5459 25 7.40918 25.0098 7.22363 25.1953Z" fill="#44B64B"/>
<path d="M7.22363 29.8828C7.09668 30.0098 7.02832 30.2051 7.02832 30.4688C7.02832 30.7324 7.09668 30.9277 7.22363 31.0547C7.40918 31.2402 7.5459 31.25 9.7627 31.25C11.9795 31.25 12.1162 31.2402 12.3018 31.0547C12.4287 30.9277 12.4971 30.7324 12.4971 30.4688C12.4971 30.2051 12.4287 30.0098 12.3018 29.8828C12.1162 29.6973 11.9795 29.6875 9.7627 29.6875C7.5459 29.6875 7.40918 29.6973 7.22363 29.8828Z" fill="#44B64B"/>
<path d="M2.52677 38.4863C2.33146 38.6816 2.33146 38.7695 2.36075 40.6055C2.39005 42.5098 2.39005 42.5391 2.67325 43.1152C3.04435 43.8672 3.78654 44.6094 4.53849 44.9805C5.11466 45.2637 5.15372 45.2637 7.00919 45.293L8.90372 45.332L8.35685 45.8984C7.87833 46.3965 7.80997 46.5137 7.80997 46.8652C7.80997 47.4023 8.06388 47.6563 8.61075 47.6563C9.01114 47.6563 9.06974 47.6172 10.3686 46.3086C11.6967 44.9805 11.7162 44.9512 11.7162 44.5313C11.7162 44.1113 11.6967 44.082 10.3686 42.7539C9.06974 41.4453 9.01114 41.4063 8.61075 41.4063C8.06388 41.4063 7.80997 41.6602 7.80997 42.1973C7.80997 42.5488 7.87833 42.666 8.37638 43.1836L8.93302 43.7695L7.37052 43.7305C5.642 43.6816 5.28068 43.584 4.69474 43.0371C4.08927 42.4609 3.97208 42.041 3.91349 40.2051C3.86466 38.7207 3.83536 38.5449 3.66935 38.418C3.37638 38.2129 2.77091 38.2422 2.52677 38.4863Z" fill="#44B64B"/>
</svg>
