<svg width="61" height="60" viewBox="0 0 61 60" fill="none" xmlns="http://www.w3.org/2000/svg">
<g clip-path="url(#clip0_308_719)">
<path d="M39.9578 7.80859C48.0206 7.80859 54.8631 9.52446 58.959 12.0367V36.9176C58.959 38.2531 58.5007 39.5385 57.9201 40.9645C56.2287 44.5633 53.392 47.2776 50.0622 49.6158C47.7419 51.2453 45.2546 52.6472 42.7804 54.0417C41.835 54.5745 40.8916 55.1063 39.9602 55.6492C39.0278 55.1058 38.0835 54.5736 37.1373 54.0403C34.6637 52.6462 32.1769 51.2447 29.8568 49.6158C26.5265 47.2775 23.6892 44.5632 21.9979 40.9645C21.4173 39.5385 20.959 38.2531 20.959 36.9176V12.0367C25.0548 9.52443 31.8951 7.80859 39.9578 7.80859Z" stroke="#F3F4FF" stroke-width="2"/>
<path d="M20.6134 3.25333C18.5528 3.31192 18.0646 3.36075 17.4591 3.53653C16.5314 3.80997 9.14855 7.50137 8.48448 8.02872C8.20128 8.24356 7.80089 8.68301 7.58605 8.99551C7.25401 9.49356 6.14073 11.9545 5.17394 14.3568L4.89073 15.0697H3.0548C0.808702 15.0697 0.545031 15.1576 0.545031 15.9096C0.545031 16.0463 0.652452 16.2611 0.789171 16.3881C1.02355 16.6225 1.06261 16.6322 2.59581 16.6322C3.45519 16.6322 4.15831 16.6518 4.15831 16.6811C4.15831 16.7104 3.86534 17.433 3.50401 18.2729C2.56651 20.4994 2.56651 20.4799 2.73253 20.8705C2.84972 21.1537 2.95714 21.2318 3.49425 21.4076C5.68175 22.1303 7.90831 21.7397 9.69542 20.3236C10.5548 19.64 11.0724 18.9076 11.7755 17.3256C12.1271 16.5541 12.4591 15.9291 12.547 15.9096C12.6349 15.8803 14.422 15.5092 16.5216 15.0697L20.34 14.2689L24.5587 15.0111L28.7775 15.7533H32.1466C34.8907 15.7533 35.506 15.7729 35.506 15.8803C35.506 16.2221 34.8712 17.2475 34.3732 17.6967C33.4259 18.5658 33.1915 18.6147 29.7442 18.6928C26.5314 18.7514 26.4142 18.7709 25.3204 19.3373C24.4415 19.7963 23.7286 20.5775 22.7618 22.1498C21.463 24.2592 20.6525 25.0697 19.129 25.7729C17.9083 26.349 17.4786 26.4076 14.4415 26.4662C11.8829 26.515 11.6778 26.5346 11.5118 26.7104C11.297 26.9545 11.297 27.5111 11.5314 27.765C11.6974 27.9506 11.8146 27.9604 14.1974 27.9604H16.6876L16.4923 28.1752C16.3849 28.3022 15.9454 28.8588 15.5157 29.4252C13.5919 31.9643 13.211 32.4623 13.1329 32.5014C13.0939 32.5307 12.1759 31.9545 11.1017 31.2318L9.14855 29.9135H5.1837C1.89269 29.9135 1.17003 29.933 0.945421 30.06C0.476671 30.2943 0.398546 30.851 0.789171 31.2318L1.02355 31.476H4.82237H8.63097L10.545 32.765C12.3517 33.976 12.4591 34.0736 12.4591 34.3568C12.4591 35.265 13.1232 36.3295 13.963 36.7787C14.4903 37.0522 15.8575 37.0814 16.3263 36.8275L16.6388 36.6615L16.756 36.9545C16.8243 37.1107 17.0978 37.4428 17.3614 37.6772C18.2306 38.4584 19.4708 38.6147 20.4474 38.0678C20.6915 37.9311 20.8966 37.8236 20.9064 37.8236C20.9161 37.8236 20.9845 37.9506 21.0528 38.1166C21.2189 38.5268 21.9122 39.1322 22.4493 39.3373C23.0157 39.5522 24.0607 39.5033 24.5685 39.2397C24.754 39.142 25.1837 38.8002 25.506 38.4877C26.0724 37.9408 26.1114 37.9213 26.1603 38.1361C26.2579 38.517 26.9025 39.1811 27.4396 39.4545C27.84 39.6693 28.0743 39.7182 28.67 39.7182C29.588 39.7279 29.8028 39.6303 31.7462 38.2436C32.5567 37.6674 34.5489 36.2514 36.1896 35.0893C37.8302 33.9272 40.1251 32.2963 41.2872 31.4662C44.4122 29.2494 44.4513 29.2299 46.9903 29.2299C48.5724 29.2299 48.6017 29.2299 48.836 28.9857C49.1583 28.6732 49.1583 28.224 48.836 27.9115C48.6017 27.6674 48.5724 27.6674 46.9122 27.6674C44.5587 27.6674 43.6896 27.8822 42.3907 28.7611C41.8439 29.142 40.2325 30.2748 35.9942 33.2826C30.1153 37.4525 29.1681 38.1068 28.9337 38.1654C28.5919 38.2533 28.0646 38.0678 27.7814 37.765C27.5958 37.56 27.547 37.4135 27.547 36.9838V36.4662L29.7735 34.2299C31.756 32.2475 31.9903 31.974 31.9903 31.6908C31.9903 31.2611 31.6192 30.89 31.1896 30.89C30.8966 30.89 30.545 31.2123 27.3517 34.4057L23.8263 37.9213H23.4064C23.0548 37.9213 22.9278 37.8627 22.6544 37.5893C22.381 37.3158 22.3224 37.1791 22.3224 36.8471C22.3224 36.476 22.3907 36.3783 23.0646 35.6459C23.4747 35.2064 23.9044 34.7572 24.0216 34.6498C24.129 34.5326 25.0079 33.6537 25.965 32.6772C27.4786 31.1439 27.6935 30.8803 27.6935 30.6068C27.6935 30.1869 27.3224 29.8158 26.8927 29.8158C26.5997 29.8158 26.2775 30.1088 23.1329 33.2729C19.6075 36.8275 19.4415 36.9643 18.8849 36.7982C18.5333 36.6908 18.1329 36.2611 18.0646 35.9291C17.9767 35.4408 18.1525 35.1674 19.2169 34.0443C24.0021 29.0346 23.6896 29.3959 23.6896 28.9564C23.6896 28.517 23.4942 28.2826 23.0157 28.1947C22.7228 28.1361 22.6544 28.1752 21.8048 29.0443C21.3067 29.5522 20.086 30.8217 19.0997 31.8666C15.7306 35.4311 15.6817 35.4799 15.213 35.4799C14.881 35.4799 14.7247 35.4115 14.4317 35.1479C14.1192 34.8549 14.0704 34.7572 14.0704 34.3764C14.0704 34.0053 14.1485 33.849 14.6173 33.224C14.92 32.8236 16.004 31.4076 17.0196 30.0795L18.8751 27.6479L19.9396 27.1303C21.1114 26.5541 22.0978 25.8022 22.8107 24.9135C23.0646 24.601 23.6407 23.7416 24.1095 22.9994C25.0372 21.5053 25.5646 20.9486 26.4044 20.558C26.961 20.2943 26.9708 20.2943 29.9884 20.2357C32.7814 20.1869 33.0646 20.1674 33.5919 19.9721C35.7208 19.1908 37.1564 17.2279 37.1661 15.099C37.1661 14.6693 37.1271 14.5619 36.9122 14.3959C36.6583 14.2006 36.5509 14.1908 32.8107 14.1908H28.9728L26.4728 13.7514C22.8985 13.1361 22.1466 12.9018 21.336 12.1693C20.711 11.6029 20.3985 10.9877 20.2228 9.96231L20.1642 9.59122L20.8282 9.64981C21.1896 9.67911 25.2911 9.92325 29.9396 10.1869L38.3868 10.6752L40.7794 11.8861C42.0978 12.5502 43.4161 13.1752 43.7091 13.2631C44.5196 13.517 48.2306 13.5951 48.67 13.3705C49.0802 13.1557 49.1974 12.6283 48.9142 12.2572L48.7189 11.9936L46.629 11.935C45.1739 11.8959 44.4025 11.8275 44.09 11.7299C43.8458 11.6518 42.7032 11.0951 41.5509 10.4897C40.3985 9.89395 39.2462 9.33731 38.9728 9.25918C38.3966 9.09317 19.6661 7.97012 19.2462 8.07754C18.8556 8.1752 18.6896 8.68301 18.6896 9.74747C18.6993 10.7338 18.9239 11.5736 19.3927 12.3158C19.5489 12.5697 19.6661 12.7846 19.6466 12.7943C19.5978 12.8432 13.504 14.1029 13.4747 14.0639C13.4552 14.0443 14.0802 13.6342 14.8712 13.1557C15.672 12.6869 16.4337 12.1693 16.59 12.0326C17.0587 11.5639 16.8634 10.8803 16.2286 10.7143C15.9454 10.6459 15.5841 10.8412 13.2989 12.2572L11.8439 13.1654L10.8478 15.4799C9.78331 17.9506 9.42198 18.5463 8.57237 19.1908C7.65441 19.8939 6.29698 20.3139 5.30089 20.1967C4.43175 20.099 4.43175 20.1088 4.69542 19.5326C4.82237 19.2494 5.33995 18.0385 5.84776 16.8275C8.90441 9.59122 8.68956 10.0307 9.33409 9.41543C9.70519 9.04434 10.506 8.61465 13.6896 7.03262C17.0099 5.38223 17.6935 5.0795 18.338 4.96231C18.9142 4.85489 20.1837 4.81583 23.5138 4.7963L27.9376 4.767L32.088 6.18301L36.2384 7.58926L37.3614 7.62833L38.4845 7.65762L43.3673 6.5834C46.0528 5.9877 48.3478 5.47989 48.4747 5.45059C49.3243 5.24551 49.2169 3.93692 48.3478 3.93692C48.172 3.93692 45.838 4.4252 43.1622 5.0209C39.422 5.85098 38.1232 6.10489 37.5567 6.10489C36.8634 6.11465 36.59 6.03653 32.5275 4.65958L28.2306 3.2045L25.6427 3.19473C24.2169 3.18497 21.961 3.21426 20.6134 3.25333Z" fill="#44B64B"/>
</g>
<defs>
<clipPath id="clip0_308_719">
<rect width="60" height="60" fill="white" transform="translate(0.25)"/>
</clipPath>
</defs>
</svg>
