<svg width="60" height="60" viewBox="0 0 60 60" fill="none" xmlns="http://www.w3.org/2000/svg">
<path d="M39.7089 7.80762C47.7716 7.80762 54.6141 9.52348 58.71 12.0357V36.9167C58.71 38.2521 58.2517 39.5376 57.6711 40.9636C55.9798 44.5623 53.143 47.2766 49.8133 49.6148C47.4929 51.2443 45.0056 52.6462 42.5314 54.0407C41.5861 54.5736 40.6427 55.1053 39.7112 55.6482C38.7789 55.1048 37.8346 54.5726 36.8883 54.0393C34.4147 52.6452 31.9279 51.2437 29.6079 49.6148C26.2776 47.2765 23.4403 44.5622 21.7489 40.9636C21.1683 39.5376 20.71 38.2521 20.71 36.9167V12.0357C24.8058 9.52346 31.6462 7.80762 39.7089 7.80762Z" stroke="#F3F4FF" stroke-width="2"/>
<path d="M20.3643 3.25296C18.3038 3.31155 17.8155 3.36038 17.21 3.53616C16.2823 3.8096 8.89946 7.50101 8.2354 8.02835C7.9522 8.24319 7.55181 8.68265 7.33696 8.99515C7.00493 9.49319 5.89165 11.9541 4.92485 14.3565L4.64165 15.0694H2.80571C0.559618 15.0694 0.295946 15.1573 0.295946 15.9092C0.295946 16.0459 0.403368 16.2608 0.540087 16.3877C0.774462 16.6221 0.813524 16.6319 2.34673 16.6319C3.2061 16.6319 3.90923 16.6514 3.90923 16.6807C3.90923 16.71 3.61626 17.4326 3.25493 18.2725C2.31743 20.4991 2.31743 20.4795 2.48345 20.8701C2.60063 21.1533 2.70806 21.2315 3.24516 21.4073C5.43266 22.1299 7.65923 21.7393 9.44634 20.3233C10.3057 19.6397 10.8233 18.9073 11.5264 17.3252C11.878 16.5537 12.21 15.9287 12.2979 15.9092C12.3858 15.8799 14.1729 15.5088 16.2725 15.0694L20.0909 14.2686L24.3096 15.0108L28.5284 15.753H31.8975C34.6416 15.753 35.2569 15.7725 35.2569 15.8799C35.2569 16.2217 34.6221 17.2471 34.1241 17.6963C33.1768 18.5655 32.9424 18.6143 29.4952 18.6924C26.2823 18.751 26.1651 18.7705 25.0713 19.3369C24.1924 19.7959 23.4795 20.5772 22.5127 22.1494C21.2139 24.2588 20.4034 25.0694 18.8799 25.7725C17.6592 26.3487 17.2295 26.4073 14.1924 26.4658C11.6338 26.5147 11.4288 26.5342 11.2627 26.71C11.0479 26.9541 11.0479 27.5108 11.2823 27.7647C11.4483 27.9502 11.5655 27.96 13.9483 27.96H16.4385L16.2432 28.1748C16.1358 28.3018 15.6963 28.8584 15.2666 29.4248C13.3428 31.9639 12.962 32.4619 12.8838 32.501C12.8448 32.5303 11.9268 31.9541 10.8526 31.2315L8.89946 29.9131H4.93462C1.6436 29.9131 0.920946 29.9326 0.696337 30.0596C0.227587 30.294 0.149462 30.8506 0.540087 31.2315L0.774462 31.4756H4.57329H8.38188L10.2959 32.7647C12.1026 33.9756 12.21 34.0733 12.21 34.3565C12.21 35.2647 12.8741 36.3291 13.7139 36.7783C14.2413 37.0518 15.6084 37.0811 16.0772 36.8272L16.3897 36.6612L16.5069 36.9541C16.5752 37.1104 16.8487 37.4424 17.1124 37.6768C17.9815 38.458 19.2217 38.6143 20.1983 38.0674C20.4424 37.9307 20.6475 37.8233 20.6573 37.8233C20.667 37.8233 20.7354 37.9502 20.8038 38.1162C20.9698 38.5264 21.6631 39.1319 22.2002 39.3369C22.7666 39.5518 23.8116 39.503 24.3194 39.2393C24.5049 39.1416 24.9346 38.7998 25.2569 38.4873C25.8233 37.9405 25.8624 37.9209 25.9112 38.1358C26.0088 38.5166 26.6534 39.1807 27.1905 39.4541C27.5909 39.669 27.8252 39.7178 28.4209 39.7178C29.3389 39.7276 29.5538 39.6299 31.4971 38.2432C32.3077 37.667 34.2999 36.251 35.9405 35.0889C37.5811 33.9268 39.876 32.2959 41.0381 31.4658C44.1631 29.2491 44.2022 29.2295 46.7413 29.2295C48.3233 29.2295 48.3526 29.2295 48.587 28.9854C48.9092 28.6729 48.9092 28.2237 48.587 27.9112C48.3526 27.667 48.3233 27.667 46.6631 27.667C44.3096 27.667 43.4405 27.8819 42.1417 28.7608C41.5948 29.1416 39.9834 30.2744 35.7452 33.2823C29.8663 37.4522 28.919 38.1065 28.6846 38.1651C28.3428 38.253 27.8155 38.0674 27.5323 37.7647C27.3467 37.5596 27.2979 37.4131 27.2979 36.9834V36.4658L29.5245 34.2295C31.5069 32.2471 31.7413 31.9737 31.7413 31.6905C31.7413 31.2608 31.3702 30.8897 30.9405 30.8897C30.6475 30.8897 30.2959 31.2119 27.1026 34.4053L23.5772 37.9209H23.1573C22.8057 37.9209 22.6788 37.8623 22.4053 37.5889C22.1319 37.3155 22.0733 37.1787 22.0733 36.8467C22.0733 36.4756 22.1416 36.378 22.8155 35.6455C23.2256 35.2061 23.6553 34.7569 23.7725 34.6494C23.8799 34.5323 24.7588 33.6533 25.7159 32.6768C27.2295 31.1436 27.4444 30.8799 27.4444 30.6065C27.4444 30.1866 27.0733 29.8155 26.6436 29.8155C26.3506 29.8155 26.0284 30.1084 22.8838 33.2725C19.3584 36.8272 19.1924 36.9639 18.6358 36.7979C18.2842 36.6905 17.8838 36.2608 17.8155 35.9287C17.7276 35.4405 17.9034 35.167 18.9678 34.044C23.753 29.0342 23.4405 29.3955 23.4405 28.9561C23.4405 28.5166 23.2452 28.2823 22.7666 28.1944C22.4737 28.1358 22.4053 28.1748 21.5557 29.044C21.0577 29.5518 19.837 30.8213 18.8506 31.8662C15.4815 35.4307 15.4327 35.4795 14.9639 35.4795C14.6319 35.4795 14.4756 35.4112 14.1827 35.1475C13.8702 34.8545 13.8213 34.7569 13.8213 34.376C13.8213 34.0049 13.8995 33.8487 14.3682 33.2237C14.6709 32.8233 15.7549 31.4073 16.7706 30.0791L18.626 27.6475L19.6905 27.1299C20.8624 26.5537 21.8487 25.8018 22.5616 24.9131C22.8155 24.6006 23.3916 23.7412 23.8604 22.9991C24.7881 21.5049 25.3155 20.9483 26.1553 20.5576C26.712 20.294 26.7217 20.294 29.7393 20.2354C32.5323 20.1866 32.8155 20.167 33.3428 19.9717C35.4717 19.1905 36.9073 17.2276 36.917 15.0987C36.917 14.669 36.878 14.5616 36.6631 14.3955C36.4092 14.2002 36.3018 14.1905 32.5616 14.1905H28.7237L26.2237 13.751C22.6495 13.1358 21.8975 12.9014 21.087 12.169C20.462 11.6026 20.1495 10.9873 19.9737 9.96194L19.9151 9.59085L20.5791 9.64944C20.9405 9.67874 25.042 9.92288 29.6905 10.1866L38.1377 10.6748L40.5303 11.8858C41.8487 12.5498 43.167 13.1748 43.46 13.2627C44.2706 13.5166 47.9815 13.5948 48.4209 13.3701C48.8311 13.1553 48.9483 12.628 48.6651 12.2569L48.4698 11.9932L46.3799 11.9346C44.9249 11.8955 44.1534 11.8272 43.8409 11.7295C43.5967 11.6514 42.4542 11.0948 41.3018 10.4893C40.1495 9.89358 38.9971 9.33694 38.7237 9.25882C38.1475 9.0928 19.417 7.96976 18.9971 8.07718C18.6065 8.17483 18.4405 8.68265 18.4405 9.7471C18.4502 10.7334 18.6749 11.5733 19.1436 12.3155C19.2999 12.5694 19.417 12.7842 19.3975 12.794C19.3487 12.8428 13.2549 14.1026 13.2256 14.0635C13.2061 14.044 13.8311 13.6338 14.6221 13.1553C15.4229 12.6866 16.1846 12.169 16.3409 12.0323C16.8096 11.5635 16.6143 10.8799 15.9795 10.7139C15.6963 10.6455 15.335 10.8408 13.0499 12.2569L11.5948 13.1651L10.5987 15.4795C9.53423 17.9502 9.1729 18.5459 8.32329 19.1905C7.40532 19.8936 6.0479 20.3135 5.05181 20.1963C4.18266 20.0987 4.18266 20.1084 4.44634 19.5323C4.57329 19.2491 5.09087 18.0381 5.59868 16.8272C8.65532 9.59085 8.44048 10.0303 9.08501 9.41507C9.4561 9.04397 10.2569 8.61429 13.4405 7.03226C16.7608 5.38187 17.4444 5.07913 18.0889 4.96194C18.6651 4.85452 19.9346 4.81546 23.2647 4.79593L27.6885 4.76663L31.8389 6.18265L35.9893 7.5889L37.1124 7.62796L38.2354 7.65726L43.1182 6.58304C45.8038 5.98734 48.0987 5.47952 48.2256 5.45023C49.0752 5.24515 48.9678 3.93655 48.0987 3.93655C47.9229 3.93655 45.5889 4.42484 42.9131 5.02054C39.1729 5.85062 37.8741 6.10452 37.3077 6.10452C36.6143 6.11429 36.3409 6.03616 32.2784 4.65921L27.9815 3.20413L25.3936 3.19437C23.9678 3.1846 21.712 3.2139 20.3643 3.25296Z" fill="#44B64B"/>
</svg>
