<svg width="60" height="60" viewBox="0 0 60 60" fill="none" xmlns="http://www.w3.org/2000/svg">
<path d="M27.3478 11.2876C26.42 11.4634 25.2579 11.9322 24.7111 12.3521C24.2521 12.7037 24.1349 13.1334 24.3888 13.5337C24.6525 13.9341 25.0529 13.9341 25.7462 13.5533C26.8204 12.9478 27.5724 12.7525 28.7931 12.7623C29.7013 12.7623 29.9845 12.8111 30.629 13.0259C31.5958 13.3677 32.2794 13.7974 32.8751 14.4615C33.6466 15.3209 34.213 16.6587 34.213 17.6158V17.9869L33.8517 17.6939C33.1779 17.1666 32.6115 17.2154 31.8009 17.8697L31.4298 18.1626L26.6349 18.2212L25.8927 18.5923C24.5548 19.2564 23.7052 20.4185 23.4513 21.9419C23.3341 22.606 23.2853 22.7134 23.1193 22.7427C22.9337 22.772 22.8849 22.6841 22.7286 22.108C22.5822 21.5904 22.5431 21.1119 22.5431 19.9302C22.5431 18.2505 22.67 17.6451 23.3341 16.2486C23.7247 15.4087 23.7443 15.1158 23.422 14.8033C23.1583 14.5298 22.924 14.5005 22.5431 14.6763C22.2306 14.8228 21.6251 16.0142 21.254 17.2447C21.0099 18.065 20.9904 18.2408 20.9904 19.9791C20.9904 21.7271 21.0099 21.8834 21.254 22.7037C21.4982 23.4751 21.5079 23.5826 21.381 23.7291C21.0978 24.0318 20.9122 24.647 20.9122 25.272C20.9025 26.3853 21.5665 27.3423 22.5822 27.6939C22.8165 27.772 23.1193 27.8404 23.2365 27.8404C23.4122 27.8404 23.4806 27.9185 23.5587 28.2017C23.6173 28.4068 23.6661 28.6216 23.6661 28.6802C23.6661 28.7486 23.8712 29.2076 24.1154 29.7056C24.4767 30.4087 24.7404 30.7798 25.3361 31.3853L26.1075 32.1666L26.0978 32.8111V33.4556L25.4728 33.9341C24.4474 34.7251 24.0665 35.1451 23.9982 35.5455C23.9396 35.8873 23.8322 35.9751 22.172 37.1177C21.088 37.8599 20.1407 38.5923 19.7404 39.0025C19.0958 39.6568 19.0763 39.6666 18.8126 39.5298C18.6661 39.4517 18.0021 39.2076 17.3478 38.9732C15.9025 38.4751 15.8732 38.4068 16.7228 37.6451C17.4064 37.0201 17.8654 36.3365 18.0997 35.5845L18.2755 35.0181L18.8712 34.9009C19.8673 34.6959 20.3556 34.3345 20.7267 33.5044C21.049 32.8013 20.9415 31.6783 20.5118 31.1802C20.3947 31.0435 20.3849 30.8677 20.463 30.1841C20.795 27.1275 19.5743 24.6275 17.1329 23.358C16.0978 22.8209 15.3165 22.6353 14.1447 22.6353C13.0216 22.6353 12.4064 22.7818 11.0782 23.3482C10.5704 23.563 10.1017 23.7388 10.0431 23.7388C9.9845 23.7388 9.62317 23.8951 9.22278 24.0806C7.91418 24.7056 7.00598 25.9361 6.76184 27.4107C6.67395 27.9869 6.68372 28.2994 6.8595 29.5201L7.05481 30.9556L6.82043 31.3755C6.49817 31.9712 6.42981 32.5865 6.61536 33.231C6.89856 34.1978 7.62122 34.7837 8.69543 34.9302C9.16418 34.9888 9.20325 35.0181 9.25208 35.3013C9.37903 35.9459 9.89661 36.8443 10.4825 37.4205C10.9318 37.8599 11.0685 38.0552 11.0685 38.2701C11.0685 38.5435 11.0294 38.5728 10.0138 38.9244C7.96301 39.6568 7.65051 39.8521 7.65051 40.399C7.65051 40.8482 7.93372 41.1509 8.34387 41.1509C8.52942 41.1509 9.24231 40.9263 9.94543 40.6529L11.215 40.1548L11.3615 40.3697C11.9865 41.2681 12.6407 41.6392 13.6075 41.649C14.5548 41.649 15.3654 41.1802 15.9025 40.3111C15.9904 40.1744 16.1271 40.2037 17.1525 40.5748C17.7872 40.8091 18.3243 41.024 18.3536 41.0533C18.3829 41.0826 18.3243 41.3169 18.2365 41.5806C17.9825 42.2544 17.9044 47.8404 18.1388 48.1919C18.4318 48.6509 19.2228 48.5923 19.4572 48.0943C19.5255 47.9283 19.5646 46.981 19.5646 45.2916C19.5646 42.5279 19.6232 42.1373 20.1017 41.1802C20.5411 40.3209 21.049 39.8326 22.8263 38.6021C23.7736 37.9478 24.5841 37.4107 24.6329 37.4107C24.6818 37.4107 25.0236 37.8209 25.4044 38.3287C25.9904 39.1001 26.1661 39.2759 26.547 39.4224C26.9962 39.5884 27.006 39.5884 27.9435 39.315C28.4611 39.1685 28.9689 39.022 29.0665 39.0025C29.2228 38.9537 29.2325 39.2173 29.2325 43.6509V48.358L29.4767 48.5923C29.7208 48.8462 29.8868 48.8755 30.2872 48.7779C30.7853 48.6412 30.795 48.524 30.795 43.563C30.795 39.2271 30.8048 38.9634 30.9708 39.0123C31.0587 39.0416 31.5177 39.1783 31.9865 39.315C33.3439 39.7154 33.6564 39.5884 34.6818 38.2212L35.3361 37.3423L36.9376 38.4459C39.1544 39.9693 39.7013 40.5455 40.1896 41.8638C40.3849 42.3912 40.4044 42.6841 40.4532 45.2818C40.5021 47.3912 40.5411 48.1626 40.6388 48.2798C40.8243 48.4947 41.2345 48.5728 41.547 48.4459C42.0157 48.2505 42.045 48.0259 41.9865 45.0084C41.9572 43.4849 41.9279 42.1177 41.9083 41.9712C41.879 41.6978 41.9083 41.6783 43.0997 41.1998C43.9103 40.8775 44.3302 40.7505 44.3497 40.8287C44.379 40.897 44.5157 41.0923 44.6818 41.2681C45.7072 42.4498 47.7872 42.2251 48.549 40.8677C48.6173 40.7408 48.7833 40.7798 49.6525 41.1216C51.4884 41.8541 51.9962 42.2349 52.5431 43.2896C52.7775 43.7486 52.8068 43.9537 52.8556 45.0279C52.8947 45.7212 52.9728 46.3462 53.0411 46.4634C53.2169 46.7857 53.7833 46.8638 54.1154 46.6197C54.3693 46.4341 54.379 46.3853 54.4083 45.3111C54.4474 44.0416 54.3302 43.3775 53.9396 42.5376C53.3146 41.2193 52.4357 40.5259 50.3458 39.7056C48.9396 39.149 48.8615 39.1099 48.8615 38.856C48.8615 38.6509 48.9591 38.524 49.2716 38.3091C49.506 38.1529 49.7794 37.9283 49.8771 37.8111C50.0138 37.6646 50.1798 37.606 50.4728 37.606C52.2501 37.606 53.8224 36.649 54.5939 35.0962C54.9161 34.4419 54.965 34.2662 54.9943 33.4459C55.0431 32.3033 54.965 31.981 54.1837 30.1744C53.8419 29.3834 53.4513 28.2896 53.3146 27.7525C52.9532 26.2974 52.4259 25.3404 51.4005 24.3248C50.7462 23.6607 50.3947 23.4068 49.7404 23.0748C47.8458 22.1373 45.8927 22.0298 43.9689 22.772C41.7911 23.6119 40.2579 25.438 39.7013 27.8892C39.5939 28.3677 39.2325 29.3638 38.9103 30.106C38.1681 31.8052 38.0216 32.3033 38.0216 33.1724C38.0216 35.6431 40.0333 37.606 42.5626 37.606C42.8751 37.606 43.0216 37.6646 43.2072 37.8599C43.3341 37.9966 43.588 38.1919 43.7638 38.3091C44.0275 38.4751 44.0861 38.5533 44.0568 38.8072C44.0275 39.0904 43.9689 39.1294 42.6212 39.6763C41.8497 39.9888 41.2052 40.233 41.1954 40.2232C41.1857 40.2037 41.0392 39.9986 40.8732 39.7544C40.3751 39.0123 39.6036 38.358 37.8361 37.1275C36.1954 35.9947 36.1271 35.9361 35.9806 35.4869C35.8439 35.0865 35.6876 34.9107 34.8771 34.2369L33.9298 33.4556L33.92 32.7916V32.1177L34.545 31.522C34.8868 31.19 35.3263 30.6529 35.5314 30.3404C35.9025 29.7544 36.4591 28.3775 36.4591 28.0357C36.4591 27.8794 36.5275 27.8404 36.7814 27.8404C37.1818 27.8404 37.9923 27.4595 38.3536 27.0982C38.5099 26.9419 38.7443 26.5806 38.881 26.2876C39.0861 25.8482 39.1154 25.6626 39.0763 25.106C39.0372 24.6763 38.9493 24.315 38.8029 24.0513L38.5782 23.6509L38.8419 21.7173C38.9786 20.6529 39.0958 19.4908 39.0958 19.1392C39.0958 17.147 37.7286 15.2818 35.795 14.5982C35.4337 14.4712 35.0626 14.3638 34.9747 14.3638C34.8868 14.3638 34.672 14.1685 34.5157 13.9341C34.047 13.2603 33.0021 12.3619 32.2306 11.9908C30.7462 11.2584 28.9103 10.9947 27.3478 11.2876ZM36.5568 16.9126C37.1036 17.4791 37.465 18.2798 37.5138 19.0123C37.5724 19.8228 37.1525 22.7623 36.9865 22.7623C36.6642 22.7623 36.5568 22.6353 36.5568 22.2349C36.5568 21.649 36.3029 20.7701 35.922 20.0084C35.5997 19.3736 35.59 19.3345 35.6876 18.7876C35.795 18.2212 35.756 16.7173 35.6193 16.3755C35.5509 16.2095 35.5607 16.2095 35.8634 16.3658C36.0392 16.4537 36.3517 16.6978 36.5568 16.9126ZM33.6173 19.5982C34.047 19.9888 34.3204 20.3599 34.5743 20.8873L34.9454 21.6294L34.9747 24.5396C35.004 27.0201 34.9845 27.5474 34.8478 28.0162C34.2032 30.233 32.2404 31.7466 30.0236 31.7466C28.0802 31.7466 26.3224 30.6431 25.4923 28.9146C24.9845 27.8599 24.9161 27.274 24.9552 24.4224C24.9845 22.0689 24.9943 21.9029 25.2091 21.4439C25.5021 20.8091 26.0392 20.2525 26.6447 19.9693C27.1134 19.7447 27.2111 19.7349 29.4474 19.7349C30.795 19.7349 31.8693 19.6959 32.0255 19.6373C32.172 19.5787 32.4161 19.4224 32.5724 19.2955C32.7286 19.1587 32.8947 19.0513 32.9435 19.0513C32.9923 19.0513 33.295 19.2955 33.6173 19.5982ZM47.6798 23.983C49.799 24.4908 51.4005 26.1705 51.8497 28.3677C51.9474 28.8267 52.299 29.8033 52.7286 30.8091C53.3927 32.3423 53.4513 32.5376 53.4513 33.1431C53.4513 33.9732 53.1486 34.6763 52.5431 35.233C52.1525 35.5943 51.2638 36.0337 51.1564 35.9263C51.1271 35.9068 51.1564 35.731 51.2052 35.5455C51.2638 35.3697 51.3029 35.0084 51.3029 34.7544C51.3029 34.3834 51.254 34.2662 51.049 34.1001C50.4825 33.6509 49.9161 33.9732 49.7404 34.8521C49.506 35.9459 48.8517 36.8248 47.8947 37.2837C47.4259 37.5181 47.2306 37.5572 46.5177 37.5572C45.8439 37.5572 45.5997 37.5084 45.1993 37.313C44.4767 36.9615 43.754 36.1998 43.5001 35.5064C43.295 34.9595 43.2853 34.813 43.3146 32.3912C43.3439 29.9498 43.3536 29.8228 43.5782 29.3248C43.7052 29.0513 43.8322 28.8169 43.8517 28.8169C43.881 28.8169 44.2618 28.9927 44.6915 29.2076C45.7853 29.7447 46.547 29.8912 48.3536 29.8912H49.838V30.9166C49.838 31.815 49.8673 31.9712 50.0333 32.1373C50.297 32.4009 50.8439 32.4009 51.1075 32.1373C51.2833 31.9615 51.3029 31.815 51.3029 30.6236C51.3029 28.4654 51.2736 28.4459 48.4318 28.3384C46.1954 28.2505 45.8048 28.1431 44.799 27.4205C44.3204 27.0787 44.1447 27.0103 43.7638 27.0103C43.1876 27.0103 42.8654 27.2935 42.3771 28.2212C41.8009 29.3345 41.7325 29.7642 41.7325 32.5376C41.7325 33.9048 41.7814 35.2134 41.84 35.4478C41.8888 35.6822 41.9083 35.897 41.8888 35.9263C41.7814 36.024 40.9708 35.6431 40.5997 35.3209C40.3849 35.1353 40.0822 34.7544 39.9259 34.4712C39.672 34.0123 39.6329 33.8462 39.6329 33.1626C39.6329 32.4107 39.6525 32.3228 40.3458 30.7505C40.7267 29.8521 41.1173 28.8169 41.1954 28.4459C41.5861 26.5513 42.504 25.3013 44.1056 24.4615C45.2286 23.8755 46.4786 23.6998 47.6798 23.983ZM15.1017 24.2759C17.5626 24.7935 19.2423 27.147 18.9396 29.6373C18.8712 30.1646 18.8517 30.1841 18.5782 30.1841C18.3927 30.1841 18.295 30.1353 18.295 30.0376C18.295 29.7935 18.0021 29.4029 17.6993 29.2466C17.504 29.149 17.0841 29.1099 16.2052 29.1099C14.2325 29.1099 13.0411 28.7876 11.7618 27.899C11.0587 27.4205 10.5021 27.4107 10.0822 27.8501C9.74036 28.2212 9.33997 29.0416 9.20325 29.6861C9.10559 30.1451 9.07629 30.1841 8.82239 30.1841C8.50989 30.1841 8.53918 30.2623 8.33411 28.7974C8.27551 28.3873 8.25598 27.8794 8.29504 27.6744C8.46106 26.7466 9.18372 25.7994 9.94543 25.4869C13.3146 24.1099 13.7931 23.9927 15.1017 24.2759ZM23.3341 26.2486C23.256 26.3267 22.6993 25.9849 22.5919 25.7798C22.3185 25.2916 22.5529 24.6275 23.09 24.3541L23.3243 24.2369L23.3536 25.2232C23.3634 25.7603 23.3634 26.2291 23.3341 26.2486ZM37.2892 24.6177C37.3771 24.7154 37.4747 24.9791 37.504 25.1939C37.5529 25.5455 37.5236 25.6236 37.2111 25.9361C36.6349 26.5123 36.5568 26.4341 36.5568 25.2623V24.2369L36.84 24.3345C36.9962 24.3931 37.2013 24.5201 37.2892 24.6177ZM12.1622 29.9595C13.0118 30.3697 14.0372 30.5748 15.4923 30.6431L16.8497 30.7017L16.8107 32.7134C16.7521 35.0376 16.674 35.3697 15.9904 36.1314C15.3458 36.8443 14.6329 37.1666 13.7052 37.1568C13.1388 37.1568 12.8654 37.0982 12.4845 36.9224C11.7716 36.5806 11.1368 35.897 10.8829 35.2134C10.6779 34.6666 10.6681 34.5103 10.6974 32.2349C10.7169 30.4283 10.7657 29.774 10.8634 29.5787L11.0001 29.3052L11.3322 29.5103C11.5177 29.6275 11.8888 29.8326 12.1622 29.9595ZM9.11536 32.5767C9.11536 33.4849 9.07629 33.5435 8.53918 33.2603C8.18762 33.0845 8.00208 32.6548 8.12903 32.313C8.24622 32.0005 8.59778 31.7466 8.89075 31.7466C9.10559 31.7466 9.11536 31.7759 9.11536 32.5767ZM19.0861 32.0298C19.2521 32.1959 19.3693 32.4205 19.3693 32.5669C19.3693 32.8794 19.0079 33.2798 18.6661 33.3677L18.3927 33.4263V32.5865C18.3927 31.8052 18.4025 31.7466 18.5978 31.7466C18.7052 31.7466 18.9298 31.8736 19.0861 32.0298ZM29.672 33.2798C30.6779 33.3287 31.5177 33.2212 32.1915 32.9673C32.3282 32.9087 32.3575 32.9576 32.3575 33.2994V33.6998L31.1954 34.2857L30.0333 34.8619L28.8517 34.315L27.67 33.7584V32.938L28.1388 33.0845C28.3927 33.1626 29.0861 33.2505 29.672 33.2798ZM29.2325 37.2935L28.5782 37.4888C27.2599 37.8794 27.0841 37.9283 27.045 37.8892C27.0353 37.8697 26.6935 37.4205 26.2931 36.8834L25.5802 35.9263L26.6349 34.9888L27.9337 35.6334L29.2325 36.2876V37.2935ZM33.8907 35.4771C34.1447 35.7017 34.3497 35.9166 34.3302 35.9654C34.2814 36.1509 32.9142 37.899 32.8263 37.899C32.7677 37.899 32.299 37.7623 31.7618 37.5962L30.795 37.2935V36.2291L31.9962 35.6529C32.6505 35.3306 33.2365 35.0767 33.3048 35.0767C33.3634 35.0669 33.6271 35.2525 33.8907 35.4771ZM14.5841 39.1001C14.5841 39.3834 14.5157 39.5494 14.3009 39.7544C13.92 40.1451 13.588 40.2134 13.1974 39.9791C12.8263 39.7642 12.631 39.4419 12.631 39.0123V38.7095L14.5841 38.7291V39.1001ZM47.299 39.4908C47.299 39.9693 47.172 40.2037 46.8107 40.3892C46.2247 40.6919 45.6388 40.2623 45.6388 39.5201V39.1197H47.299V39.4908Z" fill="#44B64B"/>
<path d="M5.75598 42.1177C5.62903 42.2447 5.42395 42.606 5.297 42.9283C5.09192 43.4556 5.07239 43.7095 5.03333 45.5748L4.99426 47.6353L5.2677 47.8501C5.58997 48.1041 5.8927 48.1138 6.2052 47.8599C6.44934 47.6744 6.44934 47.6451 6.49817 45.9361C6.547 44.3834 6.57629 44.1197 6.81067 43.4459C7.09387 42.6255 7.07434 42.2837 6.74231 42.0494C6.43958 41.8345 6.03918 41.8736 5.75598 42.1177Z" fill="#44B64B"/>
<path d="M22.3377 42.8893C22.1717 43.0749 22.1522 43.2897 22.1229 45.2038C22.0936 47.4596 22.1327 47.7526 22.5526 47.9479C22.9041 48.1041 23.119 48.0846 23.412 47.8502L23.6659 47.6549V45.36C23.6659 43.2018 23.6561 43.0651 23.4705 42.8795C23.1971 42.6061 22.5916 42.6159 22.3377 42.8893Z" fill="#44B64B"/>
<path d="M36.4689 42.938C36.2736 43.1822 36.2638 43.3189 36.2638 45.2916C36.2638 47.6939 36.3126 47.899 36.9083 48.0162C37.172 48.065 37.3185 48.0357 37.5138 47.8892L37.7775 47.6939L37.8068 45.3892C37.8263 43.1822 37.8165 43.065 37.631 42.8794C37.3283 42.5767 36.7228 42.6158 36.4689 42.938Z" fill="#44B64B"/>
</svg>
