<svg width="20" height="20" viewBox="0 0 20 20" fill="none" xmlns="http://www.w3.org/2000/svg">
<path d="M16.75 19.0003H15.25V15.218C15.2494 14.63 15.0156 14.0663 14.5998 13.6505C14.184 13.2347 13.6203 13.0009 13.0322 13.0003H6.96775C6.37975 13.0009 5.816 13.2347 5.40022 13.6505C4.98444 14.0663 4.7506 14.63 4.75 15.218V19.0003H3.25V15.218C3.25119 14.2324 3.64326 13.2874 4.34022 12.5905C5.03717 11.8935 5.98211 11.5015 6.96775 11.5003H13.0322C14.0179 11.5015 14.9628 11.8935 15.6598 12.5905C16.3567 13.2874 16.7488 14.2324 16.75 15.218V19.0003Z" fill="#44B64B"/>
<path d="M9.99996 9.99976C9.10994 9.99976 8.23991 9.73584 7.49989 9.24137C6.75987 8.7469 6.18309 8.0441 5.8425 7.22183C5.5019 6.39957 5.41279 5.49477 5.58642 4.62185C5.76006 3.74894 6.18864 2.94711 6.81798 2.31778C7.44731 1.68844 8.24914 1.25986 9.12205 1.08622C9.99497 0.912591 10.8998 1.00171 11.722 1.3423C12.5443 1.68289 13.2471 2.25967 13.7416 2.99969C14.236 3.73971 14.5 4.60974 14.5 5.49976C14.4988 6.69287 14.0243 7.83677 13.1806 8.68042C12.337 9.52408 11.1931 9.99857 9.99996 9.99976ZM9.99996 2.49976C9.40661 2.49976 8.82659 2.6757 8.33325 3.00535C7.8399 3.33499 7.45538 3.80353 7.22832 4.35171C7.00125 4.89989 6.94184 5.50309 7.0576 6.08503C7.17336 6.66697 7.45908 7.20152 7.87864 7.62108C8.29819 8.04064 8.83274 8.32636 9.41469 8.44211C9.99663 8.55787 10.5998 8.49846 11.148 8.2714C11.6962 8.04433 12.1647 7.65982 12.4944 7.16647C12.824 6.67312 13 6.0931 13 5.49976C13 4.70411 12.6839 3.94105 12.1213 3.37844C11.5587 2.81583 10.7956 2.49976 9.99996 2.49976Z" fill="#44B64B"/>
</svg>
