<svg width="60" height="60" viewBox="0 0 60 60" fill="none" xmlns="http://www.w3.org/2000/svg">
<path d="M38.4383 9.41943C46.501 9.41943 53.3435 11.1353 57.4395 13.6475V38.5285C57.4395 39.8639 56.9811 41.1494 56.4006 42.5754C54.7092 46.1741 51.8724 48.8884 48.5427 51.2267C46.2223 52.8561 43.735 54.258 41.2608 55.6526C40.3155 56.1854 39.3721 56.7171 38.4406 57.2601C37.5083 56.7166 36.564 56.1844 35.6178 55.6511C33.1441 54.2571 30.6574 52.8556 28.3373 51.2266C25.007 48.8883 22.1697 46.174 20.4784 42.5754C19.8978 41.1494 19.4395 39.864 19.4395 38.5285V13.6475C23.5353 11.1353 30.3756 9.41943 38.4383 9.41943Z" stroke="#F0F1FE" stroke-width="2"/>
<path d="M19.4358 1.70104C15.7151 2.21861 12.3362 3.66393 9.47486 5.93932C8.52759 6.69127 6.71119 8.53697 6.04713 9.40611C3.64478 12.5506 2.1897 16.0858 1.66236 20.0506C1.50611 21.2225 1.53541 24.1034 1.71119 25.3436C2.219 28.8397 3.59595 32.0819 5.74439 34.8846L6.19361 35.4608L5.6858 35.3924C4.94361 35.2948 4.50416 35.578 4.49439 36.1444C4.49439 36.4764 4.63111 36.7596 4.86548 36.8866C5.11939 37.0233 7.85377 37.4042 8.32252 37.3651C8.96705 37.3163 9.05494 37.1112 9.22095 35.3338C9.28931 34.5038 9.32838 33.7518 9.29908 33.6737C9.18189 33.3319 8.84986 33.0878 8.4983 33.0878C8.02955 33.0878 7.79517 33.3514 7.66822 33.9862L7.57056 34.4842L6.98463 33.6835C2.64869 27.7753 1.94556 20.8417 5.02173 14.3866C6.9065 10.4315 10.1487 7.11119 14.0452 5.12877C16.5745 3.83971 18.9182 3.23424 21.7307 3.13658C25.1878 3.01939 28.5569 3.88854 31.7698 5.72447C33.1272 6.50572 33.4592 6.57408 33.8401 6.18346C34.1428 5.89049 34.1526 5.47057 33.8889 5.12877C33.4885 4.62096 30.7249 3.19518 29.0256 2.62877C27.844 2.23814 27.1409 2.0526 25.8811 1.81822C24.4749 1.56432 20.8909 1.49596 19.4358 1.70104Z" fill="#44B64B"/>
<path d="M35.7537 7.24793C35.5681 7.44324 35.5095 7.71668 35.3338 9.15223C35.1287 10.8222 35.1287 10.8417 35.324 11.0956C35.5779 11.4374 35.9588 11.5546 36.3006 11.3886C36.6033 11.2421 36.7888 10.9296 36.867 10.4022L36.9256 10.0311L37.2771 10.4511C37.4724 10.6854 37.9314 11.33 38.3025 11.8964C39.9627 14.4354 40.9783 17.2968 41.3201 20.4022C41.4666 21.7011 41.3689 24.2108 41.1248 25.5682C40.8806 26.9647 41.0174 27.3261 41.8279 27.3261C42.5115 27.3261 42.7166 26.7499 42.9802 24.2499C43.117 22.8436 43.0486 20.3534 42.824 19.0253C42.2576 15.5975 40.9881 12.619 38.9177 9.83582L38.2146 8.89832L38.8396 8.94715C39.3963 8.98621 39.4842 8.96668 39.699 8.77137C40.0017 8.48817 40.031 7.92176 39.7674 7.59949C39.6111 7.41395 39.3963 7.35535 38.1853 7.1991C36.2615 6.95496 36.0271 6.96473 35.7537 7.24793Z" fill="#44B64B"/>
<path d="M19.8359 9.91395C19.6797 10.0409 19.084 11.7108 17.6289 16.0956C16.5254 19.3964 15.627 22.2186 15.627 22.3749C15.627 22.5311 15.7246 22.746 15.8711 22.8827L16.1055 23.1268H18.7031C20.4219 23.1268 21.291 23.1561 21.291 23.2245C21.291 23.2831 20.9004 25.6952 20.4121 28.5956C19.9336 31.496 19.5332 33.9764 19.5332 34.1132C19.5332 34.7284 20.4219 35.08 20.8906 34.6405C21.1836 34.3671 29.0059 18.6932 29.0059 18.3807C29.0059 18.2343 28.8887 18.0096 28.7227 17.8436L28.4395 17.5604H25.3145L26.1836 14.1132C26.6621 12.2284 27.0527 10.5975 27.0527 10.4999C27.0527 10.4022 26.9258 10.1874 26.7695 10.0311L26.4863 9.74793H23.2637C20.3438 9.74793 20.0215 9.76746 19.8359 9.91395ZM25.0996 11.5057C25.0996 11.5643 24.7285 13.0975 24.2695 14.9237C23.8105 16.7499 23.4395 18.3514 23.4395 18.4882C23.4395 18.6249 23.5469 18.8495 23.6836 18.9764C23.9082 19.2108 23.957 19.2206 25.3438 19.2206C26.125 19.2206 26.7598 19.2499 26.75 19.2889C26.7402 19.4452 22.1797 28.4393 22.1797 28.3221C22.1699 28.2538 22.3945 26.8768 22.6582 25.2753C22.9316 23.6737 23.1465 22.287 23.1465 22.1991C23.1465 22.1112 23.0195 21.9061 22.8633 21.7499L22.5801 21.4667H17.5996L19.2695 16.4374L20.9492 11.4081H23.0195C24.377 11.4081 25.0996 11.4471 25.0996 11.5057Z" fill="#44B64B"/>
<path d="M35.2564 27.5213C32.9518 27.8436 30.8814 28.9862 29.485 30.7147C28.5768 31.8475 28.0885 32.8338 27.6783 34.3573C27.4146 35.3046 27.4342 37.3553 27.7174 38.4784C28.4303 41.369 30.1783 43.4979 32.6979 44.5624C34.0455 45.119 34.7291 45.246 36.4771 45.2362C38.3619 45.2264 39.0943 45.0604 40.5787 44.3182C42.7955 43.2049 44.2408 41.4276 44.983 38.8983C45.3248 37.7362 45.4127 35.7538 45.1881 34.6307C44.485 31.2518 41.858 28.5077 38.567 27.7167C37.61 27.4921 36.1354 27.4042 35.2564 27.5213ZM38.1373 29.3671C39.1334 29.6112 39.7193 29.8651 40.5396 30.412C41.8385 31.2713 42.8443 32.6678 43.3619 34.3085C43.6646 35.2557 43.733 37.0721 43.5182 38.0194C43.1764 39.4842 42.19 41.0663 41.0182 42.0331C40.3834 42.5506 38.9479 43.2831 38.1764 43.4784C36.1549 43.9862 33.9771 43.576 32.2486 42.3651C30.2076 40.9296 28.9869 38.4784 29.1432 36.1151C29.3678 32.6483 31.5455 30.0506 34.817 29.328C35.7057 29.1327 37.2193 29.1522 38.1373 29.3671Z" fill="#44B64B"/>
<path d="M35.8418 29.9432C35.666 30.08 35.6074 30.2557 35.5684 30.6659C35.5293 31.1737 35.5098 31.203 35.1777 31.33C34.6211 31.5253 33.752 32.453 33.5566 33.0682C33.1758 34.2011 33.4004 35.3729 34.1426 36.203C34.6797 36.7987 35.2363 37.0819 36.1543 37.2089C37.2578 37.3554 37.6973 37.7264 37.7754 38.5663C37.8535 39.4061 37.2383 40.0507 36.3496 40.0507C35.666 40.0507 35.0898 39.5038 34.9922 38.7421C34.9238 38.1659 34.6406 37.8729 34.1719 37.8729C33.9668 37.8729 33.7129 37.9511 33.5859 38.0585C33.3906 38.2147 33.3516 38.3319 33.3516 38.8202C33.3613 39.8847 34.1328 41.0468 35.0996 41.4472C35.5195 41.6229 35.5293 41.6327 35.5684 42.16C35.627 42.7948 35.8711 43.0487 36.418 43.0487C36.9453 43.0487 37.209 42.7362 37.209 42.1112C37.209 41.6327 37.2188 41.6327 37.6387 41.4569C39.4355 40.7147 40.0312 38.3026 38.791 36.7304C38.3027 36.1151 37.5898 35.7343 36.6914 35.6073C35.9004 35.4999 35.5195 35.3339 35.3047 35.0018C34.7383 34.1327 35.1191 33.0878 36.1055 32.7948C36.4668 32.6874 36.5547 32.6972 36.9551 32.8827C37.4434 33.1268 37.7949 33.5956 37.7949 34.0057C37.7949 34.3378 38.0293 34.8065 38.2344 34.8847C38.5957 35.0214 39.0352 34.9432 39.2598 34.6991C39.7285 34.2011 39.3379 32.6874 38.5371 31.9354C38.2148 31.6229 37.541 31.2323 37.3359 31.2323C37.248 31.2323 37.209 31.0663 37.209 30.7147C37.209 30.2948 37.1602 30.1483 36.9844 29.9823C36.7012 29.7186 36.1445 29.6991 35.8418 29.9432Z" fill="#44B64B"/>
<path d="M10.803 38.371C10.5295 38.5858 10.4514 39.0838 10.6467 39.4354C10.7639 39.6503 12.3167 40.5878 13.4006 41.0858C16.1741 42.3651 18.5764 42.9315 21.6331 43.0194C24.3577 43.0975 26.6917 42.7948 27.1311 42.3065C27.4045 41.994 27.4045 41.5936 27.1311 41.2421C26.8967 40.9393 26.8186 40.9393 24.6604 41.2421C23.2542 41.4471 20.4514 41.3983 19.1428 41.1542C16.6624 40.6952 14.4651 39.8749 12.4436 38.6542C11.5452 38.1171 11.2034 38.0585 10.803 38.371Z" fill="#44B64B"/>
</svg>
