<svg width="60" height="60" viewBox="0 0 60 60" fill="none" xmlns="http://www.w3.org/2000/svg">
<path d="M37.2313 10.0723C45.294 10.0723 52.1365 11.7881 56.2324 14.3004V39.1813C56.2324 40.5168 55.7741 41.8022 55.1935 43.2282C53.5022 46.8269 50.6654 49.5412 47.3357 51.8795C45.0153 53.5089 42.528 54.9109 40.0538 56.3054C39.1085 56.8382 38.1651 57.3699 37.2336 57.9129C36.3013 57.3695 35.357 56.8373 34.4107 56.304C31.9371 54.9099 29.4503 53.5084 27.1303 51.8794C23.8 49.5412 20.9627 46.8269 19.2713 43.2282C18.6907 41.8022 18.2324 40.5168 18.2324 39.1813V14.3003C22.3282 11.7881 29.1686 10.0723 37.2313 10.0723Z" stroke="#F3F4FF" stroke-width="2"/>
<path d="M7.0959 1.19141C6.89082 1.44531 6.89082 1.52344 6.92012 4.29688L6.94941 7.12891L7.26191 7.7832C7.42793 8.14453 7.76973 8.66211 8.02363 8.91602C8.47285 9.4043 9.52754 10.0098 9.91816 10.0098C10.1232 10.0098 10.1232 10.0098 10.1232 12.5684C10.1135 15.4004 10.1525 15.7031 10.6994 16.4844C10.8654 16.7383 11.1975 17.0703 11.4318 17.2266C12.2131 17.7637 14.5764 19.0723 14.967 19.1797C15.8361 19.4238 17.2033 19.248 17.6623 18.8281C17.9162 18.6035 17.8967 17.9785 17.633 17.7148C17.467 17.5488 17.3498 17.5195 17.0275 17.5684C15.4943 17.793 15.6115 17.8125 14.3029 17.0898C12.3693 16.0254 12.0861 15.8203 11.8713 15.3418C11.6662 14.873 11.6369 14.2676 11.6662 11.6895L11.6857 10.1074H17.7502L17.9846 9.86328C18.3654 9.49219 18.2482 8.86719 17.7697 8.65234C17.6135 8.58398 16.3635 8.54492 13.9514 8.54492C10.5529 8.54492 10.3479 8.52539 9.92793 8.33984C9.34199 8.07617 8.9709 7.71484 8.69746 7.12891C8.47285 6.66016 8.46309 6.54297 8.46309 4.56055V2.48047L19.1564 2.53906L19.6838 2.8125C20.4553 3.22266 21.09 3.85742 21.4123 4.57031L21.6955 5.17578L21.7443 12.5C21.7736 16.5234 21.8322 19.9023 21.8713 19.9902C21.9689 20.1855 21.9104 20.166 23.8439 20.8105C24.6936 21.1035 25.5139 21.3379 25.6604 21.3379C25.8068 21.3379 26.0217 21.2598 26.1486 21.1523C26.4318 20.9277 26.4514 20.3613 26.1975 20.0781C26.0998 19.9707 25.4357 19.6875 24.6643 19.4336L23.3068 18.9746V12.207C23.3068 7.63672 23.2678 5.26367 23.1994 4.91211C22.8186 3.06641 21.1682 1.41602 19.3225 1.03516C18.9807 0.966797 16.8713 0.927734 13.0529 0.927734H7.30098L7.0959 1.19141Z" fill="#44B64B"/>
<path d="M8.95162 21.1426C7.90669 21.5625 6.82271 22.041 6.54927 22.207C5.48482 22.8418 4.43013 24.2773 4.1274 25.498C4.03951 25.8203 3.89302 27.1973 3.77584 28.5644C3.66841 29.9316 3.38521 33.5156 3.14107 36.5234C2.70162 41.8945 2.70162 41.9922 2.8774 42.2363C3.1606 42.6172 3.96138 42.6269 4.15669 42.2461C4.21529 42.1484 4.37154 40.7129 4.50826 39.0527C4.63521 37.3926 4.92818 33.8476 5.14302 31.1621C5.35787 28.4863 5.56294 26.1816 5.60201 26.0351C5.82662 25.0879 6.6274 24.0039 7.43794 23.5351C7.65279 23.4082 8.66841 22.9687 9.68404 22.5586C10.7094 22.1484 11.6176 21.7285 11.7153 21.6113C12.0961 21.1523 11.7251 20.3516 11.1294 20.3711C10.9829 20.3711 9.99654 20.7226 8.95162 21.1426Z" fill="#44B64B"/>
<path d="M26.2461 23.0859C22.6816 24.3652 21.373 24.873 21.2363 25.0391C21.0703 25.2539 21.0605 25.5762 21.0605 31.2891C21.0605 37.959 21.0703 38.0762 21.6855 39.375C22.8477 41.8164 25.6699 44.2676 29.8691 46.4746C31.4805 47.3242 31.4805 47.3242 33.2188 46.3769C38.2773 43.6133 41.1289 40.7226 41.6562 37.8027C41.7246 37.4219 41.7637 35.1074 41.7637 31.2402V25.2539L41.5488 25.0098C41.373 24.8242 40.1621 24.3555 36.4902 23.0566C33.8242 22.1094 31.5195 21.3476 31.3633 21.3476C31.1973 21.3574 28.9023 22.1387 26.2461 23.0859ZM39.2051 25.7031L40.2012 26.0644V31.6406C40.2012 37.832 40.2012 37.8223 39.5469 39.0137C38.8535 40.2832 37.8086 41.3965 36.0605 42.7148C34.625 43.7988 31.8027 45.459 31.4023 45.459C31.1973 45.459 29 44.2187 27.8379 43.4375C24.9277 41.5039 23.0527 39.3457 22.7207 37.5586C22.6621 37.2461 22.623 34.7851 22.623 31.543V26.0644L24.6543 25.3418C25.7676 24.9512 27.7402 24.2383 29.0488 23.7793L31.4219 22.9297L34.8105 24.1406C36.6758 24.8047 38.6484 25.5078 39.2051 25.7031Z" fill="#44B64B"/>
<path d="M32.5848 33.3008L30.2801 35.5957L29.6551 34.9512C28.6883 33.9746 28.2684 33.8379 27.7996 34.3457C27.3797 34.7949 27.5067 35.0488 28.8055 36.3477C29.7918 37.334 30.0555 37.5488 30.2899 37.5488C30.534 37.5488 30.9832 37.1484 33.3075 34.8242C35.8563 32.2852 36.0418 32.0703 36.0418 31.748C36.0418 31.2695 35.7782 31.0059 35.2801 31.0059C34.8993 31.0059 34.8309 31.0645 32.5848 33.3008Z" fill="#44B64B"/>
<path d="M9.35161 28.6523C9.24419 28.7598 9.127 28.9941 9.09771 29.1699C9.06841 29.3457 9.04888 32.334 9.06841 35.8008C9.09771 41.8555 9.10747 42.1289 9.28325 42.3242C9.53716 42.5977 10.1426 42.6074 10.4161 42.334C10.6114 42.1387 10.6114 42.0117 10.6114 35.498C10.6114 28.9844 10.6114 28.8574 10.4161 28.6621C10.1622 28.4082 9.60552 28.3984 9.35161 28.6523Z" fill="#44B64B"/>
</svg>
