<svg width="60" height="60" viewBox="0 0 60 60" fill="none" xmlns="http://www.w3.org/2000/svg">
<g clip-path="url(#clip0_33_6268)">
<path d="M60.0059 11.9465C55.7492 9.13221 48.4794 7.26709 40.0048 7.26709C31.5301 7.26709 24.2627 9.13221 20.0059 11.9465V37.3761C20.0059 38.9354 20.5443 40.3913 21.1285 41.8243C24.7156 49.4862 33.117 53.1972 40.0071 57.2671C46.8972 53.1972 55.2963 49.4862 58.8834 41.8243C59.4675 40.3913 60.0059 38.9354 60.0059 37.3761V11.9465Z" fill="#F8F8FF"/>
<path d="M28.1504 2.9017C27.9063 3.11654 26.4707 6.20248 26.4707 6.51498C26.4707 7.08138 27.2813 7.42318 27.7305 7.05209C28.0235 6.81771 29.4004 3.85873 29.4004 3.4681C29.4004 2.86263 28.6192 2.50131 28.1504 2.9017Z" fill="#44B64B"/>
<path d="M20.67 6.2806C20.5332 6.42708 20.416 6.5931 20.416 6.66145C20.4063 7.14974 19.7325 12.638 19.6641 12.6966C19.625 12.7357 18.8828 13.0189 18.0235 13.3314C14.7227 14.513 14.752 14.5033 14.752 15.1087C14.752 15.265 14.8106 15.47 14.8789 15.5482C14.9375 15.6361 16.1875 16.3587 17.6328 17.14C20.5235 18.7025 20.7676 18.7904 21.168 18.3118C21.4317 18.0189 21.4512 17.7064 21.2461 17.4134C21.168 17.2962 20.3086 16.7786 19.3418 16.2513C18.375 15.7337 17.584 15.2747 17.584 15.2357C17.584 15.1966 18.2969 14.9134 19.1758 14.6009C20.0547 14.2884 20.8653 13.9368 20.9922 13.8197C21.2071 13.6146 21.2364 13.4095 21.5 11.1341C21.6465 9.77669 21.793 8.65364 21.8125 8.63411C21.8321 8.60481 22.6621 9.35677 23.6485 10.2943C24.7129 11.3001 25.5528 12.0325 25.6992 12.0618C25.8848 12.1009 26.4707 11.9349 27.6817 11.4954C28.6289 11.1536 29.4004 10.8997 29.4004 10.929C29.4004 10.9681 29.0684 11.8177 28.668 12.8236C28.2676 13.8294 27.9356 14.7767 27.9356 14.9232C27.9356 15.5091 28.8438 15.8802 29.2344 15.4505C29.3223 15.3529 29.8985 13.9954 30.5235 12.4329C31.6856 9.49349 31.7442 9.27864 31.3731 8.95638C31.0117 8.63411 30.8164 8.67317 28.4922 9.52278C27.2324 9.98177 26.168 10.3529 26.1289 10.3529C26.041 10.3529 25.1914 9.57161 23.2188 7.68685C21.4024 5.94856 21.1387 5.81185 20.67 6.2806Z" fill="#44B64B"/>
<path d="M12.8866 8.39972C12.7987 8.44855 12.6718 8.62433 12.6034 8.79035C12.4276 9.2005 12.6132 9.6009 13.0721 9.8255C15.0643 10.7728 16.1093 11.2318 16.2948 11.2318C16.6366 11.2318 16.8612 11.0755 16.9979 10.7435C17.1932 10.265 16.9882 9.92316 16.3241 9.61066C13.4042 8.22394 13.2675 8.17511 12.8866 8.39972Z" fill="#44B64B"/>
<path d="M33.1697 13.1947C32.9743 13.3509 32.9158 13.4779 32.9158 13.7611C32.9158 14.3372 33.0915 14.4935 33.824 14.5521L34.4587 14.6009L32.7595 17.8236C31.0115 21.1536 30.7673 21.7591 30.7673 22.7747C30.7673 23.2239 31.3142 26.1829 31.4997 26.7298C31.5193 26.7982 31.0993 27.4622 30.5622 28.2142C30.0251 28.9759 29.5466 29.6986 29.4978 29.845C29.4392 29.9818 29.4001 30.9681 29.4001 32.0325V33.9661L29.0779 34.0736C28.8923 34.1419 28.6189 34.3177 28.4626 34.4837L28.1794 34.7767L28.1501 36.2122C28.1208 37.8431 28.2185 38.1654 28.824 38.4974C29.1267 38.6634 29.4587 38.6732 32.8669 38.6732H36.5876L37.0954 39.4056C38.2868 41.1243 40.1521 41.9447 42.2517 41.6907C43.1892 41.5736 44.0388 41.2318 44.7712 40.6751C45.3865 40.2161 46.1189 39.3958 46.3044 38.9466L46.4118 38.6732H47.9548C49.3611 38.6732 49.5173 38.6536 49.7517 38.4681C50.0837 38.2044 50.113 37.6087 49.7908 37.306C49.5954 37.1302 49.449 37.1107 48.2575 37.1107H46.9294V35.5482H48.2771C49.488 35.5482 49.6345 35.5286 49.8103 35.3529C50.113 35.0501 50.074 34.4447 49.7517 34.1907C49.5173 34.0052 49.3611 33.9857 47.9646 33.9857H46.4411L46.1482 33.4876C45.1423 31.7982 42.3884 30.431 41.8904 31.3685C41.7243 31.6712 41.7634 32.1204 41.9587 32.3353C42.0466 32.4427 42.3103 32.5697 42.5251 32.6282C43.5798 32.9114 44.5368 33.7318 45.0349 34.7962C45.8943 36.6419 45.113 38.8099 43.2478 39.7572C42.4665 40.1575 41.6365 40.265 40.7868 40.0892C39.5368 39.8255 38.6384 39.1029 38.0525 37.8919C37.779 37.3157 37.7497 37.1693 37.7497 36.3294C37.7497 35.5872 37.7986 35.304 37.9646 34.9329C38.2868 34.2298 38.7263 33.6732 39.2927 33.2435C39.9275 32.7747 39.947 32.7454 39.947 32.306C39.947 31.9056 39.6052 31.5443 39.2243 31.5443C38.697 31.5443 37.3591 32.7064 36.9099 33.5462L36.6755 33.9857H30.9626V30.9583H32.6033C34.9372 30.9583 35.5525 30.7239 36.0798 29.6693C36.3142 29.2103 36.3337 29.0638 36.3337 27.9603C36.3337 26.8079 36.324 26.7396 36.0896 26.515C35.865 26.2806 35.8161 26.2708 34.4392 26.2708C33.1794 26.2708 33.0232 26.2513 32.9743 26.095C32.7986 25.47 32.3298 23.0677 32.3298 22.7747C32.3298 22.1302 32.5154 21.7103 34.4001 18.1068L36.2654 14.5521H37.9158L37.7204 14.8646C37.613 15.0404 36.8318 16.5443 35.9822 18.2142L34.4294 21.2415V22.0228C34.4294 22.7064 34.4685 22.8724 34.7126 23.3216C34.8786 23.6146 35.1716 23.9759 35.3669 24.1322C36.0993 24.7083 36.1091 24.7083 39.947 24.7083C43.3357 24.7083 43.4724 24.6986 43.6579 24.513C43.8337 24.3372 43.8533 24.1907 43.8533 22.6087C43.8533 21.0267 43.8337 20.8802 43.6579 20.7044C43.3552 20.4017 42.7497 20.4407 42.4958 20.763C42.32 20.9974 42.2908 21.1634 42.2908 22.14V23.2532L39.5368 23.2239C37.0661 23.1947 36.7439 23.1751 36.5095 23.0189C36.1677 22.7845 35.904 22.2181 35.9822 21.8763C36.0115 21.72 36.8415 20.0208 37.8376 18.097L39.6443 14.6009L42.2908 14.5423V16.2806C42.2908 18.1654 42.3396 18.3704 42.8376 18.556C43.1208 18.6634 43.6286 18.5072 43.7556 18.263C43.8142 18.1654 43.8533 17.2865 43.8533 16.3197V14.5521H45.4158V19.4349C45.4158 24.1907 45.4255 24.3275 45.6111 24.513C45.7966 24.6986 45.9333 24.7083 47.74 24.7083C49.947 24.7083 50.0056 24.6888 50.0056 23.9564C50.0056 23.3021 49.8591 23.2435 48.3161 23.2435H46.9783V14.5521H48.2966C49.488 14.5521 49.6345 14.5325 49.8103 14.3568C50.113 14.054 50.074 13.4486 49.7517 13.1947C49.488 12.9896 49.4392 12.9896 41.4607 12.9896C33.4822 12.9896 33.4333 12.9896 33.1697 13.1947ZM34.7712 28.3411C34.7615 29.2493 34.5075 29.3958 32.9158 29.3958C32.2615 29.3958 31.7439 29.3568 31.7634 29.3177C31.7829 29.2786 32.0173 28.9271 32.281 28.5364L32.7693 27.8431L33.7751 27.8333H34.7712V28.3411ZM36.1384 37.1107H29.6931V35.5482H36.1384V37.1107Z" fill="#44B64B"/>
<path d="M0.542844 15.89C0.181516 15.9779 0.00573462 16.222 0.00573462 16.6517C0.00573462 17.1693 0.103391 17.2571 1.19714 17.6478C2.16394 17.9896 3.20886 18.6048 3.99011 19.2982C4.44909 19.6986 7.32995 23.0677 7.32995 23.1946C7.32995 23.2239 6.87097 23.2435 6.30456 23.2435C5.40613 23.2435 5.26941 23.2239 5.22058 23.0677C4.94714 22.1693 4.47839 21.5833 3.74597 21.2318C3.25769 20.9876 3.08191 20.9583 2.16394 20.9486C1.24597 20.9486 1.08972 20.9778 0.767453 21.1732C0.132688 21.5736 0.00573462 21.8861 0.00573462 23.1458C0.00573462 24.3861 0.122922 24.7669 0.630735 25.1282C0.913938 25.3333 1.04089 25.3431 2.828 25.3528L4.71277 25.3724L5.2987 25.9388C5.62097 26.2611 6.01159 26.6907 6.16784 26.8958L6.45105 27.2767V34.181H3.44323C0.55261 34.181 0.425656 34.1907 0.220578 34.3763C-0.101687 34.679 -0.0723904 35.2747 0.259641 35.5384C0.513547 35.7435 0.620969 35.7435 4.97644 35.7435H9.42956V37.0911L8.08191 37.1302C6.73425 37.1595 6.72448 37.1595 6.49011 37.4329C6.20691 37.765 6.18738 38.0775 6.46081 38.4193L6.65613 38.6732H9.93738L10.1229 39.0833C10.3964 39.7083 11.5585 40.8314 12.3104 41.1927C14.8885 42.4427 17.8768 41.6712 19.3417 39.3763L19.7811 38.6829H22.8866C26.2069 38.6732 26.2753 38.6634 26.7342 38.1654C27.2128 37.6575 27.2518 37.3841 27.2518 34.7962C27.2518 32.6478 27.2225 32.3255 27.0663 31.9739C26.8514 31.4954 26.4803 31.1927 25.9432 31.0462C25.3085 30.8802 25.2889 30.8509 24.9374 29.8939C24.5565 28.8294 24.3514 28.5071 23.9217 28.2923C23.6092 28.1458 23.6092 28.1361 23.5897 27.3743C23.5604 26.2708 23.2772 25.597 22.5057 24.8353L21.9003 24.22L23.4921 22.5501L24.5565 23.2825C25.6893 24.0638 26.0214 24.1712 26.451 23.8685C26.6171 23.7513 26.6659 23.6243 26.6659 23.2923C26.6659 22.8626 26.6561 22.8431 25.9628 22.3353C24.2342 21.0657 23.8339 20.89 23.0428 21.095C22.6717 21.1829 22.4081 21.4075 21.1483 22.7064C19.6737 24.2103 19.371 24.4446 18.7557 24.5618C18.4725 24.6107 9.60534 23.4193 9.52722 23.3216C9.51745 23.3021 8.65808 22.2571 7.60339 20.9974C5.66003 18.6536 4.97644 17.9407 4.01941 17.2962C2.7987 16.4661 1.07019 15.7728 0.542844 15.89ZM3.18933 22.7161C3.44323 22.8919 3.71667 23.3802 3.71667 23.6829C3.71667 23.8099 3.56042 23.8294 2.62292 23.8099L1.51941 23.7806L1.49011 23.3509C1.47058 23.1068 1.48034 22.804 1.51941 22.6771C1.578 22.4427 1.59753 22.4329 2.25183 22.4915C2.64245 22.5208 3.03308 22.6185 3.18933 22.7161ZM11.1093 25.1478C14.078 25.5872 13.8339 25.5189 13.9218 25.9486C14.0878 26.8568 14.9667 27.9798 15.826 28.3997C16.0702 28.5071 17.1151 28.8392 18.1503 29.1126C19.9862 29.6107 20.0253 29.6302 20.0253 29.8841C20.0253 30.7728 20.7089 31.8275 21.5682 32.2474C21.9882 32.4525 22.1932 32.472 23.8339 32.5208L25.6405 32.5696V37.0618L22.9354 37.0911L20.2206 37.1107V36.2708C20.2206 34.679 19.5272 33.2239 18.2479 32.1595C17.7987 31.7884 17.4276 31.7493 17.0565 32.0423C16.871 32.1888 16.8026 32.3255 16.8026 32.5892C16.8026 32.8919 16.9003 33.0384 17.4374 33.6048C17.8182 33.9954 18.1893 34.4935 18.3456 34.8353C18.58 35.3333 18.6093 35.5189 18.6093 36.3782C18.6093 37.2669 18.58 37.4134 18.3065 37.9896C17.4764 39.7571 15.4647 40.6458 13.6874 40.0404C12.8866 39.7767 12.3104 39.3763 11.8221 38.7611C10.6014 37.2181 10.7186 35.0794 12.1151 33.6829C12.662 33.1361 13.326 32.7747 14.1757 32.5794C14.5175 32.5013 14.8495 32.3646 14.9178 32.2669C15.0839 32.0325 15.0741 31.5345 14.8983 31.2806C14.6932 30.9876 14.3417 30.9388 13.6093 31.1048C12.1835 31.4368 10.9139 32.345 10.2206 33.5364L9.83972 34.181H8.01355V27.0032L7.76941 26.4857C7.64245 26.2025 7.28113 25.7044 6.97839 25.3821L6.42175 24.806H7.60339C8.44324 24.806 9.44909 24.9036 11.1093 25.1478ZM21.3241 25.9095C21.9589 26.5247 22.1639 27.14 21.9784 27.8236L21.871 28.2239H21.3632C20.7186 28.2239 16.9979 27.2181 16.4315 26.8958C16.0604 26.6712 15.4452 25.9388 15.5428 25.8314C15.5721 25.8118 16.1581 25.8802 16.8514 25.9778C17.5546 26.0853 18.2772 26.1732 18.4628 26.1732C18.9901 26.1732 19.9374 25.8997 20.3182 25.6361C20.5038 25.5091 20.6893 25.4017 20.7284 25.4017C20.7675 25.3919 21.0311 25.6263 21.3241 25.9095ZM23.619 30.9583H23.0721C22.4178 30.9583 21.9686 30.7239 21.7342 30.2845C21.4706 29.7669 21.5292 29.7278 22.6132 29.6986L23.2089 29.6888L23.619 30.9583Z" fill="#44B64B"/>
<path d="M13.9901 34.2103C12.8768 34.6204 12.2616 35.9193 12.6229 37.1204C12.7694 37.6282 13.3358 38.263 13.8143 38.4876C14.41 38.7513 15.3866 38.7318 15.9335 38.4486C17.5643 37.5892 17.5448 35.1575 15.9042 34.3372C15.3475 34.054 14.5663 34.0052 13.9901 34.2103ZM15.2499 35.7728C15.5526 36.0071 15.66 36.3196 15.5233 36.6321C15.3866 36.9739 15.1718 37.1107 14.7616 37.1107C14.4198 37.1107 14.0682 36.7298 14.0682 36.3587C14.0682 35.8411 14.8397 35.4505 15.2499 35.7728Z" fill="#44B64B"/>
<path d="M21.5879 34.2786C21.334 34.5325 21.334 35.0599 21.5782 35.3626C21.7442 35.5677 21.8614 35.597 22.6036 35.636C23.0723 35.6458 23.5606 35.636 23.6875 35.6068C24.293 35.4505 24.5079 34.8255 24.1172 34.3372C23.9219 34.0931 23.8829 34.0833 22.8477 34.0833C21.9102 34.0833 21.7637 34.1028 21.5879 34.2786Z" fill="#44B64B"/>
<path d="M47.0365 26.4758C46.7143 26.7297 46.6752 27.3352 46.9779 27.6379C47.1537 27.8137 47.3002 27.8332 48.3939 27.8332C49.4877 27.8332 49.6342 27.8137 49.81 27.6379C50.1127 27.3352 50.0736 26.7297 49.7514 26.4758C49.5268 26.3 49.351 26.2707 48.3939 26.2707C47.4369 26.2707 47.2611 26.3 47.0365 26.4758Z" fill="#44B64B"/>
<path d="M40.8262 34.1321C39.8496 34.4349 39.2637 35.2552 39.2637 36.3099C39.2637 37.7357 40.1426 38.6146 41.5684 38.6243C42.1641 38.6243 42.3203 38.5853 42.7403 38.3314C44.4492 37.2767 44.127 34.6985 42.2129 34.1224C41.6758 33.9564 41.3926 33.9564 40.8262 34.1321ZM41.8321 35.6653C42.1446 35.8216 42.2813 36.0462 42.291 36.3587C42.291 36.7005 41.9004 37.1107 41.5586 37.1107C41.4219 37.1107 41.1973 37.0032 41.0703 36.8665C40.6895 36.4954 40.7871 35.8314 41.2461 35.6458C41.5391 35.5286 41.5879 35.5286 41.8321 35.6653Z" fill="#44B64B"/>
<path d="M0.542989 37.179C0.171895 37.2669 0.00587973 37.511 0.00587973 37.9505C0.00587973 38.6341 0.132833 38.6732 2.22268 38.6732C3.88283 38.6732 4.01955 38.6634 4.2051 38.4778C4.41018 38.2728 4.45901 37.804 4.30276 37.5013C4.25393 37.4036 4.06838 37.2767 3.90236 37.2181C3.59963 37.1107 0.94338 37.0814 0.542989 37.179Z" fill="#44B64B"/>
</g>
<defs>
<clipPath id="clip0_33_6268">
<rect width="60" height="60" fill="white"/>
</clipPath>
</defs>
</svg>
