<svg width="60" height="60" viewBox="0 0 60 60" fill="none" xmlns="http://www.w3.org/2000/svg">
<path d="M30.921 0.143819C30.3253 0.368428 29.6905 0.87624 29.3585 1.41335C29.1827 1.68679 27.2686 4.99733 25.0909 8.76687L21.1358 15.6223H12.2882C2.58114 15.6223 2.96199 15.6028 2.21981 16.2083C2.02449 16.3743 1.76082 16.7063 1.63387 16.9602L1.40926 17.429L1.37996 26.0227C1.36043 31.9016 1.38973 34.7727 1.45809 35.1145C1.59481 35.7688 2.00496 36.3352 2.60067 36.6868L3.06942 36.9602L7.65926 36.9895C12.5225 37.0188 12.5616 37.0188 12.7764 36.5501C12.9425 36.1887 12.9132 36.0423 12.6007 35.7298L12.3175 35.4466H9.66121L9.61239 35.1731C9.26082 33.4934 8.68465 32.263 7.73739 31.2473C6.56551 29.9778 5.15926 29.1868 3.57723 28.8938L2.92293 28.7766V23.8645L3.63582 23.7473C4.44637 23.6106 5.67684 23.1028 6.3995 22.6048C7.12215 22.1067 7.97176 21.2376 8.44051 20.5051C9.06551 19.5481 9.30965 18.9036 9.62215 17.3997L9.66121 17.1848H17.1319C21.2432 17.1848 24.6026 17.2044 24.6026 17.2239C24.6026 17.2434 24.378 17.6829 24.1046 18.2005C23.6358 19.0989 23.587 19.1477 23.3429 19.0989C21.7608 18.7278 20.8819 18.679 19.7198 18.8841C18.1671 19.1673 16.8389 19.8606 15.7159 20.9934C14.4854 22.2141 13.7725 23.6887 13.5479 25.4173C13.2061 28.1321 14.4757 30.9641 16.7315 32.5071C17.6397 33.1321 19.2999 33.7864 19.9835 33.7864C20.1104 33.7864 20.2081 33.8157 20.2081 33.8645C20.2081 33.9036 20.0811 34.2649 19.9249 34.6653L19.6514 35.3977L17.1514 35.4466C14.8761 35.4954 14.6417 35.5149 14.4561 35.6809C14.1632 35.9446 14.1827 36.5208 14.4757 36.7942C14.7003 37.0091 14.7589 37.0091 17.5909 37.0091C20.1983 37.0091 20.5011 36.9895 20.6768 36.8333C20.9112 36.638 24.4073 27.3606 24.4073 26.9309C24.4073 26.5891 24.1729 26.345 23.5089 26.013C23.2257 25.8665 22.8057 25.6516 22.5811 25.5149L22.171 25.2805L22.5323 24.5481L22.8839 23.8255L43.0108 23.7766L43.4698 23.5618C44.4268 23.1223 45.2179 22.0286 45.3546 20.9446C45.4815 19.8899 45.4522 19.8216 41.6241 13.1907C39.6612 9.77273 37.962 6.8821 37.8546 6.75515C37.4347 6.29616 36.5167 6.64772 36.5167 7.27272C36.5167 7.42897 37.8643 9.85085 40.003 13.552C41.9171 16.8626 43.5675 19.7727 43.6651 20.0071C43.9972 20.7395 43.6358 21.677 42.8643 22.0676C42.4835 22.263 42.3175 22.263 33.1182 22.263H23.7432L25.1593 19.5969C26.6534 16.7942 26.7804 16.511 26.6925 16.1399C26.585 15.7102 26.2139 15.6223 24.5538 15.6223C23.7237 15.6223 23.0401 15.593 23.0401 15.5637C23.0401 15.388 30.7452 2.17507 30.9796 1.95046C31.5167 1.43288 32.4444 1.38405 33.0987 1.8528C33.2354 1.95046 33.7139 2.67312 34.1632 3.4446C34.6026 4.22585 35.0616 4.93874 35.1593 5.0364C35.4425 5.2903 36.0089 5.27077 36.2335 4.98757C36.5655 4.58718 36.4679 4.26491 35.5694 2.69265C34.6124 1.03249 34.1436 0.495381 33.3331 0.192647C32.6983 -0.0417283 31.4972 -0.0612595 30.921 0.143819ZM8.00106 17.429C8.00106 17.7512 7.60067 18.8157 7.26864 19.3919C6.87801 20.0559 6.00887 20.9544 5.32528 21.4036C4.8077 21.7356 3.43074 22.263 3.05965 22.263C2.86434 22.263 2.86434 18.0442 3.05965 17.6829C3.31356 17.2239 3.50887 17.1946 5.83309 17.1848H8.00106V17.429ZM22.4639 20.5051L22.8253 20.6028L21.5655 22.9758C20.3839 25.1926 20.2179 25.6223 20.3643 26.013C20.4034 26.1008 20.9307 26.4426 21.5362 26.7649C22.1514 27.0872 22.6495 27.3606 22.6495 27.3704C22.6495 27.3801 22.2296 28.4837 21.7315 29.8313L20.8136 32.2727L20.3936 32.2434C18.2647 32.1165 16.0089 30.2415 15.3155 28.0247C14.4757 25.3098 15.7745 22.302 18.3526 21.013C18.8116 20.7883 19.4659 20.5344 19.8175 20.4563C20.5011 20.3001 21.8487 20.3294 22.4639 20.5051ZM3.64559 30.5149C5.00301 30.8665 6.51668 31.9895 7.21981 33.1614C7.58114 33.7571 7.99129 34.8606 8.00106 35.2219V35.4466H5.79403C4.47567 35.4466 3.51864 35.4075 3.40145 35.3489C2.98153 35.1145 2.92293 34.802 2.92293 32.5169C2.92293 31.3352 2.96199 30.3684 3.00106 30.3684C3.04012 30.3684 3.33309 30.4368 3.64559 30.5149Z" fill="#44B64B"/>
<path d="M31.087 5.9446C30.6085 6.16921 30.0421 6.80397 29.8956 7.31179C29.8175 7.55593 29.7784 8.63015 29.7784 10.4563C29.7784 13.1614 29.7882 13.2395 30.0128 13.7278C30.5011 14.7825 31.6339 15.2708 32.8448 14.929C33.3429 14.7923 34.0948 14.0403 34.2511 13.513C34.3975 12.9954 34.4171 7.82936 34.2608 7.29225C34.1339 6.81374 33.5479 6.16921 33.0499 5.9446C32.5323 5.71022 31.6143 5.71022 31.087 5.9446ZM32.6007 7.57546C32.796 7.8196 32.8057 7.95632 32.8057 10.4173V12.9954L32.5616 13.2298C32.4347 13.3665 32.21 13.4739 32.0733 13.4739C31.9366 13.4739 31.712 13.3665 31.585 13.2298L31.3409 12.9954V10.4173C31.3409 7.95632 31.3507 7.8196 31.546 7.57546C31.6925 7.38991 31.8389 7.32155 32.0733 7.32155C32.3077 7.32155 32.4542 7.38991 32.6007 7.57546Z" fill="#44B64B"/>
<path d="M31.2628 15.9446C30.7354 16.1399 30.2569 16.5989 30.003 17.1653C29.3975 18.4739 30.1104 19.9387 31.5264 20.3098C33.3721 20.7981 34.9542 18.8743 34.1339 17.1262C33.6358 16.0618 32.3761 15.5442 31.2628 15.9446ZM32.5616 17.6243C32.9425 18.0051 32.8741 18.4641 32.3956 18.7083C32.1612 18.8255 32.044 18.8352 31.8292 18.7473C31.5655 18.6399 31.3409 18.2981 31.3409 18.0051C31.3409 17.7708 31.7999 17.3801 32.0733 17.3801C32.21 17.3801 32.4347 17.4876 32.5616 17.6243Z" fill="#44B64B"/>
<path d="M28.3819 28.2298C25.9112 29.9973 23.9581 31.4719 23.8995 31.5989C23.7432 31.9309 23.8507 32.2044 24.5538 33.1712C24.9054 33.6692 25.1886 34.1087 25.1886 34.1575C25.1886 34.2063 23.6749 35.6614 21.8292 37.3899C19.9835 39.1184 18.4405 40.6028 18.4112 40.6809C18.294 40.9934 18.3624 41.3743 18.5772 41.5696C18.6944 41.677 22.4835 43.6106 26.9952 45.8469C35.1104 49.8899 35.2081 49.929 35.8917 49.9778C36.6827 50.0266 37.3761 49.7923 37.8155 49.3333C37.9522 49.1868 39.8175 45.5637 41.9464 41.2766L45.8331 33.4837V32.8294C45.8331 32.2923 45.7843 32.0774 45.5499 31.6575C45.4034 31.3841 45.1397 31.0423 44.9737 30.9153C44.3975 30.4759 33.3819 25.095 33.0597 25.095C32.8155 25.095 31.8389 25.7493 28.3819 28.2298ZM35.8624 28.0833C37.3175 28.8157 38.5284 29.4212 38.5479 29.4309C38.5577 29.4505 38.4796 29.802 38.3722 30.2219C38.128 31.1692 38.1085 32.7219 38.3331 33.718C38.4112 34.1087 38.7042 34.8704 38.9679 35.427C39.3682 36.2571 39.5831 36.5598 40.2081 37.1848C40.6182 37.6048 41.0968 38.054 41.2725 38.1907L41.585 38.4251L40.5206 40.6028C39.6319 42.4192 39.4268 42.7805 39.2804 42.7317C38.0499 42.3508 36.3116 42.2727 35.1202 42.5364C34.2315 42.7317 32.835 43.4055 32.0929 43.9915C31.7901 44.2356 31.2823 44.7434 30.9796 45.1145L30.4327 45.7883L25.5401 43.3372C22.8448 41.9895 20.628 40.8762 20.5987 40.8567C20.5792 40.8274 20.8233 40.5442 21.1456 40.2219L21.7315 39.636L22.1417 39.7825C22.3761 39.8704 22.9425 39.9876 23.4014 40.0462C24.8565 40.2415 26.2725 39.9973 27.6788 39.304C29.2022 38.5618 30.3546 37.3997 31.0968 35.8958C32.0929 33.8645 32.0929 31.3157 31.087 29.2063C30.8233 28.6497 30.7745 28.4544 30.8722 28.4055C30.9405 28.3665 31.4874 27.9759 32.0733 27.5462C32.669 27.1165 33.1573 26.7649 33.1768 26.7551C33.1866 26.7551 34.3975 27.3509 35.8624 28.0833ZM29.7296 29.9973C30.2667 31.1887 30.4327 32.8294 30.1202 34.0305C29.5343 36.2669 27.7179 37.9661 25.4034 38.4251C24.5831 38.5911 23.0889 38.5618 23.1573 38.3762C23.1768 38.3372 23.9972 37.5462 24.9932 36.6184C25.9893 35.6907 26.8585 34.8704 26.9268 34.7825C26.9854 34.6946 27.044 34.47 27.044 34.2747C27.044 33.9915 26.9073 33.7278 26.3995 33.0149C26.0479 32.5169 25.7843 32.0872 25.8136 32.0579C25.96 31.9016 29.3487 29.4993 29.4171 29.4895C29.4561 29.4895 29.6026 29.7239 29.7296 29.9973ZM44.2218 32.5364C44.3292 32.8391 44.2901 32.9563 43.3331 34.8801C42.7862 36.0032 42.2979 36.9114 42.2393 36.9114C42.1905 36.9114 41.8389 36.5891 41.4483 36.1985C40.6671 35.3977 40.1495 34.4798 39.8761 33.3958C39.7003 32.6926 39.7198 30.9251 39.9151 30.4368L40.0323 30.1731L42.0733 31.1887C43.9386 32.1262 44.1241 32.2434 44.2218 32.5364ZM38.0694 44.0501C38.3429 44.1087 38.587 44.1966 38.6163 44.2356C38.7042 44.3723 36.7413 48.22 36.5264 48.3372C36.419 48.386 36.2335 48.4348 36.1065 48.4348C35.8429 48.4348 31.9268 46.5794 31.9268 46.4524C31.9268 46.4133 32.2491 46.052 32.6397 45.6712C33.4014 44.9094 34.3682 44.3528 35.3448 44.0989C35.9893 43.9231 37.3956 43.9036 38.0694 44.0501Z" fill="#44B64B"/>
</svg>
