<svg width="61" height="60" viewBox="0 0 61 60" fill="none" xmlns="http://www.w3.org/2000/svg">
<path d="M38.3992 9.87695C46.462 9.87695 53.3045 11.5928 57.4004 14.105V38.986C57.4004 40.3215 56.9421 41.6069 56.3615 43.0329C54.6701 46.6316 51.8334 49.3459 48.5036 51.6842C46.1833 53.3136 43.696 54.7155 41.2218 56.1101C40.2764 56.6429 39.333 57.1746 38.4016 57.7176C37.4692 57.1741 36.5249 56.6419 35.5787 56.1087C33.1051 54.7146 30.6183 53.3131 28.2983 51.6841C24.9679 49.3459 22.1306 46.6316 20.4393 43.0329C19.8587 41.6069 19.4004 40.3215 19.4004 38.986V14.105C23.4962 11.5928 30.3365 9.87695 38.3992 9.87695Z" stroke="#F0F1FE" stroke-width="2"/>
<path d="M4.44531 1.30932C3.50781 1.67065 2.77539 2.37377 2.3457 3.32104C2.18945 3.66284 2.16016 4.05346 2.13086 6.46557L2.10156 9.22924L2.58984 9.71753H8.06836V26.7976C8.06836 45.5378 8.0293 44.1999 8.6543 45.1277C9.05469 45.6941 9.72852 46.1824 10.4609 46.4363C11.0469 46.6316 11.1836 46.6316 26.4863 46.6121L41.9062 46.5828L42.5605 46.2605C43.3711 45.8699 44.0059 45.2449 44.3672 44.5027C44.6309 43.9656 44.6406 43.8972 44.6699 42.0906L44.6992 40.2351L44.4453 39.991C44.1914 39.7468 44.1816 39.7468 41.9941 39.7175L39.8066 39.6882V22.4812C39.8066 3.94604 39.8262 4.75659 39.3184 3.76049C38.9863 3.10619 38.0195 2.15893 37.2871 1.77807C35.959 1.07494 37.1309 1.12377 20.1777 1.12377C5.64648 1.13354 4.875 1.1433 4.44531 1.30932ZM7.0625 3.03784C7.31641 3.18432 7.58008 3.44799 7.74609 3.74096C8.01953 4.19018 8.01953 4.21948 8.04883 6.12377L8.08789 8.05737H3.77148V6.2019C3.77148 4.21948 3.83008 3.86791 4.28906 3.3894C4.94336 2.68627 6.17383 2.53002 7.0625 3.03784ZM35.0703 2.78393C36.3105 2.96948 37.2676 3.58471 37.8047 4.55151L38.0977 5.07885L38.1465 39.698H26.4766C13.8496 39.698 14.1914 39.6882 14.084 40.2058C14.0547 40.3328 14.0156 41.1335 14.0059 41.9929C13.9766 43.4968 13.9668 43.5749 13.7129 44.0144C12.9316 45.3328 10.6758 45.2937 9.89453 43.946C9.80664 43.7996 9.76758 38.7312 9.72852 23.8289L9.67969 3.90698L9.42578 3.29174L9.16211 2.68627H21.7793C29.7188 2.68627 34.6406 2.72534 35.0703 2.78393ZM43.0293 42.3835C43.0293 43.5652 42.8828 43.9753 42.2969 44.4539C41.584 45.0496 42.3848 45.0105 28.1562 45.0496L15.0898 45.0691L15.3145 44.6589C15.5098 44.2878 15.5391 44.0632 15.5684 42.7937L15.6074 41.3582H43.0293V42.3835Z" fill="#44B64B"/>
<path d="M22.4238 4.00463C22.0723 4.08276 21.3691 4.34643 20.8613 4.60034C19.3672 5.34252 18.166 6.69994 17.5801 8.29174C17.2188 9.28784 17.1504 10.2839 17.1504 14.3757V18.2136H16.418C15.7637 18.2136 15.6465 18.2429 15.4414 18.4578C15.207 18.6921 15.1973 18.7312 15.1973 20.2156V21.7292H14.6309C14.1621 21.7292 14.0254 21.7683 13.8496 21.9539C13.6445 22.1687 13.6348 22.2566 13.6348 24.2878C13.6348 26.2214 13.6543 26.4167 13.8203 26.6218L14.0059 26.8562L23.7129 26.8855C29.0449 26.8953 33.5078 26.8855 33.625 26.8562C33.7422 26.8269 33.9375 26.7097 34.0449 26.5925C34.2305 26.3972 34.2402 26.2507 34.2402 24.2976C34.2402 22.2078 34.2402 22.2078 33.9961 21.9734C33.8008 21.7683 33.6641 21.7292 33.2246 21.7292H32.6875L32.6582 20.157C32.6289 18.6433 32.6191 18.5847 32.3945 18.3992C32.2188 18.2527 32.0137 18.2136 31.3984 18.2136H30.627V13.9363C30.627 10.0203 30.6074 9.59057 30.4414 8.91674C29.8555 6.62182 28.2539 4.93237 25.9395 4.15112C25.1094 3.86791 23.3418 3.79955 22.4238 4.00463ZM25.0996 5.66479C25.4121 5.74291 25.9102 5.92846 26.2129 6.07494C26.9453 6.42651 28.0684 7.53979 28.4199 8.26244C28.9473 9.3562 28.9668 9.52221 28.9668 14.0339V18.2136H18.8008L18.8301 13.9363L18.8691 9.66869L19.1133 9.02416C19.5723 7.83276 20.1777 7.04174 21.1348 6.37768C22.2578 5.60619 23.791 5.32299 25.0996 5.66479ZM31.0176 21.7292H16.8574V19.8738H31.0176V21.7292ZM32.5801 25.2449H15.2949V23.3894H32.5801V25.2449Z" fill="#44B64B"/>
<path d="M21.1839 8.15498C20.7151 8.34053 20.6175 9.08272 21.0081 9.47334L21.2425 9.71748H23.9085C26.8479 9.71748 26.9358 9.69795 27.0628 9.12178C27.1507 8.74092 26.9651 8.31123 26.6624 8.16475C26.3694 8.03779 21.5159 8.02803 21.1839 8.15498Z" fill="#44B64B"/>
<path d="M21.3493 11.446C20.7731 11.6608 20.5974 12.3054 20.9684 12.7839L21.1638 13.0378H26.6325L26.8669 12.7937C27.1794 12.4909 27.1794 12.0612 26.8767 11.6999L26.6423 11.4265L24.0642 11.4069C22.6579 11.3972 21.4274 11.4167 21.3493 11.446Z" fill="#44B64B"/>
<path d="M21.0081 15.0397C20.7444 15.3034 20.6858 15.8112 20.8909 16.0749C21.1643 16.4265 21.3987 16.4558 23.9866 16.4558H26.5452L26.8382 16.1628C27.0921 15.8991 27.1311 15.8112 27.0823 15.4987C26.9651 14.8054 26.9358 14.7956 23.9182 14.7956H21.2425L21.0081 15.0397Z" fill="#44B64B"/>
<path d="M11.5352 29.2976C11.3691 29.4539 11.291 29.6394 11.291 29.8835C11.291 30.1277 11.3691 30.3132 11.5352 30.4695L11.7695 30.7136H36.1055L36.3398 30.4695C36.6719 30.1472 36.6719 29.6199 36.3398 29.2976L36.1055 29.0535H11.7695L11.5352 29.2976Z" fill="#44B64B"/>
<path d="M11.7308 34.8249C11.2328 35.1081 11.1254 35.7917 11.516 36.1628L11.7406 36.3776H36.1058L36.3402 36.1335C36.6723 35.8112 36.6723 35.3229 36.3305 35.0007L36.0765 34.7663L24.0062 34.7468C15.3637 34.7272 11.8676 34.7565 11.7308 34.8249Z" fill="#44B64B"/>
</svg>
