<svg width="60" height="60" viewBox="0 0 60 60" fill="none" xmlns="http://www.w3.org/2000/svg">
<g clip-path="url(#clip0_33_6226)">
<path d="M16.9873 0.585568C15.8154 1.04455 15.9814 0.800411 8.05176 13.9059C4.05762 20.5074 0.698242 26.0738 0.600586 26.2594C0.454102 26.5328 0.415039 26.8063 0.415039 27.6266C0.415039 28.5055 0.444336 28.7106 0.639648 29.0719C0.961914 29.6871 1.45996 30.1852 2.0459 30.5172L2.56348 30.8004L30.2393 30.8492L30.1416 31.1715C30.0928 31.3375 30.0537 32.3434 30.0537 33.3883C30.0537 36.6891 29.8584 37.4703 28.7256 38.7594C28.0127 39.5797 27.6123 40.2047 27.2705 41.0543C27.0166 41.6696 26.9873 41.8844 26.9482 43.1149C26.8896 45.0778 26.5869 44.9117 30.2393 44.9117H33.1494L33.3643 45.5563C34.0381 47.5973 35.7275 48.818 37.8857 48.818C40.0342 48.8082 41.7041 47.5973 42.3682 45.5465L42.583 44.9117H45.4932C49.1357 44.9117 48.8428 45.068 48.7842 43.1735C48.7256 41.2301 48.3643 40.3219 47.0459 38.8082C45.8643 37.4606 45.6787 36.7184 45.6787 33.359C45.6787 31.5524 45.6592 31.3766 45.4346 30.6832C44.8486 28.9352 43.6084 27.7242 41.8115 27.1578C41.0107 26.9039 40.9912 26.8844 40.9912 26.5817C40.9912 26.0055 40.6104 25.2047 40.1123 24.6969C39.4482 24.0426 38.7549 23.7887 37.7197 23.8375C36.8213 23.8766 36.2451 24.1012 35.6885 24.6481L35.3369 24.9899L35.1904 24.775C35.1123 24.6481 31.9678 19.4528 28.1982 13.2223C23.501 5.45861 21.1963 1.74768 20.8838 1.42541C20.1807 0.702755 19.5654 0.439083 18.4326 0.409787C17.6709 0.38049 17.4072 0.419552 16.9873 0.585568ZM19.2041 2.23596C19.4189 2.34338 19.6729 2.53869 19.79 2.68518C20.0635 3.02697 34.4482 26.777 34.458 26.8844C34.458 26.9332 34.2236 27.0504 33.9404 27.1383C33.0811 27.402 32.2607 27.9 31.626 28.5348C31.2939 28.8668 31.0303 29.1696 31.0303 29.2086C31.0303 29.3356 3.88184 29.3063 3.31543 29.1793C2.42676 28.9938 1.92871 28.2613 2.05566 27.3531C2.08496 27.0992 4.28223 23.3883 9.35059 15.0289C13.335 8.4469 16.7041 2.91955 16.8408 2.74377C17.3486 2.06994 18.4229 1.83557 19.2041 2.23596ZM38.6279 25.6735C38.9893 25.8981 39.3311 26.4059 39.3311 26.7184C39.3311 26.943 39.3213 26.943 37.8662 26.943C36.4111 26.943 36.4014 26.943 36.4014 26.7184C36.4014 26.4059 36.7432 25.8981 37.1045 25.6735C37.5244 25.4196 38.208 25.4196 38.6279 25.6735ZM40.6494 28.6031C41.5771 28.7399 42.2607 29.0817 42.9053 29.7164C43.9209 30.7418 44.1064 31.5133 44.1162 34.6578C44.1162 36.8746 44.1943 37.3336 44.7119 38.4078C44.8779 38.7496 45.2295 39.2965 45.5029 39.6285L45.9814 40.2242H29.751L30.2393 39.6188C30.5029 39.2867 30.8545 38.7496 31.0205 38.4274C31.5283 37.3824 31.6162 36.8356 31.6162 34.6481C31.626 31.5133 31.8115 30.7418 32.8271 29.7164C33.4521 29.1012 34.1748 28.7301 34.9951 28.6129C35.8154 28.4957 39.8389 28.486 40.6494 28.6031ZM47.0068 42.0016C47.0459 42.1188 47.1045 42.4703 47.1436 42.7828L47.2021 43.3492H28.5303L28.5889 42.7828C28.6279 42.4703 28.6865 42.1188 28.7256 42.0016L28.7939 41.7867H46.9385L47.0068 42.0016ZM40.7471 45.1266C40.5322 45.8492 39.8193 46.6012 39.0186 46.9625C38.3936 47.2457 37.29 47.2262 36.626 46.9235C35.8643 46.5621 35.21 45.8492 34.9951 45.1266L34.9268 44.9117H40.8057L40.7471 45.1266Z" fill="#44B64B"/>
<path d="M16.1865 7.60705C15.9912 7.80236 15.9912 7.92932 15.9912 14.443C15.9912 20.9567 15.9912 21.0836 16.1865 21.2789C16.3721 21.4645 16.5088 21.4742 18.335 21.4742C20.1611 21.4742 20.2979 21.4645 20.4834 21.2789C20.6787 21.0836 20.6787 20.9567 20.6787 14.443C20.6787 7.92932 20.6787 7.80236 20.4834 7.60705C20.2979 7.42151 20.1611 7.41174 18.335 7.41174C16.5088 7.41174 16.3721 7.42151 16.1865 7.60705ZM19.1162 19.9117H17.5537V8.97424H19.1162V19.9117Z" fill="#44B64B"/>
<path d="M17.3096 24.0035C16.46 24.3942 15.9912 25.1754 15.9912 26.1813C16.001 27.568 16.9385 28.5055 18.335 28.5055C19.7412 28.5055 20.6787 27.568 20.6787 26.1617C20.6787 25.1461 20.1611 24.3356 19.292 23.9742C18.7842 23.7594 17.7979 23.7789 17.3096 24.0035ZM18.8232 25.6735C18.9307 25.7809 19.0186 25.9957 19.0186 26.1617C19.0186 26.3278 18.9307 26.5426 18.8232 26.65C18.7158 26.7574 18.501 26.8453 18.335 26.8453C18.1689 26.8453 17.9541 26.7574 17.8467 26.65C17.7393 26.5426 17.6514 26.3278 17.6514 26.1617C17.6514 25.9957 17.7393 25.7809 17.8467 25.6735C17.9541 25.566 18.1689 25.4781 18.335 25.4781C18.501 25.4781 18.7158 25.566 18.8232 25.6735Z" fill="#44B64B"/>
</g>
<defs>
<clipPath id="clip0_33_6226">
<rect width="60" height="60" fill="white"/>
</clipPath>
</defs>
</svg>
