<svg width="75" height="75" viewBox="0 0 75 75" fill="none" xmlns="http://www.w3.org/2000/svg">
<g clip-path="url(#clip0_4_3820)">
<path fill-rule="evenodd" clip-rule="evenodd" d="M11.3892 24.5979C17.4829 18.6653 25.3198 15.0325 33.8599 14.1536C35.0464 14.0217 40.2759 14.0657 41.5942 14.1975C43.5718 14.4172 46.5161 15.0032 48.4497 15.6038C54.5288 17.4348 59.8901 20.7161 64.4018 25.345C68.7231 29.7835 71.7114 34.8079 73.4546 40.5647C74.4214 43.7434 75.022 47.4055 75.022 50.0862V51.5364L74.5093 52.0637L73.9819 52.5764L61.7505 52.6057L49.5044 52.6497L49.1675 53.5432C48.0835 56.4143 46.2378 58.5676 43.6743 59.886C42.5024 60.5012 41.228 60.926 40.5981 60.926C40.0561 60.926 39.5727 60.428 39.5727 59.8567C39.5727 59.1389 39.9097 58.7727 40.8472 58.509C43.3227 57.7913 45.564 55.8577 46.5893 53.5725C46.8237 53.0598 48.0688 49.2219 49.3579 45.0325C50.0619 42.7703 50.7274 40.6148 51.2161 39.032C51.6325 37.6836 51.9205 36.7509 51.9946 36.5217L52.2729 35.6282L51.3794 35.9065C51.1503 35.9806 50.2176 36.2686 48.8694 36.6849C47.2865 37.1736 45.131 37.8392 42.8686 38.5432C38.6792 39.8323 34.8559 41.0774 34.3726 41.2971C31.7505 42.4837 29.8315 44.9153 29.2163 47.801C28.938 49.134 29.0405 51.1409 29.4507 52.4299C30.3149 55.1546 32.6733 57.5276 35.4272 58.4505C36.1157 58.6702 36.4087 58.846 36.5405 59.1389C36.8042 59.6809 36.6431 60.3255 36.1597 60.677C35.7934 60.9553 35.6909 60.97 35.061 60.8089C33.9477 60.5159 31.8091 59.388 30.8862 58.6116C29.2017 57.1907 27.9419 55.3596 27.2827 53.4114L27.019 52.6497L14.0405 52.6057L1.06201 52.5764L0.520019 52.0344L-0.0219727 51.4924L0.065918 49.2952C0.314941 43.0256 2.40967 36.595 5.99853 31.1165C7.60986 28.6555 9.20654 26.7219 11.3892 24.5979ZM36.3501 23.8362V20.1155V16.3948L35.5151 16.4241C34.2847 16.4534 33.6694 16.512 32.0288 16.7756C25.6567 17.7864 19.7681 20.5256 14.6411 24.8762L13.4985 25.843L16.0913 28.4358C17.5269 29.8714 18.7573 31.0432 18.8306 31.0432C18.8892 31.0432 19.3286 30.721 19.7827 30.3255C22.6099 27.8938 26.2573 25.9749 30.0952 24.9055C31.4575 24.51 34.2847 24.012 35.105 24.012C35.4272 24.012 35.8374 23.968 36.0278 23.9241L36.3501 23.8362ZM60.271 24.7297C55.3345 20.5403 49.6362 17.9036 43.3081 16.8489C42.3413 16.6878 40.9058 16.512 40.1294 16.4534L38.6938 16.3508V20.1008V23.8508L39.1772 23.9241C39.4263 23.968 40.1001 24.0413 40.6421 24.0852C45.5933 24.51 51.3647 26.971 55.2612 30.3255C55.7153 30.721 56.1548 31.0432 56.2134 31.0432C56.2866 31.0432 57.5171 29.8714 58.9526 28.4358L61.56 25.8284L60.271 24.7297ZM58.8501 37.9426C54.895 31.8049 48.4058 27.5862 41.2573 26.5169C40.1147 26.3557 36.7456 26.2092 35.8374 26.2971C30.4614 26.7952 26.4185 28.3186 22.2876 31.3948C16.8677 35.4378 13.0444 42.1028 12.3999 48.6214C12.356 49.1487 12.2827 49.72 12.2388 49.8958L12.1802 50.2327H19.4019H26.6382L26.7261 48.8704C26.9897 44.6956 29.3335 41.1653 33.0542 39.3196C34.6509 38.5286 51.7309 33.1965 52.6977 33.1965C53.8403 33.1819 54.6753 34.0315 54.6899 35.1887C54.7046 35.5842 53.9282 38.3089 52.5513 42.762C51.814 45.1375 51.1503 47.2924 50.7428 48.6155C50.4945 49.4218 50.3413 49.9191 50.3247 49.969C50.2515 50.218 50.6177 50.2327 56.5649 50.2327H62.8638L62.8052 49.8958C62.7612 49.72 62.688 49.1487 62.644 48.6214C62.3071 45.2083 60.813 41.0042 58.8501 37.9426ZM16.1792 33.9436C16.6333 33.4163 17.0142 32.9182 17.0142 32.845C17.0142 32.7864 15.8423 31.5559 14.4067 30.1204L11.7993 27.513L10.7007 28.802C5.91064 34.4417 2.92236 41.6487 2.43896 48.7239L2.32178 50.2327H6.07178H9.82178L9.89502 49.7493C9.93896 49.5003 10.0122 48.8557 10.0562 48.3284C10.5249 43.4651 12.9712 37.7083 16.1792 33.9436ZM72.605 48.7239C72.1216 41.634 69.1333 34.4417 64.3579 28.802C63.7573 28.0989 63.2593 27.5276 63.2446 27.5276C63.1567 27.5276 58.0298 32.7571 58.0298 32.845C58.0298 32.9182 58.4106 33.4163 58.8647 33.9436C62.0727 37.7083 64.519 43.4651 64.9878 48.3284C65.0317 48.8557 65.105 49.5003 65.1489 49.7493L65.2222 50.2327H68.9722H72.7222L72.605 48.7239ZM33.0103 47.4202C33.8452 45.6331 35.5151 44.4319 37.4194 44.2268C38.0054 44.1682 38.5767 44.1389 38.6938 44.1682C40.3345 44.4612 41.0522 44.8274 42.0923 45.8235C42.7661 46.4827 42.9419 46.7463 42.9419 47.1126C42.9419 47.801 42.4438 48.3284 41.7847 48.3284C41.3452 48.3284 41.1401 48.2258 40.6714 47.7278C39.4849 46.512 37.9907 46.1751 36.7017 46.8342C35.4419 47.4788 34.812 48.6213 34.9146 50.0862C35.0317 51.6829 36.2183 52.8694 37.8149 52.9866C38.9575 53.0745 39.5728 52.8401 40.5103 51.9758C41.1548 51.3899 41.4038 51.2581 41.8286 51.2581C42.8394 51.2581 43.2349 52.1516 42.6636 53.1038C42.2974 53.7044 41.2573 54.5393 40.3638 54.9495C39.7632 55.2278 39.397 55.2864 38.1079 55.2864C36.7603 55.2864 36.4673 55.2424 35.7642 54.9055C34.6802 54.4075 33.5083 53.2356 33.0103 52.1809C32.6587 51.4192 32.6147 51.1555 32.6147 49.7932C32.6147 48.4309 32.6587 48.1526 33.0103 47.4202Z" fill="#44B64B"/>
</g>
<defs>
<clipPath id="clip0_4_3820">
<rect width="75" height="75" fill="white"/>
</clipPath>
</defs>
</svg>
