<svg width="60" height="60" viewBox="0 0 60 60" fill="none" xmlns="http://www.w3.org/2000/svg">
<path fill-rule="evenodd" clip-rule="evenodd" d="M26.8215 2.21742C24.3933 2.85181 22.2714 4.51435 21.1448 6.7019C20.2916 8.3535 20.1385 9.19571 20.6417 9.62228C21.2651 10.1582 21.8557 9.79728 22.2167 8.65976C22.6542 7.31441 23.5839 6.01282 24.6777 5.19249C26.0121 4.20809 27.3684 3.74871 28.9653 3.73777C31.1419 3.72683 32.881 4.49247 34.3576 6.1222C36.4576 8.40819 36.8077 11.8645 35.2217 14.5552C34.7295 15.3865 33.4826 16.6224 32.6185 17.1256C31.4372 17.8147 30.595 18.0225 29.009 18.0225C27.8496 18.0225 27.5215 17.9787 26.8762 17.76C25.4215 17.2568 24.1745 16.3927 23.3542 15.299C22.7636 14.5005 22.5011 13.9974 22.162 13.002C21.8776 12.1817 21.6807 11.963 21.2104 11.952C20.401 11.9411 20.1604 12.488 20.4885 13.5708C21.451 16.7099 24.0433 19.0397 27.2809 19.6741L28.2106 19.8491L28.0028 20.5819C27.8278 21.2163 27.4778 23.1413 27.4778 23.5132C27.4778 23.6117 27.2262 23.6554 26.6137 23.6554H25.7496L25.673 23.3054C25.6293 23.1085 25.3449 22.7148 24.973 22.3319C24.1199 21.4569 23.6058 21.3147 21.5276 21.3804C20.2041 21.4132 19.9198 21.4569 19.526 21.6647C18.826 22.0366 18.3666 22.4851 18.0713 23.0976C17.9182 23.4257 17.7432 23.6554 17.6447 23.6554C17.5463 23.6554 17.3275 23.382 17.1306 23.021C15.9275 20.7678 12.6571 20.8772 11.5743 23.207C11.3664 23.6554 11.3446 23.907 11.3446 25.4601C11.3446 27.0789 11.3664 27.2539 11.6071 27.7352C11.9243 28.3915 12.5149 28.9821 13.1165 29.2555C13.4774 29.4196 13.5868 29.518 13.5868 29.7259C13.5868 29.9227 13.4993 30.0102 13.2149 30.1087C12.6462 30.2946 11.9899 30.929 11.6508 31.6181C11.3555 32.2197 11.3446 32.2962 11.3446 33.9916C11.3446 35.676 11.3555 35.7635 11.6399 36.2994C11.979 36.9448 12.6352 37.5792 13.193 37.776L13.5868 37.9182V38.8151V39.712L11.5961 39.7558C9.81328 39.7886 9.55078 39.8105 9.21171 40.0183C8.58826 40.3792 8.33669 40.8605 8.33669 41.6589V42.359H5.94132C3.64439 42.359 3.54595 42.3699 3.19595 42.6105C2.99907 42.7418 2.72562 42.9933 2.60531 43.1574C2.37561 43.4637 2.37561 43.5621 2.37561 48.8997L2.37558 49.3957C2.37511 53.8405 2.37503 54.6031 2.75562 55.007C2.83444 55.0906 2.92959 55.1589 3.04444 55.2413L3.10844 55.2874C3.45845 55.528 3.55689 55.5389 5.89757 55.5718L8.33669 55.6046V56.1733C8.33669 56.8734 8.59919 57.4202 9.09139 57.7484L9.46328 57.9999H14.3962C19.1213 57.9999 19.3401 57.989 19.6901 57.7812C20.226 57.4531 20.4776 56.9609 20.4776 56.228V55.5936L32.4326 55.5718L44.3766 55.5389L44.8688 55.2764C45.4703 54.9702 56.8894 43.6277 57.2831 42.9605C57.6222 42.3699 57.6987 41.9214 57.5566 41.3855C57.2394 40.1823 55.5112 39.1542 53.5971 39.0011C52.5143 38.9136 51.5955 39.0995 50.5564 39.5917C49.8564 39.9308 49.5064 40.2152 48.172 41.5277C46.7501 42.9387 46.6188 43.1027 46.6188 43.4637C46.6188 43.9668 46.9798 44.3278 47.4938 44.3278C47.822 44.3278 48.0298 44.1527 49.3423 42.873C51.2127 41.0355 51.672 40.7839 53.1268 40.773C54.0237 40.773 54.1768 40.8058 54.8331 41.123C54.9524 41.1817 55.0652 41.2297 55.1671 41.2731L55.1672 41.2731L55.1675 41.2733L55.1675 41.2733L55.1676 41.2733C55.4102 41.3766 55.591 41.4535 55.651 41.5854C55.8265 41.9714 54.9676 42.8277 51.5958 46.1898C51.1038 46.6804 50.5584 47.2243 49.9548 47.8278L43.9938 53.7889L32.2357 53.8217L20.4776 53.8436V48.9216V43.9996H21.4073C21.9651 43.9996 22.4901 43.934 22.7089 43.8465C22.9167 43.759 23.4308 43.3434 23.8464 42.9277C24.4042 42.3699 24.8636 42.0418 25.4761 41.7355L26.3293 41.3199L32.9904 41.2871L39.6515 41.2542L39.5749 41.7246C39.389 42.9168 38.5577 44.0106 37.442 44.5356C36.8304 44.8196 36.8077 44.82 33.605 44.8744H33.605L33.592 44.8746L30.3544 44.9293L29.8294 45.2575C29.0418 45.7387 28.6481 46.5372 28.7028 47.5106C28.7465 48.3747 29.0856 48.9763 29.7966 49.4357L30.2559 49.7419L36.1623 49.7748C40.2421 49.7966 42.1671 49.7638 42.364 49.6873C42.5172 49.6216 43.3265 48.8888 44.1469 48.0575C45.4375 46.7559 45.6344 46.5044 45.6344 46.1981C45.6344 45.7278 45.2188 45.3122 44.7485 45.3122C44.4422 45.3122 44.2016 45.4981 43.0094 46.6794L41.6312 48.0466H36.2061H30.77L30.6059 47.806C30.3653 47.4669 30.3872 47.1059 30.6497 46.8434C30.8575 46.6356 31.0106 46.6247 33.6466 46.6247C35.167 46.6247 36.6873 46.57 37.0045 46.5153C39.0608 46.1215 40.8109 44.4153 41.2484 42.3808C41.5218 41.0792 41.314 40.248 40.6031 39.7558L40.2312 39.5042L33.1763 39.537L26.1105 39.5698L25.323 39.8542C24.3714 40.2042 23.1902 40.9808 22.5667 41.648C22.0308 42.2386 21.7573 42.359 21.0135 42.359H20.4776V41.6589C20.4776 40.8605 20.226 40.3792 19.6026 40.0183C19.2635 39.8105 19.001 39.7886 17.2838 39.7558L15.3368 39.712V38.8151V37.9073L15.7744 37.7104C16.4087 37.426 17.0541 36.7151 17.3056 36.0479C17.59 35.2932 17.6228 32.8759 17.3603 32.0009C17.1525 31.3228 16.4853 30.5353 15.829 30.2181C15.4243 30.0212 15.3368 29.9227 15.3368 29.6821C15.3368 29.4524 15.4134 29.3649 15.6978 29.2555C16.2447 29.0587 16.7916 28.5446 17.1416 27.9102C17.415 27.4071 17.4697 27.1664 17.5025 26.3023C17.5353 25.657 17.59 25.2961 17.6775 25.2961C17.7432 25.2961 17.951 25.5805 18.126 25.9195C18.5088 26.6633 19.1541 27.1883 19.9526 27.4289C20.7292 27.6586 22.9714 27.6477 23.7589 27.418C24.4699 27.2102 25.5418 26.2148 25.673 25.6461L25.7496 25.2961H26.6027H27.4668L27.5215 25.6461C27.7293 27.1008 27.8715 27.768 28.145 28.5883C29.6762 33.3025 33.5263 36.7588 38.4374 37.8417C39.7937 38.137 42.8125 38.1151 44.1906 37.787C52.1642 35.9385 56.769 27.768 54.2096 19.9913C53.1158 16.6771 50.4908 13.6692 47.3298 12.0833C44.6609 10.7489 41.7296 10.366 38.4046 10.9239L38.0108 10.9895L37.9452 10.1364C37.8467 8.91132 37.617 8.11287 36.9936 6.84409C35.8561 4.52529 33.7123 2.82994 31.1528 2.21742C29.9497 1.9221 27.959 1.93304 26.8215 2.21742ZM44.0156 12.7614C47.9204 13.7567 51.0705 16.5677 52.4268 20.2756C53.3783 22.8788 53.4112 25.5805 52.5252 28.2055C51.2455 32.0009 48.0845 34.9213 44.1359 35.9823C43.1734 36.2448 42.8672 36.2776 41.2046 36.2776C39.5312 36.2776 39.2358 36.2448 38.2514 35.9823C36.9498 35.6322 35.0357 34.7025 34.0295 33.9478C29.9825 30.8634 28.2762 25.6023 29.7966 20.8335C29.9716 20.2756 30.1794 19.7944 30.245 19.7834C30.3094 19.765 30.6291 19.6925 31.0154 19.6048L31.2403 19.5538C32.9357 19.1819 34.8498 17.9568 36.0201 16.5021C36.6545 15.7255 37.1577 14.7958 37.5405 13.713L37.8249 12.8927L38.4046 12.7395C40.1109 12.313 42.2765 12.3239 44.0156 12.7614ZM15.1947 23.382C15.6322 23.6773 15.7744 24.1804 15.7744 25.4601C15.7744 26.2805 15.7197 26.7289 15.5994 27.0242L15.4243 27.4289L15.2931 27.057C15.129 26.6086 14.8446 26.3898 14.4071 26.3898C13.9478 26.3898 13.6962 26.5977 13.5977 27.0461L13.5212 27.4289L13.3024 27.1008C13.1493 26.8602 13.0837 26.543 13.0618 25.7555C13.0399 25.1976 13.0509 24.5632 13.0837 24.3664C13.1712 23.9507 13.6087 23.3601 13.9587 23.207C14.2649 23.0757 14.8556 23.1632 15.1947 23.382ZM23.398 23.3273C24.3496 23.907 24.3496 25.0336 23.398 25.6351C23.0917 25.8211 22.8948 25.843 21.7354 25.8211C20.6417 25.7883 20.3573 25.7555 20.0948 25.5695L19.7666 25.3617L20.1823 25.2851C20.6635 25.2086 20.9042 24.9351 20.9151 24.4648C20.9151 24.0273 20.5651 23.6554 20.1385 23.6554C19.7338 23.6554 19.8104 23.4804 20.3026 23.2617C20.5213 23.1741 21.0792 23.1195 21.8448 23.1085C22.8511 23.1085 23.1026 23.1413 23.398 23.3273ZM15.0853 31.8587C15.6869 32.2197 15.7962 32.5806 15.7525 34.101C15.7306 35.0525 15.6759 35.4901 15.5665 35.6213C15.4134 35.7963 15.3915 35.7854 15.2384 35.4463C15.0306 35.0307 14.5821 34.7791 14.1993 34.8775C13.8493 34.965 13.6852 35.1619 13.5977 35.6104L13.5212 35.9604L13.3024 35.6322C13.029 35.2275 12.9415 33.2478 13.1712 32.5697C13.4446 31.7603 14.3634 31.4103 15.0853 31.8587ZM18.7276 48.9216V56.3593H14.4071H10.0977L10.0649 53.3514L10.0635 53.2151C10.0406 50.8772 10.0347 50.2758 9.74671 50.0708C9.64695 49.9998 9.51335 49.9764 9.33347 49.9448L9.29921 49.9388C8.97108 49.8951 8.85076 49.9279 8.62107 50.1576C8.33669 50.442 8.33669 50.4638 8.33669 52.1482V53.8436H6.20383H4.07097L4.09284 48.9435L4.12565 44.0543L6.23664 44.0215L8.33669 43.9996V45.6622C8.33669 47.2153 8.34763 47.3356 8.57732 47.5763C8.87264 47.8935 9.41953 47.9044 9.76953 47.62L10.032 47.4122L10.0649 44.4481L10.0977 41.4839H14.4071H18.7276V48.9216ZM40.6796 15.9115C40.4171 16.1193 40.2749 16.5897 40.2749 17.3006V17.935L39.4327 17.9897C38.0874 18.0663 37.1467 18.6678 36.5889 19.8054C36.3045 20.3741 36.2827 20.5272 36.2827 21.632C36.2936 22.6601 36.3264 22.9117 36.5342 23.3382C36.8733 24.0383 37.4749 24.618 38.1968 24.957C38.7655 25.2195 38.9187 25.2414 41.1171 25.2961C43.2391 25.3508 43.4578 25.3727 43.7422 25.5805C44.1907 25.9086 44.4313 26.4555 44.4313 27.1555C44.4313 27.8884 44.1797 28.4352 43.6766 28.7634C43.3266 29.004 43.2063 29.0149 41.2156 29.0149C39.3343 29.0149 39.0937 28.9931 38.7765 28.7962C38.3171 28.5227 38.1093 28.1837 37.989 27.5383C37.8577 26.8493 37.5405 26.5649 37.0046 26.6524C36.4249 26.7399 36.2827 26.9586 36.2936 27.6805C36.3045 28.5446 36.6655 29.3321 37.3327 29.9337C37.978 30.5134 38.6562 30.765 39.564 30.765H40.2421L40.2968 31.6509C40.3624 32.69 40.5484 32.9744 41.1937 32.9744C41.8719 32.9744 42.025 32.7447 42.025 31.6728V30.765H42.7687C43.1844 30.765 43.7422 30.6884 44.0266 30.59C44.7157 30.3603 45.4485 29.6821 45.8204 28.9274C46.0938 28.3587 46.1266 28.1946 46.1266 27.1555C46.1157 25.7664 45.886 25.1102 45.1204 24.4101C44.3 23.6554 44.125 23.6117 41.4562 23.5461C39.2796 23.4914 39.0609 23.4695 38.7874 23.2617C38.164 22.8023 38.0327 22.507 38.0327 21.5991C38.0327 20.8882 38.0765 20.7023 38.2952 20.3851C38.7218 19.7944 39.039 19.7179 41.2265 19.7179C42.9 19.7179 43.2281 19.7507 43.5563 19.9147C43.9828 20.1335 44.4313 20.8882 44.4313 21.3695C44.4313 21.9929 45.3391 22.3429 45.8641 21.9163C46.0938 21.7304 46.1266 21.6101 46.1157 21.0413C46.0829 19.3022 44.6172 17.9678 42.7359 17.9678H42.025V17.0928C42.025 16.36 41.9922 16.185 41.8062 15.999C41.5547 15.7475 40.964 15.7037 40.6796 15.9115ZM32.181 24.082C32.181 22.9336 32.2904 22.5398 32.6622 22.3539C32.9794 22.1898 33.5154 22.2992 33.7451 22.5726C33.8982 22.7586 33.931 23.0211 33.931 24.0492C33.931 25.1539 33.9091 25.318 33.7123 25.5149C33.3732 25.8539 32.6951 25.8102 32.4107 25.4492C32.2138 25.1977 32.181 25.0008 32.181 24.082ZM48.9485 22.3429C48.5657 22.4961 48.4782 22.8133 48.4782 24.082C48.4782 25.1539 48.5001 25.318 48.697 25.5149C49.0361 25.8539 49.7142 25.8102 49.9986 25.4492C50.1955 25.1977 50.2283 25.0008 50.2283 24.0164C50.2283 22.9008 50.2173 22.8679 49.9111 22.5507C49.5829 22.2226 49.3642 22.1789 48.9485 22.3429ZM28.2108 10.541C29.3374 8.58317 30.3764 6.85501 30.5186 6.71281C30.7264 6.505 30.8468 6.47218 31.1749 6.52687C31.6343 6.5925 31.9624 6.93157 31.9624 7.33627C31.9624 7.60971 28.0904 14.4677 27.6311 15.0036C27.3467 15.3427 26.7232 15.3755 26.3842 15.0693C25.9138 14.6427 26.0342 14.3364 28.2108 10.541ZM25.5635 7.41285C25.0166 7.9488 25.3994 8.88945 26.1651 8.88945C26.6135 8.88945 27.0401 8.46288 27.0401 8.01443C27.0401 7.56598 26.6135 7.13941 26.1651 7.13941C25.9573 7.13941 25.7276 7.23785 25.5635 7.41285ZM31.2841 14.3911C31.0107 14.1396 31.0216 13.4395 31.306 13.1552C31.5795 12.8817 32.181 12.8708 32.5092 13.1333C32.6732 13.2645 32.7498 13.4505 32.7607 13.7458C32.7826 14.5552 31.8967 14.949 31.2841 14.3911Z" fill="#44B64B"/>
</svg>
