<svg width="60" height="60" viewBox="0 0 60 60" fill="none" xmlns="http://www.w3.org/2000/svg">
<path d="M10.2387 3.08526C9.41448 3.33848 8.90724 3.76052 6.3182 6.35606C3.02114 9.63742 3 9.66907 3 11.3783C3 13.0981 3.01057 13.1087 6.47671 16.5589C9.54129 19.6186 9.75264 19.7769 10.9996 19.9985C11.454 20.0723 11.8027 20.0723 12.2254 19.9879C13.2716 19.7769 13.8 19.4393 15.1526 18.0888L16.4102 16.8121L18.2701 18.6374C20.225 20.5682 20.447 20.7159 21.398 20.7159C22.1695 20.7159 22.6239 20.5155 23.1945 19.9352C23.6066 19.5026 23.7652 19.2599 23.8708 18.8379C24.0082 18.247 23.9448 17.5823 23.6912 17.0759C23.6066 16.8965 22.5288 15.757 21.3135 14.5331L19.0838 12.2963L19.3691 11.0723C19.7072 9.59521 19.7178 8.70893 19.4219 8.05477C19.1577 7.47446 16.1988 4.44633 15.5859 4.1298C15.364 4.01374 14.4869 3.70776 13.6415 3.45454C12.3839 3.0747 11.9824 2.9903 11.3061 3.00085C10.8622 3.00085 10.3867 3.04305 10.2387 3.08526ZM13.5147 5.19545L14.8356 5.61749L16.3996 7.18959C17.9319 8.73003 17.953 8.76168 17.953 9.22593C17.953 9.62686 17.8474 10.1861 17.6783 10.682C17.6466 10.7875 17.3718 10.5765 16.8117 10.0278C16.0931 9.31034 15.9452 9.21538 15.607 9.21538C14.973 9.21538 14.6031 9.83788 14.899 10.4076C14.9624 10.5342 16.6532 12.2752 18.6505 14.2798C21.3135 16.9492 22.2857 17.9938 22.2857 18.1732C22.2857 18.2998 22.1483 18.553 21.9792 18.7218C21.398 19.3021 21.3135 19.2494 18.9569 16.9176C16.9385 14.9129 16.8012 14.8074 16.4207 14.8074C16.0509 14.8074 15.9135 14.9129 14.3178 16.4745C12.7961 17.9727 12.5636 18.1626 12.0986 18.2787C11.4963 18.4264 11.0841 18.3631 10.5029 18.0254C9.86888 17.6562 4.99726 12.7289 4.80704 12.2541C4.59569 11.7476 4.59569 11.009 4.80704 10.5026C5.01839 9.99615 9.80548 5.1849 10.3973 4.87892C10.9996 4.57294 11.8661 4.6679 13.5147 5.19545Z" fill="#44B64B"/>
<path d="M46.3162 3.45448C45.5026 3.7077 44.6466 4.01368 44.4141 4.12974C43.8012 4.44627 40.8423 7.4744 40.5781 8.05471C40.2822 8.70887 40.2928 9.59515 40.6309 11.0723L40.9163 12.2962L38.6865 14.533C37.4712 15.7569 36.3828 16.9281 36.2771 17.1286C36.0024 17.6667 36.0235 18.7534 36.3088 19.3021C36.9217 20.4627 38.1476 20.9691 39.4474 20.5893C39.7961 20.4943 40.2505 20.1039 41.7299 18.6373L43.5898 16.812L44.8474 18.0887C46.2 19.4392 46.7284 19.7768 47.7746 19.9879C48.4932 20.1356 49.3703 20.009 50.1417 19.6502C50.4587 19.5025 51.0716 19.0066 51.7162 18.3841C52.7202 17.4029 52.773 17.3396 52.773 16.9175C52.773 16.39 52.456 16.0735 51.9382 16.0735C51.6634 16.0735 51.4626 16.2212 50.7652 16.9281C49.4865 18.2153 48.8525 18.5107 47.9014 18.2786C47.4364 18.1625 47.2039 17.9726 45.6822 16.4744C44.0865 14.9128 43.9491 14.8073 43.5793 14.8073C43.1988 14.8073 43.0615 14.9128 41.0431 16.9175C38.6865 19.2493 38.602 19.3021 38.0208 18.7217C37.8517 18.5529 37.7143 18.2997 37.7143 18.1731C37.7143 17.9937 38.6865 16.9492 41.3495 14.2798C43.3468 12.2751 45.0376 10.5342 45.101 10.4076C45.2701 10.0699 45.2489 9.80617 44.9953 9.48964C44.8368 9.27862 44.6889 9.21531 44.393 9.21531C44.0548 9.21531 43.9069 9.31027 43.1883 10.0277C42.6282 10.5764 42.3534 10.7874 42.3217 10.6819C42.1526 10.186 42.047 9.6268 42.047 9.22587C42.047 8.76162 42.0681 8.72997 43.6004 7.18953L45.1644 5.61743L46.5382 5.18484C47.2885 4.94217 48.155 4.73115 48.4509 4.69949C49.4654 4.61509 49.5922 4.69949 52.382 7.46385C53.9988 9.05705 55.0239 10.1649 55.1507 10.4287C55.4043 10.9457 55.4254 11.7159 55.2035 12.2329C55.119 12.4334 54.7597 12.8976 54.411 13.2669C53.872 13.8261 53.7769 13.9844 53.7769 14.3114C53.7769 14.8284 54.0728 15.1239 54.5906 15.1239C54.9393 15.1239 55.0661 15.0395 55.6896 14.4064C56.0806 14.0055 56.535 13.4252 56.6935 13.1086C56.9789 12.5811 57 12.4545 57 11.3783C57 9.66901 56.9789 9.63735 53.6818 6.356C50.4904 3.15905 50.3636 3.07464 48.8102 3.02189C47.8697 2.99024 47.7112 3.02189 46.3162 3.45448Z" fill="#44B64B"/>
<path d="M28.9961 20.5471C27.189 20.9797 25.8998 22.5096 25.7941 24.3244L25.7518 25.1263L25.2235 25.2001C24.9382 25.2423 24.3781 25.4428 23.9765 25.6433C22.8035 26.2236 21.9898 27.1309 21.5143 28.4076C21.3029 28.9563 21.2924 29.2411 21.2501 32.9129L21.2184 36.8273L21.472 37.1333L21.7362 37.4393H25.1178C28.2986 37.4393 28.51 37.4287 28.7213 37.2388C29.0172 36.9645 29.0278 36.3103 28.7319 36.0149C28.5417 35.825 28.3832 35.8038 27.3687 35.8038H26.2168L26.1745 34.1051L26.1428 32.4064L25.847 32.1532C25.5722 31.9105 25.4771 31.9 24.2196 31.9H22.8986L22.9409 30.6022C22.9726 29.5049 23.0254 29.2306 23.2579 28.7241C23.7229 27.7007 24.6528 26.9832 25.6779 26.8672L26.2063 26.8039L26.7663 27.4369C28.5628 29.41 31.4372 29.41 33.2336 27.4369L33.7937 26.8039L34.3221 26.8672C35.3471 26.9832 36.2771 27.7007 36.7421 28.7241C36.9745 29.2306 37.0274 29.5049 37.0591 30.6022L37.1014 31.9H35.7804C34.5229 31.9 34.4278 31.9105 34.153 32.1532L33.8571 32.4064L33.8254 34.1051L33.7832 35.8038H32.6313C31.6168 35.8038 31.4583 35.825 31.2681 36.0149C30.9722 36.3103 30.9828 36.9645 31.2787 37.2388C31.49 37.4287 31.7014 37.4393 34.8822 37.4393H38.2638L38.528 37.1333L38.7816 36.8273L38.7499 32.9129C38.7076 29.2411 38.697 28.9563 38.4857 28.4076C38.0102 27.1309 37.1965 26.2236 36.0235 25.6433C35.6219 25.4428 35.0618 25.2423 34.7765 25.2001L34.2481 25.1263L34.2059 24.3244C34.0579 21.7499 31.5428 19.9246 28.9961 20.5471ZM31.1413 22.3936C32.9906 23.3326 32.98 25.9914 31.1201 26.9621C30.5178 27.2892 29.4822 27.2892 28.8798 26.9621C26.7875 25.8754 27.0834 22.9211 29.3659 22.1825C29.7781 22.0454 30.6657 22.1509 31.1413 22.3936ZM24.5049 35.8038H22.9198V33.5881H24.5049V35.8038ZM37.0802 35.8038H35.4951V33.5881H37.0802V35.8038Z" fill="#44B64B"/>
<path d="M20.4892 39.4228C20.225 39.4967 19.5699 40.077 18.2701 41.3642L16.4102 43.1895L15.1526 41.9128C14.3284 41.0899 13.7049 40.5623 13.3562 40.3935C11.7499 39.6022 10.0697 39.887 8.73816 41.1848C8.18865 41.7124 8.12524 41.8179 8.12524 42.2083C8.12524 42.5564 8.17808 42.6936 8.4 42.8624C8.83327 43.2001 9.11859 43.1367 9.75264 42.5564C10.6931 41.7124 11.2532 41.5119 12.0986 41.7229C12.5636 41.839 12.7961 42.0289 14.3178 43.5271C15.9135 45.0887 16.0509 45.1942 16.4207 45.1942C16.8012 45.1942 16.9385 45.0887 18.9569 43.084C21.3135 40.7522 21.398 40.6995 21.9792 41.2798C22.1483 41.4486 22.2857 41.7018 22.2857 41.8284C22.2857 42.0078 21.3135 43.0523 18.6505 45.7217C16.6532 47.7264 14.9624 49.4673 14.899 49.5939C14.7299 49.9316 14.7511 50.1954 15.0047 50.5119C15.1632 50.7229 15.3111 50.7862 15.607 50.7862C15.9558 50.7862 16.0931 50.6913 16.7906 49.9949C17.2239 49.5623 17.6043 49.2036 17.636 49.2036C17.7311 49.2036 17.953 50.3642 17.953 50.839C17.953 51.2188 17.8579 51.3349 16.3996 52.812L14.8356 54.3841L13.5147 54.8061C11.993 55.2915 11.1898 55.4075 10.598 55.2176C10.281 55.1121 9.59413 54.5002 7.618 52.5377C6.00117 50.9445 4.97612 49.8366 4.84931 49.5728C4.59569 49.0559 4.57456 48.2856 4.79648 47.7686C4.88102 47.5576 5.45166 46.8718 6.06458 46.2493C7.25871 45.0254 7.35381 44.8144 6.95225 44.3079C6.78317 44.0863 6.64579 44.0336 6.29706 44.0336C5.87436 44.0336 5.80039 44.0863 4.73307 45.1625C4.04618 45.8589 3.48611 46.5236 3.30646 46.8823C3.02114 47.4204 3 47.5471 3 48.6233C3 50.3325 3.02114 50.3642 6.3182 53.6455C9.47788 56.8108 9.6364 56.9163 11.137 56.9902C12.0247 57.0218 12.1937 57.0007 13.6309 56.5576C14.4763 56.2938 15.364 55.9878 15.5859 55.8718C16.1988 55.5553 19.1577 52.5271 19.4219 51.9468C19.7178 51.2927 19.7072 50.4064 19.3691 48.9292L19.0838 47.7053L21.3135 45.4685C22.5288 44.2446 23.6066 43.0945 23.6912 42.9257C23.9448 42.4193 24.0082 41.7546 23.8708 41.1637C23.7018 40.4674 22.8669 39.5705 22.2329 39.4017C21.7151 39.2645 20.9859 39.2645 20.4892 39.4228Z" fill="#44B64B"/>
<path d="M37.6719 39.4439C37.1752 39.6233 36.6151 40.1403 36.3086 40.71C36.0128 41.2587 36.0022 42.3454 36.2769 42.873C36.3826 43.0734 37.4711 44.2446 38.6863 45.4685L40.9161 47.7053L40.6308 48.9292C40.2926 50.4064 40.282 51.2927 40.5779 51.9468C40.8421 52.5271 43.801 55.5553 44.4139 55.8718C44.6358 55.9878 45.5235 56.2938 46.3689 56.5576C47.8061 57.0007 47.9752 57.0218 48.8628 56.9902C50.3634 56.9163 50.5219 56.8108 53.6816 53.6455C56.9787 50.3642 56.9998 50.3325 56.9998 48.6233C56.9998 46.9035 56.9893 46.8929 53.5231 43.4427C50.4585 40.3829 50.2472 40.2247 49.0002 40.0031C48.5458 39.9293 48.1971 39.9293 47.7744 40.0137C46.7282 40.2247 46.1998 40.5623 44.8472 41.9128L43.5897 43.1895L41.7298 41.3642C40.2503 39.8976 39.7959 39.5072 39.4472 39.4123C38.8765 39.2434 38.1897 39.254 37.6719 39.4439ZM41.0429 43.084C43.0613 45.0887 43.1987 45.1942 43.5791 45.1942C43.949 45.1942 44.0863 45.0887 45.682 43.5271C47.2037 42.0289 47.4362 41.839 47.9012 41.7229C48.5036 41.5752 48.9157 41.6385 49.4969 41.9761C50.1309 42.3454 55.0026 47.2727 55.1928 47.7475C55.4253 48.2856 55.4041 49.0453 55.1505 49.5728C55.0237 49.8366 53.9987 50.9445 52.3818 52.5377C50.4057 54.5002 49.7188 55.1121 49.4018 55.2176C48.81 55.4075 48.0069 55.2915 46.4852 54.8061L45.1642 54.3841L43.6108 52.812C42.0679 51.2716 42.0468 51.2399 42.0468 50.7757C42.0468 50.3747 42.1525 49.8155 42.3216 49.3196C42.3533 49.2141 42.628 49.4251 43.1881 49.9738C43.875 50.6596 44.0652 50.7862 44.3505 50.7862C44.583 50.7862 44.7838 50.7018 44.9529 50.5224C45.2382 50.2481 45.2805 49.9527 45.1008 49.5939C45.0374 49.4673 43.3466 47.7264 41.3493 45.7217C38.6863 43.0523 37.7141 42.0078 37.7141 41.8284C37.7141 41.7018 37.8515 41.4486 38.0206 41.2798C38.6018 40.6995 38.6863 40.7522 41.0429 43.084Z" fill="#44B64B"/>
</svg>
