<svg width="60" height="60" viewBox="0 0 60 60" fill="none" xmlns="http://www.w3.org/2000/svg">
<path d="M21.5049 3.02525C19.4768 3.35243 17.7077 4.01735 16.4347 4.91447C16.165 5.10445 15.658 5.33664 15.302 5.44219C13.6192 5.90658 12.5297 7.09921 12.2168 8.81957C12.0442 9.78001 12.1521 11.9225 12.4326 13.5585L12.6591 14.8144L12.2168 15.1838C11.5588 15.7326 11.3646 16.2287 11.3646 17.3791C11.3646 18.2129 11.397 18.4029 11.6667 18.9095C12.0011 19.5639 12.6807 20.0388 13.4035 20.1338L13.8457 20.1971L14.0723 20.9465C14.3959 22.0125 14.849 22.899 15.5286 23.7856L16.1111 24.5455V25.4109C16.1111 26.1603 16.0895 26.287 15.9277 26.287C15.8306 26.287 15.1618 26.8569 14.439 27.564L13.123 28.8305L10.8037 29.7066C7.88026 30.8148 7.31931 31.1103 6.51025 31.9546C5.39914 33.1156 5 34.171 5 35.9441C5 37.1262 5.50701 50.1186 5.6041 51.4907C5.67961 52.5355 5.84142 52.7783 6.48867 52.7783C6.8986 52.7783 7.1575 52.6094 7.28695 52.2506C7.31931 52.1556 7.21143 48.7571 7.03883 44.7042C6.71521 36.8307 6.67206 34.9837 6.82309 34.8993C6.86624 34.8676 7.57821 35.5009 8.38727 36.303C9.49838 37.4218 9.92988 37.9178 10.1564 38.3927L10.4477 39.0049L10.5016 45.6647C10.5556 52.0395 10.5663 52.3456 10.7605 52.5566C11.0518 52.8733 11.6775 52.8522 11.9903 52.5355L12.2276 52.2928V45.7702C12.2276 38.5933 12.2276 38.6249 11.5588 37.3268C11.3107 36.8413 10.8037 36.2608 9.46602 34.9309L7.69687 33.1895L8.05286 32.8623C8.51672 32.4296 8.60302 32.3873 11.2028 31.3952L13.4682 30.5298L15.1294 32.9784C16.0356 34.3188 16.8878 35.5325 17.0173 35.6592C17.5782 36.2713 18.6354 36.5352 19.4768 36.2819L19.9838 36.1236L19.9299 37.0946C19.7465 40.092 19.2611 52.0922 19.315 52.24C19.4444 52.5989 19.7033 52.7783 20.0917 52.7783C20.5016 52.7783 20.6095 52.7255 20.836 52.4511C20.9331 52.3244 21.0626 50.393 21.2891 45.2214C21.4617 41.3374 21.6127 37.96 21.6127 37.7067V37.2634H23.3279L23.3819 37.6012C23.4142 37.7912 23.5653 41.0313 23.7163 44.8098C23.8673 48.5777 24.0183 51.8284 24.0507 52.0184C24.0831 52.2083 24.2017 52.4616 24.3204 52.5777C24.6009 52.8522 25.2157 52.8416 25.4962 52.5672C25.7767 52.2928 25.7767 52.2717 25.3883 43.6488C25.2157 39.7543 25.0647 36.4719 25.0647 36.3347C25.0647 36.113 25.0863 36.1025 25.3128 36.2186C25.4423 36.2924 25.863 36.3558 26.2513 36.3558C26.8339 36.3663 27.0388 36.3135 27.4703 36.0708C27.9234 35.8069 28.1931 35.4586 29.7789 33.1473C30.7605 31.7013 31.6019 30.5298 31.6343 30.5509C31.9795 30.762 35.4423 31.9863 35.6688 31.9863C36.37 31.9863 36.7476 31.0786 36.2513 30.6142C36.1111 30.4876 35.0647 30.0232 33.9105 29.5905L31.8069 28.8094L30.5124 27.5535C29.8004 26.8569 29.1532 26.287 29.0777 26.287C28.9914 26.287 28.9482 26.0336 28.9482 25.3898V24.4822L29.4876 23.7961C30.1348 22.9729 30.8145 21.6114 30.9978 20.767C31.1381 20.1971 31.1597 20.1655 31.4725 20.1655C32.2816 20.1549 33.3064 19.3422 33.5653 18.4873C33.7702 17.8224 33.7271 16.5981 33.4682 16.0493C33.3495 15.796 33.1877 15.511 33.1014 15.416C32.9935 15.2894 32.9827 15.131 33.0798 14.6244C33.1446 14.2761 33.1877 13.1574 33.1877 12.1442C33.1877 10.4871 33.1661 10.1916 32.9072 9.26285C32.2168 6.71926 30.8252 5.03057 28.5707 3.96458C26.9741 3.21523 26.1003 3.04636 23.7702 3.00414C22.6699 2.99359 21.6559 3.00414 21.5049 3.02525ZM26.521 5.00946C28.9914 5.73771 30.534 7.24697 31.2136 9.61114C31.6235 11.0571 31.6019 14.3289 31.1812 14.5928C30.8684 14.7828 30.6634 14.6667 30.4369 14.1706C29.5307 12.1125 29.5631 12.1336 28.2255 12.3975C24.6764 13.0941 21.2999 12.788 19.2718 11.5954C18.9482 11.4054 18.3441 10.9515 17.9342 10.5821C17.0928 9.85389 16.8015 9.76945 16.3808 10.1916C15.7875 10.7616 16.1543 11.4898 17.5458 12.5241C19.7573 14.1706 23.1769 14.8039 27.0712 14.3078C27.7724 14.2128 28.3981 14.16 28.4628 14.1917C28.5275 14.2128 28.7217 14.5717 28.8835 14.9727C29.0561 15.3843 29.3366 15.8487 29.5092 16.0176C29.8004 16.292 29.8867 16.3131 30.6958 16.3131C31.7638 16.3237 31.9687 16.482 31.9687 17.3686C31.9687 18.1074 31.6882 18.4768 31.1273 18.4768C30.5987 18.4768 29.9407 18.8673 29.6926 19.3211C29.5847 19.5216 29.3797 20.0916 29.2287 20.5876C28.5383 22.8674 26.5965 24.6616 24.1478 25.2843C23.3495 25.4848 21.7638 25.4848 20.9115 25.2843C20.1564 25.1154 19.1748 24.6827 18.4844 24.2078C17.8587 23.7856 16.8986 22.7935 16.4671 22.118C16.1543 21.6219 15.6796 20.4082 15.5178 19.7011C15.4099 19.2261 14.7303 18.614 14.2233 18.5401C13.3819 18.4134 13.2632 18.3396 13.1122 17.8963C12.918 17.3263 13.0367 16.7353 13.3819 16.4714C13.7163 16.2181 13.9644 16.2709 14.4714 16.6931C14.7411 16.9358 14.9353 16.9992 15.302 16.9992C15.7012 16.9992 15.8738 16.9253 16.3484 16.5453C17.1899 15.8698 17.7292 15.131 17.7292 14.6455C17.7292 13.8223 16.7907 13.5162 16.2406 14.16C16.0787 14.35 15.8198 14.6455 15.6688 14.825L15.3776 15.1416L14.8921 14.8883L14.3959 14.635L14.2341 13.7273C13.835 11.6165 13.7379 9.98054 13.9644 8.97788C14.1802 7.98578 15.0539 7.14143 15.9817 7.02533C16.3376 6.97256 16.7152 6.80369 17.2762 6.42374C18.5275 5.58995 19.9622 4.99891 21.3754 4.75616C21.6559 4.70338 22.7131 4.68228 23.7163 4.69283C25.3452 4.72449 25.658 4.75616 26.521 5.00946ZM19.3474 26.593C20.3937 26.973 21.3107 27.1313 22.4973 27.1313C24.0615 27.1313 25.2805 26.8463 26.6073 26.1709L27.2222 25.8648V27.3952L24.9353 29.3477C23.6731 30.4242 22.5836 31.3003 22.5189 31.3003C22.4434 31.3003 21.3646 30.4242 20.1133 29.3688L17.8371 27.4268V25.8542L18.301 26.1181C18.5491 26.2658 19.0237 26.4769 19.3474 26.593ZM18.6462 30.3926C19.8328 31.4058 20.9008 32.3135 21.0194 32.4296C21.2244 32.6195 21.2136 32.6301 20.2643 33.5694C19.1748 34.646 18.8296 34.8359 18.452 34.6038C18.3225 34.5088 17.4595 33.3372 16.5534 31.9968L14.8813 29.5482L15.5178 28.9255C16.0464 28.3978 16.1758 28.3239 16.3161 28.4295C16.4132 28.5034 17.4595 29.3794 18.6462 30.3926ZM28.4088 32.0918C26.6397 34.6776 26.4347 34.8993 25.9493 34.6354C25.8522 34.5826 25.3344 34.1077 24.795 33.58C23.8349 32.6195 23.8349 32.6195 24.0399 32.4085C24.1586 32.2924 25.2805 31.3319 26.521 30.2554L28.7864 28.3134L29.4552 28.9466L30.1133 29.5905L28.4088 32.0918ZM23.2632 35.0154L23.3279 35.5747H21.7206V35.0787C21.7206 34.646 21.7745 34.5299 22.1197 34.1816L22.5189 33.7805L22.8641 34.1183C23.1338 34.3927 23.2201 34.5932 23.2632 35.0154Z" fill="#44B64B"/>
<path d="M38.0097 32.609C37.2654 32.8306 36.6936 33.3056 36.3269 33.9916C36.1866 34.266 36.1219 34.6671 36.0895 35.5431L36.0464 36.7252L33.0583 36.7568C29.8328 36.7885 29.7573 36.8096 28.8188 37.4429C28.3118 37.7806 27.7292 38.6461 27.5674 39.2899C27.4919 39.5643 27.438 40.5247 27.438 41.4324C27.438 43.1739 27.5998 43.9865 28.0852 44.662C28.2794 44.9153 28.2902 45.2319 28.3225 49.7809L28.3549 54.6253L28.6138 55.1424C28.959 55.8285 29.5955 56.4301 30.2967 56.7467L30.8576 57L41.3646 56.9789L51.8716 56.9472L52.3786 56.6939C52.9935 56.3879 53.5545 55.839 53.8889 55.2058C54.137 54.7308 54.137 54.7097 54.1909 49.8758L54.2449 45.0209L55 43.5433V41.3268C55 39.1315 55 39.1104 54.7087 38.5722C54.4067 38.0233 53.7702 37.3795 53.2524 37.1262C52.6375 36.8202 51.7853 36.7357 49.1208 36.7357H46.4239V35.5959C46.4239 34.5826 46.3916 34.3927 46.1435 33.9072C45.9924 33.6011 45.7012 33.2317 45.5178 33.0945C44.795 32.5562 44.4714 32.514 41.2567 32.5246C39.617 32.5246 38.1607 32.5668 38.0097 32.609ZM44.1909 34.3293C44.6224 34.551 44.6872 34.7515 44.6979 35.7542V36.7357H37.7724L37.8155 35.7225C37.8479 34.7621 37.8695 34.6987 38.1499 34.456L38.452 34.2027H41.2028C43.0906 34.2027 44.0291 34.2449 44.1909 34.3293ZM52.6052 38.7727C53.274 39.2688 53.3279 39.4798 53.3279 41.3585C53.3279 42.9417 53.3172 43.0578 53.0475 43.5749C52.7023 44.2398 51.8285 45.042 50.7497 45.6541L49.9407 46.1291L49.822 45.7913C49.6386 45.2214 49.4013 45.1686 47.2114 45.2003C44.5901 45.2425 44.7519 45.0947 44.7519 47.48C44.7519 48.9998 44.7842 49.2954 44.9568 49.6436C45.4207 50.5619 46.2837 51.079 47.3193 51.0896C48.808 51.0896 49.8652 50.0658 49.8759 48.6093V47.9655L50.7174 47.5856C51.1704 47.3745 51.753 47.0789 52.0119 46.9206L52.4649 46.6462V50.4352C52.4649 54.1926 52.4649 54.2242 52.2168 54.5725C52.0874 54.773 51.8069 55.0263 51.6019 55.1424C51.2244 55.3641 51.1165 55.3641 41.246 55.3641C30.1456 55.3641 30.89 55.4169 30.329 54.6569C30.0809 54.3087 30.0809 54.2981 30.0485 50.4774C30.0378 48.3771 30.0485 46.6568 30.0701 46.6568C30.1025 46.6568 30.383 46.8151 30.6958 47.0051C31.0086 47.195 31.5696 47.4906 31.9471 47.6594L32.616 47.9655V48.4932C32.6268 49.5592 33.1661 50.4247 34.0615 50.8363C35.3991 51.4484 37.028 50.8996 37.5351 49.6648C37.7077 49.2637 37.7832 49.1898 37.9558 49.2426C38.0744 49.2742 39.1316 49.3376 40.3074 49.3692C42.4326 49.4326 42.4434 49.4326 42.7023 49.1898C43.0367 48.8837 43.0583 48.3666 42.767 48.0183C42.562 47.7755 42.4973 47.765 40.5232 47.7017C39.4013 47.6594 38.3333 47.5961 38.1392 47.5539L37.794 47.48V46.6462C37.794 45.6647 37.7077 45.4536 37.2438 45.2953C36.8015 45.1475 33.6192 45.1475 33.1769 45.2953C32.9827 45.3586 32.7994 45.5275 32.7238 45.7174C32.6483 45.8863 32.5728 46.0235 32.5405 46.0235C32.3894 46.0235 31.3754 45.443 30.836 45.042C30.1025 44.4931 29.6818 44.0076 29.3797 43.3533C29.2071 42.9839 29.164 42.6567 29.164 41.3796C29.164 39.9865 29.1855 39.7965 29.4121 39.3743C29.5847 39.0471 29.7896 38.836 30.1241 38.6672L30.6095 38.4244L52.2168 38.4772L52.6052 38.7727ZM36.068 47.8705C36.068 48.7993 36.0464 48.9048 35.7983 49.137C35.5394 49.3903 35.1834 49.4642 34.8274 49.3376C34.5038 49.2109 34.342 48.7043 34.342 47.765V46.8679H36.068V47.8705ZM48.1499 47.8916C48.1499 48.7993 48.1176 48.9365 47.9126 49.1581C47.7616 49.3165 47.5566 49.4009 47.3517 49.4009C46.6613 49.3903 46.4239 48.9576 46.4239 47.7017V46.8679H48.1499V47.8916Z" fill="#44B64B"/>
</svg>
