<svg width="76" height="75" viewBox="0 0 76 75" fill="none" xmlns="http://www.w3.org/2000/svg">
<path fill-rule="evenodd" clip-rule="evenodd" d="M33.9931 0.292053C30.7411 1.14166 27.8993 3.36823 26.3906 6.29791C25.248 8.50983 25.0429 9.63776 25.7167 10.209C26.5517 10.9268 27.3427 10.4434 27.8261 8.91998C28.412 7.11823 29.6572 5.37506 31.122 4.27643C32.9091 2.95807 34.7255 2.34283 36.8642 2.32819C39.7792 2.31354 42.1083 3.33893 44.0859 5.52155C46.8984 8.58307 47.3671 13.212 45.2431 16.8155C44.5839 17.9288 42.914 19.584 41.7568 20.2579C40.1747 21.1807 39.0468 21.459 36.9228 21.459C35.37 21.459 34.9306 21.4005 34.0663 21.1075C32.1181 20.4337 30.4482 19.2764 29.3495 17.8116C28.5585 16.7422 28.207 16.0684 27.7529 14.7354C27.372 13.6368 27.1083 13.3438 26.4784 13.3292C25.3945 13.3145 25.0722 14.0469 25.5117 15.4971C26.8007 19.7012 30.2724 22.8214 34.6083 23.671L35.8534 23.9053L35.5751 24.8868C35.3408 25.7364 34.872 28.3145 34.872 28.8126C34.872 28.9444 34.5351 29.003 33.7148 29.003H32.5575L32.455 28.5342C32.3964 28.2706 32.0156 27.7432 31.5175 27.2305C30.3749 26.0587 29.6865 25.8682 26.9032 25.9561C25.1308 26.0001 24.7499 26.0587 24.2226 26.337C23.2851 26.835 22.6699 27.4356 22.2743 28.2559C22.0693 28.6954 21.8349 29.003 21.7031 29.003C21.5712 29.003 21.2783 28.6368 21.0146 28.1534C19.4033 25.1358 15.0234 25.2823 13.5732 28.4024C13.2949 29.003 13.2656 29.3399 13.2656 31.42C13.2656 33.588 13.2949 33.8223 13.6171 34.4669C14.0419 35.3458 14.8329 36.1368 15.6386 36.503C16.122 36.7227 16.2685 36.8546 16.2685 37.1329C16.2685 37.3965 16.1513 37.5137 15.7704 37.6456C15.0087 37.8946 14.1298 38.7442 13.6757 39.6671C13.2802 40.4727 13.2656 40.5753 13.2656 42.8458C13.2656 45.1016 13.2802 45.2188 13.6611 45.9366C14.1152 46.8008 14.9941 47.6505 15.7411 47.9141L16.2685 48.1046V49.3057V50.5069L13.6025 50.5655C11.2148 50.6094 10.8632 50.6387 10.4091 50.9171C9.57415 51.4005 9.23724 52.045 9.23724 53.1143V54.0518H6.02923C2.95306 54.0518 2.82122 54.0665 2.35247 54.3887C2.0888 54.5645 1.72259 54.9014 1.56146 55.1212C1.25384 55.5313 1.25384 55.6631 1.25384 62.8116L1.2538 63.4758C1.25317 69.4285 1.25306 70.4499 1.76276 70.9908C1.86832 71.1028 1.99575 71.1942 2.14956 71.3046L2.14956 71.3046C2.17727 71.3244 2.20584 71.3449 2.23529 71.3663C2.70404 71.6885 2.83587 71.7032 5.97064 71.7471L9.23724 71.7911V72.5528C9.23724 73.4903 9.5888 74.2227 10.248 74.6622L10.746 74.9991H17.3525C23.6806 74.9991 23.9736 74.9844 24.4423 74.7061C25.1601 74.2667 25.497 73.6075 25.497 72.626V71.7764L41.5077 71.7471L57.5038 71.7032L58.163 71.3516C58.9687 70.9415 74.2616 55.751 74.789 54.8575C75.2431 54.0665 75.3456 53.4659 75.1552 52.7481C74.7304 51.1368 72.4159 49.7598 69.8525 49.5547C68.4023 49.4376 67.1718 49.6866 65.7802 50.3458C64.8427 50.7999 64.3739 51.1807 62.5868 52.9385C60.6825 54.8282 60.5068 55.0479 60.5068 55.5313C60.5068 56.2051 60.9902 56.6885 61.6786 56.6885C62.1181 56.6885 62.3964 56.4542 64.1542 54.7403C66.6591 52.2794 67.2743 51.9424 69.2226 51.9278C70.4238 51.9278 70.6288 51.9717 71.5077 52.3965C71.6678 52.4753 71.8191 52.5397 71.9558 52.5979C72.2806 52.7362 72.5228 52.8392 72.6031 53.0159C72.8382 53.5328 71.688 54.6796 67.1723 59.1823L67.1679 59.1867L67.1602 59.1943L67.1489 59.2056C66.4962 59.8565 65.7733 60.5772 64.9745 61.376L56.9911 69.3594L41.2441 69.4034L25.497 69.4327V62.8409V56.2491H26.7421C27.4892 56.2491 28.1923 56.1612 28.4853 56.044C28.7636 55.9268 29.4521 55.3702 30.0087 54.8135C30.7558 54.0665 31.371 53.627 32.1913 53.2169L33.3339 52.6602L42.2548 52.6163L51.1757 52.5723L51.0732 53.2022C50.8241 54.7989 49.7109 56.2637 48.2167 56.9669C47.3975 57.3472 47.3672 57.3477 43.078 57.4207L43.0605 57.421L38.7245 57.4942L38.0214 57.9337C36.9667 58.5782 36.4394 59.6475 36.5126 60.9512C36.5712 62.1085 37.0253 62.9141 37.9775 63.5294L38.5927 63.9395L46.5029 63.9835C51.9667 64.0128 54.5448 63.9688 54.8085 63.8663C55.0136 63.7784 56.0976 62.7969 57.1962 61.6837C58.9247 59.9405 59.1884 59.6036 59.1884 59.1934C59.1884 58.5635 58.6318 58.0069 58.0019 58.0069C57.5917 58.0069 57.2695 58.2559 55.6728 59.838L53.8271 61.669H46.5615H39.2812L39.0615 61.3467C38.7392 60.8926 38.7685 60.4092 39.12 60.0577C39.3984 59.7794 39.6034 59.7647 43.1337 59.7647C45.1698 59.7647 47.206 59.6915 47.6308 59.6182C50.3847 59.0909 52.7284 56.8057 53.3144 54.0811C53.6806 52.338 53.4023 51.2247 52.4501 50.5655L51.9521 50.2286L42.5038 50.2725L33.0409 50.3165L31.9863 50.6973C30.7118 51.1661 29.1298 52.2061 28.2949 53.0997C27.5771 53.8907 27.2109 54.0518 26.2148 54.0518H25.497V53.1143C25.497 52.045 25.1601 51.4005 24.3251 50.9171C23.871 50.6387 23.5195 50.6094 21.2197 50.5655L18.6122 50.5069V49.3057V48.0899L19.1982 47.8262C20.0478 47.4454 20.912 46.4932 21.249 45.5997C21.6298 44.5889 21.6738 41.3516 21.3222 40.1797C21.0439 39.2715 20.1503 38.2169 19.2714 37.7921C18.7294 37.5284 18.6122 37.3965 18.6122 37.0743C18.6122 36.7667 18.7148 36.6495 19.0956 36.503C19.8281 36.2393 20.5605 35.5508 21.0292 34.7012C21.3954 34.0274 21.4687 33.7051 21.5126 32.5479C21.5566 31.6837 21.6298 31.2003 21.747 31.2003C21.8349 31.2003 22.1132 31.5811 22.3476 32.0352C22.8603 33.0313 23.7245 33.7344 24.7939 34.0567C25.8339 34.3643 28.8368 34.3497 29.8915 34.0421C30.8437 33.7637 32.2792 32.4307 32.455 31.669L32.5575 31.2003H33.7001H34.8574L34.9306 31.669C35.2089 33.6172 35.3993 34.5108 35.7656 35.6094C37.8163 41.9229 42.9726 46.5518 49.5497 48.002C51.3661 48.3975 55.4091 48.3682 57.2548 47.9288C67.9335 45.4532 74.1005 34.5108 70.6728 24.0958C69.2079 19.6573 65.6923 15.629 61.4589 13.5049C57.8847 11.7178 53.9589 11.2051 49.5058 11.9522L48.9784 12.0401L48.8906 10.8975C48.7587 9.2569 48.4511 8.18756 47.6161 6.48834C46.0927 3.38287 43.2216 1.11237 39.7939 0.292053C38.1825 -0.103455 35.5165 -0.0888062 33.9931 0.292053ZM57.0204 14.4131C62.2499 15.7462 66.4687 19.5108 68.2851 24.4766C69.5595 27.963 69.6034 31.5811 68.4169 35.0967C66.703 40.1797 62.4697 44.0909 57.1816 45.5118C55.8925 45.8633 55.4823 45.9073 53.2558 45.9073C51.0146 45.9073 50.6191 45.8633 49.3007 45.5118C47.5575 45.043 44.9941 43.7979 43.6464 42.7872C38.2265 38.6563 35.9413 31.6104 37.9775 25.2237C38.2118 24.4766 38.4902 23.8321 38.5781 23.8174C38.6643 23.7928 39.0927 23.6956 39.6103 23.5781L39.9111 23.5098C42.1816 23.0118 44.745 21.3712 46.3124 19.4229C47.162 18.3829 47.8359 17.1378 48.3486 15.6876L48.7294 14.5889L49.5058 14.3839C51.7909 13.8126 54.6913 13.8272 57.0204 14.4131ZM18.4218 28.6368C19.0077 29.0323 19.1982 29.7061 19.1982 31.42C19.1982 32.5186 19.1249 33.1192 18.9638 33.5147L18.7294 34.0567L18.5536 33.5587C18.3339 32.9581 17.9531 32.6651 17.3671 32.6651C16.7519 32.6651 16.415 32.9434 16.2831 33.544L16.1806 34.0567L15.8876 33.6172C15.6825 33.295 15.5947 32.8702 15.5654 31.8155C15.5361 31.0684 15.5507 30.2188 15.5947 29.9551C15.7118 29.3985 16.2978 28.6075 16.7665 28.4024C17.1767 28.2266 17.9677 28.3438 18.4218 28.6368ZM29.4081 28.5635C30.6825 29.3399 30.6825 30.8487 29.4081 31.6544C28.998 31.9034 28.7343 31.9327 27.1816 31.9034C25.7167 31.8594 25.3359 31.8155 24.9843 31.5665L24.5449 31.2881L25.1015 31.1856C25.746 31.0831 26.0683 30.7169 26.0829 30.087C26.0829 29.501 25.6142 29.003 25.0429 29.003C24.5009 29.003 24.6034 28.7686 25.2626 28.4756C25.5556 28.3585 26.3027 28.2852 27.3281 28.2706C28.6757 28.2706 29.0126 28.3145 29.4081 28.5635ZM18.2753 39.9893C19.081 40.4727 19.2275 40.9561 19.1689 42.9922C19.1396 44.2667 19.0663 44.8526 18.9199 45.0284C18.7148 45.2628 18.6855 45.2481 18.4804 44.794C18.2021 44.2374 17.6015 43.9005 17.0888 44.0323C16.62 44.1495 16.4003 44.4131 16.2831 45.0137L16.1806 45.4825L15.8876 45.043C15.5214 44.501 15.4042 41.8497 15.7118 40.9415C16.0781 39.8575 17.3085 39.3887 18.2753 39.9893ZM23.1533 62.8409V72.8018H17.3671H11.5956L11.5517 68.7735L11.5499 68.5909V68.5909C11.5192 65.4599 11.5114 64.6544 11.1256 64.3799C10.992 64.2849 10.8131 64.2535 10.5722 64.2112L10.5263 64.2032C10.0868 64.1446 9.92571 64.1885 9.6181 64.4962C9.23724 64.877 9.23724 64.9063 9.23724 67.1622V69.4327H6.38079H3.52435L3.55365 62.8702L3.59759 56.3223L6.42474 56.2784L9.23724 56.2491V58.4756C9.23724 60.5557 9.25189 60.7169 9.5595 61.0391C9.95501 61.4639 10.6874 61.4786 11.1562 61.0977L11.5077 60.8194L11.5517 56.8497L11.5956 52.8799H17.3671H23.1533V62.8409ZM52.5527 18.6319C52.2011 18.9102 52.0107 19.5401 52.0107 20.4922V21.3419L50.8828 21.4151C49.081 21.5176 47.8212 22.3233 47.0742 23.8467C46.6933 24.6085 46.664 24.8135 46.664 26.293C46.6787 27.67 46.7226 28.0069 47.0009 28.5782C47.455 29.5157 48.2607 30.2921 49.2275 30.7462C49.9892 31.0977 50.1943 31.127 53.1386 31.2003C55.9804 31.2735 56.2734 31.3028 56.6542 31.5811C57.2548 32.0206 57.5771 32.753 57.5771 33.6905C57.5771 34.6719 57.2402 35.4044 56.5663 35.8438C56.0976 36.1661 55.9365 36.1807 53.2705 36.1807C50.7509 36.1807 50.4287 36.1514 50.0038 35.8878C49.3886 35.5215 49.1103 35.0674 48.9492 34.2032C48.7734 33.2803 48.3486 32.8995 47.6308 33.0167C46.8544 33.1339 46.664 33.4268 46.6787 34.3936C46.6933 35.5508 47.1767 36.6055 48.0703 37.4112C48.9345 38.1876 49.8427 38.5245 51.0585 38.5245H51.9667L52.04 39.711C52.1279 41.1026 52.3769 41.4835 53.2412 41.4835C54.1494 41.4835 54.3544 41.1758 54.3544 39.7403V38.5245H55.3505C55.9072 38.5245 56.6542 38.4219 57.0351 38.2901C57.9579 37.9825 58.9394 37.0743 59.4374 36.0635C59.8036 35.3018 59.8476 35.0821 59.8476 33.6905C59.8329 31.8301 59.5253 30.9512 58.4999 30.0137C57.4013 29.003 57.1669 28.9444 53.5927 28.8565C50.6777 28.7833 50.3847 28.754 50.0185 28.4756C49.1835 27.8604 49.0078 27.4649 49.0078 26.2491C49.0078 25.2969 49.0663 25.0479 49.3593 24.6231C49.9306 23.8321 50.3554 23.7296 53.2851 23.7296C55.5263 23.7296 55.9658 23.7735 56.4052 23.9932C56.9765 24.2862 57.5771 25.2969 57.5771 25.9415C57.5771 26.7764 58.7929 27.2452 59.496 26.6739C59.8036 26.4249 59.8476 26.2637 59.8329 25.502C59.789 23.1729 57.8261 21.3858 55.3066 21.3858H54.3544V20.2139C54.3544 19.2325 54.3105 18.9981 54.0615 18.7491C53.7246 18.4122 52.9335 18.3536 52.5527 18.6319ZM41.1708 29.5743C41.1708 28.0362 41.3173 27.5089 41.8154 27.2598C42.2402 27.0401 42.958 27.1866 43.2656 27.5528C43.4706 27.8018 43.5146 28.1534 43.5146 29.5303C43.5146 31.0098 43.4853 31.2296 43.2216 31.4932C42.7675 31.9473 41.8593 31.8887 41.4785 31.4053C41.2148 31.0684 41.1708 30.8047 41.1708 29.5743ZM63.6269 27.2452C63.1142 27.4503 62.997 27.8751 62.997 29.5743C62.997 31.0098 63.0263 31.2296 63.29 31.4932C63.7441 31.9473 64.6523 31.8887 65.0332 31.4053C65.2968 31.0684 65.3408 30.8047 65.3408 29.4864C65.3408 27.9922 65.3261 27.9483 64.916 27.5235C64.4765 27.084 64.1835 27.0255 63.6269 27.2452ZM35.8537 11.4395C37.3624 8.81743 38.754 6.50298 38.9445 6.31255C39.2228 6.03423 39.3839 5.99028 39.8234 6.06352C40.4386 6.15141 40.8781 6.60551 40.8781 7.14751C40.8781 7.51372 35.6925 16.6983 35.0773 17.4161C34.6964 17.8702 33.8615 17.9141 33.4074 17.504C32.7775 16.9327 32.9386 16.5225 35.8537 11.4395ZM32.3083 7.25006C31.5759 7.96783 32.0886 9.2276 33.114 9.2276C33.7146 9.2276 34.2858 8.65631 34.2858 8.05573C34.2858 7.45514 33.7146 6.88385 33.114 6.88385C32.8356 6.88385 32.528 7.01569 32.3083 7.25006ZM39.9698 16.5958C39.6036 16.2589 39.6183 15.3214 39.9991 14.9405C40.3653 14.5743 41.171 14.5596 41.6104 14.9112C41.8302 15.087 41.9327 15.336 41.9473 15.7315C41.9766 16.8155 40.7901 17.3428 39.9698 16.5958Z" fill="#44B64B"/>
</svg>
