<svg width="60" height="60" viewBox="0 0 60 60" fill="none" xmlns="http://www.w3.org/2000/svg">
<path fill-rule="evenodd" clip-rule="evenodd" d="M18.1193 12.2696C16.0894 10.0622 17.0545 6.53485 19.9052 5.74728C21.1808 5.40342 22.7005 5.79165 23.6545 6.72342C25.2185 8.24308 25.2518 10.7278 23.721 12.3029L23.2329 12.8021V15.7859V18.7809H28.5573H33.8817V17.6605C33.8817 16.5735 33.8928 16.5402 34.2034 16.2185C34.5916 15.8303 35.1573 15.7859 35.5566 16.1076C35.7008 16.2185 36.322 16.873 36.9321 17.5496L38.0413 18.7809H46.9264C47.4671 18.7809 47.9774 18.7807 48.459 18.7806C55.3649 18.7784 56.3799 18.7781 57.0079 19.271C57.1161 19.3559 57.2128 19.4554 57.3262 19.5721L57.3262 19.5721L57.3264 19.5723C57.3694 19.6166 57.4148 19.6633 57.4642 19.7126C57.5376 19.7869 57.6053 19.8482 57.6677 19.9047L57.6677 19.9047L57.6678 19.9048C57.7379 19.9682 57.8013 20.0256 57.8586 20.0885C58.4011 20.6837 58.4007 21.7736 58.3967 33.1773V33.1773V33.1774V33.1775C58.3963 34.2363 58.3959 35.3841 58.3959 36.6286V51.8918L58.1297 52.4464C57.808 53.1341 57.1758 53.7442 56.4548 54.077C55.9223 54.321 55.7781 54.3321 52.528 54.3654C50.6756 54.3876 49.0339 54.3765 48.8897 54.3321C48.2242 54.1657 47.9912 53.4558 48.4238 52.9012L48.6457 52.6128H51.9401C54.9462 52.6128 55.279 52.5906 55.7005 52.3909C55.9778 52.2689 56.2662 52.0249 56.3993 51.8141C56.6211 51.4481 56.6211 51.2928 56.6211 36.5399C56.6211 21.8868 56.6211 21.6316 56.3993 21.2767C56.3789 21.244 56.3602 21.2128 56.3423 21.183C56.2911 21.0978 56.2468 21.024 56.1911 20.96C55.8293 20.5451 54.9877 20.5484 48.682 20.5736L47.5919 20.5779L39.7274 20.6111L40.7368 21.7204C41.846 22.9294 42.0124 23.2955 41.7129 23.8501C41.4467 24.3826 41.0807 24.4713 39.7717 24.3382L39.608 24.3204C38.702 24.2218 38.4896 24.1987 38.4418 24.2766C38.4272 24.3005 38.4279 24.3338 38.429 24.3773V24.3774C38.4293 24.3894 38.4296 24.4022 38.4296 24.4158C38.4296 24.5268 38.363 24.8706 38.2854 25.1923L38.1301 25.7691L45.6507 25.7913L53.1714 25.8246L53.5042 26.1462C53.9811 26.601 54.0699 27.0336 54.0699 28.7641C54.0699 30.4945 53.9811 30.9271 53.5042 31.3819L53.1714 31.7036L42.8333 31.7701C37.1428 31.8034 31.885 31.8478 31.1418 31.8588L29.7775 31.8699V33.0901C29.7775 34.1661 29.7553 34.3325 29.5556 34.5321C29.245 34.8427 28.5573 34.8316 28.2689 34.521C28.0692 34.2992 28.0581 34.0551 28.0581 29.5405C28.0581 25.0259 28.0692 24.7819 28.2689 24.56C28.5573 24.2494 29.245 24.2384 29.5556 24.5489C29.7553 24.7486 29.7775 24.915 29.7775 26.002V27.2444L30.2544 27.1668C31.5301 26.9671 32.5173 26.3681 33.1607 25.4031C33.7153 24.5711 33.8817 23.7725 33.8817 22.031V20.5557H19.162C5.01919 20.5557 4.4202 20.5668 4.1207 20.7664L4.06402 20.8031C3.94675 20.8788 3.85121 20.9404 3.77305 21.0193C3.42953 21.3659 3.42174 22.0452 3.37971 25.7106L3.37751 25.9022L3.37712 25.9327C3.32205 30.2728 3.32148 30.3176 3.07801 30.561C2.76743 30.8716 2.14625 30.8827 1.82457 30.5943C1.60272 30.3946 1.60272 30.2837 1.60272 25.88C1.60272 21.8564 1.60272 20.9315 2.02833 20.2883C2.15536 20.0963 2.32031 19.9294 2.53449 19.7126C2.5706 19.6765 2.60487 19.6418 2.63781 19.6084L2.63936 19.6069L2.63949 19.6067C2.77991 19.4645 2.89619 19.3467 3.02752 19.2491C3.66035 18.7791 4.64252 18.7793 10.3576 18.7807L11.3862 18.7809H18.5741V15.7748V12.7577L18.1193 12.2696ZM22.9224 8.78661C22.756 8.3651 22.279 7.84375 21.8797 7.65518C21.4803 7.4777 20.9146 7.34459 20.7372 7.41115C20.6817 7.43333 20.4931 7.4777 20.3156 7.51098C19.8608 7.61081 19.1731 8.29854 18.9513 8.85316C18.3634 10.4061 19.9496 12.0922 21.5136 11.5708C22.0017 11.4044 22.6229 10.8831 22.8558 10.4394C23.0444 10.0733 23.0777 9.20812 22.9224 8.78661ZM21.4582 18.7809V16.1187V13.4565H20.959H20.4598V16.1187V18.7809H20.959H21.4582ZM38.6403 22.1419C38.485 21.9644 37.7973 21.2101 37.0985 20.4447C36.7243 20.0283 36.3731 19.6414 36.1217 19.3645L36.1211 19.3638L36.1196 19.3622C35.9101 19.1314 35.7704 18.9775 35.7452 18.9473C35.7008 18.8918 35.6565 19.9456 35.6565 21.2989C35.6565 24.0831 35.5788 24.6155 35.0464 25.7469C34.2477 27.433 32.606 28.6199 30.6871 28.8972L29.7775 29.0303V29.5073V29.9842H30.3432C31.6965 29.9842 33.3714 29.2521 34.5472 28.1318C35.7785 26.9782 36.4551 25.6027 36.6659 23.839C36.7879 22.8962 36.8433 22.7298 37.0874 22.5301C37.3425 22.3305 37.4756 22.3194 38.1523 22.3748L38.9176 22.4525L38.6403 22.1419ZM52.1842 29.9842V28.7641V27.5439H44.7744H37.3536L37.0208 28.0652C36.8323 28.3647 36.3664 28.9083 35.9781 29.2854L35.2904 29.9842H43.7317H52.1842ZM6.06174 26.7009C6.15048 26.4346 6.35015 26.1795 6.58309 26.0242L6.96023 25.7691H15.0133C21.2362 25.7691 23.133 25.8024 23.3437 25.9133C23.4879 25.991 23.732 26.2239 23.8651 26.4236L24.1202 26.8007V36.8282C24.1202 37.4903 24.1204 38.1113 24.1206 38.6939V38.6939V38.694V38.694C24.1229 46.3815 24.1232 47.3777 23.6609 47.6909C23.592 47.7375 23.5129 47.769 23.4221 47.8052C23.3768 47.8232 23.3285 47.8424 23.2772 47.8652C22.8224 48.0649 22.4453 48.0649 14.8913 48.0427L13.8419 48.0388C7.51718 48.0157 6.72907 48.0128 6.38593 47.6206C6.3371 47.5648 6.29727 47.5011 6.25178 47.4283L6.25177 47.4283L6.25176 47.4283C6.23078 47.3947 6.20859 47.3592 6.18376 47.3217C5.99519 47.0444 5.9841 46.3566 5.95082 37.0723C5.92863 29.2632 5.95082 27.0447 6.06174 26.7009ZM22.3454 46.2901V36.917V27.5439H15.0799H7.81435V36.917V46.2901H8.3135H8.81266V43.6501C8.81266 42.197 8.86813 40.7106 8.93468 40.3445C9.07888 39.5348 9.66678 38.2924 10.1881 37.6824L10.5764 37.2276L10.288 36.5177C9.87754 35.5415 9.86644 34.033 10.2547 33.0346C11.3306 30.2504 14.4032 29.0081 17.0765 30.2837C19.3172 31.3375 20.4486 34.1328 19.5723 36.44L19.3727 36.9835L19.9273 37.7267C21.1031 39.2797 21.2362 39.8343 21.2362 43.4282V46.2901H21.7908H22.3454ZM17.8197 33.5116C17.5424 32.8793 16.8103 32.1362 16.2002 31.8699C14.3589 31.0491 12.218 32.1583 11.8076 34.1328C11.2974 36.5731 13.9263 38.6474 16.1891 37.5936C17.731 36.8837 18.4853 34.998 17.8197 33.5116ZM19.4059 40.4555L19.051 39.7345C18.8513 39.3462 18.5851 38.9136 18.4409 38.7805L18.1858 38.5365L17.5757 38.9247C16.7659 39.435 15.9229 39.6679 14.9135 39.6679C13.9152 39.6679 13.0611 39.435 12.3068 38.958L11.7632 38.6141L11.5525 38.8693C11.4305 39.0135 11.1754 39.4572 10.9868 39.8565L10.6429 40.5775L10.6096 43.4282L10.5764 46.2901H15.0244H19.4725L19.4392 43.3728L19.4059 40.4555ZM1.82457 33.2011C1.60272 33.4229 1.60272 33.5671 1.60272 42.6518V51.8918L1.86894 52.4464C2.19062 53.1342 2.82289 53.7442 3.5439 54.077L4.09852 54.3321L24.675 54.3654C39.2504 54.3876 45.3401 54.3543 45.5398 54.2656C46.0833 54.0437 46.2275 53.3893 45.8504 52.9012L45.6286 52.6128H25.1963C5.38524 52.6128 4.75297 52.6017 4.29818 52.4021C4.23743 52.3746 4.18098 52.352 4.12849 52.3311C4.02894 52.2914 3.94368 52.2573 3.87052 52.2061C3.43382 51.8999 3.42835 50.9786 3.39024 44.5582C3.38646 43.9227 3.38237 43.2334 3.37751 42.4854L3.32205 33.4007L3.05583 33.19C2.71196 32.9127 2.11297 32.9127 1.82457 33.2011ZM28.0471 37.6047C28.0804 37.4051 28.2246 37.161 28.3466 37.0501C28.5684 36.8726 29.3338 36.8615 41.0363 36.8615C53.0383 36.8615 53.5042 36.8726 53.7482 37.0723C54.1254 37.3718 54.1032 38.0262 53.6928 38.3701L53.3933 38.6363H41.0252H28.6461L28.3133 38.3035C28.036 38.0151 27.9916 37.9042 28.0471 37.6047ZM28.4353 40.7772C28.1358 40.999 27.9805 41.3983 28.0581 41.7533C28.0669 41.7927 28.0725 41.8298 28.0779 41.8646C28.087 41.9245 28.0952 41.9779 28.1164 42.0254C28.2886 42.4102 29.3212 42.41 38.7179 42.4081C39.4336 42.4079 40.1979 42.4078 41.0141 42.4078C48.8897 42.4078 53.4931 42.3634 53.6262 42.2968C54.1475 42.0195 54.1031 41.0101 53.5596 40.755C53.1492 40.5664 28.6793 40.5886 28.4353 40.7772ZM28.0471 44.6484C27.9916 44.36 28.036 44.2491 28.3133 43.9607L28.6461 43.6279H41.0252H53.3933L53.6928 43.8941C54.0699 44.2047 54.1143 44.8259 53.7926 45.1809C53.593 45.4027 53.5486 45.4027 41.0363 45.4027C29.0454 45.4027 28.4686 45.3916 28.3022 45.203C28.2024 45.0921 28.0804 44.8481 28.0471 44.6484Z" fill="#44B64B"/>
</svg>
