<svg width="76" height="75" viewBox="0 0 76 75" fill="none" xmlns="http://www.w3.org/2000/svg">
<path d="M11.8012 1.98749C10.7136 2.3216 10.0443 2.87846 6.62825 6.30313C2.27796 10.6327 2.25008 10.6745 2.25008 12.9297C2.25008 15.1989 2.26402 15.2129 6.8374 19.7652C10.8809 23.8024 11.1598 24.0112 12.8051 24.3035C13.4047 24.401 13.8648 24.401 14.4225 24.2896C15.8029 24.0112 16.5001 23.5657 18.2848 21.7838L19.944 20.0993L22.3981 22.5077C24.9776 25.0553 25.2704 25.2502 26.5253 25.2502C27.5431 25.2502 28.1427 24.9857 28.8956 24.22C29.4394 23.6492 29.6485 23.329 29.788 22.7722C29.9692 21.9926 29.8856 21.1155 29.5509 20.4473C29.4394 20.2106 28.0172 18.7071 26.4137 17.0922L23.4717 14.1409L23.8482 12.526C24.2943 10.577 24.3083 9.40761 23.9179 8.54449C23.5693 7.77881 19.6652 3.78335 18.8565 3.36571C18.5637 3.21258 17.4064 2.80885 16.2909 2.47474C14.6317 1.97357 14.1018 1.8622 13.2095 1.87612C12.6238 1.87612 11.9964 1.9318 11.8012 1.98749ZM16.1236 4.77178L17.8665 5.32863L19.9301 7.40293C21.9519 9.43546 21.9798 9.47722 21.9798 10.0898C21.9798 10.6188 21.8403 11.3566 21.6172 12.0109C21.5754 12.1501 21.2129 11.8717 20.4739 11.1478C19.5257 10.2011 19.3305 10.0758 18.8844 10.0758C18.0478 10.0758 17.5598 10.8972 17.9502 11.649C18.0338 11.816 20.2647 14.1131 22.9 16.7581C26.4137 20.2803 27.6965 21.6585 27.6965 21.8951C27.6965 22.0622 27.5152 22.3963 27.2921 22.6191C26.5253 23.3847 26.4137 23.3151 23.3044 20.2385C20.6412 17.5934 20.4599 17.4542 19.958 17.4542C19.47 17.4542 19.2887 17.5934 17.1833 19.6538C15.1755 21.6306 14.8687 21.8812 14.2552 22.0344C13.4604 22.2293 12.9167 22.1457 12.1498 21.7002C11.3132 21.213 4.88535 14.7117 4.63437 14.0852C4.35551 13.417 4.35551 12.4425 4.63437 11.7743C4.91324 11.106 11.2295 4.75786 12.0103 4.35413C12.8051 3.95041 13.9485 4.0757 16.1236 4.77178Z" fill="#44B64B"/>
<path d="M59.4034 2.47466C58.3298 2.80877 57.2004 3.2125 56.8937 3.36563C56.085 3.78327 52.1809 7.77873 51.8323 8.5444C51.4419 9.40753 51.4558 10.5769 51.902 12.5259L52.2785 14.1408L49.3364 17.0922C47.733 18.7071 46.2968 20.2523 46.1574 20.5168C45.7948 21.2268 45.8227 22.6607 46.1992 23.3847C47.0079 24.916 48.6253 25.5842 50.3403 25.0831C50.8005 24.9578 51.4 24.4427 53.3521 22.5076L55.8061 20.0992L57.4653 21.7837C59.2501 23.5656 59.9472 24.0111 61.3276 24.2895C62.2758 24.4844 63.433 24.3174 64.4509 23.8441C64.8692 23.6492 65.6779 22.9949 66.5284 22.1735C67.8531 20.8788 67.9228 20.7953 67.9228 20.2384C67.9228 19.5423 67.5045 19.1247 66.8213 19.1247C66.4587 19.1247 66.1938 19.3196 65.2736 20.2523C63.5864 21.9507 62.7498 22.3405 61.4949 22.0343C60.8814 21.8811 60.5747 21.6306 58.5669 19.6537C56.4614 17.5933 56.2802 17.4541 55.7921 17.4541C55.2902 17.4541 55.1089 17.5933 52.4458 20.2384C49.3364 23.315 49.2249 23.3847 48.458 22.619C48.2349 22.3962 48.0536 22.0621 48.0536 21.8951C48.0536 21.6584 49.3364 20.2802 52.8501 16.7581C55.4854 14.113 57.7163 11.8159 57.8 11.6489C58.0231 11.2034 57.9952 10.8554 57.6605 10.4377C57.4514 10.1593 57.2562 10.0758 56.8658 10.0758C56.4196 10.0758 56.2244 10.2011 55.2762 11.1477C54.5373 11.8716 54.1747 12.1501 54.1329 12.0108C53.9098 11.3565 53.7704 10.6187 53.7704 10.0897C53.7704 9.47714 53.7983 9.43538 55.82 7.40285L57.8836 5.32855L59.6963 4.75777C60.6862 4.43758 61.8296 4.15915 62.22 4.11739C63.5585 4.00602 63.7259 4.11739 67.4069 7.7648C69.5402 9.86694 70.8927 11.3287 71.06 11.6767C71.3946 12.3589 71.4225 13.3751 71.1297 14.0573C71.0182 14.3218 70.5441 14.9343 70.084 15.4216C69.3729 16.1594 69.2474 16.3683 69.2474 16.7998C69.2474 17.482 69.6378 17.8718 70.321 17.8718C70.7811 17.8718 70.9484 17.7604 71.7711 16.9251C72.287 16.3961 72.8866 15.6304 73.0957 15.2128C73.4722 14.5167 73.5001 14.3496 73.5001 12.9297C73.5001 10.6744 73.4722 10.6326 69.1219 6.30305C64.911 2.08486 64.7437 1.97349 62.6941 1.90388C61.4531 1.86212 61.244 1.90388 59.4034 2.47466Z" fill="#44B64B"/>
<path d="M36.5504 25.0275C34.1661 25.5982 32.4651 27.6168 32.3256 30.0113L32.2699 31.0694L31.5727 31.1668C31.1962 31.2225 30.4572 31.487 29.9274 31.7515C28.3797 32.5172 27.3061 33.7144 26.6786 35.3989C26.3998 36.1228 26.3858 36.4987 26.33 41.3434L26.2882 46.5082L26.6229 46.912L26.9714 47.3157H31.4333C35.6302 47.3157 35.9091 47.3018 36.1879 47.0512C36.5783 46.6892 36.5923 45.8261 36.2019 45.4363C35.9509 45.1857 35.7417 45.1579 34.4032 45.1579H32.8834L32.8276 42.9165L32.7858 40.6752L32.3954 40.341C32.0328 40.0208 31.9073 40.0069 30.2481 40.0069H28.5052L28.561 38.2946C28.6028 36.8468 28.6725 36.4848 28.9793 35.8166C29.5928 34.4662 30.8198 33.5195 32.1723 33.3664L32.8694 33.2829L33.6084 34.1182C35.9788 36.7215 39.7713 36.7215 42.1417 34.1182L42.8807 33.2829L43.5778 33.3664C44.9303 33.5195 46.1573 34.4662 46.7708 35.8166C47.0776 36.4848 47.1473 36.8468 47.1891 38.2946L47.2449 40.0069H45.502C43.8428 40.0069 43.7173 40.0208 43.3547 40.341L42.9643 40.6752L42.9225 42.9165L42.8667 45.1579H41.3469C40.0084 45.1579 39.7992 45.1857 39.5482 45.4363C39.1578 45.8261 39.1718 46.6892 39.5622 47.0512C39.841 47.3018 40.1199 47.3157 44.3168 47.3157H48.7787L49.1272 46.912L49.4619 46.5082L49.4201 41.3434C49.3643 36.4987 49.3503 36.1228 49.0715 35.3989C48.444 33.7144 47.3704 32.5172 45.8227 31.7515C45.2929 31.487 44.5539 31.2225 44.1774 31.1668L43.4802 31.0694L43.4245 30.0113C43.2293 26.6145 39.9108 24.2061 36.5504 25.0275ZM39.3809 27.4637C41.821 28.7027 41.807 32.2109 39.353 33.4917C38.5583 33.9233 37.1918 33.9233 36.3971 33.4917C33.6363 32.0578 34.0267 28.1598 37.0385 27.1853C37.5822 27.0043 38.7535 27.1435 39.3809 27.4637ZM30.6246 45.1579H28.5331V42.2344H30.6246V45.1579ZM47.217 45.1579H45.1255V42.2344H47.217V45.1579Z" fill="#44B64B"/>
<path d="M25.3261 49.9329C24.9776 50.0303 24.1131 50.796 22.3981 52.4944L19.944 54.9028L18.2848 53.2183C17.1972 52.1325 16.3746 51.4364 15.9145 51.2136C13.7951 50.1695 11.5781 50.5454 9.82126 52.2577C9.09621 52.9538 9.01255 53.093 9.01255 53.6081C9.01255 54.0675 9.08226 54.2485 9.37507 54.4713C9.94674 54.9167 10.3232 54.8332 11.1598 54.0675C12.4008 52.9538 13.1397 52.6893 14.2552 52.9677C14.8687 53.1209 15.1755 53.3715 17.1833 55.3483C19.2887 57.4087 19.47 57.5479 19.958 57.5479C20.4599 57.5479 20.6412 57.4087 23.3044 54.7636C26.4137 51.687 26.5253 51.6174 27.2921 52.383C27.5152 52.6058 27.6965 52.9399 27.6965 53.107C27.6965 53.3436 26.4137 54.7218 22.9 58.244C20.2647 60.889 18.0338 63.1861 17.9502 63.3531C17.7271 63.7986 17.755 64.1466 18.0896 64.5643C18.2987 64.8427 18.4939 64.9263 18.8844 64.9263C19.3445 64.9263 19.5257 64.801 20.446 63.8821C21.0177 63.3114 21.5196 62.838 21.5615 62.838C21.687 62.838 21.9798 64.3694 21.9798 64.9959C21.9798 65.497 21.8543 65.6502 19.9301 67.5992L17.8665 69.6735L16.1236 70.2303C14.1158 70.8707 13.0561 71.0238 12.2753 70.7733C11.857 70.634 10.9507 69.8266 8.34327 67.2372C6.20996 65.1351 4.85746 63.6733 4.69014 63.3253C4.35551 62.6431 4.32762 61.6269 4.62043 60.9447C4.73197 60.6663 5.48491 59.7614 6.29362 58.94C7.8692 57.3251 7.99469 57.0467 7.46485 56.3785C7.24176 56.0861 7.06049 56.0165 6.60037 56.0165C6.04264 56.0165 5.94503 56.0861 4.53677 57.5061C3.63046 58.4249 2.89147 59.302 2.65443 59.7753C2.27796 60.4853 2.25008 60.6524 2.25008 62.0724C2.25008 64.3276 2.27796 64.3694 6.62825 68.699C10.7973 72.8754 11.0064 73.0146 12.9864 73.1121C14.1576 73.1538 14.3807 73.126 16.277 72.5413C17.3924 72.1932 18.5637 71.7895 18.8565 71.6364C19.6652 71.2187 23.5693 67.2233 23.9179 66.4576C24.3083 65.5945 24.2943 64.4251 23.8482 62.4761L23.4717 60.8612L26.4137 57.9098C28.0172 56.295 29.4394 54.7775 29.5509 54.5548C29.8856 53.8866 29.9692 53.0095 29.788 52.2299C29.5649 51.3111 28.4634 50.1278 27.6268 49.905C26.9436 49.724 25.9815 49.724 25.3261 49.9329Z" fill="#44B64B"/>
<path d="M47.9976 49.9607C47.3423 50.1974 46.6033 50.8795 46.199 51.6313C45.8086 52.3552 45.7946 53.7891 46.1571 54.4852C46.2966 54.7497 47.7327 56.295 49.3362 57.9098L52.2782 60.8612L51.9018 62.4761C51.4556 64.4251 51.4416 65.5945 51.832 66.4576C52.1806 67.2233 56.0847 71.2187 56.8934 71.6364C57.1862 71.7895 58.3575 72.1932 59.4729 72.5413C61.3692 73.126 61.5923 73.1538 62.7635 73.1121C64.7435 73.0146 64.9526 72.8754 69.1217 68.699C73.4719 64.3694 73.4998 64.3276 73.4998 62.0724C73.4998 59.8032 73.4859 59.7892 68.9125 55.2369C64.869 51.1997 64.5901 50.9909 62.9448 50.6985C62.3452 50.6011 61.8851 50.6011 61.3274 50.7125C59.947 50.9909 59.2498 51.4364 57.4651 53.2183L55.8059 54.9028L53.3519 52.4944C51.3998 50.5593 50.8002 50.0442 50.3401 49.9189C49.5872 49.6962 48.6809 49.7101 47.9976 49.9607ZM52.4455 54.7636C55.1087 57.4087 55.29 57.5479 55.7919 57.5479C56.2799 57.5479 56.4612 57.4087 58.5666 55.3483C60.5744 53.3715 60.8812 53.1209 61.4947 52.9677C62.2895 52.7728 62.8333 52.8564 63.6001 53.3019C64.4367 53.7891 70.8646 60.2904 71.1155 60.9169C71.4223 61.6269 71.3944 62.6292 71.0598 63.3253C70.8924 63.6733 69.54 65.1351 67.4066 67.2372C64.7993 69.8266 63.8929 70.634 63.4746 70.7733C62.6938 71.0238 61.6341 70.8707 59.6263 70.2303L57.8834 69.6735L55.8337 67.5992C53.798 65.5666 53.7701 65.5249 53.7701 64.9123C53.7701 64.3833 53.9096 63.6455 54.1327 62.9912C54.1745 62.852 54.537 63.1304 55.276 63.8543C56.1823 64.7592 56.4333 64.9263 56.8098 64.9263C57.1165 64.9263 57.3814 64.8149 57.6045 64.5782C57.981 64.2163 58.0368 63.8265 57.7997 63.3531C57.7161 63.1861 55.4852 60.889 52.8499 58.244C49.3362 54.7218 48.0534 53.3436 48.0534 53.107C48.0534 52.9399 48.2347 52.6058 48.4578 52.383C49.2247 51.6174 49.3362 51.687 52.4455 54.7636Z" fill="#44B64B"/>
</svg>
