<svg width="60" height="60" viewBox="0 0 60 60" fill="none" xmlns="http://www.w3.org/2000/svg">
<path d="M3.27192 1.74854C3.05708 1.84619 2.74458 2.08057 2.5688 2.25635C1.90473 2.95947 1.95356 1.45557 1.95356 21.0942C1.95356 40.7329 1.90473 39.229 2.5688 39.9321C3.1352 40.5278 3.477 40.6255 5.15669 40.6255H6.64106V42.0903C6.64106 43.731 6.71919 44.0532 7.2563 44.6196C7.43208 44.7954 7.74458 45.0298 7.95942 45.1274C8.33051 45.3032 8.88716 45.313 21.0747 45.313C35.1176 45.313 34.1606 45.3521 34.854 44.6978C35.5668 44.0142 35.5473 44.2778 35.5473 37.8325V32.0513L36.104 31.9829C37.4028 31.8267 38.8872 31.2505 40.0395 30.4692C41.8168 29.2681 43.2622 27.2173 43.8481 25.0688C44.2387 23.6333 44.2582 21.6313 43.8969 20.186C43.6918 19.4048 42.9594 17.8521 42.6372 17.5298C42.2954 17.188 41.8657 17.2075 41.4946 17.5688C41.1333 17.9399 41.1333 18.1646 41.5434 18.897C43.2622 21.9634 42.6176 25.8208 39.9711 28.3306C38.5161 29.7173 36.8461 30.3813 34.8247 30.3813C33.5258 30.3813 32.5981 30.1665 31.3969 29.5903C29.7172 28.77 28.6528 27.7056 27.8325 26.0259C27.1879 24.6978 27.0122 23.8579 27.0707 22.2856C27.1098 21.27 27.1684 20.9087 27.3832 20.2642C27.7739 19.1118 28.3403 18.2231 29.2875 17.2759C30.8696 15.7036 32.7348 14.9224 34.9125 14.9224C36.1333 14.9321 37.1 15.1665 38.3305 15.772C39.3364 16.27 39.6 16.2798 39.9418 15.8501C40.4399 15.2153 39.9614 14.5708 38.6137 14.0239C37.9692 13.7603 36.7387 13.4282 36.0161 13.3306L35.5473 13.2622V10.606C35.5473 7.65674 35.518 7.49072 34.854 6.86572C34.2875 6.32861 33.9653 6.25049 32.3247 6.25049H30.8598V4.75635C30.8598 3.08643 30.7622 2.74463 30.1665 2.17822C29.5805 1.63135 29.2875 1.56299 27.4418 1.56299C25.9086 1.56299 25.7622 1.58252 25.5864 1.7583C25.4594 1.88525 25.3911 2.08057 25.3911 2.34424C25.3911 2.60791 25.4594 2.80322 25.5864 2.93018C25.7622 3.10596 25.9086 3.12549 27.1 3.12549C29.1899 3.12549 29.2973 3.22314 29.2973 5.13721V6.25049H13.2329L9.94184 9.55127L6.64106 12.8423V21.0747C6.64106 29.1704 6.64106 29.2974 6.83637 29.4927C6.96333 29.6196 7.15864 29.688 7.42231 29.688C7.68598 29.688 7.8813 29.6196 8.00825 29.4927C8.20356 29.2974 8.20356 29.1704 8.20356 21.6802V14.063H10.479C13.0082 14.063 13.2231 14.0142 13.8383 13.3696C14.4145 12.7642 14.4536 12.5493 14.4536 10.0591V7.81299H23.7797C34.0629 7.81299 33.6625 7.79346 33.8774 8.39893C33.9457 8.604 33.9848 9.5415 33.9848 10.9771V13.2329L33.0278 13.4087C31.1918 13.7407 29.5219 14.6196 28.1645 15.9673C26.934 17.188 26.1528 18.4868 25.6743 20.1274C25.3813 21.1626 25.3032 23.3892 25.5375 24.522C26.309 28.3599 29.3852 31.3188 33.2329 31.9341L33.9848 32.061V37.4517C33.9848 41.2212 33.9555 42.9399 33.8774 43.1646C33.6528 43.7798 34.3168 43.7505 21.0942 43.7505C7.87153 43.7505 8.53559 43.7798 8.31098 43.1646C8.23286 42.9399 8.20356 41.27 8.20356 37.6372C8.20356 32.5493 8.20356 32.4224 8.00825 32.227C7.8813 32.1001 7.68598 32.0317 7.42231 32.0317C7.15864 32.0317 6.96333 32.1001 6.83637 32.227C6.65083 32.4126 6.64106 32.5493 6.64106 35.7427V39.063H5.51801C4.17036 39.063 3.7895 38.9458 3.62348 38.4771C3.54536 38.2427 3.51606 33.5649 3.51606 21.0747C3.51606 2.30518 3.477 3.45752 4.102 3.23291C4.33637 3.15479 6.99262 3.12549 13.5356 3.12549C22.5297 3.12549 22.6567 3.12549 22.852 2.93018C22.979 2.80322 23.0473 2.60791 23.0473 2.34424C23.0473 2.08057 22.979 1.88525 22.852 1.7583C22.6567 1.56299 22.5297 1.56299 13.1645 1.56299C4.11176 1.56299 3.64301 1.57275 3.27192 1.74854ZM12.7934 11.8462C12.6274 12.4028 12.3051 12.5005 10.7231 12.5005H9.42426L12.8422 9.08252L12.8715 10.2739C12.8911 10.9673 12.852 11.6313 12.7934 11.8462Z" fill="#44B64B"/>
<path d="M15.5082 16.5923C15.2055 16.6899 14.8051 16.8657 14.6196 16.9829C14.102 17.2954 13.4868 18.0181 13.2036 18.6333C12.9692 19.1313 12.9399 19.3071 12.9399 20.313C12.9399 21.3579 12.9594 21.4751 13.2133 21.9731C13.3696 22.2661 13.643 22.686 13.8188 22.9106L14.1411 23.3013L13.8188 23.4771C13.3598 23.731 12.5297 24.561 12.1489 25.1665C11.9633 25.4399 11.7094 25.9966 11.5727 26.397C11.3383 27.1001 11.3286 27.2466 11.3286 29.2876C11.3286 31.3774 11.3383 31.4458 11.5434 31.6411C11.8266 31.9048 12.393 31.9048 12.6762 31.6411C12.8813 31.4458 12.8911 31.3579 12.8911 29.9028C12.8911 28.0767 13.0082 27.188 13.3305 26.4946C13.643 25.811 14.5024 24.9614 15.2055 24.6294C15.7133 24.395 15.8891 24.3657 16.7973 24.3657C17.7055 24.3657 17.8813 24.395 18.3891 24.6294C19.0922 24.9614 19.9516 25.811 20.2641 26.4946C20.5864 27.1978 20.7036 28.0767 20.7036 30.0005C20.7036 31.5142 20.7231 31.6606 20.8989 31.8364C21.0258 31.9634 21.2211 32.0317 21.4848 32.0317C21.7485 32.0317 21.9438 31.9634 22.0707 31.8364C22.2563 31.6509 22.2661 31.5142 22.2661 29.4048C22.2661 26.895 22.1684 26.3481 21.5239 25.2837C21.143 24.6489 20.2641 23.7407 19.7758 23.4868L19.4536 23.3013L19.7758 22.9106C19.9516 22.686 20.225 22.2661 20.3813 21.9731C20.6352 21.4751 20.6547 21.3579 20.6547 20.313C20.6547 19.2388 20.645 19.1606 20.3325 18.5356C19.9321 17.7251 19.1606 16.9927 18.3793 16.6899C17.5981 16.3872 16.27 16.3384 15.5082 16.5923ZM18.0278 18.4087C18.7211 18.8384 19.0727 19.5513 19.0239 20.4204C18.975 21.3091 18.6137 21.9048 17.8715 22.2954C17.4028 22.5396 17.2465 22.5688 16.6899 22.5396C15.8012 22.4907 15.2055 22.1294 14.8149 21.3872C14.5707 20.9185 14.5415 20.7622 14.5707 20.2056C14.6196 19.3169 14.9809 18.7212 15.7231 18.3306C16.1918 18.0864 16.3481 18.0571 16.9047 18.0864C17.4125 18.1157 17.6567 18.1841 18.0278 18.4087Z" fill="#44B64B"/>
<path d="M31.0551 18.9458C30.9184 19.0825 30.8598 19.2681 30.8598 19.5513C30.8598 19.9419 30.9086 20.0005 32.1977 21.3091L33.5356 22.6567L32.1977 24.0044C30.9086 25.313 30.8598 25.3716 30.8598 25.7622C30.8598 26.3091 31.1137 26.563 31.6606 26.563C32.0512 26.563 32.1098 26.5142 33.4184 25.2251L34.7661 23.8872L36.1137 25.2251C37.4223 26.5142 37.4809 26.563 37.8715 26.563C38.4184 26.563 38.6723 26.3091 38.6723 25.7622C38.6723 25.3716 38.6235 25.313 37.3344 24.0044L35.9965 22.6567L37.3344 21.3091C38.6235 20.0005 38.6723 19.9419 38.6723 19.5513C38.6723 19.2681 38.6137 19.0825 38.477 18.9458C38.3403 18.8091 38.1547 18.7505 37.8715 18.7505C37.4809 18.7505 37.4223 18.7993 36.1137 20.0884L34.7661 21.4263L33.4184 20.0884C32.1098 18.7993 32.0512 18.7505 31.6606 18.7505C31.3774 18.7505 31.1918 18.8091 31.0551 18.9458Z" fill="#44B64B"/>
<path d="M11.5239 34.5708C11.3969 34.6978 11.3286 34.8931 11.3286 35.1567C11.3286 35.4204 11.3969 35.6157 11.5239 35.7427C11.7192 35.938 11.8461 35.938 21.0942 35.938C30.3422 35.938 30.4692 35.938 30.6645 35.7427C30.7915 35.6157 30.8598 35.4204 30.8598 35.1567C30.8598 34.8931 30.7915 34.6978 30.6645 34.5708C30.4692 34.3755 30.3422 34.3755 21.0942 34.3755C11.8461 34.3755 11.7192 34.3755 11.5239 34.5708Z" fill="#44B64B"/>
<path d="M11.5239 38.4771C11.3969 38.604 11.3286 38.7993 11.3286 39.063C11.3286 39.3267 11.3969 39.522 11.5239 39.6489C11.7192 39.8442 11.8461 39.8442 21.0942 39.8442C30.3422 39.8442 30.4692 39.8442 30.6645 39.6489C30.7915 39.522 30.8598 39.3267 30.8598 39.063C30.8598 38.7993 30.7915 38.604 30.6645 38.4771C30.4692 38.2817 30.3422 38.2817 21.0942 38.2817C11.8461 38.2817 11.7192 38.2817 11.5239 38.4771Z" fill="#44B64B"/>
</svg>
