<svg width="60" height="60" viewBox="0 0 60 60" fill="none" xmlns="http://www.w3.org/2000/svg">
<g clip-path="url(#clip0_33_6270)">
<path d="M59.9756 14.6746C55.7188 11.8602 48.4491 9.99512 39.9744 9.99512C31.4997 9.99512 24.2323 11.8602 19.9756 14.6746V40.1042C19.9756 41.6635 20.514 43.1193 21.0982 44.5523C24.6852 52.2142 33.0867 55.9252 39.9768 59.9951C46.8668 55.9252 55.266 52.2142 58.853 44.5523C59.4372 43.1193 59.9756 41.6635 59.9756 40.1042V14.6746Z" fill="#F8F8FF"/>
<path d="M6.71387 0.0837923C5.95215 0.318167 5.4834 0.708792 3.09082 3.11114C0.0439453 6.14825 0.0244141 6.17754 0.0244141 7.75957C0.0244141 9.35137 0.0341797 9.36114 3.2373 12.5545C6.06934 15.3865 6.26465 15.533 7.41699 15.7381C7.83691 15.8064 8.15918 15.8064 8.5498 15.7283C9.5166 15.533 10.0049 15.2205 11.2549 13.9705L12.417 12.7889L14.1357 14.4783C15.9424 16.2654 16.1475 16.4022 17.0264 16.4022C17.7393 16.4022 18.1592 16.2166 18.6865 15.6795C19.0674 15.2791 19.2139 15.0545 19.3115 14.6639C19.4385 14.117 19.3799 13.5018 19.1455 13.033C19.0674 12.867 18.0713 11.8123 16.9482 10.6795L14.8877 8.60918L15.1514 7.47637C15.4639 6.10918 15.4736 5.28887 15.2002 4.6834C14.9561 4.14629 12.2217 1.34356 11.6553 1.05059C11.4502 0.943167 10.6396 0.659964 9.8584 0.425589C8.69629 0.0740267 8.3252 -0.00409832 7.7002 0.00566731C7.29004 0.00566731 6.85059 0.0447298 6.71387 0.0837923ZM9.74121 2.03692L10.9619 2.42754L12.4072 3.88262C13.8232 5.3084 13.8428 5.3377 13.8428 5.76739C13.8428 6.13848 13.7451 6.65606 13.5889 7.11504C13.5596 7.2127 13.3057 7.01739 12.7881 6.50957C12.124 5.84551 11.9873 5.75762 11.6748 5.75762C11.0889 5.75762 10.7471 6.33379 11.0205 6.86114C11.0791 6.97832 12.6416 8.58965 14.4873 10.4451C16.9482 12.9158 17.8467 13.8826 17.8467 14.0486C17.8467 14.1658 17.7197 14.4002 17.5635 14.5564C17.0264 15.0936 16.9482 15.0447 14.7705 12.8865C12.9053 11.0311 12.7783 10.9334 12.4268 10.9334C12.085 10.9334 11.958 11.0311 10.4834 12.4764C9.07715 13.8631 8.8623 14.0389 8.43262 14.1463C7.87598 14.283 7.49512 14.2244 6.95801 13.9119C6.37207 13.5701 1.87012 9.00957 1.69434 8.57012C1.49902 8.10137 1.49902 7.41778 1.69434 6.94903C1.88965 6.48028 6.31348 2.02715 6.86035 1.74395C7.41699 1.46075 8.21777 1.54864 9.74121 2.03692Z" fill="#44B64B"/>
<path d="M40.0537 0.425591C39.3018 0.659966 38.5107 0.943169 38.2959 1.05059C37.7295 1.34356 34.9951 4.14629 34.751 4.6834C34.4775 5.28887 34.4873 6.10919 34.7998 7.47637L35.0635 8.60919L33.0029 10.6795C31.8799 11.8123 30.874 12.8963 30.7764 13.0818C30.5225 13.5799 30.542 14.5857 30.8057 15.0936C31.3721 16.1678 32.5049 16.6365 33.7061 16.285C34.0283 16.1971 34.4482 15.8357 35.8154 14.4783L37.5342 12.7889L38.6963 13.9705C39.9463 15.2205 40.4346 15.533 41.4014 15.7283C42.0654 15.865 42.876 15.7479 43.5889 15.4158C43.8818 15.2791 44.4482 14.8201 45.0439 14.244C45.9717 13.3357 46.0205 13.2772 46.0205 12.8865C46.0205 12.3982 45.7275 12.1053 45.249 12.1053C44.9951 12.1053 44.8096 12.242 44.165 12.8963C42.9834 14.0877 42.3975 14.3611 41.5186 14.1463C41.0889 14.0389 40.874 13.8631 39.4678 12.4764C37.9932 11.0311 37.8662 10.9334 37.5244 10.9334C37.1729 10.9334 37.0459 11.0311 35.1807 12.8865C33.0029 15.0447 32.9248 15.0936 32.3877 14.5565C32.2314 14.4002 32.1045 14.1658 32.1045 14.0486C32.1045 13.8826 33.0029 12.9158 35.4639 10.4451C37.3096 8.58965 38.8721 6.97833 38.9307 6.86114C39.0869 6.54864 39.0674 6.3045 38.833 6.01153C38.6865 5.81622 38.5498 5.75762 38.2764 5.75762C37.9639 5.75762 37.8271 5.84551 37.1631 6.50958C36.6455 7.01739 36.3916 7.2127 36.3623 7.11505C36.2061 6.65606 36.1084 6.13848 36.1084 5.76739C36.1084 5.3377 36.1279 5.3084 37.5439 3.88262L38.9893 2.42754L40.2588 2.02715C40.9521 1.80254 41.7529 1.60723 42.0264 1.57793C42.9639 1.49981 43.0811 1.57793 45.6592 4.13653C47.1533 5.61114 48.1006 6.63653 48.2178 6.88067C48.4521 7.35919 48.4717 8.07208 48.2666 8.55059C48.1885 8.73614 47.8564 9.16583 47.5342 9.50762C47.0361 10.0252 46.9482 10.1717 46.9482 10.4744C46.9482 10.9529 47.2217 11.2264 47.7002 11.2264C48.0225 11.2264 48.1396 11.1482 48.7158 10.5623C49.0771 10.1912 49.4971 9.65411 49.6436 9.36114C49.9072 8.87286 49.9268 8.75567 49.9268 7.75958C49.9268 6.17755 49.9072 6.14825 46.8604 3.11114C43.9111 0.152154 43.7939 0.0740287 42.3584 0.0252006C41.4893 -0.00409628 41.3428 0.0252006 40.0537 0.425591Z" fill="#44B64B"/>
<path d="M24.0479 16.2459C22.3779 16.6463 21.1865 18.0623 21.0889 19.742L21.0498 20.4842L20.5615 20.5525C20.2979 20.5916 19.7803 20.7772 19.4092 20.9627C18.3252 21.4998 17.5732 22.3397 17.1338 23.5213C16.9385 24.0291 16.9287 24.2928 16.8896 27.6912L16.8604 31.3143L17.0947 31.5975L17.3389 31.8807H20.4639C23.4033 31.8807 23.5986 31.8709 23.7939 31.6951C24.0674 31.4412 24.0771 30.8357 23.8037 30.5623C23.6279 30.3865 23.4814 30.367 22.5439 30.367H21.4795L21.4404 28.7947L21.4111 27.2225L21.1377 26.9881C20.8838 26.7635 20.7959 26.7537 19.6338 26.7537H18.4131L18.4521 25.5525C18.4814 24.5369 18.5303 24.283 18.7451 23.8143C19.1748 22.867 20.0342 22.2029 20.9814 22.0955L21.4697 22.0369L21.9873 22.6229C23.6475 24.449 26.3037 24.449 27.9639 22.6229L28.4814 22.0369L28.9697 22.0955C29.917 22.2029 30.7764 22.867 31.2061 23.8143C31.4209 24.283 31.4697 24.5369 31.499 25.5525L31.5381 26.7537H30.3174C29.1553 26.7537 29.0674 26.7635 28.8135 26.9881L28.54 27.2225L28.5107 28.7947L28.4717 30.367H27.4072C26.4697 30.367 26.3232 30.3865 26.1475 30.5623C25.874 30.8357 25.8838 31.4412 26.1572 31.6951C26.3525 31.8709 26.5479 31.8807 29.4873 31.8807H32.6123L32.8564 31.5975L33.0908 31.3143L33.0615 27.6912C33.0225 24.2928 33.0127 24.0291 32.8174 23.5213C32.3779 22.3397 31.626 21.4998 30.542 20.9627C30.1709 20.7772 29.6533 20.5916 29.3896 20.5525L28.9014 20.4842L28.8623 19.742C28.7256 17.3592 26.4014 15.6697 24.0479 16.2459ZM26.0303 17.9549C27.7393 18.824 27.7295 21.285 26.0107 22.1834C25.4541 22.4861 24.4971 22.4861 23.9404 22.1834C22.0068 21.1775 22.2803 18.4432 24.3896 17.7596C24.7705 17.6326 25.5908 17.7303 26.0303 17.9549ZM19.8975 30.367H18.4326V28.3162H19.8975V30.367ZM31.5186 30.367H30.0537V28.3162H31.5186V30.367Z" fill="#44B64B"/>
<path d="M16.1865 33.7166C15.9424 33.785 15.3369 34.3221 14.1357 35.5135L12.417 37.2029L11.2549 36.0213C10.4932 35.2596 9.91699 34.7713 9.59473 34.615C8.11035 33.8826 6.55762 34.1463 5.32715 35.3475C4.81934 35.8357 4.76074 35.9334 4.76074 36.2947C4.76074 36.617 4.80957 36.7439 5.01465 36.9002C5.41504 37.2127 5.67871 37.1541 6.26465 36.617C7.13379 35.8357 7.65137 35.6502 8.43262 35.8455C8.8623 35.9529 9.07715 36.1287 10.4834 37.5154C11.958 38.9607 12.085 39.0584 12.4268 39.0584C12.7783 39.0584 12.9053 38.9607 14.7705 37.1053C16.9482 34.9471 17.0264 34.8982 17.5635 35.4354C17.7197 35.5916 17.8467 35.826 17.8467 35.9432C17.8467 36.1092 16.9482 37.076 14.4873 39.5467C12.6416 41.4022 11.0791 43.0135 11.0205 43.1307C10.8643 43.4432 10.8838 43.6873 11.1182 43.9803C11.2646 44.1756 11.4014 44.2342 11.6748 44.2342C11.9971 44.2342 12.124 44.1463 12.7686 43.5018C13.1689 43.1014 13.5205 42.7693 13.5498 42.7693C13.6377 42.7693 13.8428 43.8436 13.8428 44.283C13.8428 44.6346 13.7549 44.742 12.4072 46.1092L10.9619 47.5643L9.74121 47.9549C8.33496 48.4041 7.59277 48.5115 7.0459 48.3357C6.75293 48.2381 6.11816 47.6717 4.29199 45.8553C2.79785 44.3807 1.85059 43.3553 1.7334 43.1111C1.49902 42.6326 1.47949 41.9197 1.68457 41.4412C1.7627 41.2459 2.29004 40.6111 2.85645 40.035C3.95996 38.9022 4.04785 38.7068 3.67676 38.2381C3.52051 38.033 3.39355 37.9842 3.07129 37.9842C2.68066 37.9842 2.6123 38.033 1.62598 39.0291C0.991211 39.6736 0.473633 40.2889 0.307617 40.6209C0.0439453 41.1189 0.0244141 41.2361 0.0244141 42.2322C0.0244141 43.8143 0.0439453 43.8436 3.09082 46.8807C6.01074 49.8104 6.15723 49.908 7.54395 49.9764C8.36426 50.0057 8.52051 49.9861 9.84863 49.576C10.6299 49.3318 11.4502 49.0486 11.6553 48.9412C12.2217 48.6482 14.9561 45.8455 15.2002 45.3084C15.4736 44.7029 15.4639 43.8826 15.1514 42.5154L14.8877 41.3826L16.9482 39.3123C18.0713 38.1795 19.0674 37.115 19.1455 36.9588C19.3799 36.49 19.4385 35.8748 19.3115 35.3279C19.1553 34.6834 18.3838 33.8533 17.7979 33.6971C17.3193 33.5701 16.6455 33.5701 16.1865 33.7166Z" fill="#44B64B"/>
<path d="M32.0653 33.7361C31.6063 33.9022 31.0887 34.3807 30.8055 34.908C30.5321 35.4158 30.5223 36.4217 30.7762 36.91C30.8739 37.0955 31.8797 38.1795 33.0028 39.3123L35.0633 41.3826L34.7997 42.5154C34.4872 43.8826 34.4774 44.7029 34.7508 45.3084C34.995 45.8455 37.7294 48.6482 38.2958 48.9412C38.5008 49.0486 39.3212 49.3318 40.1024 49.576C41.4305 49.9861 41.5868 50.0057 42.4071 49.9764C43.7938 49.908 43.9403 49.8104 46.8602 46.8807C49.9071 43.8436 49.9266 43.8143 49.9266 42.2322C49.9266 40.6404 49.9169 40.6307 46.7137 37.4373C43.8817 34.6053 43.6864 34.4588 42.534 34.2537C42.1141 34.1854 41.7919 34.1854 41.4012 34.2635C40.4344 34.4588 39.9462 34.7713 38.6962 36.0213L37.534 37.2029L35.8153 35.5135C34.4481 34.1561 34.0282 33.7947 33.7059 33.7068C33.1786 33.5506 32.5438 33.5604 32.0653 33.7361ZM35.1805 37.1053C37.0458 38.9607 37.1727 39.0584 37.5243 39.0584C37.8661 39.0584 37.993 38.9607 39.4676 37.5154C40.8739 36.1287 41.0887 35.9529 41.5184 35.8455C42.0751 35.7088 42.4559 35.7674 42.993 36.0799C43.579 36.4217 48.0809 40.9822 48.2567 41.4217C48.4715 41.9197 48.452 42.6229 48.2176 43.1111C48.1004 43.3553 47.1532 44.3807 45.659 45.8553C43.8329 47.6717 43.1981 48.2381 42.9051 48.3357C42.3583 48.5115 41.6161 48.4041 40.2098 47.9549L38.9891 47.5643L37.5536 46.1092C36.1278 44.6834 36.1083 44.6541 36.1083 44.2244C36.1083 43.8533 36.2059 43.3357 36.3622 42.8768C36.3915 42.7791 36.6454 42.9744 37.1629 43.4822C37.7977 44.117 37.9735 44.2342 38.2372 44.2342C38.452 44.2342 38.6376 44.1561 38.7938 43.99C39.0575 43.7361 39.0965 43.4627 38.9305 43.1307C38.8719 43.0135 37.3094 41.4022 35.4637 39.5467C33.0028 37.076 32.1044 36.1092 32.1044 35.9432C32.1044 35.826 32.2313 35.5916 32.3876 35.4354C32.9247 34.8982 33.0028 34.9471 35.1805 37.1053Z" fill="#44B64B"/>
</g>
<defs>
<clipPath id="clip0_33_6270">
<rect width="60" height="60" fill="white"/>
</clipPath>
</defs>
</svg>
