<svg width="60" height="60" viewBox="0 0 60 60" fill="none" xmlns="http://www.w3.org/2000/svg">
<path d="M33.125 2.03722C32.5293 2.31066 32.0996 2.95519 32.0996 3.59972C32.0996 4.07824 33.9355 12.6134 34.1211 13.0138C34.209 13.1896 34.4531 13.463 34.668 13.5997C35.0488 13.8536 35.127 13.8634 36.582 13.8927C37.5195 13.9122 38.2422 13.8829 38.4766 13.8146C38.9551 13.6778 39.4824 13.1993 39.6094 12.8087C39.668 12.6329 40.127 10.5138 40.6445 8.10168C41.2988 5.01574 41.5625 3.60949 41.5234 3.36535C41.4258 2.838 41.0254 2.30089 40.5664 2.08605C40.1855 1.92004 39.8926 1.9005 36.7871 1.91027C34.1895 1.91027 33.3496 1.93957 33.125 2.03722ZM39.9414 3.53136C39.9902 3.61925 38.2031 12.0861 38.1055 12.2521C38.0664 12.3107 37.5488 12.3497 36.7871 12.3497C35.6738 12.3497 35.5273 12.3302 35.4785 12.1739C35.293 11.5685 33.6621 3.62902 33.7109 3.56066C33.7793 3.44347 39.8828 3.42394 39.9414 3.53136Z" fill="#44B64B"/>
<path d="M14.3466 8.16027C13.8778 8.29699 13.3114 8.91222 13.1552 9.44933C13.0477 9.85949 13.0575 10.0353 13.243 11.0118C13.3602 11.6075 13.4774 12.1739 13.5067 12.2521C13.536 12.3595 13.3993 12.4571 13.0282 12.5841C11.5829 13.0919 10.1766 13.9708 8.97547 15.1232C7.87196 16.1876 7.29578 16.9689 6.60242 18.3556C5.82117 19.9474 5.53797 21.0607 5.46961 22.8575C5.36219 25.5626 5.93836 27.6622 7.36414 29.8204C7.99891 30.7775 9.29774 32.1251 10.2255 32.7794C12.5888 34.4493 15.7138 35.2013 18.5165 34.7716C19.0829 34.6837 19.5712 34.6153 19.62 34.6153C19.6591 34.6153 19.6981 36.4708 19.6981 38.7364C19.6981 42.5353 19.7177 42.8966 19.8837 43.2579C20.0985 43.7267 20.3134 43.9318 20.8016 44.1368C21.1044 44.2638 21.993 44.2833 27.3055 44.2833C33.1845 44.2833 33.4579 44.2736 33.6727 44.0978C33.8485 43.9611 33.9071 43.8146 33.9071 43.5021C33.9071 43.1896 33.8485 43.0431 33.6727 42.9064C33.4579 42.7306 33.243 42.7208 30.2841 42.7208H27.12V42.4864C27.12 42.3497 27.0126 41.9005 26.8759 41.4806C26.1532 39.1759 24.2196 37.4278 21.8759 36.9493L21.2606 36.8224V34.0685L21.827 33.795C24.9227 32.2814 27.1884 29.5275 28.0087 26.2853L28.2235 25.4357H42.5497L42.5985 25.6993C43.1845 28.5021 45.0887 30.5431 47.6669 31.1583L48.4091 31.3341V36.8224L47.7059 36.9884C45.4794 37.506 43.5263 39.2931 42.9013 41.3927C42.7645 41.8321 42.6376 42.3009 42.5985 42.4474L42.5497 42.7208H36.2899L36.0555 42.965C35.7138 43.297 35.7235 43.8048 36.0653 44.0782C36.3192 44.2833 36.4071 44.2833 42.4618 44.2833C46.5536 44.2833 48.6825 44.2443 48.868 44.1759C49.2001 44.0489 49.6493 43.6388 49.8348 43.2872C49.952 43.0626 49.9716 41.588 49.9716 34.0685V25.1134L49.7274 24.6935C49.5712 24.42 49.3466 24.215 49.0634 24.0782C48.6434 23.8732 48.5946 23.8732 38.5263 23.8732H28.4188L28.3602 22.7696C28.2138 20.2794 27.2372 17.7989 25.6845 15.9923C25.2841 15.5138 25.2157 15.4747 24.8348 15.4747C23.9755 15.4747 23.7899 16.2071 24.4442 16.9982C26.5438 19.547 27.286 22.7306 26.5048 25.8263C26.0555 27.5646 25.1669 29.1075 23.8778 30.3966C20.3524 33.9318 14.9227 34.3028 10.9286 31.3048C9.00477 29.8497 7.67664 27.7306 7.1786 25.3478C6.90516 24.0196 6.97352 22.047 7.33485 20.797C8.18446 17.9259 10.1278 15.6505 12.7938 14.4005C14.2489 13.7169 15.0106 13.5704 16.9638 13.5802C18.536 13.5802 18.7411 13.6095 19.5516 13.8536C20.0302 14.0001 20.8016 14.2931 21.2606 14.5079C22.1591 14.9278 22.5106 14.9474 22.7743 14.5665C22.9891 14.254 22.9598 13.7853 22.7059 13.5509C22.4325 13.297 21.7001 12.9357 20.8993 12.6427C20.5575 12.5255 20.2841 12.4083 20.2841 12.3986C20.2841 12.379 20.372 11.9396 20.4794 11.422C20.7919 9.88879 20.7333 9.26379 20.2059 8.69738C19.6493 8.10168 19.3954 8.05285 16.9149 8.06261C15.6845 8.06261 14.5223 8.11144 14.3466 8.16027ZM19.0145 9.7716C19.122 9.88879 19.1122 10.0841 18.9657 10.8653C18.868 11.3829 18.7802 11.8517 18.7509 11.9103C18.7313 11.9689 18.0184 12.0079 16.8759 12.0079H15.0399L14.8641 11.0802C14.7665 10.5724 14.6688 10.1036 14.6493 10.045C14.6298 9.98644 14.6786 9.85949 14.7665 9.7716C15.0009 9.53722 18.829 9.53722 19.0145 9.7716ZM48.4091 25.6212C48.5262 25.8556 48.5458 29.7325 48.4188 29.7325C48.37 29.7325 48.0477 29.6446 47.6962 29.5372C46.9149 29.2931 46.0263 28.7169 45.4208 28.0431C44.9227 27.4962 44.3368 26.3732 44.2391 25.797L44.1805 25.4357H46.2411C48.1845 25.4357 48.3114 25.4454 48.4091 25.6212ZM22.3837 38.7364C23.4091 39.1368 24.4149 40.0255 25.0009 41.0607C25.2157 41.4415 25.5575 42.4083 25.5575 42.6427C25.5575 42.6915 24.6005 42.7111 23.4384 42.7013L21.3095 42.672L21.2802 40.5431L21.2606 38.4044L21.5731 38.4728C21.7489 38.5118 22.1102 38.629 22.3837 38.7364ZM48.5067 40.3868C48.5067 41.5489 48.4677 42.4181 48.4091 42.5353C48.3114 42.7111 48.1845 42.7208 46.2606 42.7208C43.9071 42.7208 44.0438 42.7892 44.4149 41.7736C44.9716 40.2892 46.2118 39.088 47.7059 38.6095C48.0087 38.5118 48.3212 38.4337 48.3895 38.4337C48.4774 38.4239 48.5067 38.8829 48.5067 40.3868Z" fill="#44B64B"/>
<path d="M5.04883 8.66808C4.58008 8.90246 4.46289 9.52746 4.81445 9.91808C4.89258 10.006 5.19531 10.1232 5.49805 10.1915L6.04492 10.3185L5.3125 10.9923C2.80273 13.297 1.02539 16.5001 0.244141 20.0646C0.0488281 20.9728 0.0292969 21.3634 0.0292969 23.4337C0.0292969 25.4943 0.0488281 25.8946 0.244141 26.7736C0.839844 29.5079 2.05078 32.0568 3.75 34.1466C4.53125 35.1036 6.05469 36.5294 7.09961 37.2716C8.20312 38.0626 10.2246 39.088 11.4453 39.4884C13.0762 40.0255 15.1074 40.3771 16.6016 40.3771C17.3535 40.3771 17.6465 40.1525 17.6465 39.5763C17.6465 38.9903 17.373 38.8536 16.0547 38.7853C9.80469 38.4532 4.28711 34.2247 2.31445 28.2775C1.72852 26.5099 1.62109 25.8751 1.5625 23.8732C1.50391 21.7443 1.68945 20.3478 2.26562 18.629C3.11523 16.0997 4.84375 13.4435 6.5918 11.9689L7.09961 11.5489V12.2325C7.09961 12.8575 7.11914 12.9357 7.35352 13.1212C7.64648 13.3556 7.86133 13.3751 8.21289 13.2189C8.61328 13.0333 8.68164 12.7013 8.64258 11.0802C8.61328 9.69347 8.60352 9.58605 8.39844 9.42004C8.28125 9.33215 7.54883 9.088 6.76758 8.89269C5.11719 8.48254 5.35156 8.51183 5.04883 8.66808Z" fill="#44B64B"/>
<path d="M35.4683 16.2462C34.814 16.4122 34.3257 16.881 34.1499 17.506C34.0229 17.9747 34.0229 19.9083 34.1499 20.3771C34.2866 20.8458 34.687 21.3243 35.0972 21.4903C35.312 21.588 35.8589 21.6271 36.855 21.6271C38.1733 21.6271 38.3394 21.6075 38.6909 21.4025C38.9058 21.2853 39.1792 21.0118 39.2964 20.797C39.5112 20.4259 39.521 20.3185 39.5015 18.8341C39.4722 17.2814 39.4722 17.2618 39.1987 16.9103C38.7495 16.3146 38.4663 16.2169 37.0308 16.1974C36.3374 16.1778 35.6343 16.1974 35.4683 16.2462ZM37.8022 17.7794C37.9292 17.8282 37.9585 18.0236 37.9585 18.9513V20.0743L35.6636 20.0157L35.6343 19.0001C35.6147 18.3458 35.644 17.9454 35.7222 17.8575C35.8003 17.7599 36.0835 17.7208 36.7378 17.7208C37.2456 17.7208 37.7144 17.7501 37.8022 17.7794Z" fill="#44B64B"/>
<path d="M16.5039 18.2286C16.1133 18.4142 16.0742 18.7169 16.1035 21.3243L16.1328 23.7853L17.4219 25.0646C18.7012 26.3243 18.7207 26.3439 19.0723 26.2853C19.5312 26.2071 19.6875 26.0509 19.7656 25.6017C19.8242 25.2403 19.7949 25.2111 18.7305 24.1368L17.6465 23.0333V18.5118L17.3926 18.3165C17.1094 18.0919 16.8359 18.0626 16.5039 18.2286Z" fill="#44B64B"/>
<path d="M34.4824 28.7755C34.2188 28.9025 34.0527 29.254 34.0527 29.6837C34.0527 29.9376 34.0039 30.0255 33.8379 30.0841C32.9785 30.3478 32.2949 31.2853 32.2949 32.2032C32.2949 32.8868 32.3926 33.1407 32.832 33.629C33.1152 33.9415 33.418 34.1075 34.4434 34.5177C36.1914 35.2208 36.4648 35.465 36.1621 36.0607C35.7324 36.8907 34.2969 36.8419 33.291 35.9728C32.6855 35.4454 31.9043 35.7189 31.9043 36.4708C31.9043 36.9103 32.5391 37.5157 33.3984 37.8868C34.043 38.17 34.0527 38.1798 34.0527 38.5509C34.0527 39.088 34.5117 39.547 34.9609 39.4591C35.3906 39.381 35.6152 39.0782 35.6152 38.5802C35.6152 38.1798 35.625 38.17 36.0352 38.0626C36.6309 37.8966 37.3145 37.34 37.5781 36.7931C38.0273 35.8946 37.8223 34.7618 37.1094 34.1173C36.6895 33.7364 36.4258 33.5997 35.3125 33.1603C34.7559 32.9454 34.1992 32.6915 34.082 32.6134C33.7109 32.3595 33.7988 31.8712 34.2578 31.6368C34.7363 31.3829 35.332 31.4513 36.0449 31.8321C36.7969 32.2325 36.9629 32.2423 37.3145 31.9689C37.6465 31.7052 37.6758 31.1095 37.3633 30.797C37.1289 30.5626 36.0352 30.0255 35.791 30.0255C35.6445 30.0255 35.6152 29.9376 35.6152 29.547C35.6152 29.1368 35.5762 29.0294 35.3613 28.8634C35.0781 28.6388 34.8047 28.6095 34.4824 28.7755Z" fill="#44B64B"/>
</svg>
