<svg width="60" height="60" viewBox="0 0 60 60" fill="none" xmlns="http://www.w3.org/2000/svg">
<path d="M58.8281 14.6619C54.5714 11.8475 47.3016 9.98242 38.827 9.98242C30.3523 9.98242 23.0849 11.8475 18.8281 14.6619V40.0915C18.8281 41.6508 19.3665 43.1066 19.9507 44.5396C23.5378 52.2015 31.9392 55.9125 38.8293 59.9824C45.7194 55.9125 54.1185 52.2015 57.7056 44.5396C58.2897 43.1066 58.8281 41.6508 58.8281 40.0915V14.6619Z" fill="#F8F8FF"/>
<path d="M16.1133 0.0409405C14.2773 0.343675 12.6758 0.958909 11.5234 1.78899C11.2793 1.96477 10.8203 2.17961 10.498 2.27727C8.97461 2.70696 7.98828 3.81047 7.70508 5.40227C7.54883 6.29094 7.64648 8.27336 7.90039 9.78703L8.10547 10.9491L7.70508 11.2909C7.10937 11.7988 6.93359 12.2577 6.93359 13.3222C6.93359 14.0937 6.96289 14.2695 7.20703 14.7382C7.50977 15.3437 8.125 15.7831 8.7793 15.871L9.17969 15.9296L9.38476 16.623C9.67773 17.6093 10.0879 18.4296 10.7031 19.2499L11.2305 19.953V20.7538C11.2305 21.4472 11.2109 21.5644 11.0645 21.5644C10.9766 21.5644 10.3711 22.0917 9.7168 22.746L8.52539 23.9179L6.42578 24.7284C3.7793 25.7538 3.27148 26.0273 2.53906 26.8085C1.5332 27.8827 1.17188 28.8593 1.17188 30.4999C1.17188 31.5937 1.63086 43.6152 1.71875 44.8847C1.78711 45.8515 1.93359 46.0761 2.51953 46.0761C2.89062 46.0761 3.125 45.9198 3.24219 45.5878C3.27148 45.4999 3.17383 42.3554 3.01758 38.6054C2.72461 31.3202 2.68555 29.6112 2.82227 29.5331C2.86133 29.5038 3.50586 30.0898 4.23828 30.832C5.24414 31.8671 5.63477 32.3261 5.83984 32.7655L6.10352 33.332L6.15234 39.4941C6.20117 45.3925 6.21094 45.6757 6.38672 45.871C6.65039 46.164 7.2168 46.1445 7.5 45.8515L7.71484 45.6269V39.5917C7.71484 32.9511 7.71484 32.9804 7.10937 31.7792C6.88477 31.33 6.42578 30.7929 5.21484 29.5624L3.61328 27.9511L3.93555 27.6484C4.35547 27.248 4.43359 27.2089 6.78711 26.2909L8.83789 25.4902L10.3418 27.7558C11.1621 28.996 11.9336 30.1191 12.0508 30.2362C12.5586 30.8027 13.5156 31.0468 14.2773 30.8124L14.7363 30.6659L14.6875 31.5644C14.5215 34.3378 14.082 45.4413 14.1309 45.578C14.248 45.9101 14.4824 46.0761 14.834 46.0761C15.2051 46.0761 15.3027 46.0273 15.5078 45.7734C15.5957 45.6562 15.7129 43.8691 15.918 39.0839C16.0742 35.4902 16.2109 32.3652 16.2109 32.1308V31.7206H17.7637L17.8125 32.0331C17.8418 32.2089 17.9785 35.207 18.1152 38.703C18.252 42.1894 18.3887 45.1972 18.418 45.373C18.4473 45.5487 18.5547 45.7831 18.6621 45.8905C18.916 46.1445 19.4727 46.1347 19.7266 45.8808C19.9805 45.6269 19.9805 45.6073 19.6289 37.6288C19.4727 34.0253 19.3359 30.9882 19.3359 30.8612C19.3359 30.6562 19.3555 30.6464 19.5605 30.7538C19.6777 30.8222 20.0586 30.8808 20.4102 30.8808C20.9375 30.8905 21.123 30.8417 21.5137 30.6171C21.9238 30.373 22.168 30.0507 23.6035 27.912C24.4922 26.5741 25.2539 25.4902 25.2832 25.5097C25.5957 25.705 28.7305 26.8378 28.9355 26.8378C29.5703 26.8378 29.9121 25.998 29.4629 25.5683C29.3359 25.4511 28.3887 25.0214 27.3437 24.621L25.4395 23.8984L24.2676 22.7362C23.623 22.0917 23.0371 21.5644 22.9687 21.5644C22.8906 21.5644 22.8516 21.33 22.8516 20.7343V19.8945L23.3398 19.2597C23.9258 18.498 24.541 17.2382 24.707 16.457C24.834 15.9296 24.8535 15.9003 25.1367 15.9003C25.8691 15.8905 26.7969 15.1386 27.0312 14.3476C27.2168 13.7323 27.1777 12.5995 26.9434 12.0917C26.8359 11.8573 26.6895 11.5937 26.6113 11.5058C26.5137 11.3886 26.5039 11.2421 26.5918 10.7734C26.6504 10.4511 26.6895 9.41594 26.6895 8.47844C26.6895 6.94524 26.6699 6.6718 26.4355 5.81242C25.8105 3.45891 24.5508 1.89641 22.5098 0.910081C21.0645 0.216722 20.2734 0.0604717 18.1641 0.0214092C17.168 0.0116436 16.25 0.0214092 16.1133 0.0409405ZM20.6543 1.87688C22.8906 2.55071 24.2871 3.94719 24.9023 6.13469C25.2734 7.47258 25.2539 10.4999 24.873 10.7441C24.5898 10.9198 24.4043 10.8124 24.1992 10.3534C23.3789 8.44914 23.4082 8.46867 22.1973 8.71281C18.9844 9.35735 15.9277 9.07414 14.0918 7.97063C13.7988 7.79485 13.252 7.37492 12.8809 7.03313C12.1191 6.3593 11.8555 6.28117 11.4746 6.6718C10.9375 7.19914 11.2695 7.87297 12.5293 8.83C14.5312 10.3534 17.627 10.9394 21.1523 10.4804C21.7871 10.3925 22.3535 10.3437 22.4121 10.373C22.4707 10.3925 22.6465 10.7245 22.793 11.0956C22.9492 11.4765 23.2031 11.9062 23.3594 12.0624C23.623 12.3163 23.7012 12.3359 24.4336 12.3359C25.4004 12.3456 25.5859 12.4921 25.5859 13.3124C25.5859 13.996 25.332 14.3378 24.8242 14.3378C24.3457 14.3378 23.75 14.6991 23.5254 15.1191C23.4277 15.3046 23.2422 15.832 23.1055 16.2909C22.4805 18.4003 20.7227 20.0605 18.5059 20.6366C17.7832 20.8222 16.3477 20.8222 15.5762 20.6366C14.8926 20.4804 14.0039 20.08 13.3789 19.6405C12.8125 19.2499 11.9434 18.332 11.5527 17.707C11.2695 17.248 10.8398 16.1249 10.6934 15.4706C10.5957 15.0312 9.98047 14.4648 9.52148 14.3964C8.75976 14.2792 8.65234 14.2109 8.51562 13.8007C8.33984 13.2734 8.44726 12.7265 8.75976 12.4823C9.0625 12.248 9.28711 12.2968 9.74609 12.6874C9.99023 12.912 10.166 12.9706 10.498 12.9706C10.8594 12.9706 11.0156 12.9023 11.4453 12.5507C12.207 11.9257 12.6953 11.2421 12.6953 10.7929C12.6953 10.0312 11.8457 9.74797 11.3477 10.3437C11.2012 10.5195 10.9668 10.7929 10.8301 10.9589L10.5664 11.2519L10.127 11.0175L9.67773 10.7831L9.53125 9.94328C9.16992 7.99016 9.08203 6.47649 9.28711 5.54875C9.48242 4.63078 10.2734 3.84953 11.1133 3.74211C11.4355 3.69328 11.7773 3.53703 12.2852 3.18547C13.418 2.41399 14.7168 1.86711 15.9961 1.6425C16.25 1.59367 17.207 1.57414 18.1152 1.58391C19.5898 1.61321 19.873 1.6425 20.6543 1.87688ZM14.1602 21.8476C15.1074 22.1991 15.9375 22.3456 17.0117 22.3456C18.4277 22.3456 19.5312 22.082 20.7324 21.457L21.2891 21.1738V22.5898L19.2187 24.3964C18.0762 25.3925 17.0898 26.203 17.0312 26.203C16.9629 26.203 15.9863 25.3925 14.8535 24.4159L12.793 22.6191V21.164L13.2129 21.4081C13.4375 21.5448 13.8672 21.7402 14.1602 21.8476ZM13.5254 25.3632C14.5996 26.3007 15.5664 27.1405 15.6738 27.248C15.8594 27.4237 15.8496 27.4335 14.9902 28.3027C14.0039 29.2987 13.6914 29.4745 13.3496 29.2597C13.2324 29.1718 12.4512 28.0878 11.6309 26.8476L10.1172 24.582L10.6934 24.0058C11.1719 23.5175 11.2891 23.4491 11.416 23.5468C11.5039 23.6152 12.4512 24.4257 13.5254 25.3632ZM22.3633 26.9355C20.7617 29.328 20.5762 29.5331 20.1367 29.289C20.0488 29.2402 19.5801 28.8007 19.0918 28.3124C18.2227 27.4237 18.2227 27.4237 18.4082 27.2284C18.5156 27.121 19.5312 26.2323 20.6543 25.2362L22.7051 23.4394L23.3105 24.0253L23.9062 24.621L22.3633 26.9355ZM17.7051 29.6405L17.7637 30.1581H16.3086V29.6991C16.3086 29.2987 16.3574 29.1913 16.6699 28.8691L17.0312 28.498L17.3437 28.8105C17.5879 29.0644 17.666 29.2499 17.7051 29.6405Z" fill="#44B64B"/>
<path d="M31.0547 27.414C30.3809 27.6191 29.8633 28.0585 29.5312 28.6933C29.4043 28.9472 29.3457 29.3183 29.3164 30.1288L29.2773 31.2226L26.5723 31.2519C23.6523 31.2812 23.584 31.3007 22.7344 31.8866C22.2754 32.1991 21.748 32.9999 21.6016 33.5956C21.5332 33.8495 21.4844 34.7382 21.4844 35.578C21.4844 37.1894 21.6309 37.9413 22.0703 38.5663C22.2461 38.8007 22.2559 39.0937 22.2852 43.3027L22.3145 47.7851L22.5488 48.2636C22.8613 48.8984 23.4375 49.455 24.0723 49.748L24.5801 49.9823L34.0918 49.9628L43.6035 49.9335L44.0625 49.6991C44.6191 49.4159 45.127 48.9081 45.4297 48.3222C45.6543 47.8827 45.6543 47.8632 45.7031 43.3905L45.752 38.8984L46.4355 37.5312V35.4804C46.4355 33.4491 46.4355 33.4296 46.1719 32.9316C45.8984 32.4237 45.3223 31.828 44.8535 31.5937C44.2969 31.3105 43.5254 31.2323 41.1133 31.2323H38.6719V30.1777C38.6719 29.2402 38.6426 29.0644 38.418 28.6152C38.2812 28.332 38.0176 27.9902 37.8516 27.8632C37.1973 27.3652 36.9043 27.3261 33.9941 27.3359C32.5098 27.3359 31.1914 27.3749 31.0547 27.414ZM36.6504 29.0058C37.041 29.2109 37.0996 29.3964 37.1094 30.3241V31.2323H30.8398L30.8789 30.2948C30.9082 29.4062 30.9277 29.3476 31.1816 29.123L31.4551 28.8886H33.9453C35.6543 28.8886 36.5039 28.9277 36.6504 29.0058ZM44.2676 33.1171C44.873 33.5761 44.9219 33.7714 44.9219 35.5097C44.9219 36.9745 44.9121 37.082 44.668 37.5605C44.3555 38.1757 43.5645 38.9179 42.5879 39.4843L41.8555 39.9237L41.748 39.6112C41.582 39.0839 41.3672 39.0351 39.3848 39.0644C37.0117 39.1034 37.1582 38.9667 37.1582 41.1737C37.1582 42.58 37.1875 42.8534 37.3438 43.1757C37.7637 44.0253 38.5449 44.5038 39.4824 44.5136C40.8301 44.5136 41.7871 43.5663 41.7969 42.2187V41.623L42.5586 41.2714C42.9688 41.0761 43.4961 40.8027 43.7305 40.6562L44.1406 40.4023V43.9081C44.1406 47.3847 44.1406 47.414 43.916 47.7362C43.7988 47.9218 43.5449 48.1562 43.3594 48.2636C43.0176 48.4687 42.9199 48.4687 33.9844 48.4687C23.9355 48.4687 24.6094 48.5175 24.1016 47.8144C23.877 47.4921 23.877 47.4823 23.8477 43.9472C23.8379 42.0038 23.8477 40.412 23.8672 40.412C23.8965 40.412 24.1504 40.5585 24.4336 40.7343C24.7168 40.9101 25.2246 41.1835 25.5664 41.3398L26.1719 41.623V42.1112C26.1816 43.0976 26.6699 43.8984 27.4805 44.2792C28.6914 44.8456 30.166 44.3378 30.625 43.1952C30.7812 42.8241 30.8496 42.7558 31.0059 42.8046C31.1133 42.8339 32.0703 42.8925 33.1348 42.9218C35.0586 42.9804 35.0684 42.9804 35.3027 42.7558C35.6055 42.4726 35.625 41.9941 35.3613 41.6718C35.1758 41.4472 35.1172 41.4374 33.3301 41.3788C32.3145 41.3398 31.3477 41.2812 31.1719 41.2421L30.8594 41.1737V40.4023C30.8594 39.4941 30.7812 39.2987 30.3613 39.1523C29.9609 39.0155 27.0801 39.0155 26.6797 39.1523C26.5039 39.2109 26.3379 39.3671 26.2695 39.5429C26.2012 39.6991 26.1328 39.8261 26.1035 39.8261C25.9668 39.8261 25.0488 39.289 24.5605 38.9179C23.8965 38.4101 23.5156 37.9609 23.2422 37.3554C23.0859 37.0136 23.0469 36.7109 23.0469 35.5292C23.0469 34.2402 23.0664 34.0644 23.2715 33.6737C23.4277 33.371 23.6133 33.1757 23.916 33.0195L24.3555 32.7948L43.916 32.8437L44.2676 33.1171ZM29.2969 41.5351C29.2969 42.3945 29.2773 42.4921 29.0527 42.707C28.8184 42.9413 28.4961 43.0097 28.1738 42.8925C27.8809 42.7753 27.7344 42.3066 27.7344 41.4374V40.6073H29.2969V41.5351ZM40.2344 41.5546C40.2344 42.3945 40.2051 42.5214 40.0195 42.7265C39.8828 42.873 39.6973 42.9511 39.5117 42.9511C38.8867 42.9413 38.6719 42.5409 38.6719 41.3788V40.6073H40.2344V41.5546Z" fill="#44B64B"/>
</svg>
