<svg width="16" height="20" viewBox="0 0 16 20" fill="none" xmlns="http://www.w3.org/2000/svg">
<path id="Vector" d="M12.3333 10H13.85C14.0224 10 14.1877 10.0672 14.3096 10.1867C14.4315 10.3063 14.5 10.4684 14.5 10.6375V17.8625C14.5 18.0316 14.4315 18.1937 14.3096 18.3133C14.1877 18.4328 14.0224 18.5 13.85 18.5H2.15C1.97761 18.5 1.81228 18.4328 1.69038 18.3133C1.56848 18.1937 1.5 18.0316 1.5 17.8625V10.6375C1.5 10.4684 1.56848 10.3063 1.69038 10.1867C1.81228 10.0672 1.97761 10 2.15 10H3.66667M12.3333 10V5.75C12.3333 4.33369 11.4667 1.5 8 1.5C4.53333 1.5 3.66667 4.33369 3.66667 5.75V10M12.3333 10H3.66667" stroke="#44B64B" stroke-width="1.5" stroke-linecap="round" stroke-linejoin="round"/>
</svg>
