<svg width="20" height="20" viewBox="0 0 20 20" fill="none" xmlns="http://www.w3.org/2000/svg">
<path d="M15.25 2H4.75C3.7558 2.00115 2.80267 2.38464 2.09966 3.06634C1.39666 3.74804 1.00119 4.67229 1 5.63636L1 14.3636C1.00119 15.3277 1.39666 16.252 2.09966 16.9337C2.80267 17.6154 3.7558 17.9988 4.75 18H15.25C16.2442 17.9988 17.1973 17.6154 17.9003 16.9337C18.6033 16.252 18.9988 15.3277 19 14.3636V5.63636C18.9988 4.67229 18.6033 3.74804 17.9003 3.06634C17.1973 2.38464 16.2442 2.00115 15.25 2ZM4.75 3.45455H15.25C15.6991 3.4554 16.1376 3.58656 16.5092 3.83113C16.8808 4.0757 17.1684 4.42251 17.335 4.82691L11.5915 10.3971C11.1688 10.8053 10.5966 11.0345 10 11.0345C9.40344 11.0345 8.83118 10.8053 8.4085 10.3971L2.665 4.82691C2.83161 4.42251 3.11921 4.0757 3.49079 3.83113C3.86236 3.58656 4.30091 3.4554 4.75 3.45455ZM15.25 16.5455H4.75C4.15326 16.5455 3.58097 16.3156 3.15901 15.9064C2.73705 15.4972 2.5 14.9423 2.5 14.3636V6.72727L7.348 11.4255C8.05197 12.1064 9.00569 12.4888 10 12.4888C10.9943 12.4888 11.948 12.1064 12.652 11.4255L17.5 6.72727V14.3636C17.5 14.9423 17.2629 15.4972 16.841 15.9064C16.419 16.3156 15.8467 16.5455 15.25 16.5455Z" fill="#44B64B"/>
</svg>
