<svg width="60" height="60" viewBox="0 0 60 60" fill="none" xmlns="http://www.w3.org/2000/svg">
<g clip-path="url(#clip0_33_6235)">
<path d="M18.3103 0.832672C14.5408 1.31119 10.7322 2.89322 7.81228 5.20767C6.93337 5.9108 5.27322 7.55142 4.56033 8.44009C2.23611 11.321 0.624778 15.071 0.146263 18.7428C-0.0490499 20.2272 -0.0490499 22.9616 0.156028 24.3776C1.44509 33.6549 8.70095 40.901 17.9685 42.1803C19.1404 42.3463 21.7869 42.3952 22.8904 42.278C23.2908 42.2292 23.6326 42.1315 23.7693 42.0241C24.2478 41.6432 24.1697 40.8034 23.6326 40.5202C23.4275 40.4128 23.1541 40.3932 22.5193 40.442L21.6795 40.5006V35.6081L21.3767 35.3542C21.0349 35.071 20.7224 35.0319 20.322 35.2467C19.8826 35.4713 19.824 35.8034 19.824 38.2545V40.5006L19.0232 40.4323C15.781 40.1686 12.2752 38.821 9.52126 36.7897C8.40798 35.9694 6.37673 33.9381 5.57595 32.8542C3.49587 30.0417 2.13845 26.5065 1.89431 23.2545L1.82595 22.4049H4.28689C6.60134 22.4049 6.74782 22.3952 6.93337 22.2096C7.31423 21.8288 7.30447 21.2135 6.91384 20.8424C6.70876 20.6569 6.58181 20.6471 4.26736 20.6471H1.82595L1.89431 19.817C2.09939 17.0338 3.24197 13.7526 4.84353 11.2917C7.69509 6.91666 12.0506 3.94791 17.0896 2.93228C17.7635 2.79556 18.6717 2.65884 19.1209 2.61978L19.9217 2.55142V4.95377C19.9217 6.27213 19.951 7.42447 19.9802 7.51236C20.1365 7.91275 21.0056 8.07877 21.3767 7.77603C21.7088 7.51236 21.7771 7.00455 21.7771 4.69986V2.58072H22.0799C22.2459 2.58072 22.8513 2.64908 23.4275 2.73697C31.8455 3.96744 38.3592 10.4811 39.5896 18.8991C39.6775 19.4753 39.7459 20.1003 39.7459 20.2956V20.6471H35.0486L34.8142 20.8913C34.4627 21.2331 34.4724 21.8874 34.824 22.2194C35.0681 22.4538 35.0877 22.4538 37.4217 22.4831L39.7654 22.5124L39.7459 23.069C39.7166 23.8991 39.7263 23.9577 39.99 24.2116C40.4099 24.6413 41.3279 24.4362 41.4744 23.8893C41.5232 23.7428 41.5525 22.5905 41.5525 21.3307C41.5427 18.8014 41.4158 17.8249 40.8201 15.735C39.4236 10.8717 36.1228 6.5065 31.8064 3.83072C29.3162 2.27798 26.1814 1.194 23.1443 0.822906C22.1677 0.705719 19.2869 0.715484 18.3103 0.832672Z" fill="#44B64B"/>
<path d="M12.0498 6.19398C11.7471 6.31117 11.5225 6.6725 11.5225 7.03382C11.5225 7.22914 11.7178 7.67836 12.04 8.24476C12.4404 8.95765 12.6162 9.18226 12.8799 9.28968C13.29 9.46547 13.71 9.37757 13.9639 9.05531C14.2764 8.66468 14.208 8.29359 13.6514 7.28773C13.0361 6.17445 12.6846 5.94007 12.0498 6.19398Z" fill="#44B64B"/>
<path d="M28.7298 6.22328C28.4856 6.3307 27.47 7.96156 27.4407 8.29359C27.3919 8.73305 27.4505 8.94789 27.6849 9.1725C27.9388 9.43617 28.4661 9.50453 28.8079 9.31898C29.0911 9.16273 30.0774 7.35609 30.0774 6.985C30.0774 6.3307 29.345 5.92055 28.7298 6.22328Z" fill="#44B64B"/>
<path d="M20.1064 9.86589L19.8721 10.1198L19.8135 18.7917L19.4521 18.9772C18.5146 19.4655 17.9775 20.3932 17.9678 21.5358C17.9678 22.444 18.251 23.0885 18.915 23.6647C20.2334 24.8366 22.4795 24.4655 23.2607 22.9616L23.4463 22.5807L26.6689 22.6198L29.9014 22.6491L30.1357 22.3757C30.4873 21.9655 30.458 21.4284 30.0674 21.0964C29.7744 20.8425 29.7451 20.8425 28.1924 20.8425C27.3232 20.8425 25.917 20.8132 25.0771 20.7741L23.5439 20.7155L23.4365 20.3932C23.2803 19.9342 22.626 19.2311 22.1182 18.987L21.6787 18.7721V10.0905L21.4346 9.85612C21.0928 9.50456 20.4385 9.51433 20.1064 9.86589ZM21.1318 20.5885C21.835 20.8815 22.001 21.6725 21.4736 22.1999C21.2393 22.4342 21.0928 22.5026 20.7803 22.5026C19.7061 22.5026 19.4424 21.028 20.4482 20.5885C20.8193 20.4323 20.751 20.4323 21.1318 20.5885Z" fill="#44B64B"/>
<path d="M34.9598 12.3171C34.6083 12.444 33.3094 13.2448 33.1434 13.4304C32.8505 13.7526 32.8993 14.3679 33.2313 14.6511C33.6708 15.0222 34.0907 14.9636 35.0575 14.3874C36.034 13.8112 36.1317 13.7038 36.1317 13.2155C36.1317 12.6003 35.4872 12.112 34.9598 12.3171Z" fill="#44B64B"/>
<path d="M5.77971 12.5612C5.67229 12.6882 5.54534 12.903 5.51604 13.0592C5.38909 13.5475 5.6137 13.8405 6.5219 14.3874C7.67424 15.0612 8.25042 15.0514 8.54339 14.3581C8.80706 13.7331 8.60198 13.4206 7.51799 12.7858C6.63909 12.2682 6.12151 12.1999 5.77971 12.5612Z" fill="#44B64B"/>
<path d="M36.5128 25.2663C35.9464 25.4811 35.4776 25.8034 35.1749 26.194C34.7843 26.7018 24.6085 43.1764 24.4327 43.5963C24.3546 43.7819 24.2862 44.2409 24.2765 44.6217C24.2667 45.7936 24.9405 46.8678 25.9757 47.3463C26.3858 47.5319 26.6691 47.5514 29.7355 47.61C31.5616 47.6491 36.4151 47.6979 40.5265 47.7174L47.9972 47.7467L48.3976 47.5319C49.0519 47.1803 49.3839 46.8483 49.6964 46.2135C49.9503 45.7057 49.9991 45.5104 49.9991 44.8756C49.9991 44.2506 49.9503 44.0358 49.7159 43.5475C49.2179 42.5221 39.9698 26.4674 39.6671 26.1159C39.1886 25.5397 38.4562 25.2077 37.5968 25.1686C37.1378 25.1491 36.7276 25.1881 36.5128 25.2663ZM38.0167 27.1706C38.4269 27.4147 48.1437 44.3874 48.1437 44.8463C48.1437 45.3053 47.9093 45.696 47.5577 45.8424C47.3136 45.9499 45.839 45.9596 40.0577 45.901C36.1026 45.8717 31.503 45.8131 29.8429 45.7741L26.8155 45.7155L26.4737 45.3932C26.1905 45.1393 26.1222 45.0124 26.1222 44.6999C26.1222 44.2995 25.6827 45.0319 33.9933 31.6042C35.7218 28.8014 36.7569 27.2194 36.9132 27.1315C37.255 26.9557 37.6944 26.9655 38.0167 27.1706Z" fill="#44B64B"/>
<path d="M36.5908 32.278C36.1807 32.5221 36.1318 32.8835 36.1318 35.9987C36.1318 38.6257 36.1514 38.9967 36.3076 39.2995C36.5811 39.8561 37.3525 39.944 37.792 39.4753C37.9775 39.2702 37.9873 39.1432 37.9873 35.9596V32.6491L37.7334 32.4147C37.4502 32.151 36.9131 32.0925 36.5908 32.278Z" fill="#44B64B"/>
<path d="M36.5528 41.692C36.2207 41.9264 36.0938 42.4342 36.2696 42.8444C36.4356 43.2545 36.6699 43.401 37.1582 43.401C37.666 43.401 37.9883 43.0495 37.9883 42.4928C37.9883 42.1608 37.9297 42.0045 37.7344 41.7995C37.4317 41.5065 36.8946 41.4577 36.5528 41.692Z" fill="#44B64B"/>
<path d="M6.54132 28.6842C6.00421 28.9869 5.56476 29.3092 5.4964 29.4459C5.30109 29.817 5.34991 30.1783 5.62335 30.5006C6.01398 30.9596 6.41437 30.9205 7.51788 30.2857C8.5628 29.6998 8.78741 29.3873 8.5921 28.7916C8.32843 28.0104 7.79132 27.9811 6.54132 28.6842Z" fill="#44B64B"/>
<path d="M12.8126 33.7526C12.6075 33.8502 11.836 35.0807 11.6114 35.6471C11.4747 36.0182 11.67 36.5358 12.0118 36.7115C12.6758 37.0533 13.0567 36.819 13.711 35.6862C14.3067 34.651 14.3262 34.0651 13.7598 33.7819C13.4376 33.6158 13.1251 33.6061 12.8126 33.7526Z" fill="#44B64B"/>
</g>
<defs>
<clipPath id="clip0_33_6235">
<rect width="60" height="60" fill="white"/>
</clipPath>
</defs>
</svg>
