<svg width="20" height="20" viewBox="0 0 20 20" fill="none" xmlns="http://www.w3.org/2000/svg">
<path d="M10.7354 1.76597C10.7354 1.56706 10.8144 1.37629 10.955 1.23564C11.0957 1.09499 11.2864 1.01597 11.4854 1.01597C13.4738 1.01815 15.3802 1.80903 16.7862 3.21508C18.1923 4.62113 18.9832 6.52752 18.9853 8.51597C18.9853 8.71488 18.9063 8.90565 18.7657 9.0463C18.625 9.18695 18.4343 9.26597 18.2353 9.26597C18.0364 9.26597 17.8457 9.18695 17.705 9.0463C17.5644 8.90565 17.4854 8.71488 17.4854 8.51597C17.4836 6.92522 16.8509 5.40013 15.726 4.2753C14.6012 3.15047 13.0761 2.51775 11.4854 2.51597C11.2864 2.51597 11.0957 2.43695 10.955 2.2963C10.8144 2.15565 10.7354 1.96488 10.7354 1.76597ZM11.4854 5.51597C12.281 5.51597 13.0441 5.83204 13.6067 6.39465C14.1693 6.95726 14.4854 7.72032 14.4854 8.51597C14.4854 8.71488 14.5644 8.90565 14.705 9.0463C14.8457 9.18695 15.0364 9.26597 15.2354 9.26597C15.4343 9.26597 15.625 9.18695 15.7657 9.0463C15.9063 8.90565 15.9854 8.71488 15.9854 8.51597C15.9842 7.32286 15.5097 6.17896 14.666 5.3353C13.8224 4.49165 12.6785 4.01716 11.4854 4.01597C11.2864 4.01597 11.0957 4.09499 10.955 4.23564C10.8144 4.37629 10.7354 4.56706 10.7354 4.76597C10.7354 4.96488 10.8144 5.15565 10.955 5.2963C11.0957 5.43695 11.2864 5.51597 11.4854 5.51597ZM18.3051 13.5702C18.7397 14.0061 18.9838 14.5965 18.9838 15.212C18.9838 15.8275 18.7397 16.4179 18.3051 16.8537L17.6226 17.6405C11.4801 23.5212 -3.46737 8.57747 2.32262 2.41547L3.18512 1.66547C3.62144 1.24298 4.20657 1.00926 4.81389 1.01487C5.42122 1.02048 6.00192 1.26498 6.43037 1.69547C6.45362 1.71872 7.84336 3.52397 7.84336 3.52397C8.25573 3.95719 8.48529 4.53267 8.48431 5.13077C8.48334 5.72888 8.2519 6.3036 7.83811 6.73547L6.96961 7.82747C7.45025 8.9953 8.15691 10.0567 9.04899 10.9505C9.94108 11.8444 11.001 12.5532 12.1679 13.0362L13.2666 12.1625C13.6985 11.749 14.2732 11.5178 14.8711 11.517C15.469 11.5162 16.0443 11.7457 16.4774 12.158C16.4774 12.158 18.2819 13.547 18.3051 13.5702ZM17.2731 14.6607C17.2731 14.6607 15.4784 13.28 15.4551 13.2567C15.3006 13.1035 15.0918 13.0176 14.8742 13.0176C14.6566 13.0176 14.4479 13.1035 14.2934 13.2567C14.2731 13.2777 12.7604 14.483 12.7604 14.483C12.6584 14.5641 12.5371 14.6173 12.4083 14.6373C12.2796 14.6573 12.1479 14.6434 12.0261 14.597C10.5145 14.0341 9.14141 13.153 7.99999 12.0133C6.85856 10.8735 5.97542 9.50179 5.41037 7.99097C5.36026 7.86756 5.34393 7.73304 5.36304 7.60122C5.38216 7.46941 5.43603 7.34507 5.51912 7.24097C5.51912 7.24097 6.72436 5.72747 6.74461 5.70797C6.89782 5.55346 6.98377 5.34468 6.98377 5.12709C6.98377 4.90951 6.89782 4.70073 6.74461 4.54622C6.72136 4.52372 5.34062 2.72747 5.34062 2.72747C5.18379 2.58685 4.97912 2.51154 4.76855 2.51698C4.55799 2.52242 4.35747 2.60819 4.20812 2.75672L3.34562 3.50672C-0.885876 8.59472 12.0674 20.8295 16.5261 16.616L17.2094 15.8285C17.3695 15.6802 17.4656 15.4754 17.4775 15.2575C17.4894 15.0396 17.4161 14.8256 17.2731 14.6607Z" fill="#44B64B"/>
</svg>
