<svg width="60" height="60" viewBox="0 0 60 60" fill="none" xmlns="http://www.w3.org/2000/svg">
<g clip-path="url(#clip0_56_19386)">
<path d="M60 13.8987C55.7432 11.0844 48.4735 9.21924 39.9988 9.21924C31.5241 9.21924 24.2568 11.0844 20 13.8987V39.3283C20 40.8876 20.5384 42.3434 21.1226 43.7765C24.7096 51.4384 33.1111 55.1493 40.0012 59.2192C46.8913 55.1493 55.2904 51.4384 58.8774 43.7765C59.4616 42.3434 60 40.8876 60 39.3283V13.8987Z" fill="#F8F8FF"/>
<path d="M23.8672 0.967547C23.6523 1.0652 18.7793 3.89723 13.0566 7.26638L2.64648 13.3797H1.88477C0.986328 13.3797 0.556641 13.5554 0.224609 14.0535C0.0195312 14.3562 0 14.4929 0 15.7234C0 16.9539 0.0195312 17.0906 0.224609 17.3836C0.507812 17.8035 1.01562 18.0672 1.5332 18.0672H1.95312V19.1316C1.95312 20.0593 1.98242 20.2254 2.17773 20.5183C2.29492 20.7039 2.57812 20.9382 2.80273 21.0457L3.21289 21.241L3.22266 23.8875C3.22266 26.5242 3.22266 26.534 3.44727 26.739C3.7793 27.0515 4.31641 27.032 4.58008 26.7C4.77539 26.4461 4.78516 26.3191 4.78516 23.8191V21.1922H9.47266V39.8445H4.78516V34.6687C4.78516 31.0359 4.75586 29.4343 4.67773 29.2586C4.54102 28.9558 4.12109 28.78 3.76953 28.8679C3.21289 29.0047 3.22266 28.8777 3.22266 34.5711V39.8054L2.83203 39.9812C2.1582 40.2742 2.01172 40.6062 1.97266 41.866L1.93359 42.9695H1.58203C1.09375 42.9695 0.439453 43.3113 0.195312 43.6922C0.0292969 43.9754 0 44.1804 0 45.323C0 46.7879 0.0976562 47.0906 0.703125 47.4617C1.02539 47.657 1.25 47.657 25 47.657C48.75 47.657 48.9746 47.657 49.2969 47.4617C49.9023 47.0906 50 46.7879 50 45.323C50 44.1804 49.9707 43.9754 49.8047 43.6922C49.5605 43.3113 48.9062 42.9695 48.418 42.9695H48.0664L48.0273 41.866C47.9883 40.6062 47.8418 40.2742 47.168 39.9812L46.7773 39.8054V34.5711C46.7773 28.8777 46.7871 29.0047 46.2305 28.8679C45.8789 28.78 45.459 28.9558 45.3223 29.2586C45.2441 29.4343 45.2148 31.0359 45.2148 34.6687V39.8445H40.5273V21.1922H45.2148V23.8191C45.2148 26.3191 45.2246 26.4461 45.4199 26.7C45.6836 27.0418 46.2598 27.0515 46.5625 26.7293C46.7676 26.5047 46.7773 26.4363 46.7773 23.8679L46.7871 21.241L47.1973 21.0457C47.4219 20.9382 47.7051 20.7039 47.8223 20.5183C48.0176 20.2254 48.0469 20.0593 48.0469 19.1316V18.0672H48.4668C48.9941 18.0672 49.502 17.8132 49.7754 17.3933C49.9805 17.0906 50 16.9539 50 15.7234C50 14.4929 49.9805 14.3562 49.7754 14.0535C49.4434 13.5554 49.0137 13.3797 48.125 13.3797H47.3633L36.9531 7.26638C31.2305 3.907 26.3574 1.07497 26.1426 0.967547C25.5859 0.723407 24.4141 0.713641 23.8672 0.967547ZM34.8438 7.86208L44.1406 13.3308L34.5703 13.3601C29.3066 13.3699 20.6934 13.3699 15.4297 13.3601L5.85938 13.3308L15.2148 7.83278C24.5117 2.36403 24.5605 2.33473 25.0488 2.36403C25.498 2.39333 26.2793 2.83278 34.8438 7.86208ZM48.5352 16.5047H1.46484V14.9422H48.5352V16.5047ZM10.791 19.6785L7.1582 19.7078L3.51562 19.7273V18.0672H10.8496L10.791 19.6785ZM13.8672 19.1316C13.8672 20.0593 13.8965 20.2254 14.0918 20.5183C14.209 20.7039 14.4922 20.9382 14.7168 21.0457L15.127 21.241L15.1367 30.5281V39.8054L14.7461 39.9812C14.5215 40.0789 14.248 40.3133 14.1113 40.5086C13.8867 40.8308 13.8672 40.9578 13.8672 41.9148V42.9695H12.4023V42.159C12.4023 41.7195 12.3535 41.1922 12.3047 40.9968C12.168 40.5086 11.7871 40.0789 11.377 39.9422L11.0352 39.825V21.2117L11.3086 21.1433C11.6992 21.0652 12.207 20.5086 12.3145 20.0593C12.3535 19.8445 12.4023 19.3172 12.4023 18.8679V18.0672H13.8672V19.1316ZM22.7051 19.6785L19.0723 19.7078L15.4297 19.7273V18.0672L19.0723 18.0867L22.7051 18.116V19.6785ZM25.6836 18.8191C25.6934 20.1765 25.918 20.6941 26.6406 21.0457L27.041 21.241L27.0508 23.8972C27.0508 26.4265 27.0605 26.573 27.2461 26.7586C27.5 27.0125 28.0273 27.0125 28.3301 26.7683L28.5645 26.5828L28.623 21.1922H33.3008V39.8445H28.623L28.5645 29.2781L28.2812 29.034C27.959 28.7605 27.5488 28.78 27.2266 29.073C27.0605 29.2195 27.0508 29.532 27.0508 34.5125V39.7957L26.6504 39.991C25.918 40.3425 25.6934 40.8601 25.6836 42.2078V42.9695H24.3164V42.2078C24.3066 40.8601 24.082 40.3425 23.3496 39.991L22.9492 39.7957V30.5183L22.959 21.241L23.3594 21.0457C24.082 20.6941 24.3066 20.1765 24.3164 18.8191V18.0672H25.6836V18.8191ZM34.5703 19.7273L30.9375 19.7078L27.2949 19.6785L27.2656 19.0047C27.2461 18.6336 27.2559 18.2722 27.2852 18.1941C27.3242 18.0965 28.0078 18.0672 30.957 18.0672H34.5703V19.7273ZM37.5977 18.8679C37.5977 19.3172 37.6465 19.8445 37.6855 20.0593C37.793 20.5086 38.1934 20.9578 38.6426 21.114L38.9648 21.2312V39.825L38.623 39.9422C38.2129 40.0789 37.832 40.5086 37.6953 40.9968C37.6465 41.1922 37.5977 41.7195 37.5977 42.159V42.9695H36.1328V41.9148C36.1328 40.9578 36.1133 40.8308 35.8887 40.5086C35.752 40.3133 35.4785 40.0789 35.2539 39.9812L34.8633 39.8054V30.5281L34.873 21.241L35.2832 21.0457C35.5078 20.9382 35.791 20.7039 35.9082 20.5183C36.1035 20.2254 36.1328 20.0593 36.1328 19.1316V18.0672H37.5977V18.8679ZM46.4844 19.7273L42.8516 19.7078L39.209 19.6785L39.1504 18.0672H46.4844V19.7273ZM21.3867 39.8445H16.6992V21.1922H21.3867V39.8445ZM10.8398 42.9695H3.51562V41.407H10.8398V42.9695ZM22.7539 42.9695H15.4297V41.407H22.7539V42.9695ZM34.5703 42.9695H27.2461V41.407H34.5703V42.9695ZM46.4844 42.9695H39.1602V41.407H46.4844V42.9695ZM48.5449 46.0945H1.46484V45.3816C1.46484 44.9812 1.49414 44.6297 1.5332 44.6004C1.5625 44.5613 12.1484 44.5418 25.0391 44.5515L48.4863 44.5808L48.5449 46.0945Z" fill="#44B64B"/>
<path d="M19.3363 7.23708C16.4066 8.95583 13.9555 10.4304 13.8969 10.5183C13.7211 10.7429 13.7406 11.241 13.9262 11.5047L14.0726 11.7195H35.9281L36.0746 11.5047C36.2797 11.2117 36.2699 10.7136 36.0648 10.4793C35.9672 10.3718 33.516 8.88747 30.6058 7.18825C26.4359 4.74684 25.264 4.10231 24.9906 4.10231C24.7269 4.10231 23.5062 4.78591 19.3363 7.23708ZM28.848 8.00856L32.5883 10.2058L28.7992 10.2351C26.7094 10.2449 23.2914 10.2449 21.2113 10.2351L17.4125 10.2058L21.182 7.98903C23.2523 6.76833 24.9808 5.782 25.0199 5.79177C25.0687 5.80153 26.7875 6.79763 28.848 8.00856Z" fill="#44B64B"/>
</g>
<defs>
<clipPath id="clip0_56_19386">
<rect width="60" height="60" fill="white"/>
</clipPath>
</defs>
</svg>
