<svg width="60" height="60" viewBox="0 0 60 60" fill="none" xmlns="http://www.w3.org/2000/svg">
<g clip-path="url(#clip0_33_6234)">
<path d="M15.332 0.153722C14.6191 0.417394 0.361328 7.98575 0.175781 8.21036C0.00976562 8.39591 0 8.74747 0 12.5561V16.6967L0.244141 16.9311C0.683594 17.3803 0.859375 17.3119 4.6875 15.2807L8.25195 13.3959L8.30078 14.5775C8.35938 15.9252 8.49609 16.3061 9.16016 16.9018C9.52148 17.224 9.81445 17.3608 10.4785 17.5072C10.7422 17.5658 10.7422 17.5756 10.7422 18.3861V19.2162L10.2148 19.4506C9.54102 19.7631 8.93555 20.3686 8.60352 21.0717C8.38867 21.5404 8.34961 21.7455 8.34961 22.4975C8.34961 23.4545 8.53516 24.0209 9.04297 24.6264C9.38477 25.0365 10.1074 25.5443 10.4492 25.6225L10.7324 25.6811L10.791 37.0483L11.0254 37.6342C11.3184 38.3666 12.1582 39.2358 12.8027 39.4799L13.2422 39.6459L13.3496 40.3588C13.6035 42.1166 14.7656 43.4447 16.4551 43.8842C17.5 44.1479 18.4668 44.0404 19.4922 43.5131C20.0488 43.2299 20.8203 42.5072 21.0547 42.058C21.1719 41.8334 21.25 41.7748 21.416 41.8236C21.5332 41.8529 24.7852 42.7221 28.6426 43.7572L35.6445 45.6322V45.9838C35.6445 46.4525 35.9082 47.4291 36.1426 47.8197C36.2402 47.9955 36.3281 48.1615 36.3281 48.1908C36.3281 48.2104 30.3906 48.2299 23.1445 48.2299C8.57422 48.2299 9.4043 48.1908 9.18945 48.8451C9.0625 49.226 9.15039 49.5483 9.44336 49.8217C9.62891 49.9779 10.459 49.9877 25.3027 49.9682L40.9766 49.9389L41.7188 49.5775C42.4121 49.226 42.9004 48.8061 43.4082 48.0834L43.6133 47.81L44.6289 48.0834C46.2988 48.5229 47.4902 48.2983 48.4277 47.3608C48.9746 46.8139 49.1602 46.394 49.6094 44.7631C50.0879 43.0248 50.127 42.2729 49.7559 41.5307C49.4336 40.8861 49.1992 40.6811 47.7539 39.7826C47.0801 39.3725 45.8594 38.5619 45.0293 37.9955L43.5254 36.9506L41.1719 33.5326C39.8828 31.6576 38.5547 29.8412 38.2422 29.5092C37.5781 28.7963 36.3281 27.9272 35.4492 27.5658C34.7754 27.2924 28.584 25.6029 27.0117 25.2611C25.6055 24.9584 22.5586 24.9584 20.8691 25.2611C19.4629 25.5248 16.8359 26.1693 16.0938 26.4525C14.9023 26.892 13.7207 27.8686 12.9883 29.0014L12.5977 29.6068V25.7006L12.9785 25.5834C13.5156 25.4272 14.3848 24.6068 14.707 23.9525C14.8633 23.6303 14.9805 23.1908 15.0098 22.81C15.0586 22.2533 15.0391 22.1654 14.8145 21.9115C14.2969 21.3061 13.2812 21.6869 13.2812 22.4877C13.2812 23.0053 12.8906 23.6303 12.4023 23.8842C12.168 24.0111 11.8457 24.1088 11.6699 24.1088C11.1621 24.1088 10.5371 23.7182 10.2832 23.2299C10 22.7025 10 22.2143 10.2832 21.7162C10.5273 21.2865 11.1328 20.8861 11.5527 20.8861C11.8945 20.8861 12.3633 20.6518 12.4414 20.4467C12.4707 20.3588 12.5 19.6752 12.5 18.933V17.5756L13.0371 17.4682C13.916 17.2826 14.707 16.56 14.9414 15.7201C14.9902 15.5248 15.0391 14.1479 15.0391 12.5854V9.80216L17.0703 8.72794C18.6816 7.86857 19.1992 7.5463 19.6387 7.11661C20.5859 6.17911 21.0352 4.82169 20.8203 3.55216C20.5859 2.11661 19.7656 0.993565 18.5059 0.368565C17.8809 0.0658311 17.7539 0.0365342 16.7969 0.017003C16.0449 -0.00252826 15.6543 0.0365342 15.332 0.153722ZM17.9297 2.08732C18.8574 2.66349 19.2969 3.7963 18.9941 4.83146C18.6914 5.86661 18.7598 5.82755 9.91211 10.5053C5.50781 12.8295 1.875 14.7338 1.83594 14.7338C1.78711 14.7338 1.75781 13.5131 1.75781 12.019V9.29435L8.37891 5.78849C12.0117 3.86466 15.2344 2.15567 15.5273 2.00919C15.9961 1.76505 16.1523 1.73575 16.7578 1.76505C17.3242 1.79435 17.5391 1.85294 17.9297 2.08732ZM13.2812 12.9662C13.2812 15.2025 13.2812 15.2123 13.0469 15.4858C12.8125 15.7592 12.8027 15.7592 11.6699 15.7592C10.5371 15.7592 10.5273 15.7592 10.293 15.4858C10.0684 15.2221 10.0586 15.1537 10.0586 13.8256V12.4389L11.6504 11.5893C12.5195 11.1205 13.2422 10.7397 13.2617 10.7397C13.2715 10.7299 13.2812 11.7358 13.2812 12.9662ZM26.709 27.019C27.1973 27.1264 29.082 27.6147 30.9082 28.1029C33.4961 28.7963 34.4238 29.0893 35.1172 29.4311C36.543 30.1342 36.8945 30.515 39.6875 34.558C41.582 37.2924 42.2656 38.2104 42.6367 38.4936C43.2227 38.9428 45.8984 40.7592 47.1484 41.5404C48.0664 42.1166 48.2422 42.2924 48.2422 42.6537C48.2422 42.9076 48.2129 42.9076 47.3438 42.6635C46.4062 42.4096 46.2305 42.4193 45.8887 42.7514C45.3125 43.3275 45.625 44.0209 46.5625 44.2846C47.8418 44.6361 47.7832 44.5971 47.7051 44.9877C47.5977 45.5443 47.3047 46.0424 46.9434 46.267C46.3281 46.6479 46.0449 46.6381 44.5801 46.2182L44.082 46.0815L43.9844 45.3197C43.7793 43.8549 42.9297 42.6635 41.6309 42.0483C41.0059 41.7553 40.9082 41.7358 39.8438 41.7358C38.8184 41.7358 38.6719 41.7553 38.1445 42.0092C37.2656 42.4193 36.5332 43.0932 36.0938 43.9037C36.084 43.9037 32.8516 43.0443 28.9062 41.9897L21.7285 40.0561L21.6504 39.3822C21.5527 38.5033 21.1426 37.6342 20.5176 36.9701C18.7109 35.0561 15.625 35.2611 14.1016 37.3998C13.9062 37.6635 13.6914 37.8783 13.623 37.8783C13.4277 37.8783 12.9004 37.4096 12.7441 37.0873C12.5 36.6186 12.5781 36.0815 13.2812 33.4545C14.0527 30.5932 14.3066 30.017 15.1562 29.1674C15.918 28.4057 16.7578 28.0346 18.7988 27.5365C20.2246 27.1947 20.8984 27.0678 22.7051 26.8041C23.3789 26.7065 25.8594 26.8432 26.709 27.019ZM18.5254 37.6733C19.375 38.1127 19.8633 38.894 19.8633 39.8315C19.8633 40.7983 19.4141 41.5307 18.5156 42.0092C17.959 42.2924 16.9922 42.2924 16.4453 42.0092C15.8789 41.7065 15.3711 41.101 15.1953 40.5053C15 39.8705 15 39.7924 15.1855 39.1772C15.6055 37.7611 17.2559 37.019 18.5254 37.6733ZM40.9277 43.7182C42.6855 44.6361 42.6855 47.0385 40.9277 47.9565C39.1797 48.8744 37.0801 47.3217 37.4805 45.4174C37.8125 43.8158 39.5215 42.976 40.9277 43.7182Z" fill="#44B64B"/>
<path d="M22.4121 28.3764C21.709 28.4643 19.8828 28.8354 18.7988 29.099C16.7871 29.5971 15.8203 30.2221 15.8203 31.0326C15.8203 31.6479 16.0156 31.7943 17.3828 32.1654C24.4824 34.099 38.3008 37.7807 38.4668 37.7807C38.5938 37.7807 38.8184 37.6537 38.9746 37.4975C39.4922 36.9799 39.4336 36.8432 37.6758 34.2943C35.957 31.8139 35.4297 31.2377 34.4434 30.7592C33.7402 30.4174 26.9531 28.5717 25.8203 28.4154C25.127 28.3178 23.0566 28.2885 22.4121 28.3764ZM25.8398 30.2123C26.3086 30.3002 26.7188 30.3881 26.748 30.4076C26.7969 30.4662 26.2695 32.5268 26.1816 32.6244C26.1328 32.683 19.4824 30.9252 19.375 30.8275C19.3164 30.769 21.0254 30.3881 22.1191 30.2221C23.3105 30.0365 24.7949 30.0365 25.8398 30.2123ZM31.0742 31.5697C33.5254 32.2436 33.7891 32.3412 34.3262 32.81C34.6973 33.142 36.1816 35.2221 36.1035 35.3002C36.0645 35.349 28.0273 33.2201 27.9492 33.142C27.9297 33.1322 27.9883 32.8686 28.0664 32.5658C28.1543 32.2631 28.291 31.7748 28.3691 31.4818C28.457 31.1889 28.5742 30.9447 28.6426 30.9447C28.7109 30.9447 29.8047 31.2279 31.0742 31.5697Z" fill="#44B64B"/>
<path d="M26.3086 36.433C26.0742 36.5404 25.8789 36.9018 25.8789 37.1947C25.8789 37.5756 26.1035 37.8686 26.5039 38.015C27.5 38.3764 29.9219 38.9623 30.1758 38.9037C30.5371 38.8256 30.7617 38.5619 30.8301 38.1518C30.8691 37.8686 30.8301 37.7611 30.6055 37.5072C30.3613 37.2533 30.0879 37.1557 28.6133 36.765C26.8262 36.2963 26.6406 36.267 26.3086 36.433Z" fill="#44B64B"/>
<path d="M16.8848 39.2358C16.6895 39.4311 16.6016 39.6166 16.6016 39.8315C16.6016 40.2123 17.0605 40.7104 17.4219 40.7104C18.2715 40.7104 18.6621 39.8217 18.0762 39.2358C17.6855 38.8549 17.2754 38.8549 16.8848 39.2358Z" fill="#44B64B"/>
<path d="M39.209 45.2514C38.7695 45.6811 38.9258 46.3842 39.5117 46.6283C39.7949 46.7455 39.8926 46.7455 40.1758 46.6283C41.084 46.2475 40.8301 45.0072 39.8438 45.0072C39.5508 45.0072 39.3848 45.0658 39.209 45.2514Z" fill="#44B64B"/>
</g>
<defs>
<clipPath id="clip0_33_6234">
<rect width="60" height="60" fill="white"/>
</clipPath>
</defs>
</svg>
