<svg width="60" height="60" viewBox="0 0 60 60" fill="none" xmlns="http://www.w3.org/2000/svg">
<g clip-path="url(#clip0_56_22878)">
<path d="M27.0879 11.3228C20.2559 12.026 13.9863 14.9322 9.11133 19.6783C7.36524 21.3775 6.08789 22.9244 4.79883 24.8932C1.92773 29.276 0.251953 34.4205 0.0527344 39.4361L-0.0175781 41.1939L0.849609 42.0611L11.2324 42.0846L21.6152 42.1197L21.8262 42.7291C22.3535 44.2877 23.3613 45.7525 24.709 46.8892C25.4473 47.5103 27.1582 48.4127 28.0488 48.6471C28.5527 48.776 28.6348 48.7642 28.9277 48.5416C29.3145 48.2603 29.4434 47.7447 29.2324 47.3111C29.127 47.0767 28.8926 46.9361 28.3418 46.7603C26.1387 46.0221 24.252 44.1236 23.5606 41.9439C23.2324 40.9127 23.1504 39.3072 23.3731 38.2408C23.8652 35.9322 25.4004 33.9869 27.4981 33.0377C27.8848 32.8619 30.9434 31.8658 34.2949 30.8346C37.6465 29.7916 40.7051 28.8541 41.1035 28.7252L41.8184 28.5025L41.5957 29.2174C41.4668 29.6158 40.5293 32.6744 39.4863 36.026C38.4551 39.3775 37.459 42.4478 37.2715 42.858C36.4512 44.6861 34.6582 46.233 32.6777 46.8072C31.9277 47.0182 31.6582 47.3111 31.6582 47.8853C31.6582 48.3424 32.0449 48.7408 32.4785 48.7408C32.9824 48.7408 34.002 48.401 34.9395 47.9088C36.9902 46.8541 38.4668 45.1314 39.334 42.8346L39.6035 42.1197L49.4004 42.0846L59.1856 42.0611L59.6074 41.651L60.0176 41.2291V40.0689C60.0176 37.9244 59.5371 34.9947 58.7637 32.4517C57.3691 27.8463 54.9785 23.8267 51.5215 20.276C47.9121 16.5728 43.6231 13.9478 38.7598 12.483C37.2129 12.0025 34.8574 11.5338 33.2754 11.358C32.2207 11.2525 28.0371 11.2174 27.0879 11.3228ZM29.0801 19.0689L28.8223 19.1392C28.6699 19.1744 28.3418 19.2096 28.084 19.2096C27.4277 19.2096 25.166 19.608 24.0762 19.9244C21.0059 20.7799 18.0879 22.315 15.8262 24.2603C15.4629 24.5767 15.1113 24.8346 15.0645 24.8346C15.0059 24.8346 14.0215 23.8971 12.873 22.7486L10.7988 20.6744L11.7129 19.901C15.8145 16.4205 20.5254 14.2291 25.6231 13.4205C26.9356 13.2096 27.4277 13.1627 28.4121 13.1392L29.0801 13.1158V19.0689ZM34.6465 13.4791C39.709 14.3228 44.2676 16.4322 48.2168 19.7838L49.2481 20.6627L47.1621 22.7486C46.0137 23.8971 45.0293 24.8346 44.9707 24.8346C44.9238 24.8346 44.5723 24.5767 44.209 24.2603C41.0918 21.5767 36.4746 19.608 32.5137 19.2682C32.0801 19.233 31.541 19.1744 31.3418 19.1392L30.9551 19.0806V13.0806L32.1035 13.1627C32.7246 13.2096 33.8731 13.3502 34.6465 13.4791ZM33.0059 21.2135C38.7246 22.0689 43.916 25.4439 47.0801 30.3541C48.6504 32.8033 49.8457 36.1666 50.1152 38.8971C50.1504 39.3189 50.209 39.776 50.2441 39.9166L50.291 40.1861H45.252C40.4941 40.1861 40.2012 40.1744 40.2598 39.9752C40.2949 39.8697 41.0918 37.2682 42.041 34.2096C43.1426 30.6471 43.7637 28.4674 43.752 28.151C43.7402 27.2252 43.0723 26.5455 42.1582 26.5572C41.3848 26.5572 27.7207 30.8228 26.4434 31.4557C23.4668 32.9322 21.5918 35.7564 21.3809 39.0963L21.3106 40.1861H9.74414L9.79102 39.9166C9.82617 39.776 9.88477 39.3189 9.91992 38.8971C10.4355 33.6822 13.4941 28.3502 17.8301 25.1158C21.1348 22.6549 24.3691 21.4361 28.6699 21.0377C29.3965 20.9674 32.0918 21.0846 33.0059 21.2135ZM13.6113 26.276C13.6113 26.3346 13.3066 26.733 12.9434 27.1549C10.377 30.1666 8.41992 34.7721 8.04492 38.6627C8.00977 39.0846 7.95117 39.6002 7.91602 39.7994L7.85742 40.1861H1.85742L1.95117 38.9791C2.33789 33.3189 4.72852 27.5533 8.56055 23.0416L9.43946 22.0103L11.5254 24.0963C12.6738 25.2447 13.6113 26.2291 13.6113 26.276ZM51.4863 23.0416C55.3066 27.5533 57.6973 33.3072 58.084 38.9791L58.1777 40.1861H52.1777L52.1191 39.7994C52.084 39.6002 52.0254 39.0846 51.9902 38.6627C51.6152 34.7721 49.6582 30.1666 47.0918 27.1549C46.7285 26.733 46.4238 26.3346 46.4238 26.276C46.4238 26.2057 50.5254 22.0221 50.5957 22.0221C50.6074 22.0221 51.0059 22.4791 51.4863 23.0416Z" fill="#44B64B"/>
<path d="M29.9355 35.3814C28.4121 35.5455 27.0762 36.5064 26.4082 37.9361C26.127 38.5221 26.0918 38.7447 26.0918 39.8346C26.0918 40.9244 26.127 41.1353 26.4082 41.7447C26.8066 42.5885 27.7441 43.526 28.6113 43.9244C29.1738 44.1939 29.4082 44.2291 30.4863 44.2291C31.5176 44.2291 31.8105 44.1822 32.291 43.9596C33.0059 43.6314 33.8379 42.9635 34.1309 42.483C34.5879 41.7213 34.2715 41.0064 33.4629 41.0064C33.123 41.0064 32.9238 41.1119 32.4082 41.5807C31.6582 42.2721 31.166 42.4596 30.252 42.3892C28.9746 42.2955 28.0254 41.3463 27.9316 40.0689C27.8496 38.8971 28.3535 37.983 29.3613 37.4674C30.3926 36.94 31.5879 37.2096 32.5371 38.1822C32.9121 38.5807 33.0762 38.6627 33.4277 38.6627C33.9551 38.6627 34.3535 38.2408 34.3535 37.69C34.3535 37.3971 34.2129 37.1861 33.6738 36.6588C32.8418 35.8619 32.2676 35.5689 30.9551 35.3346C30.8613 35.3111 30.4043 35.3346 29.9355 35.3814Z" fill="#44B64B"/>
</g>
<defs>
<clipPath id="clip0_56_22878">
<rect width="60" height="60" fill="white"/>
</clipPath>
</defs>
</svg>
