<svg width="60" height="60" viewBox="0 0 60 60" fill="none" xmlns="http://www.w3.org/2000/svg">
<g clip-path="url(#clip0_33_6232)">
<path d="M17.5331 3.76953C11.5272 6.33789 8.67567 7.60742 8.52918 7.77344L8.30457 8.01758V16.0742L7.76746 16.2988C7.40614 16.4551 7.0741 16.6992 6.70301 17.0898C5.90223 17.959 5.83387 18.2227 5.78504 20.6738C5.74598 23.0371 5.81434 23.3594 6.5077 23.8867L6.86903 24.1699L8.96864 24.1992C11.371 24.2383 11.7225 24.1699 12.1913 23.5547L12.455 23.2129V18.3105L12.162 17.793C11.8104 17.1484 11.078 16.4746 10.5018 16.25L10.0624 16.084V9.6875L11.6639 10.3711L13.2753 11.0645L13.3339 17.4316L13.5878 17.9687C14.1932 19.248 15.5702 20.4492 17.5331 21.3965C20.2675 22.7246 23.1776 23.3398 26.6639 23.3398C29.2811 23.3398 31.4198 23.0176 33.705 22.2656C36.6054 21.3184 38.8612 19.7461 39.662 18.1055L39.994 17.4316L40.0526 11.0645L42.3964 10.0586C43.8417 9.44336 44.7889 8.98437 44.8768 8.85742C45.1014 8.53516 45.0624 7.97851 44.8085 7.73437C44.4569 7.41211 27.0741 0 26.6639 0C26.4393 0.00976562 23.4022 1.25977 17.5331 3.76953ZM34.3397 5.09766L41.8983 8.33984L34.2909 11.5918L26.6835 14.8535L13.5389 9.22851L27.1718 9.13086L27.3573 8.89648C27.621 8.57422 27.5917 8.07617 27.3085 7.74414L27.0741 7.4707L13.6757 7.37305L20.0917 4.61914C23.6268 3.10547 26.5761 1.86523 26.6444 1.85547C26.7225 1.85547 30.1796 3.31055 34.3397 5.09766ZM21.3905 14.541C24.1542 15.7324 26.5272 16.6992 26.6639 16.6992C26.8007 16.6992 29.4569 15.6055 32.5722 14.2676L38.2362 11.8457L38.2655 14.248C38.285 15.7227 38.2557 16.7871 38.1972 17.002C37.66 18.8477 33.6073 20.8789 29.369 21.4355C28.0507 21.6016 25.5311 21.6309 24.3202 21.4844C20.0819 20.9668 16.1659 19.1504 15.2479 17.2656C15.0526 16.8555 15.0429 16.6797 15.0429 14.3262V11.8262L15.7069 12.1094C16.0682 12.2559 18.6268 13.3594 21.3905 14.541ZM9.9745 17.998C10.1503 18.1152 10.4042 18.3691 10.5214 18.5449C10.7362 18.8574 10.746 18.9648 10.746 20.6641V22.4609H7.50379L7.54285 20.6738C7.57215 19.1016 7.59168 18.8574 7.76746 18.5742C8.21668 17.8223 9.30067 17.5391 9.9745 17.998Z" fill="#44B64B"/>
<path d="M3.97799 0.79099C3.72409 0.937474 3.54831 1.41599 3.59713 1.76755C3.6362 2.00193 3.78268 2.17771 4.29049 2.5488C5.28659 3.29099 5.68698 3.45701 6.1069 3.32029C6.32174 3.25193 6.50729 3.09568 6.59518 2.92966C6.90768 2.33396 6.7319 2.03122 5.69674 1.3281C4.83737 0.742162 4.31979 0.576146 3.97799 0.79099Z" fill="#44B64B"/>
<path d="M45.101 0.820286C44.9546 0.898411 44.5249 1.17185 44.1538 1.42576C43.2749 2.04099 43.1186 2.35349 43.4116 2.92966C43.5874 3.27146 44.1049 3.46677 44.476 3.32029C44.7885 3.2031 46.1069 2.32419 46.2534 2.13865C46.5757 1.72849 46.3999 0.957005 45.9507 0.781224C45.6089 0.654271 45.4135 0.664036 45.101 0.820286Z" fill="#44B64B"/>
<path d="M0.374478 9.53122C-0.0942715 9.77536 -0.133334 10.6347 0.296353 10.9472C0.589322 11.1621 2.3862 11.5527 2.67917 11.4648C3.06003 11.3476 3.3237 11.0254 3.3237 10.6738C3.3237 9.98044 3.13815 9.84372 1.80026 9.57028C0.696744 9.34567 0.716275 9.34567 0.374478 9.53122Z" fill="#44B64B"/>
<path d="M48.6357 9.47258C48.4502 9.51164 48.0303 9.59953 47.7178 9.66789C46.9854 9.81438 46.6826 10.0976 46.6826 10.6249C46.6826 11.0155 46.917 11.3183 47.3076 11.4648C47.415 11.5038 47.9619 11.4355 48.5283 11.3183C49.749 11.0741 50.0029 10.9081 50.0029 10.332C50.0029 9.82414 49.876 9.6093 49.5049 9.48235C49.1533 9.36516 49.1143 9.36516 48.6357 9.47258Z" fill="#44B64B"/>
<path d="M1.13574 18.75C0.24707 18.9453 0.00292968 19.1503 0.00292968 19.7167C0.00292968 20.1855 0.227539 20.4882 0.618164 20.5566C0.793945 20.5859 1.37012 20.5273 1.90723 20.4101C3.06934 20.166 3.32324 19.9902 3.32324 19.3847C3.32324 18.5546 2.7373 18.3886 1.13574 18.75Z" fill="#44B64B"/>
<path d="M46.8886 18.8085C46.6151 19.1503 46.6249 19.6484 46.9081 19.9609C47.0741 20.1659 47.3183 20.2538 48.0995 20.4101C49.1835 20.6347 49.6327 20.6054 49.8573 20.2831C50.0722 19.9706 50.0526 19.3066 49.8085 19.0917C49.5839 18.8866 48.2069 18.5644 47.5429 18.5546C47.162 18.5546 47.0546 18.6034 46.8886 18.8085Z" fill="#44B64B"/>
<path d="M37.7182 25.6445C37.3862 25.8105 36.9467 26.1816 36.4487 26.7187L35.687 27.539L35.3745 27.0996C34.7788 26.2597 33.9878 25.8593 32.894 25.8593C32.0346 25.8593 31.3901 26.123 30.8139 26.6992C30.0229 27.4902 29.9839 27.6758 29.9839 30.8593V33.5644L29.0268 34.4922C27.7378 35.7422 27.7378 35.7422 24.8667 35.7422H22.6108L22.0249 35.4687C21.5073 35.2148 21.0776 34.8144 18.2846 31.8554C16.3901 29.8633 14.9936 28.4765 14.8178 28.3984C14.3882 28.2226 13.5971 28.2519 13.2065 28.457C12.7964 28.6718 12.0932 29.6191 11.81 30.3515C11.6245 30.8105 11.5854 31.1035 11.5757 32.041C11.5757 33.1445 11.5854 33.1738 11.937 33.8965C12.2299 34.4531 12.6108 34.9414 13.6753 36.084C14.4272 36.8847 15.1108 37.6758 15.1987 37.8222C15.3842 38.1738 15.3159 38.3984 14.8276 38.9258L14.4467 39.3457L14.0366 39.1504C13.519 38.916 13.0503 38.916 12.5522 39.1504C11.9467 39.4336 4.93503 45.8105 4.68112 46.3086C4.04635 47.5586 4.53463 49.1113 5.75534 49.7363L6.29245 50H12.5913C18.353 49.9902 18.9292 49.9804 19.271 49.8242C19.4663 49.7363 20.0815 49.2676 20.6284 48.7793C21.976 47.5781 22.2299 46.9726 21.771 46.0156L21.5561 45.5859L21.9858 45.1465C22.8256 44.2871 22.8061 44.2968 24.6616 44.2285C26.9077 44.1406 28.06 43.8574 29.4077 43.0566C30.56 42.3828 31.185 41.7383 32.8745 39.5019C34.8374 36.9043 35.1499 36.5332 38.1284 33.3593C39.5835 31.8066 40.8725 30.3906 40.9995 30.2051C41.771 29.0722 41.6928 27.373 40.8237 26.2695C40.1206 25.3906 38.7729 25.1172 37.7182 25.6445ZM39.271 27.2461C39.7397 27.5 39.9253 28.5644 39.5932 29.082C39.437 29.3261 35.9409 33.1054 35.8725 33.1054C35.853 33.1054 35.8432 32.3926 35.8432 31.5136L35.853 29.9316L37.1909 28.5351C38.5971 27.0898 38.7631 26.9824 39.271 27.2461ZM33.3432 27.6758C33.519 27.7441 33.7534 27.9297 33.8706 28.0761C34.0854 28.3398 34.0854 28.4082 34.0854 31.6308V34.9218L33.8217 35.3222C33.6655 35.5468 33.2163 36.1426 32.8061 36.6406C32.396 37.1484 31.6733 38.0859 31.2046 38.7207C30.1889 40.1074 29.8764 40.4687 29.1635 41.0547C27.9428 42.041 26.8198 42.3828 24.3686 42.4707C22.2592 42.5586 22.0249 42.6367 20.9018 43.7207L20.1596 44.4238L15.7456 40.5566L16.1167 40.1855C16.3217 39.9902 16.6147 39.5996 16.7612 39.3164C16.9858 38.9062 17.0346 38.7011 17.0346 38.1347C17.0346 37.1875 16.8589 36.8945 15.1596 35.0488C14.3198 34.1308 13.6362 33.3008 13.5092 33.0273C13.2553 32.4902 13.226 31.875 13.4214 31.2109C13.5483 30.7812 13.9487 30.0781 14.0659 30.0781C14.0952 30.0781 15.5112 31.5527 17.2202 33.3496C20.2964 36.5918 20.3256 36.6211 21.1655 37.0312L22.0053 37.4511L24.5835 37.4804C26.185 37.5 27.3471 37.4707 27.6499 37.4121C28.6167 37.207 29.1928 36.8359 30.3549 35.7031C30.9702 35.1074 31.5171 34.5312 31.5757 34.4238C31.6538 34.2968 31.7124 33.2324 31.7417 31.2402C31.7905 28.4179 31.8003 28.2324 31.9858 28.0273C32.1811 27.8027 32.6596 27.5488 32.894 27.539C32.9624 27.539 33.1577 27.5976 33.3432 27.6758ZM16.7417 43.7988C18.5971 45.4101 20.101 46.7578 20.0913 46.7968C20.0815 46.8359 19.7299 47.1777 19.3003 47.5586L18.5288 48.2422H6.63424L6.39987 47.998C6.04831 47.6562 6.08737 47.3242 6.52682 46.875C7.17135 46.2011 13.226 40.8203 13.3042 40.8398C13.3432 40.8593 14.896 42.1875 16.7417 43.7988Z" fill="#44B64B"/>
<path d="M4.58376 27.2461C3.69508 27.8515 3.49001 28.1347 3.58766 28.6523C3.65602 28.9941 4.05641 29.2968 4.42751 29.2968C4.84743 29.2968 6.48805 28.2129 6.6443 27.832C6.87868 27.2656 6.45876 26.6601 5.82399 26.6699C5.50172 26.6699 5.25758 26.7871 4.58376 27.2461Z" fill="#44B64B"/>
<path d="M43.519 26.9629C43.021 27.5488 43.2163 27.9297 44.3979 28.7109C45.3159 29.3261 45.6772 29.4238 46.0678 29.1504C46.351 28.9551 46.478 28.5351 46.3706 28.1543C46.3022 27.9004 46.1167 27.7148 45.4135 27.2461C44.3491 26.5332 43.9292 26.4648 43.519 26.9629Z" fill="#44B64B"/>
</g>
<defs>
<clipPath id="clip0_33_6232">
<rect width="60" height="60" fill="white"/>
</clipPath>
</defs>
</svg>
