<svg width="196" height="80" viewBox="0 0 196 80" fill="none" xmlns="http://www.w3.org/2000/svg">
<path fill-rule="evenodd" clip-rule="evenodd" d="M65 5H135V75H65V5Z" fill="#B4B7CF"/>
<path fill-rule="evenodd" clip-rule="evenodd" d="M81.9855 62.8147H83.71L82.4397 53.8364H81.1689L79.1723 59.5758L76.9945 53.8364H75.8145L74.3629 62.8147H76.087L76.8132 57.3542H76.9041L78.7185 63H79.3539L81.2597 57.3542H81.3505L81.9855 62.8147ZM88.9731 55.5022V54.0217H84.5267V62.8147H88.9731V61.3342H86.1599V58.9273H88.8823V57.4468H86.1599V55.5022H88.9731ZM91.7864 54.0217H90.1527V62.8147H94.2367V61.3342H91.7864V54.0217ZM96.4145 54.0217H94.7808V62.8147H98.8648V61.3342H96.4145V54.0217ZM103.856 55.5022V54.0217H99.4094V62.8147H103.856V61.3342H101.043V58.9273H103.765V57.4468H101.043V55.5022H103.856ZM107.849 55.5022H109.573V54.0217H104.4V55.5022H106.125V62.8147H107.849V55.5022ZM78.1744 35.141H76.4503V40.6946C76.4503 41.25 76.5412 42.6383 75.7241 42.6383C75.452 42.6383 75.18 42.3604 75.0891 42.0829L74 43.379C74.4537 43.8409 75.0891 44.2114 75.7241 44.2114C76.4503 44.2114 77.1761 43.8409 77.6303 43.1937C78.0836 42.453 78.1744 41.805 78.1744 40.9725V35.141ZM84.0729 42.0824L84.7987 43.9335H86.6136L83.3471 34.863H81.9859L78.6286 43.9331H80.4435L81.0785 42.082L84.0729 42.0824ZM83.6192 40.6946H81.6226L82.5301 37.4548L83.6192 40.6946ZM92.8755 35.4184C92.3309 35.0483 91.6959 34.863 90.9697 34.863C88.429 34.863 86.7045 37.0842 86.7045 39.5833C86.7045 41.9898 88.5194 44.211 90.9697 44.211C91.6959 44.211 92.3309 43.9331 92.8755 43.6556V41.6192C92.4217 42.1747 91.6959 42.5452 90.9697 42.5452C89.4269 42.5452 88.5194 41.0647 88.5194 39.5833C88.5194 38.0098 89.4269 36.5293 91.0601 36.5293C91.6955 36.5293 92.4213 36.8994 92.8751 37.4548L92.8755 35.4184ZM97.9574 44.211C100.499 44.211 102.223 42.082 102.223 39.4907C102.223 37.0842 100.499 34.863 97.9574 34.863C95.4166 34.863 93.6925 37.0842 93.6925 39.4907C93.6921 42.0824 95.4162 44.211 97.9574 44.211ZM97.9574 36.6219C99.4094 36.6219 100.499 38.0102 100.499 39.4911C100.499 40.7872 99.4094 42.453 97.9574 42.453C96.5053 42.453 95.4166 40.7872 95.4166 39.4911C95.4162 38.0102 96.5053 36.6219 97.9574 36.6219ZM104.764 40.1387H105.036C105.943 40.1387 106.851 40.1387 106.851 41.3418C106.851 42.453 106.034 42.5456 105.127 42.5456H104.764V40.1387ZM103.13 43.9335H105.762C107.304 43.9335 108.484 43.1937 108.484 41.4344C108.484 40.5093 108.031 39.3985 107.033 39.2136C107.577 38.8431 107.758 38.1955 107.758 37.5474C107.758 35.789 106.76 35.141 105.217 35.141H103.13V43.9335ZM104.764 36.5293H105.036C105.671 36.5293 106.216 36.7145 106.216 37.6401C106.216 38.5656 105.852 38.8431 104.945 38.8431H104.764V36.5293ZM114.292 35.8812C113.838 35.3258 112.749 34.863 111.932 34.863C110.481 34.863 109.482 36.0665 109.482 37.547C109.482 38.9353 110.299 39.4907 111.388 39.9535C112.023 40.2314 112.84 40.5089 112.84 41.3413C112.84 42.082 112.477 42.6374 111.751 42.6374C111.025 42.6374 110.39 42.082 110.208 41.3413L109.119 42.4526C109.754 43.4703 110.571 44.211 111.751 44.211C113.565 44.211 114.564 42.9153 114.564 41.1573C114.564 38.195 111.207 38.8431 111.207 37.3621C111.209 37.0929 111.315 36.8352 111.501 36.6447C111.688 36.4543 111.941 36.3462 112.205 36.344C112.84 36.344 113.203 36.6219 113.565 37.0847L114.292 35.8812ZM76.5407 22.1831H76.8132C77.7207 22.1831 78.6281 22.2753 78.6281 23.3861C78.6281 24.4969 77.8111 24.5895 76.9041 24.5895H76.5407V22.1831ZM74.907 25.9778H77.5386C79.0814 25.9778 80.261 25.2376 80.261 23.4787C80.261 22.5536 79.8072 21.535 78.809 21.3502C79.3535 20.98 79.5352 20.2394 79.5352 19.5918C79.5352 17.8333 78.5369 17.1853 76.994 17.1853H74.907V25.9778ZM76.5407 18.5736H76.8132C77.4482 18.5736 77.9927 18.8515 77.9927 19.6844C77.9927 20.6099 77.6299 20.8878 76.7224 20.8878H76.5407V18.5736ZM85.9783 24.1268L86.7045 25.9778H88.4286L85.1616 17H83.8913L80.5335 25.9778H82.2576L82.9834 24.1268H85.9783ZM85.5245 22.7385H83.5279L84.4354 19.5918L85.5245 22.7385ZM92.4217 22.2757C93.6017 22.0909 94.2367 20.98 94.2367 19.8692C94.2367 18.0182 93.0567 17.1853 91.3326 17.1853H89.064V25.9778H90.6977V22.461H90.7881L92.8755 25.9778H94.8721L92.4217 22.2757ZM90.6977 18.5736H90.9697C91.8772 18.5736 92.5126 18.8515 92.5126 19.8692C92.5126 20.98 91.8772 21.2575 90.9697 21.2575H90.6977V18.5736ZM95.507 25.9778H97.1407V20.0545L101.768 26.1631H102.949V17.1853H101.225V23.1086L96.687 17H95.507V25.9778ZM109.029 24.1268L109.664 25.9778H111.478L108.212 17H106.851L103.493 25.9778H105.308L106.034 24.1268H109.029ZM108.484 22.7385H106.487L107.394 19.5918H107.485L108.484 22.7385ZM115.38 22.2757C116.561 22.0909 117.196 20.98 117.196 19.8692C117.196 18.0182 116.016 17.1853 114.292 17.1853H112.023V25.9778H113.747V22.461L115.835 25.9778H117.831L115.38 22.2757ZM113.747 18.5736H113.929C114.837 18.5736 115.471 18.8515 115.471 19.8692C115.471 20.98 114.837 21.2575 113.929 21.2575H113.747V18.5736ZM118.466 25.9778H120.826C123.276 25.9778 125 24.1268 125 21.6277C125 19.129 123.367 17.1853 120.826 17.1853H118.466V25.9778ZM120.1 18.6662H120.372C122.369 18.6662 123.277 19.6844 123.277 21.6281C123.277 23.3865 122.46 24.4973 120.372 24.4973H120.1V18.6662Z" fill="white"/>
</svg>
