<svg xmlns="http://www.w3.org/2000/svg" width="195" height="50" viewBox="0 0 195 50" fill="none">
    <g clip-path="url(#clip0_56_16260)">
        <path d="M69.4208 17.2877C69.8446 18.1924 70.4121 18.9156 71.1232 19.4586C71.8343 20.0017 72.6202 20.4145 73.4819 20.6993C74.3436 20.9831 75.2439 21.1261 76.1827 21.1261C77.6178 21.1261 78.9431 20.8354 80.1563 20.254V17.4052C79.3214 18.1552 78.1467 18.5296 76.6322 18.5296C76.0192 18.5296 75.4284 18.4424 74.8609 18.268C74.2934 18.0935 73.7773 17.8389 73.3149 17.5028C72.8514 17.1668 72.4835 16.7179 72.2091 16.1563C71.9347 15.5947 71.7981 14.9517 71.7981 14.2284C71.7981 12.704 72.271 11.5505 73.2168 10.7691C74.1626 9.98772 75.3011 9.59702 76.6322 9.59702C77.9891 9.59702 79.131 9.95283 80.0582 10.6633V7.88772C78.8835 7.30632 77.5781 7.01562 76.143 7.01562C75.203 7.01562 74.3028 7.16097 73.4422 7.45167C72.5805 7.74237 71.8004 8.1726 71.1034 8.74004C70.4051 9.30865 69.8434 10.068 69.4196 11.0168C68.9957 11.9668 68.7832 13.0354 68.7832 14.2238C68.7844 15.3621 68.9969 16.3831 69.4208 17.2877Z" fill="#2F3579"/>
        <path d="M101.918 13.8569C101.918 13.172 101.898 12.5522 101.86 11.9964L108.241 20.8534H111.001V7.28711H108.065V14.2836C108.065 14.9685 108.084 15.5883 108.123 16.1441L101.742 7.28711H98.9824V20.8534H101.919V13.8569H101.918Z" fill="#2F3579"/>
        <path d="M114.28 12.8296C114.653 13.3854 115.115 13.8086 115.67 14.0993C116.224 14.39 116.824 14.661 117.47 14.9133C118.116 15.1656 118.716 15.3784 119.271 15.5528C119.825 15.7273 120.289 15.9598 120.66 16.2505C121.033 16.5412 121.218 16.8807 121.218 17.268C121.218 18.1342 120.364 18.5668 118.654 18.5668C116.879 18.5668 115.261 18.0889 113.799 17.1331V19.904C115.274 20.7179 116.963 21.1249 118.869 21.1249C119.626 21.1249 120.311 21.0575 120.924 20.9214C121.537 20.7854 122.099 20.5691 122.608 20.2726C123.117 19.9761 123.512 19.5621 123.792 19.0319C124.072 18.5028 124.212 17.8691 124.212 17.1331C124.212 16.3842 124.027 15.7249 123.654 15.1563C123.282 14.5877 122.819 14.1586 122.265 13.8679C121.71 13.5773 121.11 13.3063 120.464 13.054C119.818 12.8017 119.218 12.5959 118.663 12.4342C118.109 12.2726 117.645 12.0563 117.274 11.7854C116.901 11.5145 116.716 11.197 116.716 10.8354C116.716 10.0214 117.46 9.60167 118.947 9.57609C120.604 9.55051 122.013 9.95051 123.175 10.7773V8.06214C121.935 7.36446 120.455 7.01562 118.732 7.01562C117.296 7.01562 116.103 7.34469 115.15 8.004C114.197 8.6633 113.721 9.61911 113.721 10.8726C113.722 11.6214 113.908 12.2738 114.28 12.8296Z" fill="#2F3579"/>
        <path d="M135.548 15.6011C135.548 17.5394 134.517 18.508 132.455 18.508C130.406 18.508 129.382 17.5394 129.382 15.6011V7.28711H126.445V15.7569C126.445 16.5325 126.556 17.2301 126.778 17.8499C127 18.4697 127.3 18.9801 127.678 19.3813C128.057 19.7825 128.507 20.1173 129.029 20.3894C129.551 20.6604 130.097 20.8511 130.664 20.9615C131.232 21.0708 131.828 21.1266 132.455 21.1266C133.081 21.1266 133.679 21.072 134.246 20.9615C134.814 20.8522 135.359 20.6615 135.881 20.3894C136.403 20.1185 136.853 19.7825 137.232 19.3813C137.611 18.9813 137.911 18.4708 138.132 17.8499C138.354 17.2301 138.465 16.5325 138.465 15.7569V7.28711H135.548V15.6011Z" fill="#2F3579"/>
        <path d="M149.074 14.3418L144.377 7.28711H141.656V20.8534H144.593V12.4813L148.214 17.9464H149.916L153.537 12.5011V20.8546H156.474V7.28711H153.753L149.074 14.3418Z" fill="#2F3579"/>
        <path d="M159.804 20.8534H169.571V18.2952H162.739V15.272H168.866V12.7336H162.739V9.84525H169.453V7.28711H159.803V20.8534H159.804Z" fill="#2F3579"/>
        <path d="M175.227 16.1046H177.38L181.079 20.8522H184.465L180.374 15.7359C182.371 15.1034 183.369 13.7592 183.369 11.7046C183.369 10.8778 183.215 10.1673 182.909 9.57316C182.602 8.97897 182.178 8.51967 181.636 8.19757C181.094 7.87432 180.52 7.64176 179.914 7.4999C179.307 7.35804 178.645 7.28711 177.927 7.28711H172.289V20.8534H175.226V16.1046H175.227ZM178.066 9.84409C178.744 9.84409 179.299 9.99874 179.729 10.3092C180.16 10.6197 180.375 11.1034 180.375 11.7627C180.375 12.4092 180.157 12.8906 179.719 13.2069C179.281 13.5232 178.73 13.6813 178.064 13.6813H175.226V9.84409H178.066Z" fill="#2F3579"/>
        <path d="M71.8584 35.5904H78.123L79.1213 38.1288H82.1549L76.5758 24.5625H73.4044L67.8066 38.1288H70.8402L71.8584 35.5904ZM74.9901 27.2567C75.0555 27.6055 75.1536 27.9613 75.2832 28.323L77.2017 33.1869H72.7774L74.676 28.323C74.808 28.0125 74.9119 27.6567 74.9901 27.2567Z" fill="#2F3579"/>
        <path d="M80.8438 27.1788H85.052V38.1288H87.9688V27.1788H92.1771V24.5625H80.8438V27.1788Z" fill="#2F3579"/>
        <path d="M92.6848 27.1788H96.893V38.1288H99.8098V27.1788H104.018V24.5625H92.6836V27.1788H92.6848Z" fill="#2F3579"/>
        <path d="M123.577 33.3799H125.73L129.429 38.1276H132.815L128.724 33.0113C130.72 32.3788 131.719 31.0346 131.719 28.9799C131.719 28.1532 131.566 27.4427 131.259 26.8485C130.951 26.2544 130.528 25.7951 129.986 25.473C129.444 25.1497 128.87 24.9171 128.264 24.7753C127.656 24.6334 126.994 24.5625 126.276 24.5625H120.639V38.1288H123.575V33.3799H123.577ZM126.415 27.1206C127.094 27.1206 127.648 27.2753 128.079 27.5858C128.51 27.8962 128.725 28.3799 128.725 29.0392C128.725 29.6858 128.506 30.1672 128.069 30.4834C127.631 30.7997 127.08 30.9578 126.414 30.9578H123.575V27.1206H126.415Z" fill="#2F3579"/>
        <path d="M137.398 31.1323C137.398 30.4474 137.378 29.8276 137.339 29.2718L143.721 38.1288H146.481V24.5625H143.544V31.559C143.544 32.2439 143.564 32.8637 143.603 33.4195L137.221 24.5625H134.461V38.1288H137.398V31.1323Z" fill="#2F3579"/>
        <path d="M149.417 38.1296H159.185V35.5714H152.353V32.5482H158.479V30.0098H152.353V27.1226H159.067V24.5645H149.416V38.1296H149.417Z" fill="#2F3579"/>
        <path d="M168.383 33.323L173.728 24.5625H170.42L166.916 30.6485L163.412 24.5625H160.104L165.467 33.323V38.1288H168.383V33.323Z" fill="#2F3579"/>
        <path d="M174.639 30.1066C175.012 30.6624 175.474 31.0856 176.029 31.3763C176.584 31.667 177.184 31.9379 177.829 32.1903C178.475 32.4426 179.075 32.6554 179.63 32.8298C180.185 33.0042 180.648 33.2368 181.019 33.5275C181.392 33.8182 181.578 34.1577 181.578 34.5449C181.578 35.4112 180.723 35.8438 179.013 35.8438C177.239 35.8438 175.62 35.3658 174.158 34.41V37.181C175.633 37.9949 177.323 38.4019 179.228 38.4019C179.985 38.4019 180.67 38.3345 181.283 38.1984C181.896 38.0624 182.458 37.8461 182.967 37.5496C183.476 37.2531 183.871 36.8391 184.151 36.3089C184.431 35.7798 184.572 35.1461 184.572 34.41C184.572 33.6612 184.386 33.0019 184.013 32.4333C183.641 31.8647 183.179 31.4356 182.624 31.1449C182.069 30.8542 181.469 30.5833 180.823 30.331C180.178 30.0786 179.577 29.8728 179.023 29.7112C178.468 29.5496 178.005 29.3333 177.633 29.0624C177.261 28.7914 177.075 28.474 177.075 28.1124C177.075 27.2984 177.819 26.8786 179.307 26.8531C180.963 26.8275 182.373 27.2275 183.535 28.0542V25.3414C182.295 24.6438 180.814 24.2949 179.092 24.2949C177.655 24.2949 176.462 24.624 175.509 25.2833C174.556 25.9426 174.08 26.8984 174.08 28.1519C174.081 28.8984 174.268 29.5507 174.639 30.1066Z" fill="#2F3579"/>
        <path fill-rule="evenodd" clip-rule="evenodd" d="M115.808 38.3748C113.818 39.912 112.041 40.6666 112.049 40.698C112.039 40.6643 110.275 39.941 108.27 38.391C105.188 36.0073 105.412 33.1782 105.412 33.1782C105.412 33.1782 105.412 26.955 105.412 24.3724C109.057 22.591 115.023 22.5934 118.664 24.3713C118.664 26.9503 118.664 33.1678 118.664 33.1678C118.664 33.1678 118.889 35.9934 115.808 38.3748ZM115.971 33.0817C115.971 33.0817 115.971 27.6573 115.971 26.1387C113.812 25.0922 110.272 25.091 108.109 26.1399C108.109 27.6596 108.109 33.0887 108.109 33.0887C108.109 33.0887 107.976 34.7538 109.805 36.1573C110.993 37.0701 112.041 37.4957 112.046 37.5155C112.041 37.4968 113.096 37.0527 114.276 36.1468C116.105 34.7445 115.971 33.0817 115.971 33.0817Z" fill="#44B64B"/>
        <path fill-rule="evenodd" clip-rule="evenodd" d="M89.7733 16.4028C86.8214 16.4028 84.4277 14.0319 84.4277 11.1086C84.4277 8.18538 86.8203 5.81445 89.7733 5.81445C92.7263 5.81445 95.1189 8.18422 95.1189 11.1086C95.1189 14.0331 92.7252 16.4028 89.7733 16.4028ZM89.7138 8.53538C88.2787 8.53538 87.1145 9.68771 87.1145 11.1098C87.1145 12.5319 88.2787 13.6842 89.7138 13.6842C91.1488 13.6842 92.313 12.5319 92.313 11.1098C92.313 9.68771 91.15 8.53538 89.7138 8.53538Z" fill="#44B64B"/>
        <path d="M95.3538 21.4287C95.1074 21.4287 94.8587 21.3612 94.6368 21.2217C93.1866 20.3066 91.5052 19.824 89.7735 19.824C88.0652 19.824 86.4025 20.2961 84.9651 21.188C84.3427 21.5752 83.5195 21.3903 83.1272 20.7775C82.7348 20.1635 82.9217 19.3531 83.544 18.9659C85.4076 17.8089 87.562 17.1973 89.7747 17.1973C92.0166 17.1973 94.1943 17.824 96.0754 19.0101C96.6954 19.4008 96.8764 20.2135 96.4794 20.824C96.2225 21.2147 95.7928 21.4287 95.3538 21.4287Z" fill="#44B64B"/>
        <path fill-rule="evenodd" clip-rule="evenodd" d="M25.2821 14.181C25.2821 11.4775 25.2821 8.96468 25.2821 7.64608C20.0918 5.06468 11.5866 5.06236 6.38929 7.6484C6.38929 11.3972 6.38929 24.781 6.38929 24.781C6.38929 24.781 6.06818 28.8868 10.4644 32.3472C13.3217 34.5972 15.8392 35.6484 15.852 35.6961C15.8404 35.6531 18.0683 34.6868 20.685 32.7263C21.7359 34.7019 23.2352 36.3996 25.0486 37.6856C24.9949 37.7286 24.9423 37.7717 24.8886 37.8147C20.1082 41.6054 15.8345 43.467 15.8567 43.5438C15.8345 43.4624 11.5924 41.6763 6.77579 37.8554C-0.635381 31.9763 -0.0947518 25.0031 -0.0947518 25.0031C-0.0947518 25.0031 -0.0947518 9.65887 -0.0947518 3.29259C8.66624 -1.09927 23.004 -1.09462 31.7521 3.2891C31.7521 5.42515 31.7521 8.57282 31.7521 11.8124C29.3713 12.0624 27.1655 12.9019 25.2821 14.181Z" fill="#2F3579"/>
        <path fill-rule="evenodd" clip-rule="evenodd" d="M33.1981 38.2861C26.3906 38.2861 20.8711 32.7617 20.8711 25.9477C20.8711 19.1338 26.3895 13.6094 33.1981 13.6094C40.0068 13.6094 45.5252 19.1338 45.5252 25.9477C45.5252 32.7617 40.0068 38.2861 33.1981 38.2861ZM33.0638 19.9489C29.7535 19.9489 27.0702 22.635 27.0702 25.9477C27.0702 29.2605 29.7535 31.9466 33.0638 31.9466C36.3742 31.9466 39.0575 29.2605 39.0575 25.9477C39.0563 22.6338 36.373 19.9489 33.0638 19.9489Z" fill="#44B64B"/>
        <path d="M46.066 49.9999C45.4985 49.9999 44.9252 49.8441 44.4114 49.5162C41.0672 47.3848 37.1894 46.258 33.1971 46.258C29.2574 46.258 25.4228 47.3569 22.1078 49.4371C20.6716 50.3383 18.773 49.9092 17.868 48.479C16.9631 47.0487 17.394 45.158 18.8302 44.2569C23.1272 41.5603 28.0956 40.1348 33.1971 40.1348C38.3664 40.1348 43.3897 41.5952 47.7252 44.3592C49.1556 45.2708 49.5725 47.1638 48.657 48.5871C48.0709 49.501 47.0783 49.9999 46.066 49.9999Z" fill="#44B64B"/>
    </g>
    <defs>
        <clipPath id="clip0_56_16260">
            <rect width="195" height="50" fill="white"/>
        </clipPath>
    </defs>
</svg>