<svg width="196" height="80" viewBox="0 0 196 80" fill="none" xmlns="http://www.w3.org/2000/svg">
<rect width="196" height="80" rx="10" fill="none"/>
<path d="M65.4751 48.2219V31.3391H70.1856C71.2642 31.3391 72.2107 31.5372 73.0691 31.8894C73.9496 32.2415 74.742 32.7698 75.3583 33.4302C75.9967 34.1125 76.5029 34.9049 76.8551 35.8514C77.2073 36.7979 77.3614 37.8325 77.3614 39.0211V40.5619C77.3614 41.7065 77.2073 42.7851 76.8551 43.7316C76.5029 44.6781 75.9746 45.4705 75.3583 46.1528C74.742 46.8352 73.9276 47.3415 73.0691 47.6937C72.1666 48.0458 71.1761 48.2439 70.0976 48.2439H65.4531V48.2219H65.4751ZM66.9059 32.5717V47.0333H70.1196C71.022 47.0333 71.8145 46.8792 72.5849 46.549C73.2892 46.2409 73.9276 45.8007 74.4558 45.2504C74.9621 44.7001 75.3583 43.9737 75.6445 43.1813C75.9306 42.3889 76.0407 41.5084 76.0407 40.5619V38.9771C76.0407 37.9866 75.8866 37.1061 75.6005 36.3137C75.3143 35.5213 74.9181 34.8389 74.4118 34.2886C73.9056 33.7383 73.3112 33.2981 72.5849 32.9899C71.8805 32.6818 71.0881 32.5057 70.2076 32.5057H66.9279V32.5717H66.9059ZM79.0783 41.7726C79.0783 40.8701 79.1883 40.0336 79.4745 39.2412C79.7606 38.4488 80.1128 37.8105 80.6191 37.2162C81.1033 36.6659 81.6976 36.2256 82.402 35.9175C83.0844 35.6093 83.8768 35.4332 84.6912 35.4332C85.5717 35.4332 86.3201 35.5873 87.0244 35.9175C87.7068 36.2256 88.3011 36.6659 88.8074 37.2162C89.2916 37.7664 89.6878 38.4488 89.908 39.2412C90.1941 40.0336 90.3042 40.8701 90.3042 41.7726V42.1688C90.3042 43.0712 90.1941 43.9077 89.908 44.7001C89.6218 45.4925 89.2696 46.1308 88.8074 46.7252C88.3231 47.2754 87.7288 47.7157 87.0244 48.0238C86.3421 48.332 85.5497 48.5081 84.7352 48.5081C83.9208 48.5081 83.1064 48.354 82.446 48.0238C81.7637 47.7157 81.1694 47.2754 80.6631 46.7252C80.1789 46.1749 79.7826 45.4925 79.5185 44.7001C79.2324 43.9077 79.1223 43.0712 79.1223 42.1688V41.7726H79.0783ZM80.465 42.1688C80.465 42.8511 80.553 43.5115 80.7512 44.1498C80.9493 44.7881 81.2354 45.2944 81.5876 45.7786C81.9398 46.2629 82.38 46.6151 82.8863 46.8792C83.3925 47.1654 84.0309 47.3195 84.7132 47.3195C85.3956 47.3195 85.9899 47.1654 86.5402 46.8792C87.0465 46.5931 87.4867 46.2409 87.8389 45.7786C88.1911 45.2944 88.4772 44.7441 88.6753 44.1498C88.8734 43.5115 88.9615 42.8731 88.9615 42.1688V41.7726C88.9615 41.0902 88.8734 40.4739 88.6753 39.8355C88.4772 39.1972 88.1911 38.6469 87.8389 38.2067C87.4867 37.7224 87.0465 37.3702 86.4962 37.0621C85.9899 36.7759 85.3516 36.6218 84.6692 36.6218C83.9868 36.6218 83.3925 36.7759 82.8863 37.0621C82.38 37.3482 81.9398 37.7444 81.5876 38.2067C81.2354 38.6909 80.9493 39.2412 80.7512 39.8355C80.553 40.4739 80.465 41.1122 80.465 41.7726V42.1688ZM100.518 46.6371C100.121 47.1874 99.6151 47.6716 98.9327 47.9798C98.2503 48.288 97.4579 48.4641 96.5114 48.4641C95.8731 48.4641 95.3228 48.376 94.8385 48.1779C94.3323 48.0238 93.892 47.7377 93.5399 47.3415C93.1877 46.9453 92.9015 46.461 92.7034 45.8667C92.5053 45.2724 92.4173 44.524 92.4173 43.6875V35.6533H93.804V43.7316C93.804 44.4139 93.892 44.9642 94.0461 45.4045C94.2002 45.8447 94.3983 46.1969 94.6845 46.483C94.9706 46.7692 95.2348 46.9673 95.5869 47.0773C95.9391 47.1874 96.2913 47.2314 96.6875 47.2314C97.2378 47.2314 97.7221 47.1434 98.1623 47.0333C98.6025 46.9232 98.9547 46.7251 99.2629 46.527C99.571 46.2849 99.8132 46.0428 100.011 45.7346C100.209 45.4265 100.363 45.0963 100.496 44.7441V35.6754H101.882V48.2439H100.54L100.518 46.6371ZM115.045 42.0807C115.045 43.0272 114.935 43.9077 114.737 44.6561C114.539 45.4485 114.231 46.1308 113.79 46.6811C113.394 47.2314 112.888 47.6716 112.294 47.9798C111.699 48.288 111.017 48.4641 110.269 48.4641C109.366 48.4641 108.574 48.31 107.891 47.9578C107.209 47.6056 106.703 47.1214 106.263 46.527L106.219 48.2219H104.942V30.3926H106.329V37.4803C106.769 36.842 107.275 36.3357 107.913 35.9835C108.552 35.6313 109.344 35.4332 110.247 35.4332C110.995 35.4332 111.721 35.5873 112.316 35.8734C112.91 36.1816 113.416 36.5778 113.813 37.1721C114.209 37.7224 114.517 38.4048 114.759 39.1972C114.957 39.9896 115.067 40.8701 115.067 41.8606V42.1027H115.045V42.0807ZM113.658 41.8386C113.658 41.1342 113.57 40.4078 113.46 39.7695C113.306 39.1312 113.108 38.5809 112.778 38.0966C112.47 37.6124 112.096 37.2602 111.633 36.996C111.171 36.7319 110.599 36.5998 109.96 36.5998C109.454 36.5998 108.97 36.6879 108.574 36.7979C108.178 36.952 107.825 37.1061 107.539 37.3482C107.253 37.5903 106.989 37.8545 106.791 38.1847C106.593 38.4928 106.439 38.823 106.307 39.1312V44.7881C106.461 45.0963 106.615 45.4265 106.857 45.7346C107.099 46.0208 107.341 46.2849 107.649 46.483C107.957 46.6811 108.288 46.8792 108.684 46.9893C109.08 47.0993 109.52 47.1874 109.982 47.1874C110.621 47.1874 111.171 47.0773 111.611 46.7912C112.096 46.505 112.448 46.1528 112.756 45.6906C113.064 45.2064 113.262 44.6561 113.438 44.0617C113.592 43.4234 113.636 42.7631 113.636 41.9927L113.658 41.8386ZM118.853 48.2219H117.466V30.3926H118.853V48.2219ZM126.975 48.4641C126.139 48.4641 125.391 48.31 124.708 47.9798C124.026 47.6496 123.432 47.2754 122.925 46.7031C122.419 46.1528 122.045 45.5145 121.781 44.7661C121.495 44.0177 121.34 43.1813 121.34 42.3008V41.7946C121.34 40.8481 121.495 39.9236 121.781 39.1752C122.067 38.3828 122.463 37.7004 122.969 37.1501C123.454 36.5998 124.048 36.1596 124.664 35.8734C125.303 35.5653 126.007 35.4332 126.733 35.4332C127.526 35.4332 128.23 35.5873 128.868 35.8734C129.507 36.1596 130.013 36.5558 130.409 37.0621C130.805 37.5683 131.158 38.1626 131.356 38.889C131.554 39.5934 131.664 40.3638 131.664 41.1782V42.0147H122.705V42.3008C122.705 42.9832 122.815 43.6435 123.013 44.2378C123.211 44.8321 123.52 45.3824 123.894 45.8227C124.29 46.2629 124.73 46.6151 125.236 46.9012C125.743 47.1874 126.337 47.2974 126.975 47.2974C127.724 47.2974 128.362 47.1874 128.956 46.9012C129.507 46.6151 130.035 46.1969 130.497 45.6026L131.378 46.2849C131.18 46.5931 130.937 46.8792 130.673 47.1654C130.387 47.4515 130.079 47.6716 129.727 47.8697C129.375 48.0678 128.934 48.2219 128.494 48.354C128.054 48.42 127.526 48.4641 126.975 48.4641ZM126.711 36.6218C126.205 36.6218 125.677 36.7319 125.236 36.93C124.796 37.1281 124.4 37.4143 124.048 37.8105C123.696 38.1627 123.41 38.6469 123.211 39.1532C122.969 39.6594 122.859 40.2538 122.771 40.8921H130.299V40.738C130.299 40.2317 130.189 39.7035 130.057 39.1972C129.903 38.7129 129.661 38.2947 129.375 37.8985C129.067 37.5023 128.692 37.2162 128.274 36.996C127.812 36.7319 127.306 36.6218 126.711 36.6218ZM146.324 42.9612C146.236 43.8416 146.037 44.59 145.729 45.2504C145.421 45.9327 145.025 46.527 144.497 46.9893C143.99 47.4735 143.352 47.8257 142.626 48.0679C141.921 48.31 141.085 48.4641 140.138 48.4641C139.192 48.4641 138.311 48.266 137.519 47.9138C136.727 47.5616 136.044 47.0333 135.494 46.373C134.944 45.6906 134.503 44.8982 134.195 43.9517C133.887 43.0052 133.755 41.9706 133.755 40.8701V38.7349C133.755 37.5903 133.909 36.5558 134.195 35.6093C134.503 34.6628 134.9 33.8704 135.494 33.188C136.044 32.5057 136.727 31.9994 137.519 31.6472C138.311 31.2951 139.214 31.097 140.204 31.097C141.107 31.097 141.899 31.207 142.626 31.4491C143.33 31.6913 143.968 32.0434 144.497 32.5277C145.003 33.012 145.399 33.6063 145.729 34.2666C146.037 34.949 146.236 35.7414 146.324 36.5998H144.893C144.805 35.9175 144.651 35.3011 144.409 34.7729C144.166 34.2226 143.902 33.7824 143.506 33.4302C143.11 33.078 142.67 32.7918 142.119 32.5937C141.569 32.3956 140.931 32.3076 140.226 32.3076C139.434 32.3076 138.73 32.4617 138.135 32.7918C137.497 33.1 136.991 33.5402 136.55 34.0905C136.11 34.6408 135.802 35.3232 135.56 36.1156C135.318 36.908 135.208 37.7885 135.208 38.7349V40.8701C135.208 41.7725 135.318 42.653 135.516 43.4454C135.714 44.2378 136.022 44.9202 136.462 45.4705C136.903 46.0208 137.409 46.505 138.003 46.8132C138.598 47.1214 139.302 47.2974 140.094 47.2974C141.591 47.2974 142.714 46.9453 143.462 46.2189C144.21 45.5145 144.695 44.4359 144.849 43.0052H146.324V42.9612ZM150.396 48.2219H149.009V30.3926H150.396V48.2219ZM153.807 32.0655C153.807 31.7793 153.896 31.5812 154.05 31.3831C154.204 31.185 154.446 31.097 154.754 31.097C155.062 31.097 155.26 31.185 155.458 31.3831C155.612 31.5812 155.745 31.7793 155.745 32.0655C155.745 32.3516 155.656 32.5497 155.458 32.7478C155.304 32.9019 155.062 33.034 154.754 33.034C154.446 33.034 154.248 32.9459 154.05 32.7478C153.874 32.5277 153.807 32.2856 153.807 32.0655ZM155.436 48.2219H154.05V35.6533H155.436V48.2219ZM163.162 47.2754C163.603 47.2754 164.043 47.1874 164.439 47.0773C164.835 46.9673 165.187 46.7692 165.518 46.527C165.826 46.2849 166.112 45.9768 166.31 45.6246C166.508 45.2724 166.618 44.8321 166.662 44.3479H168.005C167.961 44.9422 167.807 45.4925 167.565 46.0208C167.279 46.527 166.926 46.9673 166.486 47.3195C166.046 47.6716 165.54 47.9578 164.989 48.1999C164.439 48.398 163.801 48.5081 163.162 48.5081C162.282 48.5081 161.49 48.354 160.829 48.0238C160.147 47.7157 159.597 47.2754 159.156 46.6811C158.716 46.1308 158.364 45.4485 158.122 44.7001C157.88 43.9517 157.77 43.1153 157.77 42.2348V41.7505C157.77 40.8701 157.88 40.0556 158.122 39.2852C158.364 38.5368 158.672 37.8545 159.156 37.3042C159.597 36.7539 160.147 36.3137 160.829 35.9615C161.512 35.6533 162.26 35.4772 163.118 35.4772C163.801 35.4772 164.417 35.5873 164.989 35.7854C165.584 35.9835 166.068 36.2917 166.486 36.6879C166.926 37.0841 167.235 37.5683 167.521 38.1186C167.763 38.6689 167.917 39.3073 167.961 39.9896H166.618C166.574 39.4833 166.464 39.0431 166.31 38.6029C166.112 38.2067 165.87 37.8545 165.562 37.5683C165.253 37.2822 164.879 37.0621 164.461 36.886C164.065 36.7319 163.581 36.6439 163.118 36.6439C162.414 36.6439 161.776 36.7979 161.291 37.0841C160.785 37.3702 160.389 37.7664 160.059 38.1847C159.751 38.6689 159.508 39.2192 159.376 39.8135C159.222 40.4078 159.178 41.0902 159.178 41.7065V42.1908C159.178 42.8731 159.266 43.4894 159.376 44.1278C159.486 44.7661 159.729 45.2724 160.059 45.7566C160.367 46.2409 160.763 46.5931 161.291 46.8572C161.798 47.1654 162.392 47.2754 163.162 47.2754ZM173.266 41.9266L171.681 43.4674V48.266H170.294V30.4366H171.681V41.8386L172.98 40.4078L177.778 35.6974H179.517L174.212 41.0242L180.001 48.266H178.328L173.266 41.9266Z" fill="black"/>
<path d="M38.7751 25C37.4984 25 36.2878 25.1541 35.0992 25.4843C41.3945 27.1131 46.0829 32.7701 46.193 39.5056V40.0779C46.0389 44.04 42.7372 47.2096 38.7751 47.2096C37.4324 47.2096 36.1557 46.8575 35.0992 46.2191C32.876 44.9425 31.4012 42.5652 31.4012 39.7918C31.4012 37.0183 32.898 34.6851 35.0771 33.3644C33.9986 32.7261 32.7439 32.3739 31.4012 32.3739C27.3951 32.3739 24.1594 35.5435 24.0273 39.5056V40.0779C24.1374 46.8575 28.8259 52.5144 35.1212 54.0993C36.3098 54.4074 37.5424 54.5835 38.7971 54.5835C46.9634 54.5835 53.5668 47.958 53.5668 39.8138C53.5668 31.6255 46.9414 25 38.7751 25Z" fill="#369647"/>
<path d="M46.1494 39.5056C46.0393 32.726 41.3509 27.0691 35.0556 25.4843C33.867 25.1761 32.6343 25 31.3797 25C23.2134 25 16.5879 31.6255 16.5879 39.7918C16.5879 47.958 23.2134 54.5615 31.3576 54.5615C32.6343 54.5615 33.8449 54.4074 35.0336 54.0773C28.7823 52.4484 24.0938 46.8354 23.9838 40.0559V39.4836C24.1379 35.5215 27.3956 32.3518 31.3576 32.3518C32.7003 32.3518 33.977 32.704 35.0336 33.3424C37.2567 34.619 38.7095 36.9963 38.7095 39.7697C38.7095 42.5432 37.2127 44.8764 35.0336 46.1971C36.1341 46.7914 37.4108 47.1876 38.7535 47.1876C42.7596 47.1876 45.9953 44.018 46.1274 40.0559V39.7697C46.1494 39.7037 46.1494 39.5936 46.1494 39.5056Z" fill="#AEEA00"/>
<path opacity="0.15" d="M46.1494 39.5056C46.0393 32.726 41.3509 27.0691 35.0556 25.4843C33.867 25.1761 32.6343 25 31.3797 25C23.2134 25 16.5879 31.6255 16.5879 39.7918C16.5879 47.958 23.2134 54.5615 31.3576 54.5615C32.6343 54.5615 33.8449 54.4074 35.0336 54.0773C28.7823 52.4484 24.0938 46.8354 23.9838 40.0559V39.4836C24.1379 35.5215 27.3956 32.3518 31.3576 32.3518C32.7003 32.3518 33.977 32.704 35.0336 33.3424C37.2567 34.619 38.7095 36.9963 38.7095 39.7697C38.7095 42.5432 37.2127 44.8764 35.0336 46.1971C36.1341 46.7914 37.4108 47.1876 38.7535 47.1876C42.7596 47.1876 45.9953 44.018 46.1274 40.0559V39.7697C46.1494 39.7037 46.1494 39.5936 46.1494 39.5056Z" fill="url(#paint0_linear_56_16934)"/>
<path opacity="0.15" d="M38.7751 25C37.4984 25 36.2878 25.1541 35.0992 25.4843C41.3945 27.1131 46.0829 32.7701 46.193 39.5056V40.0779C46.0389 44.04 42.7372 47.2096 38.7751 47.2096C37.4324 47.2096 36.1557 46.8575 35.0992 46.2191C32.876 44.9425 31.4012 42.5652 31.4012 39.7918C31.4012 37.0183 32.898 34.6851 35.0771 33.3644C33.9986 32.7261 32.7439 32.3739 31.4012 32.3739C27.3951 32.3739 24.1594 35.5435 24.0273 39.5056V40.0779C24.1374 46.8575 28.8259 52.5144 35.1212 54.0993C36.3098 54.4074 37.5424 54.5835 38.7971 54.5835C46.9634 54.5835 53.5668 47.958 53.5668 39.8138C53.5668 31.6255 46.9414 25 38.7751 25Z" fill="url(#paint1_linear_56_16934)"/>
<path opacity="0.4" d="M35.0557 54.0986C28.8044 52.4697 24.1159 46.8568 24.0059 40.0772V40.0332V40.1433C24.0939 45.8883 26.141 50.995 29.3547 54.4508C30.037 54.5388 30.6974 54.6049 31.3797 54.6049C32.6344 54.5608 33.9111 54.4067 35.0557 54.0986Z" fill="url(#paint2_linear_56_16934)"/>
<path opacity="0.25" d="M24.0714 39.5497C25.216 35.7417 29.1781 33.5185 33.0741 34.5971C33.1842 34.6411 33.3603 34.6852 33.4703 34.7072C33.9546 34.2009 34.5049 33.7607 35.0992 33.4085C34.0206 32.7702 32.766 32.418 31.4233 32.418C27.4172 32.418 24.1815 35.5876 24.0714 39.5497L24.0494 39.7918C24.0054 39.7038 24.0274 39.6157 24.0714 39.5497Z" fill="url(#paint3_linear_56_16934)"/>
<defs>
<linearGradient id="paint0_linear_56_16934" x1="31.3685" y1="25.0854" x2="31.3685" y2="54.5533" gradientUnits="userSpaceOnUse">
<stop stop-opacity="0.6"/>
<stop offset="0.6" stop-opacity="0.1"/>
</linearGradient>
<linearGradient id="paint1_linear_56_16934" x1="38.7969" y1="54.4135" x2="38.7969" y2="24.9713" gradientUnits="userSpaceOnUse">
<stop stop-opacity="0.6"/>
<stop offset="0.6" stop-opacity="0.1"/>
</linearGradient>
<linearGradient id="paint2_linear_56_16934" x1="27.6014" y1="42.5792" x2="32.6186" y2="58.7124" gradientUnits="userSpaceOnUse">
<stop stop-opacity="0.5"/>
<stop offset="0.75" stop-opacity="0.03"/>
</linearGradient>
<linearGradient id="paint3_linear_56_16934" x1="24.6056" y1="36.1048" x2="39.104" y2="36.1048" gradientUnits="userSpaceOnUse">
<stop stop-opacity="0.9"/>
<stop offset="0.6" stop-opacity="0.1"/>
</linearGradient>
</defs>
</svg>
