<svg width="494" height="311" viewBox="0 0 494 311" fill="none" xmlns="http://www.w3.org/2000/svg">
<path d="M209.928 148.234L210.469 132.441L200.782 129.268C200.365 123.916 199.497 118.608 198.185 113.403L206.406 107.393L200.83 92.5617L190.662 93.379C188.251 88.6004 185.436 84.0366 182.248 79.7373L187.513 70.9514L176.695 59.4011L167.609 64.0525C163.523 60.5599 159.158 57.4084 154.556 54.6296L156.023 44.5336L141.6 37.9952L134.989 45.7355C129.89 44.1042 124.664 42.8982 119.365 42.1298L116.961 32.2381L101.12 31.6973L97.9948 41.3966C92.6479 41.817 87.3453 42.6813 82.1417 43.9807L76.036 35.8078L61.2045 41.3485L62.0218 51.5167C57.2458 53.9641 52.6827 56.8065 48.3802 60.0141L39.5342 54.6296L27.9358 65.4467L32.5872 74.5812C29.0937 78.6466 25.9572 83.0056 23.2124 87.6098L13.1284 86.0954L6.54196 100.518L14.3303 107.117C12.6874 112.213 11.4812 117.44 10.7246 122.741L0.712732 125.253L0.171875 141.046L9.90729 144.219C10.31 149.568 11.1746 154.873 12.4914 160.073L4.27037 166.082L9.85922 180.926L20.0273 180.108C22.432 184.89 25.247 189.455 28.4406 193.75L23.1643 202.536L33.9814 214.086L43.0678 209.435C47.143 212.927 51.5008 216.074 56.0964 218.846L54.582 228.93L69.0049 235.48L75.6514 227.74C80.7509 229.386 85.9766 230.612 91.2762 231.406L93.68 241.297L109.521 241.838L112.646 232.139C117.996 231.713 123.302 230.849 128.511 229.555L134.521 237.728L149.352 232.187L148.583 222.019C153.35 219.556 157.912 216.714 162.225 213.521L170.962 218.786L182.561 207.968L177.909 198.834C181.404 194.769 184.541 190.41 187.284 185.805L197.368 187.32L203.955 172.897L196.166 166.286C197.837 161.194 199.063 155.966 199.832 150.662L209.928 148.234ZM103.211 199.399C90.8169 198.98 78.8255 194.895 68.7534 187.66C58.6814 180.425 50.9814 170.366 46.6274 158.754C42.2734 147.142 41.461 134.5 44.293 122.427C47.1251 110.353 53.4743 99.3908 62.5375 90.9264C71.6007 82.4619 82.9707 76.8755 95.2092 74.874C107.448 72.8724 120.005 74.5456 131.293 79.6818C142.58 84.818 152.091 93.1865 158.622 103.729C165.152 114.271 168.41 126.513 167.982 138.907C167.411 155.517 160.267 171.22 148.121 182.564C135.975 193.908 119.821 199.963 103.211 199.399Z" fill="#69C56F" fill-opacity="0.2"/>
<path d="M480.271 95.9986L484.25 92.2848L482.675 89.1478C483.876 87.7421 484.958 86.2385 485.908 84.6527L489.394 85.1695L491.641 80.1936L488.973 77.922C489.548 76.1627 489.97 74.3572 490.235 72.5255L493.661 71.6721L493.829 66.2155L490.488 65.1338C490.341 63.2857 490.043 61.4527 489.598 59.6531L492.423 57.5498L490.5 52.4417L487.002 52.7181C486.159 51.0706 485.182 49.4949 484.081 48.0066L485.896 45.0019L482.158 41.0116L479.033 42.6101C477.626 41.4118 476.122 40.3305 474.538 39.377L475.043 35.8915L470.079 33.6199L467.796 36.3001C466.033 35.7512 464.228 35.3492 462.399 35.0982L461.546 31.6848L456.089 31.4805L454.995 34.8458C453.155 34.9865 451.329 35.2841 449.539 35.7352L447.447 32.9107L442.327 34.8218L442.616 38.3313C440.964 39.1665 439.387 40.1437 437.904 41.2519L434.876 39.4371L430.885 43.1509L432.436 46.2158C431.226 47.6174 430.14 49.1214 429.191 50.7109L425.717 50.1941L423.457 55.17L426.138 57.4536C425.582 59.2103 425.18 61.0119 424.936 62.8381L421.498 63.6915L421.33 69.1481L424.683 70.2298C424.82 72.0783 425.114 73.9117 425.561 75.7105L422.724 77.8018L424.647 82.9099L428.157 82.6455C429 84.293 429.977 85.8687 431.078 87.357L429.263 90.3617L433.001 94.352L436.126 92.7535C437.53 93.9557 439.034 95.0373 440.621 95.9866L440.104 99.4601L445.08 101.732L447.363 99.0635C449.127 99.6067 450.932 100.009 452.76 100.265L453.613 103.679L459.07 103.883L460.164 100.518C462.005 100.378 463.83 100.08 465.62 99.6284L467.712 102.453L472.832 100.542L472.555 97.0323C474.203 96.1959 475.775 95.2187 477.255 94.1117L480.271 95.9986ZM451.882 73.0062C450.833 71.8816 450.14 70.4709 449.893 68.9526C449.645 67.4344 449.853 65.8768 450.491 64.4769C451.129 63.077 452.167 61.8976 453.475 61.0881C454.784 60.2786 456.302 59.8752 457.84 59.9291C459.377 59.9829 460.864 60.4915 462.112 61.3905C463.361 62.2895 464.314 63.5386 464.852 64.9797C465.391 66.4207 465.489 67.9891 465.136 69.4863C464.783 70.9835 463.994 72.3423 462.868 73.3908C462.121 74.0952 461.241 74.6444 460.281 75.0067C459.32 75.369 458.297 75.5371 457.271 75.5013C456.245 75.4655 455.236 75.2266 454.303 74.7983C453.37 74.37 452.531 73.7609 451.834 73.0062H451.882Z" fill="#44B64B" fill-opacity="0.1"/>
<path d="M314.317 198.124L305.907 192.308C305.083 189.279 303.949 186.343 302.524 183.547L304.679 175.087L292.48 162.024L283.891 163.594C281.197 161.979 278.343 160.646 275.376 159.616L270.155 150.823L252.262 150.213L246.455 158.624C243.431 159.448 240.498 160.579 237.704 161.999L229.245 159.844L216.184 172.045L217.754 180.619C216.141 183.319 214.811 186.178 213.785 189.151L204.993 194.374L204.383 212.269L212.8 218.077C213.611 221.122 214.742 224.072 216.176 226.878L213.996 235.264L226.196 248.328L234.727 246.766C237.442 248.383 240.314 249.718 243.299 250.752L248.513 259.529L266.405 260.147L272.204 251.736C275.256 250.912 278.215 249.778 281.037 248.352L289.446 250.5L302.516 238.299L300.946 229.725C302.564 227.025 303.894 224.162 304.915 221.184L313.707 215.962L314.317 198.124ZM258.646 225.284C254.674 225.148 250.832 223.837 247.604 221.517C244.377 219.197 241.91 215.973 240.515 212.25C239.12 208.528 238.86 204.476 239.767 200.606C240.675 196.736 242.709 193.222 245.614 190.508C248.518 187.795 252.161 186.003 256.084 185.361C260.006 184.718 264.03 185.253 267.649 186.898C271.267 188.542 274.316 191.223 276.411 194.601C278.506 197.979 279.553 201.903 279.418 205.875C279.232 211.204 276.938 216.24 273.043 219.879C269.147 223.518 263.966 225.462 258.638 225.284H258.646Z" fill="#69C56F" fill-opacity="0.2"/>
<path d="M363.147 183.232H363.063L342.246 182.523C341.824 182.515 341.412 182.401 341.046 182.191C340.68 181.98 340.374 181.681 340.155 181.321L334.542 171.886C331.517 170.779 328.59 169.42 325.792 167.823L316.814 169.374C316.396 169.45 315.965 169.42 315.561 169.286C315.158 169.151 314.795 168.917 314.506 168.605L300.288 153.388C299.989 153.073 299.777 152.686 299.672 152.265C299.567 151.844 299.572 151.403 299.687 150.985L301.958 142.079C300.551 139.193 299.401 136.188 298.521 133.1L289.471 126.85C289.12 126.61 288.835 126.284 288.644 125.903C288.453 125.523 288.361 125.1 288.377 124.675L289.086 103.858C289.1 103.438 289.217 103.027 289.426 102.663C289.636 102.298 289.932 101.991 290.288 101.767L299.747 96.1538C300.838 93.1356 302.193 90.2197 303.797 87.44L302.139 78.3897C302.061 77.9696 302.091 77.5366 302.225 77.1311C302.36 76.7256 302.595 76.3606 302.908 76.07L318.124 61.8635C318.439 61.5641 318.825 61.3504 319.246 61.2431C319.667 61.1357 320.108 61.1383 320.528 61.2506L329.47 63.5342C332.349 62.1261 335.345 60.9719 338.424 60.0847L344.674 51.0344C344.906 50.6749 345.23 50.384 345.613 50.1917C345.995 49.9994 346.422 49.9128 346.849 49.9407L367.654 50.6618C368.077 50.6708 368.491 50.7854 368.859 50.9954C369.226 51.2053 369.535 51.5038 369.758 51.8637L375.371 61.3107C378.374 62.4134 381.278 63.7726 384.048 65.3731L393.135 63.7025C393.553 63.6248 393.984 63.6546 394.388 63.7891C394.791 63.9237 395.154 64.1585 395.442 64.4717L409.661 79.6878C409.957 80.0042 410.168 80.3911 410.273 80.8117C410.378 81.2323 410.374 81.6729 410.262 82.0916L407.978 91.0217C409.386 93.9019 410.544 96.8976 411.44 99.9759L420.478 106.226C420.829 106.467 421.113 106.793 421.304 107.173C421.496 107.553 421.588 107.976 421.572 108.401L420.863 129.206C420.848 129.628 420.731 130.04 420.522 130.407C420.313 130.773 420.017 131.083 419.661 131.31L410.202 136.922C409.104 139.934 407.748 142.845 406.151 145.624L407.81 154.687C407.888 155.105 407.858 155.536 407.723 155.94C407.589 156.343 407.354 156.706 407.041 156.994L391.728 171.213C391.413 171.511 391.026 171.723 390.605 171.828C390.184 171.934 389.743 171.929 389.325 171.814L380.431 169.542C377.532 170.944 374.521 172.098 371.428 172.992L365.239 182.03C365.016 182.387 364.708 182.683 364.343 182.893C363.979 183.102 363.568 183.219 363.147 183.232ZM343.809 177.499L361.837 178.112L367.847 169.47C368.18 168.966 368.69 168.605 369.277 168.46C372.659 167.535 375.941 166.275 379.072 164.698C379.618 164.435 380.239 164.372 380.827 164.518L389.241 166.67L402.461 154.35L400.947 145.66C400.83 145.053 400.941 144.424 401.26 143.893C403.045 140.917 404.515 137.763 405.646 134.483C405.837 133.888 406.239 133.383 406.776 133.064L415.827 127.704L416.44 109.675L407.786 103.666C407.33 103.354 406.988 102.903 406.812 102.38C406.812 102.32 406.812 102.247 406.812 102.175C405.886 98.8532 404.63 95.6321 403.062 92.5602C402.784 92.0103 402.716 91.3779 402.87 90.7813L405.034 82.2719L392.714 69.0509L384.072 70.6374C383.469 70.7468 382.846 70.6359 382.318 70.3249C379.336 68.5362 376.178 67.0582 372.895 65.914C372.706 65.8536 372.525 65.773 372.354 65.6736C372.007 65.4574 371.719 65.1605 371.512 64.8082L366.092 55.7338L348.063 55.1088L342.054 63.7746C341.695 64.2826 341.167 64.6451 340.563 64.7962C337.216 65.7109 333.97 66.9633 330.876 68.5341C330.331 68.8125 329.702 68.8809 329.109 68.7264L320.6 66.563L307.379 78.8825L308.965 87.5001C309.059 88.0437 308.98 88.6031 308.737 89.0987L308.617 89.303C306.829 92.2905 305.359 95.4567 304.23 98.75C304.031 99.3146 303.639 99.7912 303.124 100.096L294.074 105.469L293.461 123.497L302.127 129.507C302.621 129.845 302.978 130.347 303.136 130.925C304.037 134.3 305.29 137.571 306.874 140.684C306.96 140.862 307.028 141.047 307.078 141.237C307.169 141.633 307.169 142.044 307.078 142.439L304.915 150.852L317.234 164.073L325.816 162.499C326.416 162.389 327.035 162.5 327.559 162.811C330.564 164.597 333.741 166.075 337.042 167.222C337.637 167.399 338.141 167.8 338.448 168.34L343.809 177.499ZM354.95 154.699C354.506 154.699 354.061 154.699 353.616 154.699C343.625 154.523 334.107 150.408 327.135 143.249C320.163 136.09 316.301 126.467 316.389 116.475C316.477 106.482 320.508 96.9291 327.605 89.8942C334.702 82.8594 344.29 78.9124 354.283 78.9124C364.276 78.9124 373.864 82.8594 380.961 89.8942C388.059 96.9291 392.09 106.482 392.178 116.475C392.266 126.467 388.403 136.09 381.431 143.249C374.459 150.408 364.942 154.523 354.95 154.699ZM354.95 83.6781C346.219 83.8286 337.901 87.4221 331.806 93.6763C325.712 99.9305 322.335 108.339 322.41 117.071C322.485 125.803 326.007 134.152 332.208 140.3C338.41 146.448 346.789 149.898 355.521 149.898C364.254 149.898 372.633 146.448 378.834 140.3C385.035 134.152 388.557 125.803 388.632 117.071C388.708 108.339 385.33 99.9305 379.236 93.6763C373.141 87.4221 364.823 83.8286 356.092 83.6781H354.95Z" fill="#44B64B" fill-opacity="0.1"/>
<path d="M411.092 33.3808L402.462 31.0731L400.154 22.4435L403.532 19.0781L407.089 26.4458L414.469 30.0154L411.092 33.3808Z" fill="#44B64B" fill-opacity="0.2"/>
<path d="M411.621 27.6096C411.994 27.2363 412.29 26.7932 412.492 26.3055C412.694 25.8178 412.798 25.295 412.798 24.7671C412.798 24.2392 412.694 23.7165 412.492 23.2288C412.29 22.7411 411.994 22.2979 411.621 21.9246C411.247 21.5513 410.804 21.2552 410.316 21.0532C409.829 20.8512 409.306 20.7472 408.778 20.7472C408.25 20.7472 407.727 20.8512 407.24 21.0532C406.752 21.2552 406.309 21.5513 405.936 21.9246L410.226 15.4824L415.971 18.391L417.233 24.4005L411.621 27.6096Z" fill="#E0E0E0"/>
<path d="M402.846 19.7751L409.168 13.4531L417.773 15.7488L420.093 24.3664L413.771 30.6884L405.153 28.3687L402.846 19.7751ZM414.324 24.9433C414.887 24.3801 415.27 23.6626 415.425 22.8817C415.58 22.1008 415.5 21.2914 415.195 20.5559C414.89 19.8204 414.374 19.1918 413.712 18.7496C413.05 18.3073 412.272 18.0713 411.475 18.0713C410.679 18.0713 409.901 18.3073 409.239 18.7496C408.577 19.1918 408.061 19.8204 407.756 20.5559C407.451 21.2914 407.371 22.1008 407.526 22.8817C407.681 23.6626 408.064 24.3801 408.627 24.9433C409.388 25.6903 410.414 26.1067 411.48 26.1022C412.547 26.0977 413.569 25.6726 414.324 24.9193V24.9433Z" fill="#44B64B"/>
<path d="M58.6684 263.413L63.2957 262.163L64.5337 257.535L62.7308 255.732L60.8198 259.687L56.8535 261.598L58.6684 263.413Z" fill="#44B64B" fill-opacity="0.2"/>
<path d="M58.405 260.313C58.0434 259.9 57.8523 259.365 57.8705 258.816C57.8886 258.267 58.1147 257.746 58.5029 257.358C58.8911 256.97 59.4124 256.744 59.961 256.725C60.5097 256.707 61.0448 256.898 61.4578 257.26L59.1622 253.811L56.0012 255.349L55.3281 258.594L58.405 260.313Z" fill="#E0E0E0"/>
<path d="M63.0916 256.093L59.7023 252.703L55.075 253.905L53.873 258.532L57.2023 261.958L61.8296 260.756L63.0916 256.093ZM56.9379 258.869C56.7151 258.674 56.5347 258.435 56.4079 258.167C56.2811 257.9 56.2106 257.609 56.2008 257.313C56.191 257.017 56.2421 256.722 56.3509 256.447C56.4596 256.171 56.6238 255.921 56.8333 255.711C57.0427 255.502 57.2929 255.338 57.5683 255.229C57.8438 255.12 58.1387 255.069 58.4347 255.079C58.7307 255.089 59.0215 255.159 59.2892 255.286C59.5569 255.413 59.7956 255.593 59.9907 255.816C60.3524 256.229 60.5435 256.764 60.5253 257.313C60.5071 257.862 60.281 258.383 59.8928 258.771C59.5046 259.159 58.9834 259.385 58.4347 259.403C57.886 259.422 57.3509 259.231 56.9379 258.869Z" fill="#44B64B"/>
<path d="M42.0089 9.75033L45.855 13.5964C46.336 14.0691 46.9835 14.334 47.6579 14.334C48.3323 14.334 48.9797 14.0691 49.4607 13.5964C49.9306 13.1139 50.1935 12.467 50.1935 11.7936C50.1935 11.1201 49.9306 10.4732 49.4607 9.99071L45.6267 6.15663C45.1442 5.68676 44.4973 5.42383 43.8238 5.42383C43.1503 5.42383 42.5035 5.68676 42.021 6.15663C41.5502 6.63553 41.2855 7.27953 41.2832 7.95103C41.281 8.62254 41.5414 9.26829 42.0089 9.75033Z" fill="#44B64B"/>
<path d="M39.306 0.195516C40.3096 -0.0835619 41.3728 -0.0634921 42.3652 0.253268C43.3576 0.570028 44.2359 1.16969 44.8922 1.97862C45.5485 2.78755 45.9543 3.77053 46.0598 4.80687C46.1653 5.84321 45.9659 6.8878 45.486 7.81238C45.0061 8.73696 44.2667 9.50128 43.3585 10.0115C42.4503 10.5217 41.4129 10.7556 40.3736 10.6845C39.3343 10.6133 38.3384 10.2402 37.5082 9.61103C36.678 8.98182 36.0497 8.12386 35.7002 7.14252C35.4784 6.4497 35.3958 5.71984 35.4572 4.99497C35.5185 4.27009 35.7226 3.56451 36.0578 2.91884C36.3929 2.27316 36.8524 1.70014 37.4099 1.23276C37.9673 0.765377 38.6117 0.412868 39.306 0.195516Z" fill="#31A438"/>
<path d="M35.125 6.49917L35.6816 8.04883L47.1061 3.94479L46.5494 2.39513L35.125 6.49917Z" fill="#F0F0F0"/>
<path d="M250.711 311C379.414 311 483.748 304.909 483.748 297.395C483.748 289.88 379.414 283.789 250.711 283.789C122.008 283.789 17.6738 289.88 17.6738 297.395C17.6738 304.909 122.008 311 250.711 311Z" fill="#30367A" fill-opacity="0.1"/>
<path d="M54.4609 51.8054C53.259 46.505 53.7879 42.058 56.0715 38.4282C58.3551 34.7985 62.081 32.4187 67.3814 31.2168C72.6818 30.0149 77.261 30.4957 80.8427 32.7312C84.4244 34.9667 86.8522 38.7407 88.0541 43.9089C88.9027 47.0988 88.9727 50.4458 88.2584 53.6684C87.5597 56.3447 86.0833 58.7538 84.0157 60.5913C81.56 62.6588 78.6126 64.058 75.4582 64.6537C72.366 65.4747 69.1283 65.5857 65.9872 64.9783C63.2568 64.3147 60.7872 62.8497 58.896 60.7716C56.6364 58.2373 55.104 55.1393 54.4609 51.8054ZM64.4848 49.5699C65.23 52.839 66.3718 55.0505 67.9102 56.2044C68.7044 56.7339 69.5974 57.0974 70.5356 57.2729C71.4738 57.4484 72.4378 57.4324 73.3697 57.2258C74.3016 57.0193 75.182 56.6264 75.9582 56.0708C76.7343 55.5152 77.3901 54.8084 77.886 53.9929C78.7514 52.3222 78.7634 49.666 77.9461 46.0483C77.249 42.9955 76.1232 40.9041 74.5688 39.7744C73.7861 39.2126 72.8875 38.8336 71.939 38.6651C70.9905 38.4966 70.0163 38.543 69.0881 38.8008C68.1591 38.9748 67.2816 39.3572 66.5217 39.9193C65.7619 40.4814 65.1394 41.2085 64.7011 42.046C63.8117 43.8127 63.7276 46.2166 64.4848 49.5699Z" fill="#30367A"/>
<path d="M92.7655 47.8393C92.3386 46.2014 92.2625 44.4917 92.5421 42.8223C92.8217 41.1529 93.4508 39.5614 94.3881 38.152C95.4389 36.6546 96.7751 35.3795 98.32 34.3997C99.8648 33.42 101.588 32.755 103.39 32.4429C108.094 31.3772 111.956 31.9341 114.977 34.1136C117.519 36.0843 119.247 38.9214 119.832 42.0843C120.418 45.2473 119.819 48.5149 118.15 51.2647C116.275 54.1253 113.222 56.0323 108.991 56.9858C105.732 57.897 102.254 57.6157 99.1837 56.1925C97.5417 55.39 96.1079 54.2183 94.9944 52.7691C93.8809 51.3199 93.118 49.6326 92.7655 47.8393ZM101.792 45.76C102.035 47.4395 102.855 48.9821 104.112 50.1229C104.61 50.4999 105.184 50.7639 105.794 50.8966C106.404 51.0293 107.036 51.0275 107.646 50.8914C108.255 50.7553 108.828 50.4881 109.324 50.1084C109.82 49.7287 110.227 49.2456 110.518 48.6926C111.147 47.0782 111.206 45.2974 110.686 43.6447C110.433 42.0045 109.622 40.5018 108.39 39.3899C107.912 39.0023 107.351 38.7302 106.751 38.5947C106.151 38.4592 105.527 38.464 104.929 38.6087C104.305 38.7379 103.719 39.0075 103.215 39.3969C102.711 39.7863 102.303 40.2854 102.02 40.8562C101.373 42.4138 101.292 44.149 101.792 45.76Z" fill="#30367A"/>
<path d="M128.811 61.3243L121.443 28.8729L129.857 26.9498L130.65 30.4233C131.243 29.0381 132.105 27.784 133.186 26.7335C134.372 25.727 135.788 25.0292 137.308 24.7023C138.714 24.3201 140.192 24.2981 141.608 24.6384C143.024 24.9787 144.331 25.6703 145.409 26.6494C147.785 28.87 149.396 31.7857 150.013 34.9786C150.902 38.8847 150.638 42.0818 149.243 44.5938C148.58 45.7948 147.664 46.8372 146.558 47.6487C145.451 48.4602 144.182 49.0213 142.837 49.2932C141.542 49.6004 140.199 49.6535 138.883 49.4495C137.621 49.2284 136.418 48.7497 135.349 48.0432L137.897 59.257L128.811 61.3243ZM133.15 38.6564C133.371 40.1575 134.121 41.5302 135.265 42.5265C135.724 42.8779 136.257 43.1209 136.823 43.2375C137.389 43.354 137.974 43.3411 138.534 43.1996C139.055 43.0952 139.544 42.8701 139.961 42.5424C140.379 42.2146 140.713 41.7934 140.938 41.3126C141.449 39.8084 141.449 38.1775 140.938 36.6732C140.719 35.1646 139.994 33.7749 138.883 32.731C138.471 32.3887 137.986 32.1456 137.465 32.0206C136.944 31.8956 136.401 31.8919 135.878 32.0099C135.326 32.1291 134.808 32.3715 134.362 32.7191C133.917 33.0666 133.556 33.5103 133.306 34.017C132.718 35.4986 132.663 37.1386 133.15 38.6564Z" fill="#30367A"/>
<path d="M153.872 39.3671L162.622 36.4946C163.087 37.3404 163.812 38.0145 164.689 38.4176C165.633 38.691 166.632 38.7128 167.587 38.4809C168.542 38.249 169.42 37.7714 170.134 37.0955C170.333 36.8834 170.478 36.6259 170.555 36.3453C170.633 36.0646 170.641 35.7693 170.578 35.485C170.506 35.1596 170.338 34.8632 170.096 34.6341C169.854 34.4049 169.549 34.2533 169.22 34.1989C167.862 34.0499 166.492 34.0499 165.134 34.1989C162.854 34.3928 160.562 34.3928 158.283 34.1989C156.948 34.0053 155.697 33.4339 154.677 32.5523C153.589 31.6103 152.837 30.3394 152.536 28.9319C152.234 27.5244 152.399 26.0571 153.006 24.752C153.707 23.3554 154.797 22.191 156.143 21.3987C158.061 20.3095 160.144 19.5421 162.309 19.1271C164.376 18.566 166.514 18.3069 168.655 18.3578C170 18.4444 171.304 18.8569 172.453 19.5597C173.678 20.3862 174.718 21.4586 175.506 22.7087L167.093 25.4851C166.778 24.8589 166.256 24.3617 165.614 24.0789C164.738 23.7653 163.787 23.7234 162.886 23.9587C162.09 24.0697 161.352 24.4367 160.783 25.0044C160.602 25.1979 160.471 25.4327 160.402 25.6882C160.333 25.9438 160.328 26.2125 160.386 26.4707C160.451 26.7549 160.601 27.0127 160.816 27.2101C161.03 27.4075 161.299 27.5352 161.588 27.5764C162.932 27.7324 164.29 27.7041 165.626 27.4923C167.944 27.1564 170.296 27.1241 172.622 27.3962C174.085 27.6028 175.455 28.2338 176.564 29.211C177.566 30.1199 178.263 31.3163 178.559 32.6365C178.867 34.0521 178.754 35.5268 178.234 36.8792C177.599 38.4802 176.492 39.8507 175.061 40.8094C172.953 42.1875 170.592 43.1314 168.114 43.5858C163.828 44.5633 160.623 44.6475 158.499 43.8382C156.43 43.012 154.769 41.4064 153.872 39.3671Z" fill="#30367A"/>
<path d="M183.221 9.64258H193.088V17.2146L191.273 32.4427H185.168L183.221 17.2386V9.64258ZM183.701 34.7383H192.908V42.8872H183.701V34.7383Z" fill="#30367A"/>
<path d="M104.894 113.02H104.678C99.2694 110.916 96.0362 108.873 94.3536 106.409C93.0364 106.659 91.6738 106.473 90.4714 105.88C89.0629 105.191 87.8945 104.094 87.1181 102.731C86.71 103.045 86.2294 103.25 85.7209 103.327C85.2124 103.405 84.6925 103.353 84.2095 103.176C82.7283 102.622 81.4643 101.607 80.6038 100.28C80.0656 100.681 79.3965 100.865 78.7288 100.796C75.1231 100.508 70.3155 93.3927 69.967 85.8207C69.9634 85.6609 70.0212 85.5058 70.1285 85.3873C70.2358 85.2688 70.3845 85.1959 70.5439 85.1837C70.6228 85.1805 70.7016 85.1929 70.7757 85.2201C70.8499 85.2474 70.9179 85.289 70.976 85.3426C71.034 85.3961 71.0809 85.4606 71.114 85.5324C71.1471 85.6041 71.1658 85.6817 71.1689 85.7606C71.5054 92.972 76.1087 99.3782 78.837 99.5945C79.0355 99.6168 79.2365 99.5996 79.4283 99.5439C79.6201 99.4882 79.7991 99.3951 79.9548 99.27C79.0148 97.5564 78.4245 95.6732 78.2181 93.7296C78.0118 91.786 78.1936 89.8208 78.7529 87.9481C79.7865 84.3424 80.6999 82.9241 81.8057 83.1405C83.873 83.6573 83.5965 91.5538 82.5028 96.7099C82.3371 97.6399 81.9943 98.5294 81.4932 99.3301C82.2017 100.518 83.2714 101.449 84.546 101.986C84.8858 102.116 85.2555 102.145 85.6113 102.07C85.9671 101.996 86.294 101.821 86.5532 101.566C85.6157 99.246 85.3513 96.0729 86.6974 92.0345C88.3801 86.7101 89.1012 86.5659 89.4738 86.4697C89.614 86.4403 89.7595 86.4493 89.8949 86.4959C90.0303 86.5424 90.1506 86.6248 90.2431 86.7342C91.3608 87.9962 90.0267 96.2652 88.6325 100.352C88.4692 100.844 88.243 101.312 87.9594 101.746C88.6043 103.046 89.6548 104.101 90.9522 104.751C91.8031 105.164 92.7493 105.343 93.6925 105.268C93.5843 105.039 93.4882 104.811 93.392 104.57C92.4425 101.986 92.9113 99.0176 94.8223 95.46C96.0843 93.1163 97.1179 92.0105 98.0795 92.0105C98.3347 92.0139 98.5836 92.0904 98.7966 92.231C99.0097 92.3716 99.1779 92.5704 99.2814 92.8038C100.327 94.7388 99.5698 101.121 97.5026 104.294C97.0185 105.021 96.3453 105.603 95.5555 105.977C97.166 108.092 100.231 109.955 105.171 111.854C105.245 111.881 105.313 111.922 105.371 111.975C105.428 112.029 105.475 112.093 105.507 112.165C105.54 112.237 105.558 112.314 105.56 112.393C105.562 112.472 105.548 112.55 105.519 112.623C105.473 112.748 105.386 112.855 105.273 112.926C105.161 112.998 105.027 113.031 104.894 113.02ZM98.0674 93.2244C98.0674 93.2244 97.3824 93.2244 95.868 96.0489C94.1252 99.27 93.6805 101.926 94.5098 104.162C94.6103 104.439 94.7309 104.708 94.8704 104.967C95.5214 104.698 96.0749 104.237 96.4569 103.645C98.1396 101.073 98.9448 95.7845 98.3198 93.7172C98.2357 93.2965 98.0674 93.2244 98.0674 93.2244ZM89.4378 88.1644C88.7872 89.5328 88.2486 90.9517 87.8272 92.4071C86.9054 94.9295 86.7466 97.6675 87.3705 100.28L87.4787 99.9671C88.7408 96.1574 89.4136 92.1773 89.4738 88.1644H89.4378ZM81.5293 84.3784C81.3249 84.5587 80.736 85.3159 79.9067 88.2485C78.9258 91.5398 79.2353 95.081 80.7721 98.1522C81.0187 97.6149 81.2002 97.05 81.3129 96.4696C82.5989 90.5682 82.2384 85.2318 81.5653 84.3784H81.5293Z" fill="#30367A"/>
<path d="M150.59 176.022C148.669 176.04 146.777 175.547 145.11 174.591C144.972 174.509 144.873 174.376 144.832 174.221C144.792 174.066 144.814 173.901 144.893 173.762C144.933 173.694 144.986 173.635 145.048 173.588C145.111 173.541 145.183 173.507 145.259 173.488C145.335 173.469 145.414 173.465 145.492 173.477C145.569 173.489 145.644 173.517 145.711 173.558C150.001 176.07 155.542 174.315 156.684 172.476C156.766 172.361 156.825 172.23 156.856 172.092C156.887 171.953 156.89 171.81 156.864 171.671C154.67 171.797 152.497 171.179 150.698 169.916C147.634 168.005 147.393 167.428 147.417 166.971C147.423 166.84 147.464 166.713 147.536 166.603C147.608 166.493 147.708 166.404 147.826 166.346C149.028 165.745 154.448 168.233 156.708 169.724C156.979 169.904 157.229 170.113 157.453 170.349C158.341 170.147 159.141 169.667 159.737 168.979C160.072 168.585 160.314 168.121 160.446 167.62H160.205C158.282 167.813 156.359 166.983 154.304 165.084C152.886 163.786 152.345 162.885 152.525 162.176C152.58 161.977 152.69 161.797 152.844 161.659C152.997 161.52 153.187 161.429 153.391 161.395C155.049 160.974 159.16 162.729 160.83 164.568C161.203 164.967 161.468 165.456 161.6 165.986C163.174 165.253 164.833 163.582 166.792 160.854C166.837 160.789 166.895 160.733 166.962 160.691C167.029 160.648 167.104 160.62 167.182 160.606C167.261 160.593 167.341 160.595 167.418 160.613C167.496 160.631 167.569 160.663 167.633 160.71C167.762 160.803 167.849 160.944 167.876 161.101C167.903 161.258 167.867 161.419 167.777 161.551C165.506 164.724 163.607 166.527 161.708 167.26C161.609 168.148 161.245 168.986 160.662 169.664C159.97 170.468 159.06 171.057 158.042 171.358C158.099 171.645 158.099 171.941 158.041 172.227C157.983 172.514 157.869 172.787 157.705 173.029C156.696 174.748 153.787 176.022 150.59 176.022ZM149.521 167.681C149.929 167.981 150.506 168.378 151.335 168.882C152.628 169.754 154.113 170.299 155.662 170.469C153.728 169.309 151.667 168.373 149.521 167.681ZM153.715 162.572C154.061 163.223 154.54 163.792 155.121 164.243C156.9 165.89 158.523 166.647 160.085 166.455H160.47C160.384 166.081 160.202 165.737 159.941 165.457C158.258 163.558 154.557 162.38 153.715 162.572Z" fill="#30367A"/>
<path d="M166.503 174.374L147.777 177.776L130.771 84.9648L94.6413 91.5272L35.748 196.093L42.0701 230.599L117.61 216.886L122.778 245.106L158.907 238.52L153.739 210.299L172.465 206.898L166.503 174.374ZM71.733 191.646L102.983 136.875L111.696 184.398L71.733 191.646Z" fill="#44B64B"/>
<path d="M317.331 78.6678C316.762 72.8334 315.47 67.0924 313.485 61.5768C311.442 56.2934 308.605 51.3528 305.072 46.9256C300.888 41.775 295.693 37.5371 289.807 34.4739C283.397 30.9563 274.896 28.5084 264.303 27.1302C242.308 24.2617 225.169 28.1639 212.886 38.8368C200.602 49.5097 192.509 69.942 188.607 100.134C187.049 111.417 186.646 122.83 187.405 134.196C188.207 144.612 190.122 152.998 193.15 159.352C197.005 167.92 203.085 175.3 210.758 180.721C218.346 186.05 228.763 189.571 242.008 191.286C265.549 194.355 283.005 189.832 294.375 177.717C305.745 165.602 313.277 145.129 316.97 116.299C318.612 103.816 318.734 91.1801 317.331 78.6678Z" fill="#44B64B"/>
<path d="M252.834 178.943C249.937 178.847 246.824 178.582 243.687 178.174C232.678 176.743 224.169 173.955 218.375 169.892C212.598 165.813 208.03 160.248 205.154 153.787L205.094 153.655C202.787 148.847 201.272 141.936 200.611 133.222C199.911 122.755 200.282 112.244 201.717 101.853C206.008 68.5359 214.866 54.6299 221.536 48.8367C229.325 42.082 239.841 39.0292 253.663 39.5099C256.5 39.6061 259.505 39.8585 262.593 40.2551C271.463 41.457 278.495 43.3801 283.47 46.0964C287.77 48.3106 291.577 51.373 294.66 55.0986C297.358 58.4636 299.527 62.2207 301.09 66.2403C302.687 70.7223 303.721 75.3853 304.167 80.1223C305.449 91.6002 305.332 103.191 303.819 114.641C300.489 140.53 294.047 158.727 284.684 168.727C277.737 176.13 267.317 179.544 252.822 178.991L252.834 178.943Z" fill="#30367A"/>
<path d="M276.357 79.0176L276.513 74.4624L273.712 73.549C273.593 72.0083 273.344 70.4804 272.967 68.9817L275.371 67.227L273.76 62.9482L270.828 63.1886C270.138 61.8134 269.334 60.4987 268.424 59.2583L269.938 56.7223L266.813 53.393L264.193 54.7392C263.021 53.7312 261.767 52.8226 260.443 52.0229L260.864 49.1143L256.705 47.2273L254.806 49.4628C253.336 48.9863 251.828 48.6325 250.299 48.4051L249.59 45.5566L245.023 45.4004L244.122 48.1888C242.581 48.3121 241.054 48.5613 239.554 48.934L237.788 46.5302L233.509 48.1287L233.749 51.0614C232.374 51.7516 231.06 52.5557 229.819 53.4652L227.295 51.9387L223.954 55.0517L225.3 57.6838C224.289 58.8554 223.384 60.1143 222.595 61.4458L219.687 61.0011L217.788 65.1597L220.035 67.0587C219.548 68.5302 219.194 70.0427 218.978 71.5779L216.117 72.299L215.961 76.8422L218.761 77.7556C218.879 79.3005 219.128 80.8325 219.507 82.3349L217.103 84.0776L218.713 88.3564L221.646 88.116C222.329 89.495 223.133 90.8103 224.05 92.0463L222.523 94.5823L225.648 97.9115L228.268 96.5774C229.441 97.5815 230.695 98.4861 232.018 99.2817L231.586 102.19L235.744 104.077L237.655 101.854C239.13 102.328 240.642 102.677 242.174 102.899L242.884 105.76L247.439 105.916L248.34 103.116C249.885 102.998 251.417 102.749 252.919 102.371L254.662 104.774L258.941 103.176L258.713 100.255C260.083 99.5562 261.397 98.7526 262.643 97.8515L265.167 99.3659L268.508 96.2529L267.174 93.6208C268.181 92.4531 269.082 91.1982 269.866 89.8708L272.775 90.3035L274.674 86.1449L272.438 84.2459C272.917 82.7766 273.266 81.2686 273.484 79.7388L276.357 79.0176ZM245.588 93.765C242.028 93.6349 238.586 92.4532 235.698 90.3689C232.809 88.2846 230.602 85.3913 229.356 82.054C228.11 78.7167 227.881 75.0852 228.697 71.6177C229.513 68.1502 231.338 65.0022 233.942 62.5711C236.546 60.14 239.811 58.5347 243.327 57.9579C246.842 57.381 250.449 57.8585 253.693 59.3299C256.937 60.8014 259.673 63.201 261.555 66.2258C263.436 69.2505 264.379 72.7649 264.265 76.3254C264.189 78.6985 263.645 81.0333 262.665 83.1957C261.684 85.358 260.286 87.3053 258.55 88.9258C256.815 90.5462 254.776 91.8079 252.552 92.6384C250.327 93.4688 247.961 93.8517 245.588 93.765Z" fill="#44B64B"/>
<path opacity="0.3" d="M295.323 162.645L295.66 159.568L293.809 158.823C293.806 157.775 293.718 156.73 293.545 155.698L295.215 154.628L294.362 151.659H292.367C291.972 150.694 291.494 149.765 290.936 148.883L292.066 147.248L290.143 144.844L288.304 145.614C287.559 144.876 286.755 144.201 285.9 143.594L286.345 141.647L283.641 140.157L282.223 141.587C281.257 141.19 280.26 140.872 279.242 140.638L278.905 138.679L275.841 138.33L275.083 140.181C274.039 140.186 272.998 140.282 271.97 140.469L270.901 138.763L267.932 139.64V141.635C266.966 142.034 266.037 142.517 265.156 143.078L263.521 141.876L261.117 143.799L261.886 145.638C261.154 146.383 260.482 147.187 259.879 148.041L257.932 147.609L256.454 150.313L257.872 151.719C257.469 152.687 257.151 153.689 256.923 154.712L254.951 155.037L254.627 158.101L256.466 158.871C256.467 159.91 256.559 160.948 256.742 161.972L255.048 163.041L255.913 166.01H257.92C258.321 166.971 258.804 167.896 259.362 168.774L258.161 170.409L260.084 172.813L261.947 172.031C262.686 172.771 263.491 173.443 264.35 174.039L263.93 176.022L266.634 177.5L268.04 176.094C269.007 176.482 270.004 176.792 271.021 177.019L271.369 178.99L274.434 179.327L275.179 177.488C276.243 177.487 277.304 177.398 278.353 177.224L279.422 178.918L282.379 178.053V176.058C283.345 175.652 284.278 175.169 285.167 174.616L286.778 175.817L289.182 173.882L288.4 172.043C289.141 171.298 289.82 170.494 290.432 169.64L292.367 170.072L293.857 167.368L292.439 165.974C292.825 165.006 293.135 164.01 293.364 162.993L295.323 162.645ZM279.855 161.443C279.346 162.373 278.573 163.132 277.633 163.623C276.693 164.114 275.629 164.315 274.574 164.201C273.52 164.087 272.523 163.663 271.71 162.982C270.897 162.302 270.304 161.395 270.006 160.377C269.708 159.359 269.719 158.276 270.037 157.264C270.355 156.253 270.966 155.358 271.793 154.694C272.619 154.029 273.625 153.625 274.681 153.532C275.737 153.439 276.798 153.661 277.728 154.171C278.971 154.856 279.893 156.006 280.291 157.368C280.69 158.731 280.533 160.195 279.855 161.443Z" fill="#44B64B"/>
<path d="M312.354 110.699L308.748 108.223C308.393 106.936 307.91 105.688 307.306 104.497L308.219 100.892L303.027 95.3267L299.421 95.9998C298.278 95.3188 297.07 94.7512 295.816 94.3051L293.592 90.5551L285.984 90.3027L283.508 93.9084C282.219 94.2579 280.971 94.7413 279.782 95.3507L276.177 94.4253L270.612 99.6295L271.285 103.235C270.594 104.374 270.026 105.583 269.59 106.841L265.852 109.064L265.588 116.672L269.194 119.148C269.543 120.445 270.026 121.702 270.636 122.898L269.722 126.504L274.915 132.069L278.52 131.408C279.665 132.088 280.872 132.655 282.126 133.103L284.338 136.84L291.958 137.105L294.422 133.499C295.721 133.146 296.981 132.663 298.184 132.057L301.789 132.97L307.354 127.778L306.693 124.172C307.376 123.03 307.944 121.822 308.388 120.567L312.126 118.343L312.354 110.699ZM288.64 122.261C286.949 122.203 285.312 121.645 283.938 120.657C282.564 119.669 281.514 118.295 280.92 116.71C280.326 115.125 280.216 113.399 280.603 111.752C280.99 110.104 281.857 108.608 283.095 107.453C284.332 106.298 285.884 105.536 287.555 105.263C289.225 104.99 290.939 105.219 292.479 105.92C294.02 106.622 295.318 107.764 296.209 109.203C297.1 110.642 297.545 112.313 297.486 114.004C297.405 116.271 296.428 118.413 294.77 119.961C293.112 121.509 290.907 122.336 288.64 122.261Z" fill="white"/>
<path d="M338.447 49.9653L339.072 48.4629C339.497 48.2235 339.899 47.9459 340.274 47.6336H341.668L343.303 45.2298L342.774 43.9438C342.976 43.5154 343.137 43.0687 343.255 42.6097L344.456 41.5039L343.952 38.6794L342.437 38.0544C342.2 37.6282 341.922 37.2258 341.608 36.8525V35.4583L339.264 33.8238L337.966 34.3646C337.492 34.1975 337 34.0846 336.5 34.0281L335.394 32.8262L332.582 33.331L331.945 34.8454C331.499 35.0766 331.076 35.3503 330.683 35.6627H329.3L327.666 38.0665L328.195 39.3525C328.033 39.8286 327.92 40.3199 327.858 40.8188L326.656 41.9366L327.161 44.7491L328.675 45.374C328.905 45.8024 329.179 46.2053 329.493 46.5759V47.9581L331.897 49.5927L333.183 49.0639C333.664 49.2202 334.159 49.3289 334.661 49.3884L335.767 50.5903L338.447 49.9653ZM332.437 42.177C332.324 41.5499 332.399 40.9031 332.653 40.3186C332.907 39.7341 333.329 39.2381 333.865 38.8933C334.401 38.5486 335.027 38.3706 335.664 38.3819C336.301 38.3933 336.921 38.5934 337.444 38.9569C337.968 39.3205 338.372 39.8312 338.605 40.4244C338.838 41.0175 338.89 41.6665 338.754 42.2892C338.618 42.9119 338.301 43.4803 337.842 43.9224C337.383 44.3646 336.803 44.6606 336.175 44.7731C335.336 44.9204 334.472 44.7303 333.772 44.2441C333.072 43.7579 332.592 43.015 332.437 42.177Z" fill="#44B64B"/>
<path d="M305.527 41.9978L304.602 41.2165C306.585 38.7567 309.036 36.7142 311.813 35.207L312.378 36.2647C309.737 37.7027 307.408 39.6515 305.527 41.9978Z" fill="#44B64B"/>
<path d="M315.117 35.1598L314.648 34.054C319.087 32.1253 323.94 31.3481 328.759 31.7945L328.639 32.9964C324.021 32.5611 319.368 33.3055 315.117 35.1598Z" fill="#44B64B"/>
<path d="M312.845 43.4763L311.859 42.8032C314.755 38.893 318.969 36.1645 323.722 35.123L323.951 36.325C319.509 37.2949 315.566 39.834 312.845 43.4763Z" fill="#44B64B"/>
<path d="M233.087 159.196C232.924 159.191 232.768 159.122 232.655 159.003L230.143 156.407C228.862 156.291 227.595 156.058 226.357 155.71L222.427 157.441C222.34 157.488 222.243 157.513 222.144 157.513C222.045 157.513 221.948 157.488 221.862 157.441L215.275 153.078C215.19 153.022 215.121 152.945 215.075 152.854C215.029 152.764 215.006 152.663 215.011 152.561V148.282C214.207 147.277 213.499 146.199 212.895 145.061L209.518 143.763C209.424 143.727 209.34 143.667 209.275 143.589C209.209 143.511 209.165 143.418 209.146 143.319L207.583 135.578C207.562 135.479 207.567 135.377 207.596 135.28C207.626 135.184 207.679 135.096 207.751 135.025L210.347 132.513C210.472 131.234 210.705 129.967 211.045 128.727L209.314 124.797C209.266 124.711 209.242 124.614 209.242 124.515C209.242 124.416 209.266 124.319 209.314 124.232L213.677 117.646C213.731 117.559 213.808 117.489 213.899 117.442C213.99 117.396 214.091 117.375 214.194 117.382L218.472 117.442C219.475 116.634 220.554 115.925 221.693 115.326L223.003 111.949C223.038 111.855 223.096 111.772 223.172 111.707C223.247 111.642 223.338 111.597 223.436 111.576L231.176 110.014C231.275 109.992 231.378 109.996 231.475 110.026C231.572 110.055 231.659 110.109 231.729 110.182L234.241 112.778C235.526 112.895 236.797 113.129 238.039 113.475L241.957 111.745C242.046 111.697 242.145 111.672 242.246 111.672C242.347 111.672 242.446 111.697 242.534 111.745L249.109 116.108C249.192 116.166 249.261 116.243 249.309 116.333C249.357 116.423 249.383 116.523 249.385 116.624L249.313 120.903C250.121 121.908 250.833 122.987 251.44 124.124L254.806 125.434C254.9 125.469 254.983 125.527 255.048 125.602C255.113 125.678 255.158 125.769 255.178 125.867L256.753 133.607C256.771 133.706 256.766 133.808 256.737 133.904C256.707 134.001 256.655 134.088 256.585 134.16L253.977 136.684C253.856 137.96 253.623 139.223 253.279 140.458L255.01 144.388C255.057 144.477 255.082 144.576 255.082 144.677C255.082 144.777 255.057 144.876 255.01 144.965L250.707 151.492C250.651 151.573 250.575 151.64 250.488 151.686C250.4 151.732 250.302 151.756 250.203 151.756L245.912 151.696C244.906 152.493 243.832 153.201 242.703 153.811L241.393 157.189C241.357 157.284 241.297 157.368 241.219 157.433C241.141 157.499 241.048 157.543 240.948 157.561L233.208 159.196H233.087ZM226.321 154.388C226.376 154.377 226.433 154.377 226.489 154.388C227.787 154.766 229.12 155.012 230.467 155.121C230.612 155.138 230.747 155.202 230.852 155.302L233.256 157.826L240.347 156.395L241.621 153.102C241.68 152.969 241.781 152.859 241.909 152.79C243.11 152.169 244.242 151.424 245.287 150.566C245.397 150.473 245.539 150.426 245.683 150.434L249.854 150.494L253.844 144.484L252.162 140.662C252.114 140.53 252.114 140.386 252.162 140.254C252.533 138.954 252.779 137.622 252.895 136.275C252.907 136.13 252.971 135.993 253.075 135.891L255.599 133.487L254.169 126.396L250.888 125.122C250.747 125.07 250.631 124.967 250.563 124.833C249.939 123.634 249.194 122.503 248.34 121.456C248.254 121.346 248.207 121.211 248.207 121.071V116.889L242.198 112.898L238.388 114.581C238.252 114.63 238.103 114.63 237.967 114.581C236.665 114.205 235.328 113.959 233.977 113.848C233.833 113.831 233.698 113.768 233.592 113.668L231.188 111.144L224.097 112.586L222.835 115.927C222.785 116.065 222.687 116.18 222.559 116.252C221.354 116.871 220.217 117.616 219.169 118.475C219.118 118.522 219.057 118.558 218.991 118.581C218.925 118.604 218.855 118.613 218.785 118.607L214.614 118.547L210.612 124.557L212.294 128.379C212.333 128.46 212.353 128.548 212.353 128.637C212.353 128.727 212.333 128.815 212.294 128.896C211.938 130.165 211.705 131.465 211.597 132.778C211.586 132.924 211.522 133.061 211.417 133.163L208.893 135.566L210.335 142.658L213.605 143.932C213.751 143.992 213.87 144.103 213.941 144.244C214.561 145.435 215.302 146.559 216.153 147.597C216.242 147.705 216.289 147.842 216.285 147.982V152.165L222.294 156.155L226.116 154.472C226.179 154.432 226.248 154.404 226.321 154.388ZM232.222 150.494C229.329 150.491 226.491 149.705 224.009 148.218C221.527 146.732 219.495 144.6 218.128 142.051C216.76 139.501 216.11 136.629 216.244 133.739C216.379 130.849 217.294 128.05 218.893 125.639C220.422 123.325 222.525 121.449 224.997 120.192C227.468 118.935 230.224 118.341 232.994 118.468C235.764 118.595 238.453 119.439 240.799 120.917C243.145 122.396 245.068 124.457 246.378 126.901C247.688 129.345 248.342 132.087 248.275 134.859C248.209 137.631 247.424 140.338 245.997 142.716C244.57 145.093 242.551 147.06 240.136 148.423C237.722 149.787 234.995 150.5 232.222 150.494ZM219.903 126.3C218.285 128.741 217.427 131.606 217.438 134.535C217.449 137.463 218.327 140.322 219.963 142.751C221.599 145.18 223.918 147.07 226.628 148.181C229.337 149.292 232.315 149.574 235.185 148.993C238.055 148.411 240.688 146.992 242.752 144.914C244.815 142.836 246.216 140.193 246.778 137.319C247.339 134.445 247.036 131.469 245.906 128.768C244.777 126.066 242.871 123.76 240.431 122.141C238.813 121.058 236.996 120.306 235.086 119.929C233.175 119.551 231.209 119.556 229.3 119.943C227.392 120.329 225.579 121.09 223.966 122.181C222.353 123.272 220.972 124.672 219.903 126.3Z" fill="white"/>
<path d="M462.039 185.216L443.169 182.668L455.645 89.1479L419.251 84.2441L330.971 165.517L326.332 200.288L402.4 210.552L398.602 239.001L434.996 243.905L438.794 215.468L457.664 218.016L462.039 185.216ZM366.584 172.332L413.17 129.868L406.775 177.752L366.584 172.332Z" fill="#44B64B"/>
<path d="M423.939 243.016H423.783C423.627 242.986 423.489 242.897 423.399 242.766C423.309 242.636 423.274 242.475 423.302 242.319L451.427 88.5471C451.459 88.3926 451.549 88.2565 451.679 88.167C451.809 88.0774 451.968 88.0414 452.124 88.0663C452.28 88.0955 452.418 88.1852 452.508 88.3158C452.598 88.4464 452.633 88.6073 452.605 88.7634L424.54 242.523C424.513 242.662 424.438 242.787 424.328 242.877C424.218 242.967 424.081 243.016 423.939 243.016Z" fill="#31A438"/>
<path d="M448.819 91.1316C448.81 91.393 448.697 91.6399 448.505 91.818C448.314 91.996 448.059 92.0907 447.798 92.0812C447.536 92.0716 447.29 91.9586 447.111 91.767C446.933 91.5754 446.839 91.3209 446.848 91.0595C446.858 90.7981 446.971 90.5513 447.162 90.3732C447.354 90.1951 447.609 90.1005 447.87 90.11C448.131 90.1196 448.378 90.2326 448.556 90.4242C448.734 90.6158 448.829 90.8703 448.819 91.1316Z" fill="#31A438"/>
<path d="M444.816 111.925C444.809 112.119 444.744 112.308 444.63 112.465C444.516 112.623 444.357 112.744 444.175 112.812C443.992 112.88 443.793 112.892 443.604 112.847C443.414 112.802 443.242 112.702 443.109 112.559C442.977 112.416 442.889 112.237 442.858 112.045C442.827 111.852 442.854 111.655 442.935 111.478C443.016 111.301 443.148 111.152 443.314 111.049C443.479 110.947 443.672 110.896 443.867 110.903C443.996 110.908 444.123 110.938 444.241 110.992C444.359 111.045 444.465 111.122 444.553 111.217C444.641 111.312 444.71 111.423 444.755 111.545C444.8 111.666 444.821 111.795 444.816 111.925Z" fill="#31A438"/>
<path d="M440.814 132.755C440.809 132.884 440.779 133.011 440.725 133.129C440.671 133.247 440.595 133.353 440.5 133.441C440.405 133.529 440.293 133.598 440.172 133.643C440.051 133.688 439.921 133.709 439.792 133.704C439.663 133.701 439.536 133.672 439.418 133.62C439.301 133.567 439.194 133.492 439.106 133.398C439.018 133.304 438.949 133.193 438.904 133.073C438.859 132.952 438.838 132.823 438.842 132.695C438.846 132.564 438.875 132.436 438.928 132.316C438.981 132.197 439.057 132.09 439.152 132C439.247 131.911 439.359 131.841 439.481 131.795C439.604 131.749 439.734 131.728 439.864 131.733C440.124 131.746 440.37 131.859 440.547 132.05C440.725 132.241 440.82 132.494 440.814 132.755Z" fill="#31A438"/>
<path d="M432.93 154.387C432.903 154.628 432.788 154.851 432.608 155.013C432.427 155.175 432.193 155.264 431.95 155.264C431.708 155.264 431.474 155.175 431.293 155.013C431.112 154.851 430.998 154.628 430.971 154.387C430.956 154.249 430.969 154.11 431.012 153.978C431.054 153.846 431.124 153.724 431.216 153.621C431.309 153.518 431.422 153.435 431.548 153.379C431.675 153.322 431.812 153.293 431.95 153.293C432.089 153.293 432.226 153.322 432.353 153.379C432.479 153.435 432.592 153.518 432.685 153.621C432.777 153.724 432.847 153.846 432.889 153.978C432.931 154.11 432.945 154.249 432.93 154.387Z" fill="#31A438"/>
<path d="M432.797 174.304C432.794 174.434 432.765 174.562 432.711 174.681C432.658 174.799 432.581 174.906 432.486 174.994C432.391 175.083 432.279 175.151 432.157 175.196C432.035 175.24 431.905 175.26 431.775 175.254C431.58 175.246 431.392 175.182 431.234 175.067C431.076 174.953 430.956 174.795 430.888 174.612C430.82 174.429 430.808 174.231 430.853 174.041C430.898 173.852 430.998 173.68 431.141 173.547C431.284 173.414 431.462 173.327 431.655 173.296C431.847 173.265 432.044 173.291 432.222 173.372C432.399 173.454 432.548 173.585 432.65 173.751C432.753 173.917 432.804 174.109 432.797 174.304Z" fill="#31A438"/>
<path d="M428.793 195.096C428.788 195.292 428.725 195.481 428.613 195.641C428.5 195.8 428.342 195.922 428.159 195.992C427.977 196.062 427.778 196.076 427.587 196.032C427.397 195.988 427.224 195.889 427.09 195.747C426.956 195.604 426.867 195.425 426.836 195.233C426.804 195.04 426.83 194.842 426.91 194.664C426.991 194.486 427.123 194.336 427.289 194.233C427.455 194.131 427.648 194.079 427.844 194.087C428.103 194.096 428.348 194.207 428.526 194.396C428.704 194.585 428.8 194.837 428.793 195.096Z" fill="#31A438"/>
<path d="M424.792 215.889C424.783 216.152 424.67 216.4 424.479 216.58C424.288 216.76 424.033 216.857 423.77 216.851C423.641 216.846 423.514 216.816 423.396 216.762C423.278 216.708 423.172 216.632 423.084 216.537C422.996 216.442 422.927 216.33 422.882 216.209C422.837 216.088 422.816 215.958 422.821 215.829C422.825 215.7 422.854 215.572 422.907 215.454C422.961 215.336 423.037 215.23 423.131 215.141C423.225 215.052 423.336 214.983 423.457 214.937C423.578 214.891 423.707 214.87 423.837 214.874C423.966 214.877 424.093 214.907 424.211 214.96C424.33 215.013 424.436 215.089 424.525 215.183C424.613 215.278 424.683 215.389 424.729 215.51C424.774 215.631 424.796 215.76 424.792 215.889Z" fill="#31A438"/>
<path d="M420.777 236.694C420.77 236.889 420.705 237.077 420.591 237.235C420.477 237.393 420.318 237.513 420.136 237.581C419.953 237.649 419.754 237.661 419.565 237.616C419.375 237.571 419.203 237.471 419.07 237.328C418.938 237.186 418.85 237.007 418.819 236.814C418.788 236.622 418.815 236.425 418.896 236.248C418.977 236.07 419.109 235.921 419.275 235.819C419.44 235.716 419.633 235.666 419.828 235.673C419.958 235.676 420.086 235.705 420.204 235.758C420.323 235.811 420.429 235.888 420.518 235.983C420.606 236.078 420.675 236.19 420.719 236.312C420.764 236.434 420.784 236.564 420.777 236.694Z" fill="#31A438"/>
<path d="M431.942 154.929C431.806 154.93 431.675 154.883 431.57 154.798C431.465 154.712 431.392 154.593 431.365 154.461C431.347 154.383 431.345 154.303 431.358 154.225C431.372 154.147 431.4 154.072 431.443 154.005C431.485 153.938 431.541 153.88 431.606 153.834C431.671 153.789 431.744 153.757 431.822 153.74L434.802 153.103C434.88 153.085 434.961 153.083 435.04 153.097C435.119 153.112 435.194 153.141 435.262 153.185C435.329 153.229 435.387 153.285 435.431 153.352C435.476 153.418 435.508 153.493 435.523 153.571C435.539 153.649 435.54 153.728 435.525 153.806C435.51 153.883 435.479 153.957 435.436 154.023C435.392 154.089 435.336 154.145 435.271 154.19C435.205 154.234 435.132 154.265 435.055 154.28L432.074 154.917L431.942 154.929Z" fill="#31A438"/>
<path d="M441.907 143.859C440.489 147.537 439.285 151.293 438.301 155.109C437.4 159.352 437.352 168.847 437.352 168.847" fill="#31A438"/>
<path d="M437.351 169.446C437.191 169.44 437.04 169.373 436.929 169.259C436.817 169.145 436.753 168.993 436.75 168.833C436.75 168.448 436.822 159.218 437.724 154.987C438.702 151.138 439.906 147.349 441.329 143.641C441.353 143.562 441.393 143.489 441.447 143.426C441.501 143.363 441.567 143.312 441.641 143.276C441.715 143.239 441.796 143.219 441.879 143.215C441.962 143.212 442.044 143.226 442.121 143.255C442.198 143.285 442.268 143.331 442.327 143.389C442.386 143.447 442.432 143.517 442.463 143.593C442.493 143.67 442.508 143.753 442.505 143.835C442.502 143.918 442.482 143.999 442.447 144.074C441.031 147.723 439.827 151.451 438.841 155.239C437.964 159.374 437.904 168.749 437.892 168.845C437.893 168.994 437.838 169.139 437.738 169.25C437.638 169.361 437.5 169.431 437.351 169.446Z" fill="#31A438"/>
<path d="M49.4027 297.614C47.6724 297.533 45.9824 297.064 44.4575 296.242C42.9326 295.421 41.6119 294.267 40.5928 292.866C40.5428 292.802 40.5065 292.728 40.486 292.649C40.4656 292.57 40.4614 292.488 40.4737 292.407C40.4861 292.326 40.5147 292.249 40.5578 292.18C40.601 292.111 40.6578 292.051 40.7247 292.005C40.7917 291.958 40.8674 291.926 40.9473 291.909C41.0272 291.893 41.1096 291.893 41.1895 291.91C41.2693 291.926 41.345 291.959 41.4118 292.005C41.4787 292.052 41.5353 292.112 41.5784 292.181C43.8259 295.426 48.7898 297.145 50.9532 296.123C51.1699 296.031 51.363 295.892 51.5181 295.715C50.4249 295.234 49.4671 294.491 48.7292 293.552C47.9914 292.612 47.4962 291.506 47.2874 290.33C47.011 288.804 46.7946 286.724 48.0446 286.46C49.7753 286.075 52.0349 290.246 52.8522 293.407C53.0002 293.93 53.0532 294.476 53.0085 295.018C53.7017 295.224 54.4308 295.282 55.1478 295.186C55.4709 295.161 55.7853 295.069 56.0709 294.916C56.3565 294.763 56.607 294.552 56.8065 294.296C56.0155 293.7 55.3593 292.942 54.8809 292.075C54.4025 291.207 54.1125 290.248 54.0301 289.26C53.5733 285.967 53.9219 285.402 54.2825 285.114C54.3993 285.024 54.5387 284.969 54.6852 284.954C54.8317 284.939 54.9794 284.965 55.1118 285.03C56.3978 285.571 57.9483 290.234 58.2488 292.878C58.2848 293.153 58.2848 293.432 58.2488 293.708C58.7669 293.907 59.3163 294.012 59.8713 294.02C60.8905 294.06 61.8985 293.796 62.7679 293.263C62.5996 293.155 62.4434 293.034 62.2872 292.914C61.0852 291.845 60.5324 290.138 60.7487 287.71C60.917 285.823 61.3376 284.789 62.0948 284.465C62.3391 284.367 62.6066 284.342 62.8648 284.393C63.123 284.444 63.3608 284.569 63.5491 284.753C64.3605 285.649 64.9668 286.711 65.3259 287.865C65.685 289.019 65.7882 290.238 65.6284 291.436C65.5241 291.935 65.3152 292.406 65.0155 292.818C67.227 293.203 70.3279 292.578 73.0081 291.917C73.087 291.898 73.1689 291.895 73.2491 291.907C73.3292 291.92 73.4061 291.948 73.4753 291.991C73.5445 292.033 73.6047 292.089 73.6524 292.154C73.7001 292.22 73.7344 292.294 73.7533 292.373C73.7722 292.452 73.7755 292.534 73.7628 292.614C73.7501 292.694 73.7217 292.771 73.6793 292.841C73.6369 292.91 73.5812 292.97 73.5156 293.018C73.4499 293.065 73.3755 293.1 73.2966 293.119C70.0394 293.924 66.5299 294.585 64.0539 293.864C62.8453 294.783 61.3654 295.273 59.8473 295.258C59.1736 295.249 58.5066 295.123 57.8762 294.885C57.5965 295.318 57.2214 295.68 56.7797 295.945C56.3379 296.21 55.8413 296.369 55.3281 296.412C54.4247 296.528 53.5068 296.45 52.6359 296.183C52.3555 296.656 51.9355 297.029 51.434 297.253C50.7893 297.513 50.0975 297.636 49.4027 297.614ZM48.3691 287.662C48.2028 288.479 48.2358 289.324 48.4653 290.126C48.6348 291.087 49.0336 291.993 49.6278 292.767C50.222 293.541 50.9941 294.161 51.8787 294.573C51.8619 294.288 51.8135 294.006 51.7344 293.732C50.7969 290.294 48.9941 287.926 48.3691 287.662ZM55.0637 286.616C55.0715 287.445 55.1398 288.273 55.268 289.092C55.4005 290.558 56.0478 291.929 57.0949 292.962C56.7992 290.743 56.1114 288.595 55.0637 286.616ZM62.6237 285.571C62.6237 285.571 62.167 285.799 61.9987 287.806C61.8304 289.813 62.179 291.196 63.1165 292.001C63.3383 292.181 63.5803 292.334 63.8376 292.458C64.1537 292.119 64.3772 291.705 64.4866 291.256C64.7007 289.364 64.1896 287.461 63.0564 285.931C62.804 285.619 62.6597 285.571 62.6237 285.571Z" fill="#30367A"/>
<path d="M225.314 306.7L228.571 301.051L225.314 295.402H221.828L223.799 301.051L221.828 306.7H225.314Z" fill="#30367A"/>
<path d="M222.056 303.995C221.654 304.02 221.251 303.964 220.873 303.827C220.494 303.691 220.147 303.479 219.853 303.204C219.56 302.928 219.326 302.596 219.166 302.226C219.006 301.857 218.923 301.459 218.923 301.056C218.923 300.654 219.006 300.255 219.166 299.886C219.326 299.517 219.56 299.184 219.853 298.908C220.147 298.633 220.494 298.421 220.873 298.285C221.251 298.149 221.654 298.092 222.056 298.117L216.527 297.012L215.049 301.483L217.525 305.257L222.056 303.995Z" fill="#30367A"/>
<path d="M222.537 295.402H216.011L212.754 301.051L216.011 306.7H222.537L225.795 301.051L222.537 295.402ZM219.28 303.996C218.697 303.998 218.127 303.828 217.641 303.506C217.155 303.183 216.776 302.724 216.551 302.187C216.326 301.649 216.266 301.056 216.379 300.484C216.491 299.912 216.77 299.386 217.182 298.973C217.593 298.56 218.118 298.279 218.689 298.164C219.261 298.05 219.854 298.107 220.392 298.33C220.931 298.552 221.392 298.93 221.716 299.414C222.04 299.899 222.213 300.468 222.213 301.051C222.213 301.83 221.904 302.577 221.355 303.129C220.805 303.681 220.059 303.993 219.28 303.996Z" fill="#44B64B"/>
<path d="M452.498 295.016L450.082 290.822L452.498 286.627H455.082L453.628 290.822L455.082 295.016H452.498Z" fill="#44B64B"/>
<path d="M454.914 293.01C455.214 293.033 455.516 292.993 455.8 292.893C456.084 292.794 456.344 292.637 456.564 292.432C456.785 292.227 456.961 291.979 457.081 291.703C457.201 291.427 457.264 291.13 457.264 290.829C457.264 290.528 457.201 290.23 457.081 289.954C456.961 289.679 456.785 289.431 456.564 289.226C456.344 289.021 456.084 288.864 455.8 288.764C455.516 288.665 455.214 288.625 454.914 288.647L459.025 287.83L460.118 291.147L458.291 293.948L454.914 293.01Z" fill="#44B64B"/>
<path d="M454.566 286.627H459.374L461.777 290.822L459.374 295.016H454.566L452.162 290.822L454.566 286.627ZM456.97 293.009C457.403 293.011 457.827 292.885 458.188 292.646C458.55 292.407 458.832 292.067 458.999 291.667C459.167 291.268 459.212 290.827 459.129 290.402C459.046 289.977 458.838 289.586 458.533 289.279C458.227 288.972 457.838 288.762 457.413 288.677C456.988 288.592 456.548 288.634 456.147 288.8C455.747 288.965 455.405 289.245 455.164 289.605C454.923 289.965 454.794 290.388 454.794 290.822C454.793 291.109 454.848 291.394 454.958 291.661C455.067 291.927 455.228 292.168 455.431 292.372C455.635 292.575 455.877 292.736 456.143 292.846C456.409 292.955 456.694 293.011 456.982 293.009H456.97Z" fill="#30367A"/>
<path d="M362.486 300.593H367.919C368.599 300.59 369.25 300.318 369.73 299.836C370.209 299.354 370.479 298.701 370.479 298.021C370.479 297.341 370.209 296.689 369.73 296.207C369.25 295.725 368.599 295.452 367.919 295.449H362.486C361.804 295.449 361.15 295.72 360.667 296.203C360.185 296.685 359.914 297.339 359.914 298.021C359.914 298.703 360.185 299.358 360.667 299.84C361.15 300.322 361.804 300.593 362.486 300.593Z" fill="#30367A"/>
<path d="M353.75 295.739C354.254 294.822 355.016 294.072 355.941 293.583C356.865 293.094 357.913 292.886 358.955 292.985C359.997 293.084 360.987 293.486 361.803 294.141C362.619 294.796 363.225 295.675 363.547 296.671C363.87 297.666 363.893 298.735 363.616 299.743C363.338 300.752 362.771 301.658 361.985 302.349C361.199 303.039 360.228 303.485 359.192 303.63C358.156 303.775 357.1 303.614 356.154 303.167C354.854 302.496 353.872 301.339 353.422 299.948C352.971 298.556 353.089 297.043 353.75 295.739Z" fill="#44B64B"/>
<path d="M355.214 303.165L356.703 303.867L361.879 292.887L360.39 292.185L355.214 303.165Z" fill="#30367A"/>
</svg>
