<svg width="196" height="80" viewBox="0 0 196 80" fill="none" xmlns="http://www.w3.org/2000/svg">
<path d="M67.5243 40.4087C68.6745 40.3784 70.0338 39.8945 71.3781 39.9399C71.6022 39.3804 71.647 38.7755 71.8113 38.216C72.0055 37.5204 72.3789 36.8853 72.588 36.1746C72.6627 35.9024 72.7075 35.6302 72.7971 35.358C72.8569 35.1614 72.9615 34.98 73.0361 34.7834C73.081 34.6776 73.1108 34.5717 73.1407 34.4659C73.1706 34.3449 73.1556 34.239 73.2005 34.1332C73.2453 33.9971 73.305 33.8761 73.3498 33.74C73.4245 33.4829 73.4843 33.2108 73.544 32.9386C73.6336 32.5152 73.8278 32.1371 73.9623 31.7288C74.0967 31.3054 74.1714 30.8971 74.261 30.4586C74.3357 30.0503 74.5597 29.7176 74.6942 29.3396C74.8734 28.8557 74.9631 28.3567 75.1572 27.8577C75.3813 27.3284 75.4859 26.7689 75.6502 26.2397C75.934 25.3475 76.3821 24.3797 76.7555 23.5026C77.0095 22.9129 77.2933 22.308 77.4576 21.6578C77.5024 21.4461 77.5472 21.2193 77.607 21.0076C77.6667 20.8261 77.846 20.312 78.0401 20.2666C78.3986 20.1759 78.9364 20.9471 79.1306 21.2041C79.2501 21.3554 79.3546 21.5368 79.4442 21.7183C79.5189 21.8846 79.6235 22.0207 79.6534 22.2022C79.6832 22.3836 79.6683 22.5651 79.6384 22.7466C79.5787 23.1246 79.4592 23.5026 79.3247 23.8656C79.2501 24.047 79.1754 24.2436 79.1007 24.4251C78.8617 25.0602 78.6675 25.6348 78.4285 26.2548C78.0849 27.147 77.6966 28.0089 77.4128 28.9464C77.2186 29.5664 77.0244 30.1864 76.8153 30.8064C76.5613 31.5474 76.3373 32.1674 76.158 32.9839C76.0385 33.5283 75.7846 34.0576 75.5904 34.5868C75.3962 35.1161 75.217 35.6756 75.0527 36.22C74.7838 37.1575 74.3805 38.0497 74.1863 39.0175C74.1415 39.1989 74.1116 39.3955 74.0519 39.577C73.9921 39.7433 73.9324 39.8794 73.9772 40.0609C74.5299 40.2121 75.2021 40.197 75.7995 40.197C75.9788 39.7736 76.173 39.3502 76.3373 38.9116C76.636 38.2765 76.9945 37.4902 77.607 36.8853C77.7265 36.7795 77.8609 36.719 77.9505 36.598C78.3837 36.0688 78.9065 35.5849 79.6534 35.1917C79.7878 35.1161 80.1911 34.9346 80.3106 34.9346C80.7737 34.9195 80.9828 35.5244 81.3562 35.721C81.5952 35.8419 81.8193 35.978 82.0433 36.1292C82.3122 36.2956 82.5213 36.4468 82.7006 36.719C82.8649 36.9761 82.9844 37.2482 83.0142 37.5658C83.0441 37.8985 82.8798 38.2916 82.8201 38.7604C82.7304 39.4258 82.7006 39.9701 82.4168 40.3784C82.1628 40.5901 81.879 40.7716 81.5952 40.953L81.1919 41.2252C80.9828 41.3613 80.8334 41.4369 80.6093 41.4974C80.3853 41.5579 80.1612 41.6335 79.9372 41.7091C79.4891 41.8755 79.0409 42.0569 78.5779 42.1628C78.5032 42.1779 77.7862 42.2686 77.7862 42.2686C77.5621 43.2515 77.846 44.5671 78.3239 45.2476C78.6526 45.4139 79.1903 45.1418 79.5488 44.9452C79.9969 44.6881 80.445 44.2949 80.8334 43.932C81.6998 43.1155 82.4765 42.1628 83.074 41.1345C83.2234 40.8623 83.3578 40.6053 83.5371 40.3633C83.5968 40.2877 83.6715 40.197 83.7014 40.1062C83.8507 39.6828 84.0449 39.3048 84.2092 38.8965C84.3885 38.5033 84.6125 38.0194 84.6723 37.5809C84.7619 36.9609 84.493 36.3258 84.6574 35.7814C84.7171 35.5697 84.9113 35.3883 85.0308 35.2068C85.0905 35.101 85.1503 34.9951 85.1652 34.8741C85.1951 34.5566 85.5685 34.5112 85.8075 34.6624C86.0615 34.8288 86.181 35.1766 86.3751 35.4034C86.5544 35.6151 86.8681 35.8268 86.9278 35.9478C87.0623 36.2502 86.883 36.6131 87.1071 36.8097C87.6448 36.7039 88.0182 36.4014 88.4813 36.4468C88.7651 36.477 88.9892 36.6585 89.2282 36.7795C89.4672 36.9156 89.8406 36.9004 90.0198 37.1121C90.1543 37.2634 90.229 37.4599 90.3036 37.6414C90.468 38.0194 90.5725 38.4429 90.5426 38.8663C90.5128 39.2745 90.214 39.5165 90.0646 39.8038C88.9294 40.8321 87.9734 42.0267 87.5253 43.6296C87.5402 43.7808 87.361 44.0681 87.4506 44.2042C87.5402 44.3403 87.9286 43.932 88.0033 43.8715C88.0929 43.811 88.1676 43.7354 88.2423 43.6598C88.4962 43.433 88.7502 43.1911 89.0041 42.9642C89.512 42.5106 89.99 42.0267 90.3933 41.4974C90.0646 40.696 90.5576 40.0609 91.2447 40.5296C91.6928 40.076 91.9617 39.5014 92.3501 38.9721C92.4994 38.7755 92.6787 38.5941 92.7982 38.3824C92.9326 38.1555 93.0222 37.9136 93.1417 37.6716C93.2762 37.3843 93.5002 37.1878 93.6496 36.9156C93.799 36.6585 93.9334 36.4014 94.0678 36.1444C94.1425 36.0083 94.2023 35.8722 94.277 35.7361C94.3367 35.6302 94.3965 35.5244 94.4114 35.3883C94.4263 35.2522 94.3815 35.101 94.3815 34.9497C94.3666 34.7985 94.3666 34.6473 94.3516 34.4961C94.3516 34.3902 94.3068 34.1483 94.3516 34.0576C94.3965 33.9517 94.5608 33.9366 94.6803 33.9064C94.6952 33.9064 94.7251 33.74 94.7251 33.7249C94.755 33.6644 94.7848 33.619 94.8296 33.5737C94.9342 33.4829 95.0985 33.4678 95.2329 33.4678C95.4719 33.4678 95.7408 33.5585 95.8603 33.7703C95.935 33.9063 95.9798 34.0878 95.9948 34.239C96.3084 34.5263 96.7416 35.0254 96.7416 35.5849C96.7416 35.7966 96.5773 35.9931 96.5474 36.2048C96.4279 36.976 96.6072 37.9892 96.8014 38.8663C96.9806 39.6375 97.1001 40.7262 97.1599 41.6486C97.3989 41.5277 97.5034 41.2706 97.6379 41.0589C97.9217 40.6355 98.2055 40.197 98.4445 39.7131C98.7283 39.1687 98.8926 38.6999 99.2361 38.1858C99.4005 37.9287 99.5946 37.6868 99.7589 37.4448C100.103 36.9307 100.416 36.3863 100.805 35.978C101.073 35.7058 101.372 35.4488 101.671 35.2068C101.82 35.0858 101.97 34.9497 102.119 34.8288C102.253 34.7078 102.358 34.5415 102.522 34.4507C102.657 34.3751 102.821 34.36 102.956 34.3146C103.12 34.2693 103.284 34.2239 103.463 34.2088C103.777 34.1634 104.106 34.1332 104.39 34.2844C104.658 34.4356 105.002 34.6019 105.166 34.8741C105.331 35.1614 105.465 35.4185 105.779 35.5395C105.868 35.5697 105.958 35.5849 106.048 35.5697C106.197 35.5546 106.346 35.5092 106.481 35.6151C106.6 35.721 106.66 35.8873 106.675 36.0385C106.72 36.3712 106.615 36.6887 106.511 36.9912C106.466 37.1273 106.406 37.2482 106.361 37.3843C106.316 37.5053 106.212 37.5809 106.137 37.6868C106.048 37.8229 105.958 37.959 105.883 38.1102C105.779 38.2916 105.719 38.5033 105.629 38.6999C105.555 38.8965 105.42 39.0477 105.331 39.2443C105.166 39.577 105.062 39.834 104.524 39.6375C104.36 39.577 104.21 39.456 104.076 39.3502C103.956 39.2594 103.822 39.1838 103.732 39.0477C103.628 38.8965 103.658 38.7302 103.613 38.5487C103.568 38.3672 103.478 38.2311 103.478 38.1253C103.463 37.9438 103.568 37.8077 103.643 37.6565C103.687 37.5658 103.747 37.3843 103.643 37.3087C103.538 37.218 103.329 37.2936 103.224 37.3541C102.926 37.5053 102.731 37.8531 102.507 38.0951C102.194 38.4429 101.835 38.8058 101.581 39.1989C101.462 39.3804 101.357 39.6375 101.208 39.8643C101.073 40.076 100.894 40.2877 100.819 40.5448C100.595 41.3311 100.461 41.9208 101.088 42.5257C101.178 42.6164 101.268 42.6164 101.387 42.6618C101.477 42.692 101.551 42.7525 101.626 42.7979C101.835 42.934 102.074 43.0096 102.328 42.9794C103.015 42.9037 103.986 42.3745 104.614 42.0569C104.897 41.9208 105.121 41.6487 105.375 41.4672C105.644 41.2706 105.898 41.0589 106.092 40.7867C106.137 40.7111 106.212 40.5901 106.257 40.4843C106.481 39.9853 106.675 39.5014 106.869 39.0024C106.989 38.6697 107.138 38.3521 107.257 38.0346C107.317 37.8682 107.377 37.7019 107.422 37.5204C107.511 37.1878 107.78 36.9458 107.915 36.6434C108.094 36.2653 108.258 35.8722 108.438 35.479L108.751 34.7985C108.945 34.3902 109.08 33.9517 109.244 33.5132C109.319 33.3015 109.408 33.0898 109.513 32.8932C109.603 32.7117 109.707 32.5454 109.752 32.3488C109.782 32.1522 109.842 31.9859 109.916 31.8044C110.006 31.623 110.11 31.4415 110.17 31.2449C110.349 30.7308 110.618 30.262 110.827 29.763C110.962 29.4152 111.066 29.0372 111.246 28.7045C111.515 28.2055 111.664 27.6309 111.933 27.1167C112.112 26.784 112.247 26.4967 112.396 26.0884C112.515 25.7558 112.784 25.4987 112.934 25.1811C113.128 24.788 113.217 24.3343 113.412 23.926C113.591 23.548 113.8 23.1851 113.949 22.7919C114.099 22.4139 114.203 22.051 114.383 21.688C114.502 21.4612 114.711 20.8261 114.92 20.7505C115.503 20.5539 115.996 21.4915 116.25 21.8846C116.354 22.051 116.459 22.2475 116.489 22.429C116.548 22.7466 116.444 23.17 116.369 23.5178C116.175 24.546 115.727 25.3172 115.368 26.1489C114.472 27.7518 113.576 29.3698 112.65 30.9425C112.5 31.1845 112.336 31.4415 112.202 31.6835C112.097 31.88 112.067 32.1069 111.993 32.3186C111.918 32.5303 111.783 32.7269 111.679 32.9234C111.589 33.1049 111.515 33.2712 111.47 33.4678C111.425 33.6342 111.395 33.8005 111.32 33.9517C111.231 34.1029 111.156 34.2693 111.081 34.4356C111.38 34.3298 111.649 34.1785 111.918 34.0122C112.052 33.9366 112.172 33.8459 112.306 33.7551C112.53 33.6039 112.859 33.5283 113.113 33.4376C113.397 33.3166 113.681 33.2864 113.979 33.362C114.338 33.4527 114.651 33.6644 114.935 33.8912C115.144 34.0424 115.353 34.1937 115.533 34.3902C115.682 34.5717 115.891 34.8288 115.951 35.0556C116.1 35.5697 115.817 35.9629 115.742 36.4014C115.697 36.6283 115.742 36.8551 115.697 37.0819C115.652 37.2634 115.578 37.4448 115.488 37.6263C115.309 37.9741 115.085 38.3068 114.905 38.6697C114.816 38.8663 114.741 39.078 114.651 39.2745C114.532 39.5165 114.338 39.698 114.233 39.9399C114.129 40.1818 114.054 40.4238 113.949 40.6657C113.83 40.9379 113.71 41.195 113.606 41.4672C113.501 41.7394 113.247 42.2233 113.621 42.3594C113.86 42.435 114.412 42.1174 114.696 41.8755C114.92 41.694 115.114 41.4823 115.339 41.3008C115.578 41.1194 115.831 40.9682 116.041 40.7413C116.28 40.4843 116.519 40.2272 116.728 39.955C116.847 39.4862 116.802 38.8511 116.952 38.3521C117.086 37.9287 117.34 37.4448 117.564 36.9609C118.117 35.7814 118.804 34.98 119.82 34.1483C120.029 33.982 120.208 33.7551 120.372 33.6795C120.925 33.4376 121.702 33.6795 122.06 34.0122C122.299 34.2239 122.598 34.4659 122.882 34.6927C123.24 34.9951 123.763 35.2824 123.883 35.7814C123.942 36.0385 123.883 36.2956 123.838 36.5526C123.778 36.8551 123.718 37.1575 123.644 37.4448C123.569 37.7321 123.449 38.0799 123.27 38.3219C123.181 38.4429 122.986 38.5941 122.837 38.7453C122.568 39.0175 122.269 39.2443 121.986 39.5014C121.627 39.8189 121.254 40.1214 120.85 40.3935C120.596 40.5599 120.253 40.9228 119.805 40.8472C119.446 40.7867 119.192 40.3936 118.879 40.2423C118.67 40.9682 119.088 41.6638 119.476 42.2535C119.581 42.4047 119.7 42.4652 119.865 42.5106C120.283 42.6467 120.701 42.3745 121.03 42.1477C121.552 41.7999 121.866 41.3916 122.329 41.0135C122.583 40.8018 122.867 40.6355 123.061 40.4389C123.21 40.2877 123.345 40.0458 123.479 39.8643C123.718 39.5165 124.017 39.1082 124.346 38.8058C124.51 38.6394 124.734 38.5336 124.898 38.3672C125.033 38.2311 125.197 37.9892 125.406 37.7473C125.854 37.218 126.019 36.7795 126.108 36.0083C126.168 35.5092 126.198 34.9951 126.273 34.481C126.332 34.0576 126.377 33.5888 126.482 33.1049C126.541 32.8176 126.586 32.5756 126.646 32.1976C126.855 30.8367 127.468 29.5059 127.856 28.2206C127.961 27.903 127.99 27.5552 128.095 27.2226C128.2 26.905 128.394 26.6328 128.483 26.3153C128.558 26.0431 128.603 25.7558 128.692 25.4987C128.797 25.2265 128.976 24.9997 129.126 24.7426C129.26 24.5007 129.365 24.2285 129.484 23.9865C129.962 22.9734 130.44 21.9149 130.963 20.9017C131.232 20.3876 131.56 19.9037 131.784 19.4349C131.964 19.072 132.009 18.4822 132.472 18.4218C132.86 18.3613 133.547 18.6486 133.786 18.83C134.189 19.1476 133.921 20.1456 133.801 20.6598C133.696 21.0832 133.622 21.5066 133.592 21.9451C133.577 22.1266 133.577 22.308 133.517 22.4744C133.383 22.928 133.263 23.3514 133.189 23.8202C133.114 24.3192 133.054 24.8182 132.965 25.3172C132.92 25.5894 132.77 25.8314 132.74 26.1187C132.711 26.4362 132.711 26.7689 132.576 27.0714C132.397 27.4796 132.248 27.8728 132.143 28.2962C132.038 28.7196 131.919 29.1581 131.695 29.5362C131.501 29.8537 131.396 30.2015 131.277 30.5645C131.142 30.9425 130.948 31.3054 130.799 31.6835C130.545 32.243 130.306 32.8176 130.022 33.362C129.529 34.3146 128.946 35.2371 128.394 36.1746C128.274 36.3561 128.2 36.5829 128.11 36.7341C127.975 36.9458 127.781 37.0819 127.722 37.2785C127.602 37.7473 127.662 38.5336 127.751 39.1989C127.811 39.6526 127.826 40.1062 127.886 40.5599C127.916 40.7716 127.946 40.9833 127.99 41.1799C128.02 41.3008 128.05 41.573 128.2 41.6335C128.409 41.7091 128.737 41.6789 128.961 41.6638C129.215 41.6486 129.469 41.5882 129.693 41.4521C129.873 41.3311 130.067 41.2404 130.261 41.1345C130.44 41.0438 130.604 40.8926 130.784 40.817C131.232 40.6506 131.59 40.2726 131.919 39.9248C132.158 39.6828 132.442 39.078 132.8 39.0175C133.263 38.9419 133.457 39.4862 133.293 39.9248C133.174 40.2423 132.965 40.5296 132.785 40.8321C132.561 41.195 132.367 41.5277 132.053 41.8301C131.71 42.1477 131.336 42.435 130.963 42.7223C130.873 42.7979 130.814 42.9037 130.709 42.9642C130.604 43.0398 130.485 43.0701 130.38 43.1608C130.171 43.3272 129.932 43.433 129.708 43.5691C129.469 43.7052 129.245 43.8564 128.961 43.9169C128.588 43.9925 128.214 43.9925 127.841 43.9925C127.587 43.9925 127.318 44.053 127.064 43.932C126.825 43.8111 126.601 43.6447 126.347 43.5237C125.989 43.3574 125.825 42.9945 125.735 42.6316C125.615 42.1779 125.541 41.7243 125.511 41.2555C125.496 40.9984 125.481 40.7262 125.481 40.4692C124.181 41.4067 122.688 43.2364 121.239 44.174C120.925 44.3706 120.163 44.4462 119.715 44.3252C119.357 44.2345 119.073 43.9471 118.714 43.811C118.445 43.7052 118.221 43.5993 118.027 43.3725C117.788 43.0852 117.609 42.7677 117.385 42.4803C117.265 42.314 117.131 42.1628 116.967 42.0569C116.922 42.0267 116.653 42.2384 116.608 42.2535C116.444 42.3442 116.354 42.4501 116.22 42.5862C116.13 42.6769 116.026 42.7677 115.936 42.8584C115.727 43.0398 115.503 43.2062 115.264 43.3423C114.756 43.6296 114.173 43.8715 113.591 43.932C113.412 43.9471 113.247 43.9471 113.068 43.932C112.695 43.8867 112.411 43.7808 112.097 43.5842C111.828 43.433 111.515 43.2969 111.35 43.0247C111.261 42.8584 111.201 42.6467 111.186 42.4501C111.171 42.193 111.305 41.815 111.38 41.4823C111.44 41.1648 111.515 40.817 111.604 40.5448C111.783 40.0306 112.082 39.5165 112.261 38.9872C112.396 38.6243 112.575 38.2765 112.725 37.9136C112.859 37.5809 112.874 37.2331 112.934 36.8853C112.964 36.6131 113.038 36.2502 112.829 36.0385C112.426 35.6605 111.724 35.9478 111.35 36.1897C111.141 36.3107 110.947 36.4468 110.738 36.5678C110.588 36.6585 110.394 36.7341 110.275 36.8853C110.185 36.9912 110.11 37.1273 110.006 37.2331C109.871 37.3692 109.722 37.4902 109.603 37.6414C109.468 37.7926 109.438 37.9438 109.379 38.1253C109.334 38.2765 109.274 38.4126 109.214 38.5487C109.11 38.8209 108.975 39.0931 108.871 39.3653C108.736 39.7131 108.542 40.1062 108.393 40.575C108.169 41.2706 107.87 42.0721 107.706 42.8584C107.631 43.2515 107.646 43.675 107.511 44.053C107.467 44.174 107.257 44.4764 107.123 44.5066C106.974 44.5369 106.66 44.3403 106.436 44.2647C105.973 44.0832 105.57 44.0379 105.45 43.4481C105.077 43.5691 104.823 43.7657 104.494 43.9471C104.375 44.0228 104.24 44.1437 104.106 44.2193C103.956 44.2949 103.792 44.3252 103.628 44.3554C103.553 44.3705 103.463 44.3857 103.389 44.4159C103.224 44.4764 103.12 44.5218 102.941 44.5218H102.373C102 44.5066 101.626 44.4613 101.253 44.4159C101.044 44.3857 100.834 44.4159 100.625 44.3252C100.446 44.2496 100.297 44.1135 100.147 43.9925C99.8187 43.7354 99.52 43.4028 99.281 43.055C99.042 42.7072 98.8926 42.2838 98.7731 41.7394C98.4893 41.9208 98.2652 42.2384 98.071 42.5408C97.8768 42.8281 97.7125 43.1306 97.5034 43.4179C97.1001 43.9774 96.6819 44.6276 96.1889 45.0359C95.7856 45.3686 94.8595 45.6559 94.1425 45.55C92.7832 45.3383 91.9617 44.2647 91.2596 43.2364C90.7667 43.6901 90.1841 44.3101 89.6016 44.8242C89.1983 45.172 89.034 45.3686 88.5261 45.5954C88.1975 45.7466 87.8241 45.7769 87.4656 45.7617C87.2714 45.7617 87.0772 45.7315 86.8979 45.7013C86.7336 45.671 86.5693 45.6559 86.4349 45.55C86.3005 45.4442 86.2108 45.2627 86.1361 45.1115C85.9718 44.7335 85.8673 44.3252 85.8374 43.9018C85.8075 43.6598 85.8075 43.4179 85.7926 43.1759C85.7926 42.9189 85.8374 42.6164 85.8971 42.3745C85.9569 42.1477 86.0764 41.7847 86.166 41.5277C86.2556 41.2404 86.4349 40.8472 86.5992 40.5296C86.7336 40.2877 87.122 39.7584 87.1071 39.5921C87.0623 39.1536 86.3453 39.2141 86.0913 39.0628C85.703 39.3502 85.5536 39.8492 85.2698 40.2575C85.1353 40.454 85.0009 40.6506 84.8963 40.8623C84.7769 41.074 84.7022 41.316 84.5827 41.5277C84.4632 41.7394 84.269 41.9208 84.1495 42.1325C84.03 42.3442 83.9105 42.5711 83.7761 42.7677C83.4922 43.1911 83.2831 43.6598 83.0292 44.0681C82.7902 44.4462 82.5064 44.8696 82.1479 45.2627C81.7894 45.6559 81.401 46.1095 80.9081 46.3364C80.6542 46.4573 80.3704 46.4725 80.1015 46.5027C79.7878 46.5329 79.4741 46.5934 79.1604 46.6539C78.8318 46.7295 78.4733 46.8051 78.1298 46.7749C77.8908 46.7447 77.6219 46.6086 77.3829 46.5027C77.2036 46.4271 77.0095 46.3666 76.8302 46.2456C76.636 46.1095 76.5315 45.9281 76.412 45.7315C76.3223 45.5803 76.173 45.4744 76.0834 45.3232C75.5755 44.5218 75.4859 43.4179 75.4709 42.2535C74.7539 42.193 74.0071 42.1325 73.32 42.0267C73.2602 42.0116 72.7822 43.6749 72.7374 43.8262C72.5582 44.4613 72.3938 45.0964 72.2594 45.7466C72.1997 46.0188 72.1997 46.291 72.125 46.5632C72.0951 46.6842 72.0204 46.79 71.9756 46.911C71.6022 47.8939 71.2735 48.8768 70.9897 49.89C70.9449 50.0714 70.8702 50.2378 70.7806 50.4041C70.6462 50.646 70.4968 50.5402 70.2727 50.6158C70.1682 50.646 70.1084 50.7368 69.9889 50.7065C69.8694 50.6763 69.8246 50.5553 69.7948 50.4495C69.735 50.1924 69.8097 49.9202 69.8097 49.6631C69.8097 49.27 69.7051 48.8617 69.7201 48.4383C69.735 48.1207 69.7948 47.8032 69.8097 47.4856C69.8545 47.0168 69.9591 46.5632 70.0487 46.1095C70.1981 45.3686 70.1981 44.6427 70.3474 43.9623C70.4819 43.312 70.6462 42.6164 70.8105 42.0267C69.496 42.1779 68.1068 42.5257 66.9567 42.9189C66.7924 43.0247 66.8372 43.2667 66.7625 43.5086C66.6878 43.7808 66.5235 44.0379 66.4637 44.3554C66.3144 45.1418 66.1052 45.9583 66.0156 46.8051C65.9559 47.2588 65.926 47.652 65.8214 48.0905C65.5974 49.149 65.4032 50.2075 65.1493 51.2509C65.1194 51.3719 65.1194 51.5231 65.0447 51.629C64.9551 51.7348 64.8206 51.7348 64.731 51.8255C64.6115 51.9465 64.6115 52.2489 64.4472 52.3246C64.3277 52.385 63.8796 52.2489 63.775 52.1431C63.6705 52.0524 63.6705 51.8255 63.6555 51.7046C63.5958 51.3568 63.5958 50.9938 63.6107 50.646C63.6257 50.1168 63.7153 49.5724 63.8049 49.0583C63.8497 48.771 63.9095 48.4837 63.9543 48.1812C64.1634 46.79 64.2231 45.4442 64.4771 44.1437C64.1335 44.2345 63.5659 44.4915 63.1626 44.4008C62.8937 44.3403 62.4904 43.9471 62.3411 43.6296C62.2066 43.3423 62.117 43.055 62.0722 42.7374C62.0572 42.6164 61.9676 42.3896 62.0124 42.2686C62.0572 42.1325 62.1469 42.1628 62.2514 42.193C62.4755 42.2535 62.6398 42.1325 62.8639 42.0569L63.6257 41.7847C64.1186 41.6184 64.6115 41.4672 65.0596 41.1799C65.1642 40.7867 65.1941 40.3633 65.2837 39.955C65.4779 39.078 65.6721 38.2463 65.8662 37.3087C65.9409 36.9458 65.9559 36.5526 66.0455 36.1897C66.0754 36.0688 66.1351 35.978 66.165 35.857C66.1949 35.7361 66.165 35.6 66.1949 35.479C66.2247 35.3127 66.2696 35.1614 66.3293 35.0102C66.4339 34.6927 66.5384 34.3751 66.5982 34.0424C66.7475 33.1956 66.7924 32.2732 67.0015 31.4113C67.1957 30.6249 67.5243 29.8386 67.6438 28.9767C67.6886 28.6289 67.6737 28.2962 67.7633 27.9484C67.8081 27.767 67.9575 27.6309 68.0023 27.4494C68.0471 27.2831 68.0023 27.0865 68.0471 26.905C68.3608 25.3777 68.9135 23.9109 69.3168 22.4139C69.3765 22.2022 69.4213 22.0056 69.4661 21.7939C69.5109 21.5822 69.5109 21.3705 69.6155 21.1739C69.7201 20.9773 69.8097 20.7656 69.8694 20.5388C69.9889 20.07 70.0487 19.6012 70.1532 19.1325C70.213 18.8905 70.2877 18.6486 70.4072 18.4218C70.5117 18.2403 70.9151 18.3915 71.0495 18.452C71.154 18.4974 71.2586 18.5579 71.3632 18.6032C71.5424 18.6637 71.6619 18.6939 71.7964 18.8452C71.9009 18.9661 72.0055 19.0871 72.1399 19.1778C72.3938 19.3744 72.6328 19.6315 72.7374 19.949C72.8121 20.1607 72.827 20.4027 72.8121 20.6295C72.7971 20.8412 72.6328 21.0681 72.5582 21.2798C72.3789 21.8695 72.2594 22.4139 72.0652 22.9734C71.5424 24.5309 71.0047 26.1792 70.4669 27.7821C70.3773 28.0391 70.2578 28.3113 70.1981 28.5684C70.0188 29.2791 69.9889 30.0352 69.7798 30.7308C69.6753 31.0635 69.5408 31.3659 69.4661 31.7137C69.3914 32.0615 69.272 32.3791 69.1823 32.7269C68.779 34.4054 68.4803 36.099 68.0322 37.7321C68.0471 38.7453 67.6438 39.456 67.5243 40.4087ZM131.545 24.4402C131.067 25.4987 130.604 26.4211 130.336 27.6762C130.261 27.7821 130.246 27.9787 130.171 28.1904C130.156 28.6894 128.842 31.9557 128.872 32.4093C129.17 31.9708 130.336 28.5382 130.575 28.0543C130.59 27.9484 130.619 27.9635 130.619 27.8879C131.157 26.8445 131.396 25.665 131.635 24.4402H131.545ZM80.6392 37.2482C79.967 37.8834 79.3845 38.6394 78.8467 39.3502C78.7123 39.5165 78.4883 39.7131 78.5331 39.955C79.7729 39.6072 80.7139 38.5941 80.7438 37.2482H80.6392ZM93.1567 43.433C93.3658 43.5993 93.6197 43.7506 93.7542 43.7506C93.9185 43.7354 94.2172 43.4632 94.3367 43.3423C94.6952 43.0096 94.979 42.5862 95.0089 42.1325C95.0686 40.9531 94.6952 39.577 94.6803 38.4277C94.6355 38.4277 94.6355 38.3975 94.5906 38.4126C93.6048 39.5316 93.1417 41.0891 92.2455 42.2838C92.4845 42.5257 92.6189 42.8584 92.828 43.1306C92.8878 43.1911 93.0073 43.312 93.1567 43.433ZM119.342 38.836C119.76 38.6697 121.582 36.9458 121.463 35.8117C120.701 35.6302 119.506 38.3521 119.342 38.836ZM95.0089 9.53021C95.0388 10.0746 95.2031 10.7399 95.218 11.4053C95.5466 11.4507 96.3682 11.0575 96.2935 11.5868C96.2487 11.9346 95.6213 11.8136 95.218 11.8892C95.2778 12.5848 95.3226 13.2955 95.457 13.9155C95.8155 13.9457 96.7416 13.5375 96.8312 13.9457C96.9358 14.4599 95.2628 14.4448 94.979 14.2482C94.7101 12.736 94.6952 10.8004 94.5906 9.21266C94.8296 9.06144 95.3823 9.06144 95.7856 9.0312C95.9649 9.01607 96.2487 8.97071 96.2935 9.18241C96.3682 9.60582 95.3973 9.46972 95.0089 9.53021ZM98.6835 9.49997C98.4594 9.19753 97.8918 9.40924 97.7723 9.71167C97.6827 9.90825 97.6827 10.2561 97.7574 10.4678C97.8918 10.8609 98.31 11.1482 98.5938 11.5868C98.9971 12.2067 99.4453 12.857 99.0718 13.734C98.7731 14.2028 97.7723 14.3843 97.369 13.7643C97.2196 13.5223 96.9358 12.116 97.4287 12.1614C97.8619 12.2067 97.4437 13.6282 98.1158 13.7038C98.4743 13.7492 98.7731 13.4467 98.7432 12.978C98.6536 11.8438 97.3242 11.3297 97.3092 10.1502C97.3092 9.95362 97.354 9.63606 97.4885 9.42436C97.9814 8.6834 99.1166 8.95559 99.1615 9.90825C99.1615 10.0292 99.1764 10.377 98.9523 10.3317C98.8478 10.3014 98.803 10.0746 98.788 9.99898C98.7581 9.81752 98.7731 9.65118 98.6835 9.49997ZM102.059 9.53021C101.88 9.74191 101.432 9.53021 101.133 9.56045C101.118 10.8156 101.088 12.0707 100.984 13.3106L100.939 13.8096C100.909 14.0365 100.909 14.2784 100.595 14.2331C100.342 14.0516 100.491 13.6887 100.506 13.4165C100.61 12.1916 100.58 10.7551 100.685 9.53021C100.685 9.5907 99.9681 9.49997 99.9233 9.48485C99.8486 9.46972 99.6394 9.42436 99.6544 9.30339C99.6843 9.16729 99.9681 9.13705 100.058 9.13705C100.371 9.09168 100.67 9.13705 100.984 9.15217C101.492 9.16729 102.209 9.1068 102.059 9.53021Z" fill="#B4B7CF"/>
<path d="M105.151 14.3843C105.241 14.5355 105.331 14.7018 105.435 14.853C105.54 15.0194 105.614 15.1404 105.809 15.216C106.003 15.3067 106.227 15.3521 106.436 15.4277C106.884 15.5789 107.347 15.715 107.795 15.8208C108.049 15.8813 108.303 15.9267 108.572 15.9569C109.603 16.093 110.633 16.0779 111.604 16.2291C112.545 16.3652 113.456 16.5769 114.278 16.834C115.443 17.1969 116.787 17.6354 117.669 18.4066C117.773 18.4974 118.49 19.2534 118.027 19.4047C117.714 19.5105 117.549 18.9813 117.4 18.83C117.086 18.5276 116.623 18.331 116.205 18.1042C115.772 17.8774 115.324 17.7262 114.831 17.5598C113.845 17.2271 112.829 16.9398 111.798 16.7735C110.081 16.5164 108.288 16.4862 106.794 16.0477C106.152 15.8662 105.36 15.6545 104.972 15.0345C104.897 14.9286 104.853 14.8077 104.793 14.6867C104.748 14.5809 104.748 14.4901 104.629 14.4599C104.539 14.4296 104.449 14.4448 104.36 14.4145C104.285 14.3843 104.195 14.354 104.121 14.3087C103.967 14.2119 103.836 14.0816 103.738 13.9273C103.639 13.773 103.576 13.5985 103.553 13.4165C103.463 12.736 103.807 11.496 103.912 10.8004C103.986 10.2409 103.986 9.65118 104.33 9.37899C104.599 9.16729 105.316 9.13705 105.614 9.31851C105.794 9.42436 106.018 9.89313 106.062 10.1653C106.122 10.5282 105.988 10.9819 105.943 11.4658C105.883 12.1463 105.704 12.7209 105.584 13.3106C105.51 13.7945 105.435 14.1272 105.151 14.3843ZM104.121 12.3277C104.016 12.9931 103.986 13.9004 104.569 13.9911C105.121 14.0818 105.092 13.6736 105.196 13.2048C105.345 12.4789 105.495 11.8136 105.584 10.997C105.614 10.7399 105.704 10.4829 105.674 10.2712C105.644 9.99898 105.495 9.75704 105.241 9.65118C104.972 9.53021 104.614 9.5907 104.524 9.90825C104.464 10.1351 104.479 10.3921 104.449 10.619C104.419 10.8912 104.345 11.1482 104.285 11.4204C104.21 11.7229 104.165 12.0253 104.121 12.3277ZM94.0529 14.3843C93.5898 14.7623 93.3359 14.2179 93.1567 13.8399C92.7982 13.0989 92.4098 12.1614 92.1409 11.4809C92.1409 12.1614 92.2903 12.9931 92.4098 13.7189C92.4546 13.9911 92.6339 14.5506 92.2306 14.5355C91.9019 14.5204 91.8422 13.3409 91.7824 13.0233C91.6181 12.0858 91.6181 11.2843 91.4837 10.3468C91.4688 10.1956 91.4239 10.0443 91.4389 9.89313C91.4538 9.66631 91.5883 9.48485 91.8123 9.62094C92.0364 9.74191 92.1409 10.0141 92.2306 10.2258C92.6189 11.1029 92.9177 12.116 93.3359 12.9628C93.3807 12.4336 93.2463 11.7985 93.1865 11.0273C93.1417 10.5434 92.843 9.34875 93.3658 9.36387C93.6347 9.43948 93.56 9.75704 93.5749 10.0292C93.6795 11.4355 94.038 12.9628 94.0529 14.3843Z" fill="#B4B7CF"/>
<path d="M107.171 9.35707C107.275 9.35707 107.335 9.55365 107.35 9.6595C107.365 9.85608 107.29 10.0678 107.26 10.2644C107.156 10.9751 107.051 11.7765 106.932 12.5477C106.887 12.8653 106.767 13.2585 106.812 13.5155C106.872 13.8331 107.26 14.1204 107.649 14.0599C108.261 13.9692 108.216 13.1526 108.336 12.4268C108.455 11.6858 108.575 11.3078 108.694 10.4307C108.739 10.1283 108.814 9.58389 109.053 9.61414C109.262 9.64438 109.187 10.2039 109.142 10.6424C109.068 11.4287 108.888 11.9731 108.784 12.7292C108.664 13.5911 108.575 14.2716 107.888 14.5136C107.096 14.7858 106.304 14.1506 106.364 13.2433C106.409 12.7443 106.603 12.1999 106.663 11.7312C106.737 11.1565 106.767 10.7029 106.842 10.1585C106.887 9.87121 106.947 9.47804 107.081 9.37219C107.111 9.35707 107.141 9.35707 107.171 9.35707ZM91.1429 14.3623C90.7396 14.5892 90.6649 13.6667 90.6051 13.3341C90.4259 12.4419 90.3213 11.6253 90.1869 10.7483C90.157 10.5214 90.0674 10.3097 90.0375 10.0678C90.0226 9.91657 89.9778 9.61414 90.0972 9.49316C90.3213 9.28146 90.4707 9.87121 90.5006 10.0073C90.5155 10.1585 90.5454 10.3097 90.5752 10.4761C90.6947 11.0356 90.7694 11.3834 90.8142 11.958C90.9039 12.8653 91.3221 13.7121 91.1429 14.3623ZM88.0807 10.3551C88.26 10.9146 88.4093 11.5346 88.5587 12.1395C88.7678 12.1848 89.7388 11.5497 89.8732 11.9882C90.0076 12.4419 88.9919 12.4419 88.6782 12.6234C88.7081 13.1224 88.8425 13.4702 88.977 13.9238C89.0815 14.2565 89.3205 14.9521 88.9172 14.9823C88.6185 14.9975 88.4093 14.0297 88.3197 13.6819C88.2749 13.5004 88.2898 13.2585 88.26 13.077C88.1106 12.0941 87.6326 10.8995 87.6625 10.0073C88.021 9.94681 88.5587 9.6595 88.977 9.64438C89.1562 9.64438 89.4549 9.68975 89.3653 9.97706C89.2757 10.2341 88.3496 10.2039 88.0807 10.3551ZM110.621 13.6365C110.382 13.5458 110.188 13.4097 109.964 13.3038C109.814 13.5004 109.68 13.7877 109.546 14.0599C109.486 14.196 109.441 14.3321 109.336 14.4531C109.292 14.5136 109.247 14.5589 109.172 14.574C108.873 14.6648 108.888 14.3321 108.948 14.1355C109.023 13.8784 109.187 13.6667 109.307 13.4248C109.829 12.3663 110.203 11.1112 110.83 10.1434C111.204 9.88633 111.099 10.461 111.099 10.8087C111.099 11.0356 111.144 11.3229 111.159 11.6556C111.204 12.5477 111.084 13.6667 111.039 14.3019C111.009 14.6497 111.084 15.0277 110.83 15.0579C110.337 15.1033 110.651 14.0145 110.621 13.6365ZM110.113 12.8804C110.307 12.9409 110.442 13.0619 110.651 13.1224C110.756 12.6234 110.726 11.8068 110.681 11.2473C110.517 11.8219 110.278 12.3209 110.113 12.8804ZM112.951 10.5668C112.802 12.0336 112.324 13.4248 112.025 14.8462C112.234 15.0731 113.22 15.0882 113.19 15.5116C113.145 15.935 112.548 15.5418 112.384 15.4813C112.07 15.3755 111.607 15.3301 111.517 15.1184C111.428 14.9218 111.637 14.317 111.726 13.9389C111.98 12.8502 112.369 11.459 112.653 10.597C112.653 10.5819 112.817 10.4005 112.951 10.5668ZM84.1223 11.2624C84.2418 11.7765 84.436 12.4721 84.6003 13.0468C84.6153 13.077 85.2277 12.8502 85.2874 12.8351C85.4069 12.8048 85.5115 12.7746 85.631 12.7746C85.8999 12.7897 85.9746 13.0014 85.7654 13.1829C85.5862 13.3341 85.3173 13.3643 85.1082 13.4097C85.0783 13.4097 84.7348 13.5004 84.7497 13.5307C84.8991 14.1506 85.1679 14.6345 85.2874 15.2848C85.8102 15.2092 86.348 14.7706 86.8409 14.9521C87.0351 15.315 86.5123 15.4209 86.1538 15.5267C85.7057 15.6628 85.153 15.9652 84.8991 15.557C84.7646 15.3301 84.7049 14.8614 84.6003 14.5287C84.2717 13.4853 83.8385 12.2453 83.6443 11.0658C84.0028 10.9297 84.7796 10.5366 85.1679 10.5517C85.3173 10.5668 85.4069 10.6122 85.4368 10.7029C85.5414 11.1112 84.3763 11.1263 84.1223 11.2624ZM115.057 11.1112C115.326 11.2322 115.132 11.5195 115.087 11.6858C114.833 12.7292 114.624 13.7121 114.281 14.7858C114.161 15.1638 114.101 16.056 113.594 15.8443C113.414 15.4965 113.668 15.1033 113.803 14.695C114.042 13.9541 114.206 13.1072 114.46 12.3209C114.609 11.837 114.744 11.338 115.028 11.1112H115.057ZM116.999 12.1546C116.85 12.9409 116.432 13.5911 116.193 14.3623C116.088 14.695 116.028 15.0882 115.924 15.4209C115.834 15.6779 115.715 16.2828 115.476 16.2979C115.013 16.313 115.371 15.4813 115.446 15.2696C115.819 14.1506 116.208 13.0921 116.611 12.0487C116.626 12.0336 116.133 11.8673 116.088 11.837C115.998 11.7917 115.939 11.7463 115.879 11.6707C115.834 11.6102 115.789 11.338 115.924 11.3683C116.252 11.3834 116.656 11.5346 117.149 11.7009C117.522 11.8219 117.94 11.9882 117.955 12.1546C117.985 12.6536 117.223 12.2302 116.999 12.1546ZM83.7937 15.0428C83.8684 15.2092 83.9282 15.3755 84.0028 15.5418C84.0775 15.7233 84.212 16.1165 83.9132 16.1769C83.5697 16.2374 83.5248 15.6931 83.4053 15.3906C83.256 14.9975 82.9274 14.4833 82.8975 14.1506C82.5689 14.2414 82.3 14.3775 81.9415 14.4228C81.8967 14.4228 82.2851 15.4209 82.3299 15.5116C82.4046 15.6931 82.4643 15.8594 82.5091 16.0408C82.5539 16.2072 82.6884 16.6155 82.4046 16.6608C82.1357 16.6911 82.0909 16.2677 82.0311 16.0862C81.8668 15.6174 81.6278 15.0579 81.4038 14.4531C81.1946 13.8785 81.0453 13.2585 80.9258 12.699C80.8809 12.5326 80.7316 12.2756 80.7913 12.1092C80.8809 11.8068 81.2096 12.336 81.2544 12.4268C81.3141 12.5931 81.3291 12.7746 81.3888 12.9409C81.4934 13.3189 81.6876 13.6667 81.7772 13.9994C82.1656 13.9541 82.4344 13.8028 82.763 13.697C82.6585 13.2887 82.539 12.956 82.4344 12.457C82.3747 12.1546 82.1058 11.5497 82.4643 11.5195C82.6435 11.5043 82.8079 11.958 82.8527 12.1243C82.9274 12.3814 82.9274 12.6536 83.0319 12.9409C83.1664 13.3038 83.2859 13.697 83.4053 14.0599C83.4651 14.2414 83.5398 14.4228 83.6145 14.6043C83.6742 14.7555 83.734 14.8916 83.7937 15.0428ZM118.418 12.1848C118.433 12.2151 118.448 12.2302 118.463 12.2604C118.508 12.457 118.478 12.7141 118.493 12.9107C118.523 13.3189 118.508 13.7272 118.583 14.1355C118.852 13.8633 119.255 13.6819 119.569 13.4097C119.703 13.2887 119.793 13.1224 119.927 12.9863C120.002 12.9107 120.271 12.7443 120.36 12.8502C120.51 13.0316 120.151 13.3794 120.047 13.4853C119.583 13.9994 118.911 14.3623 118.493 14.937C118.344 15.3604 118.105 16.1013 117.896 16.6608C117.806 16.9179 117.776 17.3716 117.358 17.1145C117.373 16.5247 117.686 15.8896 117.896 15.2696C118.045 14.816 118.149 14.4228 118.105 13.697C118.09 13.4097 118.045 13.1224 118.045 12.8502C118.045 12.6385 118.015 12.3058 118.194 12.1546C118.269 12.1092 118.359 12.1243 118.418 12.1848ZM79.6262 12.9107C79.9996 13.7726 80.4179 14.9823 80.8511 16.0106C80.9706 16.313 81.3888 17.054 80.9407 17.1296C80.5822 17.1901 80.4926 16.5247 80.3731 16.2526C79.9399 15.2545 79.5515 14.1506 79.208 13.0921C78.9242 13.1526 78.6105 13.4399 78.2819 13.2736C78.2221 12.9711 78.7001 12.8048 79.0586 12.6385C79.3872 12.4873 79.8652 12.2302 80.0743 12.2151C80.1938 12.1999 80.3731 12.2453 80.3731 12.4268C80.3731 12.7443 79.8353 12.7292 79.6262 12.9107ZM95.7286 26.2177C96.4307 26.2026 97.1476 26.248 97.7451 26.248C97.8049 26.4748 97.8198 26.6865 97.775 26.9133C97.6107 27.0041 97.3269 26.9587 97.0879 26.9738C97.1178 28.2743 97.073 29.7411 97.0879 31.1323C96.9236 31.2533 96.5651 31.2533 96.4008 31.1323V26.9133H95.624C95.5792 26.7168 95.5195 26.2782 95.7286 26.2177ZM99.9559 26.3085C100.001 27.745 100.001 29.6201 99.9559 31.1625C99.7915 31.3137 99.5376 31.1928 99.3285 31.1323C99.209 30.5123 99.2986 29.6655 99.2687 28.9396C99.1791 28.8792 98.9551 28.9245 98.8057 28.9094C98.7758 29.6201 98.8804 30.482 98.7459 31.102C98.5219 31.1474 98.1783 31.2079 98.0289 31.0416C97.9692 29.4991 98.014 27.8055 98.1186 26.3387C98.3128 26.2782 98.6264 26.3236 98.8057 26.369V28.2138C98.8953 28.2743 99.1194 28.2289 99.2687 28.244C99.2986 27.6241 99.1941 26.868 99.3285 26.3387C99.5077 26.2329 99.7169 26.248 99.9559 26.3085ZM102.286 26.4446C102.331 26.5958 102.346 26.9133 102.226 26.9889C102.017 27.0494 101.689 27.0041 101.435 27.0192C101.375 27.3972 101.42 27.8962 101.405 28.3197C101.659 28.3348 101.972 28.2894 102.167 28.3499C102.196 28.5011 102.241 28.8489 102.137 28.9548C101.987 29.0606 101.659 28.985 101.42 29.0152C101.36 29.4235 101.405 29.9679 101.39 30.4216C101.644 30.4367 101.972 30.3913 102.182 30.4518C102.196 30.603 102.271 30.8298 102.211 30.9659C101.689 31.102 101.166 31.0567 100.673 30.9659C100.643 29.9679 100.613 28.9396 100.613 27.8509C100.613 27.3367 100.553 26.8226 100.703 26.4143C101.121 26.3236 101.928 26.3085 102.286 26.4446ZM100.613 47.6905C101.196 47.6149 101.45 48.0383 101.554 48.5373C101.674 49.2027 101.614 49.8832 101.599 50.5485C101.599 50.7602 101.599 50.9719 101.614 51.1685C101.629 51.5163 101.778 51.9095 101.554 52.227C101.36 52.4841 101.001 52.6504 100.688 52.6656C100.494 52.6656 100.045 52.5899 99.8662 52.3934C99.5376 52.0456 99.6422 49.7319 99.687 48.9154C99.7169 48.2651 99.926 47.7812 100.613 47.6905ZM100.957 48.4617C100.927 48.4012 100.882 48.3408 100.792 48.3105C100.628 48.25 100.419 48.3559 100.359 48.5222C100.21 48.8851 100.329 49.7471 100.329 50.3973C100.329 50.6392 100.299 50.8812 100.299 51.1231C100.299 51.4104 100.284 51.7431 100.419 52.0153C100.464 52.0909 100.538 52.106 100.628 52.106C100.927 52.106 100.927 51.8641 100.972 51.6222C101.031 51.3348 101.046 51.0324 101.046 50.7451C101.061 50.231 101.031 49.7168 101.016 49.2027C101.016 49.0666 101.001 48.9305 100.987 48.7944C100.987 48.6734 101.001 48.5525 100.957 48.4617ZM98.9401 49.6412C98.7609 49.5958 98.492 49.6412 98.3277 49.5807C98.2679 49.4295 98.253 49.2783 98.253 49.1271C98.2381 48.8851 98.3128 48.5525 97.9991 48.4768C97.7153 48.4012 97.5659 48.7642 97.551 49.0061C97.5061 49.3841 97.551 50.1251 97.5808 50.7602C97.5958 51.2592 97.5061 51.8943 97.8198 52.0002C98.4621 52.227 98.1933 51.1534 98.3426 50.6997C98.4621 50.6695 98.7459 50.6392 98.8654 50.6997C99.0297 51.2592 99.0148 52.1514 98.6862 52.4538C98.2381 52.8773 97.2373 52.6958 97.0132 52.2421C96.9385 52.106 96.8937 51.849 96.8638 51.6524C96.7593 50.6544 96.9236 49.0817 96.9833 48.3256C97.1925 47.7964 97.775 47.5847 98.3576 47.7661C98.5069 47.8115 98.6115 47.9022 98.7161 48.0081C98.8057 48.0988 98.9102 48.1895 98.9551 48.3105C98.9999 48.4466 98.9849 48.6129 98.9999 48.749C98.9999 48.7944 98.9849 49.6563 98.9401 49.6412ZM83.1813 49.2783C83.0618 49.3085 82.763 49.3388 82.6884 49.248C82.6137 48.991 82.778 48.5827 82.5987 48.3861C81.9415 48.0988 81.9266 48.991 82.2253 49.4598C82.524 49.9436 83.1962 50.5485 83.256 51.3046C83.2858 51.8792 83.1066 52.7109 82.3896 52.7109C81.5232 52.6958 81.4336 51.6222 81.583 50.987C81.7473 50.9568 81.9714 50.9114 82.1357 50.9568C82.2253 51.3046 82.0162 51.9548 82.4344 52.0002C82.7033 51.849 82.6435 51.4104 82.6137 51.229C82.5838 51.0778 82.4942 50.8812 82.4046 50.73C82.1506 50.2763 81.6427 49.8227 81.5233 49.4598C81.3739 48.991 81.4934 48.2651 81.7025 48.0383C81.9415 47.7661 82.6435 47.6452 83.017 47.8569C83.3456 48.0232 83.3157 48.8246 83.1813 49.2783ZM84.4659 47.8871C84.5406 48.3559 84.436 48.9759 84.436 49.6412C84.436 50.2763 84.3315 50.987 84.4061 51.4861C84.451 51.7885 84.675 52.2724 85.1082 52.0153C85.3173 51.4861 85.2277 50.7149 85.2277 50.0041V47.9325C85.3771 47.8417 85.6609 47.8115 85.8401 47.9022C85.8252 48.7339 85.8999 49.5656 85.8849 50.4124C85.8849 50.9568 85.9746 51.6826 85.7654 52.2119C85.5414 52.8016 84.4808 52.9529 84.1074 52.4236C83.973 52.227 83.8535 51.7129 83.8087 51.2895C83.7638 50.8358 83.8087 50.11 83.8087 49.4749C83.8087 48.87 83.734 47.9476 83.9879 47.8115C84.1223 47.7812 84.3763 47.7964 84.4659 47.8871ZM93.5627 47.9173C93.7718 48.3861 93.8913 48.9456 94.0855 49.4295C94.2946 48.9759 94.5037 48.5222 94.6083 47.9778C94.7726 47.9476 95.0415 47.8417 95.161 47.9778C95.161 48.371 94.9519 48.7642 94.7726 49.1573C94.6382 49.4749 94.3693 49.9285 94.3096 50.2914C94.1751 51.0626 94.5037 51.8943 94.2797 52.6958C94.1154 52.7412 93.9063 52.7109 93.7569 52.6958C93.727 52.0153 93.6971 51.3197 93.727 50.7149C93.727 50.5485 93.7868 50.3973 93.7569 50.2461C93.727 50.0646 93.5776 49.8378 93.488 49.6261C93.3984 49.3993 93.3536 49.1573 93.2789 48.9456C93.1743 48.6432 92.9353 48.371 93.01 47.9325C93.1594 47.7964 93.3984 47.8871 93.5627 47.9173ZM104.542 47.8569C104.855 47.872 105.154 47.8417 105.468 47.8569C105.871 47.8569 106.155 47.9476 106.274 48.3861C106.379 48.7642 106.409 49.2329 106.364 49.6261C106.349 49.7924 106.289 50.0193 106.185 50.1402C106.409 50.2914 106.319 50.6392 106.364 51.0626C106.424 51.6826 106.558 52.4538 105.991 52.6656C105.632 52.8016 104.915 52.6807 104.467 52.6353C104.422 51.1383 104.422 49.4446 104.467 47.9476C104.467 47.9022 104.497 47.872 104.542 47.8569ZM105.154 48.4466V49.8983C105.274 49.8983 105.393 49.8983 105.513 49.868C105.677 49.8227 105.692 49.7168 105.692 49.5505C105.692 49.2329 105.781 48.7188 105.542 48.4768C105.423 48.4617 105.303 48.4466 105.154 48.4466ZM105.752 50.6241C105.722 50.5636 105.692 50.5183 105.647 50.488C105.572 50.4427 105.169 50.3066 105.169 50.5032V52.0456C105.318 52.106 105.602 52.106 105.752 52.0456C105.781 52.0304 105.766 51.35 105.766 51.2744C105.766 51.0778 105.826 50.8056 105.752 50.6241ZM108.963 50.3217C109.322 50.5183 108.918 52.0607 109.336 52.6353C109.157 52.7563 108.754 52.6656 108.485 52.6958C108.306 52.106 108.545 51.0627 108.321 50.5334C108.231 50.488 108.127 50.488 107.992 50.5032C107.917 51.1383 107.977 51.8943 107.962 52.5748C107.768 52.6202 107.395 52.6202 107.2 52.5748C107.23 51.0475 107.126 49.3237 107.26 47.9476C107.947 47.872 109.023 47.7208 109.157 48.4466C109.262 48.9456 109.157 50.0495 108.963 50.3217ZM107.947 48.5071C107.932 49.0212 107.947 49.5354 107.977 50.0193C108.112 50.0193 108.41 50.0344 108.485 49.9134C108.545 49.8378 108.5 49.6866 108.5 49.611C108.5 49.49 108.515 49.369 108.515 49.2632C108.515 49.1271 108.5 48.9759 108.485 48.8398C108.47 48.7642 108.485 48.5978 108.425 48.5373C108.321 48.4164 108.067 48.5373 107.947 48.5071ZM114.968 52.6958C114.818 52.3631 114.878 51.9397 114.878 51.5465C114.878 50.3973 114.833 49.0363 114.938 47.9627C115.521 47.8569 116.297 47.8569 116.581 48.2349C116.701 48.4012 116.73 48.6583 116.715 48.8549C116.701 49.1271 116.686 49.3993 116.686 49.6715C116.686 50.2612 116.701 50.8509 116.701 51.4407C116.701 51.7431 116.73 52.0909 116.671 52.3782C116.551 52.9075 115.506 52.7865 114.968 52.6958ZM115.535 48.5071C115.55 49.6563 115.491 50.8812 115.565 51.97C115.76 51.9548 116.013 52.0002 116.148 51.9397C116.043 50.8812 116.208 49.5656 116.058 48.5524C115.939 48.492 115.64 48.5978 115.535 48.5071ZM89.7686 50.4427C89.679 51.0929 89.7985 51.9397 89.7089 52.5748C89.5894 52.6958 89.2458 52.7412 89.0965 52.6051C89.0068 51.1987 88.977 49.3388 89.1263 47.9778C89.3354 47.9778 90.4557 47.7964 90.7396 48.0081C90.8292 48.0686 90.9337 48.4164 90.9487 48.4768C91.0383 48.991 91.0084 50.0949 90.7694 50.3217C90.5155 50.5485 90.1421 50.4427 89.7686 50.4427ZM90.2765 48.6583C90.0823 48.6734 89.8284 48.6281 89.7238 48.6583C89.7836 49.0061 89.7388 49.4446 89.7537 49.8378C90.0524 49.8529 90.2466 49.8832 90.396 49.7168C90.3661 49.3539 90.5454 48.8398 90.2765 48.6583ZM92.2333 47.9778C92.3976 49.0968 92.293 50.5939 92.3229 51.9246C92.532 51.9548 93.0698 51.8641 93.2938 51.9851C93.3088 52.1665 93.3237 52.5295 93.264 52.6656C92.7561 52.7109 92.0242 52.7563 91.6209 52.5748C91.6507 51.0626 91.5462 49.3993 91.6806 47.9778C91.8599 47.9173 92.054 47.9173 92.2333 47.9778ZM110.785 47.9476C110.875 47.9325 110.92 48.6432 110.92 48.7037C110.965 49.0968 111.009 49.4749 111.114 49.8529C111.204 50.1856 111.293 50.5334 111.368 50.8812C111.428 51.1987 111.428 51.5163 111.487 51.8339C111.532 52.106 111.697 52.3934 111.607 52.6656C111.428 52.726 111.174 52.6958 111.024 52.5748C110.98 52.2724 110.95 51.9397 110.875 51.6524C110.711 51.5314 110.457 51.6373 110.233 51.6222C110.188 51.9851 110.203 52.3934 110.053 52.6656C109.934 52.7109 109.62 52.7109 109.501 52.6656C109.62 51.1231 109.889 49.4598 110.173 47.9778C110.203 47.9778 110.188 47.9173 110.233 47.9173C110.427 47.9173 110.561 47.9778 110.785 47.9476ZM110.307 50.9719H110.741C110.681 50.5031 110.651 50.0041 110.531 49.5807C110.442 50.0193 110.397 50.5183 110.307 50.9719ZM114.116 48.0383V50.4124C114.116 51.229 114.206 52.0909 113.997 52.726C113.833 52.7412 113.564 52.6958 113.355 52.6656C113.205 51.8641 112.877 50.987 112.712 50.0797C112.608 50.8963 112.787 51.8641 112.682 52.6958C112.503 52.7563 112.145 52.7412 112.04 52.6353C111.891 51.3046 112.055 49.4295 112.01 48.0081C112.234 47.9627 112.458 47.9778 112.667 48.0081C113.011 48.7339 113.295 49.5051 113.429 50.4427C113.534 49.7017 113.37 48.6734 113.519 47.9778C113.728 47.9476 113.833 47.9778 114.116 48.0383ZM86.7812 47.9476C87.304 48.0686 87.8417 47.7661 88.2152 48.0081C88.4691 48.1744 88.6483 49.9134 88.3944 50.2612C88.1554 50.5788 87.7521 50.4578 87.3339 50.5032C87.2442 51.1231 87.3637 51.9548 87.2741 52.5748C87.1098 52.6051 86.8409 52.6353 86.6915 52.5143V48.0383C86.7214 47.993 86.7513 47.9627 86.7812 47.9476ZM87.3189 49.7924C87.528 49.7773 87.8118 49.8378 87.9313 49.7319C87.9015 49.3993 87.9164 48.991 87.8417 48.6885C87.7073 48.6281 87.5131 48.6281 87.3189 48.6281V49.7924ZM102.645 51.7129C102.615 52.0456 102.719 52.4992 102.525 52.6656C102.331 52.7412 102.092 52.6655 101.972 52.5748C101.987 52.2724 101.943 51.9095 102.002 51.6524C102.182 51.5314 102.48 51.6373 102.645 51.7129ZM101.151 56.6879C101.39 56.1587 100.822 55.826 100.434 55.6899C97.4613 55.3421 97.9991 59.1981 100.21 59.2888C101.151 59.3191 102.182 58.805 103.048 58.5176C103.242 58.4571 103.765 58.2454 103.959 58.4723C104.228 58.8049 103.72 59.1225 103.84 59.3191C104.512 59.5459 105.274 58.5479 106.035 58.6689C106.349 58.7142 106.782 59.1376 106.454 59.5913H128.949C129.248 59.5913 130.219 59.5157 130.279 59.7425C130.383 60.1508 129.188 60.0147 128.845 60.0147C108.694 60.0147 87.9015 59.9693 67.2731 59.9693C66.9594 59.9693 65.7196 60.1205 65.7644 59.6971C65.7943 59.4552 66.7503 59.5459 67.049 59.5459H89.3205C89.3504 59.3645 88.9919 59.0318 89.1711 58.6991C90.2765 58.3059 91.0234 59.2737 91.9345 59.304C92.0988 58.9864 91.352 58.8654 91.6358 58.3815C91.9196 57.8976 93.025 58.7898 93.3685 58.9108C94.1004 59.183 95.1012 59.4098 95.9079 59.183C96.8937 58.9108 97.5958 57.7162 97.1925 56.6123C97.058 56.2191 96.6248 55.7655 96.0274 55.7352C95.3253 55.705 94.5187 56.0679 94.6681 56.9299C95.2207 56.9752 95.2207 56.3704 95.8033 56.3552C96.8489 56.325 96.819 57.8976 95.9228 58.185C94.8025 58.5479 93.9959 57.3986 94.2648 56.4611C94.4739 55.7504 95.5942 55.1606 96.5651 55.5084C97.0132 55.6596 97.3866 56.1435 97.5061 56.4308C98.0439 57.7313 97.1476 58.7747 96.4157 59.6064C97.2223 59.5459 98.1186 59.5762 98.9849 59.561C98.5069 58.7142 97.6705 57.4138 98.2978 56.2645C98.5368 55.826 99.0746 55.4177 99.7318 55.3421C100.24 55.2816 100.957 55.3421 101.315 55.7201C102.182 56.6123 101.36 58.3513 100.15 58.1698C99.1941 58.0337 99.0447 56.3704 100.15 56.2947C100.568 56.3099 100.777 56.5669 101.151 56.6879ZM107.156 62.3888C107.469 63.9463 107.783 65.5039 108.171 66.9858C107.828 66.9707 107.35 67.0311 106.961 66.9858C106.872 66.7438 106.902 66.3809 106.812 66.139C106.648 66.0634 106.349 66.1238 106.125 66.1087C106.005 66.3658 105.991 66.7136 105.931 67.0311C105.662 67.016 105.02 67.0916 104.751 66.9555C105.079 65.398 105.378 63.8102 105.811 62.3585C106.2 62.2981 106.842 62.2527 107.156 62.3888ZM106.319 65.1863H106.543C106.498 64.9292 106.528 64.6117 106.394 64.4605C106.424 64.7326 106.304 64.899 106.319 65.1863ZM104.019 62.419C103.989 63.9463 104.079 65.7156 103.989 67.0463C103.675 67.0311 103.257 67.1068 103.048 66.9707C102.928 66.3204 103.093 65.6248 103.048 64.899C102.779 65.5643 102.63 66.3355 102.331 66.9707C102.107 67.0614 101.748 66.9858 101.465 67.016C101.181 66.4868 101.061 65.7912 100.867 65.1863C100.777 65.7156 100.867 66.517 100.792 66.9404C100.553 67.0009 100.075 67.0009 99.8513 66.9404C99.8065 65.5341 99.7467 63.7649 99.8961 62.419C100.255 62.3434 100.762 62.4039 101.181 62.3737C101.524 63.0995 101.629 64.0673 101.972 64.778C102.271 64.037 102.406 63.1297 102.734 62.4039C103.093 62.3283 103.586 62.3585 104.019 62.419ZM83.0319 62.4644C83.0618 62.6459 83.017 63.0541 83.0319 63.3414H82.3448C82.1357 64.6268 82.3896 65.6853 82.2701 66.895C81.9266 66.9253 81.5382 66.8497 81.105 66.895C81.0004 65.8819 81.1199 64.5058 81.1498 63.3717C80.866 63.2658 80.642 63.3566 80.2835 63.2961C80.164 63.0541 80.2536 62.782 80.2386 62.4493C81.2544 62.4644 82.0461 62.4493 83.0319 62.4644ZM91.0831 62.419C91.6507 62.4946 92.5918 62.2981 93.0548 62.4493C94.3394 62.8727 93.6224 64.8083 93.8166 66.396C93.6523 67.3185 91.9047 67.0614 90.9785 66.9707C90.9188 65.5795 90.9188 63.9161 90.9785 62.5249C90.9935 62.4795 91.0383 62.4493 91.0831 62.419ZM92.0391 63.3414V66.139C92.1586 66.1692 92.5619 66.1692 92.6814 66.0634C92.8606 65.3829 92.8756 64.0068 92.6814 63.4171C92.532 63.3112 92.2781 63.3414 92.0391 63.3414ZM115.58 62.4946C115.371 63.3112 114.908 63.8556 114.594 64.5663C114.908 65.5492 115.67 66.0785 116.103 66.9404C115.535 66.895 115.028 67.0311 114.52 66.9404C114.266 66.5472 114.012 66.1541 113.683 65.8365C113.564 66.1541 113.728 66.7589 113.564 67.0311H112.428C112.369 65.5946 112.369 63.901 112.428 62.4795C112.817 62.4795 113.22 62.4644 113.564 62.5098C113.638 62.8424 113.579 63.2961 113.609 63.7044C113.862 63.281 114.087 62.8424 114.4 62.4795C114.789 62.4039 115.207 62.4493 115.58 62.4946ZM85.9148 64.5209C86.6169 64.899 86.1687 66.1994 86.6318 66.8194C86.3032 66.9404 85.6161 66.9404 85.3024 66.8648C84.8991 66.4414 85.5414 64.9595 84.7348 64.9443C84.6451 65.5341 84.7348 66.2902 84.6601 66.895C84.4061 66.9555 83.9282 66.9555 83.6742 66.895C83.5846 65.519 83.6742 63.8253 83.6294 62.4946C84.436 62.5249 85.8252 62.162 86.1687 62.918C86.3779 63.3868 86.348 64.2487 85.9148 64.5209ZM84.7049 64.1429C84.914 64.158 85.0634 64.1278 85.1978 64.0673C85.2128 63.7951 85.1829 63.5834 85.1231 63.3717C85.0485 63.281 84.7796 63.3868 84.7049 63.2961V64.1429ZM111.054 64.5209C111.756 64.899 111.308 66.1994 111.771 66.8194C111.443 66.9404 110.756 66.9404 110.442 66.8648C110.039 66.4414 110.681 64.9595 109.874 64.9443C109.785 65.5341 109.874 66.2902 109.8 66.895C109.546 66.9555 109.068 66.9555 108.814 66.895C108.724 65.519 108.814 63.8253 108.769 62.4946C109.575 62.5249 110.965 62.162 111.308 62.918C111.517 63.3868 111.487 64.2487 111.054 64.5209ZM109.844 64.1429C110.053 64.158 110.203 64.1278 110.337 64.0673C110.352 63.7951 110.322 63.5834 110.263 63.3717C110.188 63.281 109.919 63.3868 109.844 63.2961V64.1429ZM89.2757 62.4946C89.6491 63.1146 89.6342 63.9312 89.7985 64.6722C89.9628 65.4434 90.2765 66.1692 90.4109 66.895C90.157 67.0311 89.7238 66.895 89.2757 66.9404C89.1263 66.6531 89.0815 66.2751 88.977 65.9424C88.8575 65.8668 88.5886 65.9273 88.4093 65.9121C88.3347 66.2448 88.2152 66.5926 88.26 66.9404C87.8417 66.9102 87.3339 66.9858 86.9754 66.895C87.2293 65.5039 87.5728 63.8707 87.9612 62.4946C88.3048 62.5249 88.8126 62.4795 89.2757 62.4946ZM88.5139 64.9897H88.7828C88.7081 64.778 88.723 64.4907 88.6334 64.2941C88.5587 64.4907 88.5438 64.7478 88.5139 64.9897ZM130.219 69.1633C130.174 69.7077 129.442 69.5413 128.889 69.5413C127.231 69.5413 125.424 69.5716 123.751 69.5413C121.988 69.496 120.151 69.4355 118.149 69.496C114.639 69.6169 107.798 69.375 103.137 69.5413C103.182 69.7228 103.362 69.9647 103.257 70.2369C103.018 70.8418 101.987 70.3579 101.554 70.1613C101.33 71.0686 100.583 70.2521 100.075 70.0404C99.7318 69.9043 99.2239 69.7228 98.8206 69.8438C98.3576 69.995 97.9991 70.872 98.3277 71.3711C98.5368 71.6886 99.3733 71.9154 99.5675 71.2198C99.3882 71.0989 99.1194 71.5525 98.7758 71.2955C98.3426 70.9628 98.7907 70.494 99.0447 70.4486C99.4032 70.3882 99.8961 70.5696 99.9857 70.9023C100.27 72.0364 98.6713 72.2481 98.1335 71.7037C97.551 71.114 97.9841 70.0252 98.5518 69.5262H97.073C97.2223 69.9799 97.5958 70.1916 97.6854 70.6301C97.8497 71.5525 97.058 72.1271 96.2514 71.9759C95.6539 71.855 95.4299 71.0535 95.8332 70.5999C96.1319 70.2672 97.1476 70.2218 97.0431 70.9477C96.9535 71.5374 96.3261 71.2047 96.0572 71.3257C96.3261 71.9306 97.2671 71.5525 97.3418 71.0233C97.4016 70.5394 97.0132 69.9345 96.6547 69.8287C95.7286 69.5867 95.1759 71.0081 94.3544 70.5545C94.2199 70.4789 94.1602 70.373 94.1602 70.1008C93.8166 70.5999 92.1138 70.5999 92.7561 69.5262C84.3613 69.5262 75.5334 69.5262 67.1984 69.4809C66.8997 69.4809 65.7047 69.5716 65.6449 69.3296C65.5553 68.9516 66.4217 69.0726 66.7802 69.0574C70.1709 68.876 73.7111 69.0121 76.9823 69.0121H106.274C109.053 69.0121 112.384 68.9818 113.877 69.0121C115.192 69.0423 117.821 68.9818 120.42 68.9818H129.113C129.517 69.0121 129.95 68.8911 130.219 69.1633ZM96.9535 62.419C97.1178 62.6156 97.1028 63.2356 96.9983 63.4927C96.7294 63.5078 96.2962 63.5683 95.9079 63.4927V64.2185C96.2066 64.279 96.6697 64.0824 97.0431 64.2185C97.1028 64.4453 97.1028 64.9141 97.0431 65.1409C96.7443 65.2317 96.341 65.2165 95.9527 65.2165C95.863 65.4282 95.9377 65.7912 95.9228 66.0634C96.2962 66.0482 96.7443 66.0936 97.058 66.018C97.1626 66.2297 97.1626 66.7136 97.1028 66.9707C96.5053 67.1219 95.624 67.016 94.9071 67.0463C94.7427 65.6399 94.8324 63.8405 94.9071 62.419C95.4747 62.3585 96.4605 62.3585 96.9535 62.419Z" fill="#B4B7CF"/>
</svg>
