<svg width="140" height="48" viewBox="0 0 140 48" fill="none" xmlns="http://www.w3.org/2000/svg">
<g clip-path="url(#clip0_166_1382)">
<path fill-rule="evenodd" clip-rule="evenodd" d="M16.0965 48L15.1143 30.9125C14.5615 30.1188 13.1733 28.1528 12.0431 26.6386C10.7455 24.9001 10.7951 23.0587 10.8119 22.4388C10.8133 22.3838 10.8146 22.3384 10.8146 22.3036C10.8146 22.0951 11.0193 20.4476 11.2503 18.5881L11.2504 18.5878L11.2504 18.5877C11.4929 16.6361 11.7644 14.4509 11.8588 13.4504C12.0062 11.8874 12.5754 11.4559 12.8416 11.4356C13.8449 11.171 16.1094 10.5564 17.1413 10.2145C18.4313 9.78706 18.4313 8.74911 17.4485 7.46693C16.6622 6.44118 16.4247 4.51588 16.4042 3.68145C16.4042 1.81886 17.1296 0.657761 18.0597 0L0.00302088 3.38441V30.1061C0.00302088 30.1793 0.00234536 30.2567 0.0016332 30.3383C-0.0126396 31.9743 -0.0416288 35.297 5.05767 40.1785C8.13854 43.1278 12.6731 46.0393 16.0965 48Z" fill="#44B64B"/>
<path d="M21.9503 11.5439L19.6592 11.2324L19.7228 11.98L20.7411 13.3506C20.7199 16.0502 20.6393 21.6863 20.4865 22.6332C21.0466 23.7297 21.6533 24.6683 21.8866 25.0006L23.2231 22.3217C22.9473 19.9128 22.243 14.7461 21.6321 13.3506C21.9695 12.5013 22.0673 12.3295 22.0768 12.3488L22.0775 12.3538C22.0775 12.3526 22.0775 12.3516 22.0773 12.3508C22.0772 12.35 22.077 12.3493 22.0768 12.3488L21.9503 11.5439Z" fill="#30367A"/>
<path d="M38.8547 3.38452V30.1062C38.8547 30.1793 38.8554 30.2567 38.8561 30.3383V30.3384C38.8704 31.9744 38.8994 35.2971 33.8001 40.1786C30.8584 42.9947 26.5913 45.7763 23.2317 47.7287L25.3106 33.538C25.4744 32.6629 25.9126 30.7417 26.3548 30.0578C26.7971 29.374 27.3172 28.1854 27.5219 27.6766C27.5833 27.4935 27.7062 26.7486 27.7062 25.2344C27.7062 23.7202 27.0919 16.8697 26.7848 13.6337C26.7848 13.2674 26.5514 12.4248 25.6177 11.9852C24.4507 11.4357 21.9936 10.2146 21.6865 9.29873C21.6865 8.95457 21.806 8.84795 21.9808 8.69196C22.0231 8.65423 22.0687 8.61362 22.1165 8.56605C22.1304 8.55223 22.1494 8.53411 22.1729 8.51172C22.5648 8.13827 24.205 6.57545 24.205 3.92578C24.205 2.44171 23.7762 1.2304 23.0274 0.417969L38.8547 3.38452Z" fill="#30367A"/>
</g>
<path d="M125.442 39.4065V35.6732H129.623C130.607 35.6732 131.46 35.4873 132.181 35.1156C132.919 34.7439 133.485 34.1944 133.878 33.4671C134.272 32.7237 134.468 31.8267 134.468 30.7762C134.468 29.7419 134.263 28.8691 133.854 28.158C133.46 27.4308 132.903 26.8813 132.181 26.5096C131.46 26.1378 130.607 25.952 129.623 25.952H125.246V22.2186H129.648C130.992 22.2186 132.23 22.4287 133.362 22.8489C134.493 23.253 135.477 23.8348 136.313 24.5944C137.149 25.354 137.797 26.259 138.256 27.3096C138.731 28.3601 138.969 29.5237 138.969 30.8005C138.969 32.0934 138.731 33.2651 138.256 34.3156C137.797 35.3661 137.149 36.2712 136.313 37.0308C135.477 37.7904 134.493 38.3803 133.362 38.8005C132.247 39.2045 131.025 39.4065 129.697 39.4065H125.442ZM122.467 39.4065V22.2186H126.869V39.4065H122.467Z" fill="#44B64B"/>
<path d="M109.987 32.4489V29.3459H113.308C114.029 29.3459 114.578 29.1762 114.955 28.8368C115.349 28.4813 115.546 28.0045 115.546 27.4065C115.546 26.8247 115.349 26.356 114.955 26.0005C114.578 25.6287 114.029 25.4429 113.308 25.4429H109.987V22.2186H113.922C115.103 22.2186 116.136 22.4368 117.021 22.8732C117.923 23.3096 118.628 23.9075 119.136 24.6671C119.645 25.4267 119.899 26.3156 119.899 27.3338C119.899 28.352 119.636 29.2489 119.112 30.0247C118.603 30.7843 117.89 31.3823 116.972 31.8186C116.054 32.2388 114.98 32.4489 113.75 32.4489H109.987ZM106.495 39.4065V22.2186H110.897V39.4065H106.495ZM115.939 39.4065L110.873 32.0368L114.832 31.0914L121.03 39.4065H115.939Z" fill="#44B64B"/>
<path d="M87.1553 39.4065L93.9185 22.2186H98.1732L104.863 39.4065H100.264L95.222 24.958H96.8206L91.6559 39.4065H87.1553ZM91.2624 36.4005V32.958H100.879V36.4005H91.2624Z" fill="#44B64B"/>
<path d="M78.8995 39.6732C77.4238 39.6732 76.1204 39.3742 74.9891 38.7762C73.8742 38.1621 73.0052 37.3136 72.3821 36.2308C71.7591 35.1479 71.4476 33.9197 71.4476 32.5459V22.2186H75.8253V32.8611C75.8253 33.4752 75.9564 34.0085 76.2188 34.4611C76.4975 34.8974 76.8664 35.2368 77.3255 35.4792C77.8009 35.7055 78.3256 35.8186 78.8995 35.8186C79.4897 35.8186 80.0062 35.7055 80.4489 35.4792C80.8916 35.2368 81.2441 34.8974 81.5064 34.4611C81.7687 34.0247 81.8999 33.4995 81.8999 32.8853V22.2186H86.3268V32.5702C86.3268 33.9439 86.0152 35.1722 85.3922 36.255C84.7692 37.3217 83.9002 38.1621 82.7853 38.7762C81.6868 39.3742 80.3915 39.6732 78.8995 39.6732Z" fill="#44B64B"/>
<path d="M60.6997 39.6732C59.3717 39.6732 58.142 39.455 57.0107 39.0186C55.8958 38.5661 54.912 37.9358 54.0594 37.1277C53.2233 36.3197 52.5674 35.3823 52.0919 34.3156C51.6329 33.2328 51.4033 32.0611 51.4033 30.8005C51.4033 29.5237 51.6411 28.352 52.1165 27.2853C52.6084 26.2025 53.2888 25.2651 54.1578 24.4732C55.0268 23.6651 56.0351 23.0429 57.1828 22.6065C58.3469 22.154 59.5848 21.9277 60.8965 21.9277C62.4541 21.9277 63.8641 22.2025 65.1266 22.752C66.3891 23.2853 67.4138 24.0287 68.2008 24.9823L65.2496 27.8914C64.6593 27.1964 64.0117 26.6792 63.3067 26.3399C62.6017 25.9843 61.7819 25.8065 60.8473 25.8065C59.8963 25.8065 59.0438 26.0166 58.2896 26.4368C57.5517 26.8409 56.9615 27.4146 56.5188 28.158C56.0761 28.9015 55.8548 29.7742 55.8548 30.7762C55.8548 31.7782 56.0597 32.659 56.4696 33.4186C56.8959 34.1782 57.4698 34.7681 58.1912 35.1883C58.929 35.6085 59.7734 35.8186 60.7243 35.8186C61.6753 35.8186 62.4787 35.6409 63.1345 35.2853C63.8067 34.9298 64.315 34.4126 64.6593 33.7338C65.02 33.055 65.2004 32.2469 65.2004 31.3096L68.1762 33.2005L60.2325 33.0065V29.4671H69.6273V30.1217C69.6273 32.1742 69.2501 33.9116 68.4959 35.3338C67.7417 36.756 66.6924 37.8388 65.3479 38.5823C64.0199 39.3096 62.4705 39.6732 60.6997 39.6732Z" fill="#44B64B"/>
<path d="M132.933 15.0753V13.0893H135.058C135.52 13.0893 135.871 12.9807 136.113 12.7635C136.364 12.536 136.49 12.2308 136.49 11.8481C136.49 11.4757 136.364 11.1758 136.113 10.9482C135.871 10.7103 135.52 10.5914 135.058 10.5914H132.933V8.52787H135.452C136.207 8.52787 136.868 8.66751 137.435 8.94678C138.012 9.22605 138.463 9.60876 138.788 10.0949C139.114 10.581 139.276 11.1499 139.276 11.8016C139.276 12.4532 139.108 13.0273 138.773 13.5237C138.447 14.0099 137.991 14.3926 137.403 14.6719C136.816 14.9408 136.128 15.0753 135.341 15.0753H132.933ZM130.698 19.5281V8.52787H133.516V19.5281H130.698ZM136.742 19.5281L133.5 14.8115L136.034 14.2064L140 19.5281H136.742Z" fill="#30367A"/>
<path d="M120.83 19.5281V8.52787H123.647V19.5281H120.83ZM123.065 19.5281V17.1853H129.109V19.5281H123.065ZM123.065 15.0597V12.779H128.542V15.0597H123.065ZM123.065 10.8707V8.52787H129.015V10.8707H123.065Z" fill="#30367A"/>
<path d="M107.196 19.5281V8.52787H109.226L113.507 14.9046H112.547L116.813 8.52787H118.843V19.5281H116.057V13.1204L116.498 13.2445L113.932 17.0457H112.107L109.557 13.2445L109.997 13.1204V19.5281H107.196Z" fill="#30367A"/>
<path d="M100.648 19.6988C99.7034 19.6988 98.8691 19.5074 98.1451 19.1247C97.4316 18.7317 96.8754 18.1886 96.4767 17.4956C96.0779 16.8026 95.8785 16.0165 95.8785 15.1373V8.52787H98.6803V15.339C98.6803 15.7321 98.7642 16.0734 98.9321 16.363C99.1105 16.6423 99.3466 16.8595 99.6404 17.0147C99.9447 17.1595 100.28 17.2319 100.648 17.2319C101.026 17.2319 101.356 17.1595 101.639 17.0147C101.923 16.8595 102.148 16.6423 102.316 16.363C102.484 16.0837 102.568 15.7476 102.568 15.3545V8.52787H105.401V15.1528C105.401 16.032 105.202 16.8181 104.803 17.5111C104.404 18.1938 103.848 18.7317 103.135 19.1247C102.432 19.5074 101.603 19.6988 100.648 19.6988Z" fill="#30367A"/>
<path d="M89.9852 19.6988C89.0513 19.6988 88.238 19.5591 87.5455 19.2799C86.8634 19.0006 86.239 18.561 85.6724 17.9611L87.451 16.1924C87.8393 16.5957 88.2538 16.9061 88.6945 17.1233C89.1352 17.3301 89.6336 17.4336 90.1898 17.4336C90.662 17.4336 91.024 17.356 91.2758 17.2008C91.5382 17.0353 91.6693 16.813 91.6693 16.5337C91.6693 16.2751 91.5749 16.0631 91.386 15.8976C91.1971 15.7217 90.9453 15.5717 90.6305 15.4476C90.3262 15.3132 89.9852 15.189 89.6074 15.0753C89.2401 14.9511 88.8676 14.8063 88.4899 14.6408C88.1226 14.465 87.7816 14.253 87.4668 14.0047C87.1625 13.7565 86.9159 13.4462 86.727 13.0738C86.5381 12.7014 86.4437 12.2412 86.4437 11.693C86.4437 10.9896 86.6116 10.3897 86.9473 9.8932C87.2936 9.39672 87.7711 9.01401 88.3797 8.74508C88.9883 8.47615 89.6966 8.34169 90.5046 8.34169C91.3126 8.34169 92.0576 8.47615 92.7397 8.74508C93.4217 9.01401 93.9831 9.38637 94.4238 9.86217L92.6295 11.6154C92.2937 11.2844 91.9527 11.0362 91.6064 10.8707C91.2601 10.7052 90.8823 10.6224 90.4731 10.6224C90.0848 10.6224 89.7805 10.6896 89.5602 10.8241C89.3398 10.9586 89.2296 11.1499 89.2296 11.3982C89.2296 11.6464 89.3241 11.8481 89.513 12.0033C89.7018 12.1584 89.9484 12.2981 90.2527 12.4222C90.5675 12.5359 90.9086 12.6549 91.2758 12.779C91.6536 12.9031 92.0261 13.048 92.3934 13.2134C92.7606 13.3789 93.0964 13.591 93.4007 13.8496C93.7155 14.1082 93.9674 14.434 94.1562 14.827C94.3451 15.2201 94.4396 15.6959 94.4396 16.2544C94.4396 17.3508 94.0461 18.199 93.2591 18.7989C92.4826 19.3988 91.3913 19.6988 89.9852 19.6988Z" fill="#30367A"/>
<path d="M74.9318 19.5281V8.52787H76.8993L77.7493 10.7776V19.5281H74.9318ZM82.6287 19.5281L76.1123 11.3671L76.8993 8.52787L83.4314 16.6888L82.6287 19.5281ZM82.6287 19.5281L81.9046 17.2164V8.52787H84.7221V19.5281H82.6287Z" fill="#30367A"/>
<path d="M67.5888 19.7298C66.7283 19.7298 65.9361 19.585 65.212 19.2954C64.488 19.0058 63.8532 18.6024 63.3075 18.0852C62.7724 17.568 62.3526 16.9629 62.0483 16.2699C61.744 15.5666 61.5919 14.8115 61.5919 14.0047C61.5919 13.1979 61.7388 12.4532 62.0326 11.7705C62.3369 11.0775 62.7566 10.4724 63.2918 9.95526C63.8269 9.43809 64.4565 9.03987 65.1806 8.7606C65.9046 8.47098 66.6968 8.32617 67.5573 8.32617C68.4178 8.32617 69.21 8.47098 69.934 8.7606C70.6581 9.03987 71.2877 9.43809 71.8228 9.95526C72.358 10.4724 72.7725 11.0775 73.0663 11.7705C73.3706 12.4635 73.5228 13.2134 73.5228 14.0202C73.5228 14.827 73.3706 15.5769 73.0663 16.2699C72.7725 16.9629 72.358 17.5732 71.8228 18.1007C71.2877 18.6179 70.6581 19.0213 69.934 19.3109C69.2205 19.5902 68.4387 19.7298 67.5888 19.7298ZM67.5573 17.2474C68.1869 17.2474 68.7326 17.1129 69.1943 16.844C69.656 16.5751 70.0127 16.1975 70.2646 15.7114C70.5164 15.2252 70.6423 14.6564 70.6423 14.0047C70.6423 13.5289 70.5689 13.0945 70.422 12.7014C70.2856 12.3084 70.0809 11.9722 69.8081 11.693C69.5353 11.4033 69.21 11.181 68.8322 11.0258C68.4545 10.8707 68.0295 10.7931 67.5573 10.7931C66.9277 10.7931 66.3821 10.9275 65.9203 11.1965C65.4586 11.4551 65.1019 11.8274 64.85 12.3136C64.5982 12.7997 64.4723 13.3634 64.4723 14.0047C64.4723 14.5012 64.5405 14.9511 64.6769 15.3545C64.8238 15.7476 65.0337 16.0889 65.3065 16.3785C65.5793 16.6578 65.9046 16.875 66.2824 17.0302C66.6601 17.175 67.0851 17.2474 67.5573 17.2474Z" fill="#30367A"/>
<path d="M57.1207 19.6988C56.2708 19.6988 55.4838 19.5591 54.7597 19.2799C54.0357 18.9903 53.4008 18.592 52.8552 18.0852C52.32 17.568 51.9003 16.9629 51.596 16.2699C51.3022 15.5769 51.1553 14.827 51.1553 14.0202C51.1553 13.2031 51.3022 12.4532 51.596 11.7705C51.9003 11.0775 52.32 10.4776 52.8552 9.97078C53.4008 9.46395 54.0304 9.06573 54.744 8.77611C55.468 8.4865 56.2498 8.34169 57.0892 8.34169C57.9707 8.34169 58.7629 8.48132 59.466 8.7606C60.169 9.02953 60.7881 9.40706 61.3233 9.8932L59.4345 11.755C59.1722 11.4654 58.8469 11.2378 58.4586 11.0724C58.0704 10.9069 57.6139 10.8241 57.0892 10.8241C56.638 10.8241 56.2235 10.8965 55.8458 11.0413C55.4785 11.1861 55.1585 11.4033 54.8856 11.693C54.6128 11.9722 54.3977 12.3084 54.2403 12.7014C54.0934 13.0945 54.0199 13.5341 54.0199 14.0202C54.0199 14.5064 54.0934 14.946 54.2403 15.339C54.3977 15.7321 54.6128 16.0734 54.8856 16.363C55.1585 16.6423 55.4785 16.8595 55.8458 17.0147C56.2235 17.1595 56.638 17.2319 57.0892 17.2319C57.6139 17.2319 58.0756 17.1543 58.4744 16.9991C58.8731 16.8336 59.2141 16.6009 59.4975 16.301L61.3863 18.1628C60.8406 18.6489 60.2215 19.0265 59.5289 19.2954C58.8469 19.5643 58.0441 19.6988 57.1207 19.6988Z" fill="#30367A"/>
<defs>
<clipPath id="clip0_166_1382">
<rect width="38.858" height="48" fill="white"/>
</clipPath>
</defs>
</svg>
