<svg width="196" height="80" viewBox="0 0 196 80" fill="none" xmlns="http://www.w3.org/2000/svg">
<path fill-rule="evenodd" clip-rule="evenodd" d="M44 9.0166H152V70.9838H44V9.0166Z" fill="#B4B7CF"/>
<path fill-rule="evenodd" clip-rule="evenodd" d="M99.0326 56.5129C99.958 55.9755 100.773 54.6522 101.478 53.4751C101.551 53.3685 101.625 53.2595 101.771 53.2595C101.843 53.2595 101.953 53.3295 101.953 53.4751C101.953 53.7944 100.877 55.5953 99.5826 56.5129H104.244C105.406 55.2066 106.37 53.8559 107.115 52.5582V44.7019C107.082 44.7 107.051 44.6982 107.017 44.6982C105.852 44.6982 104.796 45.3495 104.176 45.7815C102.608 46.8653 101.917 47.8036 100.934 49.0672H104.686C104.83 49.0672 105.05 49.1056 105.05 49.2847C105.05 49.61 104.722 49.6466 104.468 49.6466H100.423C99.6225 50.7664 99.0025 51.5956 98.1999 53.1138C97.3998 54.6291 97.2904 55.3175 97.2904 55.7854C97.2904 56.1418 97.3832 56.3673 97.5123 56.5123L99.0326 56.5129ZM107.115 56.5129V55.2852C106.803 55.7078 106.473 56.1174 106.127 56.5129H107.115Z" fill="white"/>
<path fill-rule="evenodd" clip-rule="evenodd" d="M135.541 23.7271C131.204 23.7271 128.047 25.5061 125.506 28.8838C123.773 25.0169 120.183 23.7271 116.156 23.7271C112.254 23.7271 108.846 25.8126 106.928 29.0081H106.805V24.6465H96.5874V30.9486C94.8932 24.9432 88.5618 23.7271 82.0437 23.7271C78.3897 23.7271 74.6744 24.34 71.8255 25.935C68.976 27.594 66.996 30.2942 66.8092 34.4688H76.6568C77.1503 31.7699 79.0067 30.4801 81.9201 30.4801C84.0869 30.4801 86.9979 31.4013 86.9979 33.7944C86.9979 35.7611 86.0091 36.3746 84.2104 36.742C76.9032 38.2151 65.5076 37.4182 65.5076 47.7932C65.5076 54.3646 70.3408 57.4359 76.4694 57.4359C80.3083 57.4359 84.3352 56.3277 87.0593 53.5062C87.1847 54.548 87.3058 55.5301 87.6782 56.5135H88.748C88.2177 55.1841 88.0714 53.8693 88.0714 52.7532C88.0714 44.7354 97.4348 38.9566 101.042 38.9566C101.735 38.9566 102.387 39.1382 102.935 39.6798C103.738 40.4365 103.665 41.4113 103.627 42.0632C104.429 41.2316 104.975 40.6546 105.667 39.4995C106.141 38.6684 106.361 37.9818 106.361 37.548C106.361 37.1508 106.213 36.7895 106.034 36.6092C105.814 36.4276 105.704 36.4276 105.159 36.4276C104.174 36.4276 104.101 35.6691 104.101 35.4168C104.101 34.5127 104.937 33.7195 105.958 33.7195C106.828 33.7195 107.734 34.3275 107.741 35.6118C108.526 33.2205 110.058 32.3218 112.498 32.3218C115.348 32.3218 116.464 34.6541 116.464 38.401V56.5135H126.991V40.916C126.991 35.7611 127.424 32.3224 131.945 32.3224C134.669 32.3224 136.343 34.347 136.343 37.7856V56.5135H146.87V37.4792C146.872 31.4012 145.757 23.7271 135.541 23.7271ZM80.4342 50.9869C78.0825 50.9869 76.0368 49.9433 76.0368 47.3631C76.0368 44.8481 78.0192 43.8635 80.3728 43.3134C82.6649 42.6999 85.3891 42.514 86.8737 41.5928C87.1232 48.1618 85.4505 50.9869 80.4342 50.9869Z" fill="white"/>
<path fill-rule="evenodd" clip-rule="evenodd" d="M92.6275 48.5615C92.2097 49.3052 91.8209 50.0645 91.4617 50.8377C90.806 52.3919 90.2216 54.5596 90.2216 56.1114C90.2216 56.2509 90.2278 56.3825 90.2352 56.5129H97.0833C96.7595 56.115 96.561 55.5107 96.561 54.7387C96.561 52.5369 97.7617 50.7304 98.5299 49.6472H96.1234C95.9784 49.6472 95.7609 49.6106 95.7609 49.3578C95.7609 49.1062 95.9784 49.1062 96.1234 49.0672H99.0387C99.9138 48.0924 100.861 47.0091 102.462 45.9612C103.775 45.0961 105.487 44.3369 106.798 44.3369C106.906 44.3369 107.01 44.343 107.115 44.354V40.9787C107.115 39.642 107.184 38.4936 107.323 37.5029C106.696 39.0992 105.416 40.955 103.81 42.4958C99.9863 46.3255 95.2496 47.7682 92.6275 48.5615Z" fill="white"/>
<path fill-rule="evenodd" clip-rule="evenodd" d="M100.97 39.3179C100.349 39.3179 99.7294 39.6792 99.2206 40.0746C97.9811 40.9806 97.1792 41.9176 96.2328 43.1465C94.777 45.023 94.0851 46.144 92.99 47.9864C95.1765 47.3704 97.4723 46.7203 99.6588 44.4825C100.568 43.5784 101.99 41.7738 101.99 40.4724C101.99 39.8248 101.735 39.3179 100.97 39.3179ZM49.9217 64.9516C49.9217 65.1935 49.9886 65.3629 50.251 65.4141C50.573 65.4738 50.6081 65.5158 50.6081 65.5731C50.6081 65.6322 50.581 65.6645 50.4975 65.6645C50.3106 65.6645 49.9966 65.6316 49.5917 65.6316C49.1154 65.6316 48.888 65.6645 48.676 65.6645C48.5912 65.6645 48.5488 65.6316 48.5488 65.5572C48.5488 65.4975 48.5832 65.4482 48.7283 65.4293C48.998 65.4068 49.0927 65.2453 49.0927 65.0753V60.9629C49.0927 60.685 49.0325 60.5937 48.786 60.5784C48.5918 60.5589 48.5488 60.526 48.5488 60.4669C48.5488 60.3828 48.6084 60.3408 48.7012 60.3408C48.9384 60.3408 49.183 60.3731 49.5493 60.3731C49.9966 60.3731 50.3014 60.3408 50.7924 60.3408C51.716 60.3408 52.2753 60.93 52.2753 61.7189C52.2753 62.4665 51.6583 62.8771 50.9719 62.9697V62.9862C51.2263 63.0282 51.3264 63.147 51.4536 63.3974C52.1499 64.7829 52.2322 65.2703 52.478 65.4293C52.6489 65.5402 52.7841 65.464 52.7841 65.5901C52.7841 65.6316 52.7595 65.6645 52.6814 65.6645C52.4873 65.6645 52.2925 65.6316 52.0977 65.6316C51.885 65.6316 51.8174 65.6645 51.6484 65.6645C51.5882 65.6645 51.5477 65.6249 51.496 65.5055L50.4551 63.2561C50.4047 63.147 50.3451 63.08 50.1834 63.08C49.996 63.08 49.9217 63.1202 49.9217 63.2829V64.9516ZM49.9217 62.6426C49.9217 62.8107 49.945 62.8448 50.1914 62.8448C50.9547 62.8448 51.3615 62.5335 51.3615 61.7025C51.3615 61.0981 50.9547 60.5784 50.4452 60.5784C50.0212 60.5784 49.9112 60.685 49.921 61.0226L49.9217 62.6426ZM54.4168 65.7674C53.4779 65.7674 52.7921 64.8176 52.7921 63.7337C52.7921 62.6523 53.4779 61.7025 54.4168 61.7025C55.3577 61.7025 56.0441 62.6523 56.0441 63.7337C56.0441 64.8176 55.3577 65.7674 54.4168 65.7674ZM55.2655 63.7337C55.2655 62.9545 54.9681 61.9023 54.4168 61.9023C53.8675 61.9023 53.5725 62.9545 53.5725 63.7337C53.5725 64.5154 53.8675 65.5646 54.4168 65.5646C54.9681 65.5646 55.2655 64.5154 55.2655 63.7337ZM56.8153 60.643C56.8153 60.4596 56.8073 60.3256 56.6211 60.2915C56.4859 60.2653 56.4091 60.2421 56.4091 60.1739C56.4091 60.0892 56.4939 60.0819 56.5861 60.0569C56.9431 59.9655 57.4593 59.6889 57.4427 59.6706V59.6883C57.4925 59.6883 57.5097 59.7127 57.5097 59.8047V61.9127C57.5097 61.9968 57.5097 62.0717 57.5693 62.0717C57.6621 62.0717 57.9263 61.7031 58.4757 61.7031C59.2549 61.7031 59.7638 62.525 59.7638 63.7173C59.7638 64.7421 59.1179 65.768 58.0517 65.768C57.5103 65.768 57.4003 65.4988 57.1705 65.4988C56.9603 65.4988 57.0279 65.8509 56.8159 65.8509C56.7391 65.8509 56.7237 65.818 56.7237 65.7096C56.7237 65.5658 56.8159 65.4153 56.8159 64.7591L56.8153 60.643ZM57.5091 64.976C57.5091 65.33 57.7291 65.5646 58.0603 65.5646C58.6017 65.5646 58.9839 64.9937 58.9839 63.8276C58.9839 62.9448 58.6773 62.1223 58.0425 62.1223C57.7131 62.1223 57.5085 62.2734 57.5085 62.617L57.5091 64.976ZM61.1857 63.5333C61.0413 63.5333 61.0063 63.5577 61.0063 63.8276C61.0063 64.6336 61.3633 65.3464 62.0067 65.3464C62.8978 65.3464 62.8455 64.6738 63.0225 64.6738C63.0901 64.6738 63.1172 64.7086 63.1172 64.7756C63.1172 64.9833 62.7183 65.7668 61.7695 65.7668C60.9135 65.7668 60.2271 65.0692 60.2271 63.7746C60.2271 62.6913 60.8367 61.7019 61.8371 61.7019C62.7183 61.7019 63.1172 62.4561 63.1172 63.1872C63.1172 63.4736 63.0477 63.5327 62.8609 63.5327L61.1857 63.5333ZM61.8629 61.9023C61.1612 61.9023 61.0413 62.9862 61.0413 63.155C61.0413 63.289 61.1181 63.331 61.3959 63.331C62.1923 63.331 62.4215 63.2214 62.4215 62.7346C62.4215 62.3806 62.2771 61.9023 61.8629 61.9023ZM64.6479 64.9937C64.6479 65.2953 64.7426 65.4293 65.005 65.4634C65.319 65.5048 65.3423 65.5225 65.3423 65.5895C65.3423 65.6243 65.319 65.6639 65.2502 65.6639C65.1076 65.6639 64.836 65.631 64.3364 65.631C63.897 65.631 63.6248 65.6639 63.4724 65.6639C63.4152 65.6639 63.3611 65.6492 63.3611 65.5969C63.3611 65.5304 63.4054 65.5055 63.6155 65.4634C63.8779 65.4135 63.9025 65.3294 63.9025 65.0522V62.6572C63.9025 62.4659 63.7446 62.4409 63.6075 62.4239C63.4976 62.405 63.4152 62.3891 63.4152 62.3221C63.4152 62.1966 63.5658 62.2459 64.0666 61.9693C64.4138 61.7756 64.4138 61.669 64.4894 61.669C64.5312 61.669 64.549 61.7336 64.549 61.8676V62.5232C64.549 62.5481 64.557 62.5573 64.5644 62.5573C64.5994 62.5573 64.954 61.7019 65.5304 61.7019C65.8364 61.7019 66.0564 61.9541 66.0564 62.2386C66.0564 62.5079 65.904 62.7949 65.6416 62.7949C65.437 62.7949 65.362 62.6913 65.3196 62.5408C65.268 62.3745 65.3005 62.2234 65.158 62.2234C64.8704 62.2234 64.6485 62.726 64.6485 63.3134L64.6479 64.9937ZM67.1736 61.8359H67.715C67.7998 61.8359 67.8176 61.8688 67.8176 61.9791C67.8176 62.0882 67.8004 62.1223 67.715 62.1223H67.2148C67.1816 62.1223 67.1742 62.157 67.1742 62.1722V64.7506C67.1742 65.1192 67.2572 65.2605 67.4286 65.2605C67.6658 65.2605 67.7389 64.8596 67.8612 64.8596C67.911 64.8596 67.9362 64.8938 67.9362 64.9687C67.9362 65.0948 67.6738 65.7674 67.1226 65.7674C66.6236 65.7674 66.481 65.3129 66.481 64.7585V62.2569C66.481 62.1576 66.4558 62.1229 66.3864 62.1229H66.1572C66.0822 62.1229 66.0724 62.0967 66.0724 62.0467C66.0724 61.945 66.226 61.9127 66.5308 61.5837C66.9628 61.1207 66.9376 60.7618 67.09 60.7618C67.1318 60.7618 67.1748 60.8112 67.1748 60.8879V61.8359H67.1736ZM68.1304 64.6172C68.1304 64.5057 68.1722 64.4557 68.257 64.4557C68.3338 64.4557 68.3842 64.5307 68.4942 64.8426C68.6466 65.2873 68.8764 65.5646 69.2814 65.5646C69.6728 65.5646 69.9076 65.2459 69.9076 64.8353C69.9076 63.8507 68.1132 63.8946 68.1132 62.826C68.1132 62.0882 68.834 61.7025 69.4166 61.7025C69.7146 61.7025 70.06 61.7598 70.197 61.8183C70.299 61.8621 70.307 61.9121 70.307 62.4147C70.307 62.6834 70.2824 62.7333 70.1552 62.7333C69.918 62.7333 70.0452 61.9017 69.282 61.9017C68.9274 61.9017 68.7068 62.1375 68.7068 62.4659C68.7068 63.3493 70.5018 63.2457 70.5018 64.5148C70.5018 65.2197 69.8928 65.7668 69.0116 65.7668C68.6546 65.7668 68.1304 65.631 68.1304 65.4799V64.6172ZM72.3828 65.687L70.7593 62.9198H74.0119L72.3828 65.687ZM75.201 63.7666C75.0744 63.7666 75.0744 63.8184 74.9564 64.3058C74.785 65.0089 74.7444 65.1204 74.7444 65.1795C74.7444 65.2886 74.812 65.372 74.997 65.4299C75.1574 65.4811 75.3964 65.4488 75.3964 65.5579C75.3964 65.6072 75.3712 65.6651 75.244 65.6651C75.1672 65.6651 74.8372 65.6322 74.6344 65.6322C74.2282 65.6322 74.0832 65.6651 73.9984 65.6651C73.9406 65.6651 73.9136 65.6401 73.9136 65.5828C73.9136 65.4549 74.0236 65.5061 74.203 65.4299C74.396 65.3471 74.4826 64.9523 75.1672 62.7096C75.9126 60.2768 75.8555 60.2421 76.0079 60.2421C76.183 60.2421 76.1179 60.3414 77.1589 63.6996C77.581 65.0607 77.6327 65.372 77.8023 65.4299C77.9971 65.4981 78.0972 65.4738 78.0972 65.5731C78.0972 65.6322 78.072 65.6645 77.9202 65.6645C77.7851 65.6645 77.5128 65.6316 77.2013 65.6316C76.7441 65.6316 76.4393 65.6645 76.3446 65.6645C76.2525 65.6645 76.2352 65.6249 76.2352 65.5646C76.2352 65.4908 76.32 65.4981 76.607 65.4293C76.717 65.4068 76.7514 65.3032 76.7514 65.2368C76.7514 65.1618 76.709 65.0528 76.5394 64.449C76.3717 63.8331 76.3717 63.7666 76.2598 63.7666H75.201ZM76.1928 63.5333C76.2524 63.5333 76.2697 63.5333 76.2697 63.5089C76.2697 63.4486 76.218 63.2981 75.8979 62.1893C75.7688 61.7537 75.7688 61.7196 75.7363 61.7196C75.6932 61.7196 75.6932 61.7695 75.4136 62.7614C75.2367 63.4169 75.2016 63.4846 75.2016 63.5095C75.2016 63.526 75.2194 63.5339 75.2944 63.5339H76.1928V63.5333ZM78.4039 60.643C78.4039 60.4596 78.394 60.3256 78.2072 60.2915C78.072 60.2653 77.9977 60.2421 77.9977 60.1739C77.9977 60.0892 78.0825 60.0819 78.1747 60.0569C78.5292 59.9655 79.046 59.6889 79.0313 59.6706V59.6883C79.0811 59.6883 79.0983 59.7127 79.0983 59.8047V61.9127C79.0983 61.9968 79.0983 62.0717 79.1579 62.0717C79.2507 62.0717 79.5131 61.7031 80.0637 61.7031C80.8429 61.7031 81.3499 62.525 81.3499 63.7173C81.3499 64.7421 80.7077 65.768 79.6397 65.768C79.0983 65.768 78.9883 65.4988 78.7609 65.4988C78.5489 65.4988 78.6165 65.8509 78.4039 65.8509C78.3271 65.8509 78.3117 65.818 78.3117 65.7096C78.3117 65.5658 78.4039 65.4153 78.4039 64.7591V60.643ZM79.0977 64.976C79.0977 65.33 79.317 65.5646 79.6489 65.5646C80.1903 65.5646 80.5725 64.9937 80.5725 63.8276C80.5725 62.9448 80.2659 62.1223 79.6317 62.1223C79.3023 62.1223 79.0977 62.2734 79.0977 62.617V64.976ZM83.4417 65.7674C82.5009 65.7674 81.8181 64.8176 81.8181 63.7337C81.8181 62.6523 82.5009 61.7025 83.4417 61.7025C84.3825 61.7025 85.0689 62.6523 85.0689 63.7337C85.0683 64.8176 84.3825 65.7674 83.4417 65.7674ZM84.2891 63.7337C84.2891 62.9545 83.9923 61.9023 83.4411 61.9023C82.8917 61.9023 82.5967 62.9545 82.5967 63.7337C82.5967 64.5154 82.8917 65.5646 83.4411 65.5646C83.9929 65.5646 84.2891 64.5154 84.2891 63.7337ZM86.6009 63.9762V65.0851C86.6009 65.3123 86.6765 65.3714 86.9481 65.4634C87.0427 65.4975 87.1103 65.4975 87.1103 65.5639C87.1103 65.6139 87.0679 65.6639 87.0237 65.6639C86.7711 65.6639 86.5167 65.631 86.2641 65.631C86.0245 65.631 85.7897 65.6639 85.5525 65.6639C85.4757 65.6639 85.4505 65.6389 85.4505 65.5725C85.4505 65.5055 85.4831 65.4805 85.5679 65.4634C85.8555 65.4135 85.9071 65.3373 85.9071 65.1271V60.7112C85.9071 60.2647 85.7645 60.2756 85.6625 60.2586C85.5679 60.2488 85.4757 60.2238 85.4757 60.1404C85.4757 60.0733 85.5857 60.0557 85.6625 60.0392C85.8856 59.9908 86.1014 59.9143 86.3047 59.8114C86.4172 59.7541 86.5013 59.6877 86.5321 59.6877C86.5837 59.6877 86.6015 59.7121 86.6015 59.8041V63.5156C86.6015 63.59 86.6193 63.6003 86.6365 63.6003C86.6519 63.6003 86.7213 63.5333 86.9579 63.2981C87.8988 62.3654 87.9916 62.3227 87.9916 62.1631C87.9916 62.0638 87.8988 62.0217 87.6702 62.0041C87.5577 61.9962 87.4655 61.97 87.4655 61.8932C87.4655 61.8536 87.5178 61.8012 87.6099 61.8012C87.8723 61.8012 88.1016 61.8359 88.3289 61.8359C88.584 61.8359 88.965 61.8012 89.0332 61.8012C89.1253 61.8012 89.1352 61.8262 89.1352 61.8682C89.1352 61.962 89.1001 61.9371 88.8636 62.0041C88.4746 62.1131 88.4414 62.2234 87.5436 63.1105C88.8562 65.2289 88.8058 65.3964 89.118 65.4634C89.228 65.4902 89.2704 65.5152 89.2704 65.5639C89.2704 65.631 89.22 65.6639 89.118 65.6639C88.8808 65.6639 88.6442 65.631 88.4063 65.631C88.2294 65.631 88.0499 65.6639 87.8373 65.6639C87.747 65.6639 87.7119 65.6243 87.7119 65.5639C87.7119 65.5152 87.747 65.4902 87.8471 65.4634C88.0088 65.4214 88.0247 65.3964 88.0247 65.2873C88.0247 65.2112 87.8723 64.9937 87.0507 63.5747L86.6009 63.9762Z" fill="white"/>
<path fill-rule="evenodd" clip-rule="evenodd" d="M91.506 62.801C91.506 62.3331 91.2866 62.1229 90.9799 62.1229C90.65 62.1229 90.3955 62.3337 90.253 62.7522V65.0857C90.253 65.3129 90.2855 65.3544 90.6075 65.464C90.6844 65.4908 90.7249 65.5158 90.7249 65.5646C90.7249 65.6145 90.6991 65.6645 90.6248 65.6645C90.4644 65.6645 90.2352 65.6316 89.888 65.6316C89.6163 65.6316 89.3539 65.6645 89.2194 65.6645C89.1247 65.6645 89.0823 65.6499 89.0823 65.5731C89.0823 65.5061 89.1518 65.4738 89.2618 65.4488C89.4891 65.397 89.5561 65.3379 89.5561 65.0534V60.6856C89.5561 60.2921 89.4062 60.3171 89.2618 60.2921C89.169 60.2848 89.1094 60.2775 89.1094 60.1989C89.1094 60.1245 89.169 60.0995 89.279 60.0746C89.8542 59.9564 89.99 59.6889 90.1835 59.6889C90.2352 59.6889 90.253 59.7133 90.253 59.8053V62.366H90.2708C90.6002 61.9456 90.9123 61.7031 91.2688 61.7031C91.7954 61.7031 92.2004 61.9706 92.2004 62.7614V65.1618C92.2004 65.2959 92.2852 65.3793 92.574 65.464C92.6318 65.4805 92.676 65.5158 92.676 65.5731C92.676 65.6322 92.6318 65.6645 92.5648 65.6645C92.464 65.6645 92.2674 65.6316 91.8378 65.6316C91.6338 65.6316 91.4218 65.6645 91.2171 65.6645C91.1164 65.6645 91.0666 65.6395 91.0666 65.5822C91.0666 65.5158 91.0912 65.4975 91.2073 65.464C91.4636 65.3891 91.506 65.347 91.506 65.1618V62.801ZM95.4426 64.7908C95.4426 65.1277 95.5962 65.2289 95.724 65.2289C95.901 65.2289 95.9262 64.9614 96.0614 64.9614C96.1118 64.9614 96.137 64.9943 96.137 65.0607C96.137 65.3379 95.7664 65.7333 95.4002 65.7333C94.8588 65.7333 94.8004 65.1113 94.6984 65.1113C94.5976 65.1113 94.3438 65.7668 93.6826 65.7668C93.2407 65.7668 92.971 65.5298 92.971 65.0333C92.971 64.1115 94.7488 63.5248 94.7488 62.9953V62.2728C94.7488 62.0528 94.6216 61.9017 94.3936 61.9017C94.0716 61.9017 93.792 62.1716 93.7403 62.617C93.6998 62.9856 93.5302 63.2134 93.2156 63.2134C93.0134 63.2134 92.9114 63.1044 92.9114 62.9344C92.9114 62.6103 93.5898 61.7025 94.6056 61.7025C95.265 61.7025 95.4426 61.8182 95.4426 62.274V64.7908ZM94.7482 63.6326C94.7482 63.5333 94.723 63.5162 94.6627 63.5162C94.5527 63.5162 93.7742 64.1797 93.749 64.7683C93.749 65.0284 93.894 65.2295 94.1312 65.2295C94.5282 65.2295 94.7482 64.9273 94.7482 64.1724V63.6326Z" fill="white"/>
<path fill-rule="evenodd" clip-rule="evenodd" d="M97.2566 65.0857C97.2566 65.3471 97.3322 65.4391 97.5694 65.464C97.7138 65.4805 97.7661 65.5231 97.7661 65.5646C97.7661 65.6145 97.7372 65.6645 97.6216 65.6645C97.4594 65.6645 97.2394 65.6316 96.8922 65.6316C96.5186 65.6316 96.2562 65.6645 96.121 65.6645C96.0264 65.6645 95.9858 65.6499 95.9858 65.5731C95.9858 65.5061 96.0688 65.4738 96.1634 65.4488C96.4928 65.355 96.5604 65.3379 96.5604 65.0534V62.6182C96.5604 62.3909 96.4344 62.3812 96.2629 62.3489C96.1708 62.3343 96.1038 62.3239 96.1038 62.2399C96.1038 62.1485 96.1634 62.1387 96.2629 62.1137C96.9242 61.9456 97.1116 61.7031 97.1792 61.7031C97.2308 61.7031 97.256 61.7275 97.256 61.8189L97.2566 65.0857ZM96.9248 60.2915C97.162 60.2915 97.3168 60.5096 97.3168 60.7618C97.3168 61.0116 97.162 61.2315 96.9248 61.2315C96.69 61.2315 96.537 61.0116 96.537 60.7618C96.537 60.5096 96.69 60.2915 96.9248 60.2915ZM99.2292 64.9937C99.2292 65.2953 99.3214 65.4293 99.5856 65.4634C99.9003 65.5048 99.923 65.5225 99.923 65.5895C99.923 65.6243 99.9003 65.6639 99.8308 65.6639C99.6883 65.6639 99.4179 65.631 98.9177 65.631C98.4758 65.631 98.2054 65.6639 98.053 65.6639C97.9934 65.6639 97.9412 65.6492 97.9412 65.5969C97.9412 65.5304 97.9854 65.5055 98.1956 65.4634C98.4574 65.4135 98.4826 65.3294 98.4826 65.0522V62.6572C98.4826 62.4659 98.3228 62.4409 98.1876 62.4239C98.0776 62.405 97.9934 62.3891 97.9934 62.3221C97.9934 62.1966 98.1458 62.2459 98.6473 61.9693C98.992 61.7756 98.992 61.669 99.0676 61.669C99.1118 61.669 99.129 61.7336 99.129 61.8676V62.5232C99.129 62.5481 99.1352 62.5573 99.1444 62.5573C99.177 62.5573 99.5359 61.7019 100.11 61.7019C100.416 61.7019 100.636 61.9541 100.636 62.2386C100.636 62.5079 100.485 62.7949 100.219 62.7949C100.018 62.7949 99.9396 62.6913 99.8997 62.5408C99.848 62.3745 99.8806 62.2234 99.7374 62.2234C99.448 62.2234 99.2286 62.726 99.2286 63.3134L99.2292 64.9937ZM104.47 63.8008C104.677 63.5753 104.894 63.3225 105.269 63.0794C105.573 62.8771 105.972 62.7017 106.276 62.7017C106.693 62.7017 106.997 63.0532 106.997 63.59C106.997 64.8176 105.514 66.7227 103.829 66.7227C103.363 66.7227 102.931 66.5966 102.532 66.211C102.025 65.7083 101.924 65.1113 101.924 64.6586C101.924 62.7949 104.099 61.449 104.938 61.449C105.098 61.449 105.253 61.4911 105.377 61.619C105.567 61.7927 105.548 62.0205 105.54 62.1716C105.727 61.9785 105.854 61.8426 106.013 61.5752C106.124 61.3845 106.176 61.2236 106.176 61.12C106.179 61.0405 106.151 60.9629 106.099 60.9025C106.048 60.8629 106.021 60.8629 105.896 60.8629C105.667 60.8629 105.65 60.685 105.65 60.6259C105.65 60.417 105.844 60.2336 106.084 60.2336C106.286 60.2336 106.496 60.3731 106.496 60.6771C106.496 61.0975 106.116 61.7592 105.582 62.2734C104.694 63.1623 103.592 63.4986 102.983 63.6838C102.885 63.8555 102.794 64.0315 102.712 64.2114C102.557 64.5727 102.423 65.0747 102.423 65.4384C102.423 66.3864 103.313 66.6484 103.778 66.6484C104.523 66.6484 105.092 66.1433 105.438 65.7918C106.312 64.9261 106.784 63.9001 106.784 63.3304C106.784 62.9953 106.64 62.7851 106.328 62.7851C106.057 62.7851 105.811 62.9338 105.667 63.0355C105.303 63.2878 105.14 63.5077 104.913 63.8002H105.787C105.819 63.8002 105.871 63.8099 105.871 63.8495C105.871 63.9257 105.794 63.9336 105.734 63.9336H104.795C104.607 64.1962 104.464 64.3887 104.278 64.7402C104.093 65.0942 104.067 65.2551 104.067 65.3623C104.067 65.5725 104.204 65.5895 104.278 65.5895C104.576 65.5895 104.828 65.1783 105.04 64.8243C105.058 64.8018 105.073 64.7756 105.107 64.7756C105.125 64.7756 105.15 64.7902 105.15 64.8243C105.15 64.9261 104.693 65.6578 104.269 65.6578C104.057 65.6578 103.897 65.4537 103.897 65.1192C103.897 64.6062 104.175 64.1864 104.353 63.9336H103.796C103.761 63.9336 103.711 63.9257 103.711 63.869C103.711 63.8099 103.761 63.8099 103.796 63.8008H104.47ZM104.616 62.734C104.827 62.5238 105.16 62.1052 105.16 61.8012C105.16 61.6507 105.097 61.5337 104.922 61.5337C104.778 61.5337 104.633 61.6202 104.515 61.7098C104.226 61.9206 104.041 62.1381 103.819 62.4251C103.482 62.8607 103.322 63.1208 103.067 63.5491C103.574 63.4072 104.108 63.2561 104.616 62.734ZM111.866 60.551C111.926 60.3835 111.933 60.3408 112.076 60.3408C112.163 60.3408 112.315 60.3731 112.704 60.3731C112.874 60.3731 113.069 60.3408 113.221 60.3408C113.298 60.3408 113.339 60.3731 113.346 60.4346C113.357 60.5254 113.288 60.5583 113.144 60.5778C112.804 60.6192 112.798 60.6503 112.798 60.8355C112.798 62.6743 112.882 63.6168 112.882 65.0022C112.882 65.3026 112.917 65.3538 113.154 65.4287C113.329 65.4902 113.434 65.4476 113.434 65.5639C113.434 65.6492 113.366 65.6639 113.264 65.6639C113.069 65.6639 112.935 65.631 112.468 65.631C111.823 65.631 111.612 65.6639 111.467 65.6639C111.4 65.6639 111.365 65.6243 111.365 65.5639C111.365 65.4732 111.432 65.4634 111.654 65.4287C111.95 65.3885 112.018 65.3458 112.018 64.9754C112.018 64.4216 111.984 62.0364 111.941 61.3327H111.927C110.561 65.2697 110.605 65.631 110.434 65.631C110.257 65.631 110.359 65.4799 108.944 61.3327H108.926C108.869 62.3392 108.851 64.5398 108.851 64.8932C108.851 65.3294 108.944 65.3787 109.266 65.4384C109.479 65.4732 109.521 65.5049 109.521 65.5639C109.521 65.6243 109.495 65.6639 109.409 65.6639C109.291 65.6639 109.173 65.631 108.741 65.631C108.37 65.631 108.191 65.6639 108.055 65.6639C107.936 65.6639 107.92 65.6492 107.92 65.5895C107.92 65.5048 107.985 65.4902 108.274 65.4287C108.444 65.3958 108.487 65.2947 108.503 64.8993C108.589 63.0124 108.649 61.181 108.649 60.8532C108.649 60.6503 108.613 60.6022 108.172 60.5778C108.087 60.5778 108.062 60.5333 108.062 60.4493C108.062 60.3914 108.123 60.3402 108.207 60.3402C108.384 60.3402 108.471 60.3725 108.783 60.3725C109.106 60.3725 109.25 60.3402 109.315 60.3402C109.495 60.3402 109.53 60.3981 109.629 60.7021L110.716 63.8842H110.731L111.866 60.551ZM116.186 64.7908C116.186 65.1277 116.339 65.2289 116.466 65.2289C116.643 65.2289 116.669 64.9614 116.803 64.9614C116.856 64.9614 116.879 64.9943 116.879 65.0607C116.879 65.3379 116.509 65.7333 116.142 65.7333C115.603 65.7333 115.543 65.1113 115.441 65.1113C115.339 65.1113 115.086 65.7668 114.424 65.7668C113.983 65.7668 113.712 65.5298 113.712 65.0333C113.712 64.1115 115.491 63.5248 115.491 62.9953V62.2728C115.491 62.0528 115.363 61.9017 115.136 61.9017C114.815 61.9017 114.533 62.1716 114.483 62.617C114.44 62.9856 114.272 63.2134 113.958 63.2134C113.754 63.2134 113.654 63.1044 113.654 62.9344C113.654 62.6103 114.332 61.7025 115.347 61.7025C116.008 61.7025 116.187 61.8182 116.187 62.274L116.186 64.7908ZM115.491 63.6326C115.491 63.5333 115.466 63.5162 115.406 63.5162C115.295 63.5162 114.517 64.1797 114.493 64.7683C114.493 65.0284 114.635 65.2295 114.872 65.2295C115.271 65.2295 115.491 64.9273 115.491 64.1724V63.6326Z" fill="white"/>
<path fill-rule="evenodd" clip-rule="evenodd" d="M118.134 64.9937C118.134 65.2953 118.228 65.4293 118.491 65.4634C118.803 65.5048 118.828 65.5225 118.828 65.5895C118.828 65.6243 118.803 65.6639 118.736 65.6639C118.592 65.6639 118.319 65.631 117.82 65.631C117.378 65.631 117.111 65.6639 116.956 65.6639C116.897 65.6639 116.847 65.6492 116.847 65.5969C116.847 65.5304 116.889 65.5055 117.099 65.4634C117.363 65.4135 117.388 65.3294 117.388 65.0522V62.6572C117.388 62.4659 117.228 62.4409 117.094 62.4239C116.983 62.405 116.897 62.3891 116.897 62.3221C116.897 62.1966 117.051 62.2459 117.55 61.9693C117.896 61.7756 117.896 61.669 117.974 61.669C118.014 61.669 118.032 61.7336 118.032 61.8676V62.5232C118.032 62.5481 118.042 62.5573 118.049 62.5573C118.084 62.5573 118.439 61.7019 119.015 61.7019C119.32 61.7019 119.54 61.9541 119.54 62.2386C119.54 62.5079 119.387 62.7949 119.124 62.7949C118.92 62.7949 118.845 62.6913 118.803 62.5408C118.752 62.3745 118.786 62.2234 118.641 62.2234C118.354 62.2234 118.134 62.726 118.134 63.3134V64.9937ZM122.732 65.1429C122.732 65.2295 122.758 65.2788 122.834 65.2788C122.994 65.2788 122.994 64.9419 123.123 64.9419C123.173 64.9419 123.216 64.9614 123.216 65.0089V65.2782C123.216 65.4141 123.096 65.4293 122.774 65.5901C122.256 65.8424 122.207 65.8503 122.18 65.8503C122.037 65.8503 122.138 65.33 122.021 65.33C121.877 65.33 121.641 65.7674 120.996 65.7674C120.335 65.7674 119.743 65.0278 119.743 63.9007C119.743 62.6432 120.429 61.7031 121.301 61.7031C121.631 61.7031 121.902 61.8688 121.969 61.8688C122.014 61.8688 122.036 61.8438 122.036 61.6586V60.7118C122.036 60.4773 122.036 60.3085 121.807 60.2842C121.682 60.2762 121.571 60.2421 121.571 60.1733C121.571 60.0983 121.631 60.0813 121.749 60.0471C122.401 59.8711 122.588 59.6877 122.664 59.6877C122.715 59.6877 122.731 59.7121 122.731 59.8041V65.1429H122.732ZM122.037 62.8186C122.037 62.3063 121.808 61.9023 121.403 61.9023C120.962 61.9023 120.52 62.4415 120.52 63.7088C120.52 64.7908 120.904 65.3464 121.351 65.3464C121.725 65.3464 122.037 65.1277 122.037 64.5246V62.8186ZM126.408 65.0278C126.408 65.2039 126.51 65.2368 126.653 65.2703C126.762 65.2873 126.866 65.3032 126.866 65.3544C126.866 65.439 126.797 65.4214 126.602 65.4805C126.442 65.5304 126.163 65.6145 126.001 65.7254C125.962 65.7497 125.919 65.764 125.873 65.7668C125.806 65.7668 125.806 65.6828 125.806 65.5969V65.2605C125.806 65.1862 125.773 65.1612 125.739 65.1612C125.654 65.1612 125.25 65.7327 124.688 65.7327C124.121 65.7327 123.765 65.4061 123.765 64.6495V62.2898C123.765 62.0364 123.587 62.0211 123.442 62.0114C123.35 62.0035 123.257 61.9864 123.257 61.9017C123.257 61.8353 123.299 61.7927 123.385 61.7927H124.323C124.434 61.7927 124.459 61.8347 124.459 61.9438V64.6062C124.459 65.0942 124.663 65.3117 125.044 65.3117C125.425 65.3117 125.714 65.0077 125.714 64.6239V62.2977C125.714 62.0455 125.534 62.0284 125.39 62.0205C125.299 62.0108 125.204 61.9955 125.204 61.9115C125.204 61.8426 125.25 61.8 125.331 61.8H126.272C126.383 61.8 126.408 61.842 126.408 61.9535V65.0278ZM128.212 65.0339C128.212 65.347 128.348 65.397 128.577 65.464C128.755 65.5158 128.822 65.4981 128.822 65.5901C128.822 65.6395 128.789 65.6645 128.695 65.6645C128.457 65.6645 128.118 65.6316 127.831 65.6316C127.586 65.6316 127.271 65.6645 127.104 65.6645C127.01 65.6645 126.924 65.6584 126.924 65.5822C126.924 65.5304 126.967 65.4975 127.094 65.464C127.466 65.3793 127.516 65.3129 127.516 64.8999V60.6205C127.516 60.4176 127.416 60.3335 127.271 60.3018C127.137 60.2768 127.052 60.2653 127.052 60.183C127.052 60.0898 127.144 60.0898 127.23 60.0654C127.957 59.8565 128.094 59.6968 128.144 59.6889C128.196 59.6889 128.212 59.7133 128.212 59.8053V65.0339ZM131.49 64.7908C131.49 65.1277 131.642 65.2289 131.77 65.2289C131.947 65.2289 131.972 64.9614 132.108 64.9614C132.159 64.9614 132.184 64.9943 132.184 65.0607C132.184 65.3379 131.812 65.7333 131.447 65.7333C130.906 65.7333 130.847 65.1113 130.746 65.1113C130.641 65.1113 130.387 65.7668 129.728 65.7668C129.286 65.7668 129.017 65.5298 129.017 65.0333C129.017 64.1115 130.794 63.5248 130.794 62.9953V62.2728C130.794 62.0528 130.67 61.9017 130.439 61.9017C130.118 61.9017 129.839 62.1716 129.788 62.617C129.745 62.9856 129.576 63.2134 129.262 63.2134C129.059 63.2134 128.957 63.1044 128.957 62.9344C128.957 62.6103 129.636 61.7025 130.651 61.7025C131.312 61.7025 131.491 61.8182 131.491 62.274V64.7908H131.49ZM130.794 63.6326C130.794 63.5333 130.769 63.5162 130.711 63.5162C130.601 63.5162 129.822 64.1797 129.795 64.7683C129.795 65.0284 129.94 65.2295 130.177 65.2295C130.574 65.2295 130.794 64.9273 130.794 64.1724V63.6326ZM132.956 64.7762C133.252 64.7762 133.455 65.0089 133.455 65.6316C133.455 66.4291 132.768 67.0767 132.641 67.0767C132.574 67.0767 132.542 67.0176 132.542 66.9677C132.542 66.8336 133.115 66.4876 133.115 65.8917C133.115 65.6742 133.065 65.6827 132.913 65.6827C132.676 65.6827 132.542 65.4902 132.542 65.2282C132.542 64.9839 132.676 64.7762 132.956 64.7762ZM135.614 65.687L133.99 62.9198H137.243L135.614 65.687ZM138.849 64.9516C138.849 65.2611 139.018 65.439 139.316 65.4293C139.67 65.4214 139.968 65.2118 140.162 64.7829C140.391 64.2784 140.356 64.1712 140.467 64.1712C140.534 64.1712 140.552 64.1962 140.552 64.3887V65.4634C140.552 65.6139 140.519 65.6639 140.391 65.6639C140.137 65.6639 139.755 65.631 138.764 65.631C138.188 65.631 137.783 65.6639 137.597 65.6639C137.495 65.6639 137.459 65.6389 137.459 65.5475C137.459 65.4805 137.495 65.4482 137.597 65.4293C137.928 65.3714 138.021 65.3464 138.021 64.976V60.8629C138.021 60.6954 137.958 60.5839 137.791 60.5784C137.554 60.5681 137.476 60.551 137.476 60.4499C137.476 60.3676 137.536 60.3408 137.638 60.3408C137.799 60.3408 137.968 60.3731 138.477 60.3731C139.054 60.3731 139.249 60.3408 139.356 60.3408C139.476 60.3408 139.519 60.3676 139.519 60.4419C139.519 60.551 139.451 60.5583 139.222 60.5784C138.952 60.593 138.85 60.685 138.85 60.8971V64.9516H138.849ZM142.102 64.9516C142.102 65.2611 142.271 65.439 142.569 65.4293C142.923 65.4214 143.221 65.2118 143.415 64.7829C143.644 64.2784 143.609 64.1712 143.72 64.1712C143.787 64.1712 143.804 64.1962 143.804 64.3887V65.4634C143.804 65.6139 143.771 65.6639 143.644 65.6639C143.387 65.6639 143.009 65.631 142.017 65.631C141.44 65.631 141.034 65.6639 140.849 65.6639C140.747 65.6639 140.713 65.6389 140.713 65.5475C140.713 65.4805 140.747 65.4482 140.849 65.4293C141.178 65.3714 141.273 65.3464 141.273 64.976V60.8629C141.273 60.6954 141.211 60.5839 141.043 60.5784C140.806 60.5681 140.729 60.551 140.729 60.4499C140.729 60.3676 140.791 60.3408 140.891 60.3408C141.053 60.3408 141.221 60.3731 141.73 60.3731C142.306 60.3731 142.499 60.3408 142.611 60.3408C142.728 60.3408 142.771 60.3676 142.771 60.4419C142.771 60.551 142.704 60.5583 142.475 60.5784C142.205 60.593 142.103 60.685 142.103 60.8971V64.9516H142.102ZM146.21 65.5304C146.514 65.5304 146.827 65.3544 147.005 64.6586C147.2 63.9001 147.216 63.8842 147.3 63.8842C147.444 63.8842 147.463 63.8995 147.463 64.8243C147.463 65.2605 147.435 65.3787 147.335 65.4726C147.216 65.5816 146.751 65.7662 146.192 65.7662C144.855 65.7662 144.032 64.4624 144.032 62.9856C144.032 61.29 144.992 60.2409 146.182 60.2409C146.624 60.2409 146.988 60.325 147.243 60.4822C147.335 60.5437 147.345 60.5583 147.345 61.1475C147.345 61.7689 147.326 61.8006 147.183 61.8006C147.106 61.8006 147.047 61.7183 146.878 61.2486C146.632 60.5681 146.43 60.4767 146.143 60.4767C145.378 60.4767 144.947 61.2139 144.947 62.9533C144.947 64.7092 145.557 65.5304 146.21 65.5304ZM49.8362 13.7268H60.0556V19.3137H60.1767C61.7271 15.2615 65.319 13.1133 69.84 13.1133C70.6444 13.1133 71.5115 13.1766 72.3171 13.9272V23.4456C70.9541 22.5061 69.7165 22.2612 68.292 22.2612C63.0907 22.2612 60.3647 25.8241 60.3647 29.8129V56.5135H49.8362V13.7268ZM76.8922 15.688C76.7613 15.6551 76.7115 15.6551 76.7115 15.5826C76.7115 15.5326 76.7367 15.4912 76.819 15.4912C76.9346 15.4912 77.0507 15.5241 77.436 15.5241C77.8158 15.5241 77.9565 15.4912 78.0376 15.4912C78.1298 15.4912 78.155 15.5241 78.155 15.5734C78.155 15.6307 78.1378 15.6557 78.0143 15.688C77.75 15.7526 77.6425 15.8275 77.5939 16.0072C76.588 19.6615 76.4313 20.0539 76.4313 20.325C76.4313 20.3975 76.489 20.47 76.6205 20.4779C76.8424 20.4944 76.867 20.5194 76.867 20.5925C76.867 20.6424 76.8338 20.6747 76.7441 20.6747C76.6378 20.6747 76.5646 20.6424 76.1019 20.6424C75.5808 20.6424 75.5236 20.6747 75.4253 20.6747C75.3497 20.6747 75.3172 20.6424 75.3172 20.5925C75.3172 20.5291 75.3675 20.4871 75.4585 20.4779C75.7725 20.4542 75.8456 20.445 75.9194 20.1751C77.0255 16.1309 77.0913 16.0139 77.0913 15.8842C77.0913 15.7775 77.0581 15.73 76.8922 15.688ZM77.6363 20.6418L78.1298 19.2278C78.4672 18.256 78.6657 17.6181 78.6657 17.4286C78.6657 17.3238 78.6306 17.2562 78.5348 17.2562C78.4002 17.2562 78.2207 17.4286 77.9645 17.7881C77.6996 18.1567 77.7347 18.2048 77.6517 18.2048C77.6099 18.2048 77.5939 18.1896 77.5939 18.1475C77.5939 17.9946 78.3191 16.8157 78.8549 16.8157C79.094 16.8157 79.1941 16.9802 79.1941 17.2014C79.1941 17.6181 78.8881 18.3212 78.8144 18.6886L78.8303 18.705C79.1192 18.1317 80.0348 16.8151 80.8079 16.8151C81.0641 16.8151 81.238 16.9869 81.238 17.266C81.238 17.5925 81.1397 17.7625 80.669 18.9652C80.2972 19.9229 80.2818 20.0204 80.2818 20.1349C80.2818 20.2251 80.3242 20.2653 80.3802 20.2653C80.5037 20.2653 80.6518 20.1508 80.8761 19.8656C81.2306 19.4166 81.2128 19.268 81.2884 19.268C81.3302 19.268 81.3437 19.3003 81.3437 19.3423C81.3437 19.522 80.5866 20.707 80.0907 20.707C79.8363 20.707 79.754 20.5291 79.754 20.325C79.754 20.0685 79.8769 19.6286 80.0754 19.1382C80.5688 17.9105 80.7095 17.601 80.7095 17.3543C80.7095 17.2014 80.6364 17.127 80.5289 17.127C80.1583 17.127 79.4897 17.821 78.8555 18.9505C78.6239 19.3594 78.2521 20.2007 78.171 20.4609C78.1206 20.6175 78.1132 20.6424 78.0229 20.6424H77.6363V20.6418ZM82.1211 17.1423L82.1788 16.9473H82.7135L83.0754 15.8677C83.1258 15.7203 83.1172 15.713 83.4896 15.713C83.5953 15.713 83.6051 15.7203 83.6051 15.7526C83.6051 15.8525 83.5295 16.0298 83.2432 16.9473H83.8694L83.8098 17.1423H83.1676C82.491 19.2369 82.1942 19.8583 82.1942 20.0862C82.1942 20.1751 82.2526 20.2154 82.3005 20.2154C82.3927 20.2154 82.5009 20.0862 82.7381 19.7858C83.0097 19.4319 83.0275 19.268 83.1172 19.268C83.1522 19.268 83.1756 19.2929 83.1756 19.3344C83.1756 19.4897 82.4185 20.707 81.922 20.707C81.7425 20.707 81.6676 20.5846 81.6676 20.3896C81.6676 19.971 81.8636 19.4166 82.6391 17.1423H82.1211ZM84.1564 19.0407C84.1122 19.2117 84.0903 19.3876 84.0912 19.5641C84.0912 20.0862 84.2725 20.3482 84.5871 20.3482C84.9073 20.3482 85.2692 20.102 85.6337 19.6201C85.8229 19.3661 85.8131 19.285 85.8807 19.285C85.9133 19.285 85.9464 19.3088 85.9464 19.36C85.9464 19.4404 85.7148 19.8669 85.37 20.2257C85.1138 20.495 84.7186 20.7417 84.3634 20.7417C83.8528 20.7417 83.5621 20.3555 83.5621 19.5373C83.5621 18.0446 84.7432 16.8157 85.5999 16.8157C86.1111 16.8157 86.3016 17.1922 86.3016 17.5017C86.3004 18.3541 85.6816 18.8744 84.1564 19.0407ZM84.1895 18.8744C85.8223 18.624 85.8549 17.5608 85.8549 17.3068C85.8549 17.11 85.7541 16.9625 85.5581 16.9625C85.1279 16.9625 84.4458 17.6181 84.1895 18.8744ZM87.5135 15.5235C87.5135 15.4181 87.4809 15.3456 87.2898 15.3285C87.1337 15.3133 87.1005 15.2865 87.1005 15.2237C87.1085 15.1665 87.2062 15.1336 87.3469 15.1336C87.908 15.1336 88.1464 14.8545 88.2122 14.8545C88.2546 14.8545 88.2699 14.8716 88.2699 14.9191C88.2699 14.9593 88.1876 15.133 88.112 15.3949C86.8916 19.6847 86.8184 19.8084 86.8184 20.0283C86.8184 20.1502 86.8529 20.2154 86.926 20.2154C87.0415 20.2154 87.1404 20.1276 87.4041 19.7091C87.6339 19.3417 87.6689 19.1376 87.7433 19.1376C87.7838 19.1376 87.8011 19.1699 87.8011 19.2119C87.8011 19.3417 87.165 20.707 86.5788 20.707C86.3496 20.707 86.2893 20.5291 86.2893 20.2903C86.2906 19.6134 87.5135 15.9091 87.5135 15.5235ZM89.3429 15.5235C89.3429 15.4181 89.3097 15.3456 89.1186 15.3285C88.9643 15.3133 88.9299 15.2865 88.9299 15.2237C88.9391 15.1665 89.0375 15.1336 89.1763 15.1336C89.7374 15.1336 89.9764 14.8545 90.044 14.8545C90.0846 14.8545 90.1018 14.8716 90.1018 14.9191C90.1018 14.9593 90.0188 15.133 89.9433 15.3949C88.7228 19.6847 88.6479 19.8084 88.6479 20.0283C88.6479 20.1502 88.6823 20.2154 88.7579 20.2154C88.8715 20.2154 88.9717 20.1276 89.2335 19.7091C89.4645 19.3417 89.4977 19.1376 89.5727 19.1376C89.6133 19.1376 89.6286 19.1699 89.6286 19.2119C89.6286 19.3417 88.9963 20.707 88.4107 20.707C88.179 20.707 88.1218 20.5291 88.1218 20.2903C88.1224 19.6134 89.3429 15.9091 89.3429 15.5235ZM90.5627 19.0407C90.5195 19.2119 90.4976 19.3876 90.4976 19.5641C90.4976 20.0862 90.677 20.3482 90.991 20.3482C91.3124 20.3482 91.6774 20.102 92.0381 19.6201C92.2286 19.3661 92.2188 19.285 92.287 19.285C92.3196 19.285 92.3522 19.3088 92.3522 19.36C92.3522 19.4404 92.1205 19.8669 91.7739 20.2257C91.5195 20.495 91.1225 20.7417 90.7692 20.7417C90.2567 20.7417 89.9715 20.3555 89.9715 19.5373C89.9715 18.0446 91.1477 16.8157 92.0056 16.8157C92.5181 16.8157 92.7074 17.1922 92.7074 17.5017C92.7067 18.3541 92.0879 18.8744 90.5627 19.0407ZM90.5959 18.8744C92.2286 18.624 92.2618 17.5608 92.2618 17.3068C92.2618 17.11 92.161 16.9625 91.9644 16.9625C91.5349 16.9625 90.8521 17.6181 90.5959 18.8744ZM94.7678 16.8157C95.2133 16.8157 95.4598 17.0277 95.4598 17.3543C95.4598 17.5456 95.3117 17.7004 95.0898 17.7004C94.9411 17.7004 94.8158 17.6004 94.7832 17.2739C94.7678 17.127 94.75 17.0119 94.5786 17.0119C94.0986 17.0119 93.2426 18.0269 93.2426 19.4568C93.2426 20.0033 93.4995 20.3476 93.9026 20.3476C94.2166 20.3476 94.5613 20.0131 94.793 19.6518C95.0573 19.2442 95.0241 19.1699 95.0978 19.1626C95.1402 19.1626 95.1734 19.1772 95.1734 19.2442C95.1734 19.3417 95.0474 19.7011 94.7432 20.0935C94.4716 20.445 94.0919 20.7411 93.6463 20.7411C93.0871 20.7411 92.7153 20.3074 92.7153 19.4471C92.7147 17.9946 93.7938 16.8157 94.7678 16.8157ZM95.8469 17.1423L95.9047 16.9473H96.4411L96.8031 15.8677C96.8553 15.7203 96.8461 15.713 97.2161 15.713C97.3242 15.713 97.3316 15.7203 97.3316 15.7526C97.3316 15.8525 97.2585 16.0298 96.969 16.9473H97.5952L97.5374 17.1423H96.8941C96.2193 19.2369 95.9207 19.8583 95.9207 20.0862C95.9207 20.1751 95.9784 20.2154 96.0307 20.2154C96.1191 20.2154 96.2273 20.0862 96.4663 19.7858C96.738 19.4319 96.7552 19.268 96.8461 19.268C96.8787 19.268 96.9039 19.2929 96.9039 19.3344C96.9039 19.4897 96.1462 20.707 95.6509 20.707C95.4696 20.707 95.394 20.5846 95.394 20.3896C95.394 19.971 95.5931 19.4166 96.368 17.1423H95.8469ZM99.8554 18.8744C99.3755 19.5799 98.4605 20.707 97.8269 20.707C97.6032 20.707 97.4723 20.5693 97.4723 20.325C97.4723 19.6774 98.4949 17.7004 98.4949 17.3963C98.4949 17.3391 98.4795 17.2909 98.4107 17.2909C98.2724 17.2909 98.0659 17.5188 97.8834 17.7631C97.6038 18.1469 97.5461 18.2968 97.4901 18.2968C97.4397 18.2968 97.4145 18.2718 97.4145 18.2298C97.4145 18.1323 98.1993 16.8498 98.7167 16.8498C98.922 16.8498 99.0227 16.9473 99.0227 17.2093C99.0227 17.651 97.9983 19.7267 97.9983 20.1014C97.9983 20.2257 98.0739 20.2659 98.1649 20.2659C98.5594 20.2659 99.8806 19.0882 100.53 17.0795C100.563 16.9632 100.588 16.9479 100.801 16.9479C101 16.9479 101.033 16.9729 101.033 17.0283C101.033 17.1277 99.9697 19.7919 99.9697 20.1435C99.9697 20.216 100.011 20.2659 100.062 20.2659C100.142 20.2659 100.308 20.1514 100.606 19.7669C100.877 19.4172 100.884 19.285 100.96 19.285C101 19.285 101.033 19.3009 101.033 19.36C101.033 19.4903 100.266 20.7076 99.6993 20.7076C99.5254 20.7076 99.4424 20.5699 99.4424 20.4225C99.4424 20.0868 99.6311 19.572 99.872 18.8921L99.8554 18.8744ZM103.978 19.3843C103.821 19.8583 103.805 19.9808 103.805 20.0685C103.805 20.1587 103.844 20.1849 103.895 20.1849C103.97 20.1849 104.126 20.0283 104.407 19.6043C104.612 19.2923 104.581 19.2028 104.662 19.2028C104.702 19.2028 104.719 19.2278 104.719 19.268C104.719 19.4989 103.97 20.7411 103.433 20.7411C103.244 20.7411 103.213 20.6071 103.213 20.445C103.213 20.1508 103.368 19.759 103.698 18.7879L103.681 18.7708C103.384 19.218 102.395 20.7417 101.746 20.7417C101.366 20.7417 101.232 20.4456 101.232 20.0131C101.232 18.5813 102.732 16.8974 103.721 16.8974C103.928 16.8974 104.093 16.9723 104.265 17.0948L104.348 16.8974C104.376 16.8328 104.391 16.8157 104.489 16.8157H104.729C104.779 16.8157 104.811 16.8236 104.811 16.8748C104.806 16.9169 104.795 16.9582 104.779 16.9973L103.978 19.3843ZM102.015 20.2982C102.626 20.2982 104.118 17.9861 104.118 17.4292C104.118 17.1764 103.97 17.0454 103.739 17.0454C102.906 17.0454 101.76 19.0736 101.76 19.9394C101.76 20.1508 101.834 20.2982 102.015 20.2982ZM106.277 15.5235C106.277 15.4181 106.245 15.3456 106.056 15.3285C105.898 15.3133 105.867 15.2865 105.867 15.2237C105.874 15.1665 105.972 15.1336 106.114 15.1336C106.674 15.1336 106.913 14.8545 106.979 14.8545C107.019 14.8545 107.037 14.8716 107.037 14.9191C107.037 14.9593 106.954 15.133 106.881 15.3949C105.66 19.6847 105.587 19.8084 105.587 20.0283C105.587 20.1502 105.618 20.2154 105.694 20.2154C105.807 20.2154 105.908 20.1276 106.169 19.7091C106.401 19.3417 106.433 19.1376 106.509 19.1376C106.549 19.1376 106.564 19.1699 106.564 19.2119C106.564 19.3417 105.931 20.707 105.347 20.707C105.114 20.707 105.058 20.5291 105.058 20.2903C105.057 19.6134 106.277 15.9091 106.277 15.5235ZM109.807 15.688C109.724 15.6801 109.682 15.6551 109.682 15.5826C109.682 15.5235 109.731 15.4912 109.823 15.4912C109.979 15.4912 110.261 15.5241 110.541 15.5241C110.903 15.5241 111.151 15.4912 111.464 15.4912C112.239 15.4912 112.596 15.7379 112.596 16.5135C112.596 16.8578 112.462 17.5194 111.851 17.9776C111.398 18.3218 110.757 18.3852 110.188 18.3852H109.946C109.478 20.0039 109.46 20.1593 109.46 20.2489C109.46 20.4225 109.551 20.4615 109.75 20.4785C109.954 20.495 110.029 20.5035 110.029 20.5852C110.029 20.6601 109.973 20.6753 109.898 20.6753C109.815 20.6753 109.692 20.6431 109.114 20.6431C108.563 20.6431 108.446 20.6753 108.373 20.6753C108.299 20.6753 108.274 20.6351 108.274 20.5931C108.274 20.5206 108.348 20.5035 108.563 20.4785C108.802 20.4548 108.867 20.3902 108.948 20.0789C109.732 17.1277 110.104 16.0152 110.104 15.8848C110.103 15.73 110.037 15.713 109.807 15.688ZM110.013 18.1896H110.283C110.735 18.1896 111.126 18.1146 111.48 17.7582C111.835 17.3969 112.001 16.7834 112.001 16.3661C112.001 15.8945 111.762 15.688 111.199 15.688H110.687L110.013 18.1896ZM112.452 20.6418C112.651 19.8888 113.27 17.6827 113.27 17.4627C113.27 17.3866 113.262 17.3385 113.194 17.3385C113.087 17.3385 112.932 17.5011 112.757 17.7802C112.528 18.1567 112.602 18.2469 112.47 18.2469C112.43 18.2469 112.397 18.2219 112.397 18.1744C112.397 18.0592 112.966 16.8967 113.466 16.8967C113.683 16.8967 113.796 17.0192 113.796 17.2483C113.796 17.4207 113.698 17.7722 113.459 18.705L113.473 18.7209C114.1 17.3238 114.545 16.8492 114.885 16.8492C115.084 16.8492 115.164 17.0119 115.164 17.266C115.164 17.74 114.894 18.044 114.696 18.044C114.58 18.044 114.506 17.994 114.506 17.8472C114.506 17.6577 114.638 17.5925 114.638 17.4207C114.638 17.3476 114.613 17.2903 114.537 17.2903C114.373 17.2903 113.656 18.4333 113.021 20.3792C112.947 20.6065 112.922 20.6412 112.855 20.6412L112.452 20.6418ZM116.981 16.8157C117.623 16.8157 118.003 17.372 118.003 18.2566C118.003 19.4172 117.161 20.7746 116.163 20.7746C115.521 20.7746 115.142 20.2257 115.142 19.3423C115.141 18.175 115.981 16.8157 116.981 16.8157ZM116.163 20.5773C116.831 20.5773 117.556 18.9737 117.556 17.9611C117.556 17.3074 117.343 17.0125 116.981 17.0125C116.312 17.0125 115.585 18.624 115.585 19.6353C115.585 20.2903 115.801 20.5773 116.163 20.5773Z" fill="white"/>
<path fill-rule="evenodd" clip-rule="evenodd" d="M119.082 17.1764C118.669 17.3336 118.545 17.4365 118.449 17.4365C118.414 17.4365 118.398 17.4134 118.398 17.3866C118.398 17.3007 118.811 17.1094 119.124 16.9973L119.403 16.1065C119.42 16.0468 119.445 16.0395 119.667 16.0395C119.859 16.0395 119.875 16.0395 119.875 16.0791C119.875 16.1218 119.734 16.5933 119.667 16.8651C119.766 16.8425 119.833 16.8328 119.916 16.8236C119.991 16.8157 120.082 16.8157 120.205 16.8157C120.847 16.8157 121.293 17.1599 121.293 17.8959C121.293 19.2034 120.238 20.69 119.175 20.69C118.985 20.69 118.762 20.6266 118.588 20.4456C118.391 21.1244 118.202 21.8347 118.202 21.9426C118.202 22.09 118.276 22.1375 118.399 22.1625C118.58 22.204 118.776 22.1954 118.776 22.2941C118.776 22.3362 118.768 22.3587 118.67 22.3587C118.456 22.3587 118.135 22.3264 117.871 22.3264C117.319 22.3264 117.251 22.3587 117.077 22.3587C117.015 22.3587 116.997 22.3435 116.997 22.3014C116.997 22.2289 117.029 22.1948 117.384 22.1619C117.556 22.1467 117.616 22.009 117.747 21.5728L119.082 17.1764ZM120.071 17.0119C119.848 17.0119 119.683 17.0448 119.594 17.0698C118.843 19.5866 118.736 19.8656 118.736 20.1429C118.736 20.4128 118.935 20.5443 119.165 20.5443C119.973 20.5443 120.763 19.023 120.763 17.7308C120.762 17.1764 120.501 17.0119 120.071 17.0119ZM122.15 19.0407C122.107 19.2118 122.085 19.3876 122.084 19.5641C122.084 20.0862 122.266 20.3482 122.578 20.3482C122.899 20.3482 123.262 20.102 123.626 19.6201C123.817 19.3661 123.806 19.285 123.874 19.285C123.906 19.285 123.938 19.3088 123.938 19.36C123.938 19.4404 123.709 19.8669 123.36 20.2257C123.107 20.495 122.71 20.7417 122.354 20.7417C121.845 20.7417 121.553 20.3555 121.553 19.5373C121.553 18.0446 122.733 16.8157 123.591 16.8157C124.102 16.8157 124.293 17.1922 124.293 17.5017C124.293 18.3541 123.674 18.8744 122.15 19.0407ZM122.183 18.8744C123.816 18.624 123.846 17.5608 123.846 17.3068C123.846 17.11 123.75 16.9625 123.551 16.9625C123.123 16.9625 122.437 17.6181 122.183 18.8744ZM124.359 20.6418C124.555 19.8888 125.176 17.6827 125.176 17.4627C125.176 17.3866 125.169 17.3385 125.099 17.3385C124.993 17.3385 124.837 17.5011 124.663 17.7802C124.433 18.1567 124.507 18.2469 124.374 18.2469C124.335 18.2469 124.301 18.2219 124.301 18.1744C124.301 18.0592 124.87 16.8967 125.373 16.8967C125.589 16.8967 125.703 17.0192 125.703 17.2483C125.703 17.4207 125.604 17.7722 125.365 18.705L125.382 18.7209C126.009 17.3238 126.452 16.8492 126.792 16.8492C126.99 16.8492 127.07 17.0119 127.07 17.266C127.07 17.74 126.799 18.044 126.601 18.044C126.485 18.044 126.411 17.994 126.411 17.8472C126.411 17.6577 126.542 17.5925 126.542 17.4207C126.542 17.3476 126.518 17.2903 126.444 17.2903C126.28 17.2903 125.564 18.4333 124.926 20.3792C124.852 20.6065 124.828 20.6412 124.761 20.6412L124.359 20.6418ZM127.954 17.1423C127.179 19.4166 126.981 19.971 126.981 20.3896C126.981 20.5846 127.056 20.707 127.235 20.707C127.731 20.707 128.488 19.4897 128.488 19.3344C128.488 19.2929 128.463 19.268 128.432 19.268C128.342 19.268 128.323 19.4319 128.052 19.7858C127.813 20.0862 127.706 20.2154 127.617 20.2154C127.566 20.2154 127.509 20.1751 127.509 20.0862C127.509 19.8583 127.805 19.2369 128.48 17.1423H129.124L129.182 16.9473H128.555C128.845 16.0298 128.918 15.8525 128.918 15.7526C128.918 15.7203 128.91 15.713 128.802 15.713C128.431 15.713 128.44 15.7203 128.389 15.8677L128.027 16.9473H127.49L127.434 17.1423H127.954ZM130.337 20.308C130.584 19.9485 131.59 18.6563 131.59 17.8801C131.59 17.6912 131.424 17.4219 131.424 17.2093C131.424 16.9973 131.531 16.8498 131.688 16.8498C131.903 16.8498 131.97 17.0448 131.97 17.3543C131.97 18.0598 131.508 19.023 129.964 21.0415C129.75 21.3285 129.569 21.5673 129.414 21.7452C128.977 22.2515 128.704 22.3928 128.4 22.3928C128.094 22.3928 127.962 22.154 127.962 21.867C127.962 21.7141 128.068 21.5399 128.234 21.5399C128.382 21.5399 128.44 21.6319 128.488 21.9261C128.506 22.0388 128.598 22.0809 128.679 22.0809C128.909 22.0809 129.141 21.8189 129.274 21.6812C129.538 21.4022 129.786 20.8788 129.852 20.4121C129.891 20.1008 129.907 19.6932 129.907 19.0797C129.907 17.4134 129.824 17.2391 129.643 17.2391C129.512 17.2391 129.414 17.386 129.255 17.6723C129.084 17.9763 129.075 18.1792 128.968 18.1792C128.918 18.1792 128.893 18.1561 128.893 18.0817C128.893 17.9849 129.371 16.8492 129.833 16.8492C130.196 16.8492 130.353 17.2239 130.353 18.256C130.357 18.9343 130.343 19.6127 130.311 20.2903L130.337 20.308ZM135.07 20.445C135.843 20.445 136.175 20.3305 136.487 19.7011C136.736 19.2028 136.709 19.1869 136.792 19.1869C136.849 19.1869 136.874 19.2028 136.874 19.2442C136.874 19.3417 136.842 19.4471 136.603 20.2422C136.48 20.6418 136.487 20.6741 136.439 20.6741C136.256 20.6741 135.951 20.6418 134.386 20.6418C133.873 20.6418 133.611 20.6741 133.51 20.6741C133.445 20.6741 133.42 20.6589 133.42 20.584C133.42 20.5285 133.453 20.4944 133.691 20.4773C133.898 20.4603 133.996 20.3549 134.072 20.11C135.226 16.293 135.325 16.0292 135.325 15.9085C135.325 15.7617 135.242 15.7197 135.103 15.6874C134.905 15.6472 134.813 15.6795 134.813 15.582C134.813 15.532 134.839 15.4906 134.887 15.4906C135.052 15.4906 135.29 15.5235 135.719 15.5235C136.034 15.5235 136.28 15.4906 136.47 15.4906C136.552 15.4906 136.578 15.5003 136.578 15.5576C136.578 15.6551 136.495 15.6551 136.28 15.6874C135.951 15.7373 135.904 15.7946 135.819 16.0639L134.525 20.4444L135.07 20.445ZM139.685 19.3843C139.529 19.8583 139.514 19.9808 139.514 20.0685C139.514 20.1587 139.554 20.1849 139.605 20.1849C139.678 20.1849 139.834 20.0283 140.115 19.6043C140.32 19.2923 140.289 19.2028 140.372 19.2028C140.412 19.2028 140.428 19.2278 140.428 19.268C140.428 19.4989 139.678 20.7411 139.141 20.7411C138.953 20.7411 138.92 20.6071 138.92 20.445C138.92 20.1508 139.077 19.759 139.403 18.7879L139.389 18.7708C139.092 19.218 138.102 20.7417 137.452 20.7417C137.074 20.7417 136.941 20.4456 136.941 20.0131C136.941 18.5813 138.441 16.8974 139.431 16.8974C139.638 16.8974 139.801 16.9723 139.975 17.0948L140.058 16.8974C140.083 16.8328 140.099 16.8157 140.198 16.8157H140.438C140.487 16.8157 140.52 16.8236 140.52 16.8748C140.515 16.9169 140.504 16.9582 140.487 16.9973L139.685 19.3843ZM137.725 20.2982C138.333 20.2982 139.825 17.9861 139.825 17.4292C139.825 17.1764 139.678 17.0454 139.449 17.0454C138.616 17.0454 137.468 19.0736 137.468 19.9394C137.469 20.1508 137.542 20.2982 137.725 20.2982ZM143.125 17.9605C143.478 16.9625 143.463 16.9473 143.621 16.9473H143.826C143.916 16.9473 143.933 16.9802 143.933 17.0521C143.933 17.1916 143.027 19.3996 143.027 20.1587C143.027 20.2903 143.091 20.428 143.241 20.428C143.998 20.428 144.907 18.4187 144.907 18.0275C144.907 17.6735 144.706 17.609 144.706 17.2495C144.706 16.9979 144.799 16.8504 144.955 16.8504C145.145 16.8504 145.219 17.0454 145.219 17.4219C145.219 18.2402 144.165 20.7076 142.986 20.7076C142.745 20.7076 142.58 20.5529 142.58 20.2659C142.58 20.0691 142.655 19.6615 142.768 19.2284L142.754 19.2125C142.49 19.6847 141.969 20.7076 141.27 20.7076C140.957 20.7076 140.776 20.545 140.776 20.1361C140.776 19.5476 141.723 17.7509 141.723 17.3555C141.723 17.2922 141.699 17.241 141.641 17.241C141.549 17.241 141.427 17.3403 141.171 17.6839C140.825 18.1482 140.841 18.2304 140.758 18.2304C140.727 18.2304 140.702 18.2152 140.702 18.1756C140.702 18.0665 141.427 16.8504 141.945 16.8504C142.185 16.8504 142.251 17.0283 142.251 17.202C142.251 17.7162 141.301 19.5799 141.301 20.1282C141.301 20.308 141.376 20.3981 141.5 20.3981C141.987 20.3975 142.694 19.1778 143.125 17.9605Z" fill="white"/>
</svg>
