<svg width="20" height="20" viewBox="0 0 20 20" fill="none" xmlns="http://www.w3.org/2000/svg">
<path d="M11.9828 6.68438V4.01771C11.9828 3.8409 12.053 3.67133 12.1781 3.54631C12.3031 3.42128 12.4727 3.35105 12.6495 3.35105C12.8263 3.35105 12.9958 3.42128 13.1209 3.54631C13.2459 3.67133 13.3161 3.8409 13.3161 4.01771V5.75838C13.7361 5.33571 16.4501 2.60771 16.8448 2.21305C16.9063 2.14937 16.9799 2.09859 17.0612 2.06365C17.1425 2.02871 17.23 2.01032 17.3185 2.00955C17.4071 2.00878 17.4948 2.02565 17.5768 2.05917C17.6587 2.09269 17.7331 2.14219 17.7957 2.20478C17.8583 2.26738 17.9078 2.34181 17.9413 2.42374C17.9749 2.50568 17.9917 2.59346 17.991 2.68198C17.9902 2.7705 17.9718 2.85798 17.9369 2.93932C17.9019 3.02065 17.8511 3.09422 17.7875 3.15571C17.3928 3.55038 14.6928 6.26571 14.2755 6.68438H15.9828C16.1596 6.68438 16.3292 6.75462 16.4542 6.87964C16.5792 7.00467 16.6495 7.17424 16.6495 7.35105C16.6495 7.52786 16.5792 7.69743 16.4542 7.82245C16.3292 7.94748 16.1596 8.01771 15.9828 8.01771H13.3161C12.9625 8.01771 12.6234 7.87724 12.3733 7.62719C12.1233 7.37714 11.9828 7.038 11.9828 6.68438ZM17.3795 13.177C17.7658 13.5645 17.9828 14.0893 17.9828 14.6364C17.9828 15.1835 17.7658 15.7083 17.3795 16.0957L16.7715 16.7957C11.3108 22.021 -1.97453 8.73971 3.17147 3.26238L3.93813 2.59571C4.32589 2.22008 4.84595 2.01221 5.3858 2.01707C5.92565 2.02194 6.44188 2.23915 6.8228 2.62171C6.84347 2.64171 8.07813 4.24705 8.07813 4.24705C8.44341 4.63274 8.64666 5.14396 8.64592 5.67518C8.64517 6.20639 8.44049 6.71704 8.07413 7.10171L7.30213 8.07238C7.72946 9.1104 8.35764 10.0538 9.15059 10.8483C9.94354 11.6429 10.8856 12.273 11.9228 12.7024L12.8995 11.9257C13.2834 11.5584 13.794 11.353 14.3253 11.3523C14.8567 11.3515 15.3679 11.5555 15.7528 11.9217C15.7528 11.9217 17.3588 13.157 17.3795 13.177ZM16.4628 14.1464C16.4628 14.1464 14.8675 12.9184 14.8468 12.8984C14.7095 12.7622 14.5239 12.6858 14.3305 12.6858C14.1371 12.6858 13.9515 12.7622 13.8141 12.8984C13.7961 12.9157 12.4515 13.9877 12.4515 13.9877C12.3609 14.0598 12.253 14.1071 12.1386 14.1249C12.0241 14.1427 11.907 14.1303 11.7988 14.089C10.4544 13.5889 9.23329 12.8055 8.21819 11.792C7.2031 10.7785 6.41778 9.55864 5.91547 8.21505C5.87093 8.10535 5.85641 7.98577 5.8734 7.86861C5.89039 7.75144 5.93828 7.64091 6.01213 7.54838C6.01213 7.54838 7.08413 6.20571 7.10213 6.18838C7.23831 6.05104 7.31472 5.86546 7.31472 5.67205C7.31472 5.47864 7.23831 5.29306 7.10213 5.15571C7.08213 5.13571 5.85413 3.53905 5.85413 3.53905C5.71473 3.41405 5.5328 3.34711 5.34563 3.35194C5.15846 3.35678 4.98023 3.43302 4.84747 3.56505L4.0808 4.23171C0.319467 8.75371 11.8341 19.6297 15.7961 15.887L16.4041 15.1864C16.5475 15.0548 16.6338 14.8725 16.6448 14.6783C16.6557 14.4841 16.5904 14.2932 16.4628 14.1464Z" fill="#44B64B"/>
</svg>
