<svg width="20" height="20" viewBox="0 0 20 20" fill="none" xmlns="http://www.w3.org/2000/svg">
<path d="M15.475 5.575C15.7649 5.28505 15.7649 4.81495 15.475 4.525C15.1851 4.23505 14.715 4.23505 14.425 4.525L10 8.95L5.575 4.525C5.28505 4.23505 4.81495 4.23505 4.525 4.525C4.23505 4.81495 4.23505 5.28505 4.525 5.575L8.95 10L4.525 14.425C4.23505 14.7149 4.23505 15.1851 4.525 15.475C4.81495 15.7649 5.28505 15.7649 5.575 15.475L10 11.05L14.425 15.475C14.7149 15.7649 15.1851 15.7649 15.475 15.475C15.7649 15.1851 15.7649 14.715 15.475 14.425L11.05 10L15.475 5.575Z" fill="#44B64B"/>
</svg>
