<svg width="60" height="60" viewBox="0 0 60 60" fill="none" xmlns="http://www.w3.org/2000/svg">
<path d="M21.8144 3.12331C11.9942 4.62194 4.54725 12.1045 3.15491 21.8772C2.9756 23.1542 2.94395 26.2676 3.10217 27.5551C3.56629 31.2912 5.07466 35.0377 7.32139 38.0244L8.0492 38.9848L7.57454 39.5125C6.77289 40.399 6.79399 40.2196 6.79399 47.7655C6.79399 53.3695 6.81508 54.5093 6.95221 54.9631C7.15262 55.6491 7.84879 56.4301 8.53441 56.7467L9.06181 57H16.0341C23.6814 57 23.481 57.0105 24.3037 56.3668C24.5463 56.1768 24.8522 55.7758 25.0315 55.3958L25.3585 54.752V46.7629H26.0758C27.0673 46.7629 28.9343 46.4779 29.2297 46.288C29.7149 45.9608 29.6621 45.1376 29.1242 44.8843C28.8921 44.7682 28.6601 44.7788 27.7424 44.916C27.1411 45.0004 26.3606 45.0743 26.002 45.0743H25.3585V43.5968H25.9492C26.8985 43.5968 28.8077 43.2802 30.1157 42.9108C33.1852 42.0243 35.7694 40.4834 38.1322 38.1194C40.0625 36.1881 41.3388 34.2779 42.2987 31.8927C42.9948 30.1514 43.6066 27.4707 43.6066 26.1409V25.761H45.0834V26.1515C45.0728 26.8797 44.7669 28.7372 44.461 29.9192C43.5012 33.5919 41.6447 36.7263 38.7862 39.4808C36.9403 41.2644 35.1471 42.4781 32.9109 43.449C31.5924 44.0084 31.4764 44.1139 31.4764 44.6416C31.4764 45.1798 31.8772 45.5387 32.3835 45.4648C33.3117 45.317 36.2336 43.7762 37.8052 42.6153L38.5963 42.0243L39.5245 42.953L40.4633 43.8817L40.2207 44.3461C40.0414 44.6944 39.9781 44.9899 39.9781 45.4964C39.9781 46.3619 40.1574 46.7101 41.0224 47.6072C41.6131 48.2193 41.6869 48.3459 41.7396 48.8103L41.7924 49.3274L44.7353 52.2719L47.6782 55.2059H48.1528C48.5959 55.2059 48.6697 55.2481 49.3026 55.9024C49.6823 56.2823 50.1781 56.6939 50.4101 56.7995C50.9375 57.0422 52.0029 57.0633 52.5514 56.8417C53.0788 56.6201 56.5385 53.1901 56.8022 52.6202C57.0659 52.0503 57.0659 50.9738 56.8022 50.4039C56.6967 50.1717 56.2854 49.6757 55.9056 49.2958C55.2517 48.6626 55.2095 48.5887 55.2095 48.1454V47.6705L52.2771 44.726L49.3342 41.7815L48.8174 41.7288C48.3532 41.676 48.2267 41.6021 47.6149 41.0111C46.7183 40.1457 46.3702 39.9663 45.5053 39.9663C44.999 39.9663 44.7036 40.0296 44.3555 40.209L43.8914 40.4518L42.035 38.5943L42.3198 38.2249C43.8176 36.2831 45.2205 33.5285 45.9061 31.1962C46.2647 30.0142 46.655 27.9034 46.7288 26.7847L46.8027 25.761H48.8701C50.8215 25.761 50.9692 25.7399 51.4649 25.5077C51.7708 25.3705 52.1927 25.0434 52.4459 24.7584C53.2264 23.8613 53.2159 24.0408 53.1842 16.3049C53.1526 9.58218 53.1526 9.44498 52.9311 8.97006C52.6568 8.37906 52.0767 7.80916 51.4333 7.49255C50.9692 7.27092 50.8004 7.24981 49.0178 7.23926C47.1613 7.23926 47.0875 7.24981 46.8554 7.47144C46.5601 7.76694 46.5495 8.35795 46.8238 8.66401C47.0031 8.85397 47.1402 8.87508 48.5537 8.87508C50.3257 8.87508 50.7266 8.95951 51.159 9.41332L51.4649 9.72993L51.4966 16.3471C51.5177 21.1596 51.486 23.0382 51.4016 23.2598C51.3383 23.4181 51.1379 23.6714 50.9692 23.8086L50.6527 24.0724H37.1723L36.7715 23.7136L36.3812 23.3548L36.3496 16.6848C36.3285 10.6692 36.339 9.99377 36.4973 9.65606C36.8348 8.94896 36.9403 8.92785 40.6743 8.89619L44.018 8.86453L44.2395 8.59013C44.6192 8.10466 44.461 7.51365 43.8809 7.29202C43.7121 7.2287 42.4674 7.18649 40.7692 7.18649H37.9529L36.8981 6.48994C34.4931 4.89633 31.7506 3.8093 28.6284 3.21829C27.3838 2.97556 23.1329 2.92279 21.8144 3.12331ZM27.7213 4.82246C30.1157 5.16018 32.6472 6.00447 34.6619 7.14427C35.7589 7.76694 35.8855 7.87248 35.6429 7.96746C35.5585 7.99912 35.3475 8.2313 35.1893 8.48459L34.894 8.94896L34.1134 8.49515C32.3624 7.47144 30.2212 6.73268 27.9112 6.33164C26.7403 6.14167 26.2973 6.12056 24.4092 6.16278C22.616 6.20499 22.0359 6.25776 21.0233 6.47939C17.2787 7.30258 14.3464 8.90674 11.6355 11.6085C8.72428 14.5319 7.05769 17.7613 6.36152 21.835C6.1611 23.017 6.14001 23.4392 6.19275 25.3916C6.23494 27.1013 6.29823 27.8401 6.47755 28.6527C7.237 32.1566 8.91414 35.3332 11.3191 37.8133L12.0047 38.531H10.0006L9.63141 38.13C7.58509 35.977 5.77083 32.3043 5.02192 28.8216C4.76876 27.5974 4.74767 27.3124 4.73712 24.9167C4.73712 22.6266 4.76876 22.1939 4.97972 21.1174C6.23494 14.9012 10.1166 9.72993 15.6543 6.88043C19.42 4.9491 23.5443 4.242 27.7213 4.82246ZM26.3817 7.86193C28.755 7.99912 31.4447 8.89619 33.8181 10.3209L34.6303 10.817L34.6619 17.2547C34.6935 23.6819 34.6935 23.703 34.9256 24.1357C35.2526 24.7479 35.7589 25.2228 36.3812 25.5077C36.8875 25.7505 37.0141 25.761 39.4191 25.761H41.9189V26.1198C41.9189 26.7742 41.5076 28.8849 41.1806 29.9403C40.7376 31.3439 39.6511 33.5074 38.7862 34.7317C37.858 36.0192 36.012 37.8661 34.7463 38.7632C33.5016 39.6497 31.3393 40.7262 29.9575 41.1694C28.7655 41.5388 26.772 41.9082 25.9281 41.9082H25.3585V41.3488C25.3585 40.6101 24.8733 39.618 24.3037 39.1642C23.5232 38.5416 23.4177 38.531 18.8398 38.531H14.6734L14.1249 38.1089C13.3971 37.5495 11.8359 35.9137 11.182 35.0483C9.49428 32.7898 8.334 29.9192 7.95427 27.0591C7.74331 25.5394 7.86989 22.616 8.19688 21.2229C9.18839 17.0753 11.4457 13.6137 14.7999 11.1019C16.6142 9.75104 19.1141 8.63235 21.4452 8.13632C22.4473 7.91469 24.5569 7.71417 25.1476 7.7775C25.2952 7.7986 25.8437 7.83026 26.3817 7.86193ZM41.6658 42.6469L39.9148 40.9161L40.9063 39.903L42.6573 41.6338L41.6658 42.6469ZM22.9641 40.3146C23.1223 40.399 23.3439 40.6206 23.4599 40.8C23.6603 41.1272 23.6708 41.3488 23.6708 47.7655C23.6708 54.2138 23.6603 54.3932 23.4599 54.7309C23.0591 55.3747 23.1962 55.3642 16.0235 55.3642C8.73482 55.3642 9.1462 55.4064 8.69263 54.6465C8.49222 54.3193 8.48167 54.0661 8.48167 47.7866C8.48167 40.8317 8.47112 40.9689 8.99853 40.494C9.11455 40.3885 9.36771 40.2618 9.55757 40.2196C9.74744 40.1668 12.7747 40.1352 16.2872 40.1457C21.5718 40.1668 22.7215 40.1879 22.9641 40.3146ZM46.4019 42.2354L46.9293 42.7525L42.7628 46.9212L42.2459 46.4041C41.6763 45.8342 41.5287 45.507 41.7185 45.1482C41.8873 44.8316 44.3977 42.2776 44.9251 41.8871C45.4631 41.4966 45.7162 41.5494 46.4019 42.2354ZM48.3005 53.4117L43.5012 48.6098L48.6169 43.4912L53.4163 48.2932L48.3005 53.4117ZM54.7559 50.5833C55.22 51.0371 55.3149 51.1954 55.3149 51.5015C55.3149 51.8392 55.1673 52.0292 53.5956 53.5911C52.0345 55.1636 51.8446 55.3114 51.5071 55.3114C51.2012 55.3114 51.043 55.2164 50.5683 54.7309L49.9882 54.1505L52.0451 52.0925C53.1737 50.9633 54.123 50.0345 54.1547 50.0345C54.1758 50.0345 54.45 50.2773 54.7559 50.5833Z" fill="#44B64B"/>
<path d="M23.5654 13.9831C23.365 14.0569 23.0802 14.173 22.9325 14.2258C22.4578 14.4263 21.6034 15.1651 21.2553 15.6928C20.6541 16.6109 20.5064 17.318 20.5064 19.3655C20.5064 21.1174 20.6119 21.8984 20.9073 22.4577C21.0127 22.6582 20.9811 22.6793 20.3588 22.8482C18.7027 23.302 17.4159 24.5473 16.9096 26.1832C16.7197 26.8375 16.6986 27.133 16.7302 30.6896L16.7619 34.4995L17.0783 34.9533C17.2576 35.196 17.6057 35.5126 17.8589 35.6498L18.3335 35.8926L24.9999 35.8715L31.6663 35.8398L32.1198 35.5232C32.3941 35.3332 32.6789 34.9955 32.8371 34.6789C33.1113 34.1618 33.1113 34.1301 33.143 31.2067C33.1852 27.5657 33.0902 26.542 32.5839 25.4972C31.9616 24.1991 30.7908 23.2281 29.4195 22.8587L28.7761 22.6793L29.0187 21.9828C29.2297 21.3496 29.2613 21.0646 29.2613 19.4182C29.2613 17.8563 29.2297 17.4447 29.0503 16.8748C28.6706 15.64 27.9112 14.764 26.7509 14.1941C26.234 13.9409 25.9914 13.8986 25.0421 13.867C24.2826 13.8459 23.8185 13.8775 23.5654 13.9831ZM26.3079 15.925C26.8142 16.231 27.3099 16.8748 27.4259 17.3392L27.4892 17.6347H22.2785L22.3418 17.3392C22.4578 16.8748 22.9536 16.231 23.4704 15.925C24.3565 15.3656 25.4113 15.3656 26.3079 15.925ZM27.5736 20.157C27.5736 20.6214 27.4998 21.1807 27.4154 21.434C26.8774 22.9643 25.1581 23.6714 23.713 22.9643C22.6582 22.4471 22.1941 21.5817 22.1941 20.1464V19.3232H27.5736V20.157ZM22.5106 24.4101C22.5106 24.484 22.3945 25.4761 22.2469 26.6053C21.8144 29.9403 21.8355 30.088 22.9219 31.0484C24.6624 32.5787 25.1159 32.5787 26.772 31.1117C27.9428 30.0775 27.9639 29.9825 27.5314 26.6475C27.3838 25.4866 27.2572 24.4629 27.2572 24.389C27.2572 24.2835 27.4154 24.2729 27.9744 24.3257C29.1558 24.4418 29.6621 24.6634 30.3794 25.3811C31.4026 26.4048 31.4237 26.5103 31.4237 30.5313C31.4237 33.6024 31.4131 33.8979 31.2338 34.0668C31.0545 34.2462 30.6642 34.2567 24.8733 34.2567C18.882 34.2567 18.6922 34.2462 18.5445 34.0562C18.3124 33.7291 18.3335 27.2596 18.5656 26.5631C18.7766 25.9404 19.6204 25.0011 20.2427 24.7056C20.9916 24.3468 22.5106 24.1463 22.5106 24.4101ZM25.8543 26.8164C26.1918 29.4759 26.2024 29.3493 25.5273 29.9192C25.2214 30.183 24.9261 30.4046 24.8839 30.4046C24.8417 30.4046 24.5463 30.183 24.2404 29.9192C23.7869 29.5392 23.6708 29.3704 23.6708 29.1171C23.6708 28.7583 24.0822 25.2544 24.1561 25.0434C24.1877 24.9484 24.3987 24.9167 24.905 24.9378L25.6222 24.9695L25.8543 26.8164Z" fill="#44B64B"/>
<path d="M11.34 44.0823C11.2134 44.2406 11.1185 44.4727 11.1185 44.5994C11.1185 44.726 11.2134 44.9582 11.34 45.1165L11.5509 45.3909H14.9263C18.154 45.3909 18.3017 45.3804 18.5021 45.1798C18.6287 45.0532 18.7131 44.8316 18.7131 44.5994C18.7131 44.3672 18.6287 44.1456 18.5021 44.0189C18.3017 43.8184 18.154 43.8079 14.9263 43.8079H11.5509L11.34 44.0823Z" fill="#44B64B"/>
<path d="M11.34 47.2484C11.2134 47.4067 11.1185 47.6389 11.1185 47.7655C11.1185 47.8922 11.2134 48.1243 11.34 48.2826L11.5509 48.557H16.5929C21.5399 48.557 21.6349 48.557 21.8247 48.346C21.9408 48.2193 22.0251 47.966 22.0251 47.7655C22.0251 47.565 21.9408 47.3117 21.8247 47.1851C21.6349 46.974 21.5399 46.974 16.5929 46.974H11.5509L11.34 47.2484Z" fill="#44B64B"/>
<path d="M11.34 50.4145C11.2134 50.5728 11.1185 50.805 11.1185 50.9316C11.1185 51.0583 11.2134 51.2904 11.34 51.4487L11.5509 51.7231H19.6518L19.8628 51.4487C19.9894 51.2904 20.0843 51.0583 20.0843 50.9316C20.0843 50.805 19.9894 50.5728 19.8628 50.4145L19.6518 50.1401H11.5509L11.34 50.4145Z" fill="#44B64B"/>
<path d="M45.1886 15.3129C44.0811 16.5265 43.1529 17.5291 43.1212 17.5291C43.1001 17.5291 42.5305 17.0964 41.8554 16.5687C40.4526 15.4712 40.0939 15.334 39.6615 15.7667C39.4716 15.9566 39.3872 16.1572 39.3872 16.4104C39.3872 16.7165 39.4716 16.8431 39.9463 17.2336C41.2542 18.3418 42.8364 19.5132 43.0263 19.5343C43.6064 19.5977 43.7119 19.5132 45.5789 17.4447C48.5429 14.1836 48.4585 14.2891 48.4585 13.9303C48.4585 13.4871 48.0471 13.0966 47.5725 13.0966C47.2349 13.0966 47.0767 13.2443 45.1886 15.3129Z" fill="#44B64B"/>
</svg>
