<svg width="76" height="75" viewBox="0 0 76 75" fill="none" xmlns="http://www.w3.org/2000/svg">
<path d="M27.8285 3.28199C15.3259 5.18997 5.8449 14.7164 4.07225 27.1585C3.84395 28.7843 3.80366 32.7481 4.0051 34.3873C4.59599 39.1438 6.51636 43.9138 9.37678 47.7163L10.3034 48.939L9.69909 49.6108C8.67847 50.7395 8.70532 50.5111 8.70532 60.1181C8.70532 67.2529 8.73218 68.704 8.90676 69.2818C9.16192 70.1551 10.0482 71.1494 10.9211 71.5525L11.5926 71.875H20.4693C30.2055 71.875 29.9503 71.8884 30.9978 71.0688C31.3067 70.8269 31.6961 70.3164 31.9244 69.8326L32.3407 69.013V58.8416H33.2539C34.5163 58.8416 36.8932 58.4789 37.2693 58.237C37.887 57.8205 37.8198 56.7724 37.135 56.45C36.8395 56.3022 36.5441 56.3156 35.3757 56.4903C34.6103 56.5978 33.6165 56.6918 33.1599 56.6918H32.3407V54.8107H33.0928C34.3014 54.8107 36.7321 54.4076 38.3973 53.9374C42.3052 52.8087 45.5954 50.847 48.6035 47.8372C51.0611 45.3783 52.686 42.9463 53.908 39.9097C54.7944 37.6927 55.5733 34.2798 55.5733 32.5869V32.1031H57.4534V32.6003C57.4399 33.5274 57.0505 35.8922 56.661 37.3971C55.439 42.073 53.0754 46.0636 49.4361 49.5705C47.086 51.8413 44.803 53.3865 41.956 54.6226C40.2774 55.3347 40.1297 55.4691 40.1297 56.1409C40.1297 56.8262 40.64 57.283 41.2846 57.189C42.4664 57.0009 46.1862 55.0391 48.1872 53.5611L49.1944 52.8087L50.3762 53.9911L51.5714 55.1735L51.2625 55.7647C51.0342 56.2081 50.9536 56.5843 50.9536 57.2293C50.9536 58.3311 51.1819 58.7745 52.2831 59.9166C53.0351 60.6959 53.1291 60.8571 53.1963 61.4483L53.2634 62.1067L57.0102 65.8555L60.7569 69.5908H61.3613C61.9253 69.5908 62.0193 69.6445 62.825 70.4776C63.3085 70.9613 63.9397 71.4853 64.2351 71.6197C64.9066 71.9287 66.2629 71.9556 66.9612 71.6734C67.6327 71.3913 72.0375 67.0244 72.3732 66.2989C72.7089 65.5733 72.7089 64.2028 72.3732 63.4772C72.2389 63.1816 71.7152 62.5501 71.2317 62.0664C70.3991 61.2602 70.3454 61.1661 70.3454 60.6018V59.9972L66.6121 56.2484L62.8653 52.4997L62.2073 52.4325C61.6164 52.3653 61.4553 52.2712 60.6764 51.5188C59.5349 50.417 59.0917 50.1886 57.9905 50.1886C57.3459 50.1886 56.9699 50.2692 56.5267 50.4976L55.9359 50.8067L53.5723 48.4418L53.9349 47.9716C55.8418 45.4993 57.6279 41.9924 58.5008 39.0229C58.9574 37.518 59.4543 34.8307 59.5483 33.4065L59.6423 32.1031H62.2744C64.7588 32.1031 64.9468 32.0763 65.578 31.7807C65.9675 31.606 66.5046 31.1895 66.8269 30.8267C67.8207 29.6846 67.8073 29.913 67.767 20.0641C67.7267 11.5051 67.7267 11.3304 67.4447 10.7258C67.0955 9.97334 66.3569 9.24777 65.5377 8.84468C64.9468 8.56251 64.732 8.53564 62.4624 8.5222C60.0989 8.5222 60.0049 8.53564 59.7095 8.8178C59.3334 9.19402 59.32 9.94646 59.6692 10.3361C59.8975 10.578 60.072 10.6048 61.8716 10.6048C64.1277 10.6048 64.638 10.7123 65.1886 11.2901L65.578 11.6932L65.6183 20.1178C65.6452 26.2449 65.6049 28.6365 65.4974 28.9187C65.4169 29.1203 65.1617 29.4427 64.9468 29.6174L64.544 29.9533H47.3814L46.8711 29.4965L46.3743 29.0396L46.334 20.5478C46.3071 12.889 46.3205 12.0291 46.522 11.5991C46.9517 10.6989 47.086 10.672 51.8399 10.6317L56.097 10.5914L56.379 10.2421C56.8625 9.62399 56.661 8.87155 55.9224 8.58938C55.7076 8.50877 54.1229 8.45502 51.9608 8.45502H48.3752L47.0323 7.56821C43.9704 5.53931 40.4788 4.15536 36.5038 3.40292C34.9191 3.09388 29.5072 3.0267 27.8285 3.28199ZM35.3489 5.44526C38.3973 5.87522 41.6203 6.95014 44.1853 8.40127C45.5819 9.19402 45.7431 9.32839 45.4342 9.44932C45.3268 9.48962 45.0582 9.78523 44.8568 10.1077L44.4807 10.6989L43.487 10.1211C41.2577 8.8178 38.5316 7.87725 35.5906 7.36667C34.1 7.12481 33.5359 7.09794 31.1321 7.15169C28.8491 7.20543 28.1105 7.27261 26.8213 7.55478C22.054 8.60282 18.3206 10.6452 14.8693 14.0849C11.1629 17.8068 9.04105 21.9183 8.15473 27.1048C7.89957 28.6097 7.87271 29.1471 7.93986 31.6329C7.99358 33.8096 8.07415 34.7501 8.30245 35.7847C9.26935 40.2456 11.4046 44.29 14.4665 47.4476L15.3394 48.3612H12.7878L12.3178 47.8506C9.71251 45.1096 7.40269 40.4337 6.44922 35.9997C6.12692 34.4411 6.10006 34.0783 6.08663 31.0282C6.08663 28.1125 6.12692 27.5616 6.3955 26.1911C7.99358 18.2771 12.9355 11.6932 19.9859 8.06536C24.7801 5.6065 30.0309 4.70625 35.3489 5.44526ZM33.6434 9.31495C36.6649 9.48962 40.0894 10.6317 43.111 12.4456L44.145 13.0772L44.1853 21.2734C44.2256 29.4562 44.2256 29.483 44.521 30.0339C44.9373 30.8132 45.5819 31.4179 46.3743 31.7807C47.0189 32.0897 47.18 32.1031 50.2419 32.1031H53.4246V32.56C53.4246 33.393 52.9008 36.0803 52.4845 37.424C51.9205 39.211 50.5373 41.9655 49.4361 43.5241C48.2543 45.1634 45.9042 47.5147 44.2927 48.6568C42.7081 49.7855 39.9551 51.156 38.1959 51.7203C36.6784 52.1906 34.1402 52.6609 33.0659 52.6609H32.3407V51.9488C32.3407 51.0082 31.723 49.7452 30.9978 49.1674C30.004 48.3747 29.8698 48.3612 24.0415 48.3612H18.7369L18.0386 47.8238C17.112 47.1116 15.1245 45.029 14.2919 43.9272C12.1432 41.0518 10.666 37.3971 10.1825 33.7558C9.91395 31.821 10.0751 28.0991 10.4914 26.3255C11.7538 21.045 14.6276 16.6378 18.8981 13.4399C21.2079 11.7201 24.3906 10.2958 27.3585 9.6643C28.6343 9.38213 31.3201 9.12684 32.0721 9.20746C32.2602 9.23433 32.9585 9.27464 33.6434 9.31495ZM53.1023 53.6014L50.873 51.3979L52.1354 50.108L54.3646 52.3115L53.1023 53.6014ZM29.2923 50.632C29.4937 50.7395 29.7758 51.0216 29.9235 51.2501C30.1786 51.6666 30.1921 51.9488 30.1921 60.1181C30.1921 68.3278 30.1786 68.5562 29.9235 68.9862C29.4132 69.8058 29.5877 69.7923 20.4559 69.7923C11.1763 69.7923 11.7 69.8461 11.1226 68.8787C10.8674 68.4621 10.854 68.1397 10.854 60.145C10.854 51.2904 10.8406 51.465 11.512 50.8604C11.6598 50.726 11.9821 50.5648 12.2238 50.5111C12.4655 50.4439 16.3197 50.4036 20.7916 50.417C27.5196 50.4439 28.9834 50.4707 29.2923 50.632ZM59.132 53.0774L59.8035 53.7358L54.4989 59.0432L53.8409 58.3848C53.1157 57.6592 52.9277 57.2427 53.1694 56.7859C53.3843 56.3828 56.5805 53.1312 57.2519 52.634C57.9368 52.1369 58.2591 52.2041 59.132 53.0774ZM61.5493 67.3066L55.439 61.193L61.9521 54.6764L68.0624 60.7899L61.5493 67.3066ZM69.7679 63.7056C70.3588 64.2834 70.4797 64.4849 70.4797 64.8746C70.4797 65.3046 70.2917 65.5464 68.2907 67.535C66.3032 69.537 66.0615 69.7252 65.6317 69.7252C65.2423 69.7252 65.0409 69.6042 64.4365 68.9862L63.6979 68.2471L66.3166 65.627C67.7536 64.1893 68.9622 63.0069 69.0025 63.0069C69.0293 63.0069 69.3785 63.316 69.7679 63.7056Z" fill="#44B64B"/>
<path d="M30.0578 17.1081C29.8026 17.2021 29.44 17.3499 29.252 17.4171C28.6477 17.6724 27.5599 18.613 27.1168 19.2848C26.3513 20.4538 26.1633 21.354 26.1633 23.9607C26.1633 26.1911 26.2976 27.1854 26.6736 27.8975C26.8079 28.1528 26.7676 28.1797 25.9753 28.3947C23.8669 28.9725 22.2285 30.558 21.5839 32.6406C21.3422 33.4737 21.3154 33.8499 21.3556 38.378L21.3959 43.2285L21.7988 43.8063C22.0271 44.1153 22.4703 44.5184 22.7926 44.6931L23.3969 45.0021L31.8841 44.9752L40.3714 44.9349L40.9489 44.5318C41.298 44.29 41.6606 43.86 41.862 43.4569C42.2112 42.7985 42.2112 42.7582 42.2515 39.0363C42.3052 34.4008 42.1843 33.0974 41.5397 31.7672C40.7474 30.1145 39.2568 28.8784 37.511 28.4081L36.6918 28.1797L37.0007 27.2929C37.2693 26.4867 37.3095 26.1239 37.3095 24.0278C37.3095 22.0393 37.2693 21.5152 37.041 20.7897C36.5575 19.2176 35.5906 18.1024 34.1134 17.3768C33.4554 17.0543 33.1465 17.0006 31.9379 16.9603C30.971 16.9334 30.3801 16.9737 30.0578 17.1081ZM33.5494 19.5804C34.194 19.97 34.8251 20.7897 34.9729 21.3809L35.0534 21.7571H28.4194L28.5 21.3809C28.6477 20.7897 29.2789 19.97 29.9369 19.5804C31.065 18.8683 32.4079 18.8683 33.5494 19.5804ZM35.1609 24.9684C35.1609 25.5596 35.0669 26.2717 34.9594 26.5942C34.2745 28.5425 32.0856 29.4427 30.2458 28.5425C28.9029 27.8841 28.312 26.7823 28.312 24.955V23.9069H35.1609V24.9684ZM28.7148 30.3833C28.7148 30.4773 28.5671 31.7404 28.3791 33.1781C27.8285 37.424 27.8554 37.6121 29.2386 38.8348C31.4544 40.7831 32.0319 40.7831 34.1402 38.9154C35.6309 37.5986 35.6577 37.4777 35.1072 33.2318C34.9191 31.7538 34.758 30.4505 34.758 30.3564C34.758 30.222 34.9594 30.2086 35.6712 30.2758C37.1752 30.4236 37.8199 30.7058 38.733 31.6194C40.0357 32.9228 40.0625 33.0571 40.0625 38.1764C40.0625 42.0864 40.0491 42.4626 39.8208 42.6776C39.5925 42.906 39.0956 42.9195 31.723 42.9195C24.0952 42.9195 23.8535 42.906 23.6655 42.6642C23.37 42.2477 23.3969 34.0111 23.6923 33.1243C23.9609 32.3316 25.0352 31.1357 25.8276 30.7595C26.781 30.3027 28.7148 30.0474 28.7148 30.3833ZM32.9719 33.4468C33.4016 36.8328 33.4151 36.6715 32.5556 37.3971C32.1662 37.733 31.7901 38.0152 31.7364 38.0152C31.6827 38.0152 31.3067 37.733 30.9172 37.3971C30.3398 36.9134 30.1921 36.6984 30.1921 36.3759C30.1921 35.9191 30.7158 31.4582 30.8098 31.1895C30.8501 31.0685 31.1187 31.0282 31.7633 31.0551L32.6765 31.0954L32.9719 33.4468Z" fill="#44B64B"/>
<path d="M14.493 55.4288C14.3319 55.6304 14.211 55.926 14.211 56.0872C14.211 56.2484 14.3319 56.544 14.493 56.7456L14.7616 57.0949H19.059C23.1683 57.0949 23.3563 57.0815 23.6115 56.8262C23.7726 56.665 23.8801 56.3828 23.8801 56.0872C23.8801 55.7916 23.7726 55.5094 23.6115 55.3482C23.3563 55.0929 23.1683 55.0795 19.059 55.0795H14.7616L14.493 55.4288Z" fill="#44B64B"/>
<path d="M14.493 59.4597C14.3319 59.6613 14.211 59.9569 14.211 60.1181C14.211 60.2794 14.3319 60.575 14.493 60.7765L14.7616 61.1259H21.1808C27.4791 61.1259 27.6 61.1259 27.8417 60.8571C27.9894 60.6959 28.0968 60.3734 28.0968 60.1181C28.0968 59.8628 27.9894 59.5404 27.8417 59.3791C27.6 59.1104 27.4791 59.1104 21.1808 59.1104H14.7616L14.493 59.4597Z" fill="#44B64B"/>
<path d="M14.493 63.4907C14.3319 63.6922 14.211 63.9878 14.211 64.1491C14.211 64.3103 14.3319 64.6059 14.493 64.8074L14.7616 65.1568H25.0753L25.3438 64.8074C25.505 64.6059 25.6259 64.3103 25.6259 64.1491C25.6259 63.9878 25.505 63.6922 25.3438 63.4907L25.0753 63.1413H14.7616L14.493 63.4907Z" fill="#44B64B"/>
<path d="M57.5874 18.8011C56.1773 20.3463 54.9955 21.6227 54.9553 21.6227C54.9284 21.6227 54.2032 21.0718 53.3437 20.4C51.5577 19.0026 51.1011 18.828 50.5505 19.3789C50.3087 19.6207 50.2013 19.876 50.2013 20.1985C50.2013 20.5881 50.3087 20.7494 50.9131 21.2465C52.5783 22.6573 54.5927 24.1488 54.8344 24.1757C55.573 24.2563 55.7073 24.1488 58.0843 21.5153C61.8579 17.3634 61.7504 17.4978 61.7504 17.0409C61.7504 16.4766 61.2267 15.9794 60.6224 15.9794C60.1926 15.9794 59.9912 16.1676 57.5874 18.8011Z" fill="#44B64B"/>
</svg>
