<svg width="76" height="75" viewBox="0 0 76 75" fill="none" xmlns="http://www.w3.org/2000/svg">
<path d="M42.1041 9.9279C41.7563 10.2339 39.7116 14.6291 39.7116 15.0742C39.7116 15.8809 40.8661 16.3677 41.506 15.8392C41.9233 15.5054 43.8845 11.291 43.8845 10.7346C43.8845 9.87226 42.7717 9.35763 42.1041 9.9279Z" fill="#44B64B"/>
<path d="M31.4494 14.7404C31.2546 14.949 31.0877 15.1854 31.0877 15.2828C31.0738 15.9782 30.1141 23.795 30.0167 23.8785C29.961 23.9341 28.9039 24.3375 27.6799 24.7826C22.9784 26.4655 23.0202 26.4516 23.0202 27.314C23.0202 27.5365 23.1036 27.8286 23.201 27.9399C23.2845 28.0651 25.0649 29.0943 27.1235 30.207C31.2407 32.4324 31.5885 32.5576 32.1588 31.8761C32.5343 31.4588 32.5621 31.0137 32.27 30.5965C32.1588 30.4296 30.9347 29.6924 29.5577 28.9413C28.1806 28.2041 27.0539 27.5504 27.0539 27.4948C27.0539 27.4392 28.0693 27.0358 29.3212 26.5907C30.5731 26.1456 31.7276 25.6449 31.9084 25.478C32.2144 25.1859 32.2561 24.8938 32.6317 21.6531C32.8403 19.7197 33.049 18.1202 33.0768 18.0924C33.1046 18.0507 34.2869 19.1217 35.6918 20.4569C37.2079 21.8895 38.4042 22.9327 38.6128 22.9744C38.8771 23.03 39.7117 22.7936 41.4364 22.1677C42.7857 21.6809 43.8845 21.3193 43.8845 21.361C43.8845 21.4166 43.4116 22.6267 42.8413 24.0593C42.271 25.4919 41.7981 26.8411 41.7981 27.0497C41.7981 27.8842 43.0917 28.4128 43.6481 27.8008C43.7732 27.6617 44.5939 25.7284 45.4841 23.5029C47.1394 19.3164 47.2228 19.0104 46.6943 18.5514C46.1796 18.0924 45.9014 18.148 42.5909 19.3581C40.7966 20.0118 39.2805 20.5404 39.2248 20.5404C39.0996 20.5404 37.8895 19.4276 35.0798 16.7432C32.4926 14.2675 32.117 14.0727 31.4494 14.7404Z" fill="#44B64B"/>
<path d="M20.3632 17.7586C20.238 17.8281 20.0572 18.0785 19.9599 18.3149C19.7095 18.8991 19.9738 19.4694 20.6275 19.7893C23.4651 21.1384 24.9534 21.7921 25.2177 21.7921C25.7045 21.7921 26.0244 21.5696 26.2192 21.0967C26.4973 20.4152 26.2052 19.9284 25.2594 19.4833C21.1004 17.5082 20.9057 17.4387 20.3632 17.7586Z" fill="#44B64B"/>
<path d="M49.2532 24.5878C48.975 24.8104 48.8916 24.9912 48.8916 25.3945C48.8916 26.2152 49.1419 26.4377 50.1851 26.5212L51.0893 26.5907L48.669 31.1806C46.1792 35.9236 45.8314 36.7859 45.8314 38.2324C45.8314 38.8722 46.6104 43.0866 46.8747 43.8655C46.9025 43.9629 46.3044 44.9087 45.5393 45.9797C44.7743 47.0646 44.0928 48.0938 44.0232 48.3025C43.9397 48.4972 43.8841 49.902 43.8841 51.4181V54.172L43.4251 54.325C43.1608 54.4224 42.7713 54.6727 42.5488 54.9092L42.1454 55.3265L42.1037 57.3711C42.062 59.6938 42.2011 60.1528 43.0634 60.6257C43.4946 60.8622 43.9676 60.8761 48.822 60.8761H54.1216L54.8448 61.9193C56.5418 64.3672 59.1985 65.5356 62.1891 65.1739C63.5244 65.007 64.7346 64.5202 65.7778 63.7274C66.6541 63.0737 67.6973 61.9054 67.9616 61.2655L68.1146 60.8761H70.3123C72.3153 60.8761 72.5378 60.8483 72.8717 60.584C73.3446 60.2085 73.3863 59.36 72.9273 58.9289C72.6491 58.6785 72.4405 58.6507 70.7435 58.6507H68.8518V56.4253H70.7713C72.4961 56.4253 72.7047 56.3974 72.9551 56.1471C73.3863 55.7159 73.3307 54.8536 72.8717 54.4919C72.5378 54.2277 72.3153 54.1998 70.3262 54.1998H68.1563L67.739 53.4905C66.3063 51.0842 62.3838 49.137 61.6744 50.4723C61.438 50.9034 61.4936 51.5432 61.7718 51.8492C61.897 52.0022 62.2726 52.183 62.5786 52.2665C64.0808 52.6699 65.4439 53.8382 66.1533 55.3543C67.3774 57.9831 66.2646 61.0708 63.6079 62.42C62.4951 62.9902 61.3128 63.1432 60.1027 62.8929C58.3222 62.5173 57.0426 61.4881 56.208 59.7634C55.8185 58.9428 55.7768 58.7341 55.7768 57.538C55.7768 56.4809 55.8463 56.0775 56.0828 55.549C56.5418 54.5476 57.1677 53.7548 57.9745 53.1428C58.8786 52.4751 58.9064 52.4334 58.9064 51.8075C58.9064 51.2372 58.4196 50.7226 57.8771 50.7226C57.126 50.7226 55.2204 52.3778 54.5806 53.5739L54.2467 54.1998H46.1096V49.8881H48.4464C51.7708 49.8881 52.6471 49.5543 53.3983 48.0521C53.7321 47.3984 53.7599 47.1898 53.7599 45.6181C53.7599 43.9768 53.746 43.8794 53.4122 43.5595C53.0922 43.2257 53.0227 43.2118 51.0614 43.2118C49.2671 43.2118 49.0446 43.184 48.975 42.9615C48.7246 42.0713 48.057 38.6497 48.057 38.2324C48.057 37.3145 48.3213 36.7164 51.0058 31.584L53.6625 26.5212H56.0133L55.7351 26.9663C55.5821 27.2166 54.4693 29.3586 53.2592 31.737L51.0475 36.0487V37.1615C51.0475 38.1351 51.1032 38.3715 51.4509 39.0113C51.6874 39.4286 52.1047 39.9432 52.3829 40.1658C53.4261 40.9864 53.44 40.9864 58.9064 40.9864C63.7331 40.9864 63.9278 40.9725 64.1921 40.7082C64.4425 40.4579 64.4703 40.2492 64.4703 37.996C64.4703 35.7428 64.4425 35.5341 64.1921 35.2838C63.7609 34.8526 62.8985 34.9082 62.5368 35.3672C62.2865 35.701 62.2447 35.9375 62.2447 37.3284V38.914L58.3222 38.8722C54.8031 38.8305 54.3441 38.8027 54.0103 38.5802C53.5234 38.2464 53.1479 37.4396 53.2592 36.9528C53.3009 36.7303 54.4832 34.3101 55.902 31.5701L58.4752 26.5907L62.2447 26.5073V28.983C62.2447 31.6675 62.3143 31.9595 63.0237 32.2238C63.4271 32.3768 64.1503 32.1543 64.3312 31.8065C64.4146 31.6675 64.4703 30.4157 64.4703 29.0387V26.5212H66.6958V33.4756C66.6958 40.2492 66.7097 40.444 66.974 40.7082C67.2383 40.9725 67.433 40.9864 70.0063 40.9864C73.1498 40.9864 73.2333 40.9586 73.2333 39.9154C73.2333 38.9835 73.0247 38.9001 70.8269 38.9001H68.9213V26.5212H70.7991C72.4961 26.5212 72.7047 26.4934 72.9551 26.243C73.3863 25.8118 73.3307 24.9495 72.8717 24.5878C72.4961 24.2957 72.4265 24.2957 61.0624 24.2957C49.6983 24.2957 49.6288 24.2957 49.2532 24.5878ZM51.5344 46.1605C51.5205 47.454 51.1588 47.6627 48.8916 47.6627C47.9596 47.6627 47.2224 47.607 47.2502 47.5514C47.278 47.4958 47.6119 46.995 47.9874 46.4387L48.6829 45.4512L50.1156 45.4372H51.5344V46.1605ZM53.4817 58.6507H44.3014V56.4253H53.4817V58.6507Z" fill="#44B64B"/>
<path d="M2.78154 28.4267C2.26688 28.5519 2.01651 28.8996 2.01651 29.5116C2.01651 30.2487 2.1556 30.3739 3.71348 30.9303C5.09052 31.4171 6.57885 32.2933 7.69161 33.2809C8.34536 33.8511 12.4487 38.6497 12.4487 38.8305C12.4487 38.8722 11.7949 38.9001 10.9882 38.9001C9.7085 38.9001 9.51377 38.8722 9.44422 38.6497C9.05475 37.3701 8.38709 36.5355 7.34387 36.0348C6.6484 35.6871 6.39802 35.6454 5.09052 35.6315C3.78302 35.6315 3.56047 35.6732 3.10146 35.9514C2.19733 36.5216 2.01651 36.9667 2.01651 38.761C2.01651 40.5274 2.18342 41.0698 2.90672 41.5845C3.3101 41.8766 3.49092 41.8905 6.03637 41.9044L8.72092 41.9322L9.55549 42.7389C10.0145 43.1979 10.5709 43.8099 10.7934 44.102L11.1968 44.6444V54.478H6.91268C2.79545 54.478 2.61462 54.4919 2.32252 54.7562C1.8635 55.1874 1.90523 56.0358 2.37816 56.4113C2.73981 56.7034 2.89281 56.7034 9.09648 56.7034H15.4392V58.6229L13.5197 58.6785C11.6002 58.7202 11.5863 58.7202 11.2525 59.1097C10.8491 59.5826 10.8213 60.0276 11.2107 60.5145L11.4889 60.8761H16.1625L16.4268 61.4603C16.8163 62.3504 18.4715 63.95 19.5426 64.4646C23.2147 66.2449 27.471 65.1461 29.5575 61.8775L30.1834 60.89H34.6066C39.3359 60.8761 39.4332 60.8622 40.087 60.1528C40.7686 59.4296 40.8242 59.0401 40.8242 55.3543C40.8242 52.2943 40.7825 51.8353 40.5599 51.3346C40.2539 50.6531 39.7253 50.2219 38.9603 50.0133C38.0562 49.7768 38.0284 49.7351 37.5276 48.372C36.9852 46.8559 36.6931 46.3969 36.081 46.091C35.6359 45.8823 35.6359 45.8684 35.6081 44.7835C35.5664 43.2118 35.163 42.2521 34.0642 41.1672L33.2018 40.2909L35.469 37.9125L36.9852 38.9557C38.5987 40.0684 39.0716 40.2214 39.6836 39.7902C39.9201 39.6233 39.9896 39.4425 39.9896 38.9696C39.9896 38.3576 39.9757 38.3298 38.9881 37.6065C36.5261 35.7984 35.9559 35.548 34.8292 35.8401C34.3006 35.9653 33.9251 36.2852 32.1307 38.1351C30.0304 40.277 29.5992 40.6109 28.7229 40.7778C28.3195 40.8473 15.6896 39.1504 15.5783 39.0113C15.5644 38.9835 14.3404 37.4953 12.8382 35.701C10.0701 32.3629 9.09648 31.3475 7.73334 30.4296C5.99465 29.2473 3.53265 28.2598 2.78154 28.4267ZM6.55103 38.149C6.91268 38.3993 7.30215 39.0948 7.30215 39.526C7.30215 39.7068 7.07959 39.7346 5.74427 39.7068L4.17249 39.665L4.13076 39.0531C4.10294 38.7053 4.11685 38.2742 4.17249 38.0933C4.25595 37.7595 4.28377 37.7456 5.21571 37.8291C5.77209 37.8708 6.32847 38.0099 6.55103 38.149ZM17.8317 41.6123C22.0602 42.2382 21.7125 42.1408 21.8376 42.7528C22.0741 44.0463 23.326 45.6459 24.55 46.2439C24.8977 46.3969 26.3861 46.8699 27.8605 47.2593C30.4755 47.9687 30.5311 47.9965 30.5311 48.3581C30.5311 49.6238 31.5048 51.126 32.7288 51.724C33.3269 52.0161 33.619 52.044 35.9559 52.1135L38.5291 52.183V58.5811L34.6762 58.6229L30.8093 58.6507V57.4545C30.8093 55.1874 29.8217 53.1149 27.9996 51.5989C27.3597 51.0703 26.8312 51.0147 26.3026 51.432C26.0383 51.6406 25.941 51.8353 25.941 52.2109C25.941 52.642 26.0801 52.8507 26.8451 53.6574C27.3876 54.2137 27.9161 54.9231 28.1387 55.4099C28.4725 56.1193 28.5142 56.3835 28.5142 57.6075C28.5142 58.8732 28.4725 59.0818 28.083 59.9025C26.9007 62.42 24.0354 63.6857 21.5038 62.8233C20.3632 62.4478 19.5426 61.8775 18.8471 61.0013C17.1084 58.8037 17.2753 55.7576 19.2644 53.7687C20.0433 52.9898 20.9892 52.4751 22.1993 52.1969C22.6861 52.0857 23.1591 51.891 23.2564 51.7519C23.4929 51.4181 23.479 50.7087 23.2286 50.3471C22.9365 49.9298 22.4358 49.8603 21.3925 50.0967C19.3617 50.5696 17.5535 51.8631 16.5659 53.56L16.0234 54.478H13.4224V44.255L13.0746 43.5178C12.8938 43.1144 12.3791 42.4051 11.9479 41.9461L11.1551 41.1255H12.8382C14.0344 41.1255 15.4671 41.2646 17.8317 41.6123ZM32.3811 42.6972C33.2852 43.5734 33.5773 44.4497 33.313 45.4233L33.16 45.9936H32.4367C31.5187 45.9936 26.2192 44.561 25.4124 44.102C24.8838 43.7821 24.0075 42.7389 24.1466 42.5859C24.1884 42.5581 25.0229 42.6555 26.0105 42.7945C27.012 42.9475 28.0413 43.0727 28.3056 43.0727C29.0567 43.0727 30.4059 42.6833 30.9484 42.3077C31.2127 42.1269 31.477 41.9739 31.5326 41.9739C31.5882 41.96 31.9638 42.2938 32.3811 42.6972ZM35.6498 49.8881H34.8709C33.939 49.8881 33.2991 49.5543 32.9653 48.9284C32.5897 48.1912 32.6732 48.1356 34.2172 48.0938L35.0656 48.0799L35.6498 49.8881Z" fill="#44B64B"/>
<path d="M21.935 54.5197C20.3493 55.1039 19.473 56.9538 19.9877 58.6646C20.1963 59.3878 21.0031 60.2919 21.6846 60.6118C22.5331 60.9874 23.9241 60.9595 24.703 60.5562C27.0259 59.3322 26.9981 55.8689 24.6613 54.7005C23.8684 54.2972 22.7557 54.2276 21.935 54.5197ZM23.7293 56.7452C24.1605 57.079 24.3135 57.524 24.1188 57.9691C23.9241 58.4559 23.6181 58.6507 23.0339 58.6507C22.547 58.6507 22.0463 58.1082 22.0463 57.5797C22.0463 56.8425 23.1451 56.2862 23.7293 56.7452Z" fill="#44B64B"/>
<path d="M32.7569 54.6171C32.3952 54.9787 32.3952 55.7298 32.743 56.161C32.9794 56.4531 33.1464 56.4948 34.2035 56.5504C34.8711 56.5643 35.5666 56.5504 35.7474 56.5087C36.6098 56.2862 36.9158 55.396 36.3595 54.7005C36.0813 54.3528 36.0256 54.3389 34.5512 54.3389C33.2159 54.3389 33.0073 54.3667 32.7569 54.6171Z" fill="#44B64B"/>
<path d="M69.005 43.5039C68.546 43.8655 68.4903 44.7279 68.9215 45.1591C69.1719 45.4094 69.3805 45.4372 70.9384 45.4372C72.4963 45.4372 72.7049 45.4094 72.9553 45.1591C73.3865 44.7279 73.3309 43.8655 72.8718 43.5039C72.5519 43.2535 72.3016 43.2118 70.9384 43.2118C69.5753 43.2118 69.3249 43.2535 69.005 43.5039Z" fill="#44B64B"/>
<path d="M60.1587 54.4085C58.7677 54.8396 57.9332 56.008 57.9332 57.5101C57.9332 59.5408 59.185 60.7926 61.2158 60.8065C62.0643 60.8065 62.2869 60.7509 62.885 60.3893C65.3192 58.8871 64.8601 55.2152 62.1339 54.3945C61.3688 54.1581 60.9655 54.1581 60.1587 54.4085ZM61.5914 56.5921C62.0365 56.8147 62.2312 57.1346 62.2451 57.5797C62.2451 58.0665 61.6888 58.6507 61.2019 58.6507C61.0072 58.6507 60.6873 58.4977 60.5064 58.3029C59.964 57.7744 60.1031 56.8286 60.7568 56.5643C61.1741 56.3974 61.2437 56.3974 61.5914 56.5921Z" fill="#44B64B"/>
<path d="M2.78174 58.748C2.25318 58.8732 2.01672 59.2209 2.01672 59.8468C2.01672 60.8204 2.19754 60.8761 5.17419 60.8761C7.53881 60.8761 7.73355 60.8622 7.99783 60.5979C8.28993 60.3058 8.35948 59.6382 8.13693 59.207C8.06738 59.0679 7.8031 58.8871 7.56663 58.8037C7.13544 58.6507 3.35203 58.6089 2.78174 58.748Z" fill="#44B64B"/>
</svg>
