<svg width="60" height="60" viewBox="0 0 60 60" fill="none" xmlns="http://www.w3.org/2000/svg">
<path d="M33.5833 7.69448C33.3052 7.94203 31.6694 11.4977 31.6694 11.8578C31.6694 12.5104 32.593 12.9042 33.1049 12.4766C33.4387 12.2066 35.0077 8.79719 35.0077 8.3471C35.0077 7.64947 34.1175 7.23314 33.5833 7.69448Z" fill="#44B64B"/>
<path d="M25.0596 11.5877C24.9038 11.7565 24.7703 11.9478 24.7703 12.0265C24.7591 12.5891 23.9913 18.9128 23.9134 18.9803C23.8689 19.0254 23.0232 19.3517 22.044 19.7117C18.2828 21.0732 18.3162 21.062 18.3162 21.7596C18.3162 21.9397 18.383 22.176 18.4609 22.266C18.5276 22.3672 19.952 23.1999 21.5989 24.1001C24.8927 25.9004 25.1709 26.0017 25.6271 25.4503C25.9275 25.1128 25.9498 24.7527 25.7161 24.4151C25.6271 24.2801 24.6479 23.6837 23.5462 23.0761C22.4446 22.4798 21.5432 21.9509 21.5432 21.9059C21.5432 21.8609 22.3556 21.5346 23.357 21.1745C24.3585 20.8144 25.2821 20.4094 25.4268 20.2743C25.6716 20.038 25.705 19.8018 26.0054 17.18C26.1723 15.616 26.3393 14.322 26.3615 14.2995C26.3838 14.2657 27.3296 15.1321 28.4535 16.2123C29.6664 17.3713 30.6234 18.2152 30.7903 18.249C31.0017 18.294 31.6694 18.1027 33.0492 17.5963C34.1286 17.2025 35.0077 16.91 35.0077 16.9437C35.0077 16.9887 34.6294 17.9677 34.1731 19.1266C33.7169 20.2856 33.3385 21.3771 33.3385 21.5458C33.3385 22.221 34.3734 22.6485 34.8185 22.1534C34.9187 22.0409 35.5752 20.4769 36.2874 18.6765C37.6116 15.2897 37.6783 15.0421 37.2555 14.6708C36.8438 14.2995 36.6212 14.3445 33.9728 15.3234C32.5374 15.8523 31.3244 16.2798 31.2799 16.2798C31.1798 16.2798 30.2117 15.3797 27.9639 13.208C25.8941 11.2051 25.5937 11.0476 25.0596 11.5877Z" fill="#44B64B"/>
<path d="M16.1907 14.0294C16.0905 14.0857 15.9459 14.2882 15.868 14.4795C15.6677 14.9521 15.8791 15.4134 16.4021 15.6722C18.6721 16.7637 19.8628 17.2925 20.0742 17.2925C20.4637 17.2925 20.7196 17.1125 20.8754 16.7299C21.098 16.1786 20.8643 15.7847 20.1076 15.4247C16.7804 13.8269 16.6246 13.7706 16.1907 14.0294Z" fill="#44B64B"/>
<path d="M39.3026 19.5542C39.0801 19.7342 39.0133 19.8805 39.0133 20.2068C39.0133 20.8707 39.2136 21.0507 40.0482 21.1182L40.7715 21.1745L38.8353 24.8877C36.8434 28.7247 36.5652 29.4223 36.5652 30.5925C36.5652 31.1101 37.1884 34.5195 37.3998 35.1496C37.4221 35.2284 36.9436 35.9936 36.3316 36.86C35.7195 37.7376 35.1743 38.5703 35.1186 38.7391C35.0519 38.8966 35.0074 40.0331 35.0074 41.2596V43.4875L34.6402 43.6112C34.4287 43.69 34.1172 43.8925 33.9391 44.0838L33.6164 44.4214L33.583 46.0755C33.5496 47.9546 33.6609 48.3259 34.3508 48.7085C34.6958 48.8997 35.0741 48.911 38.9577 48.911H43.1973L43.776 49.7549C45.1335 51.7353 47.2589 52.6805 49.6514 52.3879C50.7196 52.2529 51.6877 51.8591 52.5223 51.2177C53.2233 50.6888 54.0579 49.7437 54.2693 49.2261L54.3917 48.911H56.1499C57.7523 48.911 57.9303 48.8885 58.1974 48.6747C58.5757 48.3709 58.6091 47.6845 58.2419 47.3357C58.0194 47.1332 57.8524 47.1107 56.4949 47.1107H54.9815V45.3103H56.5171C57.897 45.3103 58.0639 45.2878 58.2642 45.0853C58.6091 44.7365 58.5646 44.0388 58.1974 43.7463C57.9303 43.5325 57.7523 43.51 56.161 43.51H54.4251L54.0913 42.9361C52.9451 40.9895 49.8071 39.4142 49.2396 40.4944C49.0505 40.8432 49.095 41.3608 49.3175 41.6084C49.4177 41.7321 49.7181 41.8784 49.9629 41.9459C51.1647 42.2722 52.2552 43.2174 52.8227 44.4439C53.802 46.5706 52.9118 49.0685 50.7864 50.16C49.8962 50.6213 48.9503 50.7451 47.9822 50.5426C46.5579 50.2387 45.5341 49.4061 44.8665 48.0108C44.5549 47.347 44.5215 47.1782 44.5215 46.2105C44.5215 45.3553 44.5771 45.029 44.7663 44.6014C45.1335 43.7913 45.6343 43.1499 46.2797 42.6548C47.003 42.1147 47.0252 42.081 47.0252 41.5746C47.0252 41.1133 46.6358 40.6969 46.2018 40.6969C45.6009 40.6969 44.0764 42.0359 43.5645 43.0036L43.2975 43.51H36.7878V40.0218H38.6572C41.3167 40.0218 42.0178 39.7518 42.6187 38.5365C42.8857 38.0077 42.908 37.8389 42.908 36.5674C42.908 35.2397 42.8969 35.1609 42.6298 34.9021C42.3739 34.632 42.3182 34.6208 40.7492 34.6208C39.3138 34.6208 39.1357 34.5983 39.0801 34.4183C38.8798 33.6981 38.3457 30.9301 38.3457 30.5925C38.3457 29.8499 38.5571 29.3661 40.7047 25.214L42.8301 21.1182H44.7107L44.4881 21.4783C44.3657 21.6809 43.4755 23.4137 42.5074 25.3378L40.7381 28.826V29.7261C40.7381 30.5138 40.7826 30.7051 41.0608 31.2227C41.25 31.5602 41.5838 31.9765 41.8064 32.1566C42.6409 32.8205 42.6521 32.8205 47.0252 32.8205C50.8865 32.8205 51.0423 32.8092 51.2537 32.5954C51.454 32.3929 51.4763 32.2241 51.4763 30.4012C51.4763 28.5784 51.454 28.4096 51.2537 28.2071C50.9088 27.8583 50.2189 27.9033 49.9296 28.2746C49.7293 28.5446 49.6959 28.7359 49.6959 29.8611V31.1439L46.5579 31.1101C43.7426 31.0764 43.3754 31.0539 43.1083 30.8738C42.7188 30.6038 42.4184 29.9512 42.5074 29.5573C42.5408 29.3773 43.4866 27.4194 44.6217 25.2028L46.6803 21.1745L49.6959 21.107V23.1099C49.6959 25.2815 49.7515 25.5178 50.319 25.7316C50.6417 25.8554 51.2204 25.6754 51.365 25.3941C51.4318 25.2815 51.4763 24.2688 51.4763 23.1549V21.1182H53.2567V26.7443C53.2567 32.2241 53.2678 32.3816 53.4793 32.5954C53.6907 32.8092 53.8465 32.8205 55.9051 32.8205C58.42 32.8205 58.4867 32.798 58.4867 31.954C58.4867 31.2002 58.3198 31.1326 56.5616 31.1326H55.0371V21.1182H56.5394C57.897 21.1182 58.0639 21.0957 58.2642 20.8932C58.6091 20.5444 58.5646 19.8468 58.1974 19.5542C57.897 19.3179 57.8413 19.3179 48.75 19.3179C39.6587 19.3179 39.6031 19.3179 39.3026 19.5542ZM41.1276 37.0062C41.1164 38.0527 40.8271 38.2215 39.0133 38.2215C38.2678 38.2215 37.678 38.1765 37.7003 38.1315C37.7225 38.0865 37.9896 37.6814 38.29 37.2313L38.8464 36.4324L39.9926 36.4211H41.1276V37.0062ZM42.6854 47.1107H35.3412V45.3103H42.6854V47.1107Z" fill="#44B64B"/>
<path d="M2.1253 22.6598C1.71358 22.761 1.51328 23.0424 1.51328 23.5374C1.51328 24.1338 1.62456 24.2351 2.87085 24.6852C3.97249 25.079 5.16315 25.7879 6.05336 26.5868C6.57636 27.0481 9.85902 30.9301 9.85902 31.0764C9.85902 31.1101 9.33602 31.1326 8.69062 31.1326C7.66687 31.1326 7.51109 31.1101 7.45545 30.9301C7.14387 29.8949 6.60975 29.2198 5.77517 28.8147C5.21879 28.5334 5.01849 28.4996 3.97249 28.4884C2.92649 28.4884 2.74845 28.5221 2.38124 28.7472C1.65794 29.2085 1.51328 29.5686 1.51328 31.0201C1.51328 32.4491 1.64681 32.888 2.22545 33.3043C2.54815 33.5406 2.69281 33.5518 4.72917 33.5631L6.87681 33.5856L7.54447 34.2382C7.91168 34.6095 8.35679 35.1046 8.53483 35.3409L8.85753 35.7798V43.735H5.43022C2.13643 43.735 1.99177 43.7463 1.75809 43.9601C1.39088 44.3089 1.42426 44.9953 1.8026 45.2991C2.09192 45.5354 2.21432 45.5354 7.17726 45.5354H12.2515V47.0881L10.7159 47.1332C9.18024 47.1669 9.16911 47.1669 8.90204 47.482C8.57934 47.8645 8.55709 48.2246 8.86866 48.6184L9.09121 48.911H12.8301L13.0415 49.3836C13.3531 50.1037 14.6773 51.3977 15.5341 51.814C18.4718 53.2543 21.8769 52.3654 23.546 49.7211L24.0468 48.9222H27.5854C31.3688 48.911 31.4467 48.8997 31.9697 48.3259C32.5149 47.7408 32.5594 47.4257 32.5594 44.4439C32.5594 41.9684 32.5261 41.5971 32.348 41.192C32.1032 40.6407 31.6804 40.2919 31.0683 40.1231C30.345 39.9318 30.3228 39.898 29.9222 38.7953C29.4882 37.5688 29.2545 37.1975 28.7649 36.95C28.4088 36.7812 28.4088 36.7699 28.3866 35.8923C28.3532 34.6208 28.0305 33.8444 27.1514 32.9667L26.4615 32.2578L28.2753 30.3337L29.4882 31.1776C30.779 32.0778 31.1574 32.2016 31.647 31.8528C31.8361 31.7177 31.8918 31.5715 31.8918 31.1889C31.8918 30.6938 31.8807 30.6713 31.0906 30.0862C29.121 28.6234 28.6648 28.4209 27.7634 28.6572C27.3406 28.7584 27.0401 29.0172 25.6047 30.5138C23.9244 32.2466 23.5794 32.5166 22.8784 32.6517C22.5557 32.7079 12.4518 31.3352 12.3627 31.2226C12.3516 31.2001 11.3724 29.9962 10.1706 28.5446C7.95619 25.8441 7.17726 25.0227 6.08675 24.2801C4.69579 23.3237 2.72619 22.5248 2.1253 22.6598ZM5.1409 30.525C5.43022 30.7276 5.74179 31.2902 5.74179 31.639C5.74179 31.7853 5.56375 31.8078 4.49549 31.7853L3.23807 31.7515L3.20468 31.2564C3.18243 30.9751 3.19356 30.6263 3.23807 30.48C3.30483 30.21 3.32709 30.1987 4.07264 30.2662C4.51775 30.3 4.96285 30.4125 5.1409 30.525ZM14.1654 33.3268C17.5482 33.8331 17.27 33.7544 17.3702 34.2495C17.5594 35.2959 18.5608 36.5899 19.5401 37.0738C19.8183 37.1975 21.0089 37.5801 22.1885 37.8952C24.2805 38.469 24.325 38.4915 24.325 38.7841C24.325 39.808 25.1039 41.0233 26.0831 41.5071C26.5616 41.7434 26.7953 41.7659 28.6648 41.8222L30.7234 41.8784V47.0544L27.641 47.0881L24.5475 47.1106V46.143C24.5475 44.3089 23.7575 42.6323 22.2997 41.4058C21.7879 40.9782 21.365 40.9332 20.9422 41.2708C20.7307 41.4396 20.6528 41.5971 20.6528 41.9009C20.6528 42.2497 20.7641 42.4185 21.3761 43.0711C21.8101 43.5212 22.233 44.0951 22.411 44.4889C22.6781 45.0628 22.7115 45.2766 22.7115 46.2667C22.7115 47.2907 22.6781 47.4595 22.3665 48.1233C21.4207 50.16 19.1284 51.1839 17.1031 50.4863C16.1907 50.1825 15.5341 49.7211 14.9777 49.0123C13.5868 47.2344 13.7203 44.7702 15.3116 43.1612C15.9347 42.531 16.6914 42.1147 17.6595 41.8897C18.049 41.7996 18.4273 41.6421 18.5052 41.5296C18.6944 41.2595 18.6833 40.6857 18.483 40.3931C18.2493 40.0556 17.8487 39.9993 17.0141 40.1906C15.3895 40.5732 13.9429 41.6196 13.1528 42.9924L12.7188 43.735H10.638V35.4647L10.3598 34.8683C10.2151 34.542 9.80338 33.9682 9.45843 33.5968L8.82415 32.933H10.1706C11.1276 32.933 12.2737 33.0455 14.1654 33.3268ZM25.805 34.2045C26.5282 34.9133 26.7619 35.6222 26.5505 36.4099L26.4281 36.8712H25.8495C25.115 36.8712 20.8754 35.7122 20.23 35.3409C19.8071 35.0821 19.1061 34.2382 19.2174 34.1144C19.2508 34.0919 19.9184 34.1707 20.7085 34.2832C21.5097 34.407 22.3331 34.5083 22.5445 34.5083C23.1454 34.5083 24.2248 34.1932 24.6588 33.8894C24.8702 33.7431 25.0817 33.6193 25.1262 33.6193C25.1707 33.6081 25.4711 33.8781 25.805 34.2045ZM28.42 40.0218H27.7968C27.0512 40.0218 26.5394 39.7518 26.2723 39.2454C25.9719 38.6491 26.0386 38.604 27.2738 38.5703L27.9526 38.559L28.42 40.0218Z" fill="#44B64B"/>
<path d="M17.4481 43.7688C16.1795 44.2414 15.4785 45.7379 15.8902 47.1219C16.0571 47.707 16.7025 48.4384 17.2478 48.6972C17.9266 49.001 19.0393 48.9785 19.6625 48.6522C21.5208 47.662 21.4986 44.8602 19.6291 43.915C18.9948 43.5887 18.1046 43.5325 17.4481 43.7688ZM18.8836 45.5691C19.2285 45.8392 19.3509 46.1992 19.1951 46.5593C19.0393 46.9531 18.7945 47.1106 18.3272 47.1106C17.9377 47.1106 17.5371 46.6718 17.5371 46.2442C17.5371 45.6479 18.4162 45.1978 18.8836 45.5691Z" fill="#44B64B"/>
<path d="M26.1056 43.8475C25.8163 44.1401 25.8163 44.7477 26.0945 45.0965C26.2836 45.3328 26.4172 45.3666 27.2629 45.4116C27.797 45.4228 28.3534 45.4116 28.498 45.3778C29.1879 45.1978 29.4328 44.4776 28.9876 43.915C28.7651 43.6337 28.7206 43.6225 27.5411 43.6225C26.4728 43.6225 26.3059 43.645 26.1056 43.8475Z" fill="#44B64B"/>
<path d="M55.1041 34.8571C54.7369 35.1496 54.6923 35.8473 55.0373 36.1961C55.2376 36.3986 55.4045 36.4211 56.6508 36.4211C57.8971 36.4211 58.064 36.3986 58.2643 36.1961C58.6093 35.8473 58.5648 35.1496 58.1976 34.8571C57.9416 34.6545 57.7413 34.6208 56.6508 34.6208C55.5603 34.6208 55.36 34.6545 55.1041 34.8571Z" fill="#44B64B"/>
<path d="M48.027 43.6787C46.9143 44.0276 46.2466 44.9727 46.2466 46.188C46.2466 47.8308 47.2481 48.8435 48.8727 48.8547C49.5515 48.8547 49.7296 48.8097 50.2081 48.5172C52.1554 47.3019 51.7882 44.3314 49.6072 43.6675C48.9952 43.4762 48.6725 43.4762 48.027 43.6787ZM49.1732 45.4453C49.5293 45.6254 49.6851 45.8842 49.6962 46.2442C49.6962 46.6381 49.2511 47.1106 48.8616 47.1106C48.7058 47.1106 48.4499 46.9869 48.3052 46.8293C47.8713 46.4018 47.9825 45.6366 48.5055 45.4228C48.8394 45.2878 48.895 45.2878 49.1732 45.4453Z" fill="#44B64B"/>
<path d="M2.12547 47.1894C1.70262 47.2907 1.51345 47.572 1.51345 48.0783C1.51345 48.866 1.65811 48.911 4.03942 48.911C5.93113 48.911 6.08691 48.8997 6.29834 48.6859C6.53202 48.4496 6.58766 47.9095 6.40961 47.5607C6.35398 47.4482 6.14255 47.3019 5.95338 47.2344C5.60842 47.1106 2.5817 47.0769 2.12547 47.1894Z" fill="#44B64B"/>
</svg>
