<svg width="76" height="75" viewBox="0 0 76 75" fill="none" xmlns="http://www.w3.org/2000/svg">
<path d="M27.0438 2.53273C24.458 2.95686 22.2023 3.81879 20.5794 4.98172C20.2355 5.22799 19.5891 5.52898 19.1352 5.6658C16.9896 6.26778 15.6004 7.8138 15.2015 10.0439C14.9815 11.2889 15.119 14.0662 15.4766 16.1869L15.7654 17.815L15.2015 18.2938C14.3625 19.0053 14.115 19.6483 14.115 21.1396C14.115 22.2204 14.1562 22.4667 14.5001 23.1234C14.9264 23.9717 15.793 24.5873 16.7145 24.7105L17.2784 24.7926L17.5672 25.7639C17.9798 27.1458 18.5575 28.295 19.424 29.4443L20.1667 30.4293V31.5512C20.1667 32.5226 20.1392 32.6868 19.9329 32.6868C19.8091 32.6868 18.9564 33.4256 18.0349 34.3423L16.3569 35.984L13.3998 37.1196C9.67241 38.5562 8.9572 38.9392 7.92564 40.0338C6.50898 41.5387 6.00008 42.9069 6.00008 45.2054C6.00008 46.7377 6.64652 63.5797 6.7703 65.3582C6.86658 66.7127 7.07289 67.0274 7.89813 67.0274C8.42079 67.0274 8.75088 66.8085 8.91593 66.3433C8.9572 66.2202 8.81965 61.8147 8.59959 56.561C8.18697 46.3546 8.13195 43.9604 8.32451 43.8509C8.37953 43.8099 9.28729 44.6308 10.3188 45.6705C11.7355 47.1208 12.2857 47.7638 12.5745 48.3795L12.9459 49.173L13.0146 57.806C13.0834 66.0697 13.0972 66.4664 13.3447 66.7401C13.7161 67.1505 14.5138 67.1232 14.9127 66.7127L15.2153 66.398V57.9429C15.2153 48.6394 15.2153 48.6805 14.3625 46.9977C14.0462 46.3683 13.3998 45.6158 11.6942 43.8919L9.43859 41.6345L9.89247 41.2104C10.4839 40.6494 10.5939 40.5947 13.9086 39.3086L16.797 38.1868L18.9151 41.3609C20.0705 43.0984 21.157 44.6718 21.3221 44.836C22.0373 45.6295 23.3852 45.9715 24.458 45.6432L25.1044 45.438L25.0357 46.6967C24.8018 50.5822 24.1829 66.1381 24.2517 66.3296C24.4167 66.7948 24.7468 67.0274 25.242 67.0274C25.7646 67.0274 25.9022 66.959 26.191 66.6033C26.3148 66.4391 26.4798 63.9354 26.7687 57.2314C26.9887 52.1966 27.1813 47.8185 27.1813 47.4902V46.9156H29.3682L29.437 47.3534C29.4782 47.5996 29.6708 51.7999 29.8633 56.6978C30.0559 61.5821 30.2485 65.7961 30.2897 66.0423C30.331 66.2886 30.4823 66.6169 30.6336 66.7674C30.9912 67.1232 31.7752 67.1095 32.1328 66.7538C32.4904 66.398 32.4904 66.3707 31.9952 55.1929C31.7752 50.1444 31.5826 45.8895 31.5826 45.7116C31.5826 45.4243 31.6101 45.4106 31.8989 45.5611C32.064 45.6569 32.6004 45.739 33.0955 45.739C33.8383 45.7526 34.0996 45.6842 34.6497 45.3696C35.2274 45.0275 35.5713 44.576 37.5931 41.5798C38.8447 39.7054 39.9175 38.1868 39.9588 38.2141C40.3989 38.4878 44.814 40.0748 45.1028 40.0748C45.9968 40.0748 46.4782 38.8982 45.8455 38.2962C45.6667 38.132 44.3326 37.53 42.8609 36.9691L40.1789 35.9567L38.5284 34.3286C37.6206 33.4256 36.7954 32.6868 36.6991 32.6868C36.5891 32.6868 36.534 32.3584 36.534 31.5239V30.3472L37.2218 29.458C38.047 28.3908 38.9135 26.6259 39.1473 25.5314C39.3261 24.7926 39.3536 24.7515 39.7525 24.7515C40.784 24.7378 42.0907 23.6844 42.4208 22.5761C42.6821 21.7142 42.6271 20.1272 42.297 19.4157C42.1457 19.0874 41.9394 18.718 41.8294 18.5948C41.6918 18.4307 41.6781 18.2254 41.8018 17.5687C41.8844 17.1172 41.9394 15.667 41.9394 14.3536C41.9394 12.2056 41.9119 11.8225 41.5818 10.6185C40.7015 7.32126 38.9272 5.13222 36.0527 3.75039C34.0171 2.779 32.903 2.56009 29.9321 2.50537C28.5292 2.49169 27.2363 2.50537 27.0438 2.53273ZM33.4394 5.10486C36.5891 6.04888 38.5559 8.00534 39.4224 11.07C39.945 12.9444 39.9175 17.1856 39.3811 17.5277C38.9823 17.7739 38.7209 17.6234 38.4321 16.9804C37.2768 14.3125 37.318 14.3399 35.6125 14.6819C31.0874 15.5849 26.7824 15.1881 24.1967 13.6421C23.7841 13.3959 23.0138 12.8075 22.4912 12.3287C21.4184 11.3847 21.047 11.2752 20.5106 11.8225C19.7541 12.5613 20.2218 13.5053 21.996 14.8461C24.8156 16.9804 29.1756 17.8013 34.1408 17.1583C35.0349 17.0351 35.8326 16.9667 35.9151 17.0078C35.9976 17.0351 36.2452 17.5003 36.4515 18.0202C36.6716 18.5538 37.0292 19.1558 37.2493 19.3747C37.6206 19.7304 37.7306 19.7578 38.7622 19.7578C40.1239 19.7714 40.3852 19.9767 40.3852 21.1259C40.3852 22.0836 40.0276 22.5625 39.3124 22.5625C38.6384 22.5625 37.7994 23.0687 37.4831 23.657C37.3455 23.9169 37.0842 24.6557 36.8917 25.2988C36.0114 28.254 33.5357 30.5798 30.4135 31.387C29.3957 31.647 27.3739 31.647 26.2873 31.387C25.3245 31.1681 24.0729 30.6072 23.1926 29.9915C22.3949 29.4443 21.1708 28.1582 20.6206 27.2826C20.2218 26.6396 19.6166 25.0662 19.4103 24.1495C19.2727 23.5339 18.4062 22.7403 17.7598 22.6446C16.687 22.4804 16.5357 22.3846 16.3431 21.81C16.0955 21.0712 16.2468 20.305 16.687 19.963C17.1133 19.6346 17.4297 19.703 18.0761 20.2503C18.42 20.565 18.6675 20.6471 19.1352 20.6471C19.6441 20.6471 19.8642 20.5513 20.4693 20.0588C21.5421 19.1831 22.2298 18.2254 22.2298 17.5961C22.2298 16.5289 21.0332 16.1322 20.3318 16.9667C20.1255 17.213 19.7954 17.5961 19.6028 17.8287L19.2315 18.2391L18.6125 17.9108L17.9798 17.5824L17.7735 16.4058C17.2646 13.6695 17.1408 11.5488 17.4297 10.2491C17.7048 8.96304 18.8188 7.86852 20.0017 7.71802C20.4556 7.64962 20.937 7.43071 21.6522 6.93818C23.2476 5.85734 25.0769 5.09117 26.8787 4.7765C27.2363 4.70809 28.5842 4.68073 29.8633 4.69441C31.9402 4.73545 32.3391 4.7765 33.4394 5.10486ZM24.293 33.0836C25.6271 33.5761 26.7962 33.7813 28.3091 33.7813C30.3035 33.7813 31.8577 33.4119 33.5494 32.5363L34.3334 32.1395V34.1233L31.4175 36.6544C29.8083 38.0499 28.4192 39.1855 28.3366 39.1855C28.2404 39.1855 26.865 38.0499 25.2695 36.6818L22.3674 34.1644V32.1258L22.9588 32.4679C23.2752 32.6594 23.8803 32.9331 24.293 33.0836ZM23.3989 38.0089C24.9119 39.3223 26.2735 40.4989 26.4248 40.6494C26.6862 40.8957 26.6724 40.9094 25.462 42.127C24.0729 43.5225 23.6328 43.7688 23.1514 43.4678C22.9863 43.3447 21.886 41.826 20.7307 40.0885L18.5988 36.9144L19.4103 36.1072C20.0842 35.4231 20.2493 35.3273 20.4281 35.4641C20.5519 35.5599 21.886 36.6955 23.3989 38.0089ZM35.8463 40.2116C33.5907 43.5636 33.3294 43.8509 32.7104 43.5089C32.5866 43.4405 31.9264 42.8248 31.2387 42.1407C30.0146 40.8957 30.0146 40.8957 30.276 40.6221C30.4273 40.4716 31.8577 39.2266 33.4394 37.831L36.3277 35.3136L37.1805 36.1345L38.0195 36.9691L35.8463 40.2116ZM29.2857 44.0014L29.3682 44.7265H27.3188V44.0835C27.3188 43.5225 27.3876 43.3721 27.8277 42.9206L28.3366 42.4007L28.7768 42.8385C29.1206 43.1942 29.2307 43.4541 29.2857 44.0014Z" fill="#44B64B"/>
<path d="M48.0874 40.882C47.1384 41.1693 46.4095 41.785 45.9418 42.6743C45.763 43.03 45.6805 43.5499 45.6392 44.6855L45.5842 46.2178L41.7743 46.2589C37.6619 46.2999 37.5656 46.3273 36.369 47.1482C35.7226 47.586 34.9798 48.7078 34.7735 49.5424C34.6773 49.8981 34.6085 51.1432 34.6085 52.3198C34.6085 54.5772 34.8148 55.6307 35.4337 56.5063C35.6813 56.8347 35.6951 57.2451 35.7363 63.1418L35.7776 69.4217L36.1077 70.092C36.5478 70.9813 37.3593 71.7612 38.2533 72.1716L38.9685 72.5L52.365 72.4726L65.7614 72.4316L66.4078 72.1032C67.1918 71.7065 67.907 70.995 68.3334 70.1741C68.6497 69.5585 68.6497 69.5311 68.7185 63.265L68.7873 56.9715L69.7501 55.0561V52.1829C69.7501 49.3372 69.7501 49.3098 69.3787 48.6121C68.9936 47.9006 68.1821 47.0661 67.5219 46.7377C66.7379 46.3409 65.6514 46.2315 62.2541 46.2315H58.8156V44.7539C58.8156 43.4405 58.7743 43.1942 58.458 42.5648C58.2654 42.1681 57.8941 41.6892 57.6603 41.5114C56.7387 40.8136 56.3261 40.7589 52.2274 40.7726C50.1368 40.7726 48.28 40.8273 48.0874 40.882ZM55.9685 43.1121C56.5187 43.3994 56.6012 43.6594 56.615 44.9591V46.2315H47.7849L47.8399 44.9181C47.8811 43.673 47.9086 43.591 48.2662 43.2763L48.6514 42.9479H52.1586C54.5656 42.9479 55.7622 43.0027 55.9685 43.1121ZM66.6967 48.872C67.5494 49.5151 67.6182 49.7887 67.6182 52.224C67.6182 54.2762 67.6044 54.4267 67.2606 55.0971C66.8204 55.959 65.7064 56.9988 64.331 57.7924L63.2994 58.408L63.1481 57.9702C62.9143 57.2314 62.6117 57.163 59.8196 57.2041C56.4774 57.2588 56.6837 57.0672 56.6837 60.1593C56.6837 62.1294 56.725 62.5125 56.945 62.964C57.5365 64.1543 58.6368 64.8247 59.9572 64.8383C61.8552 64.8383 63.2031 63.5112 63.2169 61.6232V60.7886L64.2897 60.2961C64.8674 60.0225 65.6101 59.6394 65.9402 59.4342L66.5179 59.0784V63.9901C66.5179 68.8607 66.5179 68.9018 66.2015 69.3532C66.0365 69.6132 65.6789 69.9416 65.4175 70.092C64.9361 70.3794 64.7986 70.3794 52.2137 70.3794C38.0607 70.3794 39.0098 70.4478 38.2946 69.4627C37.9782 69.0112 37.9782 68.9975 37.937 64.0448C37.9232 61.3222 37.937 59.0921 37.9645 59.0921C38.0057 59.0921 38.3633 59.2973 38.7622 59.5436C39.1611 59.7899 39.8763 60.173 40.3577 60.3919L41.2104 60.7886V61.4727C41.2242 62.8545 41.9119 63.9764 43.0535 64.51C44.759 65.3035 46.8358 64.5921 47.4823 62.9913C47.7023 62.4714 47.7986 62.3757 48.0187 62.4441C48.17 62.4851 49.5179 62.5672 51.0171 62.6083C53.7266 62.6904 53.7404 62.6904 54.0705 62.3757C54.4968 61.9789 54.5243 61.3085 54.153 60.857C53.8917 60.5424 53.8091 60.5287 51.2921 60.4466C49.8617 60.3919 48.5001 60.3098 48.2525 60.255L47.8124 60.1593V59.0784C47.8124 57.806 47.7023 57.5324 47.1109 57.3272C46.547 57.1357 42.4896 57.1357 41.9256 57.3272C41.6781 57.4093 41.4442 57.6282 41.348 57.8745C41.2517 58.0934 41.1554 58.2712 41.1141 58.2712C40.9216 58.2712 39.6287 57.5187 38.941 56.9988C38.0057 56.2874 37.4693 55.6581 37.0842 54.8098C36.8641 54.3309 36.8091 53.9068 36.8091 52.2514C36.8091 50.4454 36.8366 50.1991 37.1255 49.6519C37.3455 49.2277 37.6069 48.9541 38.0332 48.7352L38.6522 48.4205L66.2015 48.4889L66.6967 48.872ZM45.6117 60.6655C45.6117 61.8695 45.5842 62.0063 45.2679 62.3073C44.9378 62.6356 44.4839 62.7314 44.03 62.5672C43.6174 62.403 43.4111 61.7463 43.4111 60.5287V59.3657H45.6117V60.6655ZM61.0162 60.6929C61.0162 61.8695 60.975 62.0473 60.7137 62.3346C60.5211 62.5399 60.2598 62.6493 59.9984 62.6493C59.1182 62.6356 58.8156 62.0747 58.8156 60.4466V59.3657H61.0162V60.6929Z" fill="#44B64B"/>
</svg>
