<svg width="60" height="60" viewBox="0 0 60 60" fill="none" xmlns="http://www.w3.org/2000/svg">
<path d="M37.2663 9.97119C45.329 9.97119 52.1715 11.6871 56.2675 14.1993V39.0802C56.2675 40.4157 55.8091 41.7011 55.2286 43.1271C53.5372 46.7259 50.7004 49.4402 47.3707 51.7784C45.0503 53.4079 42.563 54.8098 40.0888 56.2043C39.1435 56.7371 38.2001 57.2689 37.2686 57.8118C36.3363 57.2684 35.392 56.7362 34.4458 56.2029C31.9721 54.8088 29.4854 53.4073 27.1653 51.7784C23.835 49.4401 20.9977 46.7258 19.3064 43.1271C18.7258 41.7011 18.2675 40.4157 18.2675 39.0802V14.1993C22.3633 11.687 29.2036 9.97119 37.2663 9.97119Z" stroke="#F0F1FE" stroke-width="2"/>
<path d="M6.05655 1.17831C4.43546 1.61776 3.09757 3.13144 2.83389 4.83066C2.69718 5.70956 2.69718 27.7994 2.84366 28.6588C2.98038 29.5377 3.41007 30.4166 4.0253 31.0611C4.63077 31.6959 5.14835 32.0279 5.96866 32.2818C6.53507 32.4576 7.02335 32.4674 15.6659 32.4674H24.7773L24.8358 33.8541C24.9042 35.3775 25.0507 36.2369 25.4315 37.1549L25.6757 37.7603L25.1581 38.2682C24.328 39.0787 24.3183 39.1471 24.3183 43.1314C24.3183 46.4029 24.328 46.5396 24.5136 46.7252C24.7089 46.9205 24.8358 46.9205 33.039 46.9205H41.3788L41.5644 46.7154C41.7401 46.5201 41.7499 46.315 41.7499 43.1705C41.7499 41.3443 41.7206 39.6842 41.6718 39.4889C41.5546 38.9127 41.0468 38.2486 40.4901 37.9361C40.2167 37.7701 39.9237 37.6432 39.8358 37.6432C39.748 37.6432 39.455 37.4185 39.1815 37.1549C38.2929 36.2857 37.7655 35.3678 37.3358 33.9615L37.0722 33.1021L37.0038 26.9986C36.9355 20.3287 36.9257 20.2701 36.3202 18.6881C35.3534 16.1783 33.0292 13.8443 29.7187 12.0572L28.9081 11.6178V8.29745C28.9081 4.67441 28.869 4.30331 28.3417 3.32675C27.9999 2.67245 27.2089 1.88144 26.6034 1.5787C25.4608 1.00253 25.9101 1.02206 15.8319 1.03183C8.01944 1.03183 6.51553 1.06112 6.05655 1.17831ZM25.6366 2.77011C26.2519 3.08261 26.8476 3.66855 27.1503 4.29355L27.3944 4.78183L27.4237 12.9752C27.4433 20.8267 27.4433 21.1685 27.2773 21.0221C27.1796 20.9439 26.2909 20.2213 25.3046 19.4303C21.9062 16.7057 21.0663 16.3639 20.1483 17.36C19.3476 18.2193 18.9472 19.5084 18.9472 21.2174C18.9472 22.3892 19.1425 23.3756 19.5331 24.2154C19.914 25.0064 21.1444 26.4615 22.5312 27.7408C24.9042 29.9381 24.6405 29.6256 24.6894 30.358L24.7284 31.0025L15.6171 30.983L6.496 30.9537L5.99796 30.69C5.72452 30.5435 5.29483 30.2017 5.05069 29.9283C4.24014 29.0299 4.29874 29.9967 4.29874 16.7447C4.29874 6.22714 4.31827 4.91855 4.45499 4.50839C4.63077 3.99081 5.34366 3.1412 5.80264 2.90683C6.59366 2.49667 6.48624 2.49667 16.0175 2.5162L25.1483 2.53573L25.6366 2.77011ZM29.5819 13.7369C31.5644 14.8502 33.4687 16.5592 34.2987 17.9654C34.5526 18.3951 34.9042 19.1666 35.08 19.6744L35.4023 20.6021L35.4608 26.608C35.5097 31.774 35.539 32.731 35.6855 33.4244C35.9784 34.8697 36.5937 36.3639 37.2773 37.3307L37.4237 37.5455H27.2773L26.9745 36.8912C26.4472 35.7389 26.3593 35.192 26.2714 32.3697C26.2323 30.856 26.1444 29.6158 26.0761 29.3912C25.9491 28.9908 25.7538 28.776 22.5019 25.4361C21.2421 24.1471 20.998 23.8443 20.8222 23.3658C20.2362 21.7838 20.3144 19.9185 21.0273 18.7271L21.2128 18.4049L21.6718 18.6588C21.9355 18.7955 23.3026 19.8307 24.7187 20.9537C26.1347 22.0767 27.873 23.4146 28.5858 23.9225C29.6991 24.733 29.914 24.8502 30.2655 24.8502C30.744 24.8502 30.9882 24.5572 30.9394 24.0494C30.9101 23.776 30.8026 23.6392 30.119 23.1412C29.6894 22.8189 29.2401 22.4869 29.123 22.4088C28.9081 22.2623 28.8983 22.233 28.9276 20.3775L28.9569 18.5025L29.494 18.8639C29.787 19.0592 30.3144 19.5182 30.6757 19.8892C31.2128 20.4557 31.3593 20.5533 31.6425 20.5533C32.1015 20.5533 32.3261 20.3189 32.3261 19.8404C32.3261 19.4693 32.2675 19.3814 31.4179 18.5416C30.6757 17.8092 30.3534 17.5748 29.7089 17.2721L28.9179 16.8912L28.9081 15.1529C28.9081 14.2057 28.9374 13.4244 28.9667 13.4244C29.0058 13.4244 29.2792 13.5611 29.5819 13.7369ZM39.6015 39.1471C39.787 39.2252 40.0312 39.44 40.1386 39.6158C40.3241 39.9185 40.3339 40.1041 40.3339 42.692V45.4557H25.7831V42.7408C25.7831 39.6939 25.8222 39.5084 26.4667 39.1861C26.7792 39.0201 27.3065 39.0103 33.039 39.0103C38.2343 39.0103 39.3183 39.0299 39.6015 39.1471Z" fill="#44B64B"/>
<path d="M14.2597 4.59628C13.4589 4.80136 12.2284 5.44589 11.6425 5.96347C9.52335 7.8287 8.85928 10.9537 10.0409 13.5416C11.037 15.7096 13.4101 17.2135 15.8905 17.233C18.2245 17.2428 20.578 15.7877 21.5644 13.7174C22.0917 12.6041 22.2187 12.0084 22.2089 10.7389C22.2089 9.81112 22.1698 9.55722 21.9062 8.82479C21.1737 6.71542 19.5233 5.17245 17.4237 4.63534C16.5253 4.40097 15.0605 4.38143 14.2597 4.59628ZM17.1015 6.15878C18.3905 6.53964 19.5526 7.47714 20.1483 8.60995C20.5976 9.47909 20.7245 9.96737 20.7245 10.8951C20.7245 12.2525 20.2558 13.3658 19.289 14.3228C17.0429 16.5787 13.2733 16.11 11.623 13.3658C9.71866 10.2115 12.0819 6.01229 15.7831 6.00253C16.2323 6.00253 16.7987 6.07089 17.1015 6.15878Z" fill="#44B64B"/>
<path d="M13.3706 8.43418C13.2143 8.56114 13.146 8.71739 13.146 8.97129C13.146 9.28379 13.2339 9.42051 13.9467 10.1334L14.7475 10.9342L13.9663 11.7154C13.5366 12.1451 13.1557 12.5748 13.1264 12.6725C12.9702 13.151 13.5854 13.7272 14.0835 13.5611C14.2104 13.5221 14.6499 13.1607 15.0698 12.7604L15.8217 12.0182L16.6421 12.8189C17.5307 13.6881 17.7456 13.776 18.2046 13.4147C18.3901 13.2682 18.4585 13.1217 18.4585 12.8678C18.4585 12.565 18.3608 12.4186 17.687 11.7252L16.9057 10.9342L17.687 10.1432C18.3608 9.44004 18.4585 9.30332 18.4585 8.99082C18.4585 8.5416 18.1753 8.24864 17.7553 8.24864C17.4917 8.24864 17.3061 8.37559 16.6323 9.04942L15.8315 9.8502L15.0014 9.04942C14.1128 8.18028 13.8198 8.06309 13.3706 8.43418Z" fill="#44B64B"/>
<path d="M34.6698 40.7389C34.4159 41.0611 34.4648 41.5103 34.7773 41.7642C34.953 41.9107 35.1874 41.94 36.1444 41.94H37.3065V42.5064C37.3065 43.19 37.5116 43.4439 38.0585 43.4439C38.6444 43.4439 38.7714 43.1803 38.7714 41.9498C38.7714 40.4361 38.8202 40.4752 36.6034 40.4752H34.8749L34.6698 40.7389Z" fill="#44B64B"/>
</svg>
