<svg width="20" height="20" viewBox="0 0 20 20" fill="none" xmlns="http://www.w3.org/2000/svg">
<path d="M10 20L9.44506 19.502C8.68002 18.8315 2 12.7922 2 8.37462C2 3.74945 5.58173 0 10 0C14.4183 0 18 3.74945 18 8.37462C18 12.7922 11.32 18.8315 10.5581 19.5054L10 20ZM10 1.81084C6.53873 1.81494 3.73379 4.75123 3.72987 8.37458C3.72987 11.1498 7.83968 15.5832 10 17.6123C12.1604 15.5823 16.2701 11.1464 16.2701 8.37458C16.2662 4.75123 13.4613 1.81498 10 1.81084Z" fill="#44B64B"/>
<path d="M10.0001 11.694C8.24873 11.694 6.82896 10.2077 6.82896 8.37433C6.82896 6.54095 8.24873 5.0547 10.0001 5.0547C11.7515 5.0547 13.1712 6.54095 13.1712 8.37433C13.1712 10.2077 11.7515 11.694 10.0001 11.694ZM10.0001 6.71448C9.12441 6.71448 8.41453 7.4576 8.41453 8.37429C8.41453 9.29098 9.12441 10.0341 10.0001 10.0341C10.8758 10.0341 11.5857 9.29098 11.5857 8.37429C11.5857 7.4576 10.8758 6.71448 10.0001 6.71448Z" fill="#44B64B"/>
</svg>
