<svg width="100" height="40" viewBox="0 0 100 40" fill="none" xmlns="http://www.w3.org/2000/svg">
<path d="M0 0H100V30C100 35.5228 95.5229 40 90 40H0V0Z" fill="white"/>
<g clip-path="url(#clip0_50_13922)">
<path fill-rule="evenodd" clip-rule="evenodd" d="M17.6579 35L17.0686 24.6763C16.7369 24.1968 15.904 23.009 15.2258 22.0941C14.4473 21.0438 14.4771 19.9313 14.4871 19.5568C14.488 19.5236 14.4887 19.4961 14.4887 19.4751C14.4887 19.3491 14.6116 18.3538 14.7502 17.2303L14.7502 17.2302L14.7502 17.2301C14.8957 16.0509 15.0587 14.7308 15.1153 14.1263C15.2037 13.182 15.5453 12.9213 15.705 12.909C16.3069 12.7491 17.6656 12.3778 18.2848 12.1712C19.0588 11.913 19.0588 11.2859 18.4691 10.5113C17.9973 9.89155 17.8548 8.72834 17.8425 8.22421C17.8425 7.09889 18.2777 6.3974 18.8358 6L8.00181 8.04475V24.1891C8.00181 24.2333 8.00141 24.2801 8.00098 24.3294C7.99242 25.3178 7.97502 27.3253 11.0346 30.2745C12.8831 32.0564 15.6039 33.8154 17.6579 35Z" fill="#44B64B"/>
<path d="M21.1696 12.9748L19.7949 12.7866L19.8331 13.2383L20.4441 14.0664C20.4313 15.6974 20.383 19.1025 20.2913 19.6746C20.6273 20.3371 20.9914 20.9041 21.1314 21.1049L21.9333 19.4864C21.7678 18.031 21.3452 14.9095 20.9786 14.0664C21.1811 13.5532 21.2398 13.4494 21.2455 13.4611L21.2459 13.4641C21.2459 13.4634 21.2459 13.4628 21.2458 13.4623C21.2457 13.4618 21.2456 13.4614 21.2455 13.4611L21.1696 12.9748Z" fill="#30367A"/>
<path d="M31.3134 8.04473V24.1891C31.3134 24.2333 31.3138 24.2801 31.3142 24.3294V24.3294C31.3228 25.3178 31.3402 27.3253 28.2806 30.2745C26.5156 31.9759 23.9553 33.6565 21.9396 34.836L23.1869 26.2625C23.2852 25.7337 23.5481 24.573 23.8134 24.1599C24.0788 23.7467 24.3908 23.0286 24.5137 22.7212C24.5505 22.6106 24.6242 22.1605 24.6242 21.2457C24.6242 20.3309 24.2557 16.192 24.0714 14.237C24.0714 14.0156 23.9314 13.5066 23.3712 13.241C22.6709 12.909 21.1967 12.1712 21.0125 11.6179C21.0125 11.41 21.0841 11.3456 21.189 11.2513C21.2144 11.2285 21.2417 11.204 21.2704 11.1752C21.2788 11.1669 21.2902 11.1559 21.3043 11.1424C21.5394 10.9168 22.5235 9.97259 22.5235 8.37175C22.5235 7.47512 22.2662 6.74329 21.817 6.25244L31.3134 8.04473Z" fill="#30367A"/>
</g>
<path d="M83.266 29.8084V27.5528H85.7746C86.3648 27.5528 86.8764 27.4405 87.3092 27.216C87.7519 26.9914 88.0913 26.6594 88.3274 26.22C88.5635 25.7709 88.6815 25.2289 88.6815 24.5943C88.6815 23.9693 88.5586 23.4421 88.3126 23.0124C88.0765 22.573 87.7421 22.2411 87.3092 22.0165C86.8764 21.7919 86.3648 21.6796 85.7746 21.6796H83.148V19.424H85.7893C86.596 19.424 87.3387 19.551 88.0175 19.8049C88.6963 20.049 89.2866 20.4005 89.7883 20.8594C90.29 21.3183 90.6786 21.8651 90.954 22.4998C91.2393 23.1345 91.3819 23.8375 91.3819 24.6089C91.3819 25.39 91.2393 26.098 90.954 26.7326C90.6786 27.3673 90.29 27.9141 89.7883 28.373C89.2866 28.832 88.6963 29.1884 88.0175 29.4422C87.3486 29.6863 86.6157 29.8084 85.8188 29.8084H83.266ZM81.4805 29.8084V19.424H84.1219V29.8084H81.4805Z" fill="#44B64B"/>
<path d="M73.993 25.6049V23.7301H75.9851C76.4179 23.7301 76.7475 23.6276 76.9738 23.4225C77.2099 23.2077 77.3279 22.9197 77.3279 22.5584C77.3279 22.2069 77.2099 21.9237 76.9738 21.7089C76.7475 21.4843 76.4179 21.372 75.9851 21.372H73.993V19.424H76.354C77.0623 19.424 77.682 19.5559 78.2133 19.8195C78.7543 20.0831 79.1773 20.4444 79.4823 20.9033C79.7873 21.3623 79.9398 21.8993 79.9398 22.5145C79.9398 23.1296 79.7824 23.6715 79.4676 24.1402C79.1626 24.5991 78.7347 24.9604 78.1838 25.224C77.6329 25.4779 76.9885 25.6049 76.2507 25.6049H73.993ZM71.8976 29.8084V19.424H74.539V29.8084H71.8976ZM77.564 29.8084L74.5242 25.3559L76.9 24.7847L80.6185 29.8084H77.564Z" fill="#44B64B"/>
<path d="M60.2937 29.8084L64.3517 19.424H66.9045L70.9182 29.8084H68.1588L65.1337 21.0791H66.0929L62.9941 29.8084H60.2937ZM62.758 27.9922V25.9124H68.5277V27.9922H62.758Z" fill="#44B64B"/>
<path d="M55.3402 29.9695C54.4548 29.9695 53.6728 29.7889 52.994 29.4276C52.325 29.0565 51.8036 28.5439 51.4298 27.8897C51.056 27.2355 50.8691 26.4934 50.8691 25.6634V19.424H53.4957V25.8538C53.4957 26.2249 53.5744 26.5471 53.7318 26.8205C53.899 27.0841 54.1204 27.2892 54.3958 27.4357C54.6811 27.5724 54.9959 27.6407 55.3402 27.6407C55.6944 27.6407 56.0042 27.5724 56.2699 27.4357C56.5355 27.2892 56.747 27.0841 56.9044 26.8205C57.0618 26.5569 57.1405 26.2395 57.1405 25.8685V19.424H59.7966V25.6781C59.7966 26.5081 59.6097 27.2501 59.2359 27.9044C58.862 28.5488 58.3406 29.0565 57.6717 29.4276C57.0126 29.7889 56.2354 29.9695 55.3402 29.9695Z" fill="#44B64B"/>
<path d="M44.4204 29.9695C43.6235 29.9695 42.8857 29.8377 42.2069 29.574C41.538 29.3006 40.9477 28.9198 40.4362 28.4316C39.9345 27.9434 39.541 27.3771 39.2557 26.7326C38.9803 26.0784 38.8425 25.3705 38.8425 24.6089C38.8425 23.8375 38.9852 23.1296 39.2705 22.4852C39.5656 21.831 39.9738 21.2646 40.4952 20.7862C41.0166 20.298 41.6216 19.922 42.3102 19.6584C43.0087 19.385 43.7514 19.2483 44.5384 19.2483C45.473 19.2483 46.319 19.4143 47.0765 19.7463C47.834 20.0685 48.4488 20.5177 48.921 21.0937L47.1503 22.8513C46.7961 22.4315 46.4076 22.119 45.9845 21.9139C45.5615 21.6991 45.0697 21.5917 44.5089 21.5917C43.9383 21.5917 43.4268 21.7187 42.9743 21.9725C42.5316 22.2166 42.1774 22.5633 41.9118 23.0124C41.6462 23.4616 41.5134 23.9889 41.5134 24.5943C41.5134 25.1996 41.6364 25.7318 41.8823 26.1907C42.1381 26.6496 42.4824 27.006 42.9152 27.2599C43.3579 27.5138 43.8646 27.6407 44.4351 27.6407C45.0057 27.6407 45.4877 27.5333 45.8812 27.3185C46.2846 27.1037 46.5895 26.7912 46.7961 26.3811C47.0126 25.971 47.1208 25.4828 47.1208 24.9165L48.9063 26.0589L44.14 25.9417V23.8033H49.7769V24.1988C49.7769 25.4389 49.5506 26.4885 49.0981 27.3478C48.6456 28.207 48.016 28.8613 47.2093 29.3104C46.4125 29.7498 45.4828 29.9695 44.4204 29.9695Z" fill="#44B64B"/>
<path d="M87.7606 15.108V13.9082H89.0355C89.3125 13.9082 89.5234 13.8426 89.6682 13.7113C89.8193 13.5739 89.8949 13.3895 89.8949 13.1583C89.8949 12.9333 89.8193 12.7521 89.6682 12.6146C89.5234 12.4709 89.3125 12.399 89.0355 12.399H87.7606V11.1523H89.2716C89.7249 11.1523 90.1216 11.2367 90.4615 11.4054C90.8078 11.5741 91.0785 11.8054 91.2737 12.0991C91.4689 12.3928 91.5665 12.7365 91.5665 13.1302C91.5665 13.5239 91.4658 13.8707 91.2643 14.1707C91.0691 14.4644 90.7952 14.6956 90.4426 14.8643C90.0901 15.0268 89.6777 15.108 89.2055 15.108H87.7606ZM86.4195 17.7983V11.1523H88.11V17.7983H86.4195ZM90.046 17.7983L88.1005 14.9487L89.621 14.5831L92.0009 17.7983H90.046Z" fill="#30367A"/>
<path d="M80.4986 17.7983V11.1523H82.1891V17.7983H80.4986ZM81.8396 17.7983V16.3829H85.4661V17.7983H81.8396ZM81.8396 15.0987V13.7207H85.1261V15.0987H81.8396ZM81.8396 12.5677V11.1523H85.4095V12.5677H81.8396Z" fill="#30367A"/>
<path d="M72.3181 17.7983V11.1523H73.5364L76.1051 15.0049H75.5291L78.0884 11.1523H79.3066V17.7983H77.6351V13.9269L77.8995 14.0019L76.3601 16.2985H75.2646L73.7347 14.0019L73.9991 13.9269V17.7983H72.3181Z" fill="#30367A"/>
<path d="M68.3893 17.9014C67.8227 17.9014 67.3222 17.7858 66.8877 17.5546C66.4596 17.3171 66.1259 16.989 65.8867 16.5703C65.6474 16.1516 65.5278 15.6767 65.5278 15.1455V11.1523H67.2088V15.2674C67.2088 15.5049 67.2592 15.7111 67.3599 15.8861C67.467 16.0548 67.6086 16.186 67.7849 16.2797C67.9675 16.3672 68.169 16.411 68.3893 16.411C68.616 16.411 68.8143 16.3672 68.9843 16.2797C69.1543 16.186 69.2897 16.0548 69.3904 15.8861C69.4911 15.7173 69.5415 15.5142 69.5415 15.2768V11.1523H71.2414V15.1549C71.2414 15.6861 71.1218 16.161 70.8825 16.5797C70.6433 16.9922 70.3096 17.3171 69.8815 17.5546C69.4597 17.7858 68.9623 17.9014 68.3893 17.9014Z" fill="#30367A"/>
<path d="M61.9918 17.9014C61.4314 17.9014 60.9435 17.817 60.528 17.6483C60.1187 17.4796 59.7441 17.214 59.4041 16.8515L60.4713 15.7829C60.7042 16.0267 60.9529 16.2141 61.2174 16.3454C61.4818 16.4703 61.7809 16.5328 62.1145 16.5328C62.3979 16.5328 62.6151 16.486 62.7662 16.3922C62.9236 16.2922 63.0023 16.1579 63.0023 15.9892C63.0023 15.8329 62.9456 15.7048 62.8323 15.6048C62.719 15.4986 62.5679 15.408 62.379 15.333C62.1964 15.2518 61.9918 15.1768 61.7651 15.108C61.5448 15.033 61.3213 14.9456 61.0946 14.8456C60.8742 14.7393 60.6696 14.6112 60.4807 14.4612C60.2982 14.3113 60.1502 14.1238 60.0369 13.8988C59.9235 13.6739 59.8669 13.3958 59.8669 13.0646C59.8669 12.6396 59.9676 12.2772 60.1691 11.9772C60.3769 11.6772 60.6633 11.446 61.0285 11.2835C61.3937 11.1211 61.8186 11.0398 62.3034 11.0398C62.7882 11.0398 63.2352 11.1211 63.6445 11.2835C64.0537 11.446 64.3905 11.671 64.655 11.9585L63.5784 13.0177C63.3769 12.8177 63.1723 12.6677 62.9645 12.5677C62.7567 12.4678 62.5301 12.4178 62.2845 12.4178C62.0516 12.4178 61.869 12.4584 61.7368 12.5396C61.6046 12.6209 61.5385 12.7365 61.5385 12.8865C61.5385 13.0364 61.5951 13.1583 61.7085 13.252C61.8218 13.3458 61.9697 13.4301 62.1523 13.5051C62.3412 13.5739 62.5458 13.6457 62.7662 13.7207C62.9928 13.7957 63.2163 13.8832 63.4367 13.9832C63.6571 14.0832 63.8585 14.2113 64.0411 14.3675C64.23 14.5237 64.3811 14.7206 64.4944 14.9581C64.6078 15.1955 64.6644 15.483 64.6644 15.8204C64.6644 16.4828 64.4283 16.9953 63.9561 17.3577C63.4902 17.7202 62.8354 17.9014 61.9918 17.9014Z" fill="#30367A"/>
<path d="M52.9598 17.7983V11.1523H54.1403L54.6503 12.5115V17.7983H52.9598ZM57.5779 17.7983L53.6681 12.8677L54.1403 11.1523L58.0595 16.0829L57.5779 17.7983ZM57.5779 17.7983L57.1435 16.4016V11.1523H58.8339V17.7983H57.5779Z" fill="#30367A"/>
<path d="M48.554 17.9202C48.0377 17.9202 47.5623 17.8327 47.1279 17.6577C46.6935 17.4827 46.3126 17.239 45.9852 16.9265C45.6641 16.6141 45.4123 16.2485 45.2297 15.8298C45.0471 15.4049 44.9558 14.9487 44.9558 14.4612C44.9558 13.9738 45.0439 13.5239 45.2202 13.1114C45.4028 12.6927 45.6546 12.3272 45.9757 12.0147C46.2968 11.7022 46.6746 11.4616 47.109 11.2929C47.5434 11.1179 48.0188 11.0305 48.5351 11.0305C49.0513 11.0305 49.5267 11.1179 49.9611 11.2929C50.3955 11.4616 50.7733 11.7022 51.0944 12.0147C51.4155 12.3272 51.6642 12.6927 51.8405 13.1114C52.023 13.5301 52.1143 13.9832 52.1143 14.4706C52.1143 14.9581 52.023 15.4111 51.8405 15.8298C51.6642 16.2485 51.4155 16.6172 51.0944 16.9359C50.7733 17.2484 50.3955 17.4921 49.9611 17.6671C49.533 17.8358 49.0639 17.9202 48.554 17.9202ZM48.5351 16.4204C48.9128 16.4204 49.2402 16.3391 49.5172 16.1766C49.7943 16.0142 50.0083 15.7861 50.1594 15.4924C50.3105 15.1986 50.3861 14.8549 50.3861 14.4612C50.3861 14.1738 50.342 13.9113 50.2539 13.6739C50.172 13.4364 50.0492 13.2333 49.8856 13.0646C49.7219 12.8896 49.5267 12.7552 49.3 12.6615C49.0734 12.5677 48.8184 12.5209 48.5351 12.5209C48.1573 12.5209 47.8299 12.6021 47.5529 12.7646C47.2759 12.9208 47.0618 13.1458 46.9107 13.4395C46.7596 13.7332 46.684 14.0738 46.684 14.4612C46.684 14.7612 46.725 15.033 46.8068 15.2768C46.895 15.5142 47.0209 15.7204 47.1846 15.8954C47.3483 16.0642 47.5434 16.1954 47.7701 16.2891C47.9968 16.3766 48.2517 16.4204 48.5351 16.4204Z" fill="#30367A"/>
<path d="M42.2731 17.9014C41.7631 17.9014 41.2909 17.817 40.8565 17.6483C40.4221 17.4733 40.0412 17.2327 39.7138 16.9265C39.3927 16.6141 39.1409 16.2485 38.9583 15.8298C38.782 15.4111 38.6938 14.9581 38.6938 14.4706C38.6938 13.9769 38.782 13.5239 38.9583 13.1114C39.1409 12.6927 39.3927 12.3303 39.7138 12.0241C40.0412 11.7179 40.4189 11.4773 40.8471 11.3023C41.2815 11.1273 41.7505 11.0398 42.2542 11.0398C42.7831 11.0398 43.2584 11.1242 43.6803 11.2929C44.1021 11.4554 44.4736 11.6835 44.7947 11.9772L43.6614 13.1021C43.504 12.9271 43.3088 12.7896 43.0759 12.6896C42.8429 12.5896 42.569 12.5396 42.2542 12.5396C41.9835 12.5396 41.7348 12.5834 41.5082 12.6709C41.2878 12.7583 41.0958 12.8896 40.9321 13.0646C40.7684 13.2333 40.6393 13.4364 40.5449 13.6739C40.4567 13.9113 40.4127 14.1769 40.4127 14.4706C40.4127 14.7643 40.4567 15.0299 40.5449 15.2674C40.6393 15.5049 40.7684 15.7111 40.9321 15.8861C41.0958 16.0548 41.2878 16.186 41.5082 16.2797C41.7348 16.3672 41.9835 16.411 42.2542 16.411C42.569 16.411 42.8461 16.3641 43.0853 16.2704C43.3245 16.1704 43.5292 16.0298 43.6992 15.8486L44.8324 16.9734C44.505 17.2671 44.1336 17.4952 43.718 17.6577C43.3088 17.8202 42.8272 17.9014 42.2731 17.9014Z" fill="#30367A"/>
<defs>
<clipPath id="clip0_50_13922">
<rect width="23.3148" height="29" fill="white" transform="translate(8 6)"/>
</clipPath>
</defs>
</svg>
