<svg width="60" height="60" viewBox="0 0 60 60" fill="none" xmlns="http://www.w3.org/2000/svg">
<path d="M41.5395 14.0469C48.7543 14.0469 54.8703 15.5763 58.5405 17.8083V40.145C58.5405 41.3247 58.136 42.4646 57.6139 43.7471C56.1019 46.9627 53.5647 49.3927 50.576 51.4915C48.4918 52.9552 46.2604 54.2128 44.0358 55.4666C43.2007 55.9373 42.3666 56.4074 41.5416 56.8877C40.7158 56.407 39.8808 55.9364 39.0449 55.4653C36.8209 54.2119 34.59 52.9546 32.5061 51.4915C29.5168 49.3927 26.9792 46.9627 25.4672 43.7471C24.9451 42.4646 24.5405 41.3247 24.5405 40.145V17.8082C28.2107 15.5762 34.3247 14.0469 41.5395 14.0469Z" stroke="#F3F4FF" stroke-width="2"/>
<path d="M26.1519 2.19727C25.9077 2.43164 25.9077 2.44141 25.9077 4.38477C25.9077 5.45898 25.937 6.40625 25.9663 6.49414C26.0737 6.76758 26.5522 6.93359 27.2749 6.93359H27.9585V7.8125C27.9585 8.29102 27.939 8.69141 27.9097 8.69141C27.8804 8.69141 27.4312 8.7793 26.9136 8.89648C24.3843 9.44336 21.7085 10.7422 19.8335 12.334L19.1987 12.8711L18.6909 12.3633L18.1929 11.8555L18.5835 11.4746C18.9058 11.1621 18.9741 11.0254 18.9741 10.7227C18.9741 10.2344 18.7007 9.96094 18.2124 9.96094C17.8706 9.96094 17.7534 10.0488 16.5034 11.3086C15.2925 12.5293 15.1655 12.6953 15.1655 13.0078C15.1655 13.4375 15.4976 13.7695 15.9272 13.7695C16.1616 13.7695 16.3569 13.6621 16.6597 13.3789L17.0796 12.998L17.5972 13.5156C17.9292 13.8574 18.0757 14.0625 18.0073 14.1113C17.7046 14.2969 17.1187 15.1758 17.1187 15.4395C17.1187 15.8398 17.5093 16.2109 17.9097 16.2109C18.1733 16.2109 18.3198 16.1133 18.769 15.6055C20.9858 13.125 23.1831 11.6504 25.937 10.791C29.189 9.77539 32.2065 9.83398 35.5366 10.957C36.8647 11.4062 37.1382 11.4062 37.3823 10.9277C37.5776 10.5566 37.4995 10.1074 37.2065 9.91211C36.8452 9.67773 34.7065 9.00391 33.7495 8.82812L32.8413 8.65234V6.95312L33.6812 6.92383C34.9214 6.86523 34.8921 6.92383 34.8921 4.42383C34.8921 2.44141 34.8921 2.43164 34.6479 2.19727L34.4136 1.95312H26.3862L26.1519 2.19727ZM33.3296 5.37109H27.4702V3.51562H33.3296V5.37109ZM31.2788 8.49609H29.521V6.93359H31.2788V8.49609Z" fill="#44B64B"/>
<path d="M42.3524 8.78906C42.1376 8.87695 41.6103 9.51171 39.3251 12.5C38.5146 13.5449 37.2548 15.1855 36.5224 16.1328C35.7899 17.0898 34.579 18.6523 33.8466 19.5996C32.6063 21.2109 30.2919 24.209 27.8896 27.334C26.786 28.7695 26.6981 29.0234 27.1278 29.4434L27.3622 29.6875H31.0829C33.1239 29.6875 34.7938 29.7168 34.7938 29.7559C34.7938 29.8047 34.0614 32.9297 33.1728 36.709C31.6103 43.3691 31.5614 43.6035 31.6981 43.9062C31.8642 44.2383 32.2743 44.4043 32.6454 44.2871C32.8505 44.2187 33.1142 43.8867 42.4403 31.7676C47.8017 24.7949 48.4657 23.8965 48.4657 23.584C48.4657 23.3691 48.3876 23.1641 48.2704 23.0469C48.0849 22.8613 47.9481 22.8516 44.1688 22.8516H40.2626L40.3114 22.6269C40.3896 22.2852 41.5419 17.4707 42.4989 13.4473C42.9872 11.4062 43.3876 9.61914 43.3876 9.46289C43.3876 9.18945 43.0946 8.78906 42.9091 8.78906C42.8603 8.78906 42.7626 8.76953 42.6845 8.75C42.6161 8.7207 42.4696 8.74023 42.3524 8.78906ZM40.4091 15.4394C40.1063 16.6992 39.579 18.9062 39.2274 20.3613C38.4853 23.418 38.4267 23.7988 38.6317 24.0723C38.7782 24.2578 38.9247 24.2676 42.4599 24.3164L46.1513 24.3652L45.7606 24.8535C45.2528 25.498 45.1649 25.6152 39.1981 33.3789C36.3759 37.041 34.0614 40.0293 34.0517 40.0098C34.0321 39.9902 34.5888 37.5684 35.2821 34.6191C35.9853 31.6602 36.5517 29.0918 36.5517 28.8965C36.5517 28.6621 36.4833 28.4863 36.3466 28.3594C36.1513 28.1836 35.9071 28.1738 32.7333 28.125L29.3251 28.0762L30.3798 26.709C30.956 25.957 32.9188 23.4082 34.745 21.0449C36.5614 18.6816 38.6903 15.9277 39.4716 14.9121C40.2431 13.9062 40.8974 13.1055 40.9169 13.125C40.9364 13.1445 40.7118 14.1894 40.4091 15.4394Z" fill="#44B64B"/>
<path d="M28.5054 14.209C24.0328 15.0586 20.6539 18.2812 19.5504 22.7637C19.2379 24.0527 19.2281 26.3867 19.5406 27.7148C20.2632 30.8398 22.3433 33.6133 25.0386 35.0488C26.1714 35.6543 26.8257 35.5371 26.8257 34.7168C26.8257 34.2969 26.6793 34.1308 25.9957 33.789C25.6929 33.6328 25.0875 33.2422 24.6578 32.9101C21.9625 30.8887 20.4781 27.373 20.9175 24.082C21.4742 19.9316 24.5211 16.6504 28.6324 15.8008C29.4039 15.6348 29.814 15.6152 30.9566 15.6543C32.2261 15.6933 32.3531 15.6836 32.5386 15.5176C32.6461 15.4101 32.7632 15.2246 32.8023 15.0976C32.8707 14.8242 32.6265 14.3164 32.3824 14.209C32.0308 14.0625 29.3062 14.0625 28.5054 14.209Z" fill="#44B64B"/>
<path d="M0.799956 17.7734C0.712065 17.8223 0.585112 17.998 0.516753 18.1641C0.370268 18.5059 0.516753 18.9844 0.819487 19.1406C0.926909 19.1992 4.1105 19.2383 9.13003 19.2383C18.0168 19.2383 17.5871 19.2676 17.8019 18.6914C17.9093 18.418 17.7824 17.998 17.5285 17.8125C17.3918 17.7051 15.7414 17.6855 9.15933 17.6855C4.17886 17.6855 0.897612 17.7148 0.799956 17.7734Z" fill="#44B64B"/>
<path d="M5.39919 22.9785C4.90114 23.2324 4.80349 23.8867 5.22341 24.2383C5.40896 24.4043 5.79958 24.4141 10.3797 24.4141C15.2429 24.4141 15.3308 24.4141 15.5066 24.2188C15.7605 23.9355 15.7508 23.3887 15.4773 23.1152L15.2527 22.9004L10.448 22.8711C6.71755 22.8613 5.58474 22.8809 5.39919 22.9785Z" fill="#44B64B"/>
<path d="M8.93472 28.3496C8.65152 28.6523 8.65152 29.1992 8.92496 29.4531C9.1105 29.6191 9.33511 29.6387 11.7375 29.668L14.3351 29.6973L14.6574 30.6934C16.2003 35.459 20.214 39.4629 25.0773 41.0937C26.2785 41.5039 27.5285 41.7969 28.0363 41.7969C28.6906 41.7969 29.0421 41.0644 28.6222 40.5859C28.4464 40.3711 28.2218 40.2832 27.4894 40.1367C24.5304 39.5215 21.8937 38.0957 19.8039 35.9863C19.2179 35.3906 18.4757 34.541 18.1632 34.1113C17.1867 32.7344 16.2687 30.7812 15.7902 29.0625C15.5168 28.0762 15.7218 28.125 12.2062 28.125H9.1398L8.93472 28.3496Z" fill="#44B64B"/>
</svg>
