<svg width="60" height="60" viewBox="0 0 60 60" fill="none" xmlns="http://www.w3.org/2000/svg">
<path d="M33.7928 5.25092C33.5486 5.37787 33.2068 5.65131 33.0408 5.85638C32.5623 6.43256 32.4451 6.9892 32.4451 8.68842V10.1826H30.8826V9.45013C30.8826 9.03998 30.824 8.57123 30.7459 8.39545C30.5506 7.91693 29.9842 7.46771 29.4959 7.39935C29.2615 7.37006 27.6697 7.35052 25.951 7.37006C22.8651 7.39935 22.826 7.39935 22.4549 7.63373C21.908 7.96576 21.7029 8.45404 21.7029 9.39154V10.163L19.6326 10.2021C17.3279 10.2411 17.2108 10.2607 16.6443 10.9052C16.4783 11.1005 16.2928 11.413 16.244 11.6181C16.0975 12.1357 16.0975 22.6923 16.244 23.2197C16.3123 23.4638 16.5076 23.7665 16.7713 24.0204C17.3475 24.5673 17.8162 24.665 19.7791 24.6161C21.2733 24.5869 21.3416 24.5771 21.5174 24.3525C21.7615 24.0497 21.7615 23.5224 21.5076 23.2685C21.3318 23.0927 21.1854 23.0732 19.701 23.0732C17.533 23.0732 17.699 23.288 17.699 20.5536V18.4345H34.8865V20.5536C34.8865 22.5556 34.8768 22.6923 34.6912 22.8779C34.4959 23.0732 34.369 23.0732 29.2713 23.0732C24.1736 23.0732 24.0467 23.0732 23.8514 23.2685C23.5584 23.5615 23.5584 24.079 23.8611 24.3915C24.0467 24.5771 24.2029 24.5869 29.2811 24.6161C32.6209 24.6357 34.6424 24.6064 34.8768 24.538C35.4334 24.3915 35.8826 24.04 36.1561 23.5615L36.4002 23.122L36.4588 16.0419H39.2127C41.8983 16.0419 41.9764 16.0322 42.4647 15.8076C43.0701 15.5244 43.5389 14.9872 43.7244 14.3427C43.9393 13.6396 43.9393 7.40912 43.7244 6.70599C43.5486 6.09076 43.0311 5.48529 42.4549 5.21185C42.035 5.01654 41.8983 5.00677 38.1385 5.00677L34.2518 5.01654L33.7928 5.25092ZM41.5565 6.57904C41.8104 6.6474 41.9861 6.78412 42.1131 6.9892C42.2986 7.28217 42.3084 7.50677 42.3084 10.5048C42.3084 13.913 42.2791 14.1376 41.8299 14.3818C41.7029 14.4404 40.3553 14.4794 38.158 14.4794C35.9608 14.4794 34.6131 14.4404 34.4861 14.3818C34.0369 14.1376 34.0076 13.913 34.0076 10.5048C34.0076 7.49701 34.0174 7.28217 34.2029 6.9892C34.3201 6.79388 34.5154 6.63763 34.7108 6.57904C35.16 6.45209 41.0877 6.44232 41.5565 6.57904ZM29.3299 10.1826H23.2654V8.91302L26.2733 8.93256L29.2713 8.96185L29.3299 10.1826ZM32.4451 12.7997C32.4451 14.04 32.6014 14.665 33.0506 15.2021C33.3729 15.5927 34.1834 16.0419 34.574 16.0419C34.8865 16.0419 34.8475 16.3349 34.4861 16.6865L34.1932 16.9697L32.4354 16.999L30.6873 17.038V16.1396C30.6873 15.329 30.6678 15.2314 30.4432 15.0165C30.2967 14.8603 30.0916 14.7724 29.9061 14.7724C29.7205 14.7724 29.5154 14.8603 29.369 15.0165C29.1443 15.2314 29.1248 15.329 29.1248 16.1396V17.0185H23.4608V16.1396C23.4608 15.329 23.4412 15.2314 23.2166 15.0165C22.9041 14.6943 22.4549 14.6943 22.1424 15.0165C21.9178 15.2314 21.8983 15.329 21.8983 16.1396V17.038L20.1697 16.999C18.7049 16.9794 18.3924 16.9404 18.1776 16.7939C17.7381 16.5009 17.699 16.2665 17.699 14.0888C17.699 12.0869 17.699 12.0478 17.9139 11.9013C18.1092 11.7646 18.9686 11.7451 25.2869 11.7451H32.4451V12.7997Z" fill="#44B64B"/>
<path d="M38.6458 9.59655L37.4837 10.7587L36.9759 10.2801C36.3704 9.70397 35.9993 9.64537 35.6185 10.036C35.1595 10.4852 35.2669 10.7782 36.2239 11.7547C37.015 12.5653 37.0931 12.6239 37.4642 12.6239C37.845 12.6239 37.9232 12.5653 39.3978 11.0809C40.8333 9.64537 40.9407 9.51842 40.9407 9.17662C40.9407 8.69811 40.6673 8.42467 40.179 8.42467C39.847 8.42467 39.7298 8.51256 38.6458 9.59655Z" fill="#44B64B"/>
<path d="M11.4388 26.0028C11.0775 26.1102 10.638 26.452 10.4525 26.7645C10.2376 27.1258 7.15167 41.0712 7.15167 41.6669C7.15167 42.3309 7.50323 42.9169 8.05011 43.1708C8.59698 43.4344 11.9954 44.1669 12.64 44.1669C13.3235 44.1669 13.8997 43.8251 14.1732 43.2587C14.2903 43.0243 14.3782 42.7899 14.3782 42.7215C14.3782 42.4969 14.5931 42.5067 15.7747 42.8094L16.9857 43.1122L19.3489 45.6903C21.7708 48.327 22.3665 48.8934 23.5872 49.7235C23.9778 49.9774 26.3802 51.2567 28.929 52.5653C33.2747 54.7919 33.6068 54.9481 34.1829 54.9872C34.515 55.0067 34.9837 54.9774 35.2083 54.9188C36.2337 54.6258 37.0345 53.6297 37.0638 52.6044C37.0833 52.1258 37.1028 52.077 37.3079 52.077C37.9622 52.077 38.9388 51.2958 39.2806 50.495C39.4564 50.0946 39.4857 49.8602 39.4564 49.3231C39.4271 48.7665 39.4466 48.6493 39.5833 48.6102C39.9446 48.493 40.5501 47.9657 40.7845 47.5555C41.097 47.0282 41.2435 46.2958 41.1458 45.7684C41.0677 45.3778 41.0775 45.368 41.39 45.2508C41.8294 45.0946 42.5716 44.245 42.7181 43.7469C42.7767 43.5223 42.8841 43.2782 42.9427 43.2098C43.0599 43.0829 45.1009 42.5165 45.4427 42.5067C45.5501 42.5067 45.6282 42.6239 45.6673 42.8485C45.7454 43.2391 46.2044 43.8153 46.6146 44.0301C46.761 44.0985 47.1028 44.1669 47.3568 44.1669C47.845 44.1669 51.6341 43.3758 51.9466 43.2001C52.1712 43.0829 52.6009 42.6141 52.7474 42.3407C52.9232 41.9891 52.8743 41.2079 52.5618 39.8114C52.2396 38.3758 52.1614 38.1708 51.9173 38.0731C51.6146 37.9559 51.1263 38.0145 50.9798 38.1805C50.6966 38.5028 50.7064 38.7567 50.9993 40.0555C51.1556 40.7684 51.2923 41.4422 51.2923 41.5399C51.2923 41.784 51.1653 41.8329 49.1048 42.2723C47.5423 42.6044 47.347 42.6239 47.2493 42.4872C47.054 42.2235 44.0169 28.5516 44.1341 28.4344C44.1829 28.3856 45.0814 28.1415 46.1263 27.9071C47.6302 27.5555 48.0403 27.4969 48.138 27.5946C48.1966 27.6532 48.6556 29.5087 49.1439 31.7059C49.6321 33.8934 50.0716 35.7684 50.1204 35.8661C50.3743 36.3446 51.2923 36.2372 51.4974 35.7001C51.6341 35.3387 49.8177 27.1747 49.4857 26.6766C49.222 26.2762 48.5579 25.9051 48.0989 25.9051C47.7376 25.9051 43.6458 26.8329 43.3919 26.9794C43.0599 27.1551 42.6107 27.7508 42.5423 28.1024C42.513 28.2977 42.5032 28.6493 42.5228 28.8837C42.5716 29.3036 42.5716 29.3133 42.3177 29.2645C42.181 29.245 39.7103 28.9813 36.8392 28.6786C31.0384 28.0731 30.638 28.0633 26.3411 28.4051C24.4954 28.5516 18.3138 29.1766 17.7474 29.2743L17.4446 29.3231L17.4837 28.7176C17.5228 27.995 17.347 27.5751 16.8196 27.1649C16.5364 26.9403 16.097 26.8036 14.3196 26.4032C12.1126 25.8954 11.888 25.8661 11.4388 26.0028ZM14.0853 27.9657C15.0228 28.1805 15.8333 28.3954 15.8821 28.4442C15.97 28.5321 12.9915 42.0477 12.7962 42.4286C12.679 42.6629 12.6009 42.6532 10.7552 42.2626C8.90948 41.8622 8.71417 41.7938 8.71417 41.5594C8.71417 41.2176 11.7513 27.7215 11.8587 27.5946C11.9075 27.5262 12.054 27.4872 12.1712 27.5165C12.2786 27.5458 13.1478 27.7411 14.0853 27.9657ZM37.7278 30.3485C40.5403 30.6512 42.8743 30.9247 42.9036 30.9637C43.011 31.0712 45.179 40.8368 45.1107 40.9051C45.0814 40.9344 44.4857 41.1102 43.7923 41.286L42.5228 41.5985L42.4251 41.3837C42.3665 41.2567 42.1712 41.0321 41.9857 40.8856C41.8001 40.7391 39.388 39.4696 36.6243 38.0536C31.097 35.2313 30.8528 35.0751 30.3646 34.0399C30.0716 33.3954 29.886 33.2294 29.4857 33.2294C29.3489 33.2294 28.1087 33.7762 26.7318 34.4501C25.1009 35.2411 24.1048 35.6708 23.8997 35.6708C23.4993 35.6708 22.972 35.3192 22.7376 34.8797C22.5032 34.4403 22.5814 33.9227 22.9525 33.5223C23.0989 33.3661 24.2903 32.4676 25.6087 31.5301L28.0013 29.8212H30.306C32.4446 29.8114 32.9818 29.8505 37.7278 30.3485ZM24.8177 30.1434C24.7982 30.163 24.2122 30.5829 23.5091 31.0809C21.9564 32.1844 21.6536 32.4579 21.3411 33.0731C20.7943 34.1473 20.97 35.3778 21.8099 36.2958C22.4544 37.0087 23.1185 37.2723 24.095 37.2137C24.7298 37.1747 24.9446 37.0868 26.9271 36.12L29.0755 35.0751L29.2122 35.2997C29.2903 35.4266 29.6419 35.8075 29.9935 36.159C30.6087 36.7743 30.8333 36.8915 35.6185 39.3231C38.3626 40.7196 40.7161 41.9403 40.8626 42.0379C41.6146 42.5555 41.3021 43.6883 40.345 43.9227C40.14 43.9715 39.6712 43.7762 38.0599 42.9559C36.9466 42.3895 35.931 41.9208 35.804 41.9208C35.2376 41.9208 34.8958 42.6825 35.2376 43.1708C35.3255 43.2977 36.2044 43.8055 37.2493 44.3231C38.265 44.8309 39.2122 45.3583 39.3392 45.4852C39.7884 45.9344 39.5833 46.8329 38.9583 47.1258C38.5091 47.3407 38.3724 47.2919 36.2337 46.1786C35.2376 45.661 34.3196 45.2411 34.1829 45.2411C33.763 45.2411 33.4212 45.5926 33.4212 46.0223C33.4212 46.5204 33.5872 46.6473 35.8431 47.7801C37.386 48.5516 37.6497 48.7176 37.7864 49.0008C38.0013 49.4403 37.8939 49.9481 37.513 50.2606C37.015 50.6903 36.7415 50.6219 34.6517 49.5379C32.4642 48.4051 32.1321 48.3368 31.8001 48.9618C31.6439 49.2743 31.6927 49.6454 31.9368 49.8602C32.0345 49.9481 32.7962 50.368 33.6458 50.8075C34.4857 51.2469 35.2474 51.6962 35.3255 51.8133C35.6185 52.2333 35.4427 53.0047 34.9935 53.2977C34.5052 53.6102 34.5052 53.6102 30.013 51.3251C27.6204 50.1141 25.3646 48.952 25.0032 48.7372C23.8118 48.0536 22.9232 47.2235 20.3548 44.4305L17.8255 41.6766L16.4388 41.3348C15.6771 41.1493 15.0032 40.9735 14.9446 40.9344C14.8079 40.8465 16.9954 30.9833 17.1614 30.9247C17.2591 30.8856 24.2122 30.1337 24.6224 30.1141C24.7493 30.1044 24.8372 30.1239 24.8177 30.1434Z" fill="#44B64B"/>
</svg>
