<svg width="60" height="60" viewBox="0 0 60 60" fill="none" xmlns="http://www.w3.org/2000/svg">
<path d="M59 9.98412C54.7432 7.16981 47.4735 5.30469 38.9988 5.30469C30.5241 5.30469 23.2568 7.16981 19 9.98412V35.4137C19 36.973 19.5384 38.4289 20.1226 39.8619C23.7096 47.5238 32.1111 51.2348 39.0012 55.3047C45.8913 51.2348 54.2904 47.5238 57.8774 39.8619C58.4616 38.4289 59 36.973 59 35.4137V9.98412Z" fill="#F8F8FF"/>
<path d="M23.5879 4.74838C17.8945 5.33432 12.6699 7.75619 8.60742 11.7113C7.15234 13.1273 6.08789 14.4164 5.01367 16.057C2.62109 19.7093 1.22461 23.9964 1.05859 28.1761L1 29.641L1.72266 30.3636L10.375 30.3831L19.0273 30.4124L19.2031 30.9203C19.6426 32.2191 20.4824 33.4398 21.6055 34.3871C22.2207 34.9046 23.6465 35.6566 24.3887 35.8519C24.8086 35.9593 24.877 35.9496 25.1211 35.764C25.4434 35.5296 25.5508 35.0999 25.375 34.7386C25.2871 34.5433 25.0918 34.4261 24.6328 34.2796C22.7969 33.6644 21.2246 32.0824 20.6484 30.266C20.375 29.4066 20.3066 28.0687 20.4922 27.18C20.9023 25.2562 22.1816 23.6351 23.9297 22.8441C24.252 22.6976 26.8008 21.8675 29.5938 21.0081C32.3867 20.139 34.9355 19.3578 35.2676 19.2503L35.8633 19.0648L35.6777 19.6605C35.5703 19.9925 34.7891 22.5414 33.9199 25.3343C33.0605 28.1273 32.2305 30.6859 32.0742 31.0277C31.3906 32.5511 29.8965 33.8402 28.2461 34.3187C27.6211 34.4945 27.3965 34.7386 27.3965 35.2171C27.3965 35.598 27.7188 35.93 28.0801 35.93C28.5 35.93 29.3496 35.6468 30.1309 35.2367C31.8398 34.3578 33.0703 32.9222 33.793 31.0081L34.0176 30.4124L42.1816 30.3831L50.3359 30.3636L50.6875 30.0218L51.0293 29.6703V28.7035C51.0293 26.9164 50.6289 24.4749 49.9844 22.3558C48.8223 18.5179 46.8301 15.1683 43.9492 12.2093C40.9414 9.12338 37.3672 6.93588 33.3145 5.71518C32.0254 5.31479 30.0625 4.92416 28.7441 4.77768C27.8652 4.68979 24.3789 4.66049 23.5879 4.74838ZM25.248 11.2035L25.0332 11.2621C24.9062 11.2913 24.6328 11.3206 24.418 11.3206C23.8711 11.3206 21.9863 11.6527 21.0781 11.9163C18.5195 12.6292 16.0879 13.9085 14.2031 15.5296C13.9004 15.7933 13.6074 16.0081 13.5684 16.0081C13.5195 16.0081 12.6992 15.2269 11.7422 14.2699L10.0137 12.5413L10.7754 11.8968C14.1934 8.99643 18.1191 7.17026 22.3672 6.49643C23.4609 6.32065 23.8711 6.28158 24.6914 6.26205L25.248 6.24252V11.2035ZM29.8867 6.54526C34.1055 7.24838 37.9043 9.00619 41.1953 11.7992L42.0547 12.5316L40.3164 14.2699C39.3594 15.2269 38.5391 16.0081 38.4902 16.0081C38.4512 16.0081 38.1582 15.7933 37.8555 15.5296C35.2578 13.2933 31.4102 11.6527 28.1094 11.3695C27.748 11.3402 27.2988 11.2913 27.1328 11.2621L26.8105 11.2132V6.21322L27.7676 6.28158C28.2852 6.32065 29.2422 6.43783 29.8867 6.54526ZM28.5195 12.9906C33.2852 13.7035 37.6113 16.516 40.248 20.6078C41.5566 22.6488 42.5527 25.4515 42.7773 27.7269C42.8066 28.0785 42.8555 28.4593 42.8848 28.5765L42.9238 28.8011H38.7246C34.7598 28.8011 34.5156 28.7914 34.5645 28.6253C34.5938 28.5374 35.2578 26.3695 36.0488 23.8206C36.9668 20.8519 37.4844 19.0355 37.4746 18.7718C37.4648 18.0003 36.9082 17.4339 36.1465 17.4437C35.502 17.4437 24.1152 20.9984 23.0508 21.5257C20.5703 22.7562 19.0078 25.1097 18.832 27.8929L18.7734 28.8011H9.13477L9.17383 28.5765C9.20312 28.4593 9.25195 28.0785 9.28125 27.7269C9.71094 23.3812 12.2598 18.9378 15.873 16.2425C18.627 14.1917 21.3223 13.1761 24.9062 12.8441C25.5117 12.7855 27.7578 12.8831 28.5195 12.9906ZM12.3574 17.2093C12.3574 17.2581 12.1035 17.5902 11.8008 17.9417C9.66211 20.4515 8.03125 24.2894 7.71875 27.5316C7.68945 27.8831 7.64062 28.3128 7.61133 28.4789L7.5625 28.8011H2.5625L2.64062 27.7953C2.96289 23.0785 4.95508 18.2738 8.14844 14.514L8.88086 13.6546L10.6191 15.3929C11.5762 16.3499 12.3574 17.1703 12.3574 17.2093ZM43.9199 14.514C47.1035 18.2738 49.0957 23.0687 49.418 27.7953L49.4961 28.8011H44.4961L44.4473 28.4789C44.418 28.3128 44.3691 27.8831 44.3398 27.5316C44.0273 24.2894 42.3965 20.4515 40.2578 17.9417C39.9551 17.5902 39.7012 17.2581 39.7012 17.2093C39.7012 17.1507 43.1191 13.6644 43.1777 13.6644C43.1875 13.6644 43.5195 14.0453 43.9199 14.514Z" fill="#44B64B"/>
<path d="M25.9609 24.7972C24.6914 24.9339 23.5781 25.7347 23.0215 26.9261C22.7871 27.4144 22.7578 27.5999 22.7578 28.5081C22.7578 29.4164 22.7871 29.5921 23.0215 30.0999C23.3535 30.8031 24.1348 31.5843 24.8574 31.9164C25.3262 32.141 25.5215 32.1703 26.4199 32.1703C27.2793 32.1703 27.5234 32.1312 27.9238 31.9456C28.5195 31.6722 29.2129 31.1156 29.457 30.7152C29.8379 30.0804 29.5742 29.4847 28.9004 29.4847C28.6172 29.4847 28.4512 29.5726 28.0215 29.9632C27.3965 30.5394 26.9863 30.6956 26.2246 30.6371C25.1602 30.5589 24.3691 29.7679 24.291 28.7035C24.2227 27.7269 24.6426 26.9652 25.4824 26.5355C26.3418 26.096 27.3379 26.3206 28.1289 27.1312C28.4414 27.4632 28.5781 27.5316 28.8711 27.5316C29.3105 27.5316 29.6426 27.18 29.6426 26.721C29.6426 26.4769 29.5254 26.3011 29.0762 25.8617C28.3828 25.1976 27.9043 24.9535 26.8105 24.7581C26.7324 24.7386 26.3516 24.7581 25.9609 24.7972Z" fill="#44B64B"/>
</svg>
