<svg width="60" height="60" viewBox="0 0 60 60" fill="none" xmlns="http://www.w3.org/2000/svg">
<path d="M39.4759 7.31879C47.5386 7.31879 54.3811 9.03465 58.477 11.5469V36.4278C58.477 37.7633 58.0187 39.0487 57.4381 40.4747C55.7467 44.0735 52.91 46.7878 49.5803 49.126C47.2599 50.7555 44.7726 52.1574 42.2984 53.5519C41.3531 54.0847 40.4097 54.6165 39.4782 55.1594C38.5459 54.616 37.6016 54.0838 36.6553 53.5505C34.1817 52.1564 31.6949 50.7549 29.3749 49.126C26.0446 46.7877 23.2073 44.0734 21.5159 40.4747C20.9353 39.0487 20.477 37.7633 20.477 36.4278V11.5469C24.5728 9.03463 31.4132 7.31879 39.4759 7.31879Z" stroke="#F3F4FF" stroke-width="2"/>
<path d="M22.0356 3.70163C18.4126 4.13131 15.3169 5.13717 12.436 6.80709C7.02585 9.94186 3.01218 15.1176 1.38132 21.0747C-0.161647 26.7192 0.394994 32.9497 2.89499 37.9204C3.28562 38.7114 3.48093 38.8969 3.89109 38.8969C4.20359 38.8969 10.3169 35.7231 10.5903 35.4204C10.8833 35.0883 10.8637 34.9419 10.4536 34.0434C9.32078 31.5825 8.8032 28.7602 9.03757 26.2798C9.25242 24.0239 9.63327 22.686 10.6098 20.684C13.6762 14.4438 20.6098 11.0258 27.3969 12.393C30.1704 12.9497 32.9634 14.4047 34.9946 16.3481C35.5122 16.8462 35.6489 16.9243 35.9614 16.9243C36.313 16.9243 36.4497 16.8071 38.9009 14.3657C40.3071 12.9594 41.5083 11.6899 41.5669 11.5532C41.7329 11.143 41.5278 10.8012 40.5415 9.9028C37.1626 6.78756 33.0415 4.76608 28.3735 3.936C27.3872 3.76022 26.7134 3.71139 24.77 3.69186C23.4516 3.67233 22.2212 3.68209 22.0356 3.70163ZM27.2114 5.34225C29.9165 5.71334 32.6704 6.59225 34.9751 7.84225C36.4009 8.61373 38.3344 9.99069 39.3012 10.9087L39.7114 11.2993L37.8462 13.1743L35.9712 15.0493L35.2778 14.4633C31.938 11.6508 27.6313 10.2739 23.1489 10.5864C17.5239 10.977 12.5141 14.1118 9.6821 19.0239C7.68015 22.4907 7.00632 26.4067 7.68992 30.479C7.85593 31.4751 8.40281 33.3403 8.79343 34.229L8.94968 34.5903L7.84617 35.1665C4.9946 36.6704 4.24265 37.0512 4.21335 37.0219C4.19382 37.0024 4.02781 36.6313 3.83249 36.1919C1.9282 31.7387 1.56687 26.6606 2.8071 21.8364C4.20359 16.3969 7.95359 11.3579 12.7876 8.43795C15.4341 6.84616 18.8716 5.65475 21.8012 5.31295C22.9438 5.17623 26.1079 5.19577 27.2114 5.34225Z" fill="#44B64B"/>
<path d="M42.5529 13.4672C42.2306 13.8774 42.299 14.1508 42.9728 15.1567C45.4337 18.8286 46.6837 22.979 46.674 27.52C46.674 29.6684 46.5079 31.0551 46.0099 32.9887C45.6388 34.4536 44.8283 36.6801 44.545 37.0219C44.5353 37.0317 43.3048 36.4067 41.8009 35.6255C38.9005 34.1215 38.5587 34.0044 38.1974 34.4048C37.9825 34.6391 37.9533 35.1958 38.1388 35.4204C38.2072 35.4985 38.9786 35.938 39.838 36.3872C45.2579 39.2094 45.0333 39.1215 45.4533 38.6821C45.5607 38.5551 45.8341 38.0669 46.049 37.5981C49.5158 30.0493 48.9005 21.3579 44.4083 14.4633C44.0372 13.8969 43.6466 13.3794 43.5392 13.3208C43.1779 13.1255 42.7677 13.1938 42.5529 13.4672Z" fill="#44B64B"/>
<path d="M30.1899 20.8501C29.3305 21.729 28.4614 22.6469 23.979 27.393L21.8891 29.6098L20.3657 28.1059C19.0376 26.7778 18.813 26.5923 18.5298 26.5923C18.1098 26.5923 17.7387 26.9633 17.7387 27.393C17.7387 27.6762 17.9438 27.9204 19.6235 29.5903C21.4594 31.4262 21.518 31.4751 21.9087 31.4751C22.3091 31.4751 22.3286 31.4555 24.6919 28.9653C25.9907 27.5786 27.8169 25.6548 28.7348 24.688C32.4555 20.7524 32.143 21.1333 32.104 20.5864C32.0747 20.313 31.645 19.9516 31.3423 19.9516C31.1372 19.9516 30.8637 20.1665 30.1899 20.8501Z" fill="#44B64B"/>
</svg>
