<svg width="61" height="60" viewBox="0 0 61 60" fill="none" xmlns="http://www.w3.org/2000/svg">
<path d="M27.5977 11.2872C26.6699 11.463 25.5078 11.9318 24.9609 12.3517C24.502 12.7032 24.3848 13.1329 24.6387 13.5333C24.9023 13.9337 25.3027 13.9337 25.9961 13.5528C27.0703 12.9474 27.8223 12.7521 29.043 12.7618C29.9512 12.7618 30.2344 12.8107 30.8789 13.0255C31.8457 13.3673 32.5293 13.797 33.125 14.461C33.8965 15.3204 34.4629 16.6583 34.4629 17.6153V17.9864L34.1016 17.6935C33.4277 17.1661 32.8613 17.215 32.0508 17.8693L31.6797 18.1622L26.8848 18.2208L26.1426 18.5919C24.8047 19.256 23.9551 20.4181 23.7012 21.9415C23.584 22.6056 23.5352 22.713 23.3691 22.7423C23.1836 22.7716 23.1348 22.6837 22.9785 22.1075C22.832 21.59 22.793 21.1114 22.793 19.9298C22.793 18.2501 22.9199 17.6446 23.584 16.2482C23.9746 15.4083 23.9941 15.1153 23.6719 14.8028C23.4082 14.5294 23.1738 14.5001 22.793 14.6759C22.4805 14.8224 21.875 16.0138 21.5039 17.2443C21.2598 18.0646 21.2402 18.2403 21.2402 19.9786C21.2402 21.7267 21.2598 21.8829 21.5039 22.7032C21.748 23.4747 21.7578 23.5821 21.6309 23.7286C21.3477 24.0314 21.1621 24.6466 21.1621 25.2716C21.1523 26.3849 21.8164 27.3419 22.832 27.6935C23.0664 27.7716 23.3691 27.84 23.4863 27.84C23.6621 27.84 23.7305 27.9181 23.8086 28.2013C23.8672 28.4064 23.916 28.6212 23.916 28.6798C23.916 28.7482 24.1211 29.2071 24.3652 29.7052C24.7266 30.4083 24.9902 30.7794 25.5859 31.3849L26.3574 32.1661L26.3477 32.8107V33.4552L25.7227 33.9337C24.6973 34.7247 24.3164 35.1446 24.248 35.545C24.1895 35.8868 24.082 35.9747 22.4219 37.1173C21.3379 37.8595 20.3906 38.5919 19.9902 39.0021C19.3457 39.6564 19.3262 39.6661 19.0625 39.5294C18.916 39.4513 18.252 39.2071 17.5977 38.9728C16.1523 38.4747 16.123 38.4064 16.9727 37.6446C17.6562 37.0196 18.1152 36.3361 18.3496 35.5841L18.5254 35.0177L19.1211 34.9005C20.1172 34.6954 20.6055 34.3341 20.9766 33.504C21.2988 32.8009 21.1914 31.6778 20.7617 31.1798C20.6445 31.0431 20.6348 30.8673 20.7129 30.1837C21.0449 27.1271 19.8242 24.6271 17.3828 23.3575C16.3477 22.8204 15.5664 22.6349 14.3945 22.6349C13.2715 22.6349 12.6562 22.7814 11.3281 23.3478C10.8203 23.5626 10.3516 23.7384 10.293 23.7384C10.2344 23.7384 9.87305 23.8946 9.47266 24.0802C8.16406 24.7052 7.25586 25.9357 7.01172 27.4103C6.92383 27.9864 6.93359 28.2989 7.10937 29.5196L7.30469 30.9552L7.07031 31.3751C6.74805 31.9708 6.67969 32.5861 6.86523 33.2306C7.14844 34.1974 7.87109 34.7833 8.94531 34.9298C9.41406 34.9884 9.45312 35.0177 9.50195 35.3009C9.62891 35.9454 10.1465 36.8439 10.7324 37.42C11.1816 37.8595 11.3184 38.0548 11.3184 38.2696C11.3184 38.5431 11.2793 38.5724 10.2637 38.9239C8.21289 39.6564 7.90039 39.8517 7.90039 40.3986C7.90039 40.8478 8.18359 41.1505 8.59375 41.1505C8.7793 41.1505 9.49219 40.9259 10.1953 40.6525L11.4648 40.1544L11.6113 40.3693C12.2363 41.2677 12.8906 41.6388 13.8574 41.6486C14.8047 41.6486 15.6152 41.1798 16.1523 40.3107C16.2402 40.1739 16.377 40.2032 17.4023 40.5743C18.0371 40.8087 18.5742 41.0236 18.6035 41.0528C18.6328 41.0821 18.5742 41.3165 18.4863 41.5802C18.2324 42.254 18.1543 47.84 18.3887 48.1915C18.6816 48.6505 19.4727 48.5919 19.707 48.0939C19.7754 47.9278 19.8145 46.9806 19.8145 45.2911C19.8145 42.5275 19.873 42.1368 20.3516 41.1798C20.791 40.3204 21.2988 39.8321 23.0762 38.6017C24.0234 37.9474 24.834 37.4103 24.8828 37.4103C24.9316 37.4103 25.2734 37.8204 25.6543 38.3282C26.2402 39.0997 26.416 39.2755 26.7969 39.422C27.2461 39.588 27.2559 39.588 28.1934 39.3146C28.7109 39.1681 29.2188 39.0216 29.3164 39.0021C29.4727 38.9532 29.4824 39.2169 29.4824 43.6505V48.3575L29.7266 48.5919C29.9707 48.8458 30.1367 48.8751 30.5371 48.7775C31.0352 48.6407 31.0449 48.5235 31.0449 43.5626C31.0449 39.2267 31.0547 38.963 31.2207 39.0118C31.3086 39.0411 31.7676 39.1778 32.2363 39.3146C33.5938 39.715 33.9063 39.588 34.9316 38.2208L35.5859 37.3419L37.1875 38.4454C39.4043 39.9689 39.9512 40.545 40.4395 41.8634C40.6348 42.3907 40.6543 42.6837 40.7031 45.2814C40.752 47.3907 40.791 48.1622 40.8887 48.2794C41.0742 48.4943 41.4844 48.5724 41.7969 48.4454C42.2656 48.2501 42.2949 48.0255 42.2363 45.0079C42.207 43.4845 42.1777 42.1173 42.1582 41.9708C42.1289 41.6974 42.1582 41.6778 43.3496 41.1993C44.1602 40.8771 44.5801 40.7501 44.5996 40.8282C44.6289 40.8966 44.7656 41.0919 44.9316 41.2677C45.957 42.4493 48.0371 42.2247 48.7988 40.8673C48.8672 40.7403 49.0332 40.7794 49.9023 41.1212C51.7383 41.8536 52.2461 42.2345 52.793 43.2892C53.0273 43.7482 53.0566 43.9532 53.1055 45.0275C53.1445 45.7208 53.2227 46.3458 53.291 46.463C53.4668 46.7853 54.0332 46.8634 54.3652 46.6193C54.6191 46.4337 54.6289 46.3849 54.6582 45.3107C54.6973 44.0411 54.5801 43.3771 54.1895 42.5372C53.5645 41.2189 52.6855 40.5255 50.5957 39.7052C49.1895 39.1486 49.1113 39.1095 49.1113 38.8556C49.1113 38.6505 49.209 38.5236 49.5215 38.3087C49.7559 38.1525 50.0293 37.9278 50.127 37.8107C50.2637 37.6642 50.4297 37.6056 50.7227 37.6056C52.5 37.6056 54.0723 36.6486 54.8438 35.0958C55.166 34.4415 55.2148 34.2657 55.2441 33.4454C55.293 32.3028 55.2148 31.9806 54.4336 30.1739C54.0918 29.3829 53.7012 28.2892 53.5645 27.7521C53.2031 26.297 52.6758 25.34 51.6504 24.3243C50.9961 23.6603 50.6445 23.4064 49.9902 23.0743C48.0957 22.1368 46.1426 22.0294 44.2188 22.7716C42.041 23.6114 40.5078 25.4376 39.9512 27.8888C39.8438 28.3673 39.4824 29.3634 39.1602 30.1056C38.418 31.8048 38.2715 32.3028 38.2715 33.172C38.2715 35.6427 40.2832 37.6056 42.8125 37.6056C43.125 37.6056 43.2715 37.6642 43.457 37.8595C43.584 37.9962 43.8379 38.1915 44.0137 38.3087C44.2773 38.4747 44.3359 38.5528 44.3066 38.8068C44.2773 39.09 44.2188 39.129 42.8711 39.6759C42.0996 39.9884 41.4551 40.2325 41.4453 40.2228C41.4355 40.2032 41.2891 39.9982 41.123 39.754C40.625 39.0118 39.8535 38.3575 38.0859 37.1271C36.4453 35.9943 36.377 35.9357 36.2305 35.4864C36.0938 35.0861 35.9375 34.9103 35.127 34.2364L34.1797 33.4552L34.1699 32.7911V32.1173L34.7949 31.5216C35.1367 31.1896 35.5762 30.6525 35.7813 30.34C36.1523 29.754 36.709 28.3771 36.709 28.0353C36.709 27.879 36.7773 27.84 37.0313 27.84C37.4316 27.84 38.2422 27.4591 38.6035 27.0978C38.7598 26.9415 38.9941 26.5802 39.1309 26.2872C39.3359 25.8478 39.3652 25.6622 39.3262 25.1056C39.2871 24.6759 39.1992 24.3146 39.0527 24.0509L38.8281 23.6505L39.0918 21.7169C39.2285 20.6525 39.3457 19.4903 39.3457 19.1388C39.3457 17.1466 37.9785 15.2814 36.0449 14.5978C35.6836 14.4708 35.3125 14.3634 35.2246 14.3634C35.1367 14.3634 34.9219 14.1681 34.7656 13.9337C34.2969 13.2599 33.252 12.3614 32.4805 11.9903C30.9961 11.2579 29.1602 10.9943 27.5977 11.2872ZM36.8066 16.9122C37.3535 17.4786 37.7148 18.2794 37.7637 19.0118C37.8223 19.8224 37.4023 22.7618 37.2363 22.7618C36.9141 22.7618 36.8066 22.6349 36.8066 22.2345C36.8066 21.6485 36.5527 20.7696 36.1719 20.0079C35.8496 19.3732 35.8398 19.3341 35.9375 18.7872C36.0449 18.2208 36.0059 16.7169 35.8691 16.3751C35.8008 16.2091 35.8105 16.2091 36.1133 16.3653C36.2891 16.4532 36.6016 16.6974 36.8066 16.9122ZM33.8672 19.5978C34.2969 19.9884 34.5703 20.3595 34.8242 20.8868L35.1953 21.629L35.2246 24.5392C35.2539 27.0196 35.2344 27.547 35.0977 28.0157C34.4531 30.2325 32.4902 31.7462 30.2734 31.7462C28.3301 31.7462 26.5723 30.6427 25.7422 28.9142C25.2344 27.8595 25.166 27.2735 25.2051 24.422C25.2344 22.0685 25.2441 21.9025 25.459 21.4435C25.752 20.8087 26.2891 20.2521 26.8945 19.9689C27.3633 19.7443 27.4609 19.7345 29.6973 19.7345C31.0449 19.7345 32.1191 19.6954 32.2754 19.6368C32.4219 19.5782 32.666 19.422 32.8223 19.295C32.9785 19.1583 33.1445 19.0509 33.1934 19.0509C33.2422 19.0509 33.5449 19.295 33.8672 19.5978ZM47.9297 23.9825C50.0488 24.4903 51.6504 26.17 52.0996 28.3673C52.1973 28.8263 52.5488 29.8028 52.9785 30.8087C53.6426 32.3419 53.7012 32.5372 53.7012 33.1427C53.7012 33.9728 53.3984 34.6759 52.793 35.2325C52.4023 35.5939 51.5137 36.0333 51.4062 35.9259C51.377 35.9064 51.4062 35.7306 51.4551 35.545C51.5137 35.3693 51.5527 35.0079 51.5527 34.754C51.5527 34.3829 51.5039 34.2657 51.2988 34.0997C50.7324 33.6505 50.166 33.9728 49.9902 34.8517C49.7559 35.9454 49.1016 36.8243 48.1445 37.2833C47.6758 37.5177 47.4805 37.5568 46.7676 37.5568C46.0938 37.5568 45.8496 37.5079 45.4492 37.3126C44.7266 36.9611 44.0039 36.1993 43.75 35.506C43.5449 34.9591 43.5352 34.8126 43.5645 32.3907C43.5938 29.9493 43.6035 29.8224 43.8281 29.3243C43.9551 29.0509 44.082 28.8165 44.1016 28.8165C44.1309 28.8165 44.5117 28.9923 44.9414 29.2071C46.0352 29.7443 46.7969 29.8907 48.6035 29.8907H50.0879V30.9161C50.0879 31.8146 50.1172 31.9708 50.2832 32.1368C50.5469 32.4005 51.0938 32.4005 51.3574 32.1368C51.5332 31.9611 51.5527 31.8146 51.5527 30.6232C51.5527 28.465 51.5234 28.4454 48.6816 28.338C46.4453 28.2501 46.0547 28.1427 45.0488 27.42C44.5703 27.0782 44.3945 27.0099 44.0137 27.0099C43.4375 27.0099 43.1152 27.2931 42.627 28.2208C42.0508 29.3341 41.9824 29.7638 41.9824 32.5372C41.9824 33.9044 42.0312 35.213 42.0898 35.4474C42.1387 35.6818 42.1582 35.8966 42.1387 35.9259C42.0312 36.0236 41.2207 35.6427 40.8496 35.3204C40.6348 35.1349 40.332 34.754 40.1758 34.4708C39.9219 34.0118 39.8828 33.8458 39.8828 33.1622C39.8828 32.4103 39.9023 32.3224 40.5957 30.7501C40.9766 29.8517 41.3672 28.8165 41.4453 28.4454C41.8359 26.5509 42.7539 25.3009 44.3555 24.461C45.4785 23.8751 46.7285 23.6993 47.9297 23.9825ZM15.3516 24.2755C17.8125 24.7931 19.4922 27.1466 19.1895 29.6368C19.1211 30.1642 19.1016 30.1837 18.8281 30.1837C18.6426 30.1837 18.5449 30.1349 18.5449 30.0372C18.5449 29.7931 18.252 29.4025 17.9492 29.2462C17.7539 29.1486 17.334 29.1095 16.4551 29.1095C14.4824 29.1095 13.291 28.7872 12.0117 27.8986C11.3086 27.42 10.752 27.4103 10.332 27.8497C9.99023 28.2208 9.58984 29.0411 9.45312 29.6857C9.35547 30.1446 9.32617 30.1837 9.07227 30.1837C8.75977 30.1837 8.78906 30.2618 8.58398 28.797C8.52539 28.3868 8.50586 27.879 8.54492 27.6739C8.71094 26.7462 9.43359 25.7989 10.1953 25.4864C13.5645 24.1095 14.043 23.9923 15.3516 24.2755ZM23.584 26.2482C23.5059 26.3263 22.9492 25.9845 22.8418 25.7794C22.5684 25.2911 22.8027 24.6271 23.3398 24.3536L23.5742 24.2364L23.6035 25.2228C23.6133 25.7599 23.6133 26.2286 23.584 26.2482ZM37.5391 24.6173C37.627 24.715 37.7246 24.9786 37.7539 25.1935C37.8027 25.545 37.7734 25.6232 37.4609 25.9357C36.8848 26.5118 36.8066 26.4337 36.8066 25.2618V24.2364L37.0898 24.3341C37.2461 24.3927 37.4512 24.5196 37.5391 24.6173ZM12.4121 29.9591C13.2617 30.3693 14.2871 30.5743 15.7422 30.6427L17.0996 30.7013L17.0605 32.713C17.002 35.0372 16.9238 35.3693 16.2402 36.131C15.5957 36.8439 14.8828 37.1661 13.9551 37.1564C13.3887 37.1564 13.1152 37.0978 12.7344 36.922C12.0215 36.5802 11.3867 35.8966 11.1328 35.213C10.9277 34.6661 10.918 34.5099 10.9473 32.2345C10.9668 30.4278 11.0156 29.7736 11.1133 29.5782L11.25 29.3048L11.582 29.5099C11.7676 29.6271 12.1387 29.8321 12.4121 29.9591ZM9.36523 32.5763C9.36523 33.4845 9.32617 33.5431 8.78906 33.2599C8.4375 33.0841 8.25195 32.6544 8.37891 32.3126C8.49609 32.0001 8.84766 31.7462 9.14062 31.7462C9.35547 31.7462 9.36523 31.7755 9.36523 32.5763ZM19.3359 32.0294C19.502 32.1954 19.6191 32.42 19.6191 32.5665C19.6191 32.879 19.2578 33.2794 18.916 33.3673L18.6426 33.4259V32.5861C18.6426 31.8048 18.6523 31.7462 18.8477 31.7462C18.9551 31.7462 19.1797 31.8732 19.3359 32.0294ZM29.9219 33.2794C30.9277 33.3282 31.7676 33.2208 32.4414 32.9669C32.5781 32.9083 32.6074 32.9571 32.6074 33.2989V33.6993L31.4453 34.2853L30.2832 34.8614L29.1016 34.3146L27.9199 33.7579V32.9376L28.3887 33.0841C28.6426 33.1622 29.3359 33.2501 29.9219 33.2794ZM29.4824 37.2931L28.8281 37.4884C27.5098 37.879 27.334 37.9278 27.2949 37.8888C27.2852 37.8693 26.9434 37.42 26.543 36.8829L25.8301 35.9259L26.8848 34.9884L28.1836 35.6329L29.4824 36.2872V37.2931ZM34.1406 35.4767C34.3945 35.7013 34.5996 35.9161 34.5801 35.965C34.5313 36.1505 33.1641 37.8986 33.0762 37.8986C33.0176 37.8986 32.5488 37.7618 32.0117 37.5958L31.0449 37.2931V36.2286L32.2461 35.6525C32.9004 35.3302 33.4863 35.0763 33.5547 35.0763C33.6133 35.0665 33.877 35.2521 34.1406 35.4767ZM14.834 39.0997C14.834 39.3829 14.7656 39.5489 14.5508 39.754C14.1699 40.1446 13.8379 40.213 13.4473 39.9786C13.0762 39.7638 12.8809 39.4415 12.8809 39.0118V38.7091L14.834 38.7286V39.0997ZM47.5488 39.4903C47.5488 39.9689 47.4219 40.2032 47.0605 40.3888C46.4746 40.6915 45.8887 40.2618 45.8887 39.5196V39.1193H47.5488V39.4903Z" fill="#44B64B"/>
<path d="M6.00586 42.1173C5.87891 42.2443 5.67383 42.6056 5.54688 42.9278C5.3418 43.4552 5.32227 43.7091 5.2832 45.5743L5.24414 47.6349L5.51758 47.8497C5.83984 48.1036 6.14258 48.1134 6.45508 47.8595C6.69922 47.6739 6.69922 47.6446 6.74805 45.9357C6.79688 44.3829 6.82617 44.1193 7.06055 43.4454C7.34375 42.6251 7.32422 42.2833 6.99219 42.0489C6.68945 41.8341 6.28906 41.8732 6.00586 42.1173Z" fill="#44B64B"/>
<path d="M22.5876 42.8889C22.4216 43.0744 22.4021 43.2893 22.3728 45.2033C22.3435 47.4592 22.3825 47.7522 22.8025 47.9475C23.154 48.1037 23.3689 48.0842 23.6618 47.8498L23.9157 47.6545V45.3596C23.9157 43.2014 23.906 43.0647 23.7204 42.8791C23.447 42.6057 22.8415 42.6154 22.5876 42.8889Z" fill="#44B64B"/>
<path d="M36.7188 42.9376C36.5234 43.1818 36.5137 43.3185 36.5137 45.2911C36.5137 47.6935 36.5625 47.8985 37.1582 48.0157C37.4219 48.0646 37.5684 48.0353 37.7637 47.8888L38.0273 47.6935L38.0566 45.3888C38.0762 43.1818 38.0664 43.0646 37.8809 42.879C37.5781 42.5763 36.9727 42.6153 36.7188 42.9376Z" fill="#44B64B"/>
</svg>
