<svg width="60" height="60" viewBox="0 0 60 60" fill="none" xmlns="http://www.w3.org/2000/svg">
<path d="M31.6897 9.05841C31.4456 9.29279 31.4456 9.30255 31.4456 11.2459C31.4456 12.3201 31.4749 13.2674 31.5042 13.3553C31.6116 13.6287 32.0901 13.7947 32.8128 13.7947H33.4964V14.6736C33.4964 15.1522 33.4769 15.5526 33.4476 15.5526C33.4183 15.5526 32.969 15.6404 32.4515 15.7576C29.9222 16.3045 27.2464 17.6033 25.3714 19.1951L24.7366 19.7322L24.2288 19.2244L23.7308 18.7166L24.1214 18.3358C24.4436 18.0233 24.512 17.8865 24.512 17.5838C24.512 17.0955 24.2386 16.8221 23.7503 16.8221C23.4085 16.8221 23.2913 16.91 22.0413 18.1697C20.8304 19.3904 20.7034 19.5565 20.7034 19.869C20.7034 20.2986 21.0354 20.6307 21.4651 20.6307C21.6995 20.6307 21.8948 20.5233 22.1976 20.2401L22.6175 19.8592L23.1351 20.3768C23.4671 20.7186 23.6136 20.9236 23.5452 20.9725C23.2425 21.158 22.6565 22.0369 22.6565 22.3006C22.6565 22.701 23.0472 23.0721 23.4476 23.0721C23.7112 23.0721 23.8577 22.9744 24.3069 22.4666C26.5237 19.9861 28.721 18.5115 31.4749 17.6522C34.7269 16.6365 37.7444 16.6951 41.0745 17.8182C42.4026 18.2674 42.6761 18.2674 42.9202 17.7889C43.1155 17.4178 43.0374 16.9686 42.7444 16.7733C42.3831 16.5389 40.2444 15.8651 39.2874 15.6893L38.3792 15.5135V13.8143L39.219 13.785C40.4593 13.7264 40.43 13.785 40.43 11.285C40.43 9.30255 40.43 9.29279 40.1858 9.05841L39.9515 8.81427H31.9241L31.6897 9.05841ZM38.8675 12.2322H33.0081V10.3768H38.8675V12.2322ZM36.8167 15.3572H35.0589V13.7947H36.8167V15.3572Z" fill="#44B64B"/>
<path d="M47.8903 15.6502C47.6755 15.7381 47.1481 16.3729 44.863 19.3611C44.0524 20.4061 42.7927 22.0467 42.0603 22.994C41.3278 23.951 40.1169 25.5135 39.3845 26.4608C38.1442 28.0721 35.8298 31.0701 33.4274 34.1951C32.3239 35.6307 32.236 35.8846 32.6657 36.3045L32.9001 36.5486H36.6208C38.6618 36.5486 40.3317 36.5779 40.3317 36.617C40.3317 36.6658 39.5993 39.7908 38.7106 43.5701C37.1481 50.2303 37.0993 50.4647 37.236 50.7674C37.4021 51.0994 37.8122 51.2654 38.1833 51.1483C38.3884 51.0799 38.6521 50.7479 47.9782 38.6287C53.3396 31.6561 54.0036 30.7576 54.0036 30.4451C54.0036 30.2303 53.9255 30.0252 53.8083 29.908C53.6228 29.7225 53.486 29.7127 49.7067 29.7127H45.8005L45.8493 29.4881C45.9274 29.1463 47.0798 24.3318 48.0368 20.3084C48.5251 18.2674 48.9255 16.4803 48.9255 16.324C48.9255 16.0506 48.6325 15.6502 48.447 15.6502C48.3981 15.6502 48.3005 15.6307 48.2224 15.6111C48.154 15.5818 48.0075 15.6014 47.8903 15.6502ZM45.947 22.3006C45.6442 23.5604 45.1169 25.7674 44.7653 27.2225C44.0231 30.2791 43.9646 30.66 44.1696 30.9334C44.3161 31.119 44.4626 31.1287 47.9978 31.1775L51.6892 31.2264L51.2985 31.7147C50.7907 32.3592 50.7028 32.4764 44.736 40.24C41.9138 43.9022 39.5993 46.8904 39.5896 46.8709C39.57 46.8514 40.1267 44.4295 40.82 41.4803C41.5231 38.5213 42.0896 35.9529 42.0896 35.7576C42.0896 35.5233 42.0212 35.3475 41.8845 35.2205C41.6892 35.0447 41.445 35.035 38.2712 34.9861L34.863 34.9373L35.9177 33.5701C36.4938 32.8182 38.4567 30.2693 40.2829 27.9061C42.0993 25.5428 44.2282 22.7889 45.0095 21.7733C45.781 20.7674 46.4353 19.9666 46.4548 19.9861C46.4743 20.0057 46.2497 21.0506 45.947 22.3006Z" fill="#44B64B"/>
<path d="M34.0423 21.0701C29.5697 21.9197 26.1908 25.1424 25.0873 29.6248C24.7748 30.9139 24.765 33.2478 25.0775 34.576C25.8002 37.701 27.8802 40.4744 30.5755 41.91C31.7084 42.5154 32.3627 42.3982 32.3627 41.5779C32.3627 41.158 32.2162 40.992 31.5326 40.6502C31.2298 40.4939 30.6244 40.1033 30.1947 39.7713C27.4994 37.7498 26.015 34.2342 26.4544 30.9432C27.0111 26.7928 30.058 23.5115 34.1693 22.6619C34.9408 22.4959 35.3509 22.4764 36.4935 22.5154C37.763 22.5545 37.89 22.5447 38.0755 22.3787C38.183 22.2713 38.3002 22.0857 38.3392 21.9588C38.4076 21.6854 38.1634 21.1775 37.9193 21.0701C37.5677 20.9236 34.8431 20.9236 34.0423 21.0701Z" fill="#44B64B"/>
<path d="M6.33687 24.6346C6.24898 24.6834 6.12202 24.8592 6.05366 25.0252C5.90718 25.367 6.05366 25.8455 6.3564 26.0018C6.46382 26.0604 9.64741 26.0994 14.6669 26.0994C23.5537 26.0994 23.124 26.1287 23.3388 25.5525C23.4462 25.2791 23.3193 24.8592 23.0654 24.6736C22.9287 24.5662 21.2783 24.5467 14.6962 24.5467C9.71577 24.5467 6.43452 24.576 6.33687 24.6346Z" fill="#44B64B"/>
<path d="M10.9361 29.8397C10.4381 30.0936 10.3404 30.7479 10.7603 31.0994C10.9459 31.2654 11.3365 31.2752 15.9166 31.2752C20.7799 31.2752 20.8677 31.2752 21.0435 31.0799C21.2974 30.7967 21.2877 30.2498 21.0142 29.9764L20.7896 29.7615L15.9849 29.7322C12.2545 29.7225 11.1216 29.742 10.9361 29.8397Z" fill="#44B64B"/>
<path d="M14.4716 35.2107C14.1884 35.5135 14.1884 36.0604 14.4619 36.3143C14.6474 36.4803 14.872 36.4998 17.2744 36.5291L19.872 36.5584L20.1943 37.5545C21.7373 42.3201 25.7509 46.324 30.6142 47.9549C31.8154 48.365 33.0654 48.658 33.5732 48.658C34.2275 48.658 34.5791 47.9256 34.1591 47.4471C33.9833 47.2322 33.7587 47.1443 33.0263 46.9979C30.0673 46.3826 27.4306 44.9568 25.3408 42.8475C24.7548 42.2518 24.0126 41.4022 23.7001 40.9725C22.7236 39.5955 21.8056 37.6424 21.3271 35.9236C21.0537 34.9373 21.2587 34.9861 17.7431 34.9861H14.6767L14.4716 35.2107Z" fill="#44B64B"/>
</svg>
